<svg width="24" height="24" viewBox="0 0 24 24" fill="none" xmlns="http://www.w3.org/2000/svg">
<path d="M8 6V18" stroke="#33363F" stroke-width="2" stroke-linecap="round" stroke-linejoin="round"/>
<path d="M8 6L5 9" stroke="#33363F" stroke-width="2" stroke-linecap="round" stroke-linejoin="round"/>
<path d="M15.5 5C14.6974 5 13.9549 5.10115 13.3094 5.39406C12.6361 5.69958 12.1314 6.18516 11.778 6.83433C11.4391 7.45674 11.2528 8.20366 11.145 9.03551C11.0365 9.87266 11 10.8604 11 12H13C13 10.8896 13.0364 10.0023 13.1284 9.29262C13.2211 8.57759 13.363 8.10576 13.5345 7.79067C13.6915 7.50234 13.8795 7.33167 14.1359 7.21532C14.4201 7.08635 14.8443 7 15.5 7V5ZM11 12C11 13.1396 11.0365 14.1273 11.145 14.9645C11.2528 15.7963 11.4391 16.5433 11.778 17.1657C12.1314 17.8148 12.6361 18.3004 13.3094 18.6059C13.9549 18.8989 14.6974 19 15.5 19V17C14.8443 17 14.4201 16.9136 14.1359 16.7847C13.8795 16.6683 13.6915 16.4977 13.5345 16.2093C13.363 15.8942 13.2211 15.4224 13.1284 14.7074C13.0364 13.9977 13 13.1104 13 12H11ZM15.5 19C16.3026 19 17.0451 18.8989 17.6906 18.6059C18.3639 18.3004 18.8686 17.8148 19.222 17.1657C19.5609 16.5433 19.7472 15.7963 19.855 14.9645C19.9635 14.1273 20 13.1396 20 12H18C18 13.1104 17.9636 13.9977 17.8716 14.7074C17.7789 15.4224 17.637 15.8942 17.4655 16.2093C17.3085 16.4977 17.1205 16.6683 16.8641 16.7847C16.5799 16.9136 16.1557 17 15.5 17V19ZM20 12C20 10.8604 19.9635 9.87266 19.855 9.03551C19.7472 8.20366 19.5609 7.45674 19.222 6.83433C18.8686 6.18516 18.3639 5.69958 17.6906 5.39406C17.0451 5.10115 16.3026 5 15.5 5V7C16.1557 7 16.5799 7.08635 16.8641 7.21532C17.1205 7.33167 17.3085 7.50234 17.4655 7.79067C17.637 8.10576 17.7789 8.57759 17.8716 9.29262C17.9636 10.0023 18 10.8896 18 12H20Z" fill="#33363F"/>
<path d="M13 7L18 17" stroke="#33363F" stroke-width="2" stroke-linecap="round" stroke-linejoin="round"/>
</svg>
