<svg width="24" height="24" viewBox="0 0 24 24" fill="none" xmlns="http://www.w3.org/2000/svg">
<path fill-rule="evenodd" clip-rule="evenodd" d="M9.67505 19.3393L6.67505 17.1965C5.8539 16.6099 5.44333 16.3167 5.22166 15.8859C5 15.4552 5 14.9507 5 13.9415V10.0585C5 9.73714 5 9.46696 5.00716 9.23403L11 13.5146V20.2313C10.6433 20.0309 10.227 19.7336 9.67505 19.3393ZM13 20.2313C13.3567 20.0309 13.773 19.7336 14.325 19.3393L17.325 17.1965C18.1461 16.6099 18.5567 16.3167 18.7783 15.8859C19 15.4552 19 14.9507 19 13.9415V10.0585C19 9.73714 19 9.46696 18.9928 9.23403L13 13.5146V20.2313ZM18.1276 7.39429L12 11.7711L5.87244 7.39429C6.08372 7.22593 6.34653 7.03821 6.67505 6.80356L9.67505 4.6607C10.7977 3.85878 11.3591 3.45782 12 3.45782C12.6409 3.45782 13.2023 3.85878 14.325 4.6607L17.325 6.80356C17.6535 7.03821 17.9163 7.22593 18.1276 7.39429Z" fill="#222222"/>
</svg>
