<svg width="24" height="24" viewBox="0 0 24 24" fill="none" xmlns="http://www.w3.org/2000/svg">
<path d="M5 4L3 6" stroke="#222222" stroke-width="2" stroke-linecap="round"/>
<path d="M19 4L21 6" stroke="#222222" stroke-width="2" stroke-linecap="round"/>
<path fill-rule="evenodd" clip-rule="evenodd" d="M12 20C16.4183 20 20 16.4183 20 12C20 7.58172 16.4183 4 12 4C7.58172 4 4 7.58172 4 12C4 16.4183 7.58172 20 12 20ZM14.7809 10.1247C15.1259 9.69343 15.056 9.06414 14.6247 8.71913C14.1934 8.37412 13.5641 8.44404 13.2191 8.87531L11.7919 10.6594L9.5547 9.16795C9.09517 8.8616 8.4743 8.98577 8.16795 9.4453C7.8616 9.90483 7.98577 10.5257 8.4453 10.8321L11.2546 12.7049C11.7941 13.0646 12.519 12.952 12.9241 12.4457L14.7809 10.1247Z" fill="#222222"/>
</svg>
