<svg width="24" height="24" viewBox="0 0 24 24" fill="none" xmlns="http://www.w3.org/2000/svg">
<path d="M5.77446 7.98369C6.04414 7.80391 6.17898 7.71402 6.32486 7.65033C6.45434 7.59381 6.59003 7.55273 6.72912 7.52793C6.88582 7.5 7.04788 7.5 7.37199 7.5H16.628C16.9521 7.5 17.1142 7.5 17.2709 7.52793C17.41 7.55273 17.5457 7.59381 17.6751 7.65033C17.821 7.71402 17.9559 7.80391 18.2255 7.9837L19.2175 8.64502C19.6864 8.95761 19.9209 9.11391 20.0906 9.3204C20.2408 9.50321 20.3536 9.71386 20.4223 9.94028C20.5 10.196 20.5 10.4778 20.5 11.0413V13.62C20.5 14.6281 20.5 15.1321 20.3038 15.5172C20.1312 15.8559 19.8559 16.1312 19.5172 16.3038C19.1321 16.5 18.6281 16.5 17.62 16.5H6.38C5.37191 16.5 4.86786 16.5 4.48282 16.3038C4.14413 16.1312 3.86876 15.8559 3.69619 15.5172C3.5 15.1321 3.5 14.6281 3.5 13.62V11.0413C3.5 10.4778 3.5 10.196 3.57767 9.94028C3.64643 9.71386 3.75917 9.50321 3.90942 9.3204C4.07914 9.11391 4.31358 8.95761 4.78246 8.64502L5.77446 7.98369Z" stroke="#222222"/>
<path d="M20.5 11.5H17.618C17.1329 11.5 16.8903 11.5 16.685 11.5986C16.6214 11.6292 16.5612 11.6664 16.5055 11.7096C16.3255 11.8491 16.217 12.0661 16 12.5V12.5C15.783 12.9339 15.6745 13.1509 15.4945 13.2904C15.4388 13.3336 15.3786 13.3708 15.315 13.4014C15.1097 13.5 14.8671 13.5 14.382 13.5H9.61803C9.13287 13.5 8.89029 13.5 8.685 13.4014C8.62141 13.3708 8.56123 13.3336 8.50547 13.2904C8.32546 13.1509 8.21697 12.9339 8 12.5V12.5C7.78303 12.0661 7.67454 11.8491 7.49453 11.7096C7.43877 11.6664 7.37859 11.6292 7.315 11.5986C7.10971 11.5 6.86713 11.5 6.38197 11.5H3.5" stroke="#222222"/>
</svg>
