<svg width="24" height="24" viewBox="0 0 24 24" fill="none" xmlns="http://www.w3.org/2000/svg">
<path d="M6.5 9.5L4.34353 11.6565C4.03222 11.9678 3.87656 12.1234 3.76525 12.3051C3.66656 12.4661 3.59383 12.6417 3.54973 12.8254C3.5 13.0325 3.5 13.2527 3.5 13.6929V17.62C3.5 18.6281 3.5 19.1321 3.69619 19.5172C3.86876 19.8559 4.14413 20.1312 4.48282 20.3038C4.86786 20.5 5.37191 20.5 6.38 20.5H17.62C18.6281 20.5 19.1321 20.5 19.5172 20.3038C19.8559 20.1312 20.1312 19.8559 20.3038 19.5172C20.5 19.1321 20.5 18.6281 20.5 17.62V13.6929C20.5 13.2527 20.5 13.0325 20.4503 12.8254C20.4062 12.6417 20.3334 12.4661 20.2348 12.3051C20.1234 12.1234 19.9678 11.9678 19.6565 11.6565L17.5 9.5" stroke="#222222"/>
<path d="M20.5 14.5H17.9415C17.2458 14.5 16.8979 14.5 16.636 14.6888C16.3742 14.8775 16.2642 15.2075 16.0442 15.8675L15.9558 16.1325C15.7358 16.7925 15.6258 17.1225 15.364 17.3112C15.1021 17.5 14.7542 17.5 14.0585 17.5H9.94152C9.2458 17.5 8.89794 17.5 8.63605 17.3112C8.37416 17.1225 8.26416 16.7925 8.04415 16.1325L7.95585 15.8675C7.73584 15.2075 7.62584 14.8775 7.36395 14.6888C7.10206 14.5 6.7542 14.5 6.05848 14.5H3.5" stroke="#222222"/>
<path d="M17.5 14.5V8.16274C17.5 7.91815 17.5 7.79586 17.4724 7.68077C17.4479 7.57873 17.4075 7.48119 17.3526 7.39172C17.2908 7.2908 17.2043 7.20432 17.0314 7.03137L14.9686 4.96863C14.7957 4.79568 14.7092 4.7092 14.6083 4.64736C14.5188 4.59253 14.4213 4.55213 14.3192 4.52763C14.2041 4.5 14.0818 4.5 13.8373 4.5H8.9C8.05992 4.5 7.63988 4.5 7.31901 4.66349C7.03677 4.8073 6.8073 5.03677 6.66349 5.31901C6.5 5.63988 6.5 6.05992 6.5 6.9V14.5" stroke="#222222"/>
<path d="M13.5 4.5L13.5 6.9C13.5 7.46005 13.5 7.74008 13.609 7.95399C13.7049 8.14215 13.8578 8.29513 14.046 8.39101C14.2599 8.5 14.5399 8.5 15.1 8.5L17.5 8.5" stroke="#222222"/>
</svg>
