<svg width="24" height="24" viewBox="0 0 24 24" fill="none" xmlns="http://www.w3.org/2000/svg">
<path d="M5.5 12.5H6.05848C6.7542 12.5 7.10206 12.5 7.36395 12.6888C7.62584 12.8775 7.73584 13.2075 7.95585 13.8675L8.04415 14.1325C8.26416 14.7925 8.37416 15.1225 8.63605 15.3112C8.89794 15.5 9.2458 15.5 9.94152 15.5H14.0585C14.7542 15.5 15.1021 15.5 15.364 15.3112C15.6258 15.1225 15.7358 14.7925 15.9558 14.1325L16.0442 13.8675C16.2642 13.2075 16.3742 12.8775 16.636 12.6888C16.8979 12.5 17.2458 12.5 17.9415 12.5H18.5C19.4428 12.5 19.9142 12.5 20.2071 12.7929C20.5 13.0858 20.5 13.5572 20.5 14.5C20.5 16.3856 20.5 17.3284 19.9142 17.9142C19.3284 18.5 18.3856 18.5 16.5 18.5H7.5C5.61438 18.5 4.67157 18.5 4.08579 17.9142C3.5 17.3284 3.5 16.3856 3.5 14.5C3.5 13.5572 3.5 13.0858 3.79289 12.7929C4.08579 12.5 4.55719 12.5 5.5 12.5Z" fill="#2A4157" fill-opacity="0.24"/>
<path d="M5.66105 6.89825C5.96698 6.38837 6.11994 6.13343 6.33054 5.94825C6.51691 5.78438 6.73515 5.66081 6.97156 5.58531C7.2387 5.5 7.53601 5.5 8.13063 5.5H15.8694C16.464 5.5 16.7613 5.5 17.0284 5.58531C17.2648 5.66081 17.4831 5.78438 17.6695 5.94825C17.8801 6.13343 18.033 6.38837 18.339 6.89825L20.0896 9.81597C20.2423 10.0706 20.3187 10.1979 20.3727 10.3338C20.4207 10.4544 20.4554 10.5799 20.4764 10.708C20.5 10.8523 20.5 11.0008 20.5 11.2977V15.62C20.5 16.6281 20.5 17.1321 20.3038 17.5172C20.1312 17.8559 19.8559 18.1312 19.5172 18.3038C19.1321 18.5 18.6281 18.5 17.62 18.5H6.38C5.37191 18.5 4.86786 18.5 4.48282 18.3038C4.14413 18.1312 3.86876 17.8559 3.69619 17.5172C3.5 17.1321 3.5 16.6281 3.5 15.62V11.2977C3.5 11.0008 3.5 10.8523 3.5236 10.708C3.54456 10.5799 3.57932 10.4544 3.62727 10.3338C3.68128 10.1979 3.75766 10.0706 3.91042 9.81597L5.66105 6.89825Z" stroke="#222222"/>
<path d="M20.5 12.5H17.9415C17.2458 12.5 16.8979 12.5 16.636 12.6888C16.3742 12.8775 16.2642 13.2075 16.0442 13.8675L15.9558 14.1325C15.7358 14.7925 15.6258 15.1225 15.364 15.3112C15.1021 15.5 14.7542 15.5 14.0585 15.5H9.94152C9.2458 15.5 8.89794 15.5 8.63605 15.3112C8.37416 15.1225 8.26416 14.7925 8.04415 14.1325L7.95585 13.8675C7.73584 13.2075 7.62584 12.8775 7.36395 12.6888C7.10206 12.5 6.7542 12.5 6.05848 12.5H3.5" stroke="#222222"/>
</svg>
