<svg width="24" height="24" viewBox="0 0 24 24" fill="none" xmlns="http://www.w3.org/2000/svg">
<path d="M6.5 8.5L4.78246 9.64502C4.31358 9.95761 4.07914 10.1139 3.90942 10.3204C3.75917 10.5032 3.64643 10.7139 3.57767 10.9403C3.5 11.196 3.5 11.4778 3.5 12.0413V15.62C3.5 16.6281 3.5 17.1321 3.69619 17.5172C3.86876 17.8559 4.14413 18.1312 4.48282 18.3038C4.86786 18.5 5.37191 18.5 6.38 18.5H17.62C18.6281 18.5 19.1321 18.5 19.5172 18.3038C19.8559 18.1312 20.1312 17.8559 20.3038 17.5172C20.5 17.1321 20.5 16.6281 20.5 15.62V12.0413C20.5 11.4778 20.5 11.196 20.4223 10.9403C20.3536 10.7139 20.2408 10.5032 20.0906 10.3204C19.9209 10.1139 19.6864 9.95761 19.2175 9.64502L17.5 8.5" stroke="#222222" stroke-linecap="round"/>
<path d="M20.5 12.5H17.9415C17.2458 12.5 16.8979 12.5 16.636 12.6888C16.3742 12.8775 16.2642 13.2075 16.0442 13.8675L15.9558 14.1325C15.7358 14.7925 15.6258 15.1225 15.364 15.3112C15.1021 15.5 14.7542 15.5 14.0585 15.5H9.94152C9.2458 15.5 8.89794 15.5 8.63605 15.3112C8.37416 15.1225 8.26416 14.7925 8.04415 14.1325L7.95585 13.8675C7.73584 13.2075 7.62584 12.8775 7.36395 12.6888C7.10206 12.5 6.7542 12.5 6.05848 12.5H3.5" stroke="#222222"/>
<path d="M9.5 5.5L12 3M12 3L14.5 5.5M12 3L12 10" stroke="#222222"/>
</svg>
