<svg width="24" height="24" viewBox="0 0 24 24" fill="none" xmlns="http://www.w3.org/2000/svg">
<path d="M6.15647 7.84353C6.46778 7.53222 6.62344 7.37656 6.80509 7.26525C6.96614 7.16656 7.14172 7.09383 7.32538 7.04973C7.53254 7 7.75267 7 8.19293 7H15.8071C16.2473 7 16.4675 7 16.6746 7.04973C16.8583 7.09383 17.0339 7.16656 17.1949 7.26525C17.3766 7.37656 17.5322 7.53222 17.8435 7.84353L20.9297 10.9297C20.9556 10.9556 20.9686 10.9686 20.9779 10.9838C20.9861 10.9972 20.9922 11.0118 20.9959 11.0271C21 11.0444 21 11.0627 21 11.0994V14.12C21 15.1281 21 15.6321 20.8038 16.0172C20.6312 16.3559 20.3559 16.6312 20.0172 16.8038C19.6321 17 19.1281 17 18.12 17H5.88C4.87191 17 4.36786 17 3.98282 16.8038C3.64413 16.6312 3.36876 16.3559 3.19619 16.0172C3 15.6321 3 15.1281 3 14.12V11.0994C3 11.0627 3 11.0444 3.00414 11.0271C3.00782 11.0118 3.01388 10.9972 3.0221 10.9838C3.03138 10.9686 3.04435 10.9556 3.07029 10.9297L6.15647 7.84353Z" fill="#2A4157" fill-opacity="0.24"/>
<path d="M3 15V11.25C3 11.1119 3.11193 11 3.25 11H6.55848C7.41934 11 8.18362 11.5509 8.45585 12.3675L8.54415 12.6325C8.81638 13.4491 9.58066 14 10.4415 14H13.5585C14.4193 14 15.1836 13.4491 15.4558 12.6325L15.5442 12.3675C15.8164 11.5509 16.5807 11 17.4415 11H20.75C20.8881 11 21 11.1119 21 11.25V15C21 16.1046 20.1046 17 19 17H5C3.89543 17 3 16.1046 3 15Z" fill="#222222"/>
</svg>
