<svg width="24" height="24" viewBox="0 0 24 24" fill="none" xmlns="http://www.w3.org/2000/svg">
<path d="M3 10C3 7.17157 3 5.75736 3.87868 4.87868C4.75736 4 6.17157 4 9 4H15C17.8284 4 19.2426 4 20.1213 4.87868C21 5.75736 21 7.17157 21 10C21 12.8284 21 14.2426 20.1213 15.1213C19.2426 16 17.8284 16 15 16H9C6.17157 16 4.75736 16 3.87868 15.1213C3 14.2426 3 12.8284 3 10Z" fill="#2A4157" fill-opacity="0.24"/>
<path fill-rule="evenodd" clip-rule="evenodd" d="M5.56689 12H4.8558C4.05238 12 3.65068 12 3.37733 12.2175C3.31819 12.2646 3.26457 12.3182 3.21751 12.3773C3 12.6507 3 13.0524 3 13.8558V15C3 17.8284 3 19.2426 3.87868 20.1213C4.75736 21 6.17157 21 9 21H15C17.8284 21 19.2426 21 20.1213 20.1213C21 19.2426 21 17.8284 21 15V13.8558C21 13.0524 21 12.6507 20.7825 12.3773C20.7354 12.3182 20.6818 12.2646 20.6227 12.2175C20.3493 12 19.9476 12 19.1442 12H18.4331C17.7346 12 17.3853 12 17.0908 12.0932C16.5803 12.2548 16.1559 12.6143 15.9126 13.0913C15.7723 13.3665 15.7148 13.711 15.6 14.4L15.6 14.4L15.6 14.4L15.6 14.4001C15.5713 14.5723 15.5569 14.6584 15.5218 14.7272C15.461 14.8464 15.3549 14.9363 15.2273 14.9767C15.1537 15 15.0664 15 14.8917 15H9.10828C8.93365 15 8.84633 15 8.7727 14.9767C8.64508 14.9363 8.53897 14.8464 8.47815 14.7272C8.44306 14.6584 8.42871 14.5723 8.4 14.4C8.28517 13.711 8.22775 13.3665 8.08739 13.0913C7.8441 12.6143 7.4197 12.2548 6.90919 12.0932C6.61466 12 6.26541 12 5.56689 12ZM9.5 17C9.22386 17 9 17.2239 9 17.5C9 17.7761 9.22386 18 9.5 18H14.5C14.7761 18 15 17.7761 15 17.5C15 17.2239 14.7761 17 14.5 17H9.5Z" fill="#222222"/>
</svg>
