<svg width="24" height="24" viewBox="0 0 24 24" fill="none" xmlns="http://www.w3.org/2000/svg">
<path d="M20.5 15.5H17.9415C17.2458 15.5 16.8979 15.5 16.636 15.6888C16.3742 15.8775 16.2642 16.2075 16.0442 16.8675L15.9558 17.1325C15.7358 17.7925 15.6258 18.1225 15.364 18.3112C15.1021 18.5 14.7542 18.5 14.0585 18.5H9.94152C9.2458 18.5 8.89794 18.5 8.63605 18.3112C8.37416 18.1225 8.26416 17.7925 8.04415 17.1325L7.95585 16.8675C7.73584 16.2075 7.62584 15.8775 7.36395 15.6888C7.10206 15.5 6.7542 15.5 6.05848 15.5H3.5M16.1667 16.5H7.83333" stroke="#222222"/>
<path d="M20.5 11.5H17.9415C17.2458 11.5 16.8979 11.5 16.636 11.6888C16.3742 11.8775 16.2642 12.2075 16.0442 12.8675L15.9558 13.1325C15.7358 13.7925 15.6258 14.1225 15.364 14.3112C15.1021 14.5 14.7542 14.5 14.0585 14.5H9.94152C9.2458 14.5 8.89794 14.5 8.63605 14.3112C8.37416 14.1225 8.26416 13.7925 8.04415 13.1325L7.95585 12.8675C7.73584 12.2075 7.62584 11.8775 7.36395 11.6888C7.10206 11.5 6.7542 11.5 6.05848 11.5H3.5M16.1667 12.5H7.83333" stroke="#222222"/>
<path d="M17.5 12V5.66274C17.5 5.41815 17.5 5.29586 17.4724 5.18077C17.4479 5.07873 17.4075 4.98119 17.3526 4.89172C17.2908 4.7908 17.2043 4.70432 17.0314 4.53137L14.9686 2.46863C14.7957 2.29568 14.7092 2.2092 14.6083 2.14736C14.5188 2.09253 14.4213 2.05213 14.3192 2.02763C14.2041 2 14.0818 2 13.8373 2H8.9C8.05992 2 7.63988 2 7.31901 2.16349C7.03677 2.3073 6.8073 2.53677 6.66349 2.81901C6.5 3.13988 6.5 3.55992 6.5 4.4V12" stroke="#222222"/>
<path d="M13.5 2L13.5 4.4C13.5 4.96005 13.5 5.24008 13.609 5.45399C13.7049 5.64215 13.8578 5.79513 14.046 5.89101C14.2599 6 14.5399 6 15.1 6L17.5 6" stroke="#222222"/>
<path d="M6.5 6.5L4.34353 8.65647C4.03222 8.96778 3.87656 9.12344 3.76525 9.30509C3.66656 9.46614 3.59383 9.64172 3.54973 9.82538C3.5 10.0325 3.5 10.2527 3.5 10.6929V18.62C3.5 19.6281 3.5 20.1321 3.69619 20.5172C3.86876 20.8559 4.14413 21.1312 4.48282 21.3038C4.86786 21.5 5.37191 21.5 6.38 21.5H17.62C18.6281 21.5 19.1321 21.5 19.5172 21.3038C19.8559 21.1312 20.1312 20.8559 20.3038 20.5172C20.5 20.1321 20.5 19.6281 20.5 18.62V10.6929C20.5 10.2527 20.5 10.0325 20.4503 9.82538C20.4062 9.64172 20.3334 9.46614 20.2348 9.30509C20.1234 9.12344 19.9678 8.96778 19.6565 8.65647L17.5 6.5" stroke="#222222"/>
</svg>
