<svg width="24" height="24" viewBox="0 0 24 24" fill="none" xmlns="http://www.w3.org/2000/svg">
<path d="M18 2.5V2.5C18.6514 2.5 18.977 2.5 19.2413 2.58331C19.8014 2.75991 20.2401 3.19863 20.4167 3.75873C20.5 4.02295 20.5 4.34864 20.5 5V16.62C20.5 17.6281 20.5 18.1321 20.3038 18.5172C20.1312 18.8559 19.8559 19.1312 19.5172 19.3038C19.1321 19.5 18.6281 19.5 17.62 19.5H6.38C5.37191 19.5 4.86786 19.5 4.48282 19.3038C4.14413 19.1312 3.86876 18.8559 3.69619 18.5172C3.5 18.1321 3.5 17.6281 3.5 16.62V5C3.5 4.34864 3.5 4.02295 3.58331 3.75873C3.75991 3.19863 4.19863 2.75991 4.75873 2.58331C5.02295 2.5 5.34864 2.5 6 2.5V2.5" stroke="#222222"/>
<path d="M20.5 12.5H17.9415C17.2458 12.5 16.8979 12.5 16.636 12.6888C16.3742 12.8775 16.2642 13.2075 16.0442 13.8675L15.9558 14.1325C15.7358 14.7925 15.6258 15.1225 15.364 15.3112C15.1021 15.5 14.7542 15.5 14.0585 15.5H9.94152C9.2458 15.5 8.89794 15.5 8.63605 15.3112C8.37416 15.1225 8.26416 14.7925 8.04415 14.1325L7.95585 13.8675C7.73584 13.2075 7.62584 12.8775 7.36395 12.6888C7.10206 12.5 6.7542 12.5 6.05848 12.5H3.5M16.1667 13.5H7.83333" stroke="#222222"/>
<path d="M20.5 7.5H17.9415C17.2458 7.5 16.8979 7.5 16.636 7.68876C16.3742 7.87752 16.2642 8.20753 16.0442 8.86754L15.9558 9.13246C15.7358 9.79247 15.6258 10.1225 15.364 10.3112C15.1021 10.5 14.7542 10.5 14.0585 10.5H9.94152C9.2458 10.5 8.89794 10.5 8.63605 10.3112C8.37416 10.1225 8.26416 9.79247 8.04415 9.13246L7.95585 8.86754C7.73584 8.20753 7.62584 7.87752 7.36395 7.68876C7.10206 7.5 6.7542 7.5 6.05848 7.5H3.5M16.1667 8.5H7.83333" stroke="#222222"/>
<path d="M18.5 2.5H17.9415C17.2458 2.5 16.8979 2.5 16.636 2.68876C16.3742 2.87752 16.2642 3.20753 16.0442 3.86754L15.9558 4.13246C15.7358 4.79247 15.6258 5.12248 15.364 5.31124C15.1021 5.5 14.7542 5.5 14.0585 5.5H9.94152C9.2458 5.5 8.89794 5.5 8.63605 5.31124C8.37416 5.12248 8.26416 4.79247 8.04415 4.13246L7.95585 3.86754C7.73584 3.20753 7.62584 2.87752 7.36395 2.68876C7.10206 2.5 6.7542 2.5 6.05848 2.5H5.5M16.1667 3.5H7.83333" stroke="#222222"/>
</svg>
