<svg width="24" height="24" viewBox="0 0 24 24" fill="none" xmlns="http://www.w3.org/2000/svg">
<path d="M7.6 11H8.01115C8.3701 11 8.54958 11 8.70804 11.0547C8.84816 11.103 8.97579 11.1819 9.08169 11.2856C9.20143 11.4029 9.2817 11.5634 9.44223 11.8845L9.55777 12.1155C9.7183 12.4366 9.79857 12.5971 9.91831 12.7144C10.0242 12.8181 10.1518 12.897 10.292 12.9453C10.4504 13 10.6299 13 10.9889 13H13.0111C13.3701 13 13.5496 13 13.708 12.9453C13.8482 12.897 13.9758 12.8181 14.0817 12.7144C14.2014 12.5971 14.2817 12.4366 14.4422 12.1155L14.4422 12.1155L14.5578 11.8845L14.5578 11.8845C14.7183 11.5634 14.7986 11.4029 14.9183 11.2856C15.0242 11.1819 15.1518 11.103 15.292 11.0547C15.4504 11 15.6299 11 15.9889 11H16.4C16.9601 11 17.2401 11 17.454 11.109C17.6422 11.2049 17.7951 11.3578 17.891 11.546C18 11.7599 18 12.0399 18 12.6V19.4C18 19.9601 18 20.2401 17.891 20.454C17.7951 20.6422 17.6422 20.7951 17.454 20.891C17.2401 21 16.9601 21 16.4 21H7.6C7.03995 21 6.75992 21 6.54601 20.891C6.35785 20.7951 6.20487 20.6422 6.10899 20.454C6 20.2401 6 19.9601 6 19.4V12.6C6 12.0399 6 11.7599 6.10899 11.546C6.20487 11.3578 6.35785 11.2049 6.54601 11.109C6.75992 11 7.03995 11 7.6 11Z" stroke="#33363F" stroke-width="2"/>
<path d="M13 16H11C10.4477 16 10 16.4477 10 17C10 17.5523 10.4477 18 11 18H13C13.5523 18 14 17.5523 14 17C14 16.4477 13.5523 16 13 16Z" fill="#33363F"/>
<path d="M7 11H4.6C4.03995 11 3.75992 11 3.54601 11.109C3.35785 11.2049 3.20487 11.3578 3.10899 11.546C3 11.7599 3 12.0399 3 12.6V19.4C3 19.9601 3 20.2401 3.10899 20.454C3.20487 20.6422 3.35785 20.7951 3.54601 20.891C3.75992 21 4.03995 21 4.6 21H19.4C19.9601 21 20.2401 21 20.454 20.891C20.6422 20.7951 20.7951 20.6422 20.891 20.454C21 20.2401 21 19.9601 21 19.4V12.6C21 12.0399 21 11.7599 20.891 11.546C20.7951 11.3578 20.6422 11.2049 20.454 11.109C20.2401 11 19.9601 11 19.4 11H17" stroke="#33363F" stroke-width="2"/>
<path d="M17 11V6.16274C17 5.91815 17 5.79586 16.9724 5.68077C16.9479 5.57873 16.9075 5.48119 16.8526 5.39172C16.7908 5.2908 16.7043 5.20432 16.5314 5.03137L14.9686 3.46863C14.7957 3.29568 14.7092 3.2092 14.6083 3.14736C14.5188 3.09253 14.4213 3.05213 14.3192 3.02763C14.2041 3 14.0818 3 13.8373 3H9.4C8.55992 3 8.13988 3 7.81901 3.16349C7.53677 3.3073 7.3073 3.53677 7.16349 3.81901C7 4.13988 7 4.55992 7 5.4V11" stroke="#33363F" stroke-width="2"/>
<path d="M13 3L13 5.4C13 5.96005 13 6.24008 13.109 6.45399C13.2049 6.64215 13.3578 6.79513 13.546 6.89101C13.7599 7 14.0399 7 14.6 7L17 7" stroke="#33363F" stroke-width="2"/>
</svg>
