<svg width="24" height="24" viewBox="0 0 24 24" fill="none" xmlns="http://www.w3.org/2000/svg">
<path d="M3 7C3 5.11438 3 4.17157 3.58579 3.58579C4.17157 3 5.11438 3 7 3H17C18.8856 3 19.8284 3 20.4142 3.58579C21 4.17157 21 5.11438 21 7V17C21 18.8856 21 19.8284 20.4142 20.4142C19.8284 21 18.8856 21 17 21H7C5.11438 21 4.17157 21 3.58579 20.4142C3 19.8284 3 18.8856 3 17V7Z" stroke="#222222"/>
<path d="M3 12V12C3 12.9319 3 13.3978 3.15224 13.7654C3.35523 14.2554 3.74458 14.6448 4.23463 14.8478C4.60218 15 5.06812 15 6 15H6.67544C7.25646 15 7.54696 15 7.77888 15.1338C7.83745 15.1675 7.89245 15.2072 7.94303 15.2521C8.14326 15.4298 8.23513 15.7054 8.41886 16.2566L8.54415 16.6325C8.76416 17.2925 8.87416 17.6225 9.13605 17.8112C9.39794 18 9.7458 18 10.4415 18H13.5585C14.2542 18 14.6021 18 14.864 17.8112C15.1258 17.6225 15.2358 17.2925 15.4558 16.6325L15.5811 16.2566C15.7649 15.7054 15.8567 15.4298 16.057 15.2521C16.1075 15.2072 16.1625 15.1675 16.2211 15.1338C16.453 15 16.7435 15 17.3246 15H18C18.9319 15 19.3978 15 19.7654 14.8478C20.2554 14.6448 20.6448 14.2554 20.8478 13.7654C21 13.3978 21 12.9319 21 12V12" stroke="#222222"/>
<path d="M9.5 10.5L12 13M12 13L14.5 10.5M12 13L12 6" stroke="#222222"/>
</svg>
