<svg width="24" height="24" viewBox="0 0 24 24" fill="none" xmlns="http://www.w3.org/2000/svg">
<path d="M21 12H18.0704C17.5464 12 17.2844 12 17.0633 12.1183C16.8422 12.2367 16.6969 12.4546 16.4063 12.8906L15.5937 14.1094C15.3031 14.5454 15.1578 14.7633 14.9367 14.8817C14.7156 15 14.4536 15 13.9296 15H10.0704C9.5464 15 9.28442 15 9.06333 14.8817C8.84223 14.7633 8.69691 14.5454 8.40627 14.1094L7.59373 12.8906C7.30309 12.4546 7.15777 12.2367 6.93667 12.1183C6.71558 12 6.4536 12 5.92963 12H3" stroke="#33363F" stroke-width="2"/>
<path d="M7 7L3.29289 10.7071C3.10536 10.8946 3 11.149 3 11.4142V17C3 18.1046 3.89543 19 5 19H19C20.1046 19 21 18.1046 21 17V11.4142C21 11.149 20.8946 10.8946 20.7071 10.7071L17 7" stroke="#33363F" stroke-width="2" stroke-linecap="round"/>
<path d="M17 13V6.16274C17 5.91815 17 5.79586 16.9724 5.68077C16.9479 5.57873 16.9075 5.48119 16.8526 5.39172C16.7908 5.2908 16.7043 5.20432 16.5314 5.03137L14.9686 3.46863C14.7957 3.29568 14.7092 3.2092 14.6083 3.14736C14.5188 3.09253 14.4213 3.05213 14.3192 3.02763C14.2041 3 14.0818 3 13.8373 3H9.4C8.55992 3 8.13988 3 7.81901 3.16349C7.53677 3.3073 7.3073 3.53677 7.16349 3.81901C7 4.13988 7 4.55992 7 5.4V13" stroke="#33363F" stroke-width="2"/>
<path d="M13 3L13 5.4C13 5.96005 13 6.24008 13.109 6.45399C13.2049 6.64215 13.3578 6.79513 13.546 6.89101C13.7599 7 14.0399 7 14.6 7L17 7" stroke="#33363F" stroke-width="2"/>
</svg>
