<svg width="24" height="24" viewBox="0 0 24 24" fill="none" xmlns="http://www.w3.org/2000/svg">
<path d="M6.1 11.5H7.51115C7.8701 11.5 8.04958 11.5 8.20804 11.5547C8.34816 11.603 8.47579 11.6819 8.58169 11.7856C8.70143 11.9029 8.7817 12.0634 8.94223 12.3845L8.94223 12.3845L9.05777 12.6155L9.05778 12.6155C9.2183 12.9366 9.29857 13.0971 9.41831 13.2144C9.52421 13.3181 9.65184 13.397 9.79196 13.4453C9.95042 13.5 10.1299 13.5 10.4889 13.5H13.5111C13.8701 13.5 14.0496 13.5 14.208 13.4453C14.3482 13.397 14.4758 13.3181 14.5817 13.2144C14.7014 13.0971 14.7817 12.9366 14.9422 12.6155L14.9422 12.6155L15.0578 12.3845L15.0578 12.3845C15.2183 12.0634 15.2986 11.9029 15.4183 11.7856C15.5242 11.6819 15.6518 11.603 15.792 11.5547C15.9504 11.5 16.1299 11.5 16.4889 11.5H17.9C18.4601 11.5 18.7401 11.5 18.954 11.609C19.1422 11.7049 19.2951 11.8578 19.391 12.046C19.5 12.2599 19.5 12.5399 19.5 13.1V18.9C19.5 19.4601 19.5 19.7401 19.391 19.954C19.2951 20.1422 19.1422 20.2951 18.954 20.391C18.7401 20.5 18.4601 20.5 17.9 20.5H6.1C5.53995 20.5 5.25992 20.5 5.04601 20.391C4.85785 20.2951 4.70487 20.1422 4.60899 19.954C4.5 19.7401 4.5 19.4601 4.5 18.9V13.1C4.5 12.5399 4.5 12.2599 4.60899 12.046C4.70487 11.8578 4.85785 11.7049 5.04601 11.609C5.25992 11.5 5.53995 11.5 6.1 11.5Z" stroke="#222222"/>
<path d="M14 15.5H10C9.53406 15.5 9.30109 15.5 9.11732 15.5761C8.87229 15.6776 8.67761 15.8723 8.57612 16.1173C8.5 16.3011 8.5 16.5341 8.5 17C8.5 17.4659 8.5 17.6989 8.57612 17.8827C8.67761 18.1277 8.87229 18.3224 9.11732 18.4239C9.30109 18.5 9.53406 18.5 10 18.5H14C14.4659 18.5 14.6989 18.5 14.8827 18.4239C15.1277 18.3224 15.3224 18.1277 15.4239 17.8827C15.5 17.6989 15.5 17.4659 15.5 17C15.5 16.5341 15.5 16.3011 15.4239 16.1173C15.3224 15.8723 15.1277 15.6776 14.8827 15.5761C14.6989 15.5 14.4659 15.5 14 15.5Z" stroke="#222222"/>
<path d="M6.5 11.5H4.1C3.53995 11.5 3.25992 11.5 3.04601 11.609C2.85785 11.7049 2.70487 11.8578 2.60899 12.046C2.5 12.2599 2.5 12.5399 2.5 13.1V18.9C2.5 19.4601 2.5 19.7401 2.60899 19.954C2.70487 20.1422 2.85785 20.2951 3.04601 20.391C3.25992 20.5 3.53995 20.5 4.1 20.5H19.9C20.4601 20.5 20.7401 20.5 20.954 20.391C21.1422 20.2951 21.2951 20.1422 21.391 19.954C21.5 19.7401 21.5 19.4601 21.5 18.9V13.1C21.5 12.5399 21.5 12.2599 21.391 12.046C21.2951 11.8578 21.1422 11.7049 20.954 11.609C20.7401 11.5 20.4601 11.5 19.9 11.5H17.5" stroke="#222222"/>
<path d="M17.5 11.5V7.16274C17.5 6.91815 17.5 6.79586 17.4724 6.68077C17.4479 6.57873 17.4075 6.48119 17.3526 6.39172C17.2908 6.2908 17.2043 6.20432 17.0314 6.03137L14.9686 3.96863C14.7957 3.79568 14.7092 3.7092 14.6083 3.64736C14.5188 3.59253 14.4213 3.55213 14.3192 3.52763C14.2041 3.5 14.0818 3.5 13.8373 3.5H8.9C8.05992 3.5 7.63988 3.5 7.31901 3.66349C7.03677 3.8073 6.8073 4.03677 6.66349 4.31901C6.5 4.63988 6.5 5.05992 6.5 5.9V11.5" stroke="#222222"/>
<path d="M13.5 3.5L13.5 5.9C13.5 6.46005 13.5 6.74008 13.609 6.95399C13.7049 7.14215 13.8578 7.29513 14.046 7.39101C14.2599 7.5 14.5399 7.5 15.1 7.5L17.5 7.5" stroke="#222222"/>
</svg>
