<svg width="24" height="24" viewBox="0 0 24 24" fill="none" xmlns="http://www.w3.org/2000/svg">
<path d="M3 11V11C3 11.9319 3 12.3978 3.15224 12.7654C3.35523 13.2554 3.74458 13.6448 4.23463 13.8478C4.60218 14 5.06812 14 6 14H6.67544C7.25646 14 7.54696 14 7.77888 14.1338C7.83745 14.1675 7.89245 14.2072 7.94303 14.2521C8.14326 14.4298 8.23513 14.7054 8.41886 15.2566L8.54415 15.6325C8.76416 16.2925 8.87416 16.6225 9.13605 16.8112C9.39794 17 9.7458 17 10.4415 17H13.5585C14.2542 17 14.6021 17 14.864 16.8112C15.1258 16.6225 15.2358 16.2925 15.4558 15.6325L15.5811 15.2566C15.7649 14.7054 15.8567 14.4298 16.057 14.2521C16.1075 14.2072 16.1625 14.1675 16.2211 14.1338C16.453 14 16.7435 14 17.3246 14H18C18.9319 14 19.3978 14 19.7654 13.8478C20.2554 13.6448 20.6448 13.2554 20.8478 12.7654C21 12.3978 21 11.9319 21 11V11" stroke="#33363F" stroke-width="2"/>
<path d="M21 19V5C21 3.89543 20.1046 3 19 3H5C3.89543 3 3 3.89543 3 5V19C3 20.1046 3.89543 21 5 21H19C20.1046 21 21 20.1046 21 19Z" stroke="#33363F" stroke-width="2"/>
<path d="M8.5 9.5L12 7M12 7L15.5 9.5M12 7L12 13" stroke="#33363F" stroke-width="2"/>
</svg>
