<svg width="24" height="24" viewBox="0 0 24 24" fill="none" xmlns="http://www.w3.org/2000/svg">
<path d="M5.27446 7.48369C5.54414 7.30391 5.67898 7.21402 5.82486 7.15033C5.95434 7.09381 6.09003 7.05273 6.22912 7.02793C6.38582 7 6.54788 7 6.87199 7H17.128C17.4521 7 17.6142 7 17.7709 7.02793C17.91 7.05273 18.0457 7.09381 18.1751 7.15033C18.321 7.21402 18.4559 7.30391 18.7255 7.4837L19.7175 8.14502C20.1864 8.45761 20.4209 8.61391 20.5906 8.8204C20.7408 9.00321 20.8536 9.21386 20.9223 9.44028C21 9.69604 21 9.9778 21 10.5413V14.12C21 15.1281 21 15.6321 20.8038 16.0172C20.6312 16.3559 20.3559 16.6312 20.0172 16.8038C19.6321 17 19.1281 17 18.12 17H5.88C4.87191 17 4.36786 17 3.98282 16.8038C3.64413 16.6312 3.36876 16.3559 3.19619 16.0172C3 15.6321 3 15.1281 3 14.12V10.5413C3 9.9778 3 9.69604 3.07767 9.44028C3.14643 9.21386 3.25917 9.00321 3.40942 8.8204C3.57914 8.61391 3.81358 8.45761 4.28246 8.14502L5.27446 7.48369Z" stroke="#222222" stroke-width="2"/>
<path d="M3 15.5V10.65C3 10.5672 3.06716 10.5 3.15 10.5H6.55848C7.41934 10.5 8.18362 11.0509 8.45585 11.8675L8.54415 12.1325C8.81638 12.9491 9.58066 13.5 10.4415 13.5H13.5585C14.4193 13.5 15.1836 12.9491 15.4558 12.1325L15.5442 11.8675C15.8164 11.0509 16.5807 10.5 17.4415 10.5H20.85C20.9328 10.5 21 10.5672 21 10.65V15.5C21 16.6046 20.1046 17.5 19 17.5H5C3.89543 17.5 3 16.6046 3 15.5Z" fill="#222222"/>
</svg>
