<svg width="24" height="24" viewBox="0 0 24 24" fill="none" xmlns="http://www.w3.org/2000/svg">
<path d="M5.5 12.5H6.05848C6.7542 12.5 7.10206 12.5 7.36395 12.6888C7.62584 12.8775 7.73584 13.2075 7.95585 13.8675L8.04415 14.1325C8.26416 14.7925 8.37416 15.1225 8.63605 15.3112C8.89794 15.5 9.2458 15.5 9.94152 15.5H14.0585C14.7542 15.5 15.1021 15.5 15.364 15.3112C15.6258 15.1225 15.7358 14.7925 15.9558 14.1325L16.0442 13.8675C16.2642 13.2075 16.3742 12.8775 16.636 12.6888C16.8979 12.5 17.2458 12.5 17.9415 12.5H18.5C19.4428 12.5 19.9142 12.5 20.2071 12.7929C20.5 13.0858 20.5 13.5572 20.5 14.5C20.5 16.3856 20.5 17.3284 19.9142 17.9142C19.3284 18.5 18.3856 18.5 16.5 18.5H7.5C5.61438 18.5 4.67157 18.5 4.08579 17.9142C3.5 17.3284 3.5 16.3856 3.5 14.5C3.5 13.5572 3.5 13.0858 3.79289 12.7929C4.08579 12.5 4.55719 12.5 5.5 12.5Z" fill="#2A4157" fill-opacity="0.24"/>
<path d="M6.15647 7.84353C6.46778 7.53222 6.62344 7.37656 6.80509 7.26525C6.96614 7.16656 7.14172 7.09383 7.32538 7.04973C7.53254 7 7.75267 7 8.19293 7H15.8071C16.2473 7 16.4675 7 16.6746 7.04973C16.8583 7.09383 17.0339 7.16656 17.1949 7.26525C17.3766 7.37656 17.5322 7.53222 17.8435 7.84353L20.1565 10.1565C20.4678 10.4678 20.6234 10.6234 20.7348 10.8051C20.8334 10.9661 20.9062 11.1417 20.9503 11.3254C21 11.5325 21 11.7527 21 12.1929V16.12C21 17.1281 21 17.6321 20.8038 18.0172C20.6312 18.3559 20.3559 18.6312 20.0172 18.8038C19.6321 19 19.1281 19 18.12 19H5.88C4.87191 19 4.36786 19 3.98282 18.8038C3.64413 18.6312 3.36876 18.3559 3.19619 18.0172C3 17.6321 3 17.1281 3 16.12V12.1929C3 11.7527 3 11.5325 3.04973 11.3254C3.09383 11.1417 3.16656 10.9661 3.26525 10.8051C3.37656 10.6234 3.53222 10.4678 3.84353 10.1565L6.15647 7.84353Z" fill="#2A4157" fill-opacity="0.24"/>
<path d="M20.5 12.5H17.9415C17.2458 12.5 16.8979 12.5 16.636 12.6888C16.3742 12.8775 16.2642 13.2075 16.0442 13.8675L15.9558 14.1325C15.7358 14.7925 15.6258 15.1225 15.364 15.3112C15.1021 15.5 14.7542 15.5 14.0585 15.5H9.94152C9.2458 15.5 8.89794 15.5 8.63605 15.3112C8.37416 15.1225 8.26416 14.7925 8.04415 14.1325L7.95585 13.8675C7.73584 13.2075 7.62584 12.8775 7.36395 12.6888C7.10206 12.5 6.7542 12.5 6.05848 12.5H3.5" stroke="#222222"/>
<path d="M3 17V12.15C3 12.0672 3.06716 12 3.15 12H6.55848C7.41934 12 8.18362 12.5509 8.45585 13.3675L8.54415 13.6325C8.81638 14.4491 9.58066 15 10.4415 15H13.5585C14.4193 15 15.1836 14.4491 15.4558 13.6325L15.5442 13.3675C15.8164 12.5509 16.5807 12 17.4415 12H20.85C20.9328 12 21 12.0672 21 12.15V17C21 18.1046 20.1046 19 19 19H5C3.89543 19 3 18.1046 3 17Z" fill="#222222"/>
</svg>
