<svg width="24" height="24" viewBox="0 0 24 24" fill="none" xmlns="http://www.w3.org/2000/svg">
<path d="M8.5 9.5H7.69294C7.25267 9.5 7.03254 9.5 6.82538 9.54973C6.64172 9.59383 6.46614 9.66656 6.30509 9.76525C6.12344 9.87656 5.96778 10.0322 5.65647 10.3435L4.34353 11.6565C4.03222 11.9678 3.87656 12.1234 3.76525 12.3051C3.66656 12.4661 3.59383 12.6417 3.54973 12.8254C3.5 13.0325 3.5 13.2527 3.5 13.6929V17.62C3.5 18.6281 3.5 19.1321 3.69619 19.5172C3.86876 19.8559 4.14413 20.1312 4.48282 20.3038C4.86786 20.5 5.37191 20.5 6.38 20.5H17.62C18.6281 20.5 19.1321 20.5 19.5172 20.3038C19.8559 20.1312 20.1312 19.8559 20.3038 19.5172C20.5 19.1321 20.5 18.6281 20.5 17.62V13.6929C20.5 13.2527 20.5 13.0325 20.4503 12.8254C20.4062 12.6417 20.3334 12.4661 20.2348 12.3051C20.1234 12.1234 19.9678 11.9678 19.6565 11.6565L18.3435 10.3435C18.0322 10.0322 17.8766 9.87656 17.6949 9.76525C17.5339 9.66656 17.3583 9.59383 17.1746 9.54973C16.9675 9.5 16.7473 9.5 16.3071 9.5H15.5" stroke="#222222"/>
<path d="M20.5 14.5H17.9415C17.2458 14.5 16.8979 14.5 16.636 14.6888C16.3742 14.8775 16.2642 15.2075 16.0442 15.8675L15.9558 16.1325C15.7358 16.7925 15.6258 17.1225 15.364 17.3112C15.1021 17.5 14.7542 17.5 14.0585 17.5H9.94152C9.2458 17.5 8.89794 17.5 8.63605 17.3112C8.37416 17.1225 8.26416 16.7925 8.04415 16.1325L7.95585 15.8675C7.73584 15.2075 7.62584 14.8775 7.36395 14.6888C7.10206 14.5 6.7542 14.5 6.05848 14.5H3.5" stroke="#222222"/>
<path d="M8.5 6.9C8.5 6.75999 8.5 6.68998 8.52725 6.6365C8.55122 6.58946 8.58946 6.55122 8.6365 6.52725C8.68998 6.5 8.75999 6.5 8.9 6.5H15.1C15.24 6.5 15.31 6.5 15.3635 6.52725C15.4105 6.55122 15.4488 6.58946 15.4728 6.6365C15.5 6.68998 15.5 6.75999 15.5 6.9V11.1C15.5 11.24 15.5 11.31 15.4728 11.3635C15.4488 11.4105 15.4105 11.4488 15.3635 11.4728C15.31 11.5 15.24 11.5 15.1 11.5H8.9C8.75999 11.5 8.68998 11.5 8.6365 11.4728C8.58946 11.4488 8.55122 11.4105 8.52725 11.3635C8.5 11.31 8.5 11.24 8.5 11.1V6.9Z" stroke="#222222"/>
<path d="M14.5 6.5V6C14.5 5.53534 14.5 5.30302 14.4616 5.10982C14.3038 4.31644 13.6836 3.69624 12.8902 3.53843C12.697 3.5 12.4647 3.5 12 3.5V3.5C11.5353 3.5 11.303 3.5 11.1098 3.53843C10.3164 3.69624 9.69624 4.31644 9.53843 5.10982C9.5 5.30302 9.5 5.53534 9.5 6V6.5" stroke="#222222"/>
</svg>
