<svg width="24" height="24" viewBox="0 0 24 24" fill="none" xmlns="http://www.w3.org/2000/svg">
<path d="M3 12C3 9.17157 3 7.75736 3.87868 6.87868C4.75736 6 6.17157 6 9 6H15C17.8284 6 19.2426 6 20.1213 6.87868C21 7.75736 21 9.17157 21 12V15C21 17.8284 21 19.2426 20.1213 20.1213C19.2426 21 17.8284 21 15 21H9C6.17157 21 4.75736 21 3.87868 20.1213C3 19.2426 3 17.8284 3 15V12Z" fill="#2A4157" fill-opacity="0.24"/>
<path d="M4.75 14H5.56689C6.26541 14 6.61466 14 6.90919 14.0932C7.4197 14.2548 7.8441 14.6143 8.08739 15.0913C8.22775 15.3665 8.28517 15.711 8.4 16.4C8.42871 16.5723 8.44306 16.6584 8.47815 16.7272C8.53897 16.8464 8.64508 16.9363 8.7727 16.9767C8.84633 17 8.93365 17 9.10828 17H14.8917C15.0664 17 15.1537 17 15.2273 16.9767C15.3549 16.9363 15.461 16.8464 15.5218 16.7272C15.5569 16.6584 15.5713 16.5723 15.6 16.4L15.6 16.4L15.6 16.4C15.7148 15.711 15.7723 15.3665 15.9126 15.0913C16.1559 14.6143 16.5803 14.2548 17.0908 14.0932C17.3853 14 17.7346 14 18.4331 14H19.25C19.9522 14 20.3033 14 20.5556 14.1685C20.6648 14.2415 20.7585 14.3352 20.8315 14.4444C21 14.6967 21 15.0478 21 15.75C21 17.8567 21 18.91 20.4944 19.6667C20.2755 19.9943 19.9943 20.2755 19.6667 20.4944C18.91 21 17.8567 21 15.75 21H8.25C6.14331 21 5.08996 21 4.33329 20.4944C4.00572 20.2755 3.72447 19.9943 3.50559 19.6667C3 18.91 3 17.8567 3 15.75C3 15.0478 3 14.6967 3.16853 14.4444C3.24149 14.3352 3.33524 14.2415 3.44443 14.1685C3.69665 14 4.04777 14 4.75 14Z" fill="#222222"/>
<path d="M9.85355 10.1464C9.65829 9.95118 9.34171 9.95118 9.14645 10.1464C8.95118 10.3417 8.95118 10.6583 9.14645 10.8536L9.85355 10.1464ZM12 13L11.6464 13.3536L12 13.7071L12.3536 13.3536L12 13ZM14.8536 10.8536C15.0488 10.6583 15.0488 10.3417 14.8536 10.1464C14.6583 9.95118 14.3417 9.95118 14.1464 10.1464L14.8536 10.8536ZM12.5 3C12.5 2.72386 12.2761 2.5 12 2.5C11.7239 2.5 11.5 2.72386 11.5 3L12.5 3ZM9.14645 10.8536L11.6464 13.3536L12.3536 12.6464L9.85355 10.1464L9.14645 10.8536ZM12.3536 13.3536L14.8536 10.8536L14.1464 10.1464L11.6464 12.6464L12.3536 13.3536ZM12.5 13L12.5 3L11.5 3L11.5 13L12.5 13Z" fill="#222222"/>
</svg>
