<svg width="24" height="24" viewBox="0 0 24 24" fill="none" xmlns="http://www.w3.org/2000/svg">
<path d="M21 16H17.8284C17.4197 16 17.2153 16 17.0315 16.0761C16.8478 16.1522 16.7032 16.2968 16.4142 16.5858L15.5858 17.4142C15.2968 17.7032 15.1522 17.8478 14.9685 17.9239C14.7847 18 14.5803 18 14.1716 18H9.82843C9.41968 18 9.2153 18 9.03153 17.9239C8.84776 17.8478 8.70324 17.7032 8.41421 17.4142L7.58579 16.5858C7.29676 16.2968 7.15224 16.1522 6.96847 16.0761C6.7847 16 6.58032 16 6.17157 16H3" stroke="#33363F" stroke-width="2"/>
<path d="M21 12H17.8284C17.4197 12 17.2153 12 17.0315 12.0761C16.8478 12.1522 16.7032 12.2968 16.4142 12.5858L15.5858 13.4142C15.2968 13.7032 15.1522 13.8478 14.9685 13.9239C14.7847 14 14.5803 14 14.1716 14H9.82843C9.41968 14 9.2153 14 9.03153 13.9239C8.84776 13.8478 8.70324 13.7032 8.41421 13.4142L7.58579 12.5858C7.29676 12.2968 7.15224 12.1522 6.96847 12.0761C6.7847 12 6.58032 12 6.17157 12H3" stroke="#33363F" stroke-width="2"/>
<path d="M7 8L3.4 10.7C3.14819 10.8889 3 11.1852 3 11.5V19C3 20.1046 3.89543 21 5 21H19C20.1046 21 21 20.1046 21 19V11.5C21 11.1852 20.8518 10.8889 20.6 10.7L17 8" stroke="#33363F" stroke-width="2" stroke-linecap="round"/>
<path d="M17 13V6.16274C17 5.91815 17 5.79586 16.9724 5.68077C16.9479 5.57873 16.9075 5.48119 16.8526 5.39172C16.7908 5.2908 16.7043 5.20432 16.5314 5.03137L14.9686 3.46863C14.7957 3.29568 14.7092 3.2092 14.6083 3.14736C14.5188 3.09253 14.4213 3.05213 14.3192 3.02763C14.2041 3 14.0818 3 13.8373 3H9.4C8.55992 3 8.13988 3 7.81901 3.16349C7.53677 3.3073 7.3073 3.53677 7.16349 3.81901C7 4.13988 7 4.55992 7 5.4V13" stroke="#33363F" stroke-width="2"/>
<path d="M13 3L13 5.4C13 5.96005 13 6.24008 13.109 6.45399C13.2049 6.64215 13.3578 6.79513 13.546 6.89101C13.7599 7 14.0399 7 14.6 7L17 7" stroke="#33363F" stroke-width="2"/>
</svg>
