<svg width="24" height="24" viewBox="0 0 24 24" fill="none" xmlns="http://www.w3.org/2000/svg">
<path d="M5.27446 7.48369C5.54414 7.30391 5.67898 7.21402 5.82486 7.15033C5.95434 7.09381 6.09003 7.05273 6.22912 7.02793C6.38582 7 6.54788 7 6.87199 7H17.128C17.4521 7 17.6142 7 17.7709 7.02793C17.91 7.05273 18.0457 7.09381 18.1751 7.15033C18.321 7.21402 18.4559 7.30391 18.7255 7.4837L19.7175 8.14502C20.1864 8.45761 20.4209 8.61391 20.5906 8.8204C20.7408 9.00321 20.8536 9.21386 20.9223 9.44028C21 9.69604 21 9.9778 21 10.5413V14.12C21 15.1281 21 15.6321 20.8038 16.0172C20.6312 16.3559 20.3559 16.6312 20.0172 16.8038C19.6321 17 19.1281 17 18.12 17H5.88C4.87191 17 4.36786 17 3.98282 16.8038C3.64413 16.6312 3.36876 16.3559 3.19619 16.0172C3 15.6321 3 15.1281 3 14.12V10.5413C3 9.9778 3 9.69604 3.07767 9.44028C3.14643 9.21386 3.25917 9.00321 3.40942 8.8204C3.57914 8.61391 3.81358 8.45761 4.28246 8.14502L5.27446 7.48369Z" stroke="#33363F" stroke-width="2"/>
<path d="M20.5 11H18.118C17.6329 11 17.3903 11 17.185 11.0986C17.1214 11.1292 17.0612 11.1664 17.0055 11.2096C16.8255 11.3491 16.717 11.5661 16.5 12V12C16.283 12.4339 16.1745 12.6509 15.9945 12.7904C15.9388 12.8336 15.8786 12.8708 15.815 12.9014C15.6097 13 15.3671 13 14.882 13H9.11803C8.63287 13 8.39029 13 8.185 12.9014C8.12141 12.8708 8.06123 12.8336 8.00547 12.7904C7.82546 12.6509 7.71697 12.4339 7.5 12V12C7.28303 11.5661 7.17454 11.3491 6.99453 11.2096C6.93877 11.1664 6.87859 11.1292 6.815 11.0986C6.60971 11 6.36713 11 5.88197 11H3" stroke="#33363F" stroke-width="2" stroke-linejoin="round"/>
</svg>
