<svg width="24" height="24" viewBox="0 0 24 24" fill="none" xmlns="http://www.w3.org/2000/svg">
<path d="M17 11.5C17.2761 11.5 17.5 11.7239 17.5 12C17.5 12.2761 17.2761 12.5 17 12.5V11.5ZM3 12.5C2.72386 12.5 2.5 12.2761 2.5 12C2.5 11.7239 2.72386 11.5 3 11.5V12.5ZM17 12.5H3V11.5H17V12.5Z" fill="#222222"/>
<path d="M21.6427 11.7856L18.2116 9.72696C17.6784 9.40703 17 9.79112 17 10.413V13.587C17 14.2089 17.6784 14.593 18.2116 14.273L21.6427 12.2144C21.8045 12.1173 21.8045 11.8827 21.6427 11.7856Z" fill="#222222"/>
</svg>
