<svg width="24" height="24" viewBox="0 0 24 24" fill="none" xmlns="http://www.w3.org/2000/svg">
<path d="M11.5 7C11.5 6.72386 11.7239 6.5 12 6.5C12.2761 6.5 12.5 6.72386 12.5 7L11.5 7ZM12.5 21C12.5 21.2761 12.2761 21.5 12 21.5C11.7239 21.5 11.5 21.2761 11.5 21L12.5 21ZM12.5 7L12.5 21L11.5 21L11.5 7L12.5 7Z" fill="#222222"/>
<path d="M11.7856 2.35729L9.72696 5.7884C9.40703 6.32162 9.79112 7 10.413 7L13.587 7C14.2089 7 14.593 6.32162 14.273 5.7884L12.2144 2.35729C12.1173 2.19545 11.8827 2.19545 11.7856 2.35729Z" fill="#222222"/>
</svg>
