<svg width="24" height="24" viewBox="0 0 24 24" fill="none" xmlns="http://www.w3.org/2000/svg">
<path d="M11 7C11 6.44772 11.4477 6 12 6C12.5523 6 13 6.44772 13 7L11 7ZM13 21C13 21.5523 12.5523 22 12 22C11.4477 22 11 21.5523 11 21L13 21ZM13 7L13 21L11 21L11 7L13 7Z" fill="#33363F"/>
<path d="M11.7966 2.28481L7.90356 7.73501C7.52535 8.2645 7.90385 9 8.55455 9L15.4454 9C16.0961 9 16.4746 8.2645 16.0964 7.73501L12.2034 2.28481C12.1037 2.14522 11.8963 2.14522 11.7966 2.28481Z" fill="#33363F"/>
</svg>
