<svg width="24" height="24" viewBox="0 0 24 24" fill="none" xmlns="http://www.w3.org/2000/svg">
<path d="M12.5 17C12.5 17.2761 12.2761 17.5 12 17.5C11.7239 17.5 11.5 17.2761 11.5 17L12.5 17ZM11.5 3C11.5 2.72386 11.7239 2.5 12 2.5C12.2761 2.5 12.5 2.72386 12.5 3L11.5 3ZM11.5 17L11.5 3L12.5 3L12.5 17L11.5 17Z" fill="#222222"/>
<path d="M12.2144 21.6427L14.273 18.2116C14.593 17.6784 14.2089 17 13.587 17L10.413 17C9.79112 17 9.40703 17.6784 9.72696 18.2116L11.7856 21.6427C11.8827 21.8045 12.1173 21.8045 12.2144 21.6427Z" fill="#222222"/>
</svg>
