<svg width="24" height="24" viewBox="0 0 24 24" fill="none" xmlns="http://www.w3.org/2000/svg">
<path d="M13 17C13 17.5523 12.5523 18 12 18C11.4477 18 11 17.5523 11 17L13 17ZM11 3C11 2.44771 11.4477 2 12 2C12.5523 2 13 2.44771 13 3L11 3ZM11 17L11 3L13 3L13 17L11 17Z" fill="#33363F"/>
<path d="M12.2034 21.7152L16.0964 16.265C16.4746 15.7355 16.0961 15 15.4454 15L8.55455 15C7.90385 15 7.52535 15.7355 7.90356 16.265L11.7966 21.7152C11.8963 21.8548 12.1037 21.8548 12.2034 21.7152Z" fill="#33363F"/>
</svg>
