<svg width="24" height="24" viewBox="0 0 24 24" fill="none" xmlns="http://www.w3.org/2000/svg">
<circle cx="12" cy="12" r="1" fill="#222222"/>
<path d="M16.5 12C16.5 14.7006 15.9516 17.1209 15.0883 18.8475C14.2101 20.604 13.0893 21.5 12 21.5C10.9107 21.5 9.78993 20.604 8.91168 18.8475C8.04839 17.1209 7.5 14.7006 7.5 12C7.5 9.29937 8.04839 6.87912 8.91168 5.15254C9.78993 3.39605 10.9107 2.5 12 2.5C13.0893 2.5 14.2101 3.39605 15.0883 5.15254C15.9516 6.87912 16.5 9.29937 16.5 12Z" stroke="#222222"/>
<path d="M14.25 15.897C11.9112 17.2473 9.54102 17.9825 7.61411 18.0982C5.65382 18.2158 4.31743 17.6932 3.77278 16.7499C3.22813 15.8065 3.44375 14.3879 4.52579 12.749C5.58941 11.1381 7.41121 9.45307 9.75002 8.10275C12.0888 6.75243 14.459 6.01723 16.3859 5.90157C18.3462 5.78391 19.6826 6.30651 20.2273 7.24987C20.7719 8.19323 20.5563 9.61187 19.4743 11.2507C18.4106 12.8616 16.5888 14.5467 14.25 15.897Z" stroke="#222222"/>
<path d="M14.25 8.10284C11.9112 6.75252 9.54102 6.01732 7.61411 5.90166C5.65382 5.78399 4.31743 6.30659 3.77278 7.24995C3.22813 8.19331 3.44375 9.61196 4.52579 11.2508C5.58941 12.8617 7.41121 14.5467 9.75002 15.8971C12.0888 17.2474 14.459 17.9826 16.3859 18.0982C18.3462 18.2159 19.6826 17.6933 20.2273 16.75C20.7719 15.8066 20.5563 14.3879 19.4743 12.7491C18.4106 11.1382 16.5888 9.45315 14.25 8.10284Z" stroke="#222222"/>
</svg>
