<svg width="24" height="24" viewBox="0 0 24 24" fill="none" xmlns="http://www.w3.org/2000/svg">
<path d="M4.85795 9.84661C4.92534 8.97057 4.95903 8.53256 5.24658 8.26628C5.53413 8 5.97344 8 6.85206 8H17.1479C18.0266 8 18.4659 8 18.7534 8.26628C19.041 8.53256 19.0747 8.97057 19.142 9.84661L19.3864 13.0236C19.6495 16.4434 19.781 18.1534 18.924 19.3409C18.7336 19.6047 18.5117 19.8443 18.2632 20.0544C17.1449 21 15.43 21 12 21C8.57003 21 6.85505 21 5.73678 20.0544C5.48832 19.8443 5.26641 19.6047 5.07599 19.3409C4.21897 18.1534 4.35051 16.4434 4.61357 13.0236L4.85795 9.84661Z" fill="#2A4157" fill-opacity="0.24"/>
<path d="M8.5 8L8.5 6.5C8.5 4.567 10.067 3 12 3V3C13.933 3 15.5 4.567 15.5 6.5L15.5 8" stroke="#222222"/>
<path d="M8 11.5C8 11.7761 8.22386 12 8.5 12C8.77614 12 9 11.7761 9 11.5H8ZM9 11.5V10H8V11.5H9Z" fill="#222222"/>
<path d="M15 11.5C15 11.7761 15.2239 12 15.5 12C15.7761 12 16 11.7761 16 11.5H15ZM16 11.5V10H15V11.5H16Z" fill="#222222"/>
</svg>
