<svg width="24" height="24" viewBox="0 0 24 24" fill="none" xmlns="http://www.w3.org/2000/svg">
<path d="M5.5 10.5C5.5 8.29086 7.29086 6.5 9.5 6.5H14.5C16.7091 6.5 18.5 8.29086 18.5 10.5V17.5C18.5 19.7091 16.7091 21.5 14.5 21.5H9.5C7.29086 21.5 5.5 19.7091 5.5 17.5V10.5Z" stroke="#222222" stroke-linecap="round" stroke-linejoin="round"/>
<path d="M8.5 12.5H7.5C6.39543 12.5 5.5 11.6046 5.5 10.5V10.5C5.5 8.29086 7.29086 6.5 9.5 6.5H14.5C16.7091 6.5 18.5 8.29086 18.5 10.5V10.5C18.5 11.6046 17.6046 12.5 16.5 12.5H15.5M10.5 12.5H13.5" stroke="#222222" stroke-linecap="round" stroke-linejoin="round"/>
<path d="M14.5 19.5H9.5C8.39543 19.5 7.5 18.6046 7.5 17.5C7.5 16.9477 7.94772 16.5 8.5 16.5H15.5C16.0523 16.5 16.5 16.9477 16.5 17.5C16.5 18.6046 15.6046 19.5 14.5 19.5Z" stroke="#222222" stroke-linecap="round" stroke-linejoin="round"/>
<path d="M10.5 13.5V11.5C10.5 10.9477 10.0523 10.5 9.5 10.5C8.94772 10.5 8.5 10.9477 8.5 11.5V13.5C8.5 14.0523 8.94772 14.5 9.5 14.5C10.0523 14.5 10.5 14.0523 10.5 13.5Z" stroke="#33363F" stroke-linecap="round" stroke-linejoin="round"/>
<path d="M15.5 13.5V11.5C15.5 10.9477 15.0523 10.5 14.5 10.5C13.9477 10.5 13.5 10.9477 13.5 11.5V13.5C13.5 14.0523 13.9477 14.5 14.5 14.5C15.0523 14.5 15.5 14.0523 15.5 13.5Z" stroke="#33363F" stroke-linecap="round" stroke-linejoin="round"/>
<path d="M18.5 14.5H19.5C20.6046 14.5 21.5 15.3954 21.5 16.5V17.5C21.5 18.6046 20.6046 19.5 19.5 19.5H18" stroke="#222222" stroke-linecap="round" stroke-linejoin="round"/>
<path d="M5.5 14.5H4.5C3.39543 14.5 2.5 15.3954 2.5 16.5V17.5C2.5 18.6046 3.39543 19.5 4.5 19.5H6" stroke="#222222" stroke-linecap="round" stroke-linejoin="round"/>
<path d="M9.5 6.5V5.5C9.5 4.39543 10.3954 3.5 11.5 3.5H12.5C13.6046 3.5 14.5 4.39543 14.5 5.5V6.5" stroke="#222222" stroke-linecap="round" stroke-linejoin="round"/>
</svg>
