<svg width="24" height="24" viewBox="0 0 24 24" fill="none" xmlns="http://www.w3.org/2000/svg">
<path d="M4.41291 10.6086C3.69007 10.1267 4.03122 9 4.89995 9H19.1C19.9688 9 20.3099 10.1267 19.5871 10.6086C19.2103 10.8598 18.9452 11.2468 18.8469 11.6888L17.6961 16.8677C17.3624 18.3694 17.1955 19.1202 16.6471 19.5601C16.0987 20 15.3296 20 13.7913 20H10.2087C8.67043 20 7.9013 20 7.35289 19.5601C6.80448 19.1202 6.63763 18.3694 6.30394 16.8677L5.15307 11.6888C5.05484 11.2468 4.78966 10.8598 4.41291 10.6086Z" fill="#2A4157" fill-opacity="0.24"/>
<path d="M12 7L12 5" stroke="#222222" stroke-linecap="round"/>
<path d="M15 16.5L15.5 13.5" stroke="#222222" stroke-linecap="round"/>
<path d="M12 16.5L12 13.5" stroke="#222222" stroke-linecap="round"/>
<path d="M9 16.5L8.5 13.5" stroke="#222222" stroke-linecap="round"/>
</svg>
