<svg width="24" height="24" viewBox="0 0 24 24" fill="none" xmlns="http://www.w3.org/2000/svg">
<path d="M6 9C6 7.11438 6 6.17157 6.58579 5.58579C7.17157 5 8.11438 5 10 5H14C15.8856 5 16.8284 5 17.4142 5.58579C18 6.17157 18 7.11438 18 9V19C18 20.8856 18 21.8284 17.4142 22.4142C16.8284 23 15.8856 23 14 23H10C8.11438 23 7.17157 23 6.58579 22.4142C6 21.8284 6 20.8856 6 19V9Z" fill="#222222"/>
<path d="M9 3C9 2.05719 9 1.58579 9.29289 1.29289C9.58579 1 10.0572 1 11 1H13C13.9428 1 14.4142 1 14.7071 1.29289C15 1.58579 15 2.05719 15 3V4H9V3Z" fill="#222222"/>
</svg>
