<svg width="24" height="24" viewBox="0 0 24 24" fill="none" xmlns="http://www.w3.org/2000/svg">
<path d="M8.5 9.5C8.5 8.55719 8.5 8.08579 8.79289 7.79289C9.08579 7.5 9.55719 7.5 10.5 7.5H13.5C14.4428 7.5 14.9142 7.5 15.2071 7.79289C15.5 8.08579 15.5 8.55719 15.5 9.5V17.5C15.5 18.4428 15.5 18.9142 15.2071 19.2071C14.9142 19.5 14.4428 19.5 13.5 19.5H10.5C9.55719 19.5 9.08579 19.5 8.79289 19.2071C8.5 18.9142 8.5 18.4428 8.5 17.5V9.5Z" stroke="#222222"/>
<path fill-rule="evenodd" clip-rule="evenodd" d="M9.07613 3.61732C9.00001 3.80109 9.00001 4.03406 9.00001 4.5C9.00001 4.57215 9.00001 4.63871 9.00029 4.70037C9.00096 4.84756 9.0013 4.92116 8.96024 4.96477C8.91917 5.00838 8.84598 5.01245 8.6996 5.0206C8.52995 5.03004 8.3699 5.0438 8.22085 5.06383C7.70149 5.13366 7.16868 5.29579 6.73224 5.73223C6.2958 6.16867 6.13367 6.70149 6.06384 7.22084C5.99989 7.69655 5.99994 8.28427 6 8.93839L6.00001 9V18L6 18.0616C5.99994 18.7157 5.99989 19.3035 6.06384 19.7792C6.13367 20.2985 6.2958 20.8313 6.73224 21.2678C7.16868 21.7042 7.70149 21.8663 8.22085 21.9362C8.69656 22.0001 9.28429 22.0001 9.93842 22L10 22H14L14.0616 22C14.7157 22.0001 15.3035 22.0001 15.7792 21.9362C16.2985 21.8663 16.8313 21.7042 17.2678 21.2678C17.7042 20.8313 17.8663 20.2985 17.9362 19.7792C18.0001 19.3035 18.0001 18.7157 18 18.0616L18 18V9L18 8.93839C18.0001 8.28427 18.0001 7.69655 17.9362 7.22084C17.8663 6.70149 17.7042 6.16867 17.2678 5.73223C16.8313 5.29579 16.2985 5.13366 15.7792 5.06383C15.6301 5.0438 15.4701 5.03004 15.3004 5.0206C15.154 5.01246 15.0808 5.00838 15.0398 4.96477C14.9987 4.92116 14.9991 4.84756 14.9997 4.70038C15 4.63871 15 4.57215 15 4.5C15 4.03406 15 3.80109 14.9239 3.61732C14.8224 3.37229 14.6277 3.17761 14.3827 3.07612C14.1989 3 13.9659 3 13.5 3H10.5C10.0341 3 9.8011 3 9.61732 3.07612C9.3723 3.17761 9.17762 3.37229 9.07613 3.61732ZM10.5 6H10C8.58579 6 7.87869 6 7.43935 6.43934C7.00001 6.87868 7.00001 7.58579 7.00001 9V18C7.00001 19.4142 7.00001 20.1213 7.43935 20.5607C7.87869 21 8.58579 21 10 21H14C15.4142 21 16.1213 21 16.5607 20.5607C17 20.1213 17 19.4142 17 18V9C17 7.58579 17 6.87868 16.5607 6.43934C16.1213 6 15.4142 6 14 6H13.5H10.5Z" fill="#2A4157" fill-opacity="0.24"/>
</svg>
