<svg width="24" height="24" viewBox="0 0 24 24" fill="none" xmlns="http://www.w3.org/2000/svg">
<path fill-rule="evenodd" clip-rule="evenodd" d="M6.58579 5.58579C6 6.17157 6 7.11438 6 9V19C6 20.8856 6 21.8284 6.58579 22.4142C7.17157 23 8.11438 23 10 23H14C15.8856 23 16.8284 23 17.4142 22.4142C18 21.8284 18 20.8856 18 19V9C18 7.11438 18 6.17157 17.4142 5.58579C16.8284 5 15.8856 5 14 5H10C8.11438 5 7.17157 5 6.58579 5.58579ZM8.23431 8.23431C8 8.46863 8 8.84575 8 9.6V15.4C8 16.1542 8 16.5314 8.23431 16.7657C8.46863 17 8.84575 17 9.6 17H14.4C15.1542 17 15.5314 17 15.7657 16.7657C16 16.5314 16 16.1542 16 15.4V9.6C16 8.84575 16 8.46863 15.7657 8.23431C15.5314 8 15.1542 8 14.4 8H9.6C8.84575 8 8.46863 8 8.23431 8.23431Z" fill="#222222"/>
<path fill-rule="evenodd" clip-rule="evenodd" d="M9.29289 1.29289C9 1.58579 9 2.05719 9 3H15C15 2.05719 15 1.58579 14.7071 1.29289C14.4142 1 13.9428 1 13 1H11C10.0572 1 9.58579 1 9.29289 1.29289Z" fill="#222222"/>
</svg>
