<svg width="24" height="24" viewBox="0 0 24 24" fill="none" xmlns="http://www.w3.org/2000/svg">
<path d="M21.5 19.5V8.5C21.5 7.39543 20.6046 6.5 19.5 6.5H15.5C14.3954 6.5 13.5 7.39543 13.5 8.5V19.5" stroke="#33363F" stroke-linecap="round" stroke-linejoin="round"/>
<path d="M10 19.5C10 19.7761 10.2239 20 10.5 20C10.7761 20 11 19.7761 11 19.5H10ZM10.5 11.5H11C11 11.2239 10.7761 11 10.5 11V11.5ZM2 19.5C2 19.7761 2.22386 20 2.5 20C2.77614 20 3 19.7761 3 19.5H2ZM11 19.5V11.5H10V19.5H11ZM10.5 11H3.5V12H10.5V11ZM2 12.5V19.5H3V12.5H2ZM3.5 11C2.67157 11 2 11.6716 2 12.5H3C3 12.2239 3.22386 12 3.5 12V11Z" fill="#33363F"/>
<path d="M21.5 11.5H22C22 11.2239 21.7761 11 21.5 11V11.5ZM2.5 14.5H2C2 14.7761 2.22386 15 2.5 15V14.5ZM21.5 14.5V15C21.7761 15 22 14.7761 22 14.5H21.5ZM21.5 11H3.5V12H21.5V11ZM2 12.5V14.5H3V12.5H2ZM2.5 15H21.5V14H2.5V15ZM22 14.5V11.5H21V14.5H22ZM3.5 11C2.67157 11 2 11.6716 2 12.5H3C3 12.2239 3.22386 12 3.5 12V11Z" fill="#33363F"/>
<path d="M10.5 13.5V12.5C10.5 11.9477 10.9477 11.5 11.5 11.5H20.5C21.0523 11.5 21.5 11.9477 21.5 12.5V13.5C21.5 14.0523 21.0523 14.5 20.5 14.5H11.5C10.9477 14.5 10.5 14.0523 10.5 13.5Z" fill="#33363F"/>
</svg>
