<svg width="24" height="24" viewBox="0 0 24 24" fill="none" xmlns="http://www.w3.org/2000/svg">
<path fill-rule="evenodd" clip-rule="evenodd" d="M12 2C8.68632 2 6.00003 4.68629 6.00003 8V10C6.00003 11.5146 5.50878 12.9883 4.60003 14.2L4.38574 14.4857L4.37139 14.5048L4.37134 14.5049C4.31258 14.5832 4.26481 14.6469 4.23268 14.6976C3.62857 15.6518 4.25573 16.9061 5.38153 16.9953C5.44142 17.0001 5.52101 17 5.61892 17H5.61896L5.64288 17H18.3572L18.3811 17H18.3811C18.479 17 18.5586 17.0001 18.6185 16.9953C19.7443 16.9061 20.3715 15.6518 19.7674 14.6976C19.7352 14.6468 19.6874 14.5832 19.6286 14.5048L19.6143 14.4857L19.4 14.2C18.4913 12.9883 18 11.5146 18 10V9.31701C18 9.15272 18 9.07058 17.9532 9.02621C17.9064 8.98184 17.8164 8.98668 17.6363 8.99635C17.5912 8.99877 17.5457 9 17.5 9C17.4543 9 17.4089 8.99877 17.3638 8.99635C17.1837 8.98668 17.0937 8.98184 17.0468 9.02622C17 9.07059 17 9.15273 17 9.31701V10C17 11.731 17.5615 13.4152 18.6 14.8L18.8143 15.0857C18.8515 15.1353 18.8769 15.1692 18.8958 15.1949C18.905 15.2075 18.9114 15.2165 18.9161 15.2231L18.921 15.2303L18.9217 15.2314C18.9222 15.232 18.9224 15.2324 18.9225 15.2325L18.9225 15.2325C19.1238 15.5506 18.9148 15.9687 18.5395 15.9984C18.5396 15.9984 18.5388 15.9985 18.5368 15.9986L18.5281 15.999C18.5248 15.9991 18.5209 15.9992 18.5165 15.9993C18.5101 15.9994 18.5025 15.9995 18.4934 15.9996C18.4615 16 18.4191 16 18.3572 16H5.64288C5.58091 16 5.53858 16 5.50667 15.9996C5.4911 15.9995 5.48002 15.9992 5.47194 15.999L5.46321 15.9986C5.46127 15.9985 5.46045 15.9984 5.46053 15.9984C5.08526 15.9687 4.87621 15.5506 5.07758 15.2325L5.0778 15.2322C5.07803 15.2318 5.07844 15.2312 5.07906 15.2303L5.084 15.2231C5.08864 15.2165 5.09509 15.2075 5.1043 15.1949C5.12316 15.1692 5.14856 15.1353 5.18574 15.0857L5.40003 14.8C6.43861 13.4152 7.00003 11.731 7.00003 10V8C7.00003 5.23858 9.2386 3 12 3C13.3857 3 14.6396 3.56364 15.5452 4.47414C15.6496 4.57912 15.7018 4.63162 15.7578 4.63565C15.8138 4.63969 15.8759 4.59307 16 4.49985C16.0747 4.44369 16.1527 4.39163 16.2337 4.34399C16.4107 4.23977 16.4993 4.18766 16.5092 4.11574C16.5191 4.04383 16.4568 3.97879 16.3321 3.84872C15.24 2.70937 13.7029 2 12 2Z" fill="#2A4157" fill-opacity="0.24"/>
<circle cx="17.5" cy="6.5" r="1.5" fill="#222222"/>
<path d="M9.58519 18.647C9.72762 19.1786 10.0415 19.6484 10.4781 19.9834C10.9147 20.3184 11.4497 20.5 12 20.5C12.5503 20.5 13.0853 20.3184 13.5219 19.9834C13.9585 19.6484 14.2724 19.1786 14.4148 18.647" stroke="#222222" stroke-linecap="round"/>
</svg>
