<svg width="24" height="24" viewBox="0 0 24 24" fill="none" xmlns="http://www.w3.org/2000/svg">
<path d="M6.5 8C6.5 4.96243 8.96243 2.5 12 2.5V2.5C15.0376 2.5 17.5 4.96243 17.5 8V10C17.5 11.6228 18.0263 13.2018 19 14.5L19.2143 14.7857C19.2873 14.883 19.3237 14.9316 19.3449 14.9651C19.7476 15.6012 19.3295 16.4374 18.579 16.4969C18.5396 16.5 18.4788 16.5 18.3571 16.5H5.64286C5.52124 16.5 5.46044 16.5 5.421 16.4969C4.67047 16.4374 4.25236 15.6012 4.6551 14.9651C4.67626 14.9316 4.71275 14.883 4.78571 14.7857L5 14.5C5.97367 13.2018 6.5 11.6228 6.5 10V8Z" stroke="#2A4157" stroke-opacity="0.24"/>
<path d="M9.58519 18.647C9.72762 19.1786 10.0415 19.6484 10.4781 19.9834C10.9147 20.3184 11.4497 20.5 12 20.5C12.5503 20.5 13.0853 20.3184 13.5219 19.9834C13.9585 19.6484 14.2724 19.1786 14.4148 18.647" stroke="#222222" stroke-linecap="round"/>
</svg>
