<svg width="24" height="24" viewBox="0 0 24 24" fill="none" xmlns="http://www.w3.org/2000/svg">
<path fill-rule="evenodd" clip-rule="evenodd" d="M5 2C3.34315 2 2 3.34315 2 5V19C2 20.6569 3.34315 22 5 22H13V17L13 16.9384C12.9999 16.2843 12.9999 15.6965 13.0638 15.2208C13.1337 14.7015 13.2958 14.1687 13.7322 13.7322C14.1687 13.2958 14.7015 13.1337 15.2208 13.0638C15.6966 12.9999 16.2843 12.9999 16.9384 13L17 13H22V5C22 3.34315 20.6569 2 19 2H5ZM21.7305 15H17C16.2646 15 15.8137 15.0021 15.4873 15.046C15.2005 15.0846 15.1526 15.1394 15.1469 15.1459L15.1464 15.1464L15.1459 15.1469C15.1394 15.1526 15.0846 15.2005 15.046 15.4873C15.0021 15.8137 15 16.2646 15 17V21.7305C15.324 21.5831 15.6222 21.3778 15.8787 21.1213L21.1213 15.8787C21.3778 15.6222 21.5831 15.324 21.7305 15Z" fill="#222222"/>
</svg>
