<svg width="24" height="24" viewBox="0 0 24 24" fill="none" xmlns="http://www.w3.org/2000/svg">
<path d="M9 7.5L9.35355 7.14645C9.15829 6.95118 8.84171 6.95118 8.64645 7.14645L9 7.5ZM9 7.5C8.64645 7.14645 8.64635 7.14654 8.64624 7.14665C8.64618 7.14671 8.64605 7.14684 8.64593 7.14696C8.64569 7.1472 8.64539 7.14751 8.64501 7.14789C8.64426 7.14864 8.64323 7.14967 8.64194 7.15097C8.63936 7.15357 8.63571 7.15725 8.63103 7.162C8.62166 7.1715 8.60816 7.18527 8.59079 7.20316C8.55605 7.23892 8.50584 7.29117 8.44238 7.35866C8.31549 7.49361 8.1354 7.68974 7.91983 7.93723C7.48919 8.43168 6.91451 9.13396 6.3389 9.96539C5.20317 11.6059 4 13.8387 4 16H5C5 14.1613 6.04683 12.1441 7.1611 10.5346C7.71049 9.74104 8.26081 9.06832 8.67392 8.59402C8.88023 8.35714 9.0517 8.17045 9.1709 8.04368C9.23048 7.98032 9.27696 7.93197 9.30814 7.89987C9.32373 7.88382 9.33549 7.87183 9.34315 7.86406C9.34698 7.86017 9.34979 7.85734 9.35153 7.85559C9.35241 7.85471 9.35301 7.8541 9.35335 7.85376C9.35352 7.85359 9.35362 7.85349 9.35366 7.85345C9.35367 7.85343 9.35365 7.85346 9.35366 7.85345C9.35361 7.85349 9.35355 7.85355 9 7.5ZM14 16C14 13.8387 12.7968 11.6059 11.6611 9.96539C11.0855 9.13396 10.5108 8.43168 10.0802 7.93723C9.8646 7.68974 9.68451 7.49361 9.55762 7.35866C9.49416 7.29117 9.44395 7.23892 9.40921 7.20316C9.39184 7.18527 9.37834 7.1715 9.36897 7.162C9.36429 7.15725 9.36064 7.15357 9.35806 7.15097C9.35677 7.14967 9.35574 7.14864 9.35499 7.14789C9.35461 7.14751 9.35431 7.1472 9.35407 7.14696C9.35395 7.14684 9.35382 7.14671 9.35376 7.14665C9.35365 7.14654 9.35355 7.14645 9 7.5C8.64645 7.85355 8.64639 7.85349 8.64634 7.85345C8.64635 7.85346 8.64633 7.85343 8.64634 7.85345C8.64638 7.85349 8.64648 7.85359 8.64665 7.85376C8.64699 7.8541 8.64759 7.85471 8.64847 7.85559C8.65021 7.85734 8.65302 7.86017 8.65685 7.86406C8.66451 7.87183 8.67627 7.88382 8.69186 7.89987C8.72304 7.93197 8.76952 7.98032 8.8291 8.04368C8.9483 8.17045 9.11977 8.35714 9.32608 8.59402C9.73919 9.06832 10.2895 9.74104 10.8389 10.5346C11.9532 12.1441 13 14.1613 13 16H14ZM13 16C13 18.2091 11.2091 20 9 20V21C11.7614 21 14 18.7614 14 16H13ZM9 20C6.79086 20 5 18.2091 5 16H4C4 18.7614 6.23858 21 9 21V20Z" fill="#222222"/>
<path d="M13.5 7.5H19.5M16.5 4.5V10.5" stroke="#222222" stroke-linecap="round" stroke-linejoin="round"/>
</svg>
