<svg width="24" height="24" viewBox="0 0 24 24" fill="none" xmlns="http://www.w3.org/2000/svg">
<path d="M12 5.5L12.3536 5.14645C12.1583 4.95118 11.8417 4.95118 11.6464 5.14645L12 5.5ZM12 5.5C11.6464 5.14645 11.6464 5.14654 11.6462 5.14665C11.6462 5.14671 11.6461 5.14684 11.6459 5.14696C11.6457 5.1472 11.6454 5.14751 11.645 5.14789C11.6443 5.14864 11.6432 5.14967 11.6419 5.15097C11.6394 5.15357 11.6357 5.15725 11.631 5.162C11.6217 5.1715 11.6082 5.18527 11.5908 5.20316C11.556 5.23892 11.5058 5.29117 11.4424 5.35866C11.3155 5.49361 11.1354 5.68974 10.9198 5.93723C10.4892 6.43168 9.91451 7.13396 9.3389 7.96539C8.20317 9.6059 7 11.8387 7 14H8C8 12.1613 9.04683 10.1441 10.1611 8.53461C10.7105 7.74104 11.2608 7.06832 11.6739 6.59402C11.8802 6.35714 12.0517 6.17045 12.1709 6.04368C12.2305 5.98032 12.277 5.93197 12.3081 5.89987C12.3237 5.88382 12.3355 5.87183 12.3432 5.86406C12.347 5.86017 12.3498 5.85734 12.3515 5.85559C12.3524 5.85471 12.353 5.8541 12.3534 5.85376C12.3535 5.85359 12.3536 5.85349 12.3537 5.85345C12.3537 5.85343 12.3536 5.85346 12.3537 5.85345C12.3536 5.85349 12.3536 5.85355 12 5.5ZM17 14C17 11.8387 15.7968 9.6059 14.6611 7.96539C14.0855 7.13396 13.5108 6.43168 13.0802 5.93723C12.8646 5.68974 12.6845 5.49361 12.5576 5.35866C12.4942 5.29117 12.444 5.23892 12.4092 5.20316C12.3918 5.18527 12.3783 5.1715 12.369 5.162C12.3643 5.15725 12.3606 5.15357 12.3581 5.15097C12.3568 5.14967 12.3557 5.14864 12.355 5.14789C12.3546 5.14751 12.3543 5.1472 12.3541 5.14696C12.3539 5.14684 12.3538 5.14671 12.3538 5.14665C12.3536 5.14654 12.3536 5.14645 12 5.5C11.6464 5.85355 11.6464 5.85349 11.6463 5.85345C11.6464 5.85346 11.6463 5.85343 11.6463 5.85345C11.6464 5.85349 11.6465 5.85359 11.6466 5.85376C11.647 5.8541 11.6476 5.85471 11.6485 5.85559C11.6502 5.85734 11.653 5.86017 11.6568 5.86406C11.6645 5.87183 11.6763 5.88382 11.6919 5.89987C11.723 5.93197 11.7695 5.98032 11.8291 6.04368C11.9483 6.17045 12.1198 6.35714 12.3261 6.59402C12.7392 7.06832 13.2895 7.74104 13.8389 8.53461C14.9532 10.1441 16 12.1613 16 14H17ZM16 14C16 16.2091 14.2091 18 12 18V19C14.7614 19 17 16.7614 17 14H16ZM12 18C9.79086 18 8 16.2091 8 14H7C7 16.7614 9.23858 19 12 19V18Z" fill="#33363F"/>
</svg>
