<svg width="24" height="24" viewBox="0 0 24 24" fill="none" xmlns="http://www.w3.org/2000/svg">
<path d="M12 6V19" stroke="#33363F" stroke-width="2" stroke-linecap="round"/>
<path d="M21 6L21 19" stroke="#33363F" stroke-width="2" stroke-linecap="round"/>
<path d="M3 6L3 19" stroke="#33363F" stroke-width="2" stroke-linecap="round"/>
<path d="M20.1056 19.4472C20.3526 19.9412 20.9532 20.1414 21.4472 19.8944C21.9412 19.6474 22.1414 19.0468 21.8944 18.5528L20.1056 19.4472ZM11.1056 18.5528C10.8586 19.0468 11.0588 19.6474 11.5528 19.8944C12.0468 20.1414 12.6474 19.9412 12.8944 19.4472L11.1056 18.5528ZM21 19C21.8944 18.5528 21.8941 18.5522 21.8938 18.5515C21.8937 18.5513 21.8934 18.5507 21.8932 18.5502C21.8927 18.5494 21.8922 18.5485 21.8918 18.5475C21.8908 18.5456 21.8898 18.5436 21.8887 18.5415C21.8865 18.5372 21.884 18.5324 21.8812 18.5272C21.8757 18.5167 21.869 18.5043 21.861 18.49C21.8452 18.4616 21.8244 18.4259 21.7982 18.3841C21.7459 18.3004 21.672 18.1917 21.5731 18.0668C21.3752 17.8168 21.0765 17.5009 20.6507 17.1913C19.787 16.5631 18.4547 16 16.5 16V18C18.0453 18 18.963 18.4369 19.4743 18.8087C19.736 18.9991 19.9061 19.1832 20.005 19.3082C20.0545 19.3708 20.0861 19.4183 20.1022 19.4441C20.1102 19.4569 20.1143 19.4642 20.1148 19.465C20.115 19.4655 20.1144 19.4643 20.1128 19.4613C20.112 19.4599 20.111 19.458 20.1098 19.4556C20.1092 19.4544 20.1086 19.4532 20.1079 19.4518C20.1075 19.4511 20.1071 19.4503 20.1068 19.4496C20.1066 19.4492 20.1063 19.4486 20.1062 19.4484C20.1059 19.4478 20.1056 19.4472 21 19ZM16.5 16C14.5453 16 13.213 16.5631 12.3493 17.1913C11.9235 17.5009 11.6248 17.8168 11.4269 18.0668C11.328 18.1917 11.2541 18.3004 11.2018 18.3841C11.1756 18.4259 11.1548 18.4616 11.139 18.49C11.131 18.5043 11.1243 18.5167 11.1188 18.5272C11.116 18.5324 11.1135 18.5372 11.1113 18.5415C11.1102 18.5436 11.1092 18.5456 11.1082 18.5475C11.1078 18.5485 11.1073 18.5494 11.1068 18.5502C11.1066 18.5507 11.1063 18.5513 11.1062 18.5515C11.1059 18.5522 11.1056 18.5528 12 19C12.8944 19.4472 12.8941 19.4478 12.8938 19.4484C12.8937 19.4486 12.8934 19.4492 12.8932 19.4496C12.8929 19.4503 12.8925 19.4511 12.8921 19.4518C12.8914 19.4532 12.8908 19.4544 12.8902 19.4556C12.889 19.458 12.888 19.4599 12.8872 19.4613C12.8856 19.4643 12.885 19.4655 12.8852 19.465C12.8857 19.4642 12.8898 19.4569 12.8978 19.4441C12.9139 19.4183 12.9455 19.3708 12.995 19.3082C13.0939 19.1832 13.264 18.9991 13.5257 18.8087C14.037 18.4369 14.9547 18 16.5 18V16Z" fill="#33363F"/>
<path d="M11.1056 19.4472C11.3526 19.9412 11.9532 20.1414 12.4472 19.8944C12.9412 19.6474 13.1414 19.0468 12.8944 18.5528L11.1056 19.4472ZM2.10557 18.5528C1.85858 19.0468 2.05881 19.6474 2.55279 19.8944C3.04676 20.1414 3.64744 19.9412 3.89443 19.4472L2.10557 18.5528ZM12 19C12.8944 18.5528 12.8941 18.5522 12.8938 18.5515C12.8937 18.5513 12.8934 18.5507 12.8932 18.5502C12.8927 18.5494 12.8922 18.5485 12.8918 18.5475C12.8908 18.5456 12.8898 18.5436 12.8887 18.5415C12.8865 18.5372 12.884 18.5324 12.8812 18.5272C12.8757 18.5167 12.869 18.5043 12.861 18.49C12.8452 18.4616 12.8244 18.4259 12.7982 18.3841C12.7459 18.3004 12.672 18.1917 12.5731 18.0668C12.3752 17.8168 12.0765 17.5009 11.6507 17.1913C10.787 16.5631 9.45471 16 7.5 16V18C9.04529 18 9.96303 18.4369 10.4743 18.8087C10.736 18.9991 10.9061 19.1832 11.005 19.3082C11.0545 19.3708 11.0861 19.4183 11.1022 19.4441C11.1102 19.4569 11.1143 19.4642 11.1148 19.465C11.115 19.4655 11.1144 19.4643 11.1128 19.4613C11.112 19.4599 11.111 19.458 11.1098 19.4556C11.1092 19.4544 11.1086 19.4532 11.1079 19.4518C11.1075 19.4511 11.1071 19.4503 11.1068 19.4496C11.1066 19.4492 11.1063 19.4486 11.1062 19.4484C11.1059 19.4478 11.1056 19.4472 12 19ZM7.5 16C5.54529 16 4.21303 16.5631 3.34933 17.1913C2.92351 17.5009 2.62482 17.8168 2.42689 18.0668C2.32798 18.1917 2.25409 18.3004 2.20181 18.3841C2.17565 18.4259 2.15484 18.4616 2.13896 18.49C2.13102 18.5043 2.1243 18.5167 2.11875 18.5272C2.11598 18.5324 2.1135 18.5372 2.11131 18.5415C2.11021 18.5436 2.10918 18.5456 2.10823 18.5475C2.10775 18.5485 2.10729 18.5494 2.10685 18.5502C2.10663 18.5507 2.10631 18.5513 2.1062 18.5515C2.10588 18.5522 2.10557 18.5528 3 19C3.89443 19.4472 3.89412 19.4478 3.89383 19.4484C3.89373 19.4486 3.89343 19.4492 3.89324 19.4496C3.89286 19.4503 3.89249 19.4511 3.89214 19.4518C3.89143 19.4532 3.89077 19.4544 3.89017 19.4556C3.88896 19.458 3.88797 19.4599 3.8872 19.4613C3.88565 19.4643 3.88497 19.4655 3.88521 19.465C3.88569 19.4642 3.88978 19.4569 3.8978 19.4441C3.91388 19.4183 3.94546 19.3708 3.99498 19.3082C4.09393 19.1832 4.26399 18.9991 4.52567 18.8087C5.03697 18.4369 5.95471 18 7.5 18V16Z" fill="#33363F"/>
<path d="M20.1056 6.44721C20.3526 6.94119 20.9532 7.14142 21.4472 6.89443C21.9412 6.64744 22.1414 6.04676 21.8944 5.55279L20.1056 6.44721ZM11.1056 5.55279C10.8586 6.04676 11.0588 6.64744 11.5528 6.89443C12.0468 7.14142 12.6474 6.94119 12.8944 6.44721L11.1056 5.55279ZM21 6C21.8944 5.55279 21.8941 5.55217 21.8938 5.55154C21.8937 5.55132 21.8934 5.55068 21.8932 5.55024C21.8927 5.54937 21.8922 5.54845 21.8918 5.54751C21.8908 5.54563 21.8898 5.54362 21.8887 5.54148C21.8865 5.53721 21.884 5.53244 21.8812 5.52719C21.8757 5.5167 21.869 5.50427 21.861 5.49004C21.8452 5.4616 21.8244 5.42592 21.7982 5.38406C21.7459 5.30041 21.672 5.19174 21.5731 5.0668C21.3752 4.81678 21.0765 4.50095 20.6507 4.19126C19.787 3.56311 18.4547 3 16.5 3V5C18.0453 5 18.963 5.43689 19.4743 5.80874C19.736 5.99905 19.9061 6.18322 20.005 6.3082C20.0545 6.37076 20.0861 6.41834 20.1022 6.44406C20.1102 6.4569 20.1143 6.46418 20.1148 6.46503C20.115 6.46546 20.1144 6.46426 20.1128 6.46133C20.112 6.45987 20.111 6.45797 20.1098 6.45562C20.1092 6.45445 20.1086 6.45316 20.1079 6.45176C20.1075 6.45106 20.1071 6.45033 20.1068 6.44957C20.1066 6.44919 20.1063 6.4486 20.1062 6.44841C20.1059 6.44782 20.1056 6.44721 21 6ZM16.5 3C14.5453 3 13.213 3.56311 12.3493 4.19126C11.9235 4.50095 11.6248 4.81678 11.4269 5.0668C11.328 5.19174 11.2541 5.30041 11.2018 5.38406C11.1756 5.42592 11.1548 5.4616 11.139 5.49004C11.131 5.50427 11.1243 5.5167 11.1188 5.52719C11.116 5.53244 11.1135 5.53721 11.1113 5.54148C11.1102 5.54362 11.1092 5.54563 11.1082 5.54751C11.1078 5.54845 11.1073 5.54937 11.1068 5.55024C11.1066 5.55068 11.1063 5.55132 11.1062 5.55154C11.1059 5.55217 11.1056 5.55279 12 6C12.8944 6.44721 12.8941 6.44782 12.8938 6.44841C12.8937 6.4486 12.8934 6.44919 12.8932 6.44957C12.8929 6.45033 12.8925 6.45106 12.8921 6.45176C12.8914 6.45316 12.8908 6.45445 12.8902 6.45562C12.889 6.45797 12.888 6.45987 12.8872 6.46133C12.8856 6.46426 12.885 6.46546 12.8852 6.46503C12.8857 6.46418 12.8898 6.4569 12.8978 6.44406C12.9139 6.41834 12.9455 6.37076 12.995 6.3082C13.0939 6.18322 13.264 5.99905 13.5257 5.80874C14.037 5.43689 14.9547 5 16.5 5V3Z" fill="#33363F"/>
<path d="M11.1056 6.44721C11.3526 6.94119 11.9532 7.14142 12.4472 6.89443C12.9412 6.64744 13.1414 6.04676 12.8944 5.55279L11.1056 6.44721ZM2.10557 5.55279C1.85858 6.04676 2.05881 6.64744 2.55279 6.89443C3.04676 7.14142 3.64744 6.94119 3.89443 6.44721L2.10557 5.55279ZM12 6C12.8944 5.55279 12.8941 5.55217 12.8938 5.55154C12.8937 5.55132 12.8934 5.55068 12.8932 5.55024C12.8927 5.54937 12.8922 5.54845 12.8918 5.54751C12.8908 5.54563 12.8898 5.54362 12.8887 5.54148C12.8865 5.53721 12.884 5.53244 12.8812 5.52719C12.8757 5.5167 12.869 5.50427 12.861 5.49004C12.8452 5.4616 12.8244 5.42592 12.7982 5.38406C12.7459 5.30041 12.672 5.19174 12.5731 5.0668C12.3752 4.81678 12.0765 4.50095 11.6507 4.19126C10.787 3.56311 9.45471 3 7.5 3V5C9.04529 5 9.96303 5.43689 10.4743 5.80874C10.736 5.99905 10.9061 6.18322 11.005 6.3082C11.0545 6.37076 11.0861 6.41834 11.1022 6.44406C11.1102 6.4569 11.1143 6.46418 11.1148 6.46503C11.115 6.46546 11.1144 6.46426 11.1128 6.46133C11.112 6.45987 11.111 6.45797 11.1098 6.45562C11.1092 6.45445 11.1086 6.45316 11.1079 6.45176C11.1075 6.45106 11.1071 6.45033 11.1068 6.44957C11.1066 6.44919 11.1063 6.4486 11.1062 6.44841C11.1059 6.44782 11.1056 6.44721 12 6ZM7.5 3C5.54529 3 4.21303 3.56311 3.34933 4.19126C2.92351 4.50095 2.62482 4.81678 2.42689 5.0668C2.32798 5.19174 2.25409 5.30041 2.20181 5.38406C2.17565 5.42592 2.15484 5.4616 2.13896 5.49004C2.13102 5.50427 2.1243 5.5167 2.11875 5.52719C2.11598 5.53244 2.1135 5.53721 2.11131 5.54148C2.11021 5.54362 2.10918 5.54563 2.10823 5.54751C2.10775 5.54845 2.10729 5.54937 2.10685 5.55024C2.10663 5.55068 2.10631 5.55132 2.1062 5.55154C2.10588 5.55217 2.10557 5.55279 3 6C3.89443 6.44721 3.89412 6.44782 3.89383 6.44841C3.89373 6.4486 3.89343 6.44919 3.89324 6.44957C3.89286 6.45033 3.89249 6.45106 3.89214 6.45176C3.89143 6.45316 3.89077 6.45445 3.89017 6.45562C3.88896 6.45797 3.88797 6.45987 3.8872 6.46133C3.88565 6.46426 3.88497 6.46546 3.88521 6.46503C3.88569 6.46418 3.88978 6.4569 3.8978 6.44406C3.91388 6.41834 3.94546 6.37076 3.99498 6.3082C4.09393 6.18322 4.26399 5.99905 4.52567 5.80874C5.03697 5.43689 5.95471 5 7.5 5V3Z" fill="#33363F"/>
</svg>
