<svg width="24" height="24" viewBox="0 0 24 24" fill="none" xmlns="http://www.w3.org/2000/svg">
<path fill-rule="evenodd" clip-rule="evenodd" d="M6.5 16H16C17.8856 16 18.8284 16 19.4142 15.4142C20 14.8284 20 13.8856 20 12V7C20 5.11438 20 4.17157 19.4142 3.58579C18.8284 3 17.8856 3 16 3H8C6.11438 3 5.17157 3 4.58579 3.58579C4 4.17157 4 5.11438 4 7V18.5C4 17.1193 5.11929 16 6.5 16ZM16.4142 9.41421C17.1953 8.63317 17.1953 7.36684 16.4142 6.58579C15.6332 5.80474 14.3668 5.80474 13.5858 6.58579L11 9.17157L10.4142 8.58579C9.63317 7.80474 8.36684 7.80474 7.58579 8.58579C6.80474 9.36683 6.80474 10.6332 7.58579 11.4142L8.87868 12.7071C10.0503 13.8787 11.9497 13.8787 13.1213 12.7071L16.4142 9.41421Z" fill="#222222"/>
<path d="M19.4142 15.4142L18.7071 14.7071L18.7071 14.7071L19.4142 15.4142ZM19.4142 3.58579L18.7071 4.29289L18.7071 4.29289L19.4142 3.58579ZM16.4142 6.58579L17.1213 5.87868L17.1213 5.87868L16.4142 6.58579ZM16.4142 9.41421L15.7071 8.70711L16.4142 9.41421ZM13.5858 6.58579L12.8787 5.87868L13.5858 6.58579ZM11 9.17157L10.2929 9.87868L11 10.5858L11.7071 9.87868L11 9.17157ZM10.4142 8.58579L9.70711 9.29289H9.70711L10.4142 8.58579ZM7.58579 8.58579L8.29289 9.29289L8.29289 9.29289L7.58579 8.58579ZM7.58579 11.4142L8.29289 10.7071V10.7071L7.58579 11.4142ZM8.87868 12.7071L8.17157 13.4142L8.87868 12.7071ZM13.1213 12.7071L12.4142 12L13.1213 12.7071ZM16 15H6.5V17H16V15ZM18.7071 14.7071C18.631 14.7832 18.495 14.8774 18.0613 14.9357C17.5988 14.9979 16.9711 15 16 15V17C16.9145 17 17.701 17.0021 18.3278 16.9179C18.9833 16.8297 19.6117 16.631 20.1213 16.1213L18.7071 14.7071ZM19 12C19 12.9711 18.9979 13.5988 18.9357 14.0613C18.8774 14.495 18.7832 14.631 18.7071 14.7071L20.1213 16.1213C20.631 15.6117 20.8297 14.9833 20.9179 14.3278C21.0021 13.701 21 12.9145 21 12H19ZM19 7V12H21V7H19ZM18.7071 4.29289C18.7832 4.36902 18.8774 4.50496 18.9357 4.9387C18.9979 5.40121 19 6.02892 19 7H21C21 6.08546 21.0021 5.29896 20.9179 4.67221C20.8297 4.01669 20.631 3.38834 20.1213 2.87868L18.7071 4.29289ZM16 4C16.9711 4 17.5988 4.00212 18.0613 4.06431C18.495 4.12262 18.631 4.21677 18.7071 4.29289L20.1213 2.87868C19.6117 2.36902 18.9833 2.17027 18.3278 2.08214C17.701 1.99788 16.9145 2 16 2V4ZM8 4H16V2H8V4ZM5.29289 4.29289C5.36902 4.21677 5.50496 4.12262 5.9387 4.06431C6.40121 4.00212 7.02892 4 8 4V2C7.08546 2 6.29896 1.99788 5.67221 2.08214C5.01669 2.17027 4.38834 2.36902 3.87868 2.87868L5.29289 4.29289ZM5 7C5 6.02892 5.00212 5.40121 5.06431 4.9387C5.12262 4.50496 5.21677 4.36902 5.29289 4.29289L3.87868 2.87868C3.36902 3.38834 3.17027 4.01669 3.08214 4.67221C2.99788 5.29896 3 6.08546 3 7H5ZM5 18.5V7H3V18.5H5ZM6.5 15C4.567 15 3 16.567 3 18.5H5C5 17.6716 5.67157 17 6.5 17V15ZM15.7071 7.29289C16.0976 7.68342 16.0976 8.31658 15.7071 8.70711L17.1213 10.1213C18.2929 8.94975 18.2929 7.05025 17.1213 5.87868L15.7071 7.29289ZM14.2929 7.29289C14.6834 6.90237 15.3166 6.90237 15.7071 7.29289L17.1213 5.87868C15.9497 4.70711 14.0503 4.70711 12.8787 5.87868L14.2929 7.29289ZM11.7071 9.87868L14.2929 7.29289L12.8787 5.87868L10.2929 8.46447L11.7071 9.87868ZM9.70711 9.29289L10.2929 9.87868L11.7071 8.46447L11.1213 7.87868L9.70711 9.29289ZM8.29289 9.29289C8.68342 8.90237 9.31658 8.90237 9.70711 9.29289L11.1213 7.87868C9.94975 6.70711 8.05025 6.70711 6.87868 7.87868L8.29289 9.29289ZM8.29289 10.7071C7.90237 10.3166 7.90237 9.68342 8.29289 9.29289L6.87868 7.87868C5.70711 9.05025 5.70711 10.9497 6.87868 12.1213L8.29289 10.7071ZM9.58579 12L8.29289 10.7071L6.87868 12.1213L8.17157 13.4142L9.58579 12ZM12.4142 12C11.6332 12.781 10.3668 12.781 9.58579 12L8.17157 13.4142C9.73367 14.9763 12.2663 14.9763 13.8284 13.4142L12.4142 12ZM15.7071 8.70711L12.4142 12L13.8284 13.4142L17.1213 10.1213L15.7071 8.70711ZM11 20H6.5V22H11V20ZM3 18.5C3 20.433 4.567 22 6.5 22V20C5.67157 20 5 19.3284 5 18.5H3Z" fill="#222222"/>
<path d="M20 21H10" stroke="#222222" stroke-width="2" stroke-linecap="round"/>
</svg>
