<svg width="24" height="24" viewBox="0 0 24 24" fill="none" xmlns="http://www.w3.org/2000/svg">
<path d="M21 19V6C21 6 20 4 16.5 4C13 4 12 7 12 7C12 7 11 4 7.5 4C4 4 3 6 3 6V19C3 19 4 17 7.5 17C11 17 12 19 12 19C12 19 13 17 16.5 17C20 17 21 19 21 19Z" fill="#2A4157" fill-opacity="0.24"/>
<path d="M12 6.5V18.5" stroke="#222222" stroke-linecap="round"/>
<path d="M20.5 6.5V18.5" stroke="#222222" stroke-linecap="round"/>
<path d="M3.5 6.5V18.5" stroke="#222222" stroke-linecap="round"/>
<path d="M20.0528 18.7236C20.1763 18.9706 20.4766 19.0707 20.7236 18.9472C20.9706 18.8237 21.0707 18.5234 20.9472 18.2764L20.0528 18.7236ZM11.5149 18.3787C11.448 18.6466 11.6108 18.9181 11.8787 18.9851C12.1466 19.052 12.4181 18.8892 12.4851 18.6213L11.5149 18.3787ZM20.5 18.5C20.9472 18.2764 20.9471 18.2761 20.9469 18.2758C20.9468 18.2756 20.9467 18.2753 20.9466 18.2751C20.9463 18.2746 20.9461 18.2741 20.9458 18.2736C20.9453 18.2725 20.9446 18.2713 20.944 18.27C20.9426 18.2674 20.941 18.2643 20.9391 18.2607C20.9354 18.2536 20.9305 18.2446 20.9245 18.2338C20.9124 18.2122 20.8958 18.1837 20.8742 18.1491C20.831 18.0799 20.7676 17.9865 20.6811 17.8771C20.5079 17.6584 20.2414 17.3755 19.8566 17.0956C19.081 16.5316 17.8524 16 16 16V17C17.6476 17 18.669 17.4684 19.2684 17.9044C19.5711 18.1245 19.7733 18.3416 19.897 18.4979C19.9589 18.576 20.0011 18.6389 20.0262 18.6791C20.0388 18.6992 20.047 18.7135 20.0514 18.7213C20.0535 18.7252 20.0547 18.7274 20.0549 18.7278C20.055 18.728 20.0549 18.7278 20.0545 18.7271C20.0544 18.7267 20.0541 18.7263 20.0538 18.7257C20.0537 18.7254 20.0535 18.7251 20.0534 18.7247C20.0533 18.7246 20.0531 18.7243 20.0531 18.7242C20.0529 18.7239 20.0528 18.7236 20.5 18.5ZM16 16C14.1487 16 13.024 16.5319 12.3553 17.1263C12.0253 17.4197 11.8188 17.7175 11.6932 17.9494C11.6305 18.0651 11.588 18.1643 11.5602 18.2385C11.5462 18.2756 11.536 18.3065 11.5287 18.3302C11.525 18.3421 11.5221 18.3521 11.5198 18.3602C11.5187 18.3643 11.5177 18.3679 11.5169 18.371C11.5165 18.3725 11.5161 18.3739 11.5158 18.3752C11.5157 18.3759 11.5155 18.3765 11.5153 18.3771C11.5153 18.3774 11.5152 18.3778 11.5151 18.3779C11.515 18.3783 11.5149 18.3787 12 18.5C12.4851 18.6213 12.485 18.6217 12.4849 18.622C12.4849 18.6221 12.4848 18.6225 12.4847 18.6227C12.4846 18.6232 12.4845 18.6236 12.4844 18.624C12.4842 18.6249 12.484 18.6255 12.4838 18.6261C12.4835 18.6273 12.4833 18.628 12.4832 18.6283C12.4831 18.6288 12.4834 18.6277 12.4843 18.6249C12.486 18.6193 12.4899 18.6072 12.4965 18.5896C12.5097 18.5544 12.5336 18.4974 12.5725 18.4256C12.65 18.2825 12.7872 18.0803 13.0197 17.8737C13.476 17.4681 14.3513 17 16 17V16Z" fill="#33363F"/>
<path d="M3.94721 18.7236C3.82372 18.9706 3.52338 19.0707 3.27639 18.9472C3.0294 18.8237 2.92929 18.5234 3.05279 18.2764L3.94721 18.7236ZM12.4851 18.3787C12.552 18.6466 12.3892 18.9181 12.1213 18.9851C11.8534 19.052 11.5819 18.8892 11.5149 18.6213L12.4851 18.3787ZM3.5 18.5C3.05279 18.2764 3.05294 18.2761 3.0531 18.2758C3.05316 18.2756 3.05333 18.2753 3.05345 18.2751C3.05368 18.2746 3.05394 18.2741 3.05421 18.2736C3.05474 18.2725 3.05535 18.2713 3.05602 18.27C3.05737 18.2674 3.05898 18.2643 3.06086 18.2607C3.06464 18.2536 3.06951 18.2446 3.07552 18.2338C3.08755 18.2122 3.10418 18.1837 3.12581 18.1491C3.16904 18.0799 3.23235 17.9865 3.31891 17.8771C3.4921 17.6584 3.75863 17.3755 4.14341 17.0956C4.91902 16.5316 6.14764 16 8 16V17C6.35236 17 5.33098 17.4684 4.73159 17.9044C4.42887 18.1245 4.22665 18.3416 4.10296 18.4979C4.04109 18.576 3.99893 18.6389 3.9738 18.6791C3.96125 18.6992 3.95298 18.7135 3.94865 18.7213C3.94649 18.7252 3.94531 18.7274 3.94509 18.7278C3.94497 18.728 3.9451 18.7278 3.94545 18.7271C3.94563 18.7267 3.94587 18.7263 3.94616 18.7257C3.94631 18.7254 3.94647 18.7251 3.94664 18.7247C3.94673 18.7246 3.94687 18.7243 3.94692 18.7242C3.94706 18.7239 3.94721 18.7236 3.5 18.5ZM8 16C9.85131 16 10.976 16.5319 11.6447 17.1263C11.9747 17.4197 12.1812 17.7175 12.3068 17.9494C12.3695 18.0651 12.412 18.1643 12.4398 18.2385C12.4538 18.2756 12.464 18.3065 12.4713 18.3302C12.475 18.3421 12.4779 18.3521 12.4802 18.3602C12.4813 18.3643 12.4823 18.3679 12.4831 18.371C12.4835 18.3725 12.4839 18.3739 12.4842 18.3752C12.4843 18.3759 12.4845 18.3765 12.4847 18.3771C12.4847 18.3774 12.4848 18.3778 12.4849 18.3779C12.485 18.3783 12.4851 18.3787 12 18.5C11.5149 18.6213 11.515 18.6217 11.5151 18.622C11.5151 18.6221 11.5152 18.6225 11.5153 18.6227C11.5154 18.6232 11.5155 18.6236 11.5156 18.624C11.5158 18.6249 11.516 18.6255 11.5162 18.6261C11.5165 18.6273 11.5167 18.628 11.5168 18.6283C11.5169 18.6288 11.5166 18.6277 11.5157 18.6249C11.514 18.6193 11.5101 18.6072 11.5035 18.5896C11.4903 18.5544 11.4664 18.4974 11.4275 18.4256C11.35 18.2825 11.2128 18.0803 10.9803 17.8737C10.524 17.4681 9.64869 17 8 17V16Z" fill="#33363F"/>
<path d="M20.0528 6.72361C20.1763 6.9706 20.4766 7.07071 20.7236 6.94721C20.9706 6.82372 21.0707 6.52338 20.9472 6.27639L20.0528 6.72361ZM11.5149 6.37873C11.448 6.64663 11.6108 6.9181 11.8787 6.98507C12.1466 7.05205 12.4181 6.88917 12.4851 6.62127L11.5149 6.37873ZM20.5 6.5C20.9472 6.27639 20.9471 6.27608 20.9469 6.27576C20.9468 6.27564 20.9467 6.27531 20.9466 6.27508C20.9463 6.27461 20.9461 6.27411 20.9458 6.27357C20.9453 6.27251 20.9446 6.27132 20.944 6.27002C20.9426 6.2674 20.941 6.2643 20.9391 6.26073C20.9354 6.25359 20.9305 6.24457 20.9245 6.23379C20.9124 6.21225 20.8958 6.18366 20.8742 6.14906C20.831 6.07989 20.7676 5.98649 20.6811 5.87715C20.5079 5.65839 20.2414 5.37547 19.8566 5.09563C19.081 4.53156 17.8524 4 16 4V5C17.6476 5 18.669 5.46844 19.2684 5.90437C19.5711 6.12453 19.7733 6.34161 19.897 6.49785C19.9589 6.57601 20.0011 6.63886 20.0262 6.67906C20.0388 6.69915 20.047 6.71354 20.0514 6.72129C20.0535 6.72516 20.0547 6.72737 20.0549 6.7278C20.055 6.72801 20.0549 6.72778 20.0545 6.72708C20.0544 6.72674 20.0541 6.72628 20.0538 6.7257C20.0537 6.72541 20.0535 6.72509 20.0534 6.72474C20.0533 6.72457 20.0531 6.72428 20.0531 6.7242C20.0529 6.72391 20.0528 6.72361 20.5 6.5ZM16 4C14.1487 4 13.024 4.53191 12.3553 5.1263C12.0253 5.41968 11.8188 5.71751 11.6932 5.94936C11.6305 6.06509 11.588 6.16434 11.5602 6.2385C11.5462 6.27561 11.536 6.30653 11.5287 6.33022C11.525 6.34206 11.5221 6.35212 11.5198 6.36024C11.5187 6.3643 11.5177 6.36789 11.5169 6.37097C11.5165 6.37252 11.5161 6.37394 11.5158 6.37523C11.5157 6.37588 11.5155 6.37649 11.5153 6.37708C11.5153 6.37737 11.5152 6.37778 11.5151 6.37793C11.515 6.37833 11.5149 6.37873 12 6.5C12.4851 6.62127 12.485 6.62165 12.4849 6.62203C12.4849 6.62214 12.4848 6.62251 12.4847 6.62274C12.4846 6.6232 12.4845 6.62364 12.4844 6.62404C12.4842 6.62485 12.484 6.62555 12.4838 6.62613C12.4835 6.62729 12.4833 6.62801 12.4832 6.62828C12.4831 6.62884 12.4834 6.62766 12.4843 6.62486C12.486 6.61925 12.4899 6.60721 12.4965 6.58962C12.5097 6.55441 12.5336 6.49741 12.5725 6.42564C12.65 6.28249 12.7872 6.08032 13.0197 5.8737C13.476 5.46809 14.3513 5 16 5V4Z" fill="#33363F"/>
<path d="M3.94721 6.72361C3.82372 6.9706 3.52338 7.07071 3.27639 6.94721C3.0294 6.82372 2.92929 6.52338 3.05279 6.27639L3.94721 6.72361ZM12.4851 6.37873C12.552 6.64663 12.3892 6.9181 12.1213 6.98507C11.8534 7.05205 11.5819 6.88917 11.5149 6.62127L12.4851 6.37873ZM3.5 6.5C3.05279 6.27639 3.05294 6.27608 3.0531 6.27576C3.05316 6.27564 3.05333 6.27531 3.05345 6.27508C3.05368 6.27461 3.05394 6.27411 3.05421 6.27357C3.05474 6.27251 3.05535 6.27132 3.05602 6.27002C3.05737 6.2674 3.05898 6.2643 3.06086 6.26073C3.06464 6.25359 3.06951 6.24457 3.07552 6.23379C3.08755 6.21225 3.10418 6.18366 3.12581 6.14906C3.16904 6.07989 3.23235 5.98649 3.31891 5.87715C3.4921 5.65839 3.75863 5.37547 4.14341 5.09563C4.91902 4.53156 6.14764 4 8 4V5C6.35236 5 5.33098 5.46844 4.73159 5.90437C4.42887 6.12453 4.22665 6.34161 4.10296 6.49785C4.04109 6.57601 3.99893 6.63886 3.9738 6.67906C3.96125 6.69915 3.95298 6.71354 3.94865 6.72129C3.94649 6.72516 3.94531 6.72737 3.94509 6.7278C3.94497 6.72801 3.9451 6.72778 3.94545 6.72708C3.94563 6.72674 3.94587 6.72628 3.94616 6.7257C3.94631 6.72541 3.94647 6.72509 3.94664 6.72474C3.94673 6.72457 3.94687 6.72428 3.94692 6.7242C3.94706 6.72391 3.94721 6.72361 3.5 6.5ZM8 4C9.85131 4 10.976 4.53191 11.6447 5.1263C11.9747 5.41968 12.1812 5.71751 12.3068 5.94936C12.3695 6.06509 12.412 6.16434 12.4398 6.2385C12.4538 6.27561 12.464 6.30653 12.4713 6.33022C12.475 6.34206 12.4779 6.35212 12.4802 6.36024C12.4813 6.3643 12.4823 6.36789 12.4831 6.37097C12.4835 6.37252 12.4839 6.37394 12.4842 6.37523C12.4843 6.37588 12.4845 6.37649 12.4847 6.37708C12.4847 6.37737 12.4848 6.37778 12.4849 6.37793C12.485 6.37833 12.4851 6.37873 12 6.5C11.5149 6.62127 11.515 6.62165 11.5151 6.62203C11.5151 6.62214 11.5152 6.62251 11.5153 6.62274C11.5154 6.6232 11.5155 6.62364 11.5156 6.62404C11.5158 6.62485 11.516 6.62555 11.5162 6.62613C11.5165 6.62729 11.5167 6.62801 11.5168 6.62828C11.5169 6.62884 11.5166 6.62766 11.5157 6.62486C11.514 6.61925 11.5101 6.60721 11.5035 6.58962C11.4903 6.55441 11.4664 6.49741 11.4275 6.42564C11.35 6.28249 11.2128 6.08032 10.9803 5.8737C10.524 5.46809 9.64869 5 8 5V4Z" fill="#33363F"/>
</svg>
