<svg width="24" height="24" viewBox="0 0 24 24" fill="none" xmlns="http://www.w3.org/2000/svg">
<rect x="4" y="3" width="16" height="18" rx="2" fill="#2A4157" fill-opacity="0.24"/>
<path d="M4 19C4 17.8954 4.89543 17 6 17H17C17.9319 17 18.3978 17 18.7654 16.8478C19.2554 16.6448 19.6448 16.2554 19.8478 15.7654C20 15.3978 20 14.9319 20 14V17C20 18.8856 20 19.8284 19.4142 20.4142C18.8284 21 17.8856 21 16 21H6C4.89543 21 4 20.1046 4 19Z" fill="#222222"/>
<path d="M9.5 10.5L11.3939 12.3939C11.4525 12.4525 11.5475 12.4525 11.6061 12.3939L15.5 8.5" stroke="#222222" stroke-width="1.2"/>
</svg>
