<svg width="24" height="24" viewBox="0 0 24 24" fill="none" xmlns="http://www.w3.org/2000/svg">
<path d="M5 17H9C10.6569 17 12 18.3431 12 20V10C12 7.17157 12 5.75736 11.1213 4.87868C10.2426 4 8.82843 4 6 4H5C4.05719 4 3.58579 4 3.29289 4.29289C3 4.58579 3 5.05719 3 6V15C3 15.9428 3 16.4142 3.29289 16.7071C3.58579 17 4.05719 17 5 17Z" fill="#2A4157" fill-opacity="0.24"/>
<path d="M19 17H16C14.3431 17 13 18.3431 13 20V10C13 7.17157 13 5.75736 13.8787 4.87868C14.7574 4 16.1716 4 19 4C19.9428 4 20.4142 4 20.7071 4.29289C21 4.58579 21 5.05719 21 6V15C21 15.9428 21 16.4142 20.7071 16.7071C20.4142 17 19.9428 17 19 17Z" fill="#222222"/>
<path d="M5 4.15C5 4.06716 5.06716 4 5.15 4H7.85C7.93284 4 8 4.06716 8 4.15V8.39645C8 8.61917 7.73071 8.73071 7.57322 8.57322L6.67678 7.67678C6.57915 7.57915 6.42085 7.57915 6.32322 7.67678L5.42678 8.57322C5.26929 8.73071 5 8.61917 5 8.39645V4.15Z" fill="#222222"/>
</svg>
