<svg width="24" height="24" viewBox="0 0 24 24" fill="none" xmlns="http://www.w3.org/2000/svg">
<path d="M12 19V6C12 6 11 4 7.5 4C4 4 3 6 3 6V19C3 19 4 17 7.5 17C11 17 12 19 12 19Z" fill="#2A4157" fill-opacity="0.24"/>
<mask id="mask0_1358_4378" style="mask-type:alpha" maskUnits="userSpaceOnUse" x="3" y="4" width="9" height="15">
<path d="M12 19V6C12 6 11 4 7.5 4C4 4 3 6 3 6V19C3 19 4 17 7.5 17C11 17 12 19 12 19Z" fill="white"/>
</mask>
<g mask="url(#mask0_1358_4378)">
<path d="M5 4.15C5 4.06716 5.06716 4 5.15 4H7.85C7.93284 4 8 4.06716 8 4.15V8.39645C8 8.61917 7.73071 8.73071 7.57322 8.57322L6.67678 7.67678C6.57915 7.57915 6.42085 7.57915 6.32322 7.67678L5.42678 8.57322C5.26929 8.73071 5 8.61917 5 8.39645V4.15Z" fill="#222222"/>
</g>
<path d="M13 19V6C13 6 13.8889 4 17 4C20.1111 4 21 6 21 6V19C21 19 20.1111 17 17 17C13.8889 17 13 19 13 19Z" fill="#33363F"/>
</svg>
