<svg width="24" height="24" viewBox="0 0 24 24" fill="none" xmlns="http://www.w3.org/2000/svg">
<path fill-rule="evenodd" clip-rule="evenodd" d="M4 9.65685C4 8.83935 4 8.4306 4.15224 8.06306C4.30448 7.69552 4.59351 7.40649 5.17157 6.82843L5.82843 6.17157C6.40649 5.59351 6.69552 5.30448 7.06306 5.15224C7.4306 5 7.83935 5 8.65685 5H15.3431C16.1606 5 16.5694 5 16.9369 5.15224C17.3045 5.30448 17.5935 5.59351 18.1716 6.17157L18.8284 6.82843C19.4065 7.40649 19.6955 7.69552 19.8478 8.06306C20 8.4306 20 8.83935 20 9.65685V10H4V9.65685ZM15.3332 12H20V16C20 17.8856 20 18.8284 19.4142 19.4142C18.8284 20 17.8856 20 16 20H8C6.11438 20 5.17157 20 4.58579 19.4142C4 18.8284 4 17.8856 4 16V12H8.6665V15.6667C8.6665 16.4315 8.6665 16.8139 8.76541 17.0194C8.98621 17.4782 9.51649 17.6979 9.99705 17.5296C10.2123 17.4542 10.4827 17.1838 11.0235 16.643L11.0235 16.643C11.274 16.3925 11.3992 16.2673 11.5324 16.1969C11.8248 16.0422 12.1748 16.0422 12.4673 16.1969C12.6004 16.2673 12.7257 16.3925 12.9761 16.643C13.517 17.1838 13.7874 17.4542 14.0026 17.5296C14.4832 17.6979 15.0135 17.4782 15.2343 17.0194C15.3332 16.8139 15.3332 16.4315 15.3332 15.6667V12Z" fill="#222222"/>
</svg>
