<svg width="24" height="24" viewBox="0 0 24 24" fill="none" xmlns="http://www.w3.org/2000/svg">
<path d="M5 11H19V15C19 16.8856 19 17.8284 18.4142 18.4142C17.8284 19 16.8856 19 15 19H9C7.11438 19 6.17157 19 5.58579 18.4142C5 17.8284 5 16.8856 5 15V11Z" fill="#222222"/>
<path d="M2.8153 7.8153L5 10L9 6L6.58869 4.39246C6.23591 4.15728 5.77317 4.17012 5.43399 4.42451L2.92241 6.30819C2.43557 6.67332 2.38499 7.38499 2.8153 7.8153Z" fill="#222222"/>
<path d="M21.1847 7.8153L19 10L15 6L17.4113 4.39246C17.7641 4.15728 18.2268 4.17012 18.566 4.42451L21.0776 6.30819C21.5644 6.67332 21.615 7.38499 21.1847 7.8153Z" fill="#222222"/>
<path d="M18 10V11H6V10L9 7H15L18 10Z" stroke="#222222" stroke-width="2" stroke-linecap="round"/>
</svg>
