<svg width="24" height="24" viewBox="0 0 24 24" fill="none" xmlns="http://www.w3.org/2000/svg">
<path d="M5 12H19V16C19 17.8856 19 18.8284 18.4142 19.4142C17.8284 20 16.8856 20 15 20H9C7.11438 20 6.17157 20 5.58579 19.4142C5 18.8284 5 17.8856 5 16V12Z" fill="#222222"/>
<path fill-rule="evenodd" clip-rule="evenodd" d="M2.8153 7.81531L5 10V11H6.2H17.8H19V10L21.1847 7.81531C21.615 7.385 21.5644 6.67333 21.0776 6.3082L18.566 4.42452C18.2268 4.17013 17.7641 4.15729 17.4113 4.39247L15 6.00001H9L6.58869 4.39247C6.23591 4.15729 5.77317 4.17013 5.43399 4.42452L2.92241 6.3082C2.43557 6.67333 2.38499 7.385 2.8153 7.81531ZM8.6 7.20001H15.4L17.35 9.80001H6.65L8.6 7.20001Z" fill="#2A4157" fill-opacity="0.24"/>
</svg>
