<svg width="24" height="24" viewBox="0 0 24 24" fill="none" xmlns="http://www.w3.org/2000/svg">
<path d="M4 9.3C4 9.15858 4 9.08787 4.04393 9.04393C4.08787 9 4.15858 9 4.3 9H19.7C19.8414 9 19.9121 9 19.9561 9.04393C20 9.08787 20 9.15858 20 9.3V16C20 17.8856 20 18.8284 19.4142 19.4142C18.8284 20 17.8856 20 16 20H8C6.11438 20 5.17157 20 4.58579 19.4142C4 18.8284 4 17.8856 4 16V9.3Z" fill="#2A4157" fill-opacity="0.24"/>
<path d="M4.72426 8C4.41602 8 4.26191 8 4.22355 7.9074C4.18519 7.81481 4.29417 7.70583 4.51213 7.48787L5.82843 6.17157C6.40649 5.59351 6.69552 5.30448 7.06306 5.15224C7.4306 5 7.83935 5 8.65685 5H15.3431C16.1606 5 16.5694 5 16.9369 5.15224C17.3045 5.30448 17.5935 5.59351 18.1716 6.17157L19.4879 7.48787C19.7058 7.70583 19.8148 7.81481 19.7765 7.9074C19.7381 8 19.584 8 19.2757 8H4.72426Z" fill="#2A4157" fill-opacity="0.24"/>
<path d="M9 9.15C9 9.06716 9.06716 9 9.15 9H14.85C14.9328 9 15 9.06716 15 9.15V14.0657C15 14.4651 14.5549 14.7033 14.2227 14.4818L12.5547 13.3698C12.2188 13.1459 11.7812 13.1459 11.4453 13.3698L9.77735 14.4818C9.44507 14.7033 9 14.4651 9 14.0657V9.15Z" fill="#222222"/>
</svg>
