<svg width="24" height="24" viewBox="0 0 24 24" fill="none" xmlns="http://www.w3.org/2000/svg">
<path fill-rule="evenodd" clip-rule="evenodd" d="M8.97866 6.1448C7.65671 5.5573 5.99601 5.8585 5.00161 7.14017L4.69226 7.53889C3.3632 9.2519 3.5551 11.6947 5.13534 13.1792L12 19.6278L18.8646 13.1792C20.4449 11.6947 20.6368 9.25189 19.3077 7.53889L18.9984 7.14017C17.8194 5.62065 15.704 5.47843 14.3251 6.56449L13.0876 4.99329C15.2841 3.26335 18.6771 3.46343 20.5785 5.91417L20.8879 6.31289C22.8493 8.84095 22.5661 12.4461 20.234 14.6369L13.2814 21.1681C13.2748 21.1743 13.2681 21.1806 13.2613 21.187C13.1598 21.2824 13.0374 21.3975 12.9198 21.4881C12.781 21.595 12.5726 21.7301 12.2888 21.7857C12.0981 21.8232 11.9019 21.8232 11.7111 21.7857C11.4274 21.7301 11.219 21.595 11.0802 21.4881C10.9626 21.3975 10.8402 21.2824 10.7386 21.1869C10.7318 21.1806 10.7252 21.1743 10.7186 21.1681L3.76598 14.6369C1.43387 12.4461 1.15066 8.84096 3.11209 6.3129L3.90217 6.9259L3.11209 6.3129L3.42144 5.91418C5.37666 3.39411 8.90893 3.25294 11.0977 5.1463L11.8206 5.7716L11.2286 6.52199L10.1929 7.83476C9.84628 8.27407 9.65376 8.52186 9.54364 8.71047C9.54221 8.71293 9.54081 8.71534 9.53945 8.7177C9.54156 8.71943 9.54373 8.72119 9.54594 8.72298C9.71577 8.8603 9.98364 9.02374 10.4635 9.31164L11.7159 10.0631C11.732 10.0727 11.748 10.0824 11.7641 10.092C12.1444 10.3201 12.5121 10.5406 12.789 10.7629C13.1003 11.0128 13.4207 11.3593 13.5375 11.8789C13.6543 12.3985 13.5131 12.8488 13.3388 13.2078C13.1837 13.5273 12.9458 13.884 12.6997 14.253C12.6894 14.2685 12.679 14.2841 12.6686 14.2997L11.8321 15.5545L10.168 14.4451L11.0045 13.1903C11.2936 12.7565 11.4517 12.5155 11.5397 12.3343C11.5408 12.332 11.5419 12.3296 11.543 12.3274C11.5411 12.3258 11.5391 12.3242 11.537 12.3226C11.38 12.1965 11.1339 12.0463 10.6869 11.7781L9.43447 11.0266C9.41756 11.0165 9.40066 11.0063 9.38379 10.9962C8.97374 10.7503 8.58098 10.5147 8.28843 10.2782C7.96172 10.014 7.62359 9.64333 7.52173 9.08738C7.41988 8.53144 7.60462 8.06495 7.81645 7.70211C8.00613 7.37721 8.28987 7.01771 8.5861 6.64237C8.59828 6.62693 8.61049 6.61147 8.6227 6.59598L8.97866 6.1448ZM9.45433 8.63835C9.45436 8.63835 9.45477 8.63886 9.4555 8.63988C9.45467 8.63885 9.45431 8.63834 9.45433 8.63835ZM9.48855 8.82024C9.48822 8.82144 9.48802 8.82207 9.488 8.82208L9.48855 8.82024Z" fill="#33363F"/>
</svg>
