<svg width="24" height="24" viewBox="0 0 24 24" fill="none" xmlns="http://www.w3.org/2000/svg">
<path fill-rule="evenodd" clip-rule="evenodd" d="M10.658 5.60886L8.50001 9L12.5 12.5L11.5 15L15 12L12 8.5L14 5.99999L13.5505 5.43806C15.2875 4.09704 17.8257 4.09777 19.5581 5.66029C21.9154 7.78648 21.8727 11.4985 19.4672 13.57L12.4855 19.582C12.3351 19.7115 12.2599 19.7763 12.178 19.8074C12.0633 19.8511 11.9366 19.8511 11.822 19.8074C11.7401 19.7763 11.6649 19.7115 11.5145 19.582L11.5145 19.582L4.5328 13.57C2.12726 11.4985 2.08459 7.78648 4.44188 5.66029C6.24492 4.03402 8.92091 4.09958 10.658 5.60886Z" fill="#2A4157" fill-opacity="0.24"/>
<path fill-rule="evenodd" clip-rule="evenodd" d="M9.73601 5.99211C8.15646 4.94509 5.89709 5.17036 4.60656 6.8337L4.29721 7.23242C2.81006 9.14919 3.02479 11.8826 4.79299 13.5436L11.7456 20.0749C11.8726 20.1942 11.9419 20.2585 11.9954 20.2997C11.997 20.301 11.9985 20.3021 12 20.3032C12.0014 20.3021 12.0029 20.301 12.0045 20.2997C12.0581 20.2585 12.1273 20.1942 12.2544 20.0749L19.207 13.5436C20.9752 11.8826 21.1899 9.14919 19.7027 7.23242L19.3934 6.8337C18.0338 5.08138 15.599 4.92469 14.0157 6.17172L13.397 5.38612C15.3891 3.81715 18.4627 4.00277 20.1835 6.2207L20.4928 6.61942C22.2962 8.94372 22.0358 12.2583 19.8916 14.2725L12.939 20.8037L12.9251 20.8168C12.8174 20.918 12.712 21.0171 12.6147 21.092C12.5065 21.1753 12.3697 21.2604 12.1926 21.2951C12.0654 21.3201 11.9346 21.3201 11.8074 21.2951C11.6302 21.2604 11.4934 21.1753 11.3852 21.092C11.288 21.0171 11.1825 20.918 11.0749 20.8168L11.0609 20.8037L4.10832 14.2725C1.96417 12.2583 1.70379 8.94372 3.50712 6.61943L3.81648 6.2207C5.58604 3.93994 8.78608 3.80782 10.7706 5.52448L11.132 5.83713L10.836 6.21232L9.80033 7.52509C9.46305 7.9526 9.2438 8.23239 9.11184 8.45841C8.98706 8.67215 8.98699 8.76155 8.99717 8.81709C9.00734 8.87262 9.0391 8.9562 9.23155 9.11181C9.43507 9.27637 9.73927 9.46025 10.2062 9.74041L11.4587 10.4919L11.4877 10.5093C11.885 10.7477 12.2264 10.9524 12.476 11.1529C12.7431 11.3672 12.9678 11.6244 13.0497 11.9886C13.1316 12.3528 13.0386 12.6815 12.889 12.9895C12.7492 13.2775 12.5284 13.6087 12.2713 13.9942L12.2525 14.0224L11.416 15.2771L10.584 14.7224L11.4205 13.4677C11.7016 13.046 11.8831 12.7718 11.9894 12.5527C12.0895 12.3467 12.0861 12.2616 12.074 12.208C12.062 12.1544 12.0286 12.0761 11.85 11.9327C11.6601 11.7802 11.3787 11.6101 10.9442 11.3494L9.69171 10.5979L9.66133 10.5797C9.23325 10.3229 8.86746 10.1034 8.6028 9.88942C8.32084 9.66143 8.08484 9.38645 8.01354 8.9973C7.94224 8.60816 8.06543 8.26737 8.24824 7.95423C8.41984 7.66031 8.68407 7.32543 8.99328 6.93354L9.01524 6.9057L9.73601 5.99211Z" fill="#222222"/>
</svg>
