<svg width="24" height="24" viewBox="0 0 24 24" fill="none" xmlns="http://www.w3.org/2000/svg">
<path fill-rule="evenodd" clip-rule="evenodd" d="M10.0558 4.23106L8 7.99994L12.5 12.4999L11.5 14.9999L15 11.9999L11 7.99994L12.3513 6.31316C12.4237 6.25665 12.4844 6.18002 12.525 6.08327C13.8648 2.89328 18.1316 2.30243 20.2879 5.00829L20.6761 5.49551C22.532 7.82441 22.215 11.2037 19.9584 13.1469L12.5681 19.5108L12.5681 19.5108C12.3387 19.7083 12.224 19.8071 12.0914 19.8317C12.031 19.843 11.969 19.843 11.9086 19.8317C11.7759 19.8071 11.6612 19.7083 11.4319 19.5108L11.4319 19.5108L4.04157 13.1469C1.785 11.2037 1.46802 7.82441 3.32386 5.49551L3.71211 5.0083C5.34547 2.95859 8.18991 2.80059 10.0558 4.23106Z" fill="#222222"/>
</svg>
