<svg width="24" height="24" viewBox="0 0 24 24" fill="none" xmlns="http://www.w3.org/2000/svg">
<path fill-rule="evenodd" clip-rule="evenodd" d="M7 4.43245C7 4.27684 7 4.19903 6.9491 4.15423C6.89819 4.10944 6.82244 4.11915 6.67094 4.13857C5.54965 4.28229 4.76806 4.57508 4.17157 5.17157C3 6.34315 3 8.22876 3 12C3 15.7712 3 17.6569 4.17157 18.8284C5.34315 20 7.22876 20 11 20H13C16.7712 20 18.6569 20 19.8284 18.8284C21 17.6569 21 15.7712 21 12C21 8.22876 21 6.34315 19.8284 5.17157C19.2319 4.57508 18.4504 4.28229 17.3291 4.13857C17.1776 4.11915 17.1018 4.10944 17.0509 4.15424C17 4.19903 17 4.27684 17 4.43245L17 6.5C17 7.32843 16.3284 8 15.5 8C14.6716 8 14 7.32843 14 6.5L14 4.30005C14 4.15898 14 4.08844 13.9561 4.04451C13.9123 4.00059 13.8418 4.0005 13.7009 4.00031C13.4748 4 13.2412 4 13 4H11C10.7588 4 10.5252 4 10.2991 4.00031C10.1582 4.0005 10.0877 4.00059 10.0439 4.04452C10 4.08844 10 4.15898 10 4.30005L10 6.5C10 7.32843 9.32843 8 8.50001 8C7.67158 8 7 7.32843 7 6.5L7 4.43245Z" fill="#2A4157" fill-opacity="0.24"/>
<path d="M8.5 2.5L8.5 6.5" stroke="#222222" stroke-linecap="round"/>
<path d="M15.5 2.5L15.5 6.5" stroke="#222222" stroke-linecap="round"/>
<circle cx="7.5" cy="10.5" r="0.5" fill="#222222"/>
<circle cx="10.5" cy="10.5" r="0.5" fill="#222222"/>
<circle cx="13.5" cy="10.5" r="0.5" fill="#222222"/>
<circle cx="16.5" cy="10.5" r="0.5" fill="#222222"/>
<circle cx="7.5" cy="13.5" r="0.5" fill="#222222"/>
<circle cx="10.5" cy="13.5" r="0.5" fill="#222222"/>
<circle cx="13.5" cy="13.5" r="0.5" fill="#222222"/>
<circle cx="16.5" cy="13.5" r="0.5" fill="#222222"/>
<circle cx="7.5" cy="16.5" r="0.5" fill="#222222"/>
<circle cx="10.5" cy="16.5" r="0.5" fill="#222222"/>
<circle cx="13.5" cy="16.5" r="0.5" fill="#222222"/>
<circle cx="16.5" cy="16.5" r="0.5" fill="#222222"/>
</svg>
