<svg width="24" height="24" viewBox="0 0 24 24" fill="none" xmlns="http://www.w3.org/2000/svg">
<path d="M14.5 10.0003C14.5 9.20875 15.5528 8.99895 15.8321 9.73957C16.5077 11.5311 17 13.1337 17 14.0002C17 16.7616 14.7614 19.0002 12 19.0002C9.23858 19.0002 7 16.7616 7 14.0002C7 13.0693 7.56822 11.2887 8.32156 9.33698C9.29743 6.80879 9.78536 5.54469 10.3877 5.4766C10.5804 5.45482 10.7907 5.49399 10.9626 5.58371C11.5 5.86413 11.5 7.24285 11.5 10.0003C11.5 10.8287 12.1716 11.5003 13 11.5003C13.8284 11.5003 14.5 10.8287 14.5 10.0003Z" stroke="#33363F" stroke-width="2"/>
<path d="M11 19L10.7372 18.343C10.2816 17.204 10.4737 15.9079 11.24 14.95V14.95C11.6296 14.463 12.3704 14.463 12.76 14.95V14.95C13.5263 15.9079 13.7184 17.204 13.2628 18.343L13 19" stroke="#33363F" stroke-width="2"/>
</svg>
