<svg width="24" height="24" viewBox="0 0 24 24" fill="none" xmlns="http://www.w3.org/2000/svg">
<path d="M4 12C4 10.1144 4 9.17157 4.58579 8.58579C5.17157 8 6.11438 8 8 8H8.78377C8.88813 8 8.94031 8 8.97959 7.97169C9.01888 7.94337 9.03538 7.89387 9.06838 7.79487L9.54415 6.36754C9.76416 5.70753 9.87416 5.37752 10.136 5.18876C10.3979 5 10.7458 5 11.4415 5H14.5585C15.2542 5 15.6021 5 15.864 5.18876C16.1258 5.37752 16.2358 5.70753 16.4558 6.36754L16.9513 7.85404C16.9652 7.89558 16.9721 7.91634 16.9831 7.93295C17.0033 7.9633 17.0338 7.98528 17.0689 7.99479C17.0882 8 17.1101 8 17.1539 8C17.9415 8 18.3354 8 18.6524 8.1094C19.2335 8.30992 19.6901 8.76651 19.8906 9.3476C20 9.66463 20 10.0585 20 10.8461V14C20 15.8856 20 16.8284 19.4142 17.4142C18.8284 18 17.8856 18 16 18H8C6.11438 18 5.17157 18 4.58579 17.4142C4 16.8284 4 15.8856 4 14V12Z" fill="#2A4157" fill-opacity="0.24"/>
<path d="M14.5 6.5H11.5" stroke="#222222" stroke-linecap="round" stroke-linejoin="round"/>
<circle cx="13" cy="13" r="3" fill="#222222"/>
<rect x="4" y="6" width="3" height="1" rx="0.5" fill="#2A4157" fill-opacity="0.24"/>
</svg>
