<svg width="24" height="24" viewBox="0 0 24 24" fill="none" xmlns="http://www.w3.org/2000/svg">
<path fill-rule="evenodd" clip-rule="evenodd" d="M21 12C21 16.9706 16.9706 21 12 21C7.02944 21 3 16.9706 3 12C3 7.02944 7.02944 3 12 3C16.9706 3 21 7.02944 21 12ZM16.1716 14.7574C16.6951 13.967 17 13.0191 17 12C17 9.23858 14.7614 7 12 7C10.9809 7 10.033 7.30488 9.24261 7.8284L16.1716 14.7574ZM7.8284 9.24261L14.7574 16.1716C13.967 16.6951 13.0191 17 12 17C9.23858 17 7 14.7614 7 12C7 10.9809 7.30488 10.033 7.8284 9.24261ZM12 5C8.13401 5 5 8.13401 5 12C5 15.866 8.13401 19 12 19C15.866 19 19 15.866 19 12C19 8.13401 15.866 5 12 5Z" fill="#222222"/>
</svg>
