<svg width="24" height="24" viewBox="0 0 24 24" fill="none" xmlns="http://www.w3.org/2000/svg">
<path fill-rule="evenodd" clip-rule="evenodd" d="M2.87868 2.87868C2 3.75736 2 5.17157 2 8V16C2 18.8284 2 20.2426 2.87868 21.1213C3.75736 22 5.17157 22 8 22H16C18.8284 22 20.2426 22 21.1213 21.1213C22 20.2426 22 18.8284 22 16V8C22 5.17157 22 3.75736 21.1213 2.87868C20.2426 2 18.8284 2 16 2H8C5.17157 2 3.75736 2 2.87868 2.87868ZM17.8321 9.5547C18.1384 9.09517 18.0142 8.4743 17.5547 8.16795C17.0952 7.8616 16.4743 7.98577 16.1679 8.4453L13.1238 13.0115L12.6651 12.094C11.9783 10.7205 10.0639 10.6013 9.2121 11.8791L6.16795 16.4453C5.8616 16.9048 5.98577 17.5257 6.4453 17.8321C6.90483 18.1384 7.5257 18.0142 7.83205 17.5547L10.8762 12.9885L11.3349 13.906C12.0217 15.2795 13.9361 15.3987 14.7879 14.1209L17.8321 9.5547Z" fill="#222222"/>
</svg>
