<svg width="24" height="24" viewBox="0 0 24 24" fill="none" xmlns="http://www.w3.org/2000/svg">
<path d="M15.5 10.5L12.5 13.5L10.5 11.5L7.5 14.5" stroke="#222222" stroke-linecap="round" stroke-linejoin="round"/>
<path d="M14.5 4.5H7.7C6.57989 4.5 6.01984 4.5 5.59202 4.71799C5.21569 4.90973 4.90973 5.21569 4.71799 5.59202C4.5 6.01984 4.5 6.57989 4.5 7.7V16.3C4.5 17.4201 4.5 17.9802 4.71799 18.408C4.90973 18.7843 5.21569 19.0903 5.59202 19.282C6.01984 19.5 6.57989 19.5 7.7 19.5H16.3C17.4201 19.5 17.9802 19.5 18.408 19.282C18.7843 19.0903 19.0903 18.7843 19.282 18.408C19.5 17.9802 19.5 17.4201 19.5 16.3V9.5" stroke="#222222" stroke-linecap="round"/>
<circle cx="18.5" cy="5.5" r="2" stroke="#222222" stroke-linecap="round"/>
</svg>
