<svg width="24" height="24" viewBox="0 0 24 24" fill="none" xmlns="http://www.w3.org/2000/svg">
<path d="M15.5 10.5L12.5 13.5L10.5 11.5L7.5 14.5" stroke="#33363F" stroke-width="2" stroke-linecap="round" stroke-linejoin="round"/>
<path d="M14 5H7.2C6.07989 5 5.51984 5 5.09202 5.21799C4.71569 5.40973 4.40973 5.71569 4.21799 6.09202C4 6.51984 4 7.07989 4 8.2V16.8C4 17.9201 4 18.4802 4.21799 18.908C4.40973 19.2843 4.71569 19.5903 5.09202 19.782C5.51984 20 6.07989 20 7.2 20H15.8C16.9201 20 17.4802 20 17.908 19.782C18.2843 19.5903 18.5903 19.2843 18.782 18.908C19 18.4802 19 17.9201 19 16.8V10" stroke="#33363F" stroke-width="2" stroke-linecap="round"/>
<circle cx="19" cy="5" r="2" fill="#33363F"/>
</svg>
