<svg width="24" height="24" viewBox="0 0 24 24" fill="none" xmlns="http://www.w3.org/2000/svg">
<path d="M19.3259 5.77772L18.9101 6.0555L18.9101 6.0555L19.3259 5.77772ZM19.3259 16.2223L18.9101 15.9445H18.9101L19.3259 16.2223ZM18.2223 17.3259L17.9445 16.9101V16.9101L18.2223 17.3259ZM14 17.9986L13.9978 17.4986C13.7225 17.4998 13.5 17.7233 13.5 17.9986H14ZM14 18L14.4472 18.2236C14.4819 18.1542 14.5 18.0776 14.5 18H14ZM10 18H9.5C9.5 18.0776 9.51807 18.1542 9.55279 18.2236L10 18ZM10 17.9986H10.5C10.5 17.7233 10.2775 17.4998 10.0022 17.4986L10 17.9986ZM5.77772 17.3259L6.0555 16.9101L6.0555 16.9101L5.77772 17.3259ZM4.67412 16.2223L5.08986 15.9445H5.08986L4.67412 16.2223ZM4.67412 5.77772L5.08986 6.0555L4.67412 5.77772ZM5.77772 4.67412L6.0555 5.08986L5.77772 4.67412ZM18.2223 4.67412L17.9445 5.08986V5.08986L18.2223 4.67412ZM20.5 11C20.5 9.60594 20.5006 8.52277 20.4132 7.66325C20.3249 6.79537 20.1427 6.10023 19.7416 5.49993L18.9101 6.0555C19.1832 6.4641 19.3381 6.97564 19.4183 7.76445C19.4994 8.56162 19.5 9.58513 19.5 11H20.5ZM19.7416 16.5001C20.1427 15.8998 20.3249 15.2046 20.4132 14.3368C20.5006 13.4772 20.5 12.3941 20.5 11H19.5C19.5 12.4149 19.4994 13.4384 19.4183 14.2355C19.3381 15.0244 19.1832 15.5359 18.9101 15.9445L19.7416 16.5001ZM18.5001 17.7416C18.9914 17.4133 19.4133 16.9914 19.7416 16.5001L18.9101 15.9445C18.6548 16.3267 18.3267 16.6548 17.9445 16.9101L18.5001 17.7416ZM14.0022 18.4986C15.0787 18.4939 15.9452 18.4734 16.6582 18.3749C17.3793 18.2752 17.9757 18.092 18.5001 17.7416L17.9445 16.9101C17.5875 17.1487 17.1516 17.2971 16.5213 17.3843C15.883 17.4725 15.079 17.4939 13.9978 17.4986L14.0022 18.4986ZM14.5 18V17.9986H13.5V18H14.5ZM13.3416 20.4348L14.4472 18.2236L13.5528 17.7764L12.4472 19.9875L13.3416 20.4348ZM10.6584 20.4348C11.2111 21.5403 12.7889 21.5403 13.3416 20.4348L12.4472 19.9875C12.263 20.3561 11.737 20.3561 11.5528 19.9875L10.6584 20.4348ZM9.55279 18.2236L10.6584 20.4348L11.5528 19.9875L10.4472 17.7764L9.55279 18.2236ZM9.5 17.9986V18H10.5V17.9986H9.5ZM5.49993 17.7416C6.02427 18.092 6.62069 18.2752 7.34176 18.3749C8.0548 18.4734 8.92135 18.4939 9.99782 18.4986L10.0022 17.4986C8.92095 17.4939 8.11704 17.4725 7.47869 17.3843C6.84838 17.2971 6.41252 17.1487 6.0555 16.9101L5.49993 17.7416ZM4.25839 16.5001C4.5867 16.9914 5.00858 17.4133 5.49993 17.7416L6.0555 16.9101C5.67334 16.6548 5.34521 16.3267 5.08986 15.9445L4.25839 16.5001ZM3.5 11C3.5 12.3941 3.4994 13.4772 3.58683 14.3368C3.67512 15.2046 3.85728 15.8998 4.25839 16.5001L5.08986 15.9445C4.81684 15.5359 4.66194 15.0244 4.5817 14.2355C4.5006 13.4384 4.5 12.4149 4.5 11H3.5ZM4.25839 5.49993C3.85728 6.10023 3.67512 6.79537 3.58683 7.66325C3.4994 8.52277 3.5 9.60594 3.5 11H4.5C4.5 9.58513 4.5006 8.56162 4.5817 7.76445C4.66194 6.97564 4.81684 6.4641 5.08986 6.0555L4.25839 5.49993ZM5.49993 4.25839C5.00858 4.5867 4.5867 5.00858 4.25839 5.49993L5.08986 6.0555C5.34521 5.67334 5.67334 5.34521 6.0555 5.08986L5.49993 4.25839ZM11 3.5C9.60594 3.5 8.52277 3.4994 7.66325 3.58683C6.79537 3.67512 6.10023 3.85728 5.49993 4.25839L6.0555 5.08986C6.4641 4.81684 6.97564 4.66194 7.76445 4.5817C8.56162 4.5006 9.58513 4.5 11 4.5V3.5ZM13 3.5H11V4.5H13V3.5ZM18.5001 4.25839C17.8998 3.85728 17.2046 3.67512 16.3368 3.58683C15.4772 3.4994 14.3941 3.5 13 3.5V4.5C14.4149 4.5 15.4384 4.5006 16.2355 4.5817C17.0244 4.66194 17.5359 4.81684 17.9445 5.08986L18.5001 4.25839ZM19.7416 5.49993C19.4133 5.00858 18.9914 4.5867 18.5001 4.25839L17.9445 5.08986C18.3267 5.34521 18.6548 5.67334 18.9101 6.0555L19.7416 5.49993Z" fill="#222222"/>
<circle cx="16" cy="11" r="1" fill="#222222"/>
<circle cx="12" cy="11" r="1" fill="#222222"/>
<circle cx="8" cy="11" r="1" fill="#222222"/>
</svg>
