<svg width="24" height="24" viewBox="0 0 24 24" fill="none" xmlns="http://www.w3.org/2000/svg">
<path d="M10.5 7.5L12.5 10.5L10.5 13.5H7.5L5.5 10.5L7.5 7.5H10.5Z" stroke="#33363F" stroke-linecap="round" stroke-linejoin="round"/>
<path d="M15.5 4.5L17.5 7.5L15.5 10.5H12.5L10.5 7.5L12.5 4.5H15.5Z" stroke="#33363F" stroke-linecap="round" stroke-linejoin="round"/>
<path d="M15.5 16.5L17.5 19.5" stroke="#33363F" stroke-linecap="round" stroke-linejoin="round"/>
<path d="M5.5 4.5L7.5 7.5" stroke="#33363F" stroke-linecap="round" stroke-linejoin="round"/>
<path d="M12.5 16.5L11.5 18" stroke="#33363F" stroke-linecap="round" stroke-linejoin="round"/>
<path d="M7.5 13.5L6.5 15" stroke="#33363F" stroke-linecap="round" stroke-linejoin="round"/>
<path d="M5.5 10.5H4.5" stroke="#33363F" stroke-linecap="round" stroke-linejoin="round"/>
<path d="M17.5 13.5H20.5" stroke="#33363F" stroke-linecap="round" stroke-linejoin="round"/>
<path d="M15.5 10.5L17.5 13.5L15.5 16.5H12.5L10.5 13.5L12.5 10.5H15.5Z" stroke="#33363F" stroke-linecap="round" stroke-linejoin="round"/>
<circle cx="10.5" cy="19.5" r="0.5" fill="#222222"/>
<circle cx="5.5" cy="16.5" r="0.5" fill="#222222"/>
<circle cx="2.5" cy="10.5" r="0.5" fill="#222222"/>
</svg>
