<svg width="24" height="24" viewBox="0 0 24 24" fill="none" xmlns="http://www.w3.org/2000/svg">
<path d="M11 7L13 10L11 13H8L6 10L8 7H11Z" stroke="#33363F" stroke-width="2" stroke-linecap="round" stroke-linejoin="round"/>
<path d="M16 4L18 7L16 10H13L11 7L13 4H16Z" stroke="#33363F" stroke-width="2" stroke-linecap="round" stroke-linejoin="round"/>
<path d="M16 16L18 19" stroke="#33363F" stroke-width="2" stroke-linecap="round" stroke-linejoin="round"/>
<path d="M5 4L8 7" stroke="#33363F" stroke-width="2" stroke-linecap="round" stroke-linejoin="round"/>
<path d="M8 13L6 15" stroke="#33363F" stroke-width="2" stroke-linecap="round" stroke-linejoin="round"/>
<path d="M13 16L11 18" stroke="#33363F" stroke-width="2" stroke-linecap="round" stroke-linejoin="round"/>
<path d="M6 10H4" stroke="#33363F" stroke-width="2" stroke-linecap="round" stroke-linejoin="round"/>
<path d="M18 13H21" stroke="#33363F" stroke-width="2" stroke-linecap="round" stroke-linejoin="round"/>
<path d="M16 10L18 13L16 16H13L11 13L13 10H16Z" stroke="#33363F" stroke-width="2" stroke-linecap="round" stroke-linejoin="round"/>
<circle cx="9" cy="20" r="1" fill="#33363F"/>
<circle cx="4" cy="17" r="1" fill="#33363F"/>
<circle cx="21" cy="7" r="1" fill="#33363F"/>
</svg>
