<svg width="24" height="24" viewBox="0 0 24 24" fill="none" xmlns="http://www.w3.org/2000/svg">
<path fill-rule="evenodd" clip-rule="evenodd" d="M18.3939 5.74002L13.1818 3.50624C12.4271 3.18282 11.5729 3.18282 10.8182 3.50624L5.60608 5.74002C5.2384 5.8976 5 6.25914 5 6.65917V11.9121C5 13.8498 5.93579 15.6682 7.51257 16.7945L10.8375 19.1694C11.5329 19.6661 12.4671 19.6661 13.1625 19.1694L16.4874 16.7945C18.0642 15.6682 19 13.8498 19 11.9121V6.65917C19 6.25914 18.7616 5.8976 18.3939 5.74002ZM15.7809 9.62469C16.1259 9.19343 16.056 8.56414 15.6247 8.21913C15.1934 7.87412 14.5641 7.94404 14.2191 8.37531L10.9171 12.5029L9.70711 11.2929C9.31658 10.9024 8.68342 10.9024 8.29289 11.2929C7.90237 11.6834 7.90237 12.3166 8.29289 12.7071L9.89788 14.3121C10.53 14.9443 11.5714 14.8866 12.1298 14.1885L15.7809 9.62469Z" fill="#222222"/>
</svg>
