<svg width="24" height="24" viewBox="0 0 24 24" fill="none" xmlns="http://www.w3.org/2000/svg">
<path fill-rule="evenodd" clip-rule="evenodd" d="M15 17.75L16.8 16.4C18.8144 14.8892 20 12.5181 20 10V6C20 4.89543 19.1046 4 18 4H6C4.89543 4 4 4.89543 4 6V10C4 12.5181 5.18555 14.8892 7.2 16.4L9 17.75C10.7778 19.0833 13.2222 19.0833 15 17.75ZM10 10C10 10.5523 9.55228 11 9 11C8.44772 11 8 10.5523 8 10C8 9.44772 8.44772 9 9 9C9.55228 9 10 9.44772 10 10ZM13 10C13 10.5523 12.5523 11 12 11C11.4477 11 11 10.5523 11 10C11 9.44772 11.4477 9 12 9C12.5523 9 13 9.44772 13 10ZM15 11C15.5523 11 16 10.5523 16 10C16 9.44772 15.5523 9 15 9C14.4477 9 14 9.44772 14 10C14 10.5523 14.4477 11 15 11Z" fill="#222222"/>
</svg>
