<svg width="24" height="24" viewBox="0 0 24 24" fill="none" xmlns="http://www.w3.org/2000/svg">
<path d="M18.7022 5.78441L12.7878 3.24968C12.2847 3.03406 11.7153 3.03406 11.2122 3.24968L5.29778 5.78441C4.47855 6.13551 3.99051 6.98635 4.10106 7.87077L4.71405 12.7747C4.9342 14.5359 5.81517 16.1477 7.1787 17.284L10.7196 20.2347C11.4613 20.8528 12.5387 20.8528 13.2804 20.2347L16.8213 17.284C18.1848 16.1477 19.0658 14.5359 19.286 12.7747L19.8989 7.87077C20.0095 6.98635 19.5215 6.13551 18.7022 5.78441Z" stroke="#33363F" stroke-width="2" stroke-linecap="round"/>
<path d="M9 12L11.5687 14.5687C11.7918 14.7918 12.1633 14.7551 12.3383 14.4925L16 9" stroke="#33363F" stroke-width="2" stroke-linecap="round"/>
</svg>
