<svg width="24" height="24" viewBox="0 0 24 24" fill="none" xmlns="http://www.w3.org/2000/svg">
<path d="M14 15L14.3536 14.6464L14.7071 15L14.3536 15.3536L14 15ZM10.3536 10.6464L14.3536 14.6464L13.6464 15.3536L9.64645 11.3536L10.3536 10.6464ZM14.3536 15.3536L10.3536 19.3536L9.64645 18.6464L13.6464 14.6464L14.3536 15.3536Z" fill="#222222"/>
<path d="M19.7942 12.75C20.8108 11.8697 21.2012 10.8431 20.902 9.83767C20.6027 8.83221 19.6315 7.90702 18.1463 7.2128C16.6612 6.51858 14.7497 6.09623 12.7232 6.01455C10.6967 5.93287 8.67454 6.19667 6.98617 6.76297C5.2978 7.32928 4.04265 8.16473 3.42516 9.13325C2.80766 10.1018 2.86421 11.1463 3.58559 12.0967C4.30696 13.0471 5.65067 13.8474 7.39784 14.3672C9.14501 14.887 11.1927 15.0957 13.2074 14.9593" stroke="#222222" stroke-linecap="round"/>
</svg>
