<svg width="24" height="24" viewBox="0 0 24 24" fill="none" xmlns="http://www.w3.org/2000/svg">
<path d="M10 15L9.29289 14.2929L8.58579 15L9.29289 15.7071L10 15ZM13.2929 10.2929L9.29289 14.2929L10.7071 15.7071L14.7071 11.7071L13.2929 10.2929ZM9.29289 15.7071L13.2929 19.7071L14.7071 18.2929L10.7071 14.2929L9.29289 15.7071Z" fill="#33363F"/>
<path d="M4.20577 12.75C3.21517 11.8921 2.8184 10.8948 3.077 9.91263C3.3356 8.9305 4.23511 8.01848 5.63604 7.31802C7.03696 6.61756 8.86101 6.1678 10.8253 6.0385C12.7895 5.9092 14.7842 6.10758 16.5 6.60289C18.2158 7.09819 19.5567 7.86273 20.3149 8.77792C21.0731 9.69312 21.2061 10.7078 20.6933 11.6647C20.1806 12.6215 19.0507 13.467 17.4789 14.0701C15.9071 14.6731 13.9812 15 12 15" stroke="#33363F" stroke-width="2" stroke-linecap="round"/>
</svg>
