<svg width="24" height="24" viewBox="0 0 24 24" fill="none" xmlns="http://www.w3.org/2000/svg">
<path fill-rule="evenodd" clip-rule="evenodd" d="M12 21C16.9706 21 21 16.9706 21 12C21 7.02944 16.9706 3 12 3C7.02944 3 3 7.02944 3 12C3 16.9706 7.02944 21 12 21ZM13.2929 14.7071C13.6834 15.0976 14.3166 15.0976 14.7071 14.7071C15.0976 14.3166 15.0976 13.6834 14.7071 13.2929L13.4142 12L14.7071 10.7071C15.0976 10.3166 15.0976 9.68342 14.7071 9.29289C14.3166 8.90237 13.6834 8.90237 13.2929 9.29289L12 10.5858L10.7071 9.29289C10.3166 8.90237 9.68342 8.90237 9.29289 9.29289C8.90237 9.68342 8.90237 10.3166 9.29289 10.7071L10.5858 12L9.29289 13.2929C8.90237 13.6834 8.90237 14.3166 9.29289 14.7071C9.68342 15.0976 10.3166 15.0976 10.7071 14.7071L12 13.4142L13.2929 14.7071ZM14.6788 5.53284C13.1826 4.91309 11.5178 4.83131 9.96801 5.30142C8.41826 5.77153 7.07945 6.76445 6.17971 8.11101C5.27997 9.45756 4.87497 11.0744 5.03371 12.6861C5.19244 14.2978 5.9051 15.8046 7.05025 16.9497C7.44077 17.3403 8.07394 17.3403 8.46446 16.9497C8.85499 16.5592 8.85499 15.9261 8.46447 15.5355C7.6465 14.7176 7.13746 13.6413 7.02408 12.4901C6.91069 11.3389 7.19998 10.184 7.84265 9.22215C8.48532 8.26032 9.44161 7.55109 10.5486 7.2153C11.6555 6.8795 12.8447 6.93792 13.9134 7.3806C14.9821 7.82328 15.8643 8.62283 16.4096 9.64302C16.9549 10.6632 17.1296 11.8409 16.9039 12.9755C16.6783 14.11 16.0662 15.1312 15.172 15.8651C14.2778 16.5989 13.1568 17 12 17C11.4477 17 11 17.4477 11 18C11 18.5523 11.4477 19 12 19C13.6195 19 15.1889 18.4385 16.4408 17.4111C17.6926 16.3837 18.5496 14.954 18.8655 13.3656C19.1814 11.7773 18.9369 10.1285 18.1734 8.70022C17.41 7.27196 16.175 6.15259 14.6788 5.53284Z" fill="#222222"/>
</svg>
