<svg width="24" height="24" viewBox="0 0 24 24" fill="none" xmlns="http://www.w3.org/2000/svg">
<path fill-rule="evenodd" clip-rule="evenodd" d="M21 12C21 16.9706 16.9706 21 12 21C7.02944 21 3 16.9706 3 12C3 7.02944 7.02944 3 12 3C16.9706 3 21 7.02944 21 12ZM6.58579 16L7.29289 15.2929L10.5858 12L7.29289 8.70711L6.58579 8L8 6.58579L8.70711 7.29289L12 10.5858L15.2929 7.29289L16 6.58579L17.4142 8L16.7071 8.70711L13.4142 12L16.7071 15.2929L17.4142 16L16 17.4142L15.2929 16.7071L12 13.4142L8.70711 16.7071L8 17.4142L6.58579 16Z" fill="#222222"/>
</svg>
