<svg width="24" height="24" viewBox="0 0 24 24" fill="none" xmlns="http://www.w3.org/2000/svg">
<path d="M8.9902 19.9818L9.06455 20.979L8.9902 19.9818ZM8.91584 18.9846C8.77874 18.9948 8.64007 19 8.5 19V21C8.68974 21 8.87801 20.9929 9.06455 20.979L8.91584 18.9846ZM8.5 19C5.46243 19 3 16.5376 3 13.5H1C1 17.6421 4.35786 21 8.5 21V19ZM3 13.5C3 10.4624 5.46243 8 8.5 8V6C4.35786 6 1 9.35786 1 13.5H3ZM8.5 8C10.7499 8 12.6865 9.3511 13.5384 11.2903L15.3695 10.4859C14.21 7.84649 11.5717 6 8.5 6V8ZM16 13C17.6569 13 19 14.3431 19 16H21C21 13.2386 18.7614 11 16 11V13ZM19 16C19 17.6569 17.6569 19 16 19V21C18.7614 21 21 18.7614 21 16H19ZM16 19H9.00911V21H16V19ZM9.00911 19C9.55634 19 10 19.4436 10 19.9909H8C8 20.5482 8.45182 21 9.00911 21V19ZM13.5384 11.2903C13.9313 12.1847 14.8177 13 16 13V11C15.8064 11 15.53 10.8512 15.3695 10.4859L13.5384 11.2903ZM9.06455 20.979C8.49075 21.0218 8 20.568 8 19.9909H10C10 19.4031 9.50022 18.941 8.91584 18.9846L9.06455 20.979Z" fill="#33363F"/>
<path d="M17.8785 12.9023C18.6142 12.7367 19.2881 12.3665 19.8224 11.8344C20.3568 11.3023 20.7299 10.6299 20.8986 9.89495C21.0673 9.15996 21.0248 8.39223 20.776 7.68034C20.5273 6.96845 20.0823 6.34139 19.4925 5.87149C18.9027 5.40159 18.192 5.10799 17.4425 5.02456C16.6931 4.94112 15.9352 5.07126 15.2565 5.39995C14.5778 5.72865 14.0059 6.2425 13.6066 6.88226C13.2073 7.52201 12.9971 8.26159 13 9.0157" stroke="#33363F" stroke-width="2"/>
</svg>
