<svg width="24" height="24" viewBox="0 0 24 24" fill="none" xmlns="http://www.w3.org/2000/svg">
<path d="M9.80269 9L10.2355 9.25036L10.0911 9.5H9.80269V9ZM15 6.5C12.9649 6.5 11.1872 7.6051 10.2355 9.25036L9.36989 8.74964C10.493 6.80809 12.5935 5.5 15 5.5V6.5ZM20.5 12C20.5 8.96243 18.0376 6.5 15 6.5V5.5C18.5899 5.5 21.5 8.41015 21.5 12H20.5ZM15 17.5C18.0376 17.5 20.5 15.0376 20.5 12H21.5C21.5 15.5899 18.5899 18.5 15 18.5V17.5ZM7.5 17.5H15V18.5H7.5V17.5ZM3.5 13.5C3.5 15.7091 5.29086 17.5 7.5 17.5V18.5C4.73857 18.5 2.5 16.2614 2.5 13.5H3.5ZM7.5 9.5C5.29086 9.5 3.5 11.2909 3.5 13.5H2.5C2.5 10.7386 4.73857 8.5 7.5 8.5V9.5ZM9.80269 9.5H7.5V8.5H9.80269V9.5Z" fill="#33363F"/>
<path d="M16.3177 17.8535C17.4213 17.6051 18.4321 17.0498 19.2337 16.2516C20.0352 15.4534 20.5948 14.4449 20.8479 13.3424C21.101 12.2399 21.0373 11.0884 20.6641 10.0205C20.2909 8.95268 19.6234 8.01208 18.7387 7.30723C17.854 6.60238 16.788 6.16198 15.6638 6.03683C14.5396 5.91169 13.4029 6.10689 12.3848 6.59993C11.3667 7.09297 10.5088 7.86375 9.9099 8.82338C9.31102 9.78301 8.99561 10.8924 9.00005 12.0236" stroke="#33363F"/>
</svg>
