<svg width="24" height="24" viewBox="0 0 24 24" fill="none" xmlns="http://www.w3.org/2000/svg">
<path fill-rule="evenodd" clip-rule="evenodd" d="M9 19.9909C9 19.9856 8.99549 19.9814 8.9902 19.9818C8.82838 19.9939 8.66491 20 8.5 20C4.91015 20 2 17.0899 2 13.5C2 9.91015 4.91015 7 8.5 7C11.1608 7 13.4482 8.59879 14.4539 10.8881C14.7306 11.518 15.312 12 16 12C18.2091 12 20 13.7909 20 16C20 18.2091 18.2091 20 16 20H9.00911C9.00408 20 9 19.9959 9 19.9909Z" fill="#2A4157" fill-opacity="0.24"/>
<path d="M8.9902 19.9818L9.03481 20.5801L8.9902 19.9818ZM8.94558 19.3835C8.79859 19.3944 8.65 19.4 8.5 19.4V20.6C8.67981 20.6 8.85816 20.5933 9.03481 20.5801L8.94558 19.3835ZM8.5 19.4C5.24152 19.4 2.6 16.7585 2.6 13.5H1.4C1.4 17.4212 4.57878 20.6 8.5 20.6V19.4ZM2.6 13.5C2.6 10.2415 5.24152 7.6 8.5 7.6V6.4C4.57878 6.4 1.4 9.57878 1.4 13.5H2.6ZM8.5 7.6C10.9143 7.6 12.9912 9.05018 13.9046 11.1295L15.0033 10.6468C13.9053 8.14741 11.4074 6.4 8.5 6.4V7.6ZM16 12.6C17.8778 12.6 19.4 14.1222 19.4 16H20.6C20.6 13.4595 18.5405 11.4 16 11.4V12.6ZM19.4 16C19.4 17.8778 17.8778 19.4 16 19.4V20.6C18.5405 20.6 20.6 18.5405 20.6 16H19.4ZM16 19.4H9.00911V20.6H16V19.4ZM9.00911 19.4C9.33544 19.4 9.6 19.6645 9.6 19.9909H8.4C8.4 20.3273 8.67272 20.6 9.00911 20.6V19.4ZM13.9046 11.1295C14.251 11.918 15.0154 12.6 16 12.6V11.4C15.6087 11.4 15.2102 11.1179 15.0033 10.6468L13.9046 11.1295ZM9.03481 20.5801C8.69265 20.6056 8.4 20.3351 8.4 19.9909H9.6C9.6 19.6361 9.29833 19.3572 8.94558 19.3835L9.03481 20.5801Z" fill="#222222"/>
<path d="M18.312 12.7787C18.9921 12.5426 19.5958 12.1273 20.0595 11.5768C20.5232 11.0262 20.8297 10.3606 20.9468 9.65037C21.0638 8.9401 20.987 8.21141 20.7245 7.54115C20.4619 6.87088 20.0234 6.28389 19.4551 5.84207C18.8868 5.40024 18.2098 5.11997 17.4955 5.0308C16.7812 4.94164 16.056 5.04689 15.3966 5.33544C14.7371 5.624 14.1677 6.08518 13.7484 6.67034C13.3292 7.25549 13.0756 7.94294 13.0145 8.66019" stroke="#222222" stroke-width="1.2"/>
</svg>
