<svg width="24" height="24" viewBox="0 0 24 24" fill="none" xmlns="http://www.w3.org/2000/svg">
<path d="M8.9902 19.9818L9.02737 20.4804L8.9902 19.9818ZM8.95302 19.4832C8.80356 19.4943 8.65249 19.5 8.5 19.5V20.5C8.67732 20.5 8.85319 20.4934 9.02737 20.4804L8.95302 19.4832ZM8.5 19.5C5.18629 19.5 2.5 16.8137 2.5 13.5H1.5C1.5 17.366 4.63401 20.5 8.5 20.5V19.5ZM2.5 13.5C2.5 10.1863 5.18629 7.5 8.5 7.5V6.5C4.63401 6.5 1.5 9.63401 1.5 13.5H2.5ZM8.5 7.5C10.9554 7.5 13.0673 8.97495 13.9962 11.0892L14.9117 10.687C13.8291 8.22264 11.3663 6.5 8.5 6.5V7.5ZM16 12.5C17.933 12.5 19.5 14.067 19.5 16H20.5C20.5 13.5147 18.4853 11.5 16 11.5V12.5ZM19.5 16C19.5 17.933 17.933 19.5 16 19.5V20.5C18.4853 20.5 20.5 18.4853 20.5 16H19.5ZM16 19.5H9.00911V20.5H16V19.5ZM9.00911 19.5C9.28021 19.5 9.5 19.7198 9.5 19.9909H8.5C8.5 20.2721 8.72795 20.5 9.00911 20.5V19.5ZM13.9962 11.0892C14.331 11.8514 15.0648 12.5 16 12.5V11.5C15.5592 11.5 15.1303 11.1846 14.9117 10.687L13.9962 11.0892ZM9.02737 20.4804C8.74312 20.5016 8.5 20.2768 8.5 19.9909H9.5C9.5 19.6944 9.24785 19.4612 8.95302 19.4832L9.02737 20.4804Z" fill="#222222"/>
<path d="M19.5355 13.5355C20.0388 13.0323 20.4288 12.4274 20.6795 11.7613C20.9302 11.0951 21.0358 10.3832 20.9893 9.67298C20.9427 8.96278 20.7451 8.2707 20.4096 7.64302C20.0741 7.01533 19.6085 6.4665 19.0438 6.03323C18.4792 5.59996 17.8285 5.29223 17.1354 5.13062C16.4422 4.969 15.7226 4.95722 15.0245 5.09607C14.3265 5.23492 13.6661 5.5212 13.0876 5.93577C12.5091 6.35033 12.0257 6.88363 11.6699 7.5" stroke="#222222"/>
</svg>
