<svg width="24" height="24" viewBox="0 0 24 24" fill="none" xmlns="http://www.w3.org/2000/svg">
<path d="M10.5278 8L11.2729 8.66691L10.9748 9H10.5278V8ZM15 7C13.5193 7 12.1899 7.6424 11.2729 8.66691L9.78265 7.33309C11.063 5.9026 12.9267 5 15 5V7ZM20 12C20 9.23858 17.7614 7 15 7V5C18.866 5 22 8.13401 22 12H20ZM15 17C17.7614 17 20 14.7614 20 12H22C22 15.866 18.866 19 15 19V17ZM8 17H15V19H8V17ZM4 13C4 15.2091 5.79086 17 8 17V19C4.68629 19 2 16.3137 2 13H4ZM8 9C5.79086 9 4 10.7909 4 13H2C2 9.68629 4.68629 7 8 7V9ZM10.5278 9H8V7H10.5278V9Z" fill="#33363F"/>
<path d="M16.3177 17.8535C17.4213 17.6051 18.4321 17.0498 19.2337 16.2516C20.0352 15.4534 20.5948 14.4449 20.8479 13.3424C21.101 12.2399 21.0373 11.0884 20.6641 10.0205C20.2909 8.95268 19.6234 8.01208 18.7387 7.30723C17.854 6.60238 16.788 6.16198 15.6638 6.03683C14.5396 5.91169 13.4029 6.10689 12.3848 6.59993C11.3667 7.09297 10.5088 7.86375 9.9099 8.82338C9.31102 9.78301 8.99561 10.8924 9.00005 12.0236" stroke="#33363F" stroke-width="2"/>
</svg>
