<svg width="24" height="24" viewBox="0 0 24 24" fill="none" xmlns="http://www.w3.org/2000/svg">
<path d="M20 12L20.7809 11.3753L21.2806 12L20.7809 12.6247L20 12ZM16.7809 6.3753L20.7809 11.3753L19.2191 12.6247L15.2191 7.6247L16.7809 6.3753ZM20.7809 12.6247L16.7809 17.6247L15.2191 16.3753L19.2191 11.3753L20.7809 12.6247Z" fill="#33363F"/>
<path d="M4 12L3.21913 11.3753L2.71938 12L3.21913 12.6247L4 12ZM7.21913 6.3753L3.21913 11.3753L4.78087 12.6247L8.78087 7.6247L7.21913 6.3753ZM3.21913 12.6247L7.21913 17.6247L8.78087 16.3753L4.78087 11.3753L3.21913 12.6247Z" fill="#33363F"/>
</svg>
