<svg width="24" height="24" viewBox="0 0 24 24" fill="none" xmlns="http://www.w3.org/2000/svg">
<path d="M20 12L20.3904 11.6877L20.6403 12L20.3904 12.3123L20 12ZM16.3904 6.68765L20.3904 11.6877L19.6096 12.3123L15.6096 7.31235L16.3904 6.68765ZM20.3904 12.3123L16.3904 17.3123L15.6096 16.6877L19.6096 11.6877L20.3904 12.3123Z" fill="#222222"/>
<path d="M4 12L3.60957 11.6877L3.35969 12L3.60957 12.3123L4 12ZM7.60957 6.68765L3.60957 11.6877L4.39043 12.3123L8.39043 7.31235L7.60957 6.68765ZM3.60957 12.3123L7.60957 17.3123L8.39043 16.6877L4.39043 11.6877L3.60957 12.3123Z" fill="#222222"/>
</svg>
