<svg width="24" height="24" viewBox="0 0 24 24" fill="none" xmlns="http://www.w3.org/2000/svg">
<path d="M9 13L8.64645 12.6464L9 12.2929L9.35355 12.6464L9 13ZM9.5 22C9.5 22.2761 9.27614 22.5 9 22.5C8.72386 22.5 8.5 22.2761 8.5 22L9.5 22ZM3.64645 17.6464L8.64645 12.6464L9.35355 13.3536L4.35355 18.3536L3.64645 17.6464ZM9.35355 12.6464L14.3536 17.6464L13.6464 18.3536L8.64645 13.3536L9.35355 12.6464ZM9.5 13L9.5 22L8.5 22L8.5 13L9.5 13Z" fill="#222222"/>
<path d="M15 11L14.6464 11.3536L15 11.7071L15.3536 11.3536L15 11ZM15.5 2C15.5 1.72386 15.2761 1.5 15 1.5C14.7239 1.5 14.5 1.72386 14.5 2L15.5 2ZM9.64645 6.35355L14.6464 11.3536L15.3536 10.6464L10.3536 5.64645L9.64645 6.35355ZM15.3536 11.3536L20.3536 6.35355L19.6464 5.64645L14.6464 10.6464L15.3536 11.3536ZM15.5 11L15.5 2L14.5 2L14.5 11L15.5 11Z" fill="#222222"/>
</svg>
