<svg width="24" height="24" viewBox="0 0 24 24" fill="none" xmlns="http://www.w3.org/2000/svg">
<path d="M7.7619 18.5397L7.9263 19.5261L7.7619 18.5397ZM18.5397 7.7619L19.5261 7.9263L18.5397 7.7619ZM11.2274 6.29543L11.3918 7.28183L11.2274 6.29543ZM6.29543 11.2274L7.28183 11.3918L6.29543 11.2274ZM16.7182 12.6082L17.5533 7.5975L19.5261 7.9263L18.691 12.937L16.7182 12.6082ZM16.4025 6.44671L11.3918 7.28183L11.063 5.30904L16.0737 4.47392L16.4025 6.44671ZM7.28183 11.3918L6.44671 16.4025L4.47392 16.0737L5.30904 11.063L7.28183 11.3918ZM7.5975 17.5533L12.6082 16.7182L12.937 18.691L7.9263 19.5261L7.5975 17.5533ZM6.44671 16.4025C6.33391 17.0793 6.92068 17.6661 7.5975 17.5533L7.9263 19.5261C5.89584 19.8645 4.13551 18.1042 4.47392 16.0737L6.44671 16.4025ZM17.5533 7.5975C17.6661 6.92068 17.0793 6.33391 16.4025 6.44671L16.0737 4.47392C18.1042 4.13551 19.8645 5.89584 19.5261 7.9263L17.5533 7.5975ZM18.691 12.937C18.1992 15.8873 15.8873 18.1992 12.937 18.691L12.6082 16.7182C14.7156 16.3669 16.3669 14.7156 16.7182 12.6082L18.691 12.937ZM11.3918 7.28183C9.28444 7.63305 7.63305 9.28444 7.28183 11.3918L5.30904 11.063C5.80076 8.11269 8.11269 5.80076 11.063 5.30904L11.3918 7.28183Z" fill="#33363F"/>
<circle cx="12" cy="12" r="2" stroke="#33363F" stroke-width="2" stroke-linecap="round"/>
</svg>
