<svg width="24" height="24" viewBox="0 0 24 24" fill="none" xmlns="http://www.w3.org/2000/svg">
<circle cx="12" cy="12" r="9.5" stroke="#222222"/>
<path d="M8.54333 8.60832L10.492 13.4801C10.4971 13.4928 10.5072 13.5029 10.5199 13.508L15.3917 15.4567C15.4325 15.473 15.473 15.4325 15.4567 15.3917L13.508 10.5199C13.5029 10.5072 13.4928 10.4971 13.4801 10.492L8.60832 8.54333C8.56751 8.527 8.527 8.56751 8.54333 8.60832Z" stroke="#33363F" stroke-linecap="round"/>
<path d="M13.3536 11.3536C13.5488 11.1583 13.5488 10.8417 13.3536 10.6464C13.1583 10.4512 12.8417 10.4512 12.6464 10.6464L13.3536 11.3536ZM10.6464 12.6464C10.4512 12.8417 10.4512 13.1583 10.6464 13.3536C10.8417 13.5488 11.1583 13.5488 11.3536 13.3536L10.6464 12.6464ZM12.6464 10.6464L10.6464 12.6464L11.3536 13.3536L13.3536 11.3536L12.6464 10.6464Z" fill="#33363F"/>
<path d="M10.5 7.5V4.62071C10.5 4.57617 10.5539 4.55386 10.5854 4.58536L13.4146 7.41464C13.4461 7.44614 13.5 7.42383 13.5 7.37929V4.5" stroke="#33363F" stroke-linecap="round"/>
<path d="M13.5 17C13.7761 17 14 16.7761 14 16.5C14 16.2239 13.7761 16 13.5 16V17ZM10.5 19C10.2239 19 10 19.2239 10 19.5C10 19.7761 10.2239 20 10.5 20V19ZM13.5 16H11.0811V17H13.5V16ZM10.7393 18.1068L12.9445 18.8419L13.2607 17.8932L11.0555 17.1581L10.7393 18.1068ZM12.9189 19H10.5V20H12.9189V19ZM13 18.9189C13 18.9637 12.9637 19 12.9189 19V20C13.516 20 14 19.516 14 18.9189H13ZM12.9445 18.8419C12.9777 18.8529 13 18.8839 13 18.9189H14C14 18.4535 13.7022 18.0404 13.2607 17.8932L12.9445 18.8419ZM10 17.0811C10 17.5465 10.2978 17.9596 10.7393 18.1068L11.0555 17.1581C11.0223 17.1471 11 17.1161 11 17.0811H10ZM11.0811 16C10.484 16 10 16.484 10 17.0811H11C11 17.0363 11.0363 17 11.0811 17V16Z" fill="#33363F"/>
</svg>
