<svg width="24" height="24" viewBox="0 0 24 24" fill="none" xmlns="http://www.w3.org/2000/svg">
<path fill-rule="evenodd" clip-rule="evenodd" d="M12 21C16.9706 21 21 16.9706 21 12C21 7.02944 16.9706 3 12 3C7.02944 3 3 7.02944 3 12C3 16.9706 7.02944 21 12 21ZM13.7321 11C13.2953 10.2436 11.3861 8.908 10.287 8.17921C9.9534 7.95799 9.52282 8.20658 9.5476 8.60611C9.62922 9.92231 9.83124 12.2436 10.2679 13C10.7047 13.7564 12.6139 15.092 13.713 15.8208C14.0466 16.042 14.4772 15.7934 14.4524 15.3939C14.3708 14.0777 14.1688 11.7564 13.7321 11Z" fill="#2A4157" fill-opacity="0.24"/>
<path d="M10.287 8.17921L10.6186 7.67916L10.287 8.17921ZM13.7321 11L14.2517 10.7V10.7L13.7321 11ZM9.5476 8.60611L8.94875 8.64325V8.64325L9.5476 8.60611ZM10.2679 13L9.74833 13.3L10.2679 13ZM13.713 15.8208L14.0446 15.3207H14.0446L13.713 15.8208ZM14.4524 15.3939L13.8536 15.431V15.431L14.4524 15.3939ZM20.4 12C20.4 16.6392 16.6392 20.4 12 20.4V21.6C17.3019 21.6 21.6 17.3019 21.6 12H20.4ZM12 3.6C16.6392 3.6 20.4 7.36081 20.4 12H21.6C21.6 6.69807 17.3019 2.4 12 2.4V3.6ZM3.6 12C3.6 7.36081 7.36081 3.6 12 3.6V2.4C6.69807 2.4 2.4 6.69807 2.4 12H3.6ZM12 20.4C7.36081 20.4 3.6 16.6392 3.6 12H2.4C2.4 17.3019 6.69807 21.6 12 21.6V20.4ZM9.95542 8.67926C10.4998 9.04022 11.2378 9.54692 11.89 10.0532C12.2164 10.3066 12.514 10.5542 12.7524 10.7791C13.0002 11.0128 13.1486 11.1893 13.2124 11.3L14.2517 10.7C14.0972 10.4325 13.8432 10.1584 13.5758 9.90617C13.299 9.64512 12.9687 9.37148 12.6258 9.10529C11.9395 8.57248 11.1733 8.04699 10.6186 7.67916L9.95542 8.67926ZM10.1464 8.56897C10.1473 8.58304 10.144 8.60632 10.1307 8.63037C10.1184 8.65253 10.1013 8.66888 10.0829 8.6795C10.0645 8.69011 10.0418 8.69676 10.0165 8.69631C9.98899 8.69581 9.96717 8.68705 9.95542 8.67926L10.6186 7.67916C9.872 7.18409 8.8933 7.74915 8.94875 8.64325L10.1464 8.56897ZM10.7876 12.7C10.7237 12.5893 10.645 12.3726 10.5665 12.0411C10.4909 11.7222 10.4253 11.3407 10.369 10.9313C10.2567 10.1134 10.1869 9.22086 10.1464 8.56897L8.94875 8.64325C8.98994 9.30756 9.06196 10.2338 9.1802 11.0946C9.23927 11.5247 9.31109 11.9476 9.3988 12.3178C9.48353 12.6754 9.59387 13.0325 9.74833 13.3L10.7876 12.7ZM14.0446 15.3207C13.5002 14.9598 12.7622 14.4531 12.11 13.9468C11.7836 13.6934 11.486 13.4458 11.2476 13.2209C10.9998 12.9872 10.8514 12.8107 10.7876 12.7L9.74833 13.3C9.9028 13.5675 10.1568 13.8416 10.4242 14.0938C10.701 14.3549 11.0313 14.6285 11.3742 14.8947C12.0605 15.4275 12.8267 15.953 13.3814 16.3208L14.0446 15.3207ZM13.8536 15.431C13.8527 15.417 13.856 15.3937 13.8693 15.3696C13.8816 15.3475 13.8987 15.3311 13.9171 15.3205C13.9355 15.3099 13.9582 15.3032 13.9835 15.3037C14.011 15.3042 14.0328 15.3129 14.0446 15.3207L13.3814 16.3208C14.128 16.8159 15.1067 16.2509 15.0513 15.3568L13.8536 15.431ZM13.2124 11.3C13.2763 11.4107 13.355 11.6274 13.4335 11.9589C13.5091 12.2778 13.5747 12.6593 13.631 13.0687C13.7433 13.8866 13.8131 14.7791 13.8536 15.431L15.0513 15.3568C15.0101 14.6924 14.938 13.7662 14.8198 12.9054C14.7607 12.4753 14.6889 12.0524 14.6012 11.6822C14.5165 11.3246 14.4061 10.9675 14.2517 10.7L13.2124 11.3Z" fill="#222222"/>
</svg>
