<svg width="24" height="24" viewBox="0 0 24 24" fill="none" xmlns="http://www.w3.org/2000/svg">
<path d="M7.7619 18.5397L7.8441 19.0329L7.7619 18.5397ZM18.5397 7.7619L19.0329 7.8441L18.5397 7.7619ZM11.2274 6.29543L11.3096 6.78863L11.2274 6.29543ZM6.29543 11.2274L6.78863 11.3096L6.29543 11.2274ZM17.2114 12.6904L18.0465 7.6797L19.0329 7.8441L18.1978 12.8548L17.2114 12.6904ZM16.3203 5.95351L11.3096 6.78863L11.1452 5.80224L16.1559 4.96712L16.3203 5.95351ZM6.78863 11.3096L5.95351 16.3203L4.96712 16.1559L5.80224 11.1452L6.78863 11.3096ZM7.6797 18.0465L12.6904 17.2114L12.8548 18.1978L7.8441 19.0329L7.6797 18.0465ZM5.95351 16.3203C5.78431 17.3355 6.66447 18.2157 7.6797 18.0465L7.8441 19.0329C6.15205 19.3149 4.68511 17.848 4.96712 16.1559L5.95351 16.3203ZM18.0465 7.6797C18.2157 6.66447 17.3355 5.78431 16.3203 5.95351L16.1559 4.96712C17.848 4.68511 19.3149 6.15205 19.0329 7.8441L18.0465 7.6797ZM18.1978 12.8548C17.7412 15.5944 15.5944 17.7412 12.8548 18.1978L12.6904 17.2114C15.0085 16.825 16.825 15.0085 17.2114 12.6904L18.1978 12.8548ZM11.3096 6.78863C8.9915 7.17498 7.17498 8.9915 6.78863 11.3096L5.80224 11.1452C6.25883 8.40563 8.40563 6.25883 11.1452 5.80224L11.3096 6.78863Z" fill="#33363F"/>
<circle cx="12" cy="12" r="2.5" stroke="#33363F" stroke-linecap="round"/>
</svg>
