<svg width="24" height="24" viewBox="0 0 24 24" fill="none" xmlns="http://www.w3.org/2000/svg">
<path d="M15 3H9C6.79086 3 5 4.79086 5 7V15" stroke="#222222"/>
<path d="M8.5 11.5C8.5 10.3156 8.50074 9.46912 8.57435 8.81625C8.64681 8.17346 8.78457 7.78051 9.01662 7.4781C9.14962 7.30477 9.30477 7.14962 9.4781 7.01662C9.78051 6.78457 10.1735 6.64681 10.8163 6.57435C11.4691 6.50074 12.3156 6.5 13.5 6.5C14.6844 6.5 15.5309 6.50074 16.1837 6.57435C16.8265 6.64681 17.2195 6.78457 17.5219 7.01662C17.6952 7.14962 17.8504 7.30477 17.9834 7.4781C18.2154 7.78051 18.3532 8.17346 18.4257 8.81625C18.4993 9.46912 18.5 10.3156 18.5 11.5V15.5C18.5 16.6844 18.4993 17.5309 18.4257 18.1837C18.3532 18.8265 18.2154 19.2195 17.9834 19.5219C17.8504 19.6952 17.6952 19.8504 17.5219 19.9834C17.2195 20.2154 16.8265 20.3532 16.1837 20.4257C15.5309 20.4993 14.6844 20.5 13.5 20.5C12.3156 20.5 11.4691 20.4993 10.8163 20.4257C10.1735 20.3532 9.78051 20.2154 9.4781 19.9834C9.30477 19.8504 9.14962 19.6952 9.01662 19.5219C8.78457 19.2195 8.64681 18.8265 8.57435 18.1837C8.50074 17.5309 8.5 16.6844 8.5 15.5V11.5Z" stroke="#222222"/>
</svg>
