<svg width="24" height="24" viewBox="0 0 24 24" fill="none" xmlns="http://www.w3.org/2000/svg">
<path d="M6.5 3.5H17.5C18.0523 3.5 18.5 3.94772 18.5 4.5V19.5C18.5 20.0523 18.0523 20.5 17.5 20.5H6.5C5.94772 20.5 5.5 20.0523 5.5 19.5V4.5C5.5 3.94772 5.94772 3.5 6.5 3.5Z" stroke="#33363F" stroke-linecap="round" stroke-linejoin="round"/>
<path d="M15.7858 7.98564L16.2228 8.22846L15.7858 7.98564ZM17.5629 3.75718L15.3487 7.74282L16.2228 8.22846L18.4371 4.24282L17.5629 3.75718ZM14.9116 8H9.0884V9H14.9116V8ZM8.65132 7.74282L6.43708 3.75718L5.56292 4.24282L7.77717 8.22846L8.65132 7.74282ZM9.0884 8C8.90682 8 8.73951 7.90155 8.65132 7.74282L7.77717 8.22846C8.04172 8.70466 8.54365 9 9.0884 9V8ZM15.3487 7.74282C15.2605 7.90155 15.0932 8 14.9116 8V9C15.4563 9 15.9583 8.70466 16.2228 8.22846L15.3487 7.74282Z" fill="#33363F"/>
<path d="M15.7858 16.0144L16.2228 15.7715L15.7858 16.0144ZM17.5629 20.2428L15.3487 16.2572L16.2228 15.7715L18.4371 19.7572L17.5629 20.2428ZM14.9116 16H9.0884V15H14.9116V16ZM8.65132 16.2572L6.43708 20.2428L5.56292 19.7572L7.77717 15.7715L8.65132 16.2572ZM9.0884 16C8.90682 16 8.73951 16.0984 8.65132 16.2572L7.77717 15.7715C8.04172 15.2953 8.54365 15 9.0884 15V16ZM15.3487 16.2572C15.2605 16.0984 15.0932 16 14.9116 16V15C15.4563 15 15.9583 15.2953 16.2228 15.7715L15.3487 16.2572Z" fill="#33363F"/>
<path d="M12 12.5V15.5" stroke="#33363F" stroke-linecap="round" stroke-linejoin="round"/>
</svg>
