<svg width="24" height="24" viewBox="0 0 24 24" fill="none" xmlns="http://www.w3.org/2000/svg">
<path d="M6 3H18C18.5523 3 19 3.44772 19 4V20C19 20.5523 18.5523 21 18 21H6C5.44772 21 5 20.5523 5 20V4C5 3.44772 5.44772 3 6 3Z" stroke="#33363F" stroke-width="2" stroke-linecap="round" stroke-linejoin="round"/>
<path d="M15.3002 7.6247L14.5194 7L15.3002 7.6247ZM18.2191 2.3753L14.5194 7L16.0811 8.24939L19.7809 3.6247L18.2191 2.3753ZM14.5194 7H9.48062V9H14.5194V7ZM9.48062 7L5.78087 2.3753L4.21913 3.6247L7.91889 8.24939L9.48062 7ZM9.48062 7L7.91889 8.24939C8.29843 8.72382 8.87306 9 9.48062 9V7ZM14.5194 7V9C15.1269 9 15.7016 8.72382 16.0811 8.24939L14.5194 7Z" fill="#33363F"/>
<path d="M15.3002 16.3753L14.5194 17L15.3002 16.3753ZM18.2191 21.6247L14.5194 17L16.0811 15.7506L19.7809 20.3753L18.2191 21.6247ZM14.5194 17H9.48062V15H14.5194V17ZM9.48062 17L5.78087 21.6247L4.21913 20.3753L7.91889 15.7506L9.48062 17ZM9.48062 17L7.91889 15.7506C8.29843 15.2762 8.87306 15 9.48062 15V17ZM14.5194 17V15C15.1269 15 15.7016 15.2762 16.0811 15.7506L14.5194 17Z" fill="#33363F"/>
<path d="M12 13V16" stroke="#33363F" stroke-width="2" stroke-linecap="round" stroke-linejoin="round"/>
</svg>
