<svg width="24" height="24" viewBox="0 0 24 24" fill="none" xmlns="http://www.w3.org/2000/svg">
<path fill-rule="evenodd" clip-rule="evenodd" d="M18.5207 10.186C18.6221 10.0845 18.7883 10.0889 18.8809 10.1986C20.1907 11.7522 20.9398 13.7085 20.9965 15.7498C21.0003 15.8878 20.8881 15.9998 20.75 15.9998H16.2449C16.1069 15.9998 15.9957 15.8878 15.9871 15.75C15.9415 15.0221 15.6977 14.3235 15.2864 13.7284C15.2147 13.6247 15.2229 13.4838 15.3119 13.3947L18.5207 10.186ZM17.8008 9.11866C17.9106 9.21118 17.915 9.37738 17.8135 9.47887L14.6048 12.6876C14.5157 12.7767 14.3747 12.7848 14.2711 12.7132C13.8049 12.3911 13.2753 12.1717 12.7178 12.0699C12.5939 12.0473 12.5 11.9418 12.5 11.8158V7.278C12.5 7.13447 12.6206 7.02009 12.7636 7.03226C14.6177 7.19008 16.3782 7.91926 17.8008 9.11866ZM11.5 7.278C11.5 7.13447 11.3793 7.02009 11.2363 7.03226C9.38222 7.19008 7.62177 7.91926 6.1991 9.11868C6.08937 9.21119 6.08493 9.3774 6.18642 9.47888L9.39518 12.6876C9.48425 12.7767 9.62522 12.7848 9.72886 12.7132C10.195 12.3911 10.7247 12.1717 11.2821 12.0699C11.4061 12.0473 11.5 11.9418 11.5 11.8158V7.278ZM8.71361 13.7284C8.78524 13.6247 8.7771 13.4838 8.68802 13.3947L5.47929 10.186C5.37781 10.0845 5.21161 10.0889 5.11909 10.1986C3.80923 11.7522 3.06012 13.7085 3.00345 15.7498C2.99962 15.8878 3.11191 15.9998 3.24998 15.9998H7.75504C7.89311 15.9998 8.00422 15.8878 8.01285 15.75C8.05843 15.0221 8.30226 14.3235 8.71361 13.7284Z" fill="#2A4157" fill-opacity="0.24"/>
<path fill-rule="evenodd" clip-rule="evenodd" d="M12.5 11.8056C12.5 11.9316 12.594 12.0371 12.7179 12.0597C13.278 12.1617 13.8101 12.3821 14.2782 12.706C14.3819 12.7776 14.5229 12.7695 14.612 12.6804L18.5228 8.76961C18.6239 8.66851 18.6199 8.5031 18.5114 8.41C16.8974 7.02517 14.8828 6.19071 12.7623 6.02867C12.6198 6.01778 12.5 6.13194 12.5 6.27491V11.8056Z" fill="#222222"/>
</svg>
