<svg width="24" height="24" viewBox="0 0 24 24" fill="none" xmlns="http://www.w3.org/2000/svg">
<path fill-rule="evenodd" clip-rule="evenodd" d="M18.5207 10.186C18.6222 10.0845 18.7884 10.0889 18.8809 10.1986C20.1908 11.7522 20.9399 13.7085 20.9966 15.7498C21.0004 15.8878 20.8881 15.9998 20.75 15.9998H16.245C16.1069 15.9998 15.9958 15.8878 15.9872 15.75C15.9416 15.0221 15.6978 14.3235 15.2864 13.7284C15.2148 13.6247 15.2229 13.4838 15.312 13.3947L18.5207 10.186ZM17.8009 9.11866C17.9106 9.21118 17.9151 9.37738 17.8136 9.47887L14.6048 12.6876C14.5158 12.7767 14.3748 12.7848 14.2712 12.7132C13.805 12.3911 13.2753 12.1717 12.7179 12.0699C12.594 12.0473 12.5 11.9418 12.5 11.8158V7.278C12.5 7.13447 12.6207 7.02009 12.7637 7.03226C14.6178 7.19008 16.3782 7.91926 17.8009 9.11866ZM11.5 7.278C11.5 7.13447 11.3794 7.02009 11.2364 7.03226C9.38228 7.19008 7.62183 7.91926 6.19917 9.11868C6.08943 9.21119 6.08499 9.3774 6.18648 9.47888L9.39524 12.6876C9.48431 12.7767 9.62528 12.7848 9.72892 12.7132C10.1951 12.3911 10.7247 12.1717 11.2822 12.0699C11.4061 12.0473 11.5 11.9418 11.5 11.8158V7.278ZM8.71367 13.7284C8.7853 13.6247 8.77716 13.4838 8.68808 13.3947L5.47935 10.186C5.37787 10.0845 5.21167 10.0889 5.11915 10.1986C3.80929 11.7522 3.06018 13.7085 3.00351 15.7498C2.99968 15.8878 3.11197 15.9998 3.25004 15.9998H7.7551C7.89317 15.9998 8.00429 15.8878 8.01292 15.75C8.05849 15.0221 8.30232 14.3235 8.71367 13.7284Z" fill="#2A4157" fill-opacity="0.24"/>
<path fill-rule="evenodd" clip-rule="evenodd" d="M12.5 11.8158C12.5 11.9418 12.5939 12.0473 12.7179 12.0699C13.2753 12.1717 13.8049 12.3911 14.2711 12.7132C14.3748 12.7848 14.5157 12.7767 14.6048 12.6876L17.8135 9.47887C17.915 9.37738 17.9106 9.21118 17.8009 9.11866C16.3782 7.91926 14.6178 7.19008 12.7637 7.03226C12.6207 7.02009 12.5 7.13447 12.5 7.278V11.8158Z" fill="#222222"/>
</svg>
