<svg width="24" height="24" viewBox="0 0 24 24" fill="none" xmlns="http://www.w3.org/2000/svg">
<path fill-rule="evenodd" clip-rule="evenodd" d="M20.9445 15.002C21.0058 15.5509 20.5523 16 20 16H16.9949C16.4427 16 16.0073 15.5455 15.8704 15.0104C15.7353 14.4818 15.4927 13.9845 15.1561 13.5508L18.7076 9.99928C19.9577 11.3965 20.7376 13.1468 20.9445 15.002ZM18.0004 9.29219C16.4788 7.93089 14.5386 7.12726 12.5 7.01392V12.0365C13.2101 12.126 13.8835 12.4049 14.4489 12.8437L18.0004 9.29219ZM9.55107 12.8437C10.1165 12.4049 10.7899 12.126 11.5 12.0365V7.01392C9.46143 7.12726 7.52123 7.9309 5.99956 9.2922L9.55107 12.8437ZM5.29244 9.9993C4.04232 11.3966 3.26243 13.1468 3.05548 15.002C2.99425 15.5509 3.44772 16 4 16H7.00506C7.55735 16 7.99274 15.5455 8.12956 15.0104C8.26474 14.4818 8.5073 13.9845 8.84393 13.5508L5.29244 9.9993Z" fill="#222222"/>
</svg>
