<svg width="24" height="24" viewBox="0 0 24 24" fill="none" xmlns="http://www.w3.org/2000/svg">
<path fill-rule="evenodd" clip-rule="evenodd" d="M20 9.70443C19.5463 10.0634 19.0503 10.3678 18.5513 10.6173C16.7096 11.5381 14.3521 12 12 12C9.64787 12 7.29044 11.5381 5.44872 10.6173C4.94966 10.3678 4.45372 10.0634 4 9.70443V12C4 13.0575 4.83807 14.0759 6.34315 14.8284C7.84341 15.5786 9.87823 16 12 16C14.1218 16 16.1566 15.5786 17.6569 14.8284C19.1619 14.0759 20 13.0575 20 12V9.70443ZM20 15.7044C19.5463 16.0634 19.0503 16.3678 18.5513 16.6173C16.7096 17.5381 14.3521 18 12 18C9.64787 18 7.29044 17.5381 5.44872 16.6173C4.94966 16.3678 4.45372 16.0634 4 15.7044V18C4 20.2091 7.58172 22 12 22C16.4183 22 20 20.2091 20 18V15.7044ZM20 6C20 3.79086 16.4183 2 12 2C7.58172 2 4 3.79086 4 6C4 7.0575 4.83807 8.07589 6.34315 8.82843C7.84341 9.57856 9.87823 10 12 10C14.1218 10 16.1566 9.57856 17.6569 8.82843C19.1619 8.07589 20 7.0575 20 6Z" fill="#222222"/>
</svg>
