<svg width="24" height="24" viewBox="0 0 24 24" fill="none" xmlns="http://www.w3.org/2000/svg">
<path d="M2 9C2 7.11438 2 6.17157 2.58579 5.58579C3.17157 5 4.11438 5 6 5H18C19.8856 5 20.8284 5 21.4142 5.58579C22 6.17157 22 7.11438 22 9C22 9.4714 22 9.70711 21.8536 9.85355C21.7071 10 21.4714 10 21 10H3C2.5286 10 2.29289 10 2.14645 9.85355C2 9.70711 2 9.4714 2 9Z" fill="#222222"/>
<path fill-rule="evenodd" clip-rule="evenodd" d="M2 18C2 19.8856 2 20.8284 2.58579 21.4142C3.17157 22 4.11438 22 6 22H18C19.8856 22 20.8284 22 21.4142 21.4142C22 20.8284 22 19.8856 22 18V13C22 12.5286 22 12.2929 21.8536 12.1464C21.7071 12 21.4714 12 21 12H3C2.5286 12 2.29289 12 2.14645 12.1464C2 12.2929 2 12.5286 2 13V18ZM7 15C7 14.5286 7 14.2929 7.14645 14.1464C7.29289 14 7.5286 14 8 14H10C10.4714 14 10.7071 14 10.8536 14.1464C11 14.2929 11 14.5286 11 15C11 15.4714 11 15.7071 10.8536 15.8536C10.7071 16 10.4714 16 10 16H8C7.5286 16 7.29289 16 7.14645 15.8536C7 15.7071 7 15.4714 7 15ZM7.14645 18.1464C7 18.2929 7 18.5286 7 19C7 19.4714 7 19.7071 7.14645 19.8536C7.29289 20 7.5286 20 8 20H10C10.4714 20 10.7071 20 10.8536 19.8536C11 19.7071 11 19.4714 11 19C11 18.5286 11 18.2929 10.8536 18.1464C10.7071 18 10.4714 18 10 18H8C7.5286 18 7.29289 18 7.14645 18.1464ZM13 15C13 14.5286 13 14.2929 13.1464 14.1464C13.2929 14 13.5286 14 14 14H16C16.4714 14 16.7071 14 16.8536 14.1464C17 14.2929 17 14.5286 17 15C17 15.4714 17 15.7071 16.8536 15.8536C16.7071 16 16.4714 16 16 16H14C13.5286 16 13.2929 16 13.1464 15.8536C13 15.7071 13 15.4714 13 15ZM13.1464 18.1464C13 18.2929 13 18.5286 13 19C13 19.4714 13 19.7071 13.1464 19.8536C13.2929 20 13.5286 20 14 20H16C16.4714 20 16.7071 20 16.8536 19.8536C17 19.7071 17 19.4714 17 19C17 18.5286 17 18.2929 16.8536 18.1464C16.7071 18 16.4714 18 16 18H14C13.5286 18 13.2929 18 13.1464 18.1464Z" fill="#222222"/>
<path d="M7 3L7 6" stroke="#222222" stroke-width="2" stroke-linecap="round"/>
<path d="M17 3L17 6" stroke="#222222" stroke-width="2" stroke-linecap="round"/>
</svg>
