<svg width="24" height="24" viewBox="0 0 24 24" fill="none" xmlns="http://www.w3.org/2000/svg">
<path d="M17.0038 17.9792L18.7155 8.56456C18.8322 7.9227 18.8906 7.60178 18.7282 7.51633C18.5659 7.43088 18.3344 7.66067 17.8714 8.12025L16.985 9L12 10L6.99621 9L6.13263 8.13478C5.66847 7.66974 5.43639 7.43722 5.27345 7.5225C5.1105 7.60778 5.16927 7.931 5.28681 8.57744L6.99621 17.9792C6.99868 17.9927 7.00522 18.0052 7.01497 18.015C9.76813 20.7681 14.2319 20.7681 16.985 18.015C16.9948 18.0052 17.0013 17.9927 17.0038 17.9792Z" fill="#2A4157" fill-opacity="0.24"/>
<ellipse cx="12" cy="7" rx="7" ry="3" stroke="#222222" stroke-width="1.2" stroke-linecap="round"/>
<path d="M5 7L6.99621 17.9792C6.99868 17.9927 7.00522 18.0052 7.01497 18.015V18.015C9.76813 20.7681 14.2319 20.7681 16.985 18.015V18.015C16.9948 18.0052 17.0013 17.9927 17.0038 17.9792L19 7" stroke="#222222" stroke-width="1.2" stroke-linecap="round"/>
</svg>
