<svg width="24" height="24" viewBox="0 0 24 24" fill="none" xmlns="http://www.w3.org/2000/svg">
<path d="M3.5 8C3.5 7.04306 3.50106 6.37565 3.56876 5.87208C3.63453 5.3829 3.75483 5.12385 3.93934 4.93934C4.12385 4.75483 4.3829 4.63453 4.87208 4.56876C5.37565 4.50106 6.04306 4.5 7 4.5H17C17.9569 4.5 18.6244 4.50106 19.1279 4.56876C19.6171 4.63453 19.8762 4.75483 20.0607 4.93934C20.2452 5.12385 20.3655 5.3829 20.4312 5.87208C20.4989 6.37565 20.5 7.04306 20.5 8V16.5H3.5V8Z" stroke="#222222"/>
<path d="M3.66667 16.5C3.02233 16.5 2.5 17.0223 2.5 17.6667C2.5 18.6792 3.32081 19.5 4.33333 19.5H19.6667C20.6792 19.5 21.5 18.6792 21.5 17.6667C21.5 17.0223 20.9777 16.5 20.3333 16.5H3.66667Z" stroke="#222222"/>
</svg>
