<svg width="24" height="24" viewBox="0 0 24 24" fill="none" xmlns="http://www.w3.org/2000/svg">
<path d="M19 18V8.5C19 7.09554 19 6.39331 18.6629 5.88886C18.517 5.67048 18.3295 5.48298 18.1111 5.33706C17.9364 5.22033 17.738 5.14403 17.4949 5.09415C16.7502 4.94135 16.3779 4.86495 15.8353 5.07073C15.2926 5.27651 14.9617 5.71767 14.3 6.6L14 7H10L9.7 6.6C9.03825 5.71767 8.70738 5.27651 8.16474 5.07073C7.6221 4.86495 7.24975 4.94135 6.50507 5.09415C6.26198 5.14403 6.06356 5.22033 5.88886 5.33706C5.67048 5.48298 5.48298 5.67048 5.33706 5.88886C5 6.39331 5 7.09554 5 8.5V18C5 19.8856 5 20.8284 5.58579 21.4142C6.17157 22 7.11438 22 9 22H15C16.8856 22 17.8284 22 18.4142 21.4142C19 20.8284 19 19.8856 19 18Z" fill="#2A4157" fill-opacity="0.24"/>
<path d="M15.5 5C16.9045 5 17.6067 5 18.1111 5.33706C18.3295 5.48298 18.517 5.67048 18.6629 5.88886C19 6.39331 19 7.09554 19 8.5V18C19 19.8856 19 20.8284 18.4142 21.4142C17.8284 22 16.8856 22 15 22H9C7.11438 22 6.17157 22 5.58579 21.4142C5 20.8284 5 19.8856 5 18V8.5C5 7.09554 5 6.39331 5.33706 5.88886C5.48298 5.67048 5.67048 5.48298 5.88886 5.33706C6.39331 5 7.09554 5 8.5 5" stroke="#222222" stroke-width="1.2"/>
<path d="M9 5C9 3.89543 9.89543 3 11 3H13C14.1046 3 15 3.89543 15 5C15 6.10457 14.1046 7 13 7H11C9.89543 7 9 6.10457 9 5Z" stroke="#222222" stroke-width="1.2"/>
<path d="M9 12L15 12" stroke="#222222" stroke-width="1.2" stroke-linecap="round"/>
<path d="M9 16L13 16" stroke="#222222" stroke-width="1.2" stroke-linecap="round"/>
</svg>
