<svg width="24" height="24" viewBox="0 0 24 24" fill="none" xmlns="http://www.w3.org/2000/svg">
<path d="M15.5 5C16.9045 5 17.6067 5 18.1111 5.33706C18.3295 5.48298 18.517 5.67048 18.6629 5.88886C19 6.39331 19 7.09554 19 8.5V18C19 19.8856 19 20.8284 18.4142 21.4142C17.8284 22 16.8856 22 15 22H9C7.11438 22 6.17157 22 5.58579 21.4142C5 20.8284 5 19.8856 5 18V8.5C5 7.09554 5 6.39331 5.33706 5.88886C5.48298 5.67048 5.67048 5.48298 5.88886 5.33706C6.39331 5 7.09554 5 8.5 5" stroke="#33363F" stroke-width="2"/>
<path d="M9 5C9 3.89543 9.89543 3 11 3H13C14.1046 3 15 3.89543 15 5C15 6.10457 14.1046 7 13 7H11C9.89543 7 9 6.10457 9 5Z" stroke="#33363F" stroke-width="2"/>
<path d="M9 12L15 12" stroke="#33363F" stroke-width="2" stroke-linecap="round"/>
<path d="M9 16L13 16" stroke="#33363F" stroke-width="2" stroke-linecap="round"/>
</svg>
