<svg width="24" height="24" viewBox="0 0 24 24" fill="none" xmlns="http://www.w3.org/2000/svg">
<path fill-rule="evenodd" clip-rule="evenodd" d="M8.60752 3H8.01715C6.56494 3 5.83883 3 5.30416 3.4033C4.76949 3.80661 4.57001 4.50478 4.17106 5.90112L3.57138 8H7.67002L8.60752 3ZM3.11731 9.92418C3.11961 9.94086 3.12246 9.95744 3.12588 9.97399C3.1756 10.2147 3.33791 10.4131 3.66253 10.8098L3.66254 10.8098L9.40843 17.8326L7.69505 10H3.49995C3.36441 10 3.23518 9.97304 3.11731 9.92418ZM14.5915 17.8326L20.3374 10.8098C20.662 10.4131 20.8243 10.2147 20.874 9.97399C20.8774 9.95744 20.8803 9.94086 20.8826 9.92418C20.7647 9.97304 20.6355 10 20.4999 10H16.3048L14.5915 17.8326ZM20.4285 8L19.8288 5.90112C19.4299 4.50478 19.2304 3.80661 18.6957 3.4033C18.1611 3 17.435 3 15.9827 3H15.3924L16.3299 8H20.4285ZM13.3575 3H10.6424L9.70487 8H14.295L13.3575 3ZM11.9999 20.3205L9.74234 10H14.2576L11.9999 20.3205Z" fill="#222222"/>
</svg>
