<svg width="24" height="24" viewBox="0 0 24 24" fill="none" xmlns="http://www.w3.org/2000/svg">
<path d="M12 20L4.6797 10.8496C4.34718 10.434 4.18092 10.2262 4.13625 9.9757C4.09159 9.72524 4.17575 9.47276 4.34407 8.96778L5.0883 6.73509C5.52832 5.41505 5.74832 4.75503 6.2721 4.37752C6.79587 4 7.49159 4 8.88304 4H15.117C16.5084 4 17.2041 4 17.7279 4.37752C18.2517 4.75503 18.4717 5.41505 18.9117 6.73509L19.6559 8.96778C19.8243 9.47276 19.9084 9.72524 19.8637 9.9757C19.8191 10.2262 19.6528 10.434 19.3203 10.8496L12 20ZM12 20L15.5 9M12 20L8.5 9M19.5 10L15.5 9M15.5 9L14 5M15.5 9H8.5M10 5L8.5 9M8.5 9L4.5 10" stroke="#222222" stroke-linecap="round"/>
</svg>
