<svg width="24" height="24" viewBox="0 0 24 24" fill="none" xmlns="http://www.w3.org/2000/svg">
<path d="M16 18.5H18.3C19.4201 18.5 19.9802 18.5 20.408 18.282C20.7843 18.0903 21.0903 17.7843 21.282 17.408C21.5 16.9802 21.5 16.4201 21.5 15.3V8.7C21.5 7.57989 21.5 7.01984 21.282 6.59202C21.0903 6.21569 20.7843 5.90973 20.408 5.71799C19.9802 5.5 19.4201 5.5 18.3 5.5H5.7C4.5799 5.5 4.01984 5.5 3.59202 5.71799C3.21569 5.90973 2.90973 6.21569 2.71799 6.59202C2.5 7.01984 2.5 7.57989 2.5 8.7V15.3C2.5 16.4201 2.5 16.9802 2.71799 17.408C2.90973 17.7843 3.21569 18.0903 3.59202 18.282C4.01984 18.5 4.57989 18.5 5.7 18.5H8" stroke="#33363F" stroke-linecap="round"/>
<path d="M6.5 9.5V9C6.22386 9 6 9.22386 6 9.5H6.5ZM8.5 10C8.77614 10 9 9.77614 9 9.5C9 9.22386 8.77614 9 8.5 9V10ZM6 11.5C6 11.7761 6.22386 12 6.5 12C6.77614 12 7 11.7761 7 11.5H6ZM11.5 18C11.5 18.2761 11.7239 18.5 12 18.5C12.2761 18.5 12.5 18.2761 12.5 18H11.5ZM11.4749 13.7678L6.85355 9.14645L6.14645 9.85355L10.7678 14.4749L11.4749 13.7678ZM6.5 10H8.5V9H6.5V10ZM6 9.5V11.5H7V9.5H6ZM11.5 16.2426V18H12.5V16.2426H11.5ZM10.7678 14.4749C11.2366 14.9437 11.5 15.5796 11.5 16.2426H12.5C12.5 15.3144 12.1313 14.4241 11.4749 13.7678L10.7678 14.4749Z" fill="#33363F"/>
<path d="M17.5 9.5V9C17.7761 9 18 9.22386 18 9.5H17.5ZM15.5 10C15.2239 10 15 9.77614 15 9.5C15 9.22386 15.2239 9 15.5 9V10ZM18 11.5C18 11.7761 17.7761 12 17.5 12C17.2239 12 17 11.7761 17 11.5H18ZM12.5 20C12.5 20.2761 12.2761 20.5 12 20.5C11.7239 20.5 11.5 20.2761 11.5 20H12.5ZM12.5251 13.7678L17.1464 9.14645L17.8536 9.85355L13.2322 14.4749L12.5251 13.7678ZM17.5 10H15.5V9H17.5V10ZM18 9.5V11.5H17V9.5H18ZM12.5 16.2426V20H11.5V16.2426H12.5ZM13.2322 14.4749C12.7634 14.9437 12.5 15.5796 12.5 16.2426H11.5C11.5 15.3144 11.8687 14.4241 12.5251 13.7678L13.2322 14.4749Z" fill="#33363F"/>
</svg>
