<svg width="24" height="24" viewBox="0 0 24 24" fill="none" xmlns="http://www.w3.org/2000/svg">
<path d="M17.5 9L18.3 8.4L18.75 9L18.3 9.6L17.5 9ZM15.2 7.6C14.8686 7.15817 14.9582 6.53137 15.4 6.2C15.8418 5.86863 16.4686 5.95817 16.8 6.4L15.2 7.6ZM16.8 11.6C16.4686 12.0418 15.8418 12.1314 15.4 11.8C14.9582 11.4686 14.8686 10.8418 15.2 10.4L16.8 11.6ZM13 16C13 16.5523 12.5523 17 12 17C11.4477 17 11 16.5523 11 16H13ZM15 8H17.5V10H15V8ZM16.7 9.6L15.2 7.6L16.8 6.4L18.3 8.4L16.7 9.6ZM18.3 9.6L16.8 11.6L15.2 10.4L16.7 8.4L18.3 9.6ZM13 12V16H11V12H13ZM15 10C13.8954 10 13 10.8954 13 12H11C11 9.79086 12.7908 8 15 8V10Z" fill="#33363F"/>
<path d="M6.5 9L5.7 8.4L5.25 9L5.7 9.6L6.5 9ZM8.8 7.6C9.13137 7.15817 9.04183 6.53137 8.6 6.2C8.15817 5.86863 7.53137 5.95817 7.2 6.4L8.8 7.6ZM7.2 11.6C7.53137 12.0418 8.15817 12.1314 8.6 11.8C9.04183 11.4686 9.13137 10.8418 8.8 10.4L7.2 11.6ZM11 16C11 16.5523 11.4477 17 12 17C12.5523 17 13 16.5523 13 16H11ZM9.00002 8H6.5V10H9.00002V8ZM7.3 9.6L8.8 7.6L7.2 6.4L5.7 8.4L7.3 9.6ZM5.7 9.6L7.2 11.6L8.8 10.4L7.3 8.4L5.7 9.6ZM11 12V16H13V12H11ZM9.00002 10C10.1046 10 11 10.8954 11 12H13C13 9.79086 11.2092 8 9.00002 8V10Z" fill="#33363F"/>
<path d="M3 7.8C3 6.11984 3 5.27976 3.32698 4.63803C3.6146 4.07354 4.07354 3.6146 4.63803 3.32698C5.27976 3 6.11984 3 7.8 3H16.2C17.8802 3 18.7202 3 19.362 3.32698C19.9265 3.6146 20.3854 4.07354 20.673 4.63803C21 5.27976 21 6.11984 21 7.8V16.2C21 17.8802 21 18.7202 20.673 19.362C20.3854 19.9265 19.9265 20.3854 19.362 20.673C18.7202 21 17.8802 21 16.2 21H7.8C6.11984 21 5.27976 21 4.63803 20.673C4.07354 20.3854 3.6146 19.9265 3.32698 19.362C3 18.7202 3 17.8802 3 16.2V7.8Z" stroke="#33363F" stroke-width="2" stroke-linecap="round"/>
</svg>
