<svg width="24" height="24" viewBox="0 0 24 24" fill="none" xmlns="http://www.w3.org/2000/svg">
<path d="M7 9V8H6V9H7ZM10 10C10.5523 10 11 9.55228 11 9C11 8.44772 10.5523 8 10 8V10ZM6 12C6 12.5523 6.44772 13 7 13C7.55228 13 8 12.5523 8 12H6ZM11 17C11 17.5523 11.4477 18 12 18C12.5523 18 13 17.5523 13 17H11ZM11.1213 13.1213L10.4142 13.8284L11.1213 13.1213ZM11.8284 12.4142L7.70711 8.29289L6.29289 9.70711L10.4142 13.8284L11.8284 12.4142ZM7 10H10V8H7V10ZM6 9V12H8V9H6ZM11 15.2426V17H13V15.2426H11ZM10.4142 13.8284C10.7893 14.2035 11 14.7122 11 15.2426H13C13 14.1818 12.5786 13.1644 11.8284 12.4142L10.4142 13.8284Z" fill="#33363F"/>
<path d="M17 9V8H18V9H17ZM14 10C13.4477 10 13 9.55228 13 9C13 8.44772 13.4477 8 14 8V10ZM18 12C18 12.5523 17.5523 13 17 13C16.4477 13 16 12.5523 16 12H18ZM13 20C13 20.5523 12.5523 21 12 21C11.4477 21 11 20.5523 11 20H13ZM12.8787 13.1213L13.5858 13.8284L12.8787 13.1213ZM12.1716 12.4142L16.2929 8.29289L17.7071 9.70711L13.5858 13.8284L12.1716 12.4142ZM17 10H14V8H17V10ZM18 9V12H16V9H18ZM13 15.2426V20H11V15.2426H13ZM13.5858 13.8284C13.2107 14.2035 13 14.7122 13 15.2426H11C11 14.1818 11.4214 13.1644 12.1716 12.4142L13.5858 13.8284Z" fill="#33363F"/>
<path d="M16 19H16.2C17.8802 19 18.7202 19 19.362 18.673C19.9265 18.3854 20.3854 17.9265 20.673 17.362C21 16.7202 21 15.8802 21 14.2V9.8C21 8.11984 21 7.27976 20.673 6.63803C20.3854 6.07354 19.9265 5.6146 19.362 5.32698C18.7202 5 17.8802 5 16.2 5H7.8C6.11984 5 5.27976 5 4.63803 5.32698C4.07354 5.6146 3.6146 6.07354 3.32698 6.63803C3 7.27976 3 8.11984 3 9.8V14.2C3 15.8802 3 16.7202 3.32698 17.362C3.6146 17.9265 4.07354 18.3854 4.63803 18.673C5.27976 19 6.11984 19 7.8 19H8" stroke="#33363F" stroke-width="2" stroke-linecap="round"/>
</svg>
