<svg width="24" height="24" viewBox="0 0 24 24" fill="none" xmlns="http://www.w3.org/2000/svg">
<path d="M6.99997 8V7H5.99997V8H6.99997ZM9.99997 9C10.5523 9 11 8.55228 11 8C11 7.44772 10.5523 7 9.99997 7V9ZM5.99997 11C5.99997 11.5523 6.44768 12 6.99997 12C7.55225 12 7.99997 11.5523 7.99997 11H5.99997ZM11 16C11 16.5523 11.4477 17 12 17C12.5523 17 13 16.5523 13 16H11ZM11.1213 12.1213L10.4142 12.8284L11.1213 12.1213ZM11.8284 11.4142L7.70707 7.29289L6.29286 8.70711L10.4142 12.8284L11.8284 11.4142ZM6.99997 9H9.99997V7H6.99997V9ZM5.99997 8V11H7.99997V8H5.99997ZM11 14.2426V16H13V14.2426H11ZM10.4142 12.8284C10.7893 13.2035 11 13.7122 11 14.2426H13C13 13.1818 12.5786 12.1644 11.8284 11.4142L10.4142 12.8284Z" fill="#33363F"/>
<path d="M17 8V7H18V8H17ZM14 9C13.4477 9 13 8.55228 13 8C13 7.44772 13.4477 7 14 7V9ZM18 11C18 11.5523 17.5523 12 17 12C16.4477 12 16 11.5523 16 11H18ZM13 16C13 16.5523 12.5523 17 12 17C11.4477 17 11 16.5523 11 16H13ZM12.8787 12.1213L13.5858 12.8284L12.8787 12.1213ZM12.1716 11.4142L16.2929 7.29289L17.7071 8.70711L13.5858 12.8284L12.1716 11.4142ZM17 9H14V7H17V9ZM18 8V11H16V8H18ZM13 14.2426V16H11V14.2426H13ZM13.5858 12.8284C13.2107 13.2035 13 13.7122 13 14.2426H11C11 13.1818 11.4214 12.1644 12.1716 11.4142L13.5858 12.8284Z" fill="#33363F"/>
<path d="M3 7.8C3 6.11984 3 5.27976 3.32698 4.63803C3.6146 4.07354 4.07354 3.6146 4.63803 3.32698C5.27976 3 6.11984 3 7.8 3H16.2C17.8802 3 18.7202 3 19.362 3.32698C19.9265 3.6146 20.3854 4.07354 20.673 4.63803C21 5.27976 21 6.11984 21 7.8V16.2C21 17.8802 21 18.7202 20.673 19.362C20.3854 19.9265 19.9265 20.3854 19.362 20.673C18.7202 21 17.8802 21 16.2 21H7.8C6.11984 21 5.27976 21 4.63803 20.673C4.07354 20.3854 3.6146 19.9265 3.32698 19.362C3 18.7202 3 17.8802 3 16.2V7.8Z" stroke="#33363F" stroke-width="2" stroke-linecap="round"/>
</svg>
