<svg width="24" height="24" viewBox="0 0 24 24" fill="none" xmlns="http://www.w3.org/2000/svg">
<path d="M16 18.5H18.3C19.4201 18.5 19.9802 18.5 20.408 18.282C20.7843 18.0903 21.0903 17.7843 21.282 17.408C21.5 16.9802 21.5 16.4201 21.5 15.3V8.7C21.5 7.57989 21.5 7.01984 21.282 6.59202C21.0903 6.21569 20.7843 5.90973 20.408 5.71799C19.9802 5.5 19.4201 5.5 18.3 5.5H5.7C4.5799 5.5 4.01984 5.5 3.59202 5.71799C3.21569 5.90973 2.90973 6.21569 2.71799 6.59202C2.5 7.01984 2.5 7.57989 2.5 8.7V15.3C2.5 16.4201 2.5 16.9802 2.71799 17.408C2.90973 17.7843 3.21569 18.0903 3.59202 18.282C4.01984 18.5 4.57989 18.5 5.7 18.5H8" stroke="#33363F" stroke-linecap="round"/>
<path d="M6.5 12.5V12C6.22386 12 6 12.2239 6 12.5H6.5ZM8.5 13C8.77614 13 9 12.7761 9 12.5C9 12.2239 8.77614 12 8.5 12V13ZM6 14.5C6 14.7761 6.22386 15 6.5 15C6.77614 15 7 14.7761 7 14.5H6ZM11.5 20.5C11.5 20.7761 11.7239 21 12 21C12.2761 21 12.5 20.7761 12.5 20.5H11.5ZM11.4749 16.7678L6.85355 12.1464L6.14645 12.8536L10.7678 17.4749L11.4749 16.7678ZM6.5 13H8.5V12H6.5V13ZM6 12.5V14.5H7V12.5H6ZM11.5 19.2426V20.5H12.5V19.2426H11.5ZM10.7678 17.4749C11.2366 17.9437 11.5 18.5796 11.5 19.2426H12.5C12.5 18.3144 12.1313 17.4241 11.4749 16.7678L10.7678 17.4749Z" fill="#33363F"/>
<path d="M17.5 12.5V12C17.7761 12 18 12.2239 18 12.5H17.5ZM15.5 13C15.2239 13 15 12.7761 15 12.5C15 12.2239 15.2239 12 15.5 12V13ZM18 14.5C18 14.7761 17.7761 15 17.5 15C17.2239 15 17 14.7761 17 14.5H18ZM12.5 20.5C12.5 20.7761 12.2761 21 12 21C11.7239 21 11.5 20.7761 11.5 20.5H12.5ZM12.5251 16.7678L17.1464 12.1464L17.8536 12.8536L13.2322 17.4749L12.5251 16.7678ZM17.5 13H15.5V12H17.5V13ZM18 12.5V14.5H17V12.5H18ZM12.5 19.2426V20.5H11.5V19.2426H12.5ZM13.2322 17.4749C12.7634 17.9437 12.5 18.5796 12.5 19.2426H11.5C11.5 18.3144 11.8687 17.4241 12.5251 16.7678L13.2322 17.4749Z" fill="#33363F"/>
<path d="M12 8.5V19M12 8.5L10.5 10M12 8.5L13.5 10" stroke="#33363F" stroke-linecap="round" stroke-linejoin="round"/>
</svg>
