<svg width="24" height="24" viewBox="0 0 24 24" fill="none" xmlns="http://www.w3.org/2000/svg">
<path d="M3.5 8.3C3.5 6.61984 3.5 5.77976 3.82698 5.13803C4.1146 4.57354 4.57354 4.1146 5.13803 3.82698C5.77976 3.5 6.61984 3.5 8.3 3.5H15.7C17.3802 3.5 18.2202 3.5 18.862 3.82698C19.4265 4.1146 19.8854 4.57354 20.173 5.13803C20.5 5.77976 20.5 6.61984 20.5 8.3V15.7C20.5 17.3802 20.5 18.2202 20.173 18.862C19.8854 19.4265 19.4265 19.8854 18.862 20.173C18.2202 20.5 17.3802 20.5 15.7 20.5H8.3C6.61984 20.5 5.77976 20.5 5.13803 20.173C4.57354 19.8854 4.1146 19.4265 3.82698 18.862C3.5 18.2202 3.5 17.3802 3.5 15.7V8.3Z" stroke="#33363F" stroke-linecap="round"/>
<path d="M6.5 7.5V7C6.22386 7 6 7.22386 6 7.5H6.5ZM8.5 8C8.77614 8 9 7.77614 9 7.5C9 7.22386 8.77614 7 8.5 7V8ZM6 9.5C6 9.77614 6.22386 10 6.5 10C6.77614 10 7 9.77614 7 9.5H6ZM11.5 16C11.5 16.2761 11.7239 16.5 12 16.5C12.2761 16.5 12.5 16.2761 12.5 16H11.5ZM11.4749 11.7678L6.85355 7.14645L6.14645 7.85355L10.7678 12.4749L11.4749 11.7678ZM6.5 8H8.5V7H6.5V8ZM6 7.5V9.5H7V7.5H6ZM11.5 14.2426V16H12.5V14.2426H11.5ZM10.7678 12.4749C11.2366 12.9437 11.5 13.5796 11.5 14.2426H12.5C12.5 13.3144 12.1313 12.4241 11.4749 11.7678L10.7678 12.4749Z" fill="#33363F"/>
<path d="M17.5 7.5V7C17.7761 7 18 7.22386 18 7.5H17.5ZM15.5 8C15.2239 8 15 7.77614 15 7.5C15 7.22386 15.2239 7 15.5 7V8ZM18 9.5C18 9.77614 17.7761 10 17.5 10C17.2239 10 17 9.77614 17 9.5H18ZM12.5 16C12.5 16.2761 12.2761 16.5 12 16.5C11.7239 16.5 11.5 16.2761 11.5 16H12.5ZM12.5251 11.7678L17.1464 7.14645L17.8536 7.85355L13.2322 12.4749L12.5251 11.7678ZM17.5 8H15.5V7H17.5V8ZM18 7.5V9.5H17V7.5H18ZM12.5 14.2426V16H11.5V14.2426H12.5ZM13.2322 12.4749C12.7634 12.9437 12.5 13.5796 12.5 14.2426H11.5C11.5 13.3144 11.8687 12.4241 12.5251 11.7678L13.2322 12.4749Z" fill="#33363F"/>
</svg>
