<svg width="24" height="24" viewBox="0 0 24 24" fill="none" xmlns="http://www.w3.org/2000/svg">
<path d="M3.5 8.3C3.5 6.61984 3.5 5.77976 3.82698 5.13803C4.1146 4.57354 4.57354 4.1146 5.13803 3.82698C5.77976 3.5 6.61984 3.5 8.3 3.5H15.7C17.3802 3.5 18.2202 3.5 18.862 3.82698C19.4265 4.1146 19.8854 4.57354 20.173 5.13803C20.5 5.77976 20.5 6.61984 20.5 8.3V15.7C20.5 17.3802 20.5 18.2202 20.173 18.862C19.8854 19.4265 19.4265 19.8854 18.862 20.173C18.2202 20.5 17.3802 20.5 15.7 20.5H8.3C6.61984 20.5 5.77976 20.5 5.13803 20.173C4.57354 19.8854 4.1146 19.4265 3.82698 18.862C3.5 18.2202 3.5 17.3802 3.5 15.7V8.3Z" stroke="#2A4157" stroke-opacity="0.24" stroke-linecap="round"/>
<path d="M6.5 9.5L6.14645 9.14645C5.95118 9.34171 5.95118 9.65829 6.14645 9.85355L6.5 9.5ZM8.35355 8.35355C8.54882 8.15829 8.54882 7.84171 8.35355 7.64645C8.15829 7.45118 7.84171 7.45118 7.64645 7.64645L8.35355 8.35355ZM7.64645 11.3536C7.84171 11.5488 8.15829 11.5488 8.35355 11.3536C8.54882 11.1583 8.54882 10.8417 8.35355 10.6464L7.64645 11.3536ZM11.5 17C11.5 17.2761 11.7239 17.5 12 17.5C12.2761 17.5 12.5 17.2761 12.5 17H11.5ZM9 9H6.5V10H9V9ZM6.85355 9.85355L8.35355 8.35355L7.64645 7.64645L6.14645 9.14645L6.85355 9.85355ZM6.14645 9.85355L7.64645 11.3536L8.35355 10.6464L6.85355 9.14645L6.14645 9.85355ZM11.5 12.5V17H12.5V12.5H11.5ZM9 10C10.3807 10 11.5 11.1193 11.5 12.5H12.5C12.5 10.567 10.933 9 9 9V10Z" fill="#33363F"/>
<path d="M17.5 9.5L17.8536 9.14645C18.0488 9.34171 18.0488 9.65829 17.8536 9.85355L17.5 9.5ZM15.6464 8.35355C15.4512 8.15829 15.4512 7.84171 15.6464 7.64645C15.8417 7.45118 16.1583 7.45118 16.3536 7.64645L15.6464 8.35355ZM16.3536 11.3536C16.1583 11.5488 15.8417 11.5488 15.6464 11.3536C15.4512 11.1583 15.4512 10.8417 15.6464 10.6464L16.3536 11.3536ZM12.5 17C12.5 17.2761 12.2761 17.5 12 17.5C11.7239 17.5 11.5 17.2761 11.5 17H12.5ZM15 9H17.5V10H15V9ZM17.1464 9.85355L15.6464 8.35355L16.3536 7.64645L17.8536 9.14645L17.1464 9.85355ZM17.8536 9.85355L16.3536 11.3536L15.6464 10.6464L17.1464 9.14645L17.8536 9.85355ZM12.5 12.5V17H11.5V12.5H12.5ZM15 10C13.6193 10 12.5 11.1193 12.5 12.5H11.5C11.5 10.567 13.067 9 15 9V10Z" fill="#33363F"/>
</svg>
