<svg width="24" height="24" viewBox="0 0 24 24" fill="none" xmlns="http://www.w3.org/2000/svg">
<path d="M17 13V12C17.5523 12 18 12.4477 18 13H17ZM15 13L14.2929 13.7071C14.0069 13.4211 13.9213 12.991 14.0761 12.6173C14.2309 12.2436 14.5955 12 15 12V13ZM17 15H18C18 15.4045 17.7564 15.7691 17.3827 15.9239C17.009 16.0787 16.5789 15.9931 16.2929 15.7071L17 15ZM13 20C13 20.5523 12.5523 21 12 21C11.4477 21 11 20.5523 11 20H13ZM12.8787 17.1213L13.5858 17.8284L12.8787 17.1213ZM12.1716 16.4142L16.2929 12.2929L17.7071 13.7071L13.5858 17.8284L12.1716 16.4142ZM17 14H15V12H17V14ZM18 13V15H16V13H18ZM13 19.2426V20H11V19.2426H13ZM16.2929 15.7071L14.2929 13.7071L15.7071 12.2929L17.7071 14.2929L16.2929 15.7071ZM13.5858 17.8284C13.2107 18.2035 13 18.7122 13 19.2426H11C11 18.1818 11.4214 17.1644 12.1716 16.4142L13.5858 17.8284Z" fill="#33363F"/>
<path d="M7 13V12C6.44772 12 6 12.4477 6 13H7ZM9 13L9.70711 13.7071C9.9931 13.4211 10.0787 12.991 9.92388 12.6173C9.7691 12.2436 9.40446 12 9 12V13ZM7 15H6C6 15.4045 6.24364 15.7691 6.61732 15.9239C6.99099 16.0787 7.42111 15.9931 7.70711 15.7071L7 15ZM11 20C11 20.5523 11.4477 21 12 21C12.5523 21 13 20.5523 13 20H11ZM11.1213 17.1213L10.4142 17.8284L11.1213 17.1213ZM11.8284 16.4142L7.70711 12.2929L6.29289 13.7071L10.4142 17.8284L11.8284 16.4142ZM7 14H9V12H7V14ZM6 13V15H8V13H6ZM11 19.2426V20H13V19.2426H11ZM8.29289 12.2929L6.29289 14.2929L7.70711 15.7071L9.70711 13.7071L8.29289 12.2929ZM10.4142 17.8284C10.7893 18.2035 11 18.7122 11 19.2426H13C13 18.1818 12.5786 17.1644 11.8284 16.4142L10.4142 17.8284Z" fill="#33363F"/>
<path d="M12 8.5L12.7071 7.7929C12.5196 7.60536 12.2652 7.5 12 7.5C11.7348 7.5 11.4805 7.60535 11.2929 7.79289L12 8.5ZM13.5 10V11C13.9045 11 14.2691 10.7564 14.4239 10.3827C14.5787 10.009 14.4931 9.5789 14.2071 9.2929L13.5 10ZM10.5 10L9.7929 9.29289C9.5069 9.57889 9.42134 10.009 9.57612 10.3827C9.7309 10.7564 10.0955 11 10.5 11V10ZM11 20C11 20.5523 11.4477 21 12 21C12.5523 21 13 20.5523 13 20H11ZM13 17V8.5H11V17H13ZM11.2929 9.2071L12.7929 10.7071L14.2071 9.2929L12.7071 7.7929L11.2929 9.2071ZM11.2929 7.79289L9.7929 9.29289L11.2071 10.7071L12.7071 9.20711L11.2929 7.79289ZM11 17V20H13V17H11ZM13.5 9H10.5V11H13.5V9Z" fill="#33363F"/>
<path d="M16 19H16.2C17.8802 19 18.7202 19 19.362 18.673C19.9265 18.3854 20.3854 17.9265 20.673 17.362C21 16.7202 21 15.8802 21 14.2V9.8C21 8.11984 21 7.27976 20.673 6.63803C20.3854 6.07354 19.9265 5.6146 19.362 5.32698C18.7202 5 17.8802 5 16.2 5H7.8C6.11984 5 5.27976 5 4.63803 5.32698C4.07354 5.6146 3.6146 6.07354 3.32698 6.63803C3 7.27976 3 8.11984 3 9.8V14.2C3 15.8802 3 16.7202 3.32698 17.362C3.6146 17.9265 4.07354 18.3854 4.63803 18.673C5.27976 19 6.11984 19 7.8 19H8" stroke="#33363F" stroke-width="2" stroke-linecap="round"/>
</svg>
