<svg width="24" height="24" viewBox="0 0 24 24" fill="none" xmlns="http://www.w3.org/2000/svg">
<path d="M19.5 3.5L19.2178 6.03976C18.8092 9.71758 15.7005 12.5 12 12.5V12.5C8.29954 12.5 5.19084 15.2824 4.78219 18.9602L4.5 21.5" stroke="#33363F" stroke-linecap="round" stroke-linejoin="round"/>
<path d="M4.99694 3.44478C4.96645 3.17033 4.71924 2.97256 4.44478 3.00306C4.17033 3.03355 3.97256 3.28076 4.00306 3.55522L4.99694 3.44478ZM4.7822 6.03976L5.27914 5.98454L4.7822 6.03976ZM19.2178 18.9602L18.7209 19.0155L19.2178 18.9602ZM19.0031 21.5552C19.0336 21.8297 19.2808 22.0274 19.5552 21.9969C19.8297 21.9664 20.0274 21.7192 19.9969 21.4448L19.0031 21.5552ZM12 12C11.7239 12 11.5 12.2239 11.5 12.5C11.5 12.7761 11.7239 13 12 13V12ZM7.51093 11.5705C7.73614 11.7303 8.04825 11.6773 8.20805 11.4521C8.36784 11.2269 8.31481 10.9147 8.0896 10.7549L7.51093 11.5705ZM4.00306 3.55522L4.28525 6.09497L5.27914 5.98454L4.99694 3.44478L4.00306 3.55522ZM18.7209 19.0155L19.0031 21.5552L19.9969 21.4448L19.7147 18.905L18.7209 19.0155ZM12 13C15.4457 13 18.3404 15.5908 18.7209 19.0155L19.7147 18.905C19.278 14.974 15.9552 12 12 12V13ZM4.28525 6.09497C4.53827 8.37214 5.76009 10.3282 7.51093 11.5705L8.0896 10.7549C6.5629 9.67171 5.49952 7.96801 5.27914 5.98454L4.28525 6.09497Z" fill="#33363F"/>
<path d="M19 6.5H5" stroke="#33363F" stroke-linecap="round" stroke-linejoin="round"/>
<path d="M19 18.5H5" stroke="#33363F" stroke-linecap="round" stroke-linejoin="round"/>
<path d="M18 15.5H6" stroke="#33363F" stroke-linejoin="round"/>
<path d="M17.5 9.5H6.5" stroke="#33363F" stroke-linecap="round" stroke-linejoin="round"/>
</svg>
