<svg width="24" height="24" viewBox="0 0 24 24" fill="none" xmlns="http://www.w3.org/2000/svg">
<path d="M20 3C20 2.44772 19.5523 2 19 2C18.4477 2 18 2.44772 18 3H20ZM4 21C4 21.5523 4.44772 22 5 22C5.55228 22 6 21.5523 6 21H4ZM12 11C10.0145 11 8.47039 11.6458 7.30233 12.647C6.15331 13.6319 5.41779 14.9166 4.943 16.1376C4.46702 17.3615 4.23356 18.5712 4.11767 19.4652C4.05939 19.9148 4.03003 20.291 4.01521 20.5578C4.00779 20.6914 4.00399 20.7979 4.00204 20.873C4.00107 20.9106 4.00056 20.9403 4.00029 20.9616C4.00016 20.9723 4.00009 20.9809 4.00005 20.9873C4.00003 20.9905 4.00001 20.9932 4.00001 20.9953C4 20.9964 4 20.9973 4 20.9981C4 20.9985 4 20.9989 4 20.9991C4 20.9996 4 21 5 21C6 21 6 21.0003 6 21.0007C6 21.0007 6 21.001 6 21.0011C6 21.0014 6 21.0015 6 21.0014C6 21.0014 6 21.0008 6.00001 20.9996C6.00002 20.9974 6.00006 20.9931 6.00013 20.9867C6.00029 20.974 6.00064 20.9532 6.00137 20.9248C6.00284 20.8681 6.00588 20.7813 6.01213 20.6688C6.02465 20.4434 6.04998 20.1165 6.10108 19.7223C6.20394 18.9288 6.40798 17.8885 6.807 16.8624C7.20721 15.8334 7.78419 14.8681 8.60392 14.1655C9.40461 13.4792 10.4855 13 12 13V11ZM19 3C18 3 18 2.99965 18 2.99934C18 2.99928 18 2.999 18 2.99889C18 2.99865 18 2.99855 18 2.99858C18 2.99864 18 2.99923 18 3.00035C18 3.00259 17.9999 3.00692 17.9999 3.01327C17.9997 3.02599 17.9994 3.0468 17.9986 3.07516C17.9972 3.1319 17.9941 3.2187 17.9879 3.33125C17.9753 3.55664 17.95 3.88353 17.8989 4.2777C17.7961 5.07123 17.592 6.11149 17.193 7.13755C16.7928 8.16665 16.2158 9.13187 15.3961 9.83449C14.5954 10.5208 13.5145 11 12 11V13C13.9855 13 15.5296 12.3542 16.6977 11.353C17.8467 10.3681 18.5822 9.08335 19.057 7.86245C19.533 6.63851 19.7664 5.42877 19.8823 4.5348C19.9406 4.08522 19.97 3.70899 19.9848 3.44219C19.9922 3.30864 19.996 3.20209 19.998 3.12699C19.9989 3.08943 19.9994 3.0597 19.9997 3.03836C19.9998 3.02769 19.9999 3.01911 20 3.0127C20 3.00949 20 3.00682 20 3.0047C20 3.00364 20 3.00272 20 3.00194C20 3.00154 20 3.00106 20 3.00086C20 3.00041 20 3 19 3Z" fill="#33363F"/>
<path d="M4 3C4 2.44772 4.44771 2 5 2C5.55229 2 6 2.44772 6 3H4ZM20 21C20 21.5523 19.5523 22 19 22C18.4477 22 18 21.5523 18 21H20ZM12 11C13.9855 11 15.5296 11.6458 16.6977 12.647C17.8467 13.6319 18.5822 14.9166 19.057 16.1376C19.533 17.3615 19.7664 18.5712 19.8823 19.4652C19.9406 19.9148 19.97 20.291 19.9848 20.5578C19.9922 20.6914 19.996 20.7979 19.998 20.873C19.9989 20.9106 19.9994 20.9403 19.9997 20.9616C19.9998 20.9723 19.9999 20.9809 20 20.9873C20 20.9905 20 20.9932 20 20.9953C20 20.9964 20 20.9973 20 20.9981C20 20.9985 20 20.9989 20 20.9991C20 20.9996 20 21 19 21C18 21 18 21.0003 18 21.0007C18 21.0007 18 21.001 18 21.0011C18 21.0014 18 21.0015 18 21.0014C18 21.0014 18 21.0008 18 20.9996C18 20.9974 17.9999 20.9931 17.9999 20.9867C17.9997 20.974 17.9994 20.9532 17.9986 20.9248C17.9972 20.8681 17.9941 20.7813 17.9879 20.6688C17.9753 20.4434 17.95 20.1165 17.8989 19.7223C17.7961 18.9288 17.592 17.8885 17.193 16.8624C16.7928 15.8334 16.2158 14.8681 15.3961 14.1655C14.5954 13.4792 13.5145 13 12 13V11ZM5 3C6 3 6 2.99965 6 2.99934C6 2.99928 6 2.999 6 2.99889C6 2.99865 6 2.99855 6 2.99858C6 2.99864 6 2.99923 6.00001 3.00035C6.00002 3.00259 6.00006 3.00692 6.00014 3.01327C6.00029 3.02599 6.00064 3.0468 6.00137 3.07516C6.00284 3.1319 6.00588 3.2187 6.01213 3.33125C6.02465 3.55664 6.04998 3.88353 6.10108 4.2777C6.20394 5.07123 6.40798 6.11149 6.807 7.13755C7.20721 8.16665 7.78419 9.13187 8.60392 9.83449C9.40461 10.5208 10.4855 11 12 11V13C10.0145 13 8.47039 12.3542 7.30233 11.353C6.15331 10.3681 5.41779 9.08335 4.943 7.86245C4.46702 6.63851 4.23356 5.42877 4.11767 4.5348C4.05939 4.08522 4.03003 3.70899 4.01521 3.44219C4.00779 3.30864 4.00399 3.20209 4.00204 3.12699C4.00107 3.08943 4.00056 3.0597 4.00029 3.03836C4.00016 3.02769 4.00009 3.01911 4.00005 3.0127C4.00003 3.00949 4.00001 3.00682 4.00001 3.0047C4 3.00364 4 3.00272 4 3.00194C4 3.00154 4 3.00106 4 3.00086C4 3.00041 4 3 5 3Z" fill="#33363F"/>
<path d="M18 6H6" stroke="#33363F" stroke-width="2" stroke-linecap="round" stroke-linejoin="round"/>
<path d="M18 18H6" stroke="#33363F" stroke-width="2" stroke-linecap="round" stroke-linejoin="round"/>
<path d="M17 15H7" stroke="#33363F" stroke-width="2" stroke-linejoin="round"/>
<path d="M17 9H7" stroke="#33363F" stroke-width="2" stroke-linecap="round" stroke-linejoin="round"/>
</svg>
