<svg width="24" height="24" viewBox="0 0 24 24" fill="none" xmlns="http://www.w3.org/2000/svg">
<path d="M8.00009 13L12.2278 16.3821C12.6557 16.7245 13.2794 16.6586 13.6264 16.2345L22.0001 6" stroke="#222222" stroke-linecap="round"/>
<path fill-rule="evenodd" clip-rule="evenodd" d="M10.8051 11.9167L15.387 6.31663C15.5618 6.10291 15.5303 5.7879 15.3166 5.61304C15.1029 5.43817 14.7879 5.46967 14.613 5.6834L10.0369 11.2765L10.8051 11.9167ZM7.63879 15.7866L6.87054 15.1464L6.22007 15.9415C6.0504 16.1488 5.74743 16.1856 5.53309 16.0248L2.3 13.6C2.07909 13.4343 1.76568 13.4791 1.6 13.7C1.43431 13.9209 1.47909 14.2343 1.7 14.4L4.93309 16.8248C5.57613 17.3071 6.48503 17.1968 6.99402 16.5747L7.63879 15.7866Z" fill="#222222"/>
</svg>
