<svg width="24" height="24" viewBox="0 0 24 24" fill="none" xmlns="http://www.w3.org/2000/svg">
<circle cx="12" cy="12" r="8" fill="#2A4157" fill-opacity="0.24"/>
<path d="M8.5 11L11.3939 13.8939C11.4525 13.9525 11.5475 13.9525 11.6061 13.8939L19.5 6" stroke="#222222" stroke-width="1.2"/>
<path d="M19.3578 10.5465C19.6899 12.2277 19.4363 13.9719 18.6391 15.4889C17.8419 17.0059 16.5493 18.2041 14.9763 18.8842C13.4033 19.5642 11.6449 19.6851 9.99369 19.2267C8.34247 18.7682 6.89803 17.7582 5.90077 16.3646C4.90351 14.9709 4.41358 13.2778 4.51251 11.567C4.61144 9.85619 5.29327 8.23085 6.44453 6.96147C7.59578 5.6921 9.14703 4.85527 10.8401 4.59024C12.5331 4.32521 14.2659 4.64797 15.75 5.50481" stroke="#222222" stroke-linecap="round"/>
</svg>
