<svg width="26" height="24" viewBox="0 0 26 24" fill="none" xmlns="http://www.w3.org/2000/svg">
<path d="M24.5478 7.2664C25.2473 6.41152 25.1213 5.15149 24.2664 4.45205C23.4115 3.75261 22.1515 3.87861 21.4521 4.73348L13.7048 14.2023L10.2495 11.4381C9.38702 10.7481 8.12845 10.888 7.43844 11.7505C6.74843 12.613 6.88828 13.8715 7.75078 14.5616L11.9784 17.9436C13.2621 18.9706 15.1333 18.7731 16.1743 17.5008L24.5478 7.2664Z" stroke="#222222" stroke-width="2" stroke-linecap="round"/>
<mask id="path-2-outside-1_1358_3205" maskUnits="userSpaceOnUse" x="-0.999863" y="2.99996" width="20.9997" height="16.9998" fill="black">
<rect fill="white" x="-0.999863" y="2.99996" width="20.9997" height="16.9998"/>
<path fill-rule="evenodd" clip-rule="evenodd" d="M12.8225 11.4627L16.7739 6.63317C17.1236 6.20573 17.0606 5.57572 16.6332 5.226C16.2057 4.87627 15.5757 4.93928 15.226 5.36671L11.286 10.1823L12.8225 11.4627ZM8.38971 16.8805L6.85323 15.6001L6.83317 15.6246L3.60013 13.1998C3.15831 12.8685 2.53151 12.958 2.20015 13.3998C1.86878 13.8417 1.95832 14.4684 2.40015 14.7998L5.63319 17.2246C6.49056 17.8676 7.70241 17.7205 8.38106 16.8911L8.38971 16.8805Z"/>
</mask>
<path d="M16.7739 6.63317L15.226 5.36671V5.36671L16.7739 6.63317ZM12.8225 11.4627L11.5421 12.9991L13.0925 14.291L14.3704 12.7291L12.8225 11.4627ZM16.6332 5.226L15.3667 6.77389H15.3667L16.6332 5.226ZM15.226 5.36671L16.7739 6.63317L15.226 5.36671ZM11.286 10.1823L9.73812 8.9158L8.48302 10.4498L10.0057 11.7187L11.286 10.1823ZM8.38971 16.8805L9.93762 18.1469L11.1927 16.6129L9.67006 15.3441L8.38971 16.8805ZM6.85323 15.6001L8.13358 14.0637L6.58324 12.7717L5.30533 14.3337L6.85323 15.6001ZM6.83317 15.6246L5.63319 17.2246L7.167 18.375L8.38107 16.8911L6.83317 15.6246ZM3.60013 13.1998L2.40014 14.7998L2.40015 14.7998L3.60013 13.1998ZM2.20015 13.3998L0.600171 12.1999L2.20015 13.3998ZM2.40015 14.7998L3.60013 13.1998L3.60013 13.1998L2.40015 14.7998ZM5.63319 17.2246L4.4332 18.8246L4.43321 18.8246L5.63319 17.2246ZM8.38106 16.8911L9.92895 18.1575L9.92896 18.1575L8.38106 16.8911ZM15.226 5.36671L11.2746 10.1962L14.3704 12.7291L18.3218 7.89963L15.226 5.36671ZM15.3667 6.77389C14.9393 6.42417 14.8763 5.79415 15.226 5.36671L18.3218 7.89963C19.371 6.61731 19.1819 4.72727 17.8996 3.6781L15.3667 6.77389ZM16.7739 6.63317C16.4242 7.06061 15.7942 7.12361 15.3667 6.77389L17.8996 3.6781C16.6173 2.62894 14.7273 2.81794 13.6781 4.10026L16.7739 6.63317ZM12.8339 11.4487L16.7739 6.63317L13.6781 4.10026L9.73812 8.9158L12.8339 11.4487ZM10.0057 11.7187L11.5421 12.9991L14.1028 9.92624L12.5664 8.64583L10.0057 11.7187ZM9.67006 15.3441L8.13358 14.0637L5.57288 17.1365L7.10936 18.4169L9.67006 15.3441ZM8.38107 16.8911L8.40114 16.8665L5.30533 14.3337L5.28527 14.3582L8.38107 16.8911ZM2.40015 14.7998L5.63319 17.2246L8.03315 14.0246L4.80011 11.5999L2.40015 14.7998ZM3.80013 14.5998C3.46876 15.0416 2.84197 15.1312 2.40014 14.7998L4.80011 11.5999C3.47465 10.6058 1.59427 10.8744 0.600171 12.1999L3.80013 14.5998ZM3.60013 13.1998C4.04195 13.5312 4.13149 14.158 3.80013 14.5998L0.600171 12.1999C-0.393926 13.5253 -0.125301 15.4057 1.20016 16.3998L3.60013 13.1998ZM6.83317 15.6246L3.60013 13.1998L1.20016 16.3998L4.4332 18.8246L6.83317 15.6246ZM6.83317 15.6246H6.83317L4.43321 18.8246C6.14795 20.1106 8.57165 19.8165 9.92895 18.1575L6.83317 15.6246ZM6.84181 15.6141L6.83316 15.6246L9.92896 18.1575L9.93762 18.1469L6.84181 15.6141Z" fill="#222222" mask="url(#path-2-outside-1_1358_3205)"/>
</svg>
