<svg width="24" height="24" viewBox="0 0 24 24" fill="none" xmlns="http://www.w3.org/2000/svg">
<path d="M8.00011 13L12.2278 16.3821C12.6557 16.7245 13.2794 16.6586 13.6264 16.2345L22.0001 6" stroke="#33363F" stroke-width="2" stroke-linecap="round"/>
<path fill-rule="evenodd" clip-rule="evenodd" d="M11.1892 12.2368L15.774 6.63327C16.1237 6.20582 16.0607 5.5758 15.6332 5.22607C15.2058 4.87635 14.5758 4.93935 14.226 5.36679L9.65273 10.9564L11.1892 12.2368ZM8.02292 16.1068L6.48641 14.8263L5.83309 15.6248L2.6 13.2C2.15817 12.8687 1.53137 12.9582 1.2 13.4C0.868627 13.8419 0.95817 14.4687 1.4 14.8L4.63309 17.2248C5.49047 17.8679 6.70234 17.7208 7.381 16.8913L8.02292 16.1068Z" fill="#33363F"/>
</svg>
