<svg width="26" height="24" viewBox="0 0 26 24" fill="none" xmlns="http://www.w3.org/2000/svg">
<path d="M17.5479 7.26643C18.2474 6.41155 18.1214 5.15152 17.2665 4.45207C16.4116 3.75262 15.1516 3.87862 14.4521 4.7335L6.66629 14.2495L4.20014 12.3999C3.31649 11.7372 2.0629 11.9162 1.40017 12.7999C0.737434 13.6835 0.916519 14.9371 1.80016 15.5999L5.03322 18.0247C6.31928 18.9892 8.13707 18.7686 9.15505 17.5244L17.5479 7.26643Z" stroke="#222222" stroke-width="2" stroke-linecap="round"/>
<mask id="path-2-outside-1_1358_3230" maskUnits="userSpaceOnUse" x="8.86941" y="2.99997" width="17.9998" height="16.9998" fill="black">
<rect fill="white" x="8.86941" y="2.99997" width="17.9998" height="16.9998"/>
<path fill-rule="evenodd" clip-rule="evenodd" d="M11.8694 16.5759L12.603 17.1628C13.4588 17.8475 14.7063 17.7158 15.4003 16.8676L23.7739 6.6332C24.1236 6.20576 24.0606 5.57574 23.6332 5.22602C23.2057 4.87629 22.5757 4.9393 22.226 5.36674L13.8524 15.6011L13.1359 15.0279L11.8694 16.5759Z"/>
</mask>
<path d="M12.603 17.1628L11.3536 18.7246L11.3536 18.7246L12.603 17.1628ZM11.8694 16.5759L10.3215 15.3095L9.04103 16.8745L10.62 18.1377L11.8694 16.5759ZM15.4003 16.8676L13.8524 15.6011H13.8524L15.4003 16.8676ZM23.7739 6.6332L22.226 5.36674V5.36674L23.7739 6.6332ZM23.6332 5.22602L22.3667 6.77392H22.3667L23.6332 5.22602ZM22.226 5.36674L20.6781 4.10027L22.226 5.36674ZM13.8524 15.6011L12.603 17.1628L14.1477 18.3986L15.4003 16.8676L13.8524 15.6011ZM13.1359 15.0279L14.3853 13.4662L12.8406 12.2305L11.588 13.7615L13.1359 15.0279ZM13.8524 15.6011L13.1188 15.0142L10.62 18.1377L11.3536 18.7246L13.8524 15.6011ZM13.8524 15.6011L13.8524 15.6011L11.3536 18.7246C13.0653 20.0939 15.5601 19.8305 16.9482 18.1341L13.8524 15.6011ZM22.226 5.36674L13.8524 15.6011L16.9482 18.1341L25.3218 7.89966L22.226 5.36674ZM22.3667 6.77392C21.9393 6.42419 21.8763 5.79418 22.226 5.36674L25.3218 7.89966C26.371 6.61734 26.1819 4.72729 24.8996 3.67812L22.3667 6.77392ZM23.7739 6.6332C23.4242 7.06064 22.7941 7.12364 22.3667 6.77392L24.8996 3.67812C23.6173 2.62895 21.7273 2.81795 20.6781 4.10027L23.7739 6.6332ZM15.4003 16.8676L23.7739 6.6332L20.6781 4.10027L12.3045 14.3347L15.4003 16.8676ZM11.8865 16.5897L12.603 17.1628L15.1018 14.0394L14.3853 13.4662L11.8865 16.5897ZM11.588 13.7615L10.3215 15.3095L13.4173 17.8424L14.6838 16.2944L11.588 13.7615Z" fill="#222222" mask="url(#path-2-outside-1_1358_3230)"/>
</svg>
