<svg width="24" height="24" viewBox="0 0 24 24" fill="none" xmlns="http://www.w3.org/2000/svg">
<path d="M8.00009 13L12.2278 16.3821C12.6557 16.7245 13.2794 16.6586 13.6264 16.2345L22.0001 6" stroke="#222222" stroke-width="1.2" stroke-linecap="round"/>
<path fill-rule="evenodd" clip-rule="evenodd" d="M10.5653 12.3677L15.4644 6.37999C15.6742 6.12352 15.6364 5.7455 15.3799 5.53567C15.1235 5.32583 14.7455 5.36363 14.5356 5.6201L9.6434 11.5995L10.5653 12.3677ZM8.03225 15.4637L7.11035 14.6954L6.14267 15.8782C6.00694 16.044 5.76456 16.0735 5.59309 15.9449L2.36 13.52C2.0949 13.3212 1.71882 13.3749 1.52 13.64C1.32118 13.9051 1.3749 14.2812 1.64 14.48L4.87309 16.9049C5.559 17.4193 6.52849 17.3016 7.07142 16.638L8.03225 15.4637Z" fill="#2A4157" fill-opacity="0.24"/>
</svg>
