<svg width="24" height="24" viewBox="0 0 24 24" fill="none" xmlns="http://www.w3.org/2000/svg">
<path fill-rule="evenodd" clip-rule="evenodd" d="M9.5 11.2581C8.80098 11.7259 8.2402 12.3845 7.89222 13.1599L7.88958 13.1658L7.88955 13.1658C7.81019 13.3427 7.74715 13.4831 7.69674 13.5892C7.64966 13.6882 7.59798 13.7915 7.54007 13.8725C7.43286 14.0225 7.3104 14.1624 7.1423 14.2712C6.97421 14.38 6.79642 14.4345 6.61565 14.4709C6.46738 14.5007 6.27958 14.5006 6.05357 14.5004L6 14.5003C4.61929 14.5003 3.5 15.6196 3.5 17.0003C3.5 18.3811 4.61929 19.5003 6 19.5003H12H18C19.3807 19.5003 20.5 18.3811 20.5 17.0003C20.5 15.6196 19.3807 14.5003 18 14.5003L17.9464 14.5004C17.7204 14.5006 17.5326 14.5007 17.3844 14.4709C17.2036 14.4345 17.0258 14.38 16.8577 14.2712C16.6896 14.1624 16.5671 14.0225 16.4599 13.8725C16.402 13.7915 16.3503 13.6882 16.3033 13.5892C16.2529 13.4831 16.1898 13.3427 16.1105 13.166L16.1078 13.1599C15.7598 12.3845 15.199 11.7259 14.5 11.2581V10.1001C15.6132 10.6692 16.5066 11.6064 17.0201 12.7504C17.1027 12.9345 17.1613 13.0649 17.2064 13.1598C17.2287 13.2067 17.2455 13.2402 17.2583 13.2641C17.2679 13.2819 17.273 13.29 17.2741 13.2918L17.2744 13.2922C17.3434 13.3886 17.3798 13.418 17.4011 13.4317C17.4224 13.4456 17.4644 13.4669 17.5817 13.4905C17.6172 13.4977 17.691 13.5003 18 13.5003C19.933 13.5003 21.5 15.0674 21.5 17.0003C21.5 18.9333 19.933 20.5003 18 20.5003H12H6C4.067 20.5003 2.5 18.9333 2.5 17.0003C2.5 15.0674 4.067 13.5003 6 13.5003C6.30904 13.5003 6.38281 13.4977 6.41833 13.4905C6.53559 13.4669 6.57756 13.4456 6.59892 13.4317C6.62018 13.418 6.65664 13.3886 6.72564 13.2922C6.72567 13.2922 6.72575 13.2921 6.72588 13.2918C6.72703 13.29 6.73213 13.2818 6.74168 13.2641C6.75451 13.2402 6.77129 13.2067 6.79362 13.1598C6.83874 13.0649 6.89728 12.9345 6.97989 12.7504C7.49336 11.6064 8.38683 10.6692 9.5 10.1001V11.2581Z" fill="#222222"/>
<path d="M12 3L11.6464 2.64645L12 2.29289L12.3536 2.64645L12 3ZM12.5 13C12.5 13.2761 12.2761 13.5 12 13.5C11.7239 13.5 11.5 13.2761 11.5 13L12.5 13ZM7.64645 6.64645L11.6464 2.64645L12.3536 3.35355L8.35355 7.35355L7.64645 6.64645ZM12.3536 2.64645L16.3536 6.64645L15.6464 7.35355L11.6464 3.35355L12.3536 2.64645ZM12.5 3L12.5 13L11.5 13L11.5 3L12.5 3Z" fill="#222222"/>
</svg>
