<svg width="24" height="24" viewBox="0 0 24 24" fill="none" xmlns="http://www.w3.org/2000/svg">
<path d="M5.23852 14.8117C5.63734 16.3002 6.51616 17.6154 7.73867 18.5535C8.96118 19.4915 10.4591 20 12 20C13.5409 20 15.0388 19.4915 16.2613 18.5535C17.4838 17.6154 18.3627 16.3002 18.7615 14.8117" stroke="#222222"/>
<path d="M12 4L11.6877 3.60957L12 3.35969L12.3123 3.60957L12 4ZM12.5 13C12.5 13.2761 12.2761 13.5 12 13.5C11.7239 13.5 11.5 13.2761 11.5 13L12.5 13ZM6.68765 7.60957L11.6877 3.60957L12.3123 4.39043L7.31235 8.39043L6.68765 7.60957ZM12.3123 3.60957L17.3123 7.60957L16.6877 8.39043L11.6877 4.39043L12.3123 3.60957ZM12.5 4L12.5 13L11.5 13L11.5 4L12.5 4Z" fill="#222222"/>
</svg>
