<svg width="24" height="24" viewBox="0 0 24 24" fill="none" xmlns="http://www.w3.org/2000/svg">
<ellipse rx="6" ry="6" transform="matrix(4.37114e-08 -1 -1 -4.37114e-08 12 14)" fill="#2A4157" fill-opacity="0.24"/>
<path d="M9.85355 7.85355C9.65829 8.04882 9.34171 8.04882 9.14645 7.85355C8.95118 7.65829 8.95118 7.34171 9.14645 7.14645L9.85355 7.85355ZM12 5L11.6464 4.64645L12 4.29289L12.3536 4.64645L12 5ZM14.8536 7.14645C15.0488 7.34171 15.0488 7.65829 14.8536 7.85355C14.6583 8.04882 14.3417 8.04882 14.1464 7.85355L14.8536 7.14645ZM12.5 15C12.5 15.2761 12.2761 15.5 12 15.5C11.7239 15.5 11.5 15.2761 11.5 15L12.5 15ZM9.14645 7.14645L11.6464 4.64645L12.3536 5.35355L9.85355 7.85355L9.14645 7.14645ZM12.3536 4.64645L14.8536 7.14645L14.1464 7.85355L11.6464 5.35355L12.3536 4.64645ZM12.5 5L12.5 15L11.5 15L11.5 5L12.5 5Z" fill="#222222"/>
</svg>
