<svg width="24" height="24" viewBox="0 0 24 24" fill="none" xmlns="http://www.w3.org/2000/svg">
<mask id="path-1-outside-1_1358_3541" maskUnits="userSpaceOnUse" x="2" y="9" width="20" height="12" fill="black">
<rect fill="white" x="2" y="9" width="20" height="12"/>
<path fill-rule="evenodd" clip-rule="evenodd" d="M6 20H12H18C19.6569 20 21 18.6569 21 17C21 15.3431 19.6569 14 18 14C17.7205 14 17.5807 14 17.483 13.9803C17.185 13.9204 17.0435 13.8288 16.8667 13.5814C16.8088 13.5004 16.7272 13.3185 16.5639 12.9548C15.7822 11.2131 14.0328 10 12 10C9.96722 10 8.21776 11.2131 7.43606 12.9548C7.27282 13.3185 7.19121 13.5004 7.13328 13.5814C6.95652 13.8288 6.81502 13.9204 6.51699 13.9803C6.41931 14 6.27954 14 6 14C4.34315 14 3 15.3431 3 17C3 18.6569 4.34315 20 6 20Z"/>
</mask>
<path fill-rule="evenodd" clip-rule="evenodd" d="M6 20H12H18C19.6569 20 21 18.6569 21 17C21 15.3431 19.6569 14 18 14C17.7205 14 17.5807 14 17.483 13.9803C17.185 13.9204 17.0435 13.8288 16.8667 13.5814C16.8088 13.5004 16.7272 13.3185 16.5639 12.9548C15.7822 11.2131 14.0328 10 12 10C9.96722 10 8.21776 11.2131 7.43606 12.9548C7.27282 13.3185 7.19121 13.5004 7.13328 13.5814C6.95652 13.8288 6.81502 13.9204 6.51699 13.9803C6.41931 14 6.27954 14 6 14C4.34315 14 3 15.3431 3 17C3 18.6569 4.34315 20 6 20Z" fill="#2A4157" fill-opacity="0.24"/>
<path d="M7.13328 13.5814L6.64512 13.2326L7.13328 13.5814ZM6.51699 13.9803L6.63538 14.5685L6.51699 13.9803ZM17.483 13.9803L17.3646 14.5685L17.483 13.9803ZM16.8667 13.5814L16.3786 13.9303L16.8667 13.5814ZM12 19.4H6V20.6H12V19.4ZM18 19.4H12V20.6H18V19.4ZM20.4 17C20.4 18.3255 19.3255 19.4 18 19.4V20.6C19.9882 20.6 21.6 18.9882 21.6 17H20.4ZM18 14.6C19.3255 14.6 20.4 15.6745 20.4 17H21.6C21.6 15.0118 19.9882 13.4 18 13.4V14.6ZM17.1113 12.7091C16.2364 10.7597 14.2776 9.4 12 9.4V10.6C13.7879 10.6 15.3281 11.6665 16.0165 13.2005L17.1113 12.7091ZM12 9.4C9.72236 9.4 7.76359 10.7597 6.88866 12.7091L7.98345 13.2005C8.67194 11.6665 10.2121 10.6 12 10.6V9.4ZM6 13.4C4.01177 13.4 2.4 15.0118 2.4 17H3.6C3.6 15.6745 4.67452 14.6 6 14.6V13.4ZM2.4 17C2.4 18.9882 4.01177 20.6 6 20.6V19.4C4.67452 19.4 3.6 18.3255 3.6 17H2.4ZM6.88866 12.7091C6.80584 12.8937 6.74784 13.0228 6.70331 13.1165C6.65409 13.22 6.63936 13.2406 6.64512 13.2326L7.62143 13.9303C7.68512 13.8412 7.74017 13.7303 7.78705 13.6317C7.83862 13.5233 7.90304 13.3797 7.98345 13.2005L6.88866 12.7091ZM6 14.6C6.24415 14.6 6.46312 14.6032 6.63538 14.5685L6.3986 13.3921C6.40013 13.3918 6.38107 13.3956 6.30874 13.3978C6.23775 13.3999 6.1435 13.4 6 13.4V14.6ZM6.64512 13.2326C6.57934 13.3246 6.55126 13.3431 6.54458 13.3475C6.5379 13.3518 6.50951 13.3698 6.3986 13.3921L6.63538 14.5685C6.8225 14.5309 7.01388 14.4731 7.19664 14.3548C7.37941 14.2365 7.51046 14.0856 7.62143 13.9303L6.64512 13.2326ZM18 13.4C17.8565 13.4 17.7623 13.3999 17.6913 13.3978C17.6189 13.3956 17.5999 13.3918 17.6014 13.3921L17.3646 14.5685C17.5369 14.6032 17.7559 14.6 18 14.6V13.4ZM16.0165 13.2005C16.097 13.3797 16.1614 13.5233 16.213 13.6317C16.2598 13.7303 16.3149 13.8412 16.3786 13.9303L17.3549 13.2326C17.3606 13.2406 17.3459 13.22 17.2967 13.1165C17.2522 13.0228 17.1942 12.8937 17.1113 12.7091L16.0165 13.2005ZM17.6014 13.3921C17.4905 13.3698 17.4621 13.3518 17.4554 13.3475C17.4487 13.3431 17.4207 13.3246 17.3549 13.2326L16.3786 13.9303C16.4895 14.0856 16.6206 14.2365 16.8034 14.3548C16.9861 14.4731 17.1775 14.5309 17.3646 14.5685L17.6014 13.3921Z" fill="#2A4157" fill-opacity="0.24" mask="url(#path-1-outside-1_1358_3541)"/>
<path fill-rule="evenodd" clip-rule="evenodd" d="M9.49999 11.379C8.84235 11.8338 8.31447 12.4633 7.98345 13.2008L7.98028 13.2079L7.98026 13.2079C7.90133 13.3838 7.83793 13.5251 7.78704 13.6321C7.74016 13.7307 7.68512 13.8415 7.62143 13.9306C7.51045 14.0859 7.3794 14.2369 7.19664 14.3552C7.01387 14.4735 6.82249 14.5312 6.63537 14.5689C6.47671 14.6008 6.27842 14.6006 6.05733 14.6004H6.05732L5.99999 14.6004C4.67451 14.6004 3.59999 15.6749 3.59999 17.0004C3.59999 18.3258 4.67451 19.4004 5.99999 19.4004H12H18C19.3255 19.4004 20.4 18.3258 20.4 17.0004C20.4 15.6749 19.3255 14.6004 18 14.6004L17.9427 14.6004H17.9427C17.7216 14.6006 17.5233 14.6008 17.3646 14.5689C17.1775 14.5312 16.9861 14.4735 16.8034 14.3552C16.6206 14.2369 16.4895 14.0859 16.3786 13.9306C16.3149 13.8415 16.2598 13.7307 16.2129 13.6321C16.162 13.525 16.0986 13.3837 16.0196 13.2077L16.0165 13.2008C15.6855 12.4633 15.1576 11.8338 14.5 11.379V9.98804C15.6546 10.5651 16.5816 11.5292 17.1113 12.7095C17.1941 12.894 17.2522 13.0232 17.2967 13.1168C17.332 13.1911 17.3496 13.2227 17.3545 13.2317C17.3565 13.2352 17.3565 13.2352 17.3549 13.2329C17.4207 13.325 17.4487 13.3435 17.4554 13.3478C17.4621 13.3521 17.4905 13.3702 17.6014 13.3925C17.6013 13.3925 17.6013 13.3925 17.6014 13.3925C17.6031 13.3928 17.6244 13.3962 17.6913 13.3982C17.7622 13.4003 17.8565 13.4004 18 13.4004C19.9882 13.4004 21.6 15.0121 21.6 17.0004C21.6 18.9886 19.9882 20.6004 18 20.6004H12H5.99999C4.01177 20.6004 2.39999 18.9886 2.39999 17.0004C2.39999 15.0121 4.01177 13.4004 5.99999 13.4004C6.14349 13.4004 6.23774 13.4003 6.30874 13.3982C6.37559 13.3962 6.39693 13.3928 6.39857 13.3925C6.39871 13.3925 6.39871 13.3925 6.3986 13.3925C6.5095 13.3702 6.53789 13.3521 6.54457 13.3478C6.55125 13.3435 6.57933 13.325 6.64511 13.2329C6.64349 13.2352 6.64349 13.2352 6.64544 13.2317L6.64544 13.2317C6.65041 13.2227 6.66797 13.1911 6.7033 13.1168C6.74783 13.0232 6.80584 12.894 6.88866 12.7095C7.41838 11.5292 8.34543 10.5651 9.49999 9.98804V11.379Z" fill="#222222"/>
<path d="M12 3L11.5757 2.57574L12 2.15147L12.4243 2.57574L12 3ZM12.6 13C12.6 13.3314 12.3314 13.6 12 13.6C11.6686 13.6 11.4 13.3314 11.4 13L12.6 13ZM7.57574 6.57574L11.5757 2.57574L12.4243 3.42426L8.42426 7.42426L7.57574 6.57574ZM12.4243 2.57574L16.4243 6.57574L15.5757 7.42426L11.5757 3.42426L12.4243 2.57574ZM12.6 3L12.6 13L11.4 13L11.4 3L12.6 3Z" fill="#222222"/>
</svg>
