<svg width="24" height="24" viewBox="0 0 24 24" fill="none" xmlns="http://www.w3.org/2000/svg">
<path d="M5.23852 14.8117C5.63734 16.3002 6.51616 17.6154 7.73867 18.5535C8.96118 19.4915 10.4591 20 12 20C13.5409 20 15.0388 19.4915 16.2613 18.5535C17.4838 17.6154 18.3627 16.3002 18.7615 14.8117" stroke="#222222" stroke-width="1.2"/>
<path d="M12 4L11.6252 3.53148L12 3.23162L12.3748 3.53148L12 4ZM12.6 13C12.6 13.3314 12.3314 13.6 12 13.6C11.6686 13.6 11.4 13.3314 11.4 13L12.6 13ZM6.62518 7.53148L11.6252 3.53148L12.3748 4.46852L7.37482 8.46852L6.62518 7.53148ZM12.3748 3.53148L17.3748 7.53148L16.6252 8.46852L11.6252 4.46852L12.3748 3.53148ZM12.6 4L12.6 13L11.4 13L11.4 4L12.6 4Z" fill="#222222"/>
<circle r="5" transform="matrix(4.37114e-08 -1 -1 -4.37114e-08 12 15)" fill="#2A4157" fill-opacity="0.24"/>
<circle r="5.3" transform="matrix(4.37114e-08 -1 -1 -4.37114e-08 12 15)" stroke="#2A4157" stroke-opacity="0.24" stroke-width="0.6"/>
</svg>
