<svg width="24" height="24" viewBox="0 0 24 24" fill="none" xmlns="http://www.w3.org/2000/svg">
<path d="M9 21H15" stroke="#222222" stroke-linecap="round"/>
<path d="M12 21V17" stroke="#222222" stroke-linecap="round"/>
<path d="M5.5 9.28571C5.5 8.99265 5.50316 8.92982 5.51254 8.88874C5.55527 8.70149 5.70149 8.55527 5.88874 8.51254C5.92982 8.50316 5.99265 8.5 6.28571 8.5H17.7143C18.0073 8.5 18.0702 8.50316 18.1113 8.51254C18.2985 8.55527 18.4447 8.70149 18.4875 8.88874C18.4968 8.92982 18.5 8.99265 18.5 9.28571V10C18.5 10.9447 18.4989 11.3687 18.4529 11.7179C18.128 14.1859 16.1859 16.128 13.7179 16.4529C13.3687 16.4989 12.9447 16.5 12 16.5C11.0553 16.5 10.6313 16.4989 10.2821 16.4529C7.81407 16.128 5.87198 14.1859 5.54705 11.7179C5.50108 11.3687 5.5 10.9447 5.5 10V9.28571Z" stroke="#222222" stroke-linecap="round"/>
<path d="M11.5192 11.8626C11.4434 12.1282 11.5971 12.4049 11.8626 12.4808C12.1282 12.5566 12.4049 12.4029 12.4808 12.1374L11.5192 11.8626ZM13.7305 5.9432L14.2113 6.08056L13.7305 5.9432ZM14.9108 4.63569L14.7251 4.17145V4.17145L14.9108 4.63569ZM14.0845 5.07626L14.4556 5.41129L14.0845 5.07626ZM12.4808 12.1374L14.2113 6.08056L13.2498 5.80584L11.5192 11.8626L12.4808 12.1374ZM15.0965 5.09993L19.1857 3.46424L18.8143 2.53576L14.7251 4.17145L15.0965 5.09993ZM14.2113 6.08056C14.3571 5.57018 14.3961 5.4772 14.4556 5.41129L13.7133 4.74122C13.4619 5.01979 13.3686 5.38994 13.2498 5.80584L14.2113 6.08056ZM14.7251 4.17145C14.3235 4.33209 13.9648 4.46266 13.7133 4.74122L14.4556 5.41129C14.5151 5.34538 14.6036 5.29706 15.0965 5.09993L14.7251 4.17145Z" fill="#222222"/>
</svg>
