<svg width="24" height="24" viewBox="0 0 24 24" fill="none" xmlns="http://www.w3.org/2000/svg">
<path d="M21 12C21 10.1195 20.411 8.28625 19.3156 6.7577C18.2203 5.22915 16.6736 4.08209 14.893 3.47763C13.1123 2.87316 11.187 2.84166 9.38744 3.38754C7.58792 3.93341 6.00459 5.02925 4.85982 6.52115C3.71505 8.01304 3.06635 9.82604 3.00482 11.7055C2.94329 13.585 3.47203 15.4366 4.51677 17.0001C5.56152 18.5637 7.06979 19.7608 8.82975 20.4232C10.5897 21.0856 12.513 21.18 14.3294 20.6933" stroke="#222222" stroke-linecap="round"/>
<circle cx="12" cy="12" r="4" stroke="#222222"/>
<path d="M16 9V13.5C16 14.8807 17.1193 16 18.5 16V16C19.8807 16 21 14.8807 21 13.5V12" stroke="#222222" stroke-linecap="round"/>
</svg>
