<svg width="24" height="24" viewBox="0 0 24 24" fill="none" xmlns="http://www.w3.org/2000/svg">
<path d="M12 12L12.7071 11.2929L12 10.5858L11.2929 11.2929L12 12ZM18.7071 17.2929L12.7071 11.2929L11.2929 12.7071L17.2929 18.7071L18.7071 17.2929ZM11.2929 11.2929L5.29289 17.2929L6.70711 18.7071L12.7071 12.7071L11.2929 11.2929Z" fill="#33363F"/>
<path d="M12 6L12.7071 5.29289L12 4.58579L11.2929 5.29289L12 6ZM18.7071 11.2929L12.7071 5.29289L11.2929 6.70711L17.2929 12.7071L18.7071 11.2929ZM11.2929 5.29289L5.29289 11.2929L6.70711 12.7071L12.7071 6.70711L11.2929 5.29289Z" fill="#33363F"/>
</svg>
