<svg width="24" height="24" viewBox="0 0 24 24" fill="none" xmlns="http://www.w3.org/2000/svg">
<path d="M6 12L5.29289 12.7071L4.58579 12L5.29289 11.2929L6 12ZM11.2929 18.7071L5.29289 12.7071L6.70711 11.2929L12.7071 17.2929L11.2929 18.7071ZM5.29289 11.2929L11.2929 5.29289L12.7071 6.70711L6.70711 12.7071L5.29289 11.2929Z" fill="#33363F"/>
<path d="M12 12L11.2929 12.7071L10.5858 12L11.2929 11.2929L12 12ZM17.2929 18.7071L11.2929 12.7071L12.7071 11.2929L18.7071 17.2929L17.2929 18.7071ZM11.2929 11.2929L17.2929 5.29289L18.7071 6.70711L12.7071 12.7071L11.2929 11.2929Z" fill="#33363F"/>
</svg>
