<svg width="24" height="24" viewBox="0 0 24 24" fill="none" xmlns="http://www.w3.org/2000/svg">
<path d="M12 12L12.3536 11.6464L12 11.2929L11.6464 11.6464L12 12ZM18.3536 17.6464L12.3536 11.6464L11.6464 12.3536L17.6464 18.3536L18.3536 17.6464ZM11.6464 11.6464L5.64645 17.6464L6.35355 18.3536L12.3536 12.3536L11.6464 11.6464Z" fill="#222222"/>
<path d="M12 6L12.3536 5.64645L12 5.29289L11.6464 5.64645L12 6ZM18.3536 11.6464L12.3536 5.64645L11.6464 6.35355L17.6464 12.3536L18.3536 11.6464ZM11.6464 5.64645L5.64645 11.6464L6.35355 12.3536L12.3536 6.35355L11.6464 5.64645Z" fill="#222222"/>
</svg>
