<svg width="24" height="24" viewBox="0 0 24 24" fill="none" xmlns="http://www.w3.org/2000/svg">
<path d="M12 18L12.3536 18.3536L12 18.7071L11.6464 18.3536L12 18ZM18.3536 12.3536L12.3536 18.3536L11.6464 17.6464L17.6464 11.6464L18.3536 12.3536ZM11.6464 18.3536L5.64645 12.3536L6.35355 11.6464L12.3536 17.6464L11.6464 18.3536Z" fill="#222222"/>
<path d="M12 12L12.3536 12.3536L12 12.7071L11.6464 12.3536L12 12ZM18.3536 6.35355L12.3536 12.3536L11.6464 11.6464L17.6464 5.64645L18.3536 6.35355ZM11.6464 12.3536L5.64645 6.35355L6.35355 5.64645L12.3536 11.6464L11.6464 12.3536Z" fill="#222222"/>
</svg>
