<svg width="24" height="24" viewBox="0 0 24 24" fill="none" xmlns="http://www.w3.org/2000/svg">
<rect x="5" y="13" width="14" height="6" rx="2" fill="#2A4157" fill-opacity="0.24"/>
<path d="M9.85355 8.85355C9.65829 9.04882 9.34171 9.04882 9.14645 8.85355C8.95118 8.65829 8.95118 8.34171 9.14645 8.14645L9.85355 8.85355ZM12 6L11.6464 5.64645L12 5.29289L12.3536 5.64645L12 6ZM14.8536 8.14645C15.0488 8.34171 15.0488 8.65829 14.8536 8.85355C14.6583 9.04882 14.3417 9.04882 14.1464 8.85355L14.8536 8.14645ZM12.5 16C12.5 16.2761 12.2761 16.5 12 16.5C11.7239 16.5 11.5 16.2761 11.5 16L12.5 16ZM9.14645 8.14645L11.6464 5.64645L12.3536 6.35355L9.85355 8.85355L9.14645 8.14645ZM12.3536 5.64645L14.8536 8.14645L14.1464 8.85355L11.6464 6.35355L12.3536 5.64645ZM12.5 6L12.5 16L11.5 16L11.5 6L12.5 6Z" fill="#222222"/>
</svg>
