<svg width="24" height="24" viewBox="0 0 24 24" fill="none" xmlns="http://www.w3.org/2000/svg">
<path d="M12 5L11.2929 4.29289L12 3.58579L12.7071 4.29289L12 5ZM6.29289 9.29289L11.2929 4.29289L12.7071 5.70711L7.70711 10.7071L6.29289 9.29289ZM12.7071 4.29289L17.7071 9.29289L16.2929 10.7071L11.2929 5.70711L12.7071 4.29289ZM13 5L13 11.5L11 11.5L11 5L13 5Z" fill="#222222"/>
<path fill-rule="evenodd" clip-rule="evenodd" d="M11 13V16.5C11 17.0523 11.4477 17.5 12 17.5C12.5523 17.5 13 17.0523 13 16.5V13H18C19.1046 13 20 13.8954 20 15V19C20 20.1046 19.1046 21 18 21H6C4.89543 21 4 20.1046 4 19V15C4 13.8954 4.89543 13 6 13H11Z" fill="#222222"/>
</svg>
