<svg width="24" height="24" viewBox="0 0 24 24" fill="none" xmlns="http://www.w3.org/2000/svg">
<path fill-rule="evenodd" clip-rule="evenodd" d="M2.97924 10.2709C4.36454 8.19808 7.26851 5 12 5C16.7314 5 19.6354 8.19808 21.0207 10.2709C21.4855 10.9665 21.718 11.3143 21.6968 11.9569C21.6757 12.5995 21.4088 12.9469 20.8752 13.6417C19.2861 15.7107 16.1129 19 12 19C7.88699 19 4.71384 15.7107 3.12471 13.6417C2.59106 12.9469 2.32424 12.5995 2.30308 11.9569C2.28193 11.3143 2.51436 10.9665 2.97924 10.2709ZM11.9999 16C14.2091 16 15.9999 14.2091 15.9999 12C15.9999 9.79086 14.2091 8 11.9999 8C9.79081 8 7.99995 9.79086 7.99995 12C7.99995 14.2091 9.79081 16 11.9999 16Z" fill="#222222"/>
</svg>
