<svg width="24" height="24" viewBox="0 0 24 24" fill="none" xmlns="http://www.w3.org/2000/svg">
<path fill-rule="evenodd" clip-rule="evenodd" d="M12.4037 20.8018C14.0282 19.9702 20 16.5681 20 11.5C20 7 16.2667 4 12 4C7.87627 4 4 7 4 11.5C4 16.5681 9.97178 19.9702 11.5963 20.8018C11.8532 20.9334 12.1468 20.9334 12.4037 20.8018ZM11.7687 14.7565L8.97014 11.8107C8.3998 11.2103 8.31058 10.2991 8.75365 9.5995C9.49154 8.43441 11.2101 8.4922 11.868 9.70422L11.9376 9.83247C11.9645 9.88195 12.0355 9.88195 12.0624 9.83247L12.132 9.70422C12.7899 8.4922 14.5085 8.43441 15.2463 9.5995C15.6894 10.2991 15.6002 11.2103 15.0299 11.8107L12.2313 14.7565C12.1386 14.8541 12.0922 14.9029 12.0359 14.9142C12.0122 14.919 11.9878 14.919 11.9641 14.9142C11.9078 14.9029 11.8614 14.8541 11.7687 14.7565Z" fill="#33363F"/>
</svg>
