<svg width="24" height="24" viewBox="0 0 24 24" fill="none" xmlns="http://www.w3.org/2000/svg">
<path d="M20 11.5C20 16.5681 14.0282 19.9702 12.4037 20.8018C12.1468 20.9334 11.8532 20.9334 11.5963 20.8018C9.97178 19.9702 4 16.5681 4 11.5C4 7 7.87627 4 12 4C16.2667 4 20 7 20 11.5Z" stroke="#33363F" stroke-width="2"/>
<path d="M8.97014 11.8107L11.7687 14.7565C11.8614 14.8541 11.9078 14.9029 11.9641 14.9142C11.9878 14.919 12.0122 14.919 12.0359 14.9142C12.0922 14.9029 12.1386 14.8541 12.2313 14.7565L15.0299 11.8107C15.6002 11.2103 15.6894 10.2991 15.2463 9.5995C14.5085 8.43441 12.7899 8.4922 12.132 9.70422L12.0624 9.83247C12.0355 9.88195 11.9645 9.88195 11.9376 9.83247L11.868 9.70422C11.2101 8.4922 9.49154 8.43441 8.75365 9.5995C8.31058 10.2991 8.3998 11.2103 8.97014 11.8107Z" stroke="#33363F" stroke-width="2"/>
</svg>
