<svg width="24" height="24" viewBox="0 0 24 24" fill="none" xmlns="http://www.w3.org/2000/svg">
<path d="M19.5 11C19.5 16.018 14.0117 19.4027 12.4249 20.2764C12.1568 20.424 11.8432 20.424 11.5751 20.2764C9.98831 19.4027 4.5 16.018 4.5 11C4.5 6.5 8.13401 3.5 12 3.5C16 3.5 19.5 6.5 19.5 11Z" stroke="#222222"/>
<path d="M8.28603 11.786L11.7429 15.2429C11.8641 15.3641 11.9247 15.4247 12 15.4247C12.0753 15.4247 12.1359 15.3641 12.2571 15.2429L15.714 11.786C16.4617 11.0383 16.5778 9.86663 15.9912 8.98673C15.0763 7.61452 13.0373 7.68475 12.2191 9.11664L12.078 9.36358C12.0435 9.4239 11.9565 9.4239 11.922 9.36358L11.7809 9.11664C10.9627 7.68475 8.92365 7.61452 8.00885 8.98673C7.42225 9.86663 7.53826 11.0383 8.28603 11.786Z" stroke="#222222"/>
</svg>
