<svg width="24" height="24" viewBox="0 0 24 24" fill="none" xmlns="http://www.w3.org/2000/svg">
<rect x="5" y="8" width="11" height="13" rx="2" fill="#2A4157" fill-opacity="0.24"/>
<path d="M8 14L14 14" stroke="#222222" stroke-width="1.2" stroke-linecap="round"/>
<path d="M8 11L12 11" stroke="#222222" stroke-width="1.2" stroke-linecap="round"/>
<path d="M8 17L12 17" stroke="#222222" stroke-width="1.2" stroke-linecap="round"/>
<path d="M19 13V15C19 17.8284 19 19.2426 18.1213 20.1213C17.2426 21 15.8284 21 13 21H11C8.17157 21 6.75736 21 5.87868 20.1213C5 19.2426 5 17.8284 5 15V9C5 6.17157 5 4.75736 5.87868 3.87868C6.75736 3 8.17157 3 11 3H12" stroke="#222222" stroke-width="1.2" stroke-linecap="round"/>
<path d="M18 3L18 9" stroke="#222222" stroke-width="1.2" stroke-linecap="round"/>
<path d="M21 6L15 6" stroke="#222222" stroke-width="1.2" stroke-linecap="round"/>
</svg>
