<svg width="24" height="24" viewBox="0 0 24 24" fill="none" xmlns="http://www.w3.org/2000/svg">
<path d="M15.4991 16.9218L14.9992 16.932L14.9993 16.9328L15.4991 16.9218ZM8.5 17.0004L9 17.0004L8.5 17.0004ZM12.0859 11.5642L11.7837 11.9626L12.0859 11.5642ZM11.6119 11.1658C11.3275 11.3815 10.4392 12.0883 9.61737 13.1C8.80358 14.1019 7.99995 15.4704 7.99994 17.0004L8.99994 17.0004C8.99995 15.8106 9.63467 14.6648 10.3936 13.7305C11.1445 12.806 11.9632 12.1545 12.2162 11.9626L11.6119 11.1658ZM15.999 16.9117C15.9684 15.4034 15.1657 14.0571 14.3586 13.0706C13.5437 12.0747 12.6698 11.3795 12.388 11.1658L11.7837 11.9626C12.0342 12.1525 12.8396 12.7934 13.5847 13.7039C14.3375 14.624 14.9754 15.7547 14.9992 16.932L15.999 16.9117ZM14.9993 16.9328C14.9998 16.9552 15 16.9776 15 17.0001H16C16 16.9703 15.9997 16.9405 15.999 16.9109L14.9993 16.9328ZM15 17.0001C15 18.657 13.6569 20.0001 12 20.0001V21.0001C14.2091 21.0001 16 19.2093 16 17.0001H15ZM12 20.0001C10.3432 20.0001 9.00014 18.6571 9 17.0004L8 17.0005C8.00019 19.2095 9.79098 21.0001 12 21.0001V20.0001ZM7.99994 17.0004C7.99994 17.2754 8.22267 17.5004 8.49997 17.5004V16.5004C8.77723 16.5004 8.99994 16.7254 8.99994 17.0004L7.99994 17.0004ZM9 17.0004C8.99998 16.7293 8.78117 16.5004 8.49997 16.5004V17.5004C8.2188 17.5004 8.00002 17.2715 8 17.0005L9 17.0004ZM12.2162 11.9626C12.0888 12.0593 11.9114 12.0594 11.7837 11.9626L12.388 11.1658C12.1582 10.9915 11.8415 10.9917 11.6119 11.1658L12.2162 11.9626Z" fill="#2A4157" fill-opacity="0.24"/>
<path d="M18.0052 16.4884L17.5433 16.297L18.0052 16.4884ZM16.5962 18.5971L16.9497 18.9507H16.9497L16.5962 18.5971ZM14.4874 20.0061L14.2961 19.5442L14.2961 19.5442L14.4874 20.0061ZM9.51256 20.0061L9.7039 19.5442H9.7039L9.51256 20.0061ZM7.40381 18.5971L7.75736 18.2436H7.75736L7.40381 18.5971ZM5.99478 16.4884L5.53284 16.6797H5.53284L5.99478 16.4884ZM15.4072 6.58312L15.0664 6.21724L15.4072 6.58312ZM15.5914 6.58184L15.9321 6.21583L15.5914 6.58184ZM14.3536 7.48159L14.7629 7.19445L14.3536 7.48159ZM14.6027 7.48614L14.9998 7.7899L14.6027 7.48614ZM11.4202 4.54841L11.6837 4.97335L11.4202 4.54841ZM11.577 4.5562L11.2775 4.95663L11.577 4.5562ZM11.1567 4.12347C10.7792 4.35757 9.25266 5.35391 7.81554 7.01613C6.37866 8.67808 5 11.043 5 14.0009H6C6 11.3677 7.22635 9.2266 8.57201 7.67016C9.91745 6.11398 11.351 5.1796 11.6837 4.97335L11.1567 4.12347ZM14.7629 7.19445C13.5479 5.46236 12.2233 4.4152 11.8764 4.15577L11.2775 4.95663C11.5755 5.17945 12.8113 6.15362 13.9443 7.76873L14.7629 7.19445ZM14.9998 7.7899C15.3371 7.34891 15.6197 7.06843 15.748 6.94899L15.0664 6.21724C14.9037 6.36877 14.5819 6.69032 14.2055 7.18238L14.9998 7.7899ZM15.2508 6.94784C15.6999 7.36582 18 9.71583 18 13.9999H19C19 9.3298 16.4885 6.73372 15.9321 6.21583L15.2508 6.94784ZM18 13.9999V14.0009H19V13.9999H18ZM18 14.0009C18 14.7888 17.8448 15.5691 17.5433 16.297L18.4672 16.6797C18.8189 15.8304 19 14.9202 19 14.0009H18ZM17.5433 16.297C17.2417 17.025 16.7998 17.6864 16.2426 18.2436L16.9497 18.9507C17.5998 18.3007 18.1154 17.529 18.4672 16.6797L17.5433 16.297ZM16.2426 18.2436C15.6855 18.8007 15.0241 19.2427 14.2961 19.5442L14.6788 20.4681C15.5281 20.1163 16.2997 19.6007 16.9497 18.9507L16.2426 18.2436ZM14.2961 19.5442C13.5681 19.8457 12.7879 20.0009 12 20.0009V21.0009C12.9193 21.0009 13.8295 20.8199 14.6788 20.4681L14.2961 19.5442ZM12 20.0009C11.2121 20.0009 10.4319 19.8457 9.7039 19.5442L9.32122 20.4681C10.1705 20.8199 11.0807 21.0009 12 21.0009V20.0009ZM9.7039 19.5442C8.97595 19.2427 8.31451 18.8007 7.75736 18.2436L7.05025 18.9507C7.70026 19.6007 8.47194 20.1163 9.32122 20.4681L9.7039 19.5442ZM7.75736 18.2436C7.20021 17.6864 6.75825 17.025 6.45672 16.297L5.53284 16.6797C5.88463 17.529 6.40024 18.3007 7.05025 18.9507L7.75736 18.2436ZM6.45672 16.297C6.15519 15.5691 6 14.7888 6 14.0009H5C5 14.9202 5.18106 15.8304 5.53284 16.6797L6.45672 16.297ZM15.748 6.94899C15.6154 7.07251 15.3961 7.08306 15.2508 6.94784L15.9321 6.21583C15.6808 5.98195 15.305 5.995 15.0664 6.21724L15.748 6.94899ZM13.9443 7.76873C14.2 8.13332 14.7335 8.13813 14.9998 7.7899L14.2055 7.18238C14.3456 6.99919 14.6265 6.99994 14.7629 7.19445L13.9443 7.76873ZM11.6837 4.97335C11.5526 5.05465 11.3896 5.04043 11.2775 4.95663L11.8764 4.15577C11.6706 4.00186 11.3873 3.98046 11.1567 4.12347L11.6837 4.97335Z" fill="#222222"/>
</svg>
