<svg width="24" height="24" viewBox="0 0 24 24" fill="none" xmlns="http://www.w3.org/2000/svg">
<path d="M10.3671 4.06132C9.6671 4.56707 5 8.15805 5 13.9996C5 14.9188 5.18106 15.8291 5.53284 16.6784C5.88463 17.5277 6.40024 18.2993 7.05025 18.9493C7.70026 19.5993 8.47194 20.115 9.32122 20.4667C10.146 20.8084 11.0282 20.989 11.9203 20.9991C9.74796 20.9567 8 19.1824 8 16.9999C8 16.8024 8.01432 16.6082 8.04197 16.4184C8.04315 16.4071 8.04459 16.3957 8.04628 16.3843C8.3817 14.1305 10.4553 12.2171 11.4581 11.4101C11.7785 11.1523 12.2216 11.1523 12.5421 11.4101C13.5448 12.2171 15.6183 14.1305 15.9537 16.3843C15.9554 16.3957 15.9569 16.4071 15.958 16.4184C15.9857 16.6082 16 16.8024 16 16.9999C16 19.1824 14.252 20.9567 12.0797 20.9991C12.9718 20.989 13.854 20.8084 14.6788 20.4667C15.5281 20.115 16.2997 19.5993 16.9497 18.9493C17.5998 18.2993 18.1154 17.5277 18.4672 16.6784C18.807 15.8579 18.9875 14.9804 18.9994 14.093C18.9998 14.0815 19 14.07 19 14.0584L18.9999 14.0268L19 13.9997C18.9736 9.75902 16.1044 7.4446 15.5813 7.05781C15.5323 7.02155 15.4671 7.02196 15.4181 7.05823C15.2083 7.21337 14.6241 7.67639 13.9967 8.44729C13.9251 8.53521 13.7845 8.5184 13.7361 8.41591C12.5573 5.92135 10.9243 4.40726 10.5386 4.07102C10.4888 4.02764 10.4206 4.02266 10.3671 4.06132Z" fill="#222222"/>
</svg>
