<svg width="24" height="24" viewBox="0 0 24 24" fill="none" xmlns="http://www.w3.org/2000/svg">
<path d="M5 13V3.5C5 3.2643 5 3.14645 5.07322 3.07322C5.14645 3 5.2643 3 5.5 3H9.59582C9.79537 3 9.89514 3 9.98528 3.03643C10.0754 3.07286 10.1472 3.14219 10.2907 3.28084L11.7793 4.71916C11.9228 4.85781 11.9946 4.92714 12.0847 4.96357C12.1749 5 12.2746 5 12.4742 5H18.67C18.9127 5 19.034 5 19.0767 5.07817C19.1193 5.15635 19.0536 5.25838 18.9222 5.46243L16.1743 9.72928C16.0897 9.86074 16.0474 9.92646 16.0474 10C16.0474 10.0735 16.0897 10.1393 16.1743 10.2707L18.9222 14.5376C19.0536 14.7416 19.1193 14.8437 19.0767 14.9218C19.034 15 18.9127 15 18.67 15H12.4742C12.2746 15 12.1749 15 12.0847 14.9636C11.9946 14.9271 11.9228 14.8578 11.7793 14.7192L10.2907 13.2808C10.1472 13.1422 10.0754 13.0729 9.98528 13.0364C9.89514 13 9.79537 13 9.59582 13H5ZM5 13V19" stroke="#33363F" stroke-width="2" stroke-linecap="round"/>
<path d="M12 5V8" stroke="#33363F" stroke-width="2" stroke-linecap="round"/>
</svg>
