<svg width="24" height="24" viewBox="0 0 24 24" fill="none" xmlns="http://www.w3.org/2000/svg">
<path d="M16.577 8.52566L6.65811 5.21937C6.3578 5.11927 6.20764 5.06921 6.10382 5.14405C6 5.21888 6 5.37716 6 5.69371V13L16.577 9.47434C17.1653 9.27824 17.4594 9.18019 17.4594 9C17.4594 8.81981 17.1653 8.72176 16.577 8.52566Z" fill="#222222"/>
<path d="M6 13V5.69371C6 5.37716 6 5.21888 6.10382 5.14405C6.20764 5.06921 6.3578 5.11927 6.65811 5.21937L16.577 8.52566C17.1653 8.72176 17.4594 8.81981 17.4594 9C17.4594 9.18019 17.1653 9.27824 16.577 9.47434L6 13ZM6 13V18V19" stroke="#222222" stroke-width="2" stroke-linecap="round"/>
</svg>
