<svg width="24" height="24" viewBox="0 0 24 24" fill="none" xmlns="http://www.w3.org/2000/svg">
<path d="M19.5 17.5H4.5" stroke="#33363F" stroke-linecap="round" stroke-linejoin="round"/>
<path d="M7 17.5L8.34705 10.3157C8.43574 9.84274 8.84871 9.5 9.32993 9.5H14.6701C15.1513 9.5 15.5643 9.84274 15.6529 10.3157L17 17.5" stroke="#33363F" stroke-linecap="round" stroke-linejoin="round"/>
<path d="M21.5 9.5H18.5" stroke="#33363F" stroke-linecap="round" stroke-linejoin="round"/>
<path d="M12.5 2.5C12.5 2.22386 12.2761 2 12 2C11.7239 2 11.5 2.22386 11.5 2.5L12.5 2.5ZM11.5 5.49916C11.5 5.7753 11.7239 5.99916 12 5.99916C12.2762 5.99915 12.5 5.7753 12.5 5.49915L11.5 5.49916ZM11.5 2.5L11.5 5.49916L12.5 5.49915L12.5 2.5L11.5 2.5Z" fill="#33363F"/>
<path d="M18.8536 4.85355C19.0488 4.65829 19.0488 4.34171 18.8536 4.14645C18.6583 3.95118 18.3417 3.95118 18.1464 4.14645L18.8536 4.85355ZM16.1464 6.14645C15.9512 6.34171 15.9512 6.65829 16.1464 6.85355C16.3417 7.04882 16.6583 7.04882 16.8536 6.85355L16.1464 6.14645ZM18.1464 4.14645L16.1464 6.14645L16.8536 6.85355L18.8536 4.85355L18.1464 4.14645Z" fill="#33363F"/>
<path d="M5.14645 4.85355C4.95118 4.65829 4.95118 4.34171 5.14645 4.14645C5.34171 3.95118 5.65829 3.95118 5.85355 4.14645L5.14645 4.85355ZM7.85355 6.14645C8.04882 6.34171 8.04882 6.65829 7.85355 6.85355C7.65829 7.04882 7.34171 7.04882 7.14645 6.85355L7.85355 6.14645ZM5.85355 4.14645L7.85355 6.14645L7.14645 6.85355L5.14645 4.85355L5.85355 4.14645Z" fill="#33363F"/>
<path d="M5.5 9.5H2.5" stroke="#33363F" stroke-linecap="round" stroke-linejoin="round"/>
<path d="M12.5 11.5H13.5" stroke="#33363F" stroke-linecap="round" stroke-linejoin="round"/>
</svg>
