<svg width="24" height="24" viewBox="0 0 24 24" fill="none" xmlns="http://www.w3.org/2000/svg">
<path d="M15.5 10.5C15.5 10.5 15.5 15.077 15.5 18.5016C15.5 20.1584 14.1569 21.5 12.5 21.5V21.5C10.8431 21.5 9.5 20.1569 9.5 18.5V10.5" stroke="#33363F" stroke-linejoin="round"/>
<path d="M15.5 8C15.2239 8 15 8.22386 15 8.5C15 8.77614 15.2239 9 15.5 9V8ZM11.5 9C11.7761 9 12 8.77614 12 8.5C12 8.22386 11.7761 8 11.5 8V9ZM8.5 11H16.5V10H8.5V11ZM16.5 8H15.5V9H16.5V8ZM11.5 8H8.5V9H11.5V8ZM18 9.5C18 8.67157 17.3284 8 16.5 8V9C16.7761 9 17 9.22386 17 9.5H18ZM16.5 11C17.3284 11 18 10.3284 18 9.5H17C17 9.77614 16.7761 10 16.5 10V11ZM7 9.5C7 10.3284 7.67157 11 8.5 11V10C8.22386 10 8 9.77614 8 9.5H7ZM8 9.5C8 9.22386 8.22386 9 8.5 9V8C7.67157 8 7 8.67157 7 9.5H8Z" fill="#33363F"/>
<path d="M13.5 15.5H14C14 15.2239 13.7761 15 13.5 15V15.5ZM11.5 15.5V15C11.2239 15 11 15.2239 11 15.5H11.5ZM13 15.5V18.5H14V15.5H13ZM12 18.5V15.5H11V18.5H12ZM11.5 16H13.5V15H11.5V16ZM12.5 19C12.2239 19 12 18.7761 12 18.5H11C11 19.3284 11.6716 20 12.5 20V19ZM13 18.5C13 18.7761 12.7761 19 12.5 19V20C13.3284 20 14 19.3284 14 18.5H13Z" fill="#33363F"/>
<circle cx="16" cy="4" r="1.5" stroke="#33363F" stroke-linejoin="round"/>
<circle cx="13.5" cy="8.5" r="0.5" fill="#33363F"/>
<circle cx="9.5" cy="5.5" r="1" stroke="#33363F" stroke-linejoin="round"/>
</svg>
