<svg width="24" height="24" viewBox="0 0 24 24" fill="none" xmlns="http://www.w3.org/2000/svg">
<path d="M8.83205 12.2519L9.6641 12.8066L8.83205 12.2519ZM15.1679 12.2519L16 11.6972L15.1679 12.2519ZM19.9635 19.4453L20.7956 18.8906L19.9635 19.4453ZM19.1315 20H4.86852V22H19.1315V20ZM14 5V11.6972H16V5H14ZM14.3359 12.8066L19.1315 20L20.7956 18.8906L16 11.6972L14.3359 12.8066ZM4.86852 20L9.6641 12.8066L8 11.6972L3.20442 18.8906L4.86852 20ZM10 11.6972V5H8V11.6972H10ZM9.6641 12.8066C9.88312 12.4781 10 12.0921 10 11.6972H8L9.6641 12.8066ZM14 11.6972C14 12.0921 14.1169 12.4781 14.3359 12.8066L16 11.6972H14ZM4.86852 20H4.86852L3.20442 18.8906C2.31834 20.2197 3.27113 22 4.86852 22V20ZM19.1315 22C20.7289 22 21.6817 20.2197 20.7956 18.8906L19.1315 20V22Z" fill="#33363F"/>
<path d="M16.9 18.2L14.8 15.4C14.6111 15.1482 14.3148 15 14 15H10C9.68524 15 9.38885 15.1482 9.2 15.4L7.1 18.2C6.85279 18.5296 7.08798 19 7.5 19H16.5C16.912 19 17.1472 18.5296 16.9 18.2Z" fill="#33363F"/>
<path d="M7 5H17" stroke="#33363F" stroke-width="2" stroke-linecap="round" stroke-linejoin="round"/>
</svg>
