<svg width="24" height="24" viewBox="0 0 24 24" fill="none" xmlns="http://www.w3.org/2000/svg">
<path d="M9.33205 11.2519L9.74808 11.5293L9.33205 11.2519ZM14.6679 11.2519L15.084 10.9746L14.6679 11.2519ZM20.4635 19.9453L20.0475 20.2226L20.4635 19.9453ZM19.6315 21H4.36852V22H19.6315V21ZM14 6.5V10.6972H15V6.5H14ZM14.2519 11.5293L20.0475 20.2226L20.8796 19.6679L15.084 10.9746L14.2519 11.5293ZM3.95249 20.2226L9.74808 11.5293L8.91603 10.9746L3.12044 19.6679L3.95249 20.2226ZM10 10.6972V6.5H9V10.6972H10ZM9.74808 11.5293C9.91234 11.2829 10 10.9934 10 10.6972H9C9 10.7959 8.97078 10.8924 8.91603 10.9746L9.74808 11.5293ZM14 10.6972C14 10.9934 14.0877 11.2829 14.2519 11.5293L15.084 10.9746C15.0292 10.8924 15 10.7959 15 10.6972H14ZM4.36852 21C3.96917 21 3.73097 20.5549 3.95249 20.2226L3.12044 19.6679C2.45589 20.6648 3.17047 22 4.36852 22V21ZM19.6315 22C20.8295 22 21.5441 20.6648 20.8796 19.6679L20.0475 20.2226C20.269 20.5549 20.0308 21 19.6315 21V22Z" fill="#33363F"/>
<path d="M15.5 4C15.2239 4 15 4.22386 15 4.5C15 4.77614 15.2239 5 15.5 5V4ZM11.5 5C11.7761 5 12 4.77614 12 4.5C12 4.22386 11.7761 4 11.5 4V5ZM7.5 7H16.5V6H7.5V7ZM16.5 4H15.5V5H16.5V4ZM11.5 4H7.5V5H11.5V4ZM18 5.5C18 4.67157 17.3284 4 16.5 4V5C16.7761 5 17 5.22386 17 5.5H18ZM16.5 7C17.3284 7 18 6.32843 18 5.5H17C17 5.77614 16.7761 6 16.5 6V7ZM6 5.5C6 6.32843 6.67157 7 7.5 7V6C7.22386 6 7 5.77614 7 5.5H6ZM7 5.5C7 5.22386 7.22386 5 7.5 5V4C6.67157 4 6 4.67157 6 5.5H7Z" fill="#33363F"/>
<circle cx="13.5" cy="4.5" r="0.5" fill="#33363F"/>
<path d="M15 15.5L15.424 15.235C15.3326 15.0888 15.1724 15 15 15V15.5ZM17.5 19.5V20C17.6818 20 17.8492 19.9014 17.9373 19.7424C18.0254 19.5834 18.0203 19.3891 17.924 19.235L17.5 19.5ZM6.5 19.5L6.076 19.235C5.97967 19.3891 5.97457 19.5834 6.06268 19.7424C6.15079 19.9014 6.31824 20 6.5 20V19.5ZM9 15.5V15C8.82761 15 8.66737 15.0888 8.576 15.235L9 15.5ZM14.576 15.765L17.076 19.765L17.924 19.235L15.424 15.235L14.576 15.765ZM17.5 19H6.5V20H17.5V19ZM6.924 19.765L9.424 15.765L8.576 15.235L6.076 19.235L6.924 19.765ZM9 16H15V15H9V16Z" fill="#33363F"/>
</svg>
