<svg width="24" height="24" viewBox="0 0 24 24" fill="none" xmlns="http://www.w3.org/2000/svg">
<path d="M12 3L11.6464 2.64645L12 2.29289L12.3536 2.64645L12 3ZM12.5 14C12.5 14.2761 12.2761 14.5 12 14.5C11.7239 14.5 11.5 14.2761 11.5 14L12.5 14ZM6.64645 7.64645L11.6464 2.64645L12.3536 3.35355L7.35355 8.35355L6.64645 7.64645ZM12.3536 2.64645L17.3536 7.64645L16.6464 8.35355L11.6464 3.35355L12.3536 2.64645ZM12.5 3L12.5 14L11.5 14L11.5 3L12.5 3Z" fill="#222222"/>
<path d="M12 21L11.6464 21.3536L12 21.7071L12.3536 21.3536L12 21ZM12.5 14C12.5 13.7239 12.2761 13.5 12 13.5C11.7239 13.5 11.5 13.7239 11.5 14L12.5 14ZM6.64645 16.3536L11.6464 21.3536L12.3536 20.6464L7.35355 15.6464L6.64645 16.3536ZM12.3536 21.3536L17.3536 16.3536L16.6464 15.6464L11.6464 20.6464L12.3536 21.3536ZM12.5 21L12.5 14L11.5 14L11.5 21L12.5 21Z" fill="#222222"/>
</svg>
