<svg width="24" height="24" viewBox="0 0 24 24" fill="none" xmlns="http://www.w3.org/2000/svg">
<path d="M12 3L11.2929 2.29289L12 1.58579L12.7071 2.29289L12 3ZM13 14C13 14.5523 12.5523 15 12 15C11.4477 15 11 14.5523 11 14L13 14ZM6.29289 7.29289L11.2929 2.29289L12.7071 3.70711L7.70711 8.70711L6.29289 7.29289ZM12.7071 2.29289L17.7071 7.29289L16.2929 8.70711L11.2929 3.70711L12.7071 2.29289ZM13 3L13 14L11 14L11 3L13 3Z" fill="#33363F"/>
<path d="M12 21L11.2929 21.7071L12 22.4142L12.7071 21.7071L12 21ZM13 14C13 13.4477 12.5523 13 12 13C11.4477 13 11 13.4477 11 14L13 14ZM6.29289 16.7071L11.2929 21.7071L12.7071 20.2929L7.70711 15.2929L6.29289 16.7071ZM12.7071 21.7071L17.7071 16.7071L16.2929 15.2929L11.2929 20.2929L12.7071 21.7071ZM13 21L13 14L11 14L11 21L13 21Z" fill="#33363F"/>
</svg>
