<svg width="24" height="24" viewBox="0 0 24 24" fill="none" xmlns="http://www.w3.org/2000/svg">
<path d="M16 20H18.4C18.9601 20 19.2401 20 19.454 19.891C19.6422 19.7951 19.7951 19.6422 19.891 19.454C20 19.2401 20 18.9601 20 18.4V9.6C20 9.03995 20 8.75992 19.891 8.54601C19.7951 8.35785 19.6422 8.20487 19.454 8.10899C19.2401 8 18.9601 8 18.4 8H13.6627C13.4182 8 13.2959 8 13.1808 7.97237C13.0787 7.94787 12.9812 7.90747 12.8917 7.85264C12.7908 7.7908 12.7043 7.70432 12.5314 7.53137L10.4686 5.46863C10.2957 5.29568 10.2092 5.2092 10.1083 5.14736C10.0188 5.09253 9.92127 5.05213 9.81923 5.02763C9.70414 5 9.58185 5 9.33726 5H5.6C5.03995 5 4.75992 5 4.54601 5.10899C4.35785 5.20487 4.20487 5.35785 4.10899 5.54601C4 5.75992 4 6.03995 4 6.6V18.4C4 18.9601 4 19.2401 4.10899 19.454C4.20487 19.6422 4.35785 19.7951 4.54601 19.891C4.75992 20 5.03995 20 5.6 20H8" stroke="#33363F" stroke-width="2" stroke-linejoin="round"/>
<path d="M12 12L9 15M12 12L15 15M12 12L12 19" stroke="#33363F" stroke-width="2"/>
</svg>
