<svg width="24" height="24" viewBox="0 0 24 24" fill="none" xmlns="http://www.w3.org/2000/svg">
<path d="M6 7C6 5.11438 6 4.17157 6.58579 3.58579C7.17157 3 8.11438 3 10 3H14C15.8856 3 16.8284 3 17.4142 3.58579C18 4.17157 18 5.11438 18 7V9C18 10.8856 18 11.8284 17.4142 12.4142C16.8284 13 15.8856 13 14 13H10C8.11438 13 7.17157 13 6.58579 12.4142C6 11.8284 6 10.8856 6 9V7Z" fill="#222222"/>
<path d="M5 8H10.1716C10.702 8 11.2107 8.21071 11.5858 8.58579L13.4142 10.4142C13.7893 10.7893 14.298 11 14.8284 11H21.5" stroke="white" stroke-width="2"/>
<path d="M3 12H17.8C18.9201 12 19.4802 12 19.908 12.218C20.2843 12.4097 20.5903 12.7157 20.782 13.092C21 13.5198 21 14.0799 21 15.2V17.8C21 18.9201 21 19.4802 20.782 19.908C20.5903 20.2843 20.2843 20.5903 19.908 20.782C19.4802 21 18.9201 21 17.8 21H6.2C5.0799 21 4.51984 21 4.09202 20.782C3.71569 20.5903 3.40973 20.2843 3.21799 19.908C3 19.4802 3 18.9201 3 17.8V12Z" fill="#222222"/>
<path d="M3 12C3 11.0681 3 10.6022 3.15224 10.2346C3.35523 9.74458 3.74458 9.35523 4.23463 9.15224C4.60218 9 5.06812 9 6 9H8.34315C9.16065 9 9.5694 9 9.93694 9.15224C10.3045 9.30448 10.5935 9.59351 11.1716 10.1716L13 12H3Z" fill="#222222"/>
</svg>
