<svg width="24" height="24" viewBox="0 0 24 24" fill="none" xmlns="http://www.w3.org/2000/svg">
<path d="M14.1159 8.32009C14.2109 8.43409 14.3516 8.5 14.5 8.5H16.8C17.3683 8.5 17.7645 8.50039 18.0729 8.52559C18.3755 8.55031 18.5493 8.5964 18.681 8.66349C18.9632 8.8073 19.1927 9.03677 19.3365 9.31901C19.4036 9.45069 19.4497 9.62454 19.4744 9.92712C19.4996 10.2355 19.5 10.6317 19.5 11.2V13.8C19.5 14.3683 19.4996 14.7645 19.4744 15.0729C19.4497 15.3755 19.4036 15.5493 19.3365 15.681C19.1927 15.9632 18.9632 16.1927 18.681 16.3365C18.5493 16.4036 18.3755 16.4497 18.0729 16.4744C17.7645 16.4996 17.3683 16.5 16.8 16.5H9.2C8.6317 16.5 8.23554 16.4996 7.92712 16.4744C7.62454 16.4497 7.45069 16.4036 7.31901 16.3365C7.03677 16.1927 6.8073 15.9632 6.66349 15.681C6.5964 15.5493 6.55031 15.3755 6.52559 15.0729C6.50039 14.7645 6.5 14.3683 6.5 13.8V8.2C6.5 7.6317 6.50039 7.23554 6.52559 6.92712C6.55031 6.62454 6.5964 6.45069 6.66349 6.31901C6.8073 6.03677 7.03677 5.8073 7.31901 5.66349C7.45069 5.5964 7.62454 5.55031 7.92712 5.52559C8.23554 5.50039 8.6317 5.5 9.2 5.5H10.5012C11.0792 5.5 11.2764 5.50402 11.453 5.55151C11.6226 5.59714 11.7829 5.67222 11.9265 5.77332C12.076 5.87852 12.2054 6.02748 12.5754 6.4715L14.1159 8.32009Z" stroke="#222222" stroke-linejoin="round"/>
<path d="M17 16V17.6C17 18.4401 17 18.8601 16.8365 19.181C16.6927 19.4632 16.4632 19.6927 16.181 19.8365C15.8601 20 15.4401 20 14.6 20H5.4C4.55992 20 4.13988 20 3.81901 19.8365C3.53677 19.6927 3.3073 19.4632 3.16349 19.181C3 18.8601 3 18.4401 3 17.6V10.4C3 9.55992 3 9.13988 3.16349 8.81901C3.3073 8.53677 3.53677 8.3073 3.81901 8.16349C4.13988 8 4.55992 8 5.4 8H7" stroke="#222222" stroke-linejoin="round"/>
</svg>
