<svg width="24" height="24" viewBox="0 0 24 24" fill="none" xmlns="http://www.w3.org/2000/svg">
<path d="M7.5 4.5V6.9C7.5 7.46005 7.5 7.74008 7.60899 7.95399C7.70487 8.14215 7.85785 8.29513 8.04601 8.39101C8.25992 8.5 8.53995 8.5 9.1 8.5H11" stroke="#33363F"/>
<path d="M7.5 4.5V14.9C7.5 15.4601 7.5 15.7401 7.60899 15.954C7.70487 16.1422 7.85785 16.2951 8.04601 16.391C8.25992 16.5 8.53995 16.5 9.1 16.5H11" stroke="#33363F"/>
<path d="M13.5 7.1C13.5 6.53995 13.5 6.25992 13.609 6.04601C13.7049 5.85785 13.8578 5.70487 14.046 5.60899C14.2599 5.5 14.5399 5.5 15.1 5.5H15.3371C15.5817 5.5 15.7041 5.5 15.8192 5.52764C15.9212 5.55215 16.0188 5.59258 16.1083 5.64743C16.2092 5.70931 16.2957 5.79582 16.4687 5.96886L16.5312 6.03144C16.7042 6.20451 16.7907 6.29105 16.8917 6.35293C16.9812 6.40779 17.0788 6.44821 17.1809 6.47272C17.296 6.50035 17.4184 6.50033 17.6631 6.50029L17.8997 6.50026C18.4599 6.50017 18.7399 6.50012 18.9539 6.6091C19.1421 6.70497 19.2951 6.85795 19.391 7.04613C19.5 7.26006 19.5 7.54012 19.5 8.10026V8.9C19.5 9.46005 19.5 9.74008 19.391 9.95399C19.2951 10.1422 19.1422 10.2951 18.954 10.391C18.7401 10.5 18.4601 10.5 17.9 10.5H15.1C14.5399 10.5 14.2599 10.5 14.046 10.391C13.8578 10.2951 13.7049 10.1422 13.609 9.95399C13.5 9.74008 13.5 9.46005 13.5 8.9V7.1Z" stroke="#222222"/>
<path d="M13.5 15.1C13.5 14.5399 13.5 14.2599 13.609 14.046C13.7049 13.8578 13.8578 13.7049 14.046 13.609C14.2599 13.5 14.5399 13.5 15.1 13.5H15.3371C15.5817 13.5 15.7041 13.5 15.8192 13.5276C15.9212 13.5522 16.0188 13.5926 16.1083 13.6474C16.2092 13.7093 16.2957 13.7958 16.4687 13.9689L16.5312 14.0314C16.7042 14.2045 16.7907 14.291 16.8917 14.3529C16.9812 14.4078 17.0788 14.4482 17.1809 14.4727C17.296 14.5004 17.4184 14.5003 17.6631 14.5003L17.8997 14.5003C18.4599 14.5002 18.7399 14.5001 18.9539 14.6091C19.1421 14.705 19.2951 14.858 19.391 15.0461C19.5 15.2601 19.5 15.5401 19.5 16.1003V16.9C19.5 17.4601 19.5 17.7401 19.391 17.954C19.2951 18.1422 19.1422 18.2951 18.954 18.391C18.7401 18.5 18.4601 18.5 17.9 18.5H15.1C14.5399 18.5 14.2599 18.5 14.046 18.391C13.8578 18.2951 13.7049 18.1422 13.609 17.954C13.5 17.7401 13.5 17.4601 13.5 16.9V15.1Z" stroke="#222222"/>
</svg>
