<svg width="24" height="24" viewBox="0 0 24 24" fill="none" xmlns="http://www.w3.org/2000/svg">
<path d="M14.5 18.5004H5.9C5.05992 18.5004 4.63988 18.5004 4.31901 18.3369C4.03677 18.1931 3.8073 17.9636 3.66349 17.6814C3.5 17.3605 3.5 16.9405 3.5 16.1004V6.9C3.5 6.05992 3.5 5.63988 3.66349 5.31901C3.8073 5.03677 4.03677 4.8073 4.31901 4.66349C4.63988 4.5 5.05992 4.5 5.9 4.5H8.47237C8.84808 4.5 9.03594 4.5 9.20646 4.55179C9.35741 4.59763 9.49785 4.6728 9.61972 4.77298C9.75739 4.88614 9.86159 5.04245 10.07 5.35507L10.93 6.64533C11.1384 6.95795 11.2426 7.11426 11.3803 7.22742C11.5022 7.3276 11.6426 7.40277 11.7935 7.44861C11.9641 7.5004 12.1519 7.5004 12.5276 7.5004H16.5004C16.965 7.5004 17.1973 7.5004 17.3879 7.55143C17.9058 7.69008 18.3103 8.09459 18.449 8.61248C18.5 8.80308 18.5 9.03539 18.5 9.5V9.5M9.5 13.5H16.5" stroke="#222222" stroke-linecap="round"/>
<path d="M5.95298 11.1411C6.14969 10.551 6.24804 10.2559 6.43047 10.0378C6.59157 9.84512 6.79845 9.69601 7.03216 9.6041C7.2968 9.50002 7.60783 9.50003 8.2299 9.50005L18.1703 9.50031C19.2945 9.50034 19.8566 9.50036 20.2255 9.7357C20.5485 9.94171 20.7804 10.2635 20.8737 10.635C20.9803 11.0595 20.8025 11.5928 20.447 12.6593L19.047 16.8593C18.8503 17.4495 18.752 17.7445 18.5695 17.9627C18.4084 18.1553 18.2016 18.3044 17.9679 18.3963C17.7032 18.5004 17.3922 18.5004 16.7702 18.5004H6.82977C5.70557 18.5004 5.14347 18.5004 4.77449 18.2651C4.4515 18.0591 4.21958 17.7373 4.12628 17.3657C4.01969 16.9413 4.19744 16.408 4.55293 15.3415L5.95298 11.1411Z" stroke="#222222"/>
</svg>
