<svg width="24" height="24" viewBox="0 0 24 24" fill="none" xmlns="http://www.w3.org/2000/svg">
<path d="M7 2V4.8C7 5.92011 7 6.48016 7.21799 6.90798C7.40973 7.28431 7.71569 7.59027 8.09202 7.78201C8.51984 8 9.0799 8 10.2 8H15" stroke="#33363F" stroke-width="2"/>
<path d="M7 5V14.8C7 15.9201 7 16.4802 7.21799 16.908C7.40973 17.2843 7.71569 17.5903 8.09202 17.782C8.51984 18 9.0799 18 10.2 18H15" stroke="#33363F" stroke-width="2"/>
<path d="M15 16.6C15 16.0399 15 15.7599 15.109 15.546C15.2049 15.3578 15.3578 15.2049 15.546 15.109C15.7599 15 16.0399 15 16.6 15H17L18 16H19.4C19.9601 16 20.2401 16 20.454 16.109C20.6422 16.2049 20.7951 16.3578 20.891 16.546C21 16.7599 21 17.0399 21 17.6V19.4C21 19.9601 21 20.2401 20.891 20.454C20.7951 20.6422 20.6422 20.7951 20.454 20.891C20.2401 21 19.9601 21 19.4 21H16.6C16.0399 21 15.7599 21 15.546 20.891C15.3578 20.7951 15.2049 20.6422 15.109 20.454C15 20.2401 15 19.9601 15 19.4V16.6Z" stroke="#33363F" stroke-width="2" stroke-linejoin="round"/>
<path d="M15 6.6C15 6.03995 15 5.75992 15.109 5.54601C15.2049 5.35785 15.3578 5.20487 15.546 5.10899C15.7599 5 16.0399 5 16.6 5H17L18 6H19.4C19.9601 6 20.2401 6 20.454 6.10899C20.6422 6.20487 20.7951 6.35785 20.891 6.54601C21 6.75992 21 7.03995 21 7.6V9.4C21 9.96005 21 10.2401 20.891 10.454C20.7951 10.6422 20.6422 10.7951 20.454 10.891C20.2401 11 19.9601 11 19.4 11H16.6C16.0399 11 15.7599 11 15.546 10.891C15.3578 10.7951 15.2049 10.6422 15.109 10.454C15 10.2401 15 9.96005 15 9.4V6.6Z" stroke="#33363F" stroke-width="2" stroke-linejoin="round"/>
</svg>
