<svg width="24" height="24" viewBox="0 0 24 24" fill="none" xmlns="http://www.w3.org/2000/svg">
<rect x="6" y="3" width="12" height="10" rx="2" fill="#2A4157" fill-opacity="0.24"/>
<path d="M3 10H17.8C18.9201 10 19.4802 10 19.908 10.218C20.2843 10.4097 20.5903 10.7157 20.782 11.092C21 11.5198 21 12.0799 21 13.2V17.8C21 18.9201 21 19.4802 20.782 19.908C20.5903 20.2843 20.2843 20.5903 19.908 20.782C19.4802 21 18.9201 21 17.8 21H6.2C5.0799 21 4.51984 21 4.09202 20.782C3.71569 20.5903 3.40973 20.2843 3.21799 19.908C3 19.4802 3 18.9201 3 17.8V10Z" fill="#222222"/>
<path d="M3 10C3 9.06812 3 8.60218 3.15224 8.23463C3.35523 7.74458 3.74458 7.35523 4.23463 7.15224C4.60218 7 5.06812 7 6 7H8.34315C9.16065 7 9.5694 7 9.93694 7.15224C10.3045 7.30448 10.5935 7.59351 11.1716 8.17157L13 10H3Z" fill="#222222"/>
</svg>
