<svg width="24" height="24" viewBox="0 0 24 24" fill="none" xmlns="http://www.w3.org/2000/svg">
<path d="M9 13H12M12 13H15M12 13V16M12 13V10" stroke="#33363F" stroke-width="2"/>
<path d="M18 6V6C18.9319 6 19.3978 6 19.7654 6.15224C20.2554 6.35523 20.6448 6.74458 20.8478 7.23463C21 7.60218 21 8.06812 21 9V9" stroke="#33363F" stroke-width="2"/>
<path d="M18 20V20C18.9319 20 19.3978 20 19.7654 19.8478C20.2554 19.6448 20.6448 19.2554 20.8478 18.7654C21 18.3978 21 17.9319 21 17V17" stroke="#33363F" stroke-width="2"/>
<path d="M6 20V20C5.06812 20 4.60218 20 4.23463 19.8478C3.74458 19.6448 3.35523 19.2554 3.15224 18.7654C3 18.3978 3 17.9319 3 17V17" stroke="#33363F" stroke-width="2"/>
<path d="M6 3V3C5.06812 3 4.60218 3 4.23463 3.15224C3.74458 3.35523 3.35523 3.74458 3.15224 4.23463C3 4.60218 3 5.06812 3 6V7" stroke="#33363F" stroke-width="2"/>
<path d="M21 11V15" stroke="#33363F" stroke-width="2"/>
<path d="M16 6H14.0704C13.4017 6 12.7772 5.6658 12.4063 5.1094L11.5937 3.8906C11.2228 3.3342 10.5983 3 9.92963 3L8 3" stroke="#33363F" stroke-width="2"/>
<path d="M3 13V15" stroke="#33363F" stroke-width="2"/>
<path d="M3 9V11" stroke="#33363F" stroke-width="2"/>
<path d="M16 20H13" stroke="#33363F" stroke-width="2"/>
<path d="M11 20H8" stroke="#33363F" stroke-width="2"/>
</svg>
