<svg width="24" height="24" viewBox="0 0 24 24" fill="none" xmlns="http://www.w3.org/2000/svg">
<path d="M15.0391 7.38411C15.1531 7.52091 15.3219 7.6 15.5 7.6H17.8C18.37 7.6 18.7613 7.60047 19.0647 7.62526C19.3611 7.64947 19.5204 7.69388 19.6356 7.75259C19.899 7.88681 20.1132 8.10099 20.2474 8.36441C20.3061 8.47964 20.3505 8.63886 20.3747 8.93526C20.3995 9.23867 20.4 9.63005 20.4 10.2V12.8C20.4 13.37 20.3995 13.7613 20.3747 14.0647C20.3505 14.3611 20.3061 14.5204 20.2474 14.6356C20.1132 14.899 19.899 15.1132 19.6356 15.2474C19.5204 15.3061 19.3611 15.3505 19.0647 15.3747C18.7613 15.3995 18.37 15.4 17.8 15.4H10.2C9.63005 15.4 9.23867 15.3995 8.93526 15.3747C8.63886 15.3505 8.47964 15.3061 8.36441 15.2474C8.10099 15.1132 7.88681 14.899 7.75259 14.6356C7.69388 14.5204 7.64947 14.3611 7.62526 14.0647C7.60047 13.7613 7.6 13.37 7.6 12.8V7.2C7.6 6.63005 7.60047 6.23867 7.62526 5.93526C7.64947 5.63886 7.69388 5.47964 7.75259 5.36441C7.88681 5.10099 8.10099 4.88681 8.36441 4.75259C8.47964 4.69388 8.63886 4.64947 8.93526 4.62526C9.23867 4.60047 9.63005 4.6 10.2 4.6H11.5012C12.0846 4.6 12.2662 4.60482 12.427 4.64807C12.5853 4.69067 12.7349 4.76074 12.869 4.8551C13.0051 4.95091 13.1251 5.08734 13.4986 5.53552L15.0391 7.38411Z" stroke="#222222" stroke-width="1.2" stroke-linejoin="round"/>
<path d="M17 15V16.8C17 17.9201 17 18.4802 16.782 18.908C16.5903 19.2843 16.2843 19.5903 15.908 19.782C15.4802 20 14.9201 20 13.8 20H6.2C5.07989 20 4.51984 20 4.09202 19.782C3.71569 19.5903 3.40973 19.2843 3.21799 18.908C3 18.4802 3 17.9201 3 16.8V11.2C3 10.0799 3 9.51984 3.21799 9.09202C3.40973 8.71569 3.71569 8.40973 4.09202 8.21799C4.51984 8 5.07989 8 6.2 8H8" stroke="#2A4157" stroke-opacity="0.24" stroke-width="1.2" stroke-linejoin="round"/>
</svg>
