<svg width="24" height="24" viewBox="0 0 24 24" fill="none" xmlns="http://www.w3.org/2000/svg">
<path d="M3 7C3 5.11438 3 4.17157 3.58579 3.58579C4.17157 3 5.11438 3 7 3H17C18.8856 3 19.8284 3 20.4142 3.58579C21 4.17157 21 5.11438 21 7V17C21 18.8856 21 19.8284 20.4142 20.4142C19.8284 21 18.8856 21 17 21H7C5.11438 21 4.17157 21 3.58579 20.4142C3 19.8284 3 18.8856 3 17V7Z" stroke="#222222" stroke-width="2"/>
<path fill-rule="evenodd" clip-rule="evenodd" d="M18 10H12.6569C11.8394 10 11.4306 10 11.0631 9.84776C10.6955 9.69552 10.4065 9.40649 9.82843 8.82843L9.82843 8.82843L9.17157 8.17157C8.59351 7.59351 8.30448 7.30448 7.93694 7.15224C7.5694 7 7.16065 7 6.34315 7H3V17C3 18.8856 3 19.8284 3.58579 20.4142C4.17157 21 5.11438 21 7 21H17C18.8856 21 19.8284 21 20.4142 20.4142C21 19.8284 21 18.8856 21 17V7C21 7.93188 21 8.39782 20.8478 8.76537C20.6448 9.25542 20.2554 9.64477 19.7654 9.84776C19.3978 10 18.9319 10 18 10ZM7 15C6.44772 15 6 15.4477 6 16C6 16.5523 6.44772 17 7 17H15C15.5523 17 16 16.5523 16 16C16 15.4477 15.5523 15 15 15H7Z" fill="#222222"/>
</svg>
