<svg width="24" height="24" viewBox="0 0 24 24" fill="none" xmlns="http://www.w3.org/2000/svg">
<path d="M4 9C4 7.11438 4 6.17157 4.58579 5.58579C5.17157 5 6.11438 5 8 5H8.34315C9.16065 5 9.5694 5 9.93694 5.15224C10.3045 5.30448 10.5935 5.59351 11.1716 6.17157L11.8284 6.82843C12.4065 7.40649 12.6955 7.69552 13.0631 7.84776C13.4306 8 13.8394 8 14.6569 8H16C17.8856 8 18.8284 8 19.4142 8.58579C20 9.17157 20 10.1144 20 12V15C20 16.8856 20 17.8284 19.4142 18.4142C18.8284 19 17.8856 19 16 19H8C6.11438 19 5.17157 19 4.58579 18.4142C4 17.8284 4 16.8856 4 15V9Z" stroke="#33363F" stroke-width="2"/>
</svg>
