<svg width="24" height="24" viewBox="0 0 24 24" fill="none" xmlns="http://www.w3.org/2000/svg">
<path d="M15 20H6.2C5.07989 20 4.51984 20 4.09202 19.782C3.71569 19.5903 3.40973 19.2843 3.21799 18.908C3 18.4802 3 17.9201 3 16.8V7.2C3 6.07989 3 5.51984 3.21799 5.09202C3.40973 4.71569 3.71569 4.40973 4.09202 4.21799C4.51984 4 5.0799 4 6.2 4H7.67452C8.1637 4 8.40829 4 8.63846 4.05526C8.84254 4.10425 9.03763 4.18506 9.21657 4.29472C9.4184 4.4184 9.59135 4.59135 9.93726 4.93726L10.0627 5.06274C10.4086 5.40865 10.5816 5.5816 10.7834 5.70528C10.9624 5.81494 11.1575 5.89575 11.3615 5.94474C11.5917 6 11.8363 6 12.3255 6H13.8C14.9201 6 15.4802 6 15.908 6.21799C16.2843 6.40973 16.5903 6.71569 16.782 7.09202C17 7.51984 17 8.07989 17 9.2V9.5" stroke="#33363F" stroke-width="2" stroke-linecap="round"/>
<path d="M5.31584 12.2805C5.56132 11.4622 5.68406 11.0531 5.92696 10.7498C6.14139 10.482 6.42108 10.2739 6.73915 10.1455C7.09946 10 7.5266 10 8.38087 10H16.6991C18.1567 10 18.8856 10 19.372 10.3041C19.7981 10.5704 20.1083 10.9873 20.2409 11.4719C20.3924 12.0252 20.183 12.7233 19.7641 14.1195L18.6842 17.7191C18.4387 18.5374 18.3159 18.9465 18.073 19.2498C17.8586 19.5176 17.5789 19.7257 17.2608 19.8541C16.9005 19.9996 16.4734 19.9996 15.6191 19.9996H5.15047C4.42163 19.9996 4.05721 19.9996 3.81398 19.8476C3.60096 19.7144 3.44587 19.5059 3.37954 19.2636C3.3038 18.987 3.40852 18.6379 3.61796 17.9398L5.31584 12.2805Z" stroke="#33363F" stroke-width="2"/>
<path d="M9 15L15 15" stroke="#33363F" stroke-width="2" stroke-linecap="round"/>
</svg>
