<svg width="24" height="24" viewBox="0 0 24 24" fill="none" xmlns="http://www.w3.org/2000/svg">
<path d="M4.5 6.89963C4.5 6.05956 4.5 5.63952 4.66349 5.31865C4.8073 5.0364 5.03677 4.80693 5.31901 4.66312C5.63988 4.49963 6.05992 4.49963 6.9 4.49963H9.47237C9.84808 4.49963 10.0359 4.49963 10.2065 4.55142C10.3574 4.59727 10.4978 4.67243 10.6197 4.77261C10.7574 4.88577 10.8616 5.04208 11.07 5.35471L11.93 6.64496C12.1384 6.95758 12.2426 7.1139 12.3803 7.22706C12.5022 7.32724 12.6426 7.4024 12.7935 7.44825C12.9641 7.50003 13.1519 7.50003 13.5276 7.50003H17.1C17.9401 7.50003 18.3601 7.50003 18.681 7.66353C18.9632 7.80734 19.1927 8.03681 19.3365 8.31905C19.5 8.63992 19.5 9.05996 19.5 9.90003V16.1C19.5 16.9401 19.5 17.3602 19.3365 17.681C19.1927 17.9633 18.9632 18.1927 18.681 18.3365C18.3601 18.5 17.9401 18.5 17.1 18.5H6.9C6.05992 18.5 5.63988 18.5 5.31901 18.3365C5.03677 18.1927 4.8073 17.9633 4.66349 17.681C4.5 17.3602 4.5 16.9401 4.5 16.1V6.89963Z" stroke="#222222"/>
</svg>
