<svg width="24" height="24" viewBox="0 0 24 24" fill="none" xmlns="http://www.w3.org/2000/svg">
<path d="M3.10899 6.54601L2.21799 6.09202L3.10899 6.54601ZM3.54601 6.10899L3.09202 5.21799L3.54601 6.10899ZM4 12V7.6H2V12H4ZM4.6 7H6V5H4.6V7ZM4 7.6C4 7.30347 4.00078 7.14122 4.0103 7.02463C4.01887 6.91972 4.0293 6.94249 4 7L2.21799 6.09202C2.07969 6.36344 2.03562 6.63318 2.01695 6.86177C1.99922 7.07869 2 7.33647 2 7.6H4ZM4.6 5C4.33647 5 4.07869 4.99922 3.86177 5.01695C3.63318 5.03562 3.36344 5.07969 3.09202 5.21799L4 7C3.94249 7.0293 3.91972 7.01887 4.02463 7.0103C4.14122 7.00078 4.30347 7 4.6 7V5ZM4 7L3.09202 5.21799C2.71569 5.40973 2.40973 5.71569 2.21799 6.09202L4 7Z" fill="#33363F"/>
<path d="M20.891 6.54601L21.782 6.09202L20.891 6.54601ZM20.454 6.10899L20.908 5.21799L20.454 6.10899ZM20 12V7.6H22V12H20ZM19.4 7H18V5H19.4V7ZM20 7.6C20 7.30347 19.9992 7.14122 19.9897 7.02463C19.9811 6.91972 19.9707 6.94249 20 7L21.782 6.09202C21.9203 6.36344 21.9644 6.63318 21.9831 6.86177C22.0008 7.07869 22 7.33647 22 7.6H20ZM19.4 5C19.6635 5 19.9213 4.99922 20.1382 5.01695C20.3668 5.03562 20.6366 5.07969 20.908 5.21799L20 7C20.0575 7.0293 20.0803 7.01887 19.9754 7.0103C19.8588 7.00078 19.6965 7 19.4 7V5ZM20 7L20.908 5.21799C21.2843 5.40973 21.5903 5.71569 21.782 6.09202L20 7Z" fill="#33363F"/>
<path d="M5 4L8 6L5 8V4Z" fill="#33363F"/>
<path d="M19 4L16 6L19 8V4Z" fill="#33363F"/>
<path d="M15 15.6C15 15.0399 15 14.7599 15.109 14.546C15.2049 14.3578 15.3578 14.2049 15.546 14.109C15.7599 14 16.0399 14 16.6 14H17L18 15H19.4C19.9601 15 20.2401 15 20.454 15.109C20.6422 15.2049 20.7951 15.3578 20.891 15.546C21 15.7599 21 16.0399 21 16.6V18.4C21 18.9601 21 19.2401 20.891 19.454C20.7951 19.6422 20.6422 19.7951 20.454 19.891C20.2401 20 19.9601 20 19.4 20H16.6C16.0399 20 15.7599 20 15.546 19.891C15.3578 19.7951 15.2049 19.6422 15.109 19.454C15 19.2401 15 18.9601 15 18.4V15.6Z" stroke="#33363F" stroke-width="2" stroke-linejoin="round"/>
<path d="M3 15.6C3 15.0399 3 14.7599 3.10899 14.546C3.20487 14.3578 3.35785 14.2049 3.54601 14.109C3.75992 14 4.03995 14 4.6 14H5L6 15H7.4C7.96005 15 8.24008 15 8.45399 15.109C8.64215 15.2049 8.79513 15.3578 8.89101 15.546C9 15.7599 9 16.0399 9 16.6V18.4C9 18.9601 9 19.2401 8.89101 19.454C8.79513 19.6422 8.64215 19.7951 8.45399 19.891C8.24008 20 7.96005 20 7.4 20H4.6C4.03995 20 3.75992 20 3.54601 19.891C3.35785 19.7951 3.20487 19.6422 3.10899 19.454C3 19.2401 3 18.9601 3 18.4V15.6Z" stroke="#33363F" stroke-width="2" stroke-linejoin="round"/>
<path d="M9 4.6C9 4.03995 9 3.75992 9.10899 3.54601C9.20487 3.35785 9.35785 3.20487 9.54601 3.10899C9.75992 3 10.0399 3 10.6 3H11L12 4H13.4C13.9601 4 14.2401 4 14.454 4.10899C14.6422 4.20487 14.7951 4.35785 14.891 4.54601C15 4.75992 15 5.03995 15 5.6V7.4C15 7.96005 15 8.24008 14.891 8.45399C14.7951 8.64215 14.6422 8.79513 14.454 8.89101C14.2401 9 13.9601 9 13.4 9H10.6C10.0399 9 9.75992 9 9.54601 8.89101C9.35785 8.79513 9.20487 8.64215 9.10899 8.45399C9 8.24008 9 7.96005 9 7.4V4.6Z" stroke="#33363F" stroke-width="2" stroke-linejoin="round"/>
</svg>
