<svg width="24" height="24" viewBox="0 0 24 24" fill="none" xmlns="http://www.w3.org/2000/svg">
<path d="M16.0391 6.38411C16.1531 6.52091 16.3219 6.6 16.5 6.6H18.8C19.37 6.6 19.7613 6.60047 20.0647 6.62526C20.3611 6.64947 20.5204 6.69388 20.6356 6.75259C20.899 6.88681 21.1132 7.10099 21.2474 7.36441C21.3061 7.47964 21.3505 7.63886 21.3747 7.93526C21.3995 8.23867 21.4 8.63005 21.4 9.2V11.8C21.4 12.37 21.3995 12.7613 21.3747 13.0647C21.3505 13.3611 21.3061 13.5204 21.2474 13.6356C21.1132 13.899 20.899 14.1132 20.6356 14.2474C20.5204 14.3061 20.3611 14.3505 20.0647 14.3747C19.7613 14.3995 19.37 14.4 18.8 14.4H11.2C10.63 14.4 10.2387 14.3995 9.93526 14.3747C9.63886 14.3505 9.47964 14.3061 9.36441 14.2474C9.10099 14.1132 8.88681 13.899 8.75259 13.6356C8.69388 13.5204 8.64947 13.3611 8.62526 13.0647C8.60047 12.7613 8.6 12.37 8.6 11.8V6.2C8.6 5.63005 8.60047 5.23867 8.62526 4.93526C8.64947 4.63886 8.69388 4.47964 8.75259 4.36441C8.88681 4.10099 9.10099 3.88681 9.36441 3.75259C9.47964 3.69388 9.63886 3.64947 9.93526 3.62526C10.2387 3.60047 10.63 3.6 11.2 3.6H12.5012C13.0846 3.6 13.2662 3.60482 13.427 3.64807C13.5853 3.69067 13.7349 3.76074 13.869 3.8551C14.0051 3.95091 14.1251 4.08734 14.4986 4.53552L16.0391 6.38411Z" stroke="#222222" stroke-width="1.2" stroke-linejoin="round"/>
<path d="M6 7H5C3.89543 7 3 7.89543 3 9V10" stroke="#2A4157" stroke-opacity="0.24" stroke-width="1.2" stroke-miterlimit="1.41421"/>
<path d="M6 20H5C3.89543 20 3 19.1046 3 18V17" stroke="#2A4157" stroke-opacity="0.24" stroke-width="1.2" stroke-miterlimit="1.41421"/>
<path d="M13 20H14C15.1046 20 16 19.1046 16 18V17" stroke="#2A4157" stroke-opacity="0.24" stroke-width="1.2" stroke-miterlimit="1.41421"/>
<path d="M11 20H8" stroke="#2A4157" stroke-opacity="0.24" stroke-width="1.2" stroke-miterlimit="1.41421"/>
<path d="M3 12L3 15" stroke="#2A4157" stroke-opacity="0.24" stroke-width="1.2" stroke-miterlimit="1.41421"/>
</svg>
