<svg width="24" height="24" viewBox="0 0 24 24" fill="none" xmlns="http://www.w3.org/2000/svg">
<path d="M3 12V7.2C3 6.07989 3 5.51984 3.21799 5.09202C3.40973 4.71569 3.71569 4.40973 4.09202 4.21799C4.51984 4 5.0799 4 6.2 4H7.67452C8.1637 4 8.40829 4 8.63846 4.05526C8.84254 4.10425 9.03763 4.18506 9.21657 4.29472C9.4184 4.4184 9.59135 4.59135 9.93726 4.93726L10.0627 5.06274C10.4086 5.40865 10.5816 5.5816 10.7834 5.70528C10.9624 5.81494 11.1575 5.89575 11.3615 5.94474C11.5917 6 11.8363 6 12.3255 6H12.8C13.9201 6 14.4802 6 14.908 6.21799C15.2843 6.40973 15.5903 6.71569 15.782 7.09202C16 7.51984 16 8.07989 16 9.2V9.5" stroke="#33363F" stroke-width="2" stroke-linecap="round"/>
<path d="M4.7 20L15.6192 19.9997C16.4735 19.9996 16.9006 19.9996 17.2609 19.8541C17.5789 19.7257 17.8586 19.5176 18.073 19.2498C18.3159 18.9465 18.4387 18.5374 18.6841 17.7192L19.7641 14.1195C20.183 12.7233 20.3924 12.0252 20.2409 11.4719C20.1083 10.9873 19.7981 10.5704 19.372 10.3041C18.8856 10 18.1567 10 16.6991 10H11.3809C10.5266 10 10.0995 10 9.73915 10.1455C9.42108 10.2739 9.14139 10.482 8.92696 10.7498C8.68406 11.0531 8.56132 11.4622 8.31584 12.2805L6.36777 18.7737C6.14949 19.5013 5.47979 19.9996 4.72016 19.9996V19.9996C3.77014 19.9996 3 19.2295 3 18.2794V11" stroke="#33363F" stroke-width="2" stroke-linecap="round"/>
<path d="M11 15L16 15" stroke="#33363F" stroke-width="2" stroke-linecap="round"/>
</svg>
