<svg width="24" height="24" viewBox="0 0 24 24" fill="none" xmlns="http://www.w3.org/2000/svg">
<path d="M16.1159 6.32009C16.2109 6.43409 16.3516 6.5 16.5 6.5H18.8C19.3683 6.5 19.7645 6.50039 20.0729 6.52559C20.3755 6.55031 20.5493 6.5964 20.681 6.66349C20.9632 6.8073 21.1927 7.03677 21.3365 7.31901C21.4036 7.45069 21.4497 7.62454 21.4744 7.92712C21.4996 8.23554 21.5 8.6317 21.5 9.2V11.8C21.5 12.3683 21.4996 12.7645 21.4744 13.0729C21.4497 13.3755 21.4036 13.5493 21.3365 13.681C21.1927 13.9632 20.9632 14.1927 20.681 14.3365C20.5493 14.4036 20.3755 14.4497 20.0729 14.4744C19.7645 14.4996 19.3683 14.5 18.8 14.5H11.2C10.6317 14.5 10.2355 14.4996 9.92712 14.4744C9.62454 14.4497 9.45069 14.4036 9.31901 14.3365C9.03677 14.1927 8.8073 13.9632 8.66349 13.681C8.5964 13.5493 8.55031 13.3755 8.52559 13.0729C8.50039 12.7645 8.5 12.3683 8.5 11.8V6.2C8.5 5.6317 8.50039 5.23554 8.52559 4.92712C8.55031 4.62454 8.5964 4.45069 8.66349 4.31901C8.8073 4.03677 9.03677 3.8073 9.31901 3.66349C9.45069 3.5964 9.62454 3.55031 9.92712 3.52559C10.2355 3.50039 10.6317 3.5 11.2 3.5H12.5012C13.0792 3.5 13.2764 3.50402 13.453 3.55151C13.6226 3.59714 13.7829 3.67222 13.9265 3.77332C14.076 3.87852 14.2054 4.02748 14.5754 4.4715L16.1159 6.32009Z" stroke="#222222" stroke-linejoin="round"/>
<path d="M6 7H5C3.89543 7 3 7.89543 3 9V10" stroke="#222222" stroke-miterlimit="1.41421"/>
<path d="M6 20H5C3.89543 20 3 19.1046 3 18V17" stroke="#222222" stroke-miterlimit="1.41421"/>
<path d="M13 20H14C15.1046 20 16 19.1046 16 18V17" stroke="#222222" stroke-miterlimit="1.41421"/>
<path d="M11 20H8" stroke="#222222" stroke-miterlimit="1.41421"/>
<path d="M3 12L3 15" stroke="#222222" stroke-miterlimit="1.41421"/>
</svg>
