<svg width="24" height="24" viewBox="0 0 24 24" fill="none" xmlns="http://www.w3.org/2000/svg">
<path d="M4.6 8C4.6 7.04023 4.60127 6.38076 4.66787 5.8854C4.73215 5.40731 4.84722 5.17288 5.01005 5.01005C5.17288 4.84722 5.40731 4.73215 5.8854 4.66787C6.38076 4.60127 7.04023 4.6 8 4.6H8.34315C9.2096 4.6 9.47569 4.61062 9.70733 4.70657C9.93897 4.80252 10.1346 4.98316 10.7473 5.59584L11.4042 6.25269C11.4296 6.27813 11.4547 6.30325 11.4795 6.32805C11.9837 6.83293 12.3536 7.20332 12.8334 7.40209C13.3133 7.60086 13.8368 7.60051 14.5503 7.60005C14.5854 7.60002 14.6209 7.6 14.6569 7.6H16C16.9598 7.6 17.6192 7.60127 18.1146 7.66787C18.5927 7.73215 18.8271 7.84722 18.9899 8.01005C19.1528 8.17288 19.2678 8.40731 19.3321 8.88541C19.3987 9.38076 19.4 10.0402 19.4 11V15C19.4 15.9598 19.3987 16.6192 19.3321 17.1146C19.2678 17.5927 19.1528 17.8271 18.9899 17.9899C18.8271 18.1528 18.5927 18.2678 18.1146 18.3321C17.6192 18.3987 16.9598 18.4 16 18.4H8C7.04023 18.4 6.38076 18.3987 5.88541 18.3321C5.40731 18.2678 5.17288 18.1528 5.01005 17.9899C4.84722 17.8271 4.73215 17.5927 4.66787 17.1146C4.60127 16.6192 4.6 15.9598 4.6 15V8Z" fill="#2A4157" fill-opacity="0.24" stroke="#222222" stroke-width="1.2" stroke-linejoin="round"/>
<path d="M4.5 11.5H19.5" stroke="#222222" stroke-miterlimit="1.41421"/>
</svg>
