<svg width="24" height="24" viewBox="0 0 24 24" fill="none" xmlns="http://www.w3.org/2000/svg">
<path d="M18.5 11V7.5C18.5 5.61438 18.5 4.67157 17.9142 4.08579C17.3284 3.5 16.3856 3.5 14.5 3.5H9.5C7.61438 3.5 6.67157 3.5 6.08579 4.08579C5.5 4.67157 5.5 5.61438 5.5 7.5V8" stroke="#2A4157" stroke-opacity="0.24" stroke-width="1.2"/>
<path d="M12.5757 10.4243C12.6883 10.5368 12.8409 10.6 13 10.6H17.8C18.37 10.6 18.7613 10.6005 19.0647 10.6253C19.3611 10.6495 19.5204 10.6939 19.6356 10.7526C19.899 10.8868 20.1132 11.101 20.2474 11.3644L20.7508 11.1079L20.2474 11.3644C20.3061 11.4796 20.3505 11.6389 20.3747 11.9353C20.3995 12.2387 20.4 12.63 20.4 13.2V17.8C20.4 18.37 20.3995 18.7613 20.3747 19.0647C20.3505 19.3611 20.3061 19.5204 20.2474 19.6356C20.1132 19.899 19.899 20.1132 19.6356 20.2474C19.5204 20.3061 19.3611 20.3505 19.0647 20.3747C18.7613 20.3995 18.37 20.4 17.8 20.4H6.2C5.63005 20.4 5.23867 20.3995 4.93526 20.3747C4.63886 20.3505 4.47964 20.3061 4.36441 20.2474C4.10099 20.1132 3.88681 19.899 3.75259 19.6356C3.69388 19.5204 3.64947 19.3611 3.62526 19.0647C3.60047 18.7613 3.6 18.37 3.6 17.8V10.2C3.6 9.63005 3.60047 9.23867 3.62526 8.93526C3.64947 8.63886 3.69388 8.47964 3.75259 8.36441C3.88681 8.10099 4.10099 7.88681 4.36441 7.75259C4.47964 7.69388 4.63886 7.64947 4.93526 7.62526C5.23867 7.60047 5.63005 7.6 6.2 7.6H8.67452C9.19226 7.6 9.35334 7.60386 9.4984 7.63868C9.64125 7.67298 9.77781 7.72954 9.90307 7.8063C10.0303 7.88425 10.1469 7.99542 10.513 8.36152L12.5757 10.4243Z" stroke="#222222" stroke-width="1.2" stroke-linejoin="round"/>
</svg>
