<svg width="24" height="24" viewBox="0 0 24 24" fill="none" xmlns="http://www.w3.org/2000/svg">
<path d="M19 14V12C19 10.1144 19 9.17157 18.4142 8.58579C17.8284 8 16.8856 8 15 8H13.6569C12.8394 8 12.4306 8 12.0631 7.84776C11.6955 7.69552 11.4065 7.40649 10.8284 6.82843L10.1716 6.17157C9.59351 5.59351 9.30448 5.30448 8.93694 5.15224C8.5694 5 8.16065 5 7.34315 5H7C5.11438 5 4.17157 5 3.58579 5.58579C3 6.17157 3 7.11438 3 9V15C3 16.8856 3 17.8284 3.58579 18.4142C4.17157 19 5.11438 19 7 19H14" stroke="#33363F" stroke-width="2"/>
<path d="M16 19H19M19 19H22M19 19V22M19 19V16" stroke="#33363F" stroke-width="2"/>
</svg>
