<svg width="24" height="24" viewBox="0 0 24 24" fill="none" xmlns="http://www.w3.org/2000/svg">
<path d="M8 7H3V19C3 20.1046 3.89543 21 5 21H19C20.1046 21 21 20.1046 21 19V10L20 11H11L8 7Z" fill="#2A4157" fill-opacity="0.24"/>
<path d="M3 7.8C3 6.11984 3 5.27976 3.32698 4.63803C3.6146 4.07354 4.07354 3.6146 4.63803 3.32698C5.27976 3 6.11984 3 7.8 3H16.2C17.8802 3 18.7202 3 19.362 3.32698C19.9265 3.6146 20.3854 4.07354 20.673 4.63803C21 5.27976 21 6.11984 21 7.8V16.2C21 17.8802 21 18.7202 20.673 19.362C20.3854 19.9265 19.9265 20.3854 19.362 20.673C18.7202 21 17.8802 21 16.2 21H7.8C6.11984 21 5.27976 21 4.63803 20.673C4.07354 20.3854 3.6146 19.9265 3.32698 19.362C3 18.7202 3 17.8802 3 16.2V7.8Z" stroke="#222222" stroke-width="1.2"/>
<path d="M3 7H6C6.98142 7 7.47214 7 7.89443 7.21115C8.31672 7.42229 8.61115 7.81486 9.2 8.6L9.8 9.4C10.3889 10.1851 10.6833 10.5777 11.1056 10.7889C11.5279 11 12.0186 11 13 11H18C18.9319 11 19.3978 11 19.7654 10.8478C20.2554 10.6448 20.6448 10.2554 20.8478 9.76537C21 9.39782 21 8.93188 21 8V8" stroke="#222222" stroke-width="1.2"/>
<path d="M7 16H15" stroke="#222222" stroke-width="1.2" stroke-linecap="round"/>
</svg>
