<svg width="24" height="24" viewBox="0 0 24 24" fill="none" xmlns="http://www.w3.org/2000/svg">
<path d="M3 8H16.2C17.8802 8 18.7202 8 19.362 8.32698C19.9265 8.6146 20.3854 9.07354 20.673 9.63803C21 10.2798 21 11.1198 21 12.8V14.2C21 15.8802 21 16.7202 20.673 17.362C20.3854 17.9265 19.9265 18.3854 19.362 18.673C18.7202 19 17.8802 19 16.2 19H7.8C6.11984 19 5.27976 19 4.63803 18.673C4.07354 18.3854 3.6146 17.9265 3.32698 17.362C3 16.7202 3 15.8802 3 14.2V8Z" fill="#222222"/>
<path d="M3 8C3 7.06812 3 6.60218 3.15224 6.23463C3.35523 5.74458 3.74458 5.35523 4.23463 5.15224C4.60218 5 5.06812 5 6 5H8.34315C9.16065 5 9.5694 5 9.93694 5.15224C10.3045 5.30448 10.5935 5.59351 11.1716 6.17157L13 8H3Z" fill="#222222"/>
</svg>
