<svg width="24" height="24" viewBox="0 0 24 24" fill="none" xmlns="http://www.w3.org/2000/svg">
<path d="M3 11.2C3 10.0799 3 9.51984 3.21799 9.09202C3.40973 8.71569 3.71569 8.40973 4.09202 8.21799C4.51984 8 5.0799 8 6.2 8H7.5012C8.05213 8 8.32759 8 8.58285 8.06868C8.80903 8.12953 9.02275 8.22963 9.21429 8.36443C9.43047 8.51656 9.60681 8.72818 9.95951 9.15141L11.5 11H13.8C14.9201 11 15.4802 11 15.908 11.218C16.2843 11.4097 16.5903 11.7157 16.782 12.092C17 12.5198 17 13.0799 17 14.2V16.8C17 17.9201 17 18.4802 16.782 18.908C16.5903 19.2843 16.2843 19.5903 15.908 19.782C15.4802 20 14.9201 20 13.8 20H9.4C7.15979 20 6.03969 20 5.18404 19.564C4.43139 19.1805 3.81947 18.5686 3.43597 17.816C3 16.9603 3 15.8402 3 13.6V11.2Z" fill="#222222"/>
<path d="M7 7.2C7 6.0799 7 5.51984 7.21799 5.09202C7.40973 4.71569 7.71569 4.40973 8.09202 4.21799C8.51984 4 9.0799 4 10.2 4H11.5012C12.0521 4 12.3276 4 12.5829 4.06868C12.809 4.12953 13.0228 4.22963 13.2143 4.36443C13.4305 4.51656 13.6068 4.72818 13.9595 5.15141L15.5 7H17.8C18.9201 7 19.4802 7 19.908 7.21799C20.2843 7.40973 20.5903 7.71569 20.782 8.09202C21 8.51984 21 9.0799 21 10.2V12.8C21 13.9201 21 14.4802 20.782 14.908C20.5903 15.2843 20.2843 15.5903 19.908 15.782C19.4802 16 18.9201 16 17.8 16H10.2C9.0799 16 8.51984 16 8.09202 15.782C7.71569 15.5903 7.40973 15.2843 7.21799 14.908C7 14.4802 7 13.9201 7 12.8V7.2Z" fill="#222222"/>
<path d="M6 7V15C6 16.1046 6.89543 17 8 17H20" stroke="white" stroke-width="2"/>
</svg>
