<svg width="24" height="24" viewBox="0 0 24 24" fill="none" xmlns="http://www.w3.org/2000/svg">
<path d="M4 13.2C4 12.0799 4 11.5198 4.21799 11.092C4.40973 10.7157 4.71569 10.4097 5.09202 10.218C5.51984 10 6.0799 10 7.2 10H8.67452C9.1637 10 9.40829 10 9.63846 10.0553C9.84254 10.1043 10.0376 10.1851 10.2166 10.2947C10.4184 10.4184 10.5914 10.5914 10.9373 10.9373L12.0627 12.0627C12.4086 12.4086 12.5816 12.5816 12.7834 12.7053C12.9624 12.8149 13.1575 12.8957 13.3615 12.9447C13.5917 13 13.8363 13 14.3255 13H16.8C17.9201 13 18.4802 13 18.908 13.218C19.2843 13.4097 19.5903 13.7157 19.782 14.092C20 14.5198 20 15.0799 20 16.2V17.8C20 18.9201 20 19.4802 19.782 19.908C19.5903 20.2843 19.2843 20.5903 18.908 20.782C18.4802 21 17.9201 21 16.8 21H7.2C6.07989 21 5.51984 21 5.09202 20.782C4.71569 20.5903 4.40973 20.2843 4.21799 19.908C4 19.4802 4 18.9201 4 17.8V13.2Z" stroke="#33363F" stroke-width="2"/>
<path d="M18 13V7L15 4H9.2C8.07989 4 7.51984 4 7.09202 4.21799C6.71569 4.40973 6.40973 4.71569 6.21799 5.09202C6 5.51984 6 6.0799 6 7.2V10" stroke="#33363F" stroke-width="2" stroke-linejoin="round"/>
<path d="M13 4V7.4C13 7.96005 13 8.24008 13.109 8.45399C13.2049 8.64215 13.3578 8.79513 13.546 8.89101C13.7599 9 14.0399 9 14.6 9H18" stroke="#33363F" stroke-width="2" stroke-linejoin="round"/>
</svg>
