<svg width="24" height="24" viewBox="0 0 24 24" fill="none" xmlns="http://www.w3.org/2000/svg">
<path fill-rule="evenodd" clip-rule="evenodd" d="M3.58579 2.58579C3 3.17157 3 4.11438 3 6V16C3 18.8284 3 20.2426 3.87868 21.1213C4.51998 21.7626 5.44655 21.9359 7 21.9827V19C7 18.4477 7.44772 18 8 18C8.55228 18 9 18.4477 9 19L9 22H15V19C15 18.4477 15.4477 18 16 18C16.5523 18 17 18.4477 17 19L17 21.9827C18.5534 21.9359 19.48 21.7626 20.1213 21.1213C21 20.2426 21 18.8284 21 16V6C21 4.11438 21 3.17157 20.4142 2.58579C19.8284 2 18.8856 2 17 2H7C5.11438 2 4.17157 2 3.58579 2.58579ZM8 8C7.44772 8 7 8.44772 7 9C7 9.55228 7.44772 10 8 10H16C16.5523 10 17 9.55228 17 9C17 8.44772 16.5523 8 16 8H8ZM8 14L16 14C16.5523 14 17 13.5523 17 13C17 12.4477 16.5523 12 16 12L8 12C7.44772 12 7 12.4477 7 13C7 13.5523 7.44772 14 8 14Z" fill="#222222"/>
</svg>
