<svg width="24" height="24" viewBox="0 0 24 24" fill="none" xmlns="http://www.w3.org/2000/svg">
<path d="M4 7C4 5.11438 4 4.17157 4.58579 3.58579C5.17157 3 6.11438 3 8 3H16C17.8856 3 18.8284 3 19.4142 3.58579C20 4.17157 20 5.11438 20 7V15C20 17.8284 20 19.2426 19.1213 20.1213C18.2426 21 16.8284 21 14 21H10C7.17157 21 5.75736 21 4.87868 20.1213C4 19.2426 4 17.8284 4 15V7Z" stroke="#222222"/>
<path d="M15 18L15 21M9 18L9 21" stroke="#222222" stroke-linecap="round"/>
<path d="M9 8L15 8" stroke="#222222" stroke-linecap="round"/>
<path d="M9 12L15 12" stroke="#222222" stroke-linecap="round"/>
</svg>
