<svg width="24" height="24" viewBox="0 0 24 24" fill="none" xmlns="http://www.w3.org/2000/svg">
<path d="M4 5V4H3V5H4ZM11.2929 13.7071C11.6834 14.0976 12.3166 14.0976 12.7071 13.7071C13.0976 13.3166 13.0976 12.6834 12.7071 12.2929L11.2929 13.7071ZM5 11V5H3V11H5ZM4 6H10V4H4V6ZM3.29289 5.70711L11.2929 13.7071L12.7071 12.2929L4.70711 4.29289L3.29289 5.70711Z" fill="#33363F"/>
<path d="M21 13H16C14.1144 13 13.1716 13 12.5858 13.5858C12 14.1716 12 15.1144 12 17V19" stroke="#33363F" stroke-width="2" stroke-linecap="round"/>
</svg>
