<svg width="24" height="24" viewBox="0 0 24 24" fill="none" xmlns="http://www.w3.org/2000/svg">
<path d="M20 20V21H21V20H20ZM15.7071 14.2929C15.3166 13.9024 14.6834 13.9024 14.2929 14.2929C13.9024 14.6834 13.9024 15.3166 14.2929 15.7071L15.7071 14.2929ZM19 14V20H21V14H19ZM20 19H14V21H20V19ZM20.7071 19.2929L15.7071 14.2929L14.2929 15.7071L19.2929 20.7071L20.7071 19.2929Z" fill="#33363F"/>
<path d="M4 20H3V21H4V20ZM9.70711 15.7071C10.0976 15.3166 10.0976 14.6834 9.70711 14.2929C9.31658 13.9024 8.68342 13.9024 8.29289 14.2929L9.70711 15.7071ZM3 14V20H5V14H3ZM4 21H10V19H4V21ZM4.70711 20.7071L9.70711 15.7071L8.29289 14.2929L3.29289 19.2929L4.70711 20.7071Z" fill="#33363F"/>
<path d="M20 4H21V3H20V4ZM14.2929 8.29289C13.9024 8.68342 13.9024 9.31658 14.2929 9.70711C14.6834 10.0976 15.3166 10.0976 15.7071 9.70711L14.2929 8.29289ZM21 10V4H19V10H21ZM20 3H14V5H20V3ZM19.2929 3.29289L14.2929 8.29289L15.7071 9.70711L20.7071 4.70711L19.2929 3.29289Z" fill="#33363F"/>
<path d="M4 4V3H3V4H4ZM8.29289 9.70711C8.68342 10.0976 9.31658 10.0976 9.70711 9.70711C10.0976 9.31658 10.0976 8.68342 9.70711 8.29289L8.29289 9.70711ZM5 10V4H3V10H5ZM4 5H10V3H4V5ZM3.29289 4.70711L8.29289 9.70711L9.70711 8.29289L4.70711 3.29289L3.29289 4.70711Z" fill="#33363F"/>
</svg>
