<svg width="24" height="24" viewBox="0 0 24 24" fill="none" xmlns="http://www.w3.org/2000/svg">
<rect x="3.5" y="9.5" width="17" height="3" rx="1.5" stroke="#222222" stroke-linecap="round"/>
<path d="M5.5 12.5V18.3C5.5 19.4201 5.5 19.9802 5.71799 20.408C5.90973 20.7843 6.21569 21.0903 6.59202 21.282C7.01984 21.5 7.57989 21.5 8.7 21.5H15.3C16.4201 21.5 16.9802 21.5 17.408 21.282C17.7843 21.0903 18.0903 20.7843 18.282 20.408C18.5 19.9802 18.5 19.4201 18.5 18.3V12.5" stroke="#33363F" stroke-linecap="round"/>
<path d="M12.5 9.5V10H13V9.5H12.5ZM13 9.5V6.5H12V9.5H13ZM9.5 10H12.5V9H9.5V10ZM6 6.5C6 8.433 7.567 10 9.5 10V9C8.11929 9 7 7.88071 7 6.5H6ZM9.5 3C7.567 3 6 4.567 6 6.5H7C7 5.11929 8.11929 4 9.5 4V3ZM13 6.5C13 4.567 11.433 3 9.5 3V4C10.8807 4 12 5.11929 12 6.5H13Z" fill="#33363F"/>
<path d="M12.5 9.5V10H12V9.5H12.5ZM12 9.5V7.5H13V9.5H12ZM14.5 10H12.5V9H14.5V10ZM17 7.5C17 8.88071 15.8807 10 14.5 10V9C15.3284 9 16 8.32843 16 7.5H17ZM14.5 5C15.8807 5 17 6.11929 17 7.5H16C16 6.67157 15.3284 6 14.5 6V5ZM12 7.5C12 6.11929 13.1193 5 14.5 5V6C13.6716 6 13 6.67157 13 7.5H12Z" fill="#33363F"/>
<path d="M12.5 9.5V21.5" stroke="#33363F" stroke-linecap="round"/>
</svg>
