<svg width="24" height="24" viewBox="0 0 24 24" fill="none" xmlns="http://www.w3.org/2000/svg">
<path fill-rule="evenodd" clip-rule="evenodd" d="M11 8H5C4.05719 8 3.58579 8 3.29289 8.29289C3 8.58579 3 9.05719 3 10V11C3 11.9428 3 12.4142 3.29289 12.7071C3.58579 13 4.05719 13 5 13H6H11V8ZM6 15V19C6 19.9428 6 20.4142 6.29289 20.7071C6.58579 21 7.05719 21 8 21H11V15H6ZM13 21H16C16.9428 21 17.4142 21 17.7071 20.7071C18 20.4142 18 19.9428 18 19V15H13V21ZM18 13H19C19.9428 13 20.4142 13 20.7071 12.7071C21 12.4142 21 11.9428 21 11V10C21 9.05719 21 8.58579 20.7071 8.29289C20.4142 8 19.9428 8 19 8H13V13H18Z" fill="#222222"/>
<path d="M19 4.63246V4.45035C19 3.24487 17.819 2.39366 16.6754 2.77487C15.2448 3.25174 13.9449 4.05514 12.8786 5.12144L12 6V7H15.6754C15.8904 7 16.104 6.96534 16.3079 6.89737L17.7026 6.43246C18.4774 6.1742 19 5.44914 19 4.63246Z" fill="#222222"/>
<path d="M5 4.63246V4.45035C5 3.24487 6.18099 2.39366 7.3246 2.77487C8.75521 3.25174 10.0551 4.05514 11.1214 5.12144L12 6V7H8.32456C8.10959 7 7.89603 6.96534 7.6921 6.89737L6.29737 6.43246C5.52259 6.1742 5 5.44914 5 4.63246Z" fill="#222222"/>
</svg>
