<svg width="24" height="24" viewBox="0 0 24 24" fill="none" xmlns="http://www.w3.org/2000/svg">
<rect x="2" y="10" width="18" height="3" rx="1.5" stroke="#33363F" stroke-width="2" stroke-linecap="round"/>
<path d="M5 13V19.4C5 19.9601 5 20.2401 5.10899 20.454C5.20487 20.6422 5.35785 20.7951 5.54601 20.891C5.75992 21 6.03995 21 6.6 21H15.4C15.9601 21 16.2401 21 16.454 20.891C16.6422 20.7951 16.7951 20.6422 16.891 20.454C17 20.2401 17 19.9601 17 19.4V13" stroke="#33363F" stroke-width="2" stroke-linecap="round"/>
<path d="M12 10V11H13V10H12ZM13 10V6.5H11V10H13ZM8.5 11H12V9H8.5V11ZM4 6.5C4 8.98528 6.01472 11 8.5 11V9C7.11929 9 6 7.88071 6 6.5H4ZM8.5 2C6.01472 2 4 4.01472 4 6.5H6C6 5.11929 7.11929 4 8.5 4V2ZM13 6.5C13 4.01472 10.9853 2 8.5 2V4C9.88071 4 11 5.11929 11 6.5H13Z" fill="#33363F"/>
<path d="M12 10V11H11V10H12ZM11 10V7.5H13V10H11ZM14.5 11H12V9H14.5V11ZM18 7.5C18 9.433 16.433 11 14.5 11V9C15.3284 9 16 8.32843 16 7.5H18ZM14.5 4C16.433 4 18 5.567 18 7.5H16C16 6.67157 15.3284 6 14.5 6V4ZM11 7.5C11 5.567 12.567 4 14.5 4V6C13.6716 6 13 6.67157 13 7.5H11Z" fill="#33363F"/>
<path d="M12 13V21" stroke="#33363F" stroke-width="2" stroke-linecap="round"/>
</svg>
