<svg width="24" height="24" viewBox="0 0 24 24" fill="none" xmlns="http://www.w3.org/2000/svg">
<path d="M4 14C4 13.4477 3.55228 13 3 13C2.44772 13 2 13.4477 2 14H4ZM22 14C22 13.4477 21.5523 13 21 13C20.4477 13 20 13.4477 20 14H22ZM2 14V15H4V14H2ZM22 15V14H20V15H22ZM11 16V15H9V16H11ZM13 15V16H15V15H13ZM17 20C19.7614 20 22 17.7614 22 15H20C20 16.6569 18.6569 18 17 18V20ZM17 18C15.8954 18 15 17.1046 15 16H13C13 18.2091 14.7909 20 17 20V18ZM12 14C12.5523 14 13 14.4477 13 15H15C15 13.3431 13.6569 12 12 12V14ZM12 12C10.3431 12 9 13.3431 9 15H11C11 14.4477 11.4477 14 12 14V12ZM7 20C9.20914 20 11 18.2091 11 16H9C9 17.1046 8.10457 18 7 18V20ZM2 15C2 17.7614 4.23858 20 7 20V18C5.34315 18 4 16.6569 4 15H2Z" fill="#33363F"/>
<path d="M14 15C13.4477 15 13 14.5523 13 14C13 13.4477 13.4477 13 14 13V15ZM21 14L21.9487 13.6838C22.0503 13.9887 21.9992 14.3239 21.8112 14.5847C21.6233 14.8455 21.3214 15 21 15V14ZM16 7C16 7.55228 15.5523 8 15 8C14.4477 8 14 7.55228 14 7H16ZM14 13H21V15H14V13ZM20.0513 14.3162L17.3762 6.29078L19.2735 5.65833L21.9487 13.6838L20.0513 14.3162ZM16 6.51411V7H14V6.51411H16ZM16.8223 5.81751C16.3918 5.74577 16 6.07772 16 6.51411H14C14 4.84184 15.5016 3.5698 17.1511 3.84472L16.8223 5.81751ZM17.3762 6.29078C17.2934 6.04262 17.0803 5.86052 16.8223 5.81751L17.1511 3.84472C18.1399 4.00952 18.9565 4.70736 19.2735 5.65833L17.3762 6.29078Z" fill="#33363F"/>
<path d="M10 15C10.5523 15 11 14.5523 11 14C11 13.4477 10.5523 13 10 13V15ZM3 14L2.05132 13.6838C1.94967 13.9887 2.00081 14.3239 2.18876 14.5847C2.37671 14.8455 2.67856 15 3 15L3 14ZM8 7C8 7.55228 8.44772 8 9 8C9.55228 8 10 7.55228 10 7H8ZM10 13H3V15H10V13ZM3.94868 14.3162L6.62383 6.29078L4.72646 5.65833L2.05132 13.6838L3.94868 14.3162ZM8 6.51411V7H10V6.51411H8ZM7.1777 5.81751C7.60815 5.74577 8 6.07772 8 6.51411H10C10 4.84184 8.49842 3.5698 6.8489 3.84472L7.1777 5.81751ZM6.62383 6.29078C6.70655 6.04262 6.91967 5.86052 7.1777 5.81751L6.8489 3.84472C5.86013 4.00952 5.04345 4.70736 4.72646 5.65833L6.62383 6.29078Z" fill="#33363F"/>
</svg>
