<svg width="24" height="24" viewBox="0 0 24 24" fill="none" xmlns="http://www.w3.org/2000/svg">
<path d="M4 13.5C4 13.2239 3.77614 13 3.5 13C3.22386 13 3 13.2239 3 13.5H4ZM21 13.5C21 13.2239 20.7761 13 20.5 13C20.2239 13 20 13.2239 20 13.5H21ZM3 13.5V15.5H4V13.5H3ZM21 15.5V13.5H20V15.5H21ZM11 16.5V14H10V16.5H11ZM13 14V16.5H14V14H13ZM16.5 20C18.9853 20 21 17.9853 21 15.5H20C20 17.433 18.433 19 16.5 19V20ZM16.5 19C15.1193 19 14 17.8807 14 16.5H13C13 18.433 14.567 20 16.5 20V19ZM12 13C12.5523 13 13 13.4477 13 14H14C14 12.8954 13.1046 12 12 12V13ZM12 12C10.8954 12 10 12.8954 10 14H11C11 13.4477 11.4477 13 12 13V12ZM7.5 20C9.433 20 11 18.433 11 16.5H10C10 17.8807 8.88071 19 7.5 19V20ZM3 15.5C3 17.9853 5.01472 20 7.5 20V19C5.567 19 4 17.433 4 15.5H3Z" fill="#222222"/>
<path d="M10.5 14C10.7761 14 11 13.7761 11 13.5C11 13.2239 10.7761 13 10.5 13V14ZM3.5 13.5L3.02566 13.3419C2.97483 13.4944 3.0004 13.662 3.09438 13.7924C3.18835 13.9227 3.33928 14 3.5 14V13.5ZM8 5.5C8 5.77614 8.22386 6 8.5 6C8.77614 6 9 5.77614 9 5.5H8ZM6.35588 4.93237L5.88154 4.77425L6.35588 4.93237ZM10.5 13H3.5V14H10.5V13ZM3.97434 13.6581L6.83022 5.09048L5.88154 4.77425L3.02566 13.3419L3.97434 13.6581ZM8 5.28031V5.5H9V5.28031H8ZM7.13125 4.74339C7.53038 4.54383 8 4.83406 8 5.28031H9C9 4.09068 7.74807 3.31695 6.68403 3.84897L7.13125 4.74339ZM6.83022 5.09048C6.88056 4.93944 6.98885 4.81459 7.13125 4.74339L6.68403 3.84897C6.30442 4.03877 6.01575 4.37161 5.88154 4.77425L6.83022 5.09048Z" fill="#222222"/>
<path d="M13.5 14C13.2239 14 13 13.7761 13 13.5C13 13.2239 13.2239 13 13.5 13V14ZM20.5 13.5L20.9743 13.3419C21.0252 13.4944 20.9996 13.662 20.9056 13.7924C20.8116 13.9227 20.6607 14 20.5 14V13.5ZM16 5.5C16 5.77614 15.7761 6 15.5 6C15.2239 6 15 5.77614 15 5.5H16ZM17.6441 4.93237L18.1185 4.77425L17.6441 4.93237ZM13.5 13H20.5V14H13.5V13ZM20.0257 13.6581L17.1698 5.09048L18.1185 4.77425L20.9743 13.3419L20.0257 13.6581ZM16 5.28031V5.5H15V5.28031H16ZM16.8688 4.74339C16.4696 4.54383 16 4.83406 16 5.28031H15C15 4.09068 16.2519 3.31695 17.316 3.84897L16.8688 4.74339ZM17.1698 5.09048C17.1194 4.93944 17.0112 4.81459 16.8688 4.74339L17.316 3.84897C17.6956 4.03877 17.9842 4.37161 18.1185 4.77425L17.1698 5.09048Z" fill="#222222"/>
</svg>
