<svg width="24" height="24" viewBox="0 0 24 24" fill="none" xmlns="http://www.w3.org/2000/svg">
<circle cx="12" cy="12" r="3" fill="#33363F"/>
<path fill-rule="evenodd" clip-rule="evenodd" d="M12 2.40002C12.3314 2.40002 12.6 2.66865 12.6 3.00002V5.00002C12.6 5.0085 12.5998 5.01694 12.5995 5.02533C15.9872 5.31266 18.6874 8.01278 18.9747 11.4006L18.9866 11.4002L19 11.4H21C21.3314 11.4 21.6 11.6687 21.6 12C21.6 12.3314 21.3314 12.6 21 12.6H19L18.9848 12.5998L18.9747 12.5995C18.6874 15.9873 15.9872 18.6874 12.5995 18.9747C12.5996 18.9781 12.5997 18.9814 12.5998 18.9848C12.5999 18.9899 12.6 18.9949 12.6 19V21C12.6 21.3314 12.3314 21.6 12 21.6C11.6686 21.6 11.4 21.3314 11.4 21V19C11.4 18.9956 11.4 18.9911 11.4001 18.9866C11.4002 18.9827 11.4004 18.9787 11.4005 18.9747C8.01275 18.6874 5.31263 15.9873 5.0253 12.5995C5.01691 12.5998 5.00847 12.6 4.99999 12.6H2.99999C2.66862 12.6 2.39999 12.3314 2.39999 12C2.39999 11.6687 2.66862 11.4 2.99999 11.4H4.99999C5.00847 11.4 5.01691 11.4002 5.0253 11.4006C5.31263 8.01278 8.01275 5.31266 11.4005 5.02533C11.4002 5.01694 11.4 5.0085 11.4 5.00002V3.00002C11.4 2.66865 11.6686 2.40002 12 2.40002ZM12 18C15.3137 18 18 15.3137 18 12C18 8.68632 15.3137 6.00002 12 6.00002C8.68629 6.00002 5.99999 8.68632 5.99999 12C5.99999 15.3137 8.68629 18 12 18Z" fill="#2A4157" fill-opacity="0.24"/>
</svg>
