<svg width="24" height="24" viewBox="0 0 24 24" fill="none" xmlns="http://www.w3.org/2000/svg">
<path d="M17.6384 15.9035L17.3538 16.3146L17.6384 15.9035ZM6.36158 15.9035L6.64618 16.3146L6.36158 15.9035ZM6.36158 8.09648L6.64619 7.68538L6.36158 8.09648ZM5 4V6.45209H6V4H5ZM5 17.5479V20H6V17.5479H5ZM6 21H18V20H6V21ZM19 20V17.5479H18V20H19ZM19 6.45209V4H18V6.45209H19ZM18 3H6V4H18V3ZM17.923 15.4924L12.2846 11.5889L11.7154 12.4111L17.3538 16.3146L17.923 15.4924ZM12.2846 12.4111L17.923 8.50757L17.3538 7.68538L11.7154 11.5889L12.2846 12.4111ZM6.07698 8.50757L11.7154 12.4111L12.2846 11.5889L6.64619 7.68538L6.07698 8.50757ZM11.7154 11.5889L6.07697 15.4924L6.64618 16.3146L12.2846 12.4111L11.7154 11.5889ZM19 4C19 3.44772 18.5523 3 18 3V4H19ZM18 6.45209C18 6.94431 17.7585 7.40521 17.3538 7.68538L17.923 8.50757C18.5975 8.04062 19 7.27246 19 6.45209H18ZM19 17.5479C19 16.7275 18.5975 15.9594 17.923 15.4924L17.3538 16.3146C17.7585 16.5948 18 17.0557 18 17.5479H19ZM18 21C18.5523 21 19 20.5523 19 20H18V21ZM5 20C5 20.5523 5.44772 21 6 21V20H5ZM6 17.5479C6 17.0557 6.24149 16.5948 6.64618 16.3146L6.07697 15.4924C5.40248 15.9594 5 16.7275 5 17.5479H6ZM5 6.45209C5 7.27246 5.40248 8.04062 6.07698 8.50757L6.64619 7.68538C6.24149 7.40521 6 6.94431 6 6.45209H5ZM6 4H6V3C5.44772 3 5 3.44771 5 4H6Z" fill="#33363F"/>
<path d="M15 20.5C15 20.7761 15.2239 21 15.5 21C15.7761 21 16 20.7761 16 20.5H15ZM8 20.5C8 20.7761 8.22386 21 8.5 21C8.77614 21 9 20.7761 9 20.5H8ZM9.25579 18.0681L9.00772 17.634L9.25579 18.0681ZM11.9256 16.5425L11.6775 16.1084L11.9256 16.5425ZM16 20.5V19.3705H15V20.5H16ZM14.9923 17.634L12.3225 16.1084L11.8264 16.9766L14.4961 18.5022L14.9923 17.634ZM11.6775 16.1084L9.00772 17.634L9.50386 18.5022L12.1736 16.9766L11.6775 16.1084ZM8 19.3705V20.5H9V19.3705H8ZM9.00772 17.634C8.38457 17.9901 8 18.6528 8 19.3705H9C9 19.0116 9.19229 18.6803 9.50386 18.5022L9.00772 17.634ZM12.3225 16.1084C12.1227 15.9942 11.8773 15.9942 11.6775 16.1084L12.1736 16.9766C12.066 17.0381 11.934 17.0381 11.8264 16.9766L12.3225 16.1084ZM16 19.3705C16 18.6528 15.6154 17.9901 14.9923 17.634L14.4961 18.5022C14.8077 18.6803 15 19.0116 15 19.3705H16Z" fill="#33363F"/>
</svg>
