<svg width="24" height="24" viewBox="0 0 24 24" fill="none" xmlns="http://www.w3.org/2000/svg">
<path d="M18.1254 16.1694L18.6881 15.3427L18.1254 16.1694ZM5.87462 16.1694L6.43731 16.996L5.87462 16.1694ZM5.87462 7.83062L5.31193 8.65729L5.87462 7.83062ZM4 3.5V6.17729H6V3.5H4ZM4 17.8227V20.5H6V17.8227H4ZM5.5 22H18.5V20H5.5V22ZM20 20.5V17.8227H18V20.5H20ZM20 6.17729V3.5H18V6.17729H20ZM18.5 2H5.5V4H18.5V2ZM18.6881 15.3427L12.5627 11.1733L11.4373 12.8267L17.5627 16.996L18.6881 15.3427ZM12.5627 12.8267L18.6881 8.65729L17.5627 7.00396L11.4373 11.1733L12.5627 12.8267ZM5.31193 8.65729L11.4373 12.8267L12.5627 11.1733L6.43731 7.00396L5.31193 8.65729ZM11.4373 11.1733L5.31193 15.3427L6.43731 16.996L12.5627 12.8267L11.4373 11.1733ZM20 3.5C20 2.67157 19.3284 2 18.5 2V4C18.2239 4 18 3.77614 18 3.5H20ZM18 6.17729C18 6.50823 17.8363 6.81774 17.5627 7.00396L18.6881 8.65729C19.5088 8.09864 20 7.17011 20 6.17729H18ZM20 17.8227C20 16.8299 19.5088 15.9014 18.6881 15.3427L17.5627 16.996C17.8363 17.1823 18 17.4918 18 17.8227H20ZM18.5 22C19.3284 22 20 21.3284 20 20.5H18C18 20.2239 18.2239 20 18.5 20V22ZM4 20.5C4 21.3284 4.67157 22 5.5 22V20C5.77614 20 6 20.2239 6 20.5H4ZM6 17.8227C6 17.4918 6.16373 17.1823 6.43731 16.996L5.31193 15.3427C4.49119 15.9014 4 16.8299 4 17.8227H6ZM4 6.17729C4 7.17011 4.49119 8.09864 5.31193 8.65729L6.43731 7.00396C6.16373 6.81774 6 6.50823 6 6.17729H4ZM6 3.5C6 3.77614 5.77614 4 5.5 4V2C4.67157 2 4 2.67157 4 3.5H6Z" fill="#33363F"/>
<path d="M15 20.2071V20.85C15 20.9328 14.9328 21 14.85 21H9.15C9.06716 21 9 20.9328 9 20.85V20.2071C9 20.0745 9.05268 19.9473 9.14645 19.8536L11.4343 17.5657C11.7467 17.2533 12.2533 17.2533 12.5657 17.5657L14.8536 19.8536C14.9473 19.9473 15 20.0745 15 20.2071Z" fill="#33363F"/>
<path d="M12 11L17 8H7L12 11Z" fill="#33363F"/>
<path d="M12 18V12" stroke="#33363F" stroke-width="2" stroke-linecap="round" stroke-linejoin="round"/>
</svg>
