<svg width="24" height="24" viewBox="0 0 24 24" fill="none" xmlns="http://www.w3.org/2000/svg">
<path d="M6.8874 5.17157C7.46546 4.59351 7.75449 4.30448 8.12203 4.15224C8.48957 4 8.89832 4 9.71582 4H14.326C15.1517 4 15.5646 4 15.9351 4.15505C16.3056 4.31011 16.5954 4.60419 17.175 5.19234L18.849 6.89105C19.4171 7.46745 19.7011 7.75566 19.8505 8.12024C20 8.48482 20 8.88945 20 9.69871V14.3431C20 15.1606 20 15.5694 19.8478 15.9369C19.6955 16.3045 19.4065 16.5935 18.8284 17.1716L17.1716 18.8284C16.5935 19.4065 16.3045 19.6955 15.9369 19.8478C15.5694 20 15.1606 20 14.3431 20H9.69871C8.88945 20 8.48482 20 8.12024 19.8505C7.75566 19.7011 7.46745 19.4171 6.89105 18.849L5.19235 17.175C4.60419 16.5954 4.31011 16.3056 4.15505 15.9351C4 15.5646 4 15.1517 4 14.326V9.71583C4 8.89832 4 8.48957 4.15224 8.12203C4.30448 7.75449 4.59351 7.46546 5.17157 6.8874L6.8874 5.17157Z" stroke="#33363F" stroke-width="2"/>
<path d="M8.44721 10.1056C7.95324 9.85858 7.35256 10.0588 7.10557 10.5528C6.85858 11.0468 7.05881 11.6474 7.55279 11.8944L8.44721 10.1056ZM16.4472 11.8944C16.9412 11.6474 17.1414 11.0468 16.8944 10.5528C16.6474 10.0588 16.0468 9.85858 15.5528 10.1056L16.4472 11.8944ZM7.55279 11.8944L7.97508 12.1056L8.86951 10.3167L8.44721 10.1056L7.55279 11.8944ZM16.0249 12.1056L16.4472 11.8944L15.5528 10.1056L15.1305 10.3167L16.0249 12.1056ZM7.97508 12.1056C10.5088 13.3724 13.4912 13.3724 16.0249 12.1056L15.1305 10.3167C13.1598 11.3021 10.8402 11.3021 8.86951 10.3167L7.97508 12.1056Z" fill="#33363F"/>
<path d="M12 12.5V14" stroke="#33363F" stroke-width="2" stroke-linecap="round"/>
<path d="M9 12L8.5 13" stroke="#33363F" stroke-width="2" stroke-linecap="round"/>
<path d="M15 12L15.5 13" stroke="#33363F" stroke-width="2" stroke-linecap="round"/>
</svg>
