<svg width="24" height="24" viewBox="0 0 24 24" fill="none" xmlns="http://www.w3.org/2000/svg">
<path fill-rule="evenodd" clip-rule="evenodd" d="M6.8874 5.17157L6.8874 5.17157L5.17157 6.8874C4.59351 7.46546 4.30448 7.75449 4.15224 8.12203C4 8.48957 4 8.89832 4 9.71583V14.326C4 15.1517 4 15.5646 4.15505 15.9351C4.31011 16.3056 4.60419 16.5954 5.19235 17.175L6.89105 18.849C7.46745 19.4171 7.75566 19.7011 8.12024 19.8505C8.48482 20 8.88945 20 9.69871 20H14.3431C15.1606 20 15.5694 20 15.9369 19.8478C16.3045 19.6955 16.5935 19.4065 17.1716 18.8284L18.8284 17.1716C19.4065 16.5935 19.6955 16.3045 19.8478 15.9369C20 15.5694 20 15.1606 20 14.3431V9.69871C20 8.88945 20 8.48482 19.8505 8.12024C19.7011 7.75566 19.4171 7.46745 18.849 6.89105L17.175 5.19234C16.5954 4.60419 16.3056 4.31011 15.9351 4.15505C15.5646 4 15.1517 4 14.326 4H9.71582C8.89832 4 8.48957 4 8.12203 4.15224C7.75449 4.30448 7.46546 4.59351 6.8874 5.17157ZM8.44721 10.1056C7.95324 9.85858 7.35256 10.0588 7.10557 10.5528C6.85858 11.0468 7.05881 11.6474 7.55279 11.8944L7.85836 12.0472L7.60557 12.5528C7.35858 13.0468 7.55881 13.6474 8.05279 13.8944C8.54676 14.1414 9.14744 13.9412 9.39443 13.4472L9.73496 12.7661C10.1518 12.8745 10.5746 12.9525 11 13V14C11 14.5523 11.4477 15 12 15C12.5523 15 13 14.5523 13 14V13C13.4254 12.9525 13.8482 12.8745 14.265 12.7661L14.6056 13.4472C14.8526 13.9412 15.4532 14.1414 15.9472 13.8944C16.4412 13.6474 16.6414 13.0468 16.3944 12.5528L16.1416 12.0472L16.4472 11.8944C16.9412 11.6474 17.1414 11.0468 16.8944 10.5528C16.6474 10.0588 16.0468 9.85858 15.5528 10.1056L15.1305 10.3167C13.1598 11.3021 10.8402 11.3021 8.86951 10.3167L8.44721 10.1056Z" fill="#33363F"/>
</svg>
