<svg width="24" height="24" viewBox="0 0 24 24" fill="none" xmlns="http://www.w3.org/2000/svg">
<path d="M22 8L22.3536 7.64645L22.7071 8L22.3536 8.35355L22 8ZM3 8.5C2.72386 8.5 2.5 8.27614 2.5 8C2.5 7.72386 2.72386 7.5 3 7.5V8.5ZM18.3536 3.64645L22.3536 7.64645L21.6464 8.35355L17.6464 4.35355L18.3536 3.64645ZM22.3536 8.35355L18.3536 12.3536L17.6464 11.6464L21.6464 7.64645L22.3536 8.35355ZM22 8.5H3V7.5H22V8.5Z" fill="#222222"/>
<path d="M2 16L1.64645 15.6464L1.29289 16L1.64645 16.3536L2 16ZM11 16.5C11.2761 16.5 11.5 16.2761 11.5 16C11.5 15.7239 11.2761 15.5 11 15.5L11 16.5ZM5.64645 11.6464L1.64645 15.6464L2.35355 16.3536L6.35355 12.3536L5.64645 11.6464ZM1.64645 16.3536L5.64645 20.3536L6.35355 19.6464L2.35355 15.6464L1.64645 16.3536ZM2 16.5L11 16.5L11 15.5L2 15.5L2 16.5Z" fill="#222222"/>
</svg>
