<svg width="24" height="24" viewBox="0 0 24 24" fill="none" xmlns="http://www.w3.org/2000/svg">
<path d="M4 8L3.64645 7.64645L3.29289 8L3.64645 8.35355L4 8ZM19.5 10C19.5 10.2761 19.7239 10.5 20 10.5C20.2761 10.5 20.5 10.2761 20.5 10H19.5ZM7.64645 3.64645L3.64645 7.64645L4.35355 8.35355L8.35355 4.35355L7.64645 3.64645ZM3.64645 8.35355L7.64645 12.3536L8.35355 11.6464L4.35355 7.64645L3.64645 8.35355ZM4 8.5H18V7.5H4V8.5ZM18 8.5C18.8284 8.5 19.5 9.17157 19.5 10H20.5C20.5 8.61929 19.3807 7.5 18 7.5V8.5Z" fill="#222222"/>
<path d="M20 16L20.3536 15.6464L20.7071 16L20.3536 16.3536L20 16ZM5 16L5 16.5L5 16.5L5 16ZM2.5 14C2.5 13.7239 2.72386 13.5 3 13.5C3.27614 13.5 3.5 13.7239 3.5 14L2.5 14ZM16.3536 11.6464L20.3536 15.6464L19.6464 16.3536L15.6464 12.3536L16.3536 11.6464ZM20.3536 16.3536L16.3536 20.3536L15.6464 19.6464L19.6464 15.6464L20.3536 16.3536ZM20 16.5L5 16.5L5 15.5L20 15.5L20 16.5ZM5 16.5C3.61929 16.5 2.5 15.3807 2.5 14L3.5 14C3.5 14.8284 4.17157 15.5 5 15.5L5 16.5Z" fill="#222222"/>
</svg>
