<svg width="24" height="24" viewBox="0 0 24 24" fill="none" xmlns="http://www.w3.org/2000/svg">
<path d="M12 21.5C16.1012 21.5 19.5 18.4372 19.5 14.5714C19.5 12.1555 18.2672 9.71249 16.8732 7.70906C15.4698 5.69214 13.8515 4.04821 12.9778 3.21778C12.4263 2.69364 11.5737 2.69364 11.0222 3.21779C10.1485 4.04821 8.53016 5.69214 7.1268 7.70906C5.73282 9.71249 4.5 12.1555 4.5 14.5714C4.5 18.4372 7.8988 21.5 12 21.5Z" stroke="#222222"/>
<path d="M12 18C11.4747 18 10.9546 17.8965 10.4693 17.6955C9.98396 17.4945 9.54301 17.1999 9.17157 16.8284C8.80014 16.457 8.5055 16.016 8.30448 15.5307C8.10346 15.0454 8 14.5253 8 14" stroke="#222222" stroke-linecap="round"/>
</svg>
