<svg width="24" height="24" viewBox="0 0 24 24" fill="none" xmlns="http://www.w3.org/2000/svg">
<path d="M21 18V7L18 9L12 10L5 9L3 7V18L9 11.5L13 15L16.5 13L19.5 17.5L21 18Z" fill="#222222"/>
<path d="M3 17L6.03914 13.4543C7.24119 12.0519 7.84222 11.3507 8.58666 11.2437C8.82846 11.209 9.07458 11.2188 9.31284 11.2727C10.0464 11.4388 10.5896 12.1857 11.676 13.6794L11.9869 14.107C12.2379 14.4521 12.3633 14.6246 12.5031 14.7213C12.8185 14.9396 13.2311 14.9582 13.5649 14.7691C13.7128 14.6854 13.8533 14.5248 14.1342 14.2038V14.2038C14.7172 13.5374 15.0088 13.2043 15.3126 13.0352C15.9993 12.6532 16.846 12.7087 17.4769 13.177C17.7562 13.3842 18.0017 13.7526 18.4929 14.4893L20.5 17.5" stroke="#222222" stroke-width="2"/>
<path d="M7 9.5V4.5M17 9.5V4.5" stroke="#222222" stroke-width="2" stroke-linecap="round"/>
<path d="M2 17C2 17.5523 2.44772 18 3 18C3.55228 18 4 17.5523 4 17H2ZM4 7C4 6.44772 3.55228 6 3 6C2.44772 6 2 6.44772 2 7H4ZM22 7C22 6.44772 21.5523 6 21 6C20.4477 6 20 6.44772 20 7H22ZM20 17C20 17.5523 20.4477 18 21 18C21.5523 18 22 17.5523 22 17H20ZM4 17V7H2V17H4ZM20 7V17H22V7H20Z" fill="#222222"/>
<path d="M17.0198 4.50998C18.6218 4.86883 19.8353 5.38985 20.4812 5.99615C21.127 6.60244 21.1711 7.26189 20.6067 7.87715C20.0424 8.49242 18.8996 9.03091 17.347 9.41315C15.7944 9.79539 13.9143 10.0011 11.9842 10C10.054 9.99886 8.17609 9.79092 6.62756 9.40686C5.07902 9.0228 3.94192 8.48297 3.38408 7.86705C2.82624 7.25112 2.87721 6.59173 3.52947 5.9862C4.18173 5.38067 5.40073 4.86107 7.00654 4.50411" stroke="#222222" stroke-width="2" stroke-linecap="round"/>
<path d="M21 17C21 17.7956 20.0518 18.5587 18.364 19.1213C16.6761 19.6839 14.3869 20 12 20C9.61305 20 7.32387 19.6839 5.63604 19.1213C3.94821 18.5587 3 17.7956 3 17" stroke="#222222" stroke-width="2"/>
</svg>
