<svg width="24" height="24" viewBox="0 0 24 24" fill="none" xmlns="http://www.w3.org/2000/svg">
<path d="M3 11C3 7.22876 3 5.34315 4.17157 4.17157C5.34315 3 7.22876 3 11 3H13C16.7712 3 18.6569 3 19.8284 4.17157C21 5.34315 21 7.22876 21 11V13C21 16.7712 21 18.6569 19.8284 19.8284C18.6569 21 16.7712 21 13 21H11C7.22876 21 5.34315 21 4.17157 19.8284C3 18.6569 3 16.7712 3 13V11Z" stroke="#222222"/>
<path fill-rule="evenodd" clip-rule="evenodd" d="M18.9976 14.2904L18.6544 13.9471L18.6385 13.9313C18.238 13.5307 17.9149 13.2077 17.6314 12.9687C17.3394 12.7226 17.055 12.5353 16.7221 12.4349C16.2512 12.2928 15.7488 12.2928 15.2779 12.4349C14.945 12.5353 14.6606 12.7226 14.3686 12.9687C14.0851 13.2077 13.762 13.5307 13.3615 13.9313L13.3456 13.9471C13.0459 14.2469 12.8458 14.4462 12.6832 14.5807C12.5218 14.7142 12.452 14.7359 12.4237 14.7408C12.3029 14.762 12.1785 14.7381 12.0742 14.6735C12.0498 14.6584 11.993 14.6123 11.8928 14.4285C11.7917 14.2432 11.68 13.9838 11.513 13.5942L11.4596 13.4696L11.4475 13.4414L11.4475 13.4414C11.0829 12.5907 10.7931 11.9144 10.5107 11.4126C10.2237 10.9026 9.90522 10.4984 9.44575 10.268C9.03426 10.0618 8.57382 9.97308 8.11515 10.0118C7.603 10.055 7.15716 10.3121 6.70134 10.6789C6.25273 11.04 5.73245 11.5603 5.07799 12.2148L5.07798 12.2148L5.05634 12.2364L5 12.2928V12.9999C5 13.2462 5.00007 13.4816 5.00044 13.7065L5.76344 12.9435C6.44443 12.2626 6.92686 11.7811 7.32835 11.458C7.72756 11.1366 7.98255 11.0265 8.19924 11.0082C8.47444 10.985 8.75071 11.0382 8.9976 11.162C9.192 11.2594 9.38786 11.4564 9.63918 11.903C9.89194 12.3521 10.1611 12.9783 10.5404 13.8635L10.5938 13.9881L10.6034 14.0105L10.6034 14.0105C10.7583 14.3719 10.8884 14.6754 11.0149 14.9073C11.1448 15.1455 11.3038 15.3727 11.5479 15.5238C11.8608 15.7175 12.2341 15.7894 12.5966 15.7258C12.8794 15.6761 13.1114 15.5242 13.3204 15.3513C13.524 15.183 13.7575 14.9495 14.0355 14.6714L14.0527 14.6542C14.4728 14.2341 14.766 13.9416 15.013 13.7334C15.2553 13.5292 15.4185 13.437 15.5667 13.3922C15.8493 13.307 16.1507 13.307 16.4333 13.3922C16.5815 13.437 16.7447 13.5292 16.987 13.7334C17.234 13.9416 17.5272 14.2341 17.9473 14.6542L18.9755 15.6825C18.9887 15.2721 18.9948 14.812 18.9976 14.2904Z" fill="#222222"/>
<circle cx="16.5" cy="7.5" r="1.5" fill="#222222"/>
</svg>
