<svg width="24" height="24" viewBox="0 0 24 24" fill="none" xmlns="http://www.w3.org/2000/svg">
<mask id="mask0_1358_2915" style="mask-type:alpha" maskUnits="userSpaceOnUse" x="3" y="3" width="18" height="18">
<path d="M3 11C3 7.22876 3 5.34315 4.17157 4.17157C5.34315 3 7.22876 3 11 3H13C16.7712 3 18.6569 3 19.8284 4.17157C21 5.34315 21 7.22876 21 11V13C21 16.7712 21 18.6569 19.8284 19.8284C18.6569 21 16.7712 21 13 21H11C7.22876 21 5.34315 21 4.17157 19.8284C3 18.6569 3 16.7712 3 13V11Z" fill="black"/>
</mask>
<g mask="url(#mask0_1358_2915)">
<path d="M12.6887 14.5694L11.1918 12.9365C9.9224 11.5517 9.28772 10.8593 8.46257 10.8217C7.63742 10.7842 6.94243 11.416 5.55245 12.6796L3.63072 14.4266C3.33204 14.6981 3.1827 14.8339 3.09823 15.0102C3.08945 15.0285 3.08124 15.047 3.07359 15.0658C3 15.2469 3 15.4487 3 15.8524C3 19.5206 3 21.3546 4.08333 22.5089C4.19186 22.6246 4.30718 22.7337 4.42866 22.8356C5.64128 23.8533 7.47254 23.7515 11.1351 23.5481L14.447 23.3641C17.0575 23.219 18.3627 23.1465 19.2979 22.4901C19.7385 22.1809 20.1122 21.7859 20.3965 21.3288C21 20.3586 21 19.0514 21 16.4369V16.2426C21 15.8352 21 15.6314 20.9616 15.4382C20.9103 15.1806 20.8089 14.9357 20.6629 14.7173C20.5535 14.5535 20.4094 14.4094 20.1213 14.1213C19.4624 13.4624 19.1329 13.1329 18.7654 12.9807C18.2753 12.7777 17.7247 12.7777 17.2346 12.9807C16.8671 13.1329 16.5376 13.4624 15.8787 14.1213L15.3722 14.6278C14.7797 15.2203 14.4834 15.5166 14.1241 15.5501C14.048 15.5572 13.9713 15.5555 13.8956 15.5451C13.5381 15.4961 13.2549 15.1872 12.6887 14.5694L12.6887 14.5694Z" fill="#2A4157" fill-opacity="0.24"/>
</g>
<circle cx="6" cy="6" r="2" fill="#222222"/>
<path d="M20 4V3.4H20.6V4H20ZM14.4243 10.4243C14.1899 10.6586 13.8101 10.6586 13.5757 10.4243C13.3414 10.1899 13.3414 9.81005 13.5757 9.57574L14.4243 10.4243ZM19.4 9V4H20.6V9H19.4ZM20 4.6H15V3.4H20V4.6ZM20.4243 4.42426L14.4243 10.4243L13.5757 9.57574L19.5757 3.57574L20.4243 4.42426Z" fill="#222222"/>
</svg>
