<svg width="24" height="24" viewBox="0 0 24 24" fill="none" xmlns="http://www.w3.org/2000/svg">
<mask id="mask0_1358_2921" style="mask-type:alpha" maskUnits="userSpaceOnUse" x="3" y="3" width="18" height="18">
<path d="M3 11C3 7.22876 3 5.34315 4.17157 4.17157C5.34315 3 7.22876 3 11 3H13C16.7712 3 18.6569 3 19.8284 4.17157C21 5.34315 21 7.22876 21 11V13C21 16.7712 21 18.6569 19.8284 19.8284C18.6569 21 16.7712 21 13 21H11C7.22876 21 5.34315 21 4.17157 19.8284C3 18.6569 3 16.7712 3 13V11Z" fill="black"/>
</mask>
<g mask="url(#mask0_1358_2921)">
<path d="M12.8982 14.788L4.36551 5.40206C4.13272 5.14599 3.8027 5 3.45663 5C2.09987 5 1 6.09987 1 7.45663V15.501C1 19.2722 1 21.1578 2.17157 22.3294C3.34315 23.501 5.22876 23.501 9 23.501H17.0344C17.5375 23.501 17.7891 23.501 18.0085 23.4767C19.6448 23.2955 21.0029 22.1303 21.4308 20.5406C21.4882 20.3274 21.5264 20.0788 21.6029 19.5816L21.6029 19.5815C21.6548 19.2444 21.6807 19.0758 21.6923 18.9161C21.7777 17.7424 21.3419 16.5907 20.501 15.7675C20.3866 15.6555 20.2556 15.5463 19.9936 15.328L19.9935 15.3279L18.1773 13.8144C17.9625 13.6354 17.8551 13.546 17.7631 13.4851C16.835 12.871 15.5841 13.1327 14.9799 14.0673C14.92 14.1599 14.8575 14.2849 14.7325 14.5349L14.7325 14.535L14.7325 14.535C14.6616 14.6769 14.6261 14.7478 14.5934 14.7974C14.2609 15.3023 13.5599 15.399 13.1032 15.003C13.0583 14.9641 13.0049 14.9054 12.8982 14.788L12.8982 14.788Z" fill="#2A4157" fill-opacity="0.24" stroke="#222222" stroke-width="1.2" stroke-linecap="round"/>
</g>
<path d="M21 11V13C21 16.7712 21 18.6569 19.8284 19.8284C18.6569 21 16.7712 21 13 21H11C7.22876 21 5.34315 21 4.17157 19.8284C3 18.6569 3 16.7712 3 13V11C3 7.22876 3 5.34315 4.17157 4.17157C5.34315 3 7.22876 3 11 3H12" stroke="#222222" stroke-width="1.2"/>
<path d="M21 3V2.4H21.6V3H21ZM16.3748 7.46852C16.1161 7.67553 15.7385 7.63357 15.5315 7.37482C15.3245 7.11606 15.3664 6.73848 15.6252 6.53148L16.3748 7.46852ZM20.4 8V3H21.6V8H20.4ZM21 3.6H16V2.4H21V3.6ZM21.3748 3.46852L16.3748 7.46852L15.6252 6.53148L20.6252 2.53148L21.3748 3.46852Z" fill="#222222"/>
</svg>
