<svg width="24" height="24" viewBox="0 0 24 24" fill="none" xmlns="http://www.w3.org/2000/svg">
<path d="M21 11V13C21 16.7712 21 18.6569 19.8284 19.8284C18.6569 21 16.7712 21 13 21H11C7.22876 21 5.34315 21 4.17157 19.8284C3 18.6569 3 16.7712 3 13V11C3 7.22876 3 5.34315 4.17157 4.17157C5.34315 3 7.22876 3 11 3H12" stroke="#33363F" stroke-width="2"/>
<path fill-rule="evenodd" clip-rule="evenodd" d="M18.9997 13.5854L18.7569 13.3425L18.7422 13.3279C18.6785 13.2642 18.6249 13.2106 18.5777 13.1672C17.1476 11.8531 14.8649 12.2236 13.9237 13.9224C13.8926 13.9785 13.8587 14.0463 13.8185 14.1268L13.8185 14.1268L13.8092 14.1454L13.781 14.2016L13.7791 14.2054L13.7763 14.2022L13.7353 14.1545L8.75926 8.3491C8.39983 7.92978 7.76853 7.88122 7.34921 8.24064C6.92988 8.60006 6.88132 9.23136 7.24074 9.65069L12.2168 15.4561L12.2256 15.4664C12.2545 15.5001 12.2884 15.5397 12.3193 15.5727C13.246 16.5622 14.8679 16.3626 15.5269 15.1778C15.5489 15.1383 15.5722 15.0917 15.592 15.052L15.592 15.052L15.598 15.0399C15.6528 14.9304 15.6656 14.9052 15.6732 14.8916C15.9869 14.3253 16.7478 14.2019 17.2245 14.6399C17.2359 14.6504 17.2561 14.6702 17.3426 14.7568L18.9441 16.3582C18.9902 15.6404 18.9983 14.748 18.9997 13.5854Z" fill="#33363F"/>
<path d="M21 3V2H22V3H21ZM16.6247 7.78087C16.1934 8.12588 15.5641 8.05596 15.2191 7.62469C14.8741 7.19343 14.944 6.56414 15.3753 6.21913L16.6247 7.78087ZM20 8V3H22V8H20ZM21 4H16V2H21V4ZM21.6247 3.78087L16.6247 7.78087L15.3753 6.21913L20.3753 2.21913L21.6247 3.78087Z" fill="#33363F"/>
</svg>
