<svg width="24" height="24" viewBox="0 0 24 24" fill="none" xmlns="http://www.w3.org/2000/svg">
<path d="M3.5 18L5.96062 15.3157C7.2357 13.9247 7.87325 13.2292 8.64911 13.1621C8.83911 13.1457 9.0305 13.1565 9.21743 13.1943C9.98076 13.3485 10.5357 14.1116 11.6456 15.6377L12.0206 16.1534C12.2408 16.4562 12.351 16.6076 12.4698 16.6973C12.7999 16.9463 13.2491 16.9665 13.6002 16.7482C13.7267 16.6695 13.8499 16.5287 14.0965 16.2469V16.2469C14.6309 15.6361 14.8982 15.3307 15.1661 15.1694C15.9118 14.7206 16.8622 14.8056 17.5165 15.3796C17.7515 15.5859 17.9603 15.9339 18.3779 16.6298L19.5 18.5" stroke="#33363F" stroke-width="2"/>
<path d="M7 9.5V4.5M17 9.5V4.5" stroke="#33363F" stroke-width="2" stroke-linecap="round"/>
<path d="M2 17C2 17.5523 2.44772 18 3 18C3.55228 18 4 17.5523 4 17H2ZM4 7C4 6.44772 3.55228 6 3 6C2.44772 6 2 6.44772 2 7H4ZM22 7C22 6.44772 21.5523 6 21 6C20.4477 6 20 6.44772 20 7H22ZM20 17C20 17.5523 20.4477 18 21 18C21.5523 18 22 17.5523 22 17H20ZM4 17V7H2V17H4ZM20 7V17H22V7H20Z" fill="#33363F"/>
<path d="M17.0198 4.50998C18.6218 4.86883 19.8353 5.38985 20.4812 5.99615C21.127 6.60244 21.1711 7.26189 20.6067 7.87715C20.0424 8.49242 18.8996 9.03091 17.347 9.41315C15.7944 9.79539 13.9143 10.0011 11.9842 10C10.054 9.99886 8.17609 9.79092 6.62756 9.40686C5.07902 9.0228 3.94192 8.48297 3.38408 7.86705C2.82624 7.25112 2.87721 6.59173 3.52947 5.9862C4.18173 5.38067 5.40073 4.86107 7.00654 4.50411" stroke="#33363F" stroke-width="2" stroke-linecap="round"/>
<path d="M21 17C21 17.7956 20.0518 18.5587 18.364 19.1213C16.6761 19.6839 14.3869 20 12 20C9.61305 20 7.32387 19.6839 5.63604 19.1213C3.94821 18.5587 3 17.7956 3 17" stroke="#33363F" stroke-width="2"/>
</svg>
