<svg width="24" height="24" viewBox="0 0 24 24" fill="none" xmlns="http://www.w3.org/2000/svg">
<path fill-rule="evenodd" clip-rule="evenodd" d="M4.17157 4.17157C3 5.34315 3 7.22876 3 11V13C3 13.165 3 13.3264 3.0001 13.4842L4.73385 11.9982L4.76277 11.9734C5.5916 11.2629 6.25232 10.6966 6.81891 10.3285C7.39961 9.95134 7.9626 9.72703 8.58499 9.81521C8.73012 9.83578 8.87315 9.86906 9.01245 9.91469C9.60982 10.1104 10.0159 10.5602 10.3704 11.155C10.7163 11.7354 11.0591 12.5352 11.4891 13.5386L11.4891 13.5386L11.5041 13.5737C11.7182 14.0731 11.8601 14.4016 11.9946 14.6282C12.1241 14.8462 12.2017 14.8901 12.2483 14.9069C12.275 14.9165 12.3023 14.9238 12.3302 14.9288C12.3783 14.9374 12.4678 14.9382 12.6909 14.8125C12.9223 14.682 13.2115 14.4664 13.649 14.1383L13.6693 14.123C14.1297 13.7777 14.5047 13.4964 14.834 13.2972C15.1771 13.0897 15.5065 12.948 15.8827 12.9093C15.9569 12.9016 16.0315 12.8973 16.1061 12.8964C16.4837 12.8915 16.8264 12.9935 17.1898 13.1594C17.5383 13.3185 17.9408 13.5533 18.4347 13.8414L18.4567 13.8542L20.9855 15.3293C21 14.6442 21 13.8726 21 13V11C21 7.22876 21 5.34315 19.8284 4.17157C18.6569 3 16.7712 3 13 3H11C7.22876 3 5.34315 3 4.17157 4.17157ZM20.9413 16.4613L17.9528 14.718C17.4317 14.414 17.0722 14.205 16.7746 14.0692C16.4869 13.9378 16.296 13.894 16.119 13.8963C16.0743 13.8969 16.0295 13.8995 15.985 13.904L15.9338 13.4067L15.985 13.904C15.8094 13.9221 15.6242 13.9879 15.3516 14.1528C15.07 14.3232 14.7346 14.574 14.249 14.9383L14.222 14.9585L14.222 14.9585C13.8188 15.2609 13.4773 15.5171 13.182 15.6835C12.8719 15.8584 12.5345 15.981 12.1547 15.9133C12.0712 15.8984 11.989 15.8764 11.9092 15.8476C11.547 15.7171 11.316 15.444 11.1348 15.1388C10.9625 14.8487 10.7954 14.4586 10.5983 13.9986L10.5983 13.9986L10.585 13.9676C10.1365 12.9212 9.81914 12.1833 9.51142 11.667C9.20829 11.1583 8.96329 10.9509 8.70118 10.865C8.6176 10.8376 8.53178 10.8177 8.4447 10.8053C8.17161 10.7666 7.86019 10.8446 7.36364 11.1672C6.85956 11.4946 6.24899 12.0166 5.38464 12.7574L3.00609 14.7962C3.03516 17.4031 3.20295 18.8598 4.17157 19.8284C5.34315 21 7.22876 21 11 21H13C16.7712 21 18.6569 21 19.8284 19.8284C20.568 19.0888 20.8407 18.0647 20.9413 16.4613Z" fill="#2A4157" fill-opacity="0.24"/>
<circle cx="16" cy="8" r="2" fill="#222222"/>
</svg>
