<svg width="24" height="24" viewBox="0 0 24 24" fill="none" xmlns="http://www.w3.org/2000/svg">
<path d="M3.5 18L5.96062 15.3157C7.2357 13.9247 7.87325 13.2292 8.64911 13.1621C8.83911 13.1457 9.0305 13.1565 9.21743 13.1943C9.98076 13.3485 10.5357 14.1116 11.6456 15.6377L12.0206 16.1534C12.2408 16.4562 12.351 16.6076 12.4698 16.6973C12.7999 16.9463 13.2491 16.9665 13.6002 16.7482C13.7267 16.6695 13.8499 16.5287 14.0965 16.2469V16.2469C14.6309 15.6361 14.8982 15.3307 15.1661 15.1694C15.9118 14.7206 16.8622 14.8056 17.5165 15.3796C17.7515 15.5859 17.9603 15.9339 18.3779 16.6298L19.5 18.5" stroke="#222222"/>
<path d="M6.5 8.5V5" stroke="#33363F" stroke-linecap="round"/>
<path d="M17.5 8.5V5" stroke="#33363F" stroke-linecap="round"/>
<path d="M2 17C2 17.2761 2.22386 17.5 2.5 17.5C2.77614 17.5 3 17.2761 3 17H2ZM3 7C3 6.72386 2.77614 6.5 2.5 6.5C2.22386 6.5 2 6.72386 2 7H3ZM22 7C22 6.72386 21.7761 6.5 21.5 6.5C21.2239 6.5 21 6.72386 21 7H22ZM21 17C21 17.2761 21.2239 17.5 21.5 17.5C21.7761 17.5 22 17.2761 22 17H21ZM3 17V7H2V17H3ZM21 7V17H22V7H21Z" fill="#33363F"/>
<path d="M17.5074 4.96298C19.1476 5.27007 20.3747 5.70633 21.0117 6.20882C21.6488 6.71132 21.6628 7.25408 21.0518 7.75881C20.4409 8.26354 19.2364 8.70415 17.6123 9.0171C15.9882 9.33004 14.0283 9.49914 12.0154 9.5C10.0024 9.50085 8.0405 9.33343 6.41253 9.02187C4.78457 8.71031 3.57474 8.27073 2.95756 7.76652C2.34037 7.26231 2.34774 6.71955 2.97859 6.21651C3.60943 5.71347 4.83116 5.27617 6.46753 4.96768" stroke="#222222" stroke-linecap="round"/>
<path d="M21.5 17C21.5 17.663 20.4991 18.2989 18.7175 18.7678C16.9359 19.2366 14.5196 19.5 12 19.5C9.48044 19.5 7.06408 19.2366 5.28249 18.7678C3.50089 18.2989 2.5 17.663 2.5 17" stroke="#222222"/>
</svg>
