<svg width="24" height="24" viewBox="0 0 24 24" fill="none" xmlns="http://www.w3.org/2000/svg">
<mask id="mask0_1358_2908" style="mask-type:alpha" maskUnits="userSpaceOnUse" x="3" y="3" width="18" height="18">
<path d="M3 11C3 7.22876 3 5.34315 4.17157 4.17157C5.34315 3 7.22876 3 11 3H13C16.7712 3 18.6569 3 19.8284 4.17157C21 5.34315 21 7.22876 21 11V13C21 16.7712 21 18.6569 19.8284 19.8284C18.6569 21 16.7712 21 13 21H11C7.22876 21 5.34315 21 4.17157 19.8284C3 18.6569 3 16.7712 3 13V11Z" fill="black"/>
</mask>
<g mask="url(#mask0_1358_2908)">
<path d="M12.8982 14.788L4.30976 5.34073C4.11247 5.12372 3.8328 5 3.53951 5C2.22574 5 1.24039 3.79807 1.49804 2.5098L1.89709 0.514565C2.24766 -1.23828 3.78671 -2.5 5.57426 -2.5H14.2922C18.1528 -2.5 20.0831 -2.5 21.2606 -1.29194C22.438 -0.0838838 22.3886 1.84576 22.2896 5.70506L22 17L18.1773 13.8144C17.9625 13.6354 17.8551 13.546 17.7631 13.4851C16.835 12.871 15.5841 13.1327 14.9799 14.0673C14.92 14.1599 14.8575 14.2849 14.7325 14.535C14.6616 14.6769 14.6261 14.7478 14.5934 14.7974C14.2609 15.3023 13.5599 15.399 13.1032 15.003C13.0583 14.9641 13.0049 14.9054 12.8982 14.788L12.8982 14.788Z" fill="#2A4157" fill-opacity="0.24" stroke="#222222" stroke-width="1.2" stroke-linecap="round"/>
</g>
<path d="M3 13V11C3 7.22876 3 5.34315 4.17157 4.17157C5.34315 3 7.22876 3 11 3H13C16.7712 3 18.6569 3 19.8284 4.17157C21 5.34315 21 7.22876 21 11V13C21 16.7712 21 18.6569 19.8284 19.8284C18.6569 21 16.7712 21 13 21H12" stroke="#222222" stroke-width="1.2"/>
<circle cx="16.5" cy="7.5" r="1.5" fill="#222222"/>
<path d="M8 16V15.4H8.6V16H8ZM3.37482 20.4685C3.11606 20.6755 2.73848 20.6336 2.53148 20.3748C2.32447 20.1161 2.36643 19.7385 2.62518 19.5315L3.37482 20.4685ZM7.4 21V16H8.6V21H7.4ZM8 16.6H3V15.4H8V16.6ZM8.37482 16.4685L3.37482 20.4685L2.62518 19.5315L7.62518 15.5315L8.37482 16.4685Z" fill="#222222"/>
</svg>
