<svg width="24" height="24" viewBox="0 0 24 24" fill="none" xmlns="http://www.w3.org/2000/svg">
<path fill-rule="evenodd" clip-rule="evenodd" d="M7 5.50519C4.58803 6.04336 3 6.95987 3 8C3 9.04014 4.58803 9.95665 7 10.4948V5.50519ZM17 10.4948C19.412 9.95665 21 9.04014 21 8C21 6.95987 19.412 6.04336 17 5.50519V10.4948Z" fill="#2A4157" fill-opacity="0.24"/>
<path fill-rule="evenodd" clip-rule="evenodd" d="M19.7364 18.331L18.4516 16.5322C17.7993 15.6191 17.4732 15.1625 17.0122 15.1237C16.9858 15.1215 16.9593 15.1203 16.9328 15.1202C16.4702 15.1181 16.105 15.5442 15.3747 16.3962C14.7465 17.1291 14.4324 17.4956 14.018 17.5265C13.994 17.5283 13.9698 17.5292 13.9457 17.5293C13.5302 17.5302 13.1889 17.1889 12.5064 16.5064L11.4142 15.4142C10.7475 14.7475 10.4142 14.4142 10 14.4142C9.58579 14.4142 9.25245 14.7475 8.58579 15.4142L5.14227 18.8577C5.37734 18.965 5.64719 19.0709 5.95227 19.1726C7.45402 19.6732 9.59229 20 12 20C14.4077 20 16.546 19.6732 18.0477 19.1726C18.8038 18.9206 19.3436 18.6425 19.6738 18.3823C19.6961 18.3648 19.7169 18.3476 19.7364 18.331ZM3 17.9997V9.88154V9.30924V8C3 8.49588 3.36093 8.96365 4 9.37573C5.49623 10.3405 8.51707 11 12 11C15.4829 11 18.5038 10.3405 20 9.37573C20.6391 8.96365 21 8.49588 21 8V9.30924V9.88154V17.9997V18C21 19.6569 16.9706 21 12 21C7.02944 21 3 19.6569 3 18V17.9997Z" fill="#222222"/>
</svg>
