<svg width="24" height="24" viewBox="0 0 24 24" fill="none" xmlns="http://www.w3.org/2000/svg">
<circle cx="17" cy="6" r="2" fill="#222222"/>
<path d="M11.0534 12.7913L10.3848 11.2311C10.0901 10.5435 9.94271 10.1997 9.75714 9.97631C9.19057 9.29437 8.24265 9.06683 7.42826 9.41728C7.16152 9.53206 6.87416 9.77154 6.29943 10.2505L6.29943 10.2505C5.5352 10.8873 5.15308 11.2058 4.83206 11.5571C3.87336 12.6065 3.25682 13.9228 3.06442 15.3311C3 15.8027 3 16.311 3 17.3276C3 17.9476 3 18.2575 3.06524 18.5067C3.24831 19.2057 3.79426 19.7517 4.49334 19.9348C4.74247 20 5.04572 20 5.65221 20H17.2654C17.9488 20 18.2905 20 18.569 19.9174C19.2176 19.7249 19.7249 19.2176 19.9174 18.569C20 18.2905 20 17.9488 20 17.2654C20 16.6671 20 16.3679 19.9585 16.0819C19.8627 15.4228 19.604 14.7981 19.2056 14.2643C19.0328 14.0328 18.8212 13.8212 18.3981 13.3981L18.1877 13.1877C17.4664 12.4664 17.1057 12.1057 16.6968 11.9537C16.2473 11.7867 15.7527 11.7867 15.3032 11.9537C14.8943 12.1057 14.5336 12.4664 13.8123 13.1877L13.6992 13.3008C13.1138 13.8862 12.8212 14.1788 12.5102 14.2334C12.2685 14.2758 12.0197 14.2279 11.811 14.0988C11.5425 13.9326 11.3795 13.5522 11.0534 12.7913L11.0534 12.7913Z" stroke="#222222"/>
</svg>
