<svg width="24" height="24" viewBox="0 0 24 24" fill="none" xmlns="http://www.w3.org/2000/svg">
<mask id="mask0_1358_2902" style="mask-type:alpha" maskUnits="userSpaceOnUse" x="3" y="3" width="18" height="18">
<path d="M3 11C3 7.22876 3 5.34315 4.17157 4.17157C5.34315 3 7.22876 3 11 3H13C16.7712 3 18.6569 3 19.8284 4.17157C21 5.34315 21 7.22876 21 11V13C21 16.7712 21 18.6569 19.8284 19.8284C18.6569 21 16.7712 21 13 21H11C7.22876 21 5.34315 21 4.17157 19.8284C3 18.6569 3 16.7712 3 13V11Z" fill="black"/>
</mask>
<g mask="url(#mask0_1358_2902)">
<path d="M13.0165 14.9271L10.8526 12.5665C9.90968 11.5378 9.43822 11.0235 8.85264 10.8784C8.59633 10.8149 8.32999 10.8028 8.06897 10.8427C7.47262 10.934 6.95636 11.4033 5.92383 12.342C4.86247 13.3068 4.33179 13.7893 3.87472 13.7316C3.68096 13.7071 3.4986 13.6264 3.35016 13.4995C3 13.2001 3 12.4829 3 11.0486V7.56789C3 3.98379 3 2.19174 4.09419 1.03508C5.18837 -0.121576 6.97766 -0.220981 10.5562 -0.419791L12.5562 -0.530903C16.5172 -0.750957 18.4977 -0.860985 19.7489 0.322575C21 1.50614 21 3.48968 21 7.45678V13.9062C21 14.4708 21 14.7531 20.9455 14.9114C20.75 15.4793 20.1015 15.7479 19.5617 15.4846C19.4112 15.4112 19.2116 15.2116 18.8123 14.8123C18.4423 14.4423 18.2572 14.2572 18.0697 14.1385C17.4165 13.7251 16.5835 13.7251 15.9303 14.1385C15.7428 14.2572 15.5577 14.4423 15.1877 14.8123L15.0292 14.9708C14.7599 15.2401 14.6253 15.3747 14.4823 15.447C14.1851 15.5971 13.8326 15.5894 13.5422 15.4265C13.4025 15.3482 13.2738 15.2078 13.0165 14.9271L13.0165 14.9271Z" fill="#2A4157" fill-opacity="0.24"/>
</g>
<path d="M8 16V15.4H8.6V16H8ZM2.42426 22.4243C2.18995 22.6586 1.81005 22.6586 1.57574 22.4243C1.34142 22.1899 1.34142 21.8101 1.57574 21.5757L2.42426 22.4243ZM7.4 21V16H8.6V21H7.4ZM8 16.6H3V15.4H8V16.6ZM8.42426 16.4243L2.42426 22.4243L1.57574 21.5757L7.57574 15.5757L8.42426 16.4243Z" fill="#222222"/>
<circle cx="16" cy="8" r="2" fill="#222222"/>
</svg>
