<svg width="24" height="24" viewBox="0 0 24 24" fill="none" xmlns="http://www.w3.org/2000/svg">
<circle cx="19" cy="6" r="2" fill="#222222"/>
<path fill-rule="evenodd" clip-rule="evenodd" d="M12.9001 17.5H4.68616C3.73925 17.5 3.1654 16.4546 3.67377 15.6557L8.48776 8.09091C8.9593 7.34991 10.041 7.34991 10.5125 8.0909L13.746 13.1721L15.5401 10.78C16.0201 10.14 16.9801 10.14 17.4601 10.78L21.0601 15.58C21.6534 16.3711 21.0889 17.5 20.1001 17.5H14.3141H12.9001Z" fill="#2A4157" fill-opacity="0.24"/>
<path d="M3.67377 15.6557L4.0956 15.9242L3.67377 15.6557ZM8.48776 8.09091L8.90959 8.35934V8.35934L8.48776 8.09091ZM10.5125 8.0909L10.9344 7.82247V7.82247L10.5125 8.0909ZM13.746 13.1721L13.3242 13.4405C13.4123 13.579 13.5628 13.6654 13.7268 13.6717C13.8909 13.678 14.0475 13.6034 14.146 13.4721L13.746 13.1721ZM15.5401 10.78L15.1401 10.48V10.48L15.5401 10.78ZM17.4601 10.78L17.8601 10.48L17.4601 10.78ZM21.0601 15.58L21.4601 15.28V15.28L21.0601 15.58ZM4.68616 18H12.9001V17H4.68616V18ZM3.25194 15.3873C2.53174 16.519 3.34471 18 4.68616 18V17C4.1338 17 3.79905 16.3902 4.0956 15.9242L3.25194 15.3873ZM8.06593 7.82247L3.25194 15.3873L4.0956 15.9242L8.90959 8.35934L8.06593 7.82247ZM10.9344 7.82247C10.2664 6.77272 8.73395 6.77272 8.06593 7.82247L8.90959 8.35934C9.18466 7.92709 9.81565 7.92709 10.0907 8.35934L10.9344 7.82247ZM14.1679 12.9036L10.9344 7.82247L10.0907 8.35934L13.3242 13.4405L14.1679 12.9036ZM15.1401 10.48L13.346 12.8721L14.146 13.4721L15.9401 11.08L15.1401 10.48ZM17.8601 10.48C17.1801 9.57333 15.8201 9.57333 15.1401 10.48L15.9401 11.08C16.2201 10.7067 16.7801 10.7067 17.0601 11.08L17.8601 10.48ZM21.4601 15.28L17.8601 10.48L17.0601 11.08L20.6601 15.88L21.4601 15.28ZM20.1001 18C21.501 18 22.3006 16.4007 21.4601 15.28L20.6601 15.88C21.0062 16.3415 20.6769 17 20.1001 17V18ZM14.3141 18H20.1001V17H14.3141V18ZM12.9001 18H14.3141V17H12.9001V18Z" fill="#222222"/>
</svg>
