<svg width="24" height="24" viewBox="0 0 24 24" fill="none" xmlns="http://www.w3.org/2000/svg">
<rect x="5" y="13" width="14" height="6" rx="2" fill="#2A4157" fill-opacity="0.24"/>
<path d="M9.85355 13.1464C9.65829 12.9512 9.34171 12.9512 9.14645 13.1464C8.95118 13.3417 8.95118 13.6583 9.14645 13.8536L9.85355 13.1464ZM12 16L11.6464 16.3536L12 16.7071L12.3536 16.3536L12 16ZM14.8536 13.8536C15.0488 13.6583 15.0488 13.3417 14.8536 13.1464C14.6583 12.9512 14.3417 12.9512 14.1464 13.1464L14.8536 13.8536ZM12.5 6C12.5 5.72386 12.2761 5.5 12 5.5C11.7239 5.5 11.5 5.72386 11.5 6L12.5 6ZM9.14645 13.8536L11.6464 16.3536L12.3536 15.6464L9.85355 13.1464L9.14645 13.8536ZM12.3536 16.3536L14.8536 13.8536L14.1464 13.1464L11.6464 15.6464L12.3536 16.3536ZM12.5 16L12.5 6L11.5 6L11.5 16L12.5 16Z" fill="#222222"/>
</svg>
