<svg width="24" height="24" viewBox="0 0 24 24" fill="none" xmlns="http://www.w3.org/2000/svg">
<path d="M11 10.5H11.5C11.7761 10.5 12 10.7239 12 11V15C12 15.2761 12.2239 15.5 12.5 15.5H13M12 8.5H12.01" stroke="#222222" stroke-linecap="round" stroke-linejoin="round"/>
<path d="M13.3892 19.8785C14.4238 19.696 15.4124 19.3116 16.2984 18.7471C17.1844 18.1827 17.9506 17.4492 18.5532 16.5886C19.1558 15.728 19.583 14.7572 19.8104 13.7315C20.0378 12.7058 20.0609 11.6454 19.8785 10.6108C19.696 9.5762 19.3116 8.58765 18.7471 7.7016C18.1827 6.81556 17.4492 6.04937 16.5886 5.44678C15.728 4.8442 14.7572 4.41702 13.7315 4.18963C12.7058 3.96225 11.6454 3.93911 10.6108 4.12154C9.5762 4.30397 8.58765 4.6884 7.7016 5.25287C6.81556 5.81734 6.04937 6.55081 5.44678 7.41139C4.8442 8.27197 4.41702 9.24281 4.18963 10.2685C3.96225 11.2942 3.93911 12.3546 4.12154 13.3892C4.30397 14.4238 4.6884 15.4124 5.25287 16.2984C5.81734 17.1844 6.55081 17.9506 7.41139 18.5532C8.27197 19.1558 9.24281 19.583 10.2685 19.8104C11.2942 20.0378 12.3546 20.0609 13.3892 19.8785L13.3892 19.8785Z" stroke="#222222"/>
</svg>
