<svg width="24" height="24" viewBox="0 0 24 24" fill="none" xmlns="http://www.w3.org/2000/svg">
<path d="M18 5H18.5V4.5H18V5ZM21.0299 11.7575L20.9086 12.2425H20.9086L21.0299 11.7575ZM19.5149 11.3787L19.6362 10.8937L19.5149 11.3787ZM19.5149 12.6213L19.6362 13.1063L19.5149 12.6213ZM21.0299 12.2425L21.1511 12.7276H21.1511L21.0299 12.2425ZM18 4.5H14V5.5H18V4.5ZM14 19.5H16V18.5H14V19.5ZM21.1511 11.2724L19.6362 10.8937L19.3937 11.8638L20.9086 12.2425L21.1511 11.2724ZM18.5 9.43845V5H17.5V9.43845H18.5ZM18.5 17V14.5616H17.5V17H18.5ZM19.6362 13.1063L21.1511 12.7276L20.9086 11.7575L19.3937 12.1362L19.6362 13.1063ZM18.5 14.5616C18.5 13.8733 18.9684 13.2733 19.6362 13.1063L19.3937 12.1362C18.2807 12.4144 17.5 13.4144 17.5 14.5616H18.5ZM19.6362 10.8937C18.9684 10.7267 18.5 10.1267 18.5 9.43845H17.5C17.5 10.5856 18.2807 11.5856 19.3937 11.8638L19.6362 10.8937ZM20.9086 12.2425C20.6561 12.1794 20.6561 11.8206 20.9086 11.7575L21.1511 12.7276C21.9086 12.5382 21.9086 11.4618 21.1511 11.2724L20.9086 12.2425ZM16 19.5C17.3807 19.5 18.5 18.3807 18.5 17H17.5C17.5 17.8284 16.8284 18.5 16 18.5V19.5Z" fill="#222222"/>
<path d="M6 19H5.5V19.5H6V19ZM2.97014 12.2425L3.09141 11.7575H3.09141L2.97014 12.2425ZM4.48507 12.6213L4.3638 13.1063L4.48507 12.6213ZM4.48507 11.3787L4.3638 10.8937L4.48507 11.3787ZM2.97014 11.7575L2.84887 11.2724H2.84887L2.97014 11.7575ZM6 19.5H10V18.5H6V19.5ZM10 4.5H8V5.5H10V4.5ZM2.84887 12.7276L4.3638 13.1063L4.60634 12.1362L3.09141 11.7575L2.84887 12.7276ZM5.5 14.5616V19H6.5V14.5616H5.5ZM5.5 7V9.43845H6.5V7H5.5ZM4.3638 10.8937L2.84887 11.2724L3.09141 12.2425L4.60634 11.8638L4.3638 10.8937ZM5.5 9.43845C5.5 10.1267 5.03155 10.7267 4.3638 10.8937L4.60634 11.8638C5.71926 11.5856 6.5 10.5856 6.5 9.43845H5.5ZM4.3638 13.1063C5.03155 13.2733 5.5 13.8733 5.5 14.5616H6.5C6.5 13.4144 5.71926 12.4144 4.60634 12.1362L4.3638 13.1063ZM3.09141 11.7575C3.3439 11.8206 3.3439 12.1794 3.09141 12.2425L2.84887 11.2724C2.09141 11.4618 2.09141 12.5382 2.84888 12.7276L3.09141 11.7575ZM8 4.5C6.61929 4.5 5.5 5.61929 5.5 7H6.5C6.5 6.17157 7.17157 5.5 8 5.5V4.5Z" fill="#222222"/>
</svg>
