<svg width="24" height="24" viewBox="0 0 24 24" fill="none" xmlns="http://www.w3.org/2000/svg">
<path d="M18 5H19V4H18V5ZM21.0299 11.7575L20.7873 12.7276L20.7873 12.7276L21.0299 11.7575ZM19.5149 11.3787L19.7575 10.4086H19.7575L19.5149 11.3787ZM19.5149 12.6213L19.7575 13.5914H19.7575L19.5149 12.6213ZM21.0299 12.2425L21.2724 13.2127H21.2724L21.0299 12.2425ZM18 4H14V6H18V4ZM14 20H16V18H14V20ZM21.2724 10.7873L19.7575 10.4086L19.2724 12.3489L20.7873 12.7276L21.2724 10.7873ZM19 9.43845V5H17V9.43845H19ZM19 17V14.5616H17V17H19ZM19.7575 13.5914L21.2724 13.2127L20.7873 11.2724L19.2724 11.6511L19.7575 13.5914ZM19 14.5616C19 14.1027 19.3123 13.7027 19.7575 13.5914L19.2724 11.6511C17.9369 11.985 17 13.185 17 14.5616H19ZM19.7575 10.4086C19.3123 10.2973 19 9.89732 19 9.43845H17C17 10.815 17.9369 12.015 19.2724 12.3489L19.7575 10.4086ZM20.7873 12.7276C20.0299 12.5382 20.0299 11.4618 20.7873 11.2724L21.2724 13.2127C22.5348 12.8971 22.5348 11.1029 21.2724 10.7873L20.7873 12.7276ZM16 20C17.6569 20 19 18.6569 19 17H17C17 17.5523 16.5523 18 16 18V20Z" fill="#33363F"/>
<path d="M6 19H5V20H6V19ZM2.97014 12.2425L3.21268 11.2724L3.21268 11.2724L2.97014 12.2425ZM4.48507 12.6213L4.24254 13.5914H4.24254L4.48507 12.6213ZM4.48507 11.3787L4.24254 10.4086H4.24254L4.48507 11.3787ZM2.97014 11.7575L2.72761 10.7873H2.72761L2.97014 11.7575ZM6 20H10V18H6V20ZM10 4H8V6H10V4ZM2.72761 13.2127L4.24254 13.5914L4.72761 11.6511L3.21268 11.2724L2.72761 13.2127ZM5 14.5616V19H7V14.5616H5ZM5 7V9.43845H7V7H5ZM4.24254 10.4086L2.72761 10.7873L3.21268 12.7276L4.72761 12.3489L4.24254 10.4086ZM5 9.43845C5 9.89731 4.6877 10.2973 4.24254 10.4086L4.72761 12.3489C6.06311 12.015 7 10.815 7 9.43845H5ZM4.24254 13.5914C4.6877 13.7027 5 14.1027 5 14.5616H7C7 13.185 6.06311 11.985 4.72761 11.6511L4.24254 13.5914ZM3.21268 11.2724C3.97014 11.4618 3.97015 12.5382 3.21268 12.7276L2.72761 10.7873C1.46516 11.1029 1.46517 12.8971 2.72761 13.2127L3.21268 11.2724ZM8 4C6.34315 4 5 5.34315 5 7H7C7 6.44772 7.44772 6 8 6V4Z" fill="#33363F"/>
</svg>
