<svg width="24" height="24" viewBox="0 0 24 24" fill="none" xmlns="http://www.w3.org/2000/svg">
<path d="M3 11C3 7.22876 3 5.34315 4.17157 4.17157C5.34315 3 7.22876 3 11 3H13C16.7712 3 18.6569 3 19.8284 4.17157C21 5.34315 21 7.22876 21 11V13C21 16.7712 21 18.6569 19.8284 19.8284C18.6569 21 16.7712 21 13 21H11C7.22876 21 5.34315 21 4.17157 19.8284C3 18.6569 3 16.7712 3 13V11Z" fill="#2A4157" fill-opacity="0.24"/>
<circle cx="8.5" cy="11.5" r="2" stroke="#222222"/>
<path d="M10.5 11.5H15.5M17.5 13.5V11.65C17.5 11.5672 17.4328 11.5 17.35 11.5H15.5M15.5 11.5V13.5" stroke="#222222" stroke-linecap="round"/>
</svg>
