<svg width="24" height="24" viewBox="0 0 24 24" fill="none" xmlns="http://www.w3.org/2000/svg">
<path d="M11.6464 11.6464C11.4512 11.8417 11.4512 12.1583 11.6464 12.3536C11.8417 12.5488 12.1583 12.5488 12.3536 12.3536L11.6464 11.6464ZM8.14645 12.1464C7.95118 12.3417 7.95118 12.6583 8.14645 12.8536C8.34171 13.0488 8.65829 13.0488 8.85355 12.8536L8.14645 12.1464ZM16.3953 4.60465L16.7489 4.9582L16.3953 4.60465ZM16.6047 7.39535L16.2511 7.0418L16.6047 7.39535ZM12.3536 12.3536L16.9582 7.7489L16.2511 7.0418L11.6464 11.6464L12.3536 12.3536ZM16.0418 4.2511L8.14645 12.1464L8.85355 12.8536L16.7489 4.9582L16.0418 4.2511ZM16.9582 4.2511C16.7051 3.99804 16.2949 3.99804 16.0418 4.2511L16.7489 4.9582C16.6114 5.09567 16.3886 5.09567 16.2511 4.9582L16.9582 4.2511ZM16.9582 7.7489C17.9241 6.78301 17.9241 5.21699 16.9582 4.2511L16.2511 4.9582C16.8265 5.53357 16.8265 6.46643 16.2511 7.0418L16.9582 7.7489Z" fill="#33363F"/>
<path d="M14.3536 9.64645C14.1583 9.45118 13.8417 9.45118 13.6464 9.64645C13.4512 9.84171 13.4512 10.1583 13.6464 10.3536L14.3536 9.64645ZM15.1464 5.14645C14.9512 5.34171 14.9512 5.65829 15.1464 5.85355C15.3417 6.04882 15.6583 6.04882 15.8536 5.85355L15.1464 5.14645ZM15.6061 11.3939L15.2525 11.0404L15.6061 11.3939ZM15.3939 11.3939L15.7475 11.0404L15.3939 11.3939ZM15.9596 11.7475L19.0251 8.68198L18.318 7.97488L15.2525 11.0404L15.9596 11.7475ZM19.0251 2.31802L18.9596 2.25251L18.2525 2.95962L18.318 3.02513L19.0251 2.31802ZM13.6464 10.3536L15.0404 11.7475L15.7475 11.0404L14.3536 9.64645L13.6464 10.3536ZM18.0404 2.25251L15.1464 5.14645L15.8536 5.85355L18.7475 2.95962L18.0404 2.25251ZM18.9596 2.25251C18.7058 1.99867 18.2942 1.99867 18.0404 2.25251L18.7475 2.95962C18.6108 3.0963 18.3892 3.0963 18.2525 2.95962L18.9596 2.25251ZM19.0251 8.68198C20.7825 6.92462 20.7825 4.07538 19.0251 2.31802L18.318 3.02513C19.6849 4.39196 19.6849 6.60804 18.318 7.97488L19.0251 8.68198ZM15.2525 11.0404C15.3892 10.9037 15.6108 10.9037 15.7475 11.0404L15.0404 11.7475C15.2942 12.0013 15.7058 12.0013 15.9596 11.7475L15.2525 11.0404Z" fill="#33363F"/>
<path d="M4 17L9 12C9.82843 11.1716 11.1716 11.1716 12 12C12.8284 12.8284 12.8284 14.1716 12 15L7 20C6.17157 20.8284 4.82843 20.8284 4 20C3.17157 19.1716 3.17157 17.8284 4 17Z" stroke="#33363F" stroke-linecap="round" stroke-linejoin="round"/>
<path d="M12 15L9 12" stroke="#33363F" stroke-linecap="round" stroke-linejoin="round"/>
<path d="M10.5 16.5L7.5 13.5" stroke="#33363F" stroke-linecap="round" stroke-linejoin="round"/>
</svg>
