<svg width="24" height="24" viewBox="0 0 24 24" fill="none" xmlns="http://www.w3.org/2000/svg">
<path fill-rule="evenodd" clip-rule="evenodd" d="M3.29289 6.29289C3 6.58579 3 7.05719 3 8V16C3 16.9428 3 17.4142 3.29289 17.7071C3.58579 18 4.05719 18 5 18H14.8593C15.9072 18 16.4312 18 16.8733 17.7633C17.3155 17.5267 17.6062 17.0907 18.1875 16.2188L19.5208 14.2188C20.2378 13.1433 20.5963 12.6056 20.5963 12C20.5963 11.3944 20.2378 10.8567 19.5208 9.7812L18.1875 7.7812C17.6062 6.90927 17.3155 6.4733 16.8733 6.23665C16.4312 6 15.9072 6 14.8593 6H5C4.05719 6 3.58579 6 3.29289 6.29289ZM15 14C16.1046 14 17 13.1046 17 12C17 10.8954 16.1046 10 15 10C13.8954 10 13 10.8954 13 12C13 13.1046 13.8954 14 15 14Z" fill="#222222"/>
</svg>
