<svg width="24" height="24" viewBox="0 0 24 24" fill="none" xmlns="http://www.w3.org/2000/svg">
<path d="M14.0025 19.7639L13.0027 19.743L14.0025 19.7639ZM9.99753 19.7639L8.99775 19.7848L9.99753 19.7639ZM9.14377 15.6858L8.21957 16.0677L9.14377 15.6858ZM8.91839 15.2337L8.12816 15.8465L8.91839 15.2337ZM15.0816 15.2337L15.8718 15.8465L15.0816 15.2337ZM17 10C17 11.6366 16.2147 13.0895 14.9962 14.0033L16.1961 15.6034C17.8966 14.3282 19 12.2928 19 10H17ZM12 5C14.7614 5 17 7.23858 17 10H19C19 6.13401 15.866 3 12 3V5ZM7 10C7 7.23858 9.23858 5 12 5V3C8.13401 3 5 6.13401 5 10H7ZM9.0038 14.0033C7.78526 13.0895 7 11.6366 7 10H5C5 12.2928 6.1034 14.3282 7.80393 15.6034L9.0038 14.0033ZM10.9973 19.743C10.9654 18.2148 10.6489 16.7097 10.068 15.3039L8.21957 16.0677C8.70598 17.2449 8.97101 18.5051 8.99775 19.7848L10.9973 19.743ZM13.3416 19.2111C12.4971 19.6334 11.5029 19.6334 10.6584 19.2111L9.76393 21C11.1716 21.7038 12.8284 21.7038 14.2361 21L13.3416 19.2111ZM13.932 15.3039C13.3511 16.7097 13.0346 18.2148 13.0027 19.743L15.0022 19.7848C15.029 18.5051 15.294 17.2449 15.7804 16.0677L13.932 15.3039ZM14.2361 21C14.708 20.764 14.9917 20.2888 15.0022 19.7848L13.0027 19.743C13.0072 19.5284 13.1285 19.3177 13.3416 19.2111L14.2361 21ZM8.99775 19.7848C9.00828 20.2888 9.29199 20.764 9.76394 21L10.6584 19.2111C10.8715 19.3177 10.9928 19.5284 10.9973 19.743L8.99775 19.7848ZM7.80393 15.6034C7.95483 15.7165 8.04298 15.7829 8.10525 15.8338C8.16783 15.885 8.15598 15.8824 8.12816 15.8465L9.70862 14.6209C9.52146 14.3795 9.23067 14.1734 9.0038 14.0033L7.80393 15.6034ZM10.068 15.3039C9.98964 15.1144 9.89131 14.8565 9.70862 14.6209L8.12816 15.8465C8.11465 15.8291 8.11215 15.8197 8.12521 15.8469C8.13306 15.8632 8.14391 15.8872 8.1602 15.9253C8.17665 15.9639 8.19514 16.0086 8.21957 16.0677L10.068 15.3039ZM14.9962 14.0033C14.7693 14.1734 14.4785 14.3795 14.2914 14.6209L15.8718 15.8465C15.844 15.8824 15.8322 15.885 15.8948 15.8338C15.957 15.7829 16.0452 15.7165 16.1961 15.6034L14.9962 14.0033ZM15.7804 16.0677C15.8049 16.0086 15.8233 15.9639 15.8398 15.9253C15.8561 15.8872 15.8669 15.8632 15.8748 15.8469C15.8879 15.8197 15.8853 15.8291 15.8718 15.8465L14.2914 14.6209C14.1087 14.8565 14.0104 15.1144 13.932 15.3039L15.7804 16.0677Z" fill="#33363F"/>
<path d="M14.9923 16V16C13.1812 17.2106 10.8191 17.2106 9.00806 16V16" stroke="#33363F" stroke-width="2"/>
</svg>
