<svg width="24" height="24" viewBox="0 0 24 24" fill="none" xmlns="http://www.w3.org/2000/svg">
<path d="M11 13V9.75C11 9.05964 10.4404 8.5 9.75 8.5V8.5C9.05964 8.5 8.5 9.05964 8.5 9.75V9.75C8.5 10.4404 9.05964 11 9.75 11H14.25C14.9404 11 15.5 10.4404 15.5 9.75V9.75C15.5 9.05964 14.9404 8.5 14.25 8.5V8.5C13.5596 8.5 13 9.05964 13 9.75V13" stroke="#2A4157" stroke-opacity="0.24" stroke-linecap="round"/>
<circle cx="12" cy="9" r="6.5" stroke="#2A4157" stroke-opacity="0.24"/>
<mask id="path-3-inside-1_1358_1710" fill="white">
<path fill-rule="evenodd" clip-rule="evenodd" d="M15 15.5C15 15.3968 15.0558 15.3004 15.1479 15.2539C17.4329 14.1015 19 11.7338 19 9C19 5.13401 15.866 2 12 2C8.13401 2 5 5.13401 5 9C5 11.7338 6.56713 14.1015 8.85205 15.2539C8.94419 15.3004 9 15.3968 9 15.5V18.5C9 19.8807 10.1193 21 11.5 21H12.5C13.8807 21 15 19.8807 15 18.5V15.5Z"/>
</mask>
<path d="M8.85205 15.2539L8.40174 16.1468L8.85205 15.2539ZM15.1479 15.2539L14.6976 14.3611L15.1479 15.2539ZM18 9C18 11.3418 16.6586 13.3721 14.6976 14.3611L15.5983 16.1468C18.2071 14.831 20 12.1258 20 9H18ZM12 3C15.3137 3 18 5.68629 18 9H20C20 4.58172 16.4183 1 12 1V3ZM6 9C6 5.68629 8.68629 3 12 3V1C7.58172 1 4 4.58172 4 9H6ZM9.30237 14.3611C7.34141 13.3721 6 11.3418 6 9H4C4 12.1258 5.79285 14.831 8.40174 16.1468L9.30237 14.3611ZM10 18.5V15.5H8V18.5H10ZM11.5 20C10.6716 20 10 19.3284 10 18.5H8C8 20.433 9.567 22 11.5 22V20ZM12.5 20H11.5V22H12.5V20ZM14 18.5C14 19.3284 13.3284 20 12.5 20V22C14.433 22 16 20.433 16 18.5H14ZM14 15.5V18.5H16V15.5H14ZM8.40174 16.1468C8.1359 16.0127 8 15.7503 8 15.5H10C10 15.0433 9.75248 14.5881 9.30237 14.3611L8.40174 16.1468ZM14.6976 14.3611C14.2475 14.5881 14 15.0433 14 15.5H16C16 15.7503 15.8641 16.0127 15.5983 16.1468L14.6976 14.3611Z" fill="#222222" mask="url(#path-3-inside-1_1358_1710)"/>
</svg>
