<svg width="24" height="24" viewBox="0 0 24 24" fill="none" xmlns="http://www.w3.org/2000/svg">
<path d="M12 4L5 7L12 10L19 7L12 4Z" fill="#2A4157" fill-opacity="0.24" stroke="#222222" stroke-width="1.2" stroke-linejoin="round"/>
<path fill-rule="evenodd" clip-rule="evenodd" d="M10.8336 9.49989L12 9.99976L13.1664 9.49988L19 12L12 15L5 12L10.8336 9.49989Z" fill="#2A4157" fill-opacity="0.24"/>
<path d="M10.8336 9.49989L11.07 8.9484C10.919 8.88372 10.7482 8.88372 10.5973 8.9484L10.8336 9.49989ZM12 9.99976L11.7636 10.5512C11.9146 10.6159 12.0854 10.6159 12.2363 10.5512L12 9.99976ZM13.1664 9.49988L13.4027 8.94839C13.2518 8.88371 13.0809 8.88371 12.93 8.94839L13.1664 9.49988ZM19 12L19.2364 12.5515C19.457 12.4569 19.6 12.24 19.6 12C19.6 11.76 19.457 11.5431 19.2364 11.4485L19 12ZM12 15L11.7636 15.5515C11.9146 15.6162 12.0854 15.6162 12.2364 15.5515L12 15ZM5 12L4.76365 11.4485C4.54304 11.5431 4.4 11.76 4.4 12C4.4 12.24 4.54304 12.4569 4.76365 12.5515L5 12ZM10.5973 10.0514L11.7636 10.5512L12.2363 9.44827L11.07 8.9484L10.5973 10.0514ZM12.2363 10.5512L13.4027 10.0514L12.93 8.94839L11.7636 9.44827L12.2363 10.5512ZM19.2364 11.4485L13.4027 8.94839L12.93 10.0514L18.7636 12.5515L19.2364 11.4485ZM12.2364 15.5515L19.2364 12.5515L18.7636 11.4485L11.7636 14.4485L12.2364 15.5515ZM4.76365 12.5515L11.7636 15.5515L12.2364 14.4485L5.23635 11.4485L4.76365 12.5515ZM10.5973 8.9484L4.76365 11.4485L5.23635 12.5515L11.07 10.0514L10.5973 8.9484Z" fill="#222222"/>
<path fill-rule="evenodd" clip-rule="evenodd" d="M10.8333 14.5L12 15L13.1667 14.5L19 17L12 20L5 17L10.8333 14.5Z" fill="#2A4157" fill-opacity="0.24"/>
<path d="M10.8333 14.5L11.0697 13.9485C10.9188 13.8838 10.7479 13.8838 10.597 13.9485L10.8333 14.5ZM12 15L11.7636 15.5515C11.9146 15.6162 12.0854 15.6162 12.2364 15.5515L12 15ZM13.1667 14.5L13.403 13.9485C13.2521 13.8838 13.0812 13.8838 12.9303 13.9485L13.1667 14.5ZM19 17L19.2364 17.5515C19.457 17.4569 19.6 17.24 19.6 17C19.6 16.76 19.457 16.5431 19.2364 16.4485L19 17ZM12 20L11.7636 20.5515C11.9146 20.6162 12.0854 20.6162 12.2364 20.5515L12 20ZM5 17L4.76365 16.4485C4.54304 16.5431 4.4 16.76 4.4 17C4.4 17.24 4.54304 17.4569 4.76365 17.5515L5 17ZM10.597 15.0515L11.7636 15.5515L12.2364 14.4485L11.0697 13.9485L10.597 15.0515ZM12.2364 15.5515L13.403 15.0515L12.9303 13.9485L11.7636 14.4485L12.2364 15.5515ZM19.2364 16.4485L13.403 13.9485L12.9303 15.0515L18.7636 17.5515L19.2364 16.4485ZM12.2364 20.5515L19.2364 17.5515L18.7636 16.4485L11.7636 19.4485L12.2364 20.5515ZM4.76365 17.5515L11.7636 20.5515L12.2364 19.4485L5.23635 16.4485L4.76365 17.5515ZM10.597 13.9485L4.76365 16.4485L5.23635 17.5515L11.0697 15.0515L10.597 13.9485Z" fill="#222222"/>
</svg>
