<svg width="24" height="24" viewBox="0 0 24 24" fill="none" xmlns="http://www.w3.org/2000/svg">
<path d="M10.4154 18.9231L10.8804 16.5981C10.9357 16.3214 10.9634 16.183 10.8884 16.0915C10.8134 16 10.6723 16 10.3901 16H8.8831C8.49157 16 8.2958 16 8.224 15.8732C8.15219 15.7463 8.25291 15.5785 8.45435 15.2428L10.5457 11.7572C10.7471 11.4215 10.8478 11.2537 10.776 11.1268C10.7042 11 10.5084 11 10.1169 11H7.7215C7.39372 11 7.22984 11 7.15527 10.8924C7.0807 10.7848 7.13825 10.6313 7.25334 10.3244L9.87834 3.32444C9.93719 3.1675 9.96661 3.08904 10.0309 3.04452C10.0951 3 10.1789 3 10.3465 3H15.1169C15.5084 3 15.7042 3 15.776 3.12683C15.8478 3.25365 15.7471 3.42152 15.5457 3.75725L13.4543 7.24275C13.2529 7.57848 13.1522 7.74635 13.224 7.87317C13.2958 8 13.4916 8 13.8831 8H15C15.4363 8 15.6545 8 15.7236 8.1382C15.7927 8.27639 15.6618 8.45093 15.4 8.8L13.6 11.2C13.3382 11.5491 13.2073 11.7236 13.2764 11.8618C13.3455 12 13.5637 12 14 12H15.9777C16.4225 12 16.6449 12 16.7134 12.1402C16.782 12.2803 16.6454 12.4559 16.3724 12.807L11.3003 19.3281C10.7859 19.9895 10.5287 20.3202 10.3488 20.2379C10.1689 20.1556 10.2511 19.7447 10.4154 18.9231Z" fill="#222222"/>
</svg>
