<svg width="24" height="24" viewBox="0 0 24 24" fill="none" xmlns="http://www.w3.org/2000/svg">
<path d="M10.3156 19.1064L10.903 15.5822C10.948 15.3119 10.9705 15.1768 10.8956 15.0884C10.8207 15 10.6838 15 10.4098 15H8C7.56366 15 7.34549 15 7.27639 14.8618C7.20729 14.7236 7.3382 14.5491 7.6 14.2L9.4 11.8C9.6618 11.4509 9.79271 11.2764 9.72361 11.1382C9.65451 11 9.43634 11 9 11H6.80902C6.44642 11 6.26512 11 6.19185 10.8814C6.11857 10.7629 6.19965 10.6007 6.3618 10.2764L9.8618 3.27639C9.92904 3.14191 9.96266 3.07467 10.0231 3.03734C10.0835 3 10.1587 3 10.309 3H15.191C15.5536 3 15.7349 3 15.8082 3.11857C15.8814 3.23713 15.8004 3.39929 15.6382 3.72361L14.3618 6.27639C14.1996 6.60071 14.1186 6.76287 14.1918 6.88143C14.2651 7 14.4464 7 14.809 7H15.7929C16.3066 7 16.5635 7 16.6274 7.15433C16.6913 7.30866 16.5097 7.49029 16.1464 7.85355L13.8536 10.1464C13.4903 10.5097 13.3087 10.6913 13.3726 10.8457C13.4365 11 13.6934 11 14.2071 11H16.9597C17.4113 11 17.6371 11 17.7052 11.1417C17.7733 11.2834 17.6322 11.4597 17.3501 11.8123L11.1992 19.501C10.719 20.1012 10.4789 20.4014 10.3025 20.3226C10.126 20.2438 10.1892 19.8647 10.3156 19.1064Z" stroke="#33363F" stroke-width="2"/>
</svg>
