<svg width="24" height="24" viewBox="0 0 24 24" fill="none" xmlns="http://www.w3.org/2000/svg">
<path fill-rule="evenodd" clip-rule="evenodd" d="M12 22C17.5228 22 22 17.5228 22 12C22 6.47715 17.5228 2 12 2C6.47715 2 2 6.47715 2 12C2 17.5228 6.47715 22 12 22ZM10.1299 13.8H11.5C11.7357 13.8 11.8536 13.8 11.9268 13.8732C12 13.9464 12 14.0643 12 14.3V18.7299C12 19.6205 12 20.0659 12.1962 20.1091C12.3925 20.1523 12.5795 19.7482 12.9537 18.9399L15.6851 13.0402C16.2768 11.7621 16.5726 11.1231 16.2777 10.6615C15.9828 10.2 15.2786 10.2 13.8701 10.2H12.5C12.2643 10.2 12.1464 10.2 12.0732 10.1268C12 10.0536 12 9.9357 12 9.7V5.27013C12 4.37946 12 3.93413 11.8038 3.89091C11.6075 3.8477 11.4205 4.25182 11.0463 5.06006L8.31493 10.9597C7.72321 12.2379 7.42735 12.8769 7.72228 13.3385C8.01721 13.8 8.72143 13.8 10.1299 13.8Z" fill="#222222"/>
</svg>
