<svg width="24" height="24" viewBox="0 0 24 24" fill="none" xmlns="http://www.w3.org/2000/svg">
<path fill-rule="evenodd" clip-rule="evenodd" d="M4.87157 9.99464L3.33219 8.6263C3.1258 8.44284 2.80976 8.46143 2.6263 8.66782C2.44284 8.87421 2.46143 9.19025 2.66782 9.37371L4.11705 10.6619C4.37441 10.4333 4.62579 10.2106 4.87157 9.99464ZM7.92571 13.9682C8.25546 14.2298 8.56828 14.4637 8.86885 14.6691C9.94113 15.4019 10.9102 15.8102 12 15.8102C13.0898 15.8102 14.0589 15.4019 15.1312 14.6691C16.1856 13.9485 17.3907 12.8772 18.9485 11.4925L18.9485 11.4925L18.9758 11.4683L21.3322 9.37371C21.5386 9.19025 21.5572 8.87421 21.3737 8.66782C21.1903 8.46143 20.8742 8.44284 20.6678 8.6263L18.3115 10.7208C16.7207 12.1349 15.5625 13.1631 14.5669 13.8435C13.5831 14.5159 12.8112 14.8102 12 14.8102C11.1888 14.8102 10.4169 14.5159 9.4331 13.8435C9.19629 13.6817 8.95028 13.5001 8.69144 13.2984C8.453 13.5045 8.19872 13.7273 7.92571 13.9682Z" fill="#222222"/>
<path fill-rule="evenodd" clip-rule="evenodd" d="M16.0743 10.0314C15.7446 9.7699 15.4317 9.53599 15.1312 9.33057C14.0589 8.59774 13.0898 8.18945 12 8.18945C10.9102 8.18945 9.94113 8.59774 8.86885 9.33057C7.81445 10.0512 6.60925 11.1225 5.05149 12.5072L5.02418 12.5314L2.66782 14.626C2.46143 14.8094 2.44284 15.1255 2.6263 15.3319C2.80976 15.5383 3.1258 15.5568 3.33219 15.3734L5.68855 13.2788C7.27931 11.8648 8.43752 10.8366 9.4331 10.1562C10.4169 9.48378 11.1888 9.18945 12 9.18945C12.8112 9.18945 13.5831 9.48378 14.5669 10.1562C14.8037 10.318 15.0497 10.4995 15.3086 10.7012C15.547 10.4952 15.8013 10.2724 16.0743 10.0314ZM19.883 13.3378C19.6256 13.5664 19.3742 13.7891 19.1284 14.005L20.6678 15.3734C20.8742 15.5568 21.1903 15.5383 21.3737 15.3319C21.5572 15.1255 21.5386 14.8094 21.3322 14.626L19.883 13.3378Z" fill="#222222"/>
</svg>
