<svg width="24" height="24" viewBox="0 0 24 24" fill="none" xmlns="http://www.w3.org/2000/svg">
<ellipse rx="6" ry="6" transform="matrix(4.37114e-08 -1 -1 -4.37114e-08 12 14)" fill="#2A4157" fill-opacity="0.24"/>
<path d="M9.85355 12.1464C9.65829 11.9512 9.34171 11.9512 9.14645 12.1464C8.95118 12.3417 8.95118 12.6583 9.14645 12.8536L9.85355 12.1464ZM12 15L11.6464 15.3536L12 15.7071L12.3536 15.3536L12 15ZM14.8536 12.8536C15.0488 12.6583 15.0488 12.3417 14.8536 12.1464C14.6583 11.9512 14.3417 11.9512 14.1464 12.1464L14.8536 12.8536ZM12.5 5C12.5 4.72386 12.2761 4.5 12 4.5C11.7239 4.5 11.5 4.72386 11.5 5L12.5 5ZM9.14645 12.8536L11.6464 15.3536L12.3536 14.6464L9.85355 12.1464L9.14645 12.8536ZM12.3536 15.3536L14.8536 12.8536L14.1464 12.1464L11.6464 14.6464L12.3536 15.3536ZM12.5 15L12.5 5L11.5 5L11.5 15L12.5 15Z" fill="#222222"/>
</svg>
