<svg width="24" height="24" viewBox="0 0 24 24" fill="none" xmlns="http://www.w3.org/2000/svg">
<path d="M3 4H21" stroke="#33363F" stroke-width="2" stroke-linecap="round"/>
<path d="M5 4H19V15.8C19 16.9201 19 17.4802 18.782 17.908C18.5903 18.2843 18.2843 18.5903 17.908 18.782C17.4802 19 16.9201 19 15.8 19H8.2C7.07989 19 6.51984 19 6.09202 18.782C5.71569 18.5903 5.40973 18.2843 5.21799 17.908C5 17.4802 5 16.9201 5 15.8V4Z" stroke="#33363F" stroke-width="2" stroke-linecap="round"/>
<path d="M12 15V9" stroke="#33363F" stroke-width="2" stroke-linecap="round"/>
<path d="M9 12L11.8939 9.10607C11.9525 9.04749 12.0475 9.04749 12.1061 9.10607L15 12" stroke="#33363F" stroke-width="2" stroke-linecap="round"/>
</svg>
