<svg width="24" height="24" viewBox="0 0 24 24" fill="none" xmlns="http://www.w3.org/2000/svg">
<path d="M12 13.5V8" stroke="#222222" stroke-linecap="round"/>
<path d="M9.5 9.5L11.9063 7.57496C11.9611 7.53114 12.0389 7.53114 12.0937 7.57496L14.5 9.5" stroke="#222222" stroke-linecap="round"/>
<path d="M2.5 4C2.22386 4 2 4.22386 2 4.5C2 4.77614 2.22386 5 2.5 5V4ZM21.5 5C21.7761 5 22 4.77614 22 4.5C22 4.22386 21.7761 4 21.5 4V5ZM5.5 4.5V4H5V4.5H5.5ZM18.5 4.5H19V4H18.5V4.5ZM15.6083 19.3526L15.8695 19.779L15.6083 19.3526ZM15.3192 19.4724L15.436 19.9586L15.3192 19.4724ZM5.66349 18.681L5.21799 18.908L5.66349 18.681ZM6.31901 19.3365L6.09202 19.782L6.31901 19.3365ZM18.4724 16.3192L18.9586 16.436L18.4724 16.3192ZM18.3526 16.6083L18.779 16.8695L18.3526 16.6083ZM15.046 15.609L14.819 15.1635L15.046 15.609ZM14.609 16.046L14.1635 15.819L14.609 16.046ZM2.5 5H21.5V4H2.5V5ZM5.5 5H18.5V4H5.5V5ZM18 4.5V15.8373H19V4.5H18ZM6 17.1V4.5H5V17.1H6ZM17.6778 16.6151L15.6151 18.6778L16.3222 19.3849L18.3849 17.3222L17.6778 16.6151ZM14.8373 19H7.9V20H14.8373V19ZM15.6151 18.6778C15.4253 18.8676 15.3858 18.9026 15.347 18.9263L15.8695 19.779C16.0326 19.679 16.1661 19.541 16.3222 19.3849L15.6151 18.6778ZM14.8373 20C15.058 20 15.2499 20.0032 15.436 19.9586L15.2025 18.9862C15.1583 18.9968 15.1056 19 14.8373 19V20ZM15.347 18.9263C15.3023 18.9537 15.2535 18.9739 15.2025 18.9862L15.436 19.9586C15.589 19.9218 15.7353 19.8612 15.8695 19.779L15.347 18.9263ZM5 17.1C5 17.5118 4.99961 17.8507 5.0221 18.1259C5.04506 18.407 5.09434 18.6653 5.21799 18.908L6.10899 18.454C6.06915 18.3758 6.03669 18.2637 6.01878 18.0445C6.00039 17.8194 6 17.5283 6 17.1H5ZM7.9 19C7.47171 19 7.18056 18.9996 6.95552 18.9812C6.73631 18.9633 6.62421 18.9309 6.54601 18.891L6.09202 19.782C6.33469 19.9057 6.59304 19.9549 6.87409 19.9779C7.1493 20.0004 7.48821 20 7.9 20V19ZM5.21799 18.908C5.40973 19.2843 5.71569 19.5903 6.09202 19.782L6.54601 18.891C6.35785 18.7951 6.20487 18.6422 6.10899 18.454L5.21799 18.908ZM18 15.8373C18 16.1056 17.9968 16.1583 17.9862 16.2025L18.9586 16.436C19.0032 16.2499 19 16.058 19 15.8373H18ZM18.3849 17.3222C18.541 17.1661 18.679 17.0326 18.779 16.8695L17.9263 16.347C17.9026 16.3858 17.8676 16.4253 17.6778 16.6151L18.3849 17.3222ZM17.9862 16.2025C17.9739 16.2535 17.9537 16.3023 17.9263 16.347L18.779 16.8695C18.8612 16.7353 18.9218 16.589 18.9586 16.436L17.9862 16.2025ZM18.5 15H16.1V16H18.5V15ZM14 17.1V19.5H15V17.1H14ZM16.1 15C15.8282 15 15.5943 14.9996 15.4025 15.0153C15.2048 15.0314 15.0082 15.0671 14.819 15.1635L15.273 16.0545C15.2977 16.0419 15.3481 16.0231 15.4839 16.012C15.6256 16.0004 15.8117 16 16.1 16V15ZM15 17.1C15 16.8117 15.0004 16.6256 15.012 16.4839C15.0231 16.3481 15.0419 16.2977 15.0545 16.273L14.1635 15.819C14.0671 16.0082 14.0314 16.2048 14.0153 16.4025C13.9996 16.5943 14 16.8282 14 17.1H15ZM14.819 15.1635C14.5368 15.3073 14.3073 15.5368 14.1635 15.819L15.0545 16.273C15.1024 16.1789 15.1789 16.1024 15.273 16.0545L14.819 15.1635Z" fill="#2A4157" fill-opacity="0.24"/>
</svg>
