<svg width="24" height="24" viewBox="0 0 24 24" fill="none" xmlns="http://www.w3.org/2000/svg">
<path d="M2.5 4C2.22386 4 2 4.22386 2 4.5C2 4.77614 2.22386 5 2.5 5V4ZM21.5 5C21.7761 5 22 4.77614 22 4.5C22 4.22386 21.7761 4 21.5 4V5ZM4.5 4.5V4H4V4.5H4.5ZM19.5 4.5H20V4H19.5V4.5ZM5.31901 19.3365L5.09202 19.782L5.31901 19.3365ZM4.66349 18.681L4.21799 18.908L4.66349 18.681ZM19.3365 18.681L19.782 18.908L19.3365 18.681ZM18.681 19.3365L18.908 19.782L18.681 19.3365ZM2.5 5H21.5V4H2.5V5ZM4.5 5H19.5V4H4.5V5ZM19 4.5V17.1H20V4.5H19ZM17.1 19H6.9V20H17.1V19ZM5 17.1V4.5H4V17.1H5ZM6.9 19C6.47171 19 6.18056 18.9996 5.95552 18.9812C5.73631 18.9633 5.62421 18.9309 5.54601 18.891L5.09202 19.782C5.33469 19.9057 5.59304 19.9549 5.87409 19.9779C6.1493 20.0004 6.48821 20 6.9 20V19ZM4 17.1C4 17.5118 3.99961 17.8507 4.0221 18.1259C4.04506 18.407 4.09434 18.6653 4.21799 18.908L5.10899 18.454C5.06915 18.3758 5.03669 18.2637 5.01878 18.0445C5.00039 17.8194 5 17.5283 5 17.1H4ZM5.54601 18.891C5.35785 18.7951 5.20487 18.6422 5.10899 18.454L4.21799 18.908C4.40973 19.2843 4.71569 19.5903 5.09202 19.782L5.54601 18.891ZM19 17.1C19 17.5283 18.9996 17.8194 18.9812 18.0445C18.9633 18.2637 18.9309 18.3758 18.891 18.454L19.782 18.908C19.9057 18.6653 19.9549 18.407 19.9779 18.1259C20.0004 17.8507 20 17.5118 20 17.1H19ZM17.1 20C17.5118 20 17.8507 20.0004 18.1259 19.9779C18.407 19.9549 18.6653 19.9057 18.908 19.782L18.454 18.891C18.3758 18.9309 18.2637 18.9633 18.0445 18.9812C17.8194 18.9996 17.5283 19 17.1 19V20ZM18.891 18.454C18.7951 18.6422 18.6422 18.7951 18.454 18.891L18.908 19.782C19.2843 19.5903 19.5903 19.2843 19.782 18.908L18.891 18.454Z" fill="#2A4157" fill-opacity="0.24"/>
<path d="M12 15.5V10" stroke="#222222" stroke-linecap="round"/>
<path d="M9.5 11.5L11.9063 9.57496C11.9611 9.53114 12.0389 9.53114 12.0937 9.57496L14.5 11.5" stroke="#222222" stroke-linecap="round"/>
</svg>
