<svg width="24" height="24" viewBox="0 0 24 24" fill="none" xmlns="http://www.w3.org/2000/svg">
<path d="M3 4H21" stroke="#222222" stroke-width="2" stroke-linecap="round"/>
<path fill-rule="evenodd" clip-rule="evenodd" d="M19 4H5V15.8C5 16.9201 5 17.4802 5.21799 17.908C5.40973 18.2843 5.71569 18.5903 6.09202 18.782C6.51984 19 7.0799 19 8.2 19H15.8C16.9201 19 17.4802 19 17.908 18.782C18.2843 18.5903 18.5903 18.2843 18.782 17.908C19 17.4802 19 16.9201 19 15.8V4ZM11 15V11.4142L9.70711 12.7071C9.31658 13.0976 8.68342 13.0976 8.29289 12.7071C7.90237 12.3166 7.90237 11.6834 8.29289 11.2929L11.1868 8.39896C11.2053 8.38051 11.2242 8.36282 11.2436 8.34589C11.4269 8.13403 11.6978 8 12 8C12.3022 8 12.5731 8.13403 12.7564 8.34589C12.7758 8.36282 12.7947 8.38051 12.8132 8.39896L15.7071 11.2929C16.0976 11.6834 16.0976 12.3166 15.7071 12.7071C15.3166 13.0976 14.6834 13.0976 14.2929 12.7071L13 11.4142V15C13 15.5523 12.5523 16 12 16C11.4477 16 11 15.5523 11 15Z" fill="#222222"/>
</svg>
