<svg width="24" height="24" viewBox="0 0 24 24" fill="none" xmlns="http://www.w3.org/2000/svg">
<path d="M2.5 4.5H21.5" stroke="#222222" stroke-linecap="round"/>
<path d="M4.5 4.5H19.5V17.1C19.5 17.9401 19.5 18.3601 19.3365 18.681C19.1927 18.9632 18.9632 19.1927 18.681 19.3365C18.3601 19.5 17.9401 19.5 17.1 19.5H6.9C6.05992 19.5 5.63988 19.5 5.31901 19.3365C5.03677 19.1927 4.8073 18.9632 4.66349 18.681C4.5 18.3601 4.5 17.9401 4.5 17.1V4.5Z" stroke="#222222" stroke-linecap="round"/>
<path d="M12 15.5V10" stroke="#222222" stroke-linecap="round"/>
<path d="M9.5 11.5L11.9063 9.57496C11.9611 9.53114 12.0389 9.53114 12.0937 9.57496L14.5 11.5" stroke="#222222" stroke-linecap="round"/>
</svg>
