<svg width="24" height="24" viewBox="0 0 24 24" fill="none" xmlns="http://www.w3.org/2000/svg">
<path d="M5.23852 14.8117C5.63734 16.3002 6.51616 17.6154 7.73867 18.5535C8.96118 19.4915 10.4591 20 12 20C13.5409 20 15.0388 19.4915 16.2613 18.5535C17.4838 17.6154 18.3627 16.3002 18.7615 14.8117" stroke="#222222"/>
<path d="M12 13L11.6877 13.3904L12 13.6403L12.3123 13.3904L12 13ZM12.5 4C12.5 3.72386 12.2761 3.5 12 3.5C11.7239 3.5 11.5 3.72386 11.5 4L12.5 4ZM6.68765 9.39043L11.6877 13.3904L12.3123 12.6096L7.31235 8.60957L6.68765 9.39043ZM12.3123 13.3904L17.3123 9.39043L16.6877 8.60957L11.6877 12.6096L12.3123 13.3904ZM12.5 13L12.5 4L11.5 4L11.5 13L12.5 13Z" fill="#222222"/>
</svg>
