<svg width="24" height="24" viewBox="0 0 24 24" fill="none" xmlns="http://www.w3.org/2000/svg">
<path d="M3 3H21" stroke="#222222" stroke-width="2" stroke-linecap="round"/>
<path fill-rule="evenodd" clip-rule="evenodd" d="M19 3H5V17.8C5 18.9201 5 19.4802 5.21799 19.908C5.40973 20.2843 5.71569 20.5903 6.09202 20.782C6.51984 21 7.0799 21 8.2 21H12.76C12.844 21 12.886 21 12.9181 20.9837C12.9463 20.9693 12.9693 20.9463 12.9837 20.9181C13 20.886 13 20.844 13 20.76V18.2C13 17.0799 13 16.5198 13.218 16.092C13.4097 15.7157 13.7157 15.4097 14.092 15.218C14.5198 15 15.0799 15 16.2 15H18.76C18.844 15 18.886 15 18.9181 14.9837C18.9463 14.9693 18.9693 14.9463 18.9837 14.9181C19 14.886 19 14.844 19 14.76V3ZM11 13V9.41421L9.70711 10.7071C9.31658 11.0976 8.68342 11.0976 8.29289 10.7071C7.90237 10.3166 7.90237 9.68342 8.29289 9.29289L11.1868 6.39896C11.2053 6.38051 11.2242 6.36282 11.2436 6.34589C11.4269 6.13403 11.6978 6 12 6C12.3022 6 12.5731 6.13403 12.7564 6.34589C12.7758 6.36282 12.7947 6.38051 12.8132 6.39896L15.7071 9.29289C16.0976 9.68342 16.0976 10.3166 15.7071 10.7071C15.3166 11.0976 14.6834 11.0976 14.2929 10.7071L13 9.41421V13C13 13.5523 12.5523 14 12 14C11.4477 14 11 13.5523 11 13Z" fill="#222222"/>
<path d="M15.2561 20.7439L18.7439 17.2561C18.8384 17.1616 18.7715 17 18.6379 17H15.5C15.2239 17 15 17.2239 15 17.5V20.6379C15 20.7715 15.1616 20.8384 15.2561 20.7439Z" fill="#222222"/>
</svg>
