<svg width="24" height="24" viewBox="0 0 24 24" fill="none" xmlns="http://www.w3.org/2000/svg">
<path fill-rule="evenodd" clip-rule="evenodd" d="M7 5.87706C7 5.1696 6.28547 4.68584 5.62861 4.94858L3.62861 5.74858C3.24895 5.90045 3 6.26816 3 6.67706V18.523C3 19.2305 3.71453 19.7142 4.37139 19.4515L6.37139 18.6515C6.75105 18.4996 7 18.1319 7 17.723V5.87706ZM9 17.4693C9 17.9281 9.3123 18.3281 9.75746 18.4394L13.7575 19.4394C14.3886 19.5972 15 19.1198 15 18.4693V6.5308C15 6.07194 14.6877 5.67195 14.2425 5.56066L10.2425 4.56066C9.61139 4.40287 9 4.88023 9 5.5308V17.4693ZM17.6286 5.34858C17.249 5.50045 17 5.86816 17 6.27706V18.123C17 18.8305 17.7145 19.3142 18.3714 19.0515L20.3714 18.2515C20.751 18.0996 21 17.7319 21 17.323V5.47706C21 4.7696 20.2855 4.28584 19.6286 4.54858L17.6286 5.34858Z" fill="#33363F"/>
</svg>
