<svg width="24" height="24" viewBox="0 0 24 24" fill="none" xmlns="http://www.w3.org/2000/svg">
<path d="M9 17.4692C9 17.9281 9.3123 18.3281 9.75746 18.4394L13.7575 19.4394C14.3886 19.5971 15 19.1198 15 18.4692V6.53077C15 6.0719 14.6877 5.67192 14.2425 5.56062L10.2425 4.56062C9.61139 4.40284 9 4.8802 9 5.53077V17.4692Z" fill="#33363F"/>
<path fill-rule="evenodd" clip-rule="evenodd" d="M7 5.87657C7 5.16911 6.28547 4.68535 5.62861 4.9481L3.62861 5.7481C3.24895 5.89996 3 6.26767 3 6.67657V18.5225C3 19.23 3.71453 19.7137 4.37139 19.451L6.37139 18.651C6.75105 18.4991 7 18.1314 7 17.7225L7 5.87657ZM17 18.1225C17 18.83 17.7145 19.3137 18.3714 19.051L20.3714 18.251C20.751 18.0991 21 17.7314 21 17.3225V5.47657C21 4.76911 20.2855 4.28535 19.6286 4.5481L17.6286 5.3481C17.249 5.49996 17 5.86767 17 6.27657L17 18.1225Z" fill="#2A4157" fill-opacity="0.24"/>
</svg>
