<svg width="24" height="24" viewBox="0 0 24 24" fill="none" xmlns="http://www.w3.org/2000/svg">
<path d="M8.5 8.5H15.5C16.6046 8.5 17.5 9.39543 17.5 10.5V14.5C17.5 15.6046 16.6046 16.5 15.5 16.5H8.5C7.39543 16.5 6.5 15.6046 6.5 14.5V10.5C6.5 9.39543 7.39543 8.5 8.5 8.5Z" stroke="#33363F" stroke-linecap="round" stroke-linejoin="round"/>
<path d="M6.5 10.5H4.82456C3.68097 10.5 2.87345 11.6204 3.23509 12.7053V12.7053C3.40185 13.2056 3.79444 13.5981 4.29473 13.7649L6.5 14.5" stroke="#33363F" stroke-linecap="round" stroke-linejoin="round"/>
<path d="M17.5 10.5H19.1754C20.319 10.5 21.1265 11.6204 20.7649 12.7053V12.7053C20.5981 13.2056 20.2056 13.5981 19.7053 13.7649L17.5 14.5" stroke="#33363F" stroke-linecap="round" stroke-linejoin="round"/>
<path d="M12 10.5V14.5" stroke="#33363F" stroke-linecap="round" stroke-linejoin="round"/>
<path d="M14 12.5L10 12.5" stroke="#33363F" stroke-linecap="round" stroke-linejoin="round"/>
</svg>
