<svg width="24" height="24" viewBox="0 0 24 24" fill="none" xmlns="http://www.w3.org/2000/svg">
<path d="M4 11.4721C4 10.2693 4 9.66791 4.2987 9.18461C4.5974 8.7013 5.13531 8.43234 6.21115 7.89443L10.2111 5.89443C11.089 5.45552 11.5279 5.23607 12 5.23607C12.4721 5.23607 12.911 5.45552 13.7889 5.89443L17.7889 7.89443C18.8647 8.43234 19.4026 8.7013 19.7013 9.18461C20 9.66791 20 10.2693 20 11.4721V15C20 16.8856 20 17.8284 19.4142 18.4142C18.8284 19 17.8856 19 16 19H8C6.11438 19 5.17157 19 4.58579 18.4142C4 17.8284 4 16.8856 4 15V11.4721Z" fill="#2A4157" fill-opacity="0.24"/>
<path d="M4 17V10.2427C4 10.1312 4.11735 10.0587 4.21708 10.1085L10.6584 13.3292C11.5029 13.7515 12.4971 13.7515 13.3416 13.3292L19.7829 10.1085C19.8827 10.0587 20 10.1312 20 10.2427V17C20 18.1046 19.1046 19 18 19H6C4.89543 19 4 18.1046 4 17Z" fill="#222222"/>
</svg>
