<svg width="24" height="24" viewBox="0 0 24 24" fill="none" xmlns="http://www.w3.org/2000/svg">
<path d="M4 16V10.2427C4 10.1312 4.11735 10.0587 4.21708 10.1085L10.6584 13.3292C11.5029 13.7515 12.4971 13.7515 13.3416 13.3292L19.7829 10.1085C19.8827 10.0587 20 10.1312 20 10.2427V16C20 17.1046 19.1046 18 18 18H6C4.89543 18 4 17.1046 4 16Z" fill="#222222"/>
<path d="M4 8V8.90729C4 8.96411 4.0321 9.01605 4.08292 9.04146L10.6584 12.3292C11.5029 12.7515 12.4971 12.7515 13.3416 12.3292L19.9171 9.04146C19.9679 9.01605 20 8.96411 20 8.9073V8C20 6.89543 19.1046 6 18 6H6C4.89543 6 4 6.89543 4 8Z" fill="#2A4157" fill-opacity="0.24"/>
</svg>
