<svg width="24" height="24" viewBox="0 0 24 24" fill="none" xmlns="http://www.w3.org/2000/svg">
<path d="M4 10.4721C4 9.26932 4 8.66791 4.2987 8.18461C4.5974 7.7013 5.13531 7.43234 6.21115 6.89443L10.2111 4.89443C11.089 4.45552 11.5279 4.23607 12 4.23607C12.4721 4.23607 12.911 4.45552 13.7889 4.89443L17.7889 6.89443C18.8647 7.43234 19.4026 7.7013 19.7013 8.18461C20 8.66791 20 9.26932 20 10.4721V16C20 17.8856 20 18.8284 19.4142 19.4142C18.8284 20 17.8856 20 16 20H8C6.11438 20 5.17157 20 4.58579 19.4142C4 18.8284 4 17.8856 4 16V10.4721Z" stroke="#222222" stroke-width="1.2"/>
<path d="M6.41421 13.4142L4 11V18C4 19.1046 4.89543 20 6 20H18C19.1046 20 20 19.1046 20 18V11L17.5858 13.4142C17.2107 13.7893 16.702 14 16.1716 14H7.82843C7.29799 14 6.78929 13.7893 6.41421 13.4142Z" fill="#2A4157" fill-opacity="0.24" stroke="#222222" stroke-width="1.2" stroke-linecap="round"/>
</svg>
