<svg width="24" height="24" viewBox="0 0 24 24" fill="none" xmlns="http://www.w3.org/2000/svg">
<path fill-rule="evenodd" clip-rule="evenodd" d="M3.87868 5.87868C3 6.75736 3 8.17157 3 11V13C3 15.8284 3 17.2426 3.87868 18.1213C4.75736 19 6.17157 19 9 19H15C17.8284 19 19.2426 19 20.1213 18.1213C21 17.2426 21 15.8284 21 13V11C21 8.17157 21 6.75736 20.1213 5.87868C19.2426 5 17.8284 5 15 5H9C6.17157 5 4.75736 5 3.87868 5.87868ZM6.5547 8.16795C6.09517 7.8616 5.4743 7.98577 5.16795 8.4453C4.8616 8.90483 4.98577 9.5257 5.4453 9.83205L10.8906 13.4622C11.5624 13.9101 12.4376 13.9101 13.1094 13.4622L18.5547 9.83205C19.0142 9.5257 19.1384 8.90483 18.8321 8.4453C18.5257 7.98577 17.9048 7.8616 17.4453 8.16795L12 11.7982L6.5547 8.16795Z" fill="#222222"/>
</svg>
