<svg width="24" height="24" viewBox="0 0 24 24" fill="none" xmlns="http://www.w3.org/2000/svg">
<path fill-rule="evenodd" clip-rule="evenodd" d="M3.00034 10.4147C3 10.569 3 10.7303 3 10.8992V15C3 17.8284 3 19.2426 3.87868 20.1213C4.75736 21 6.17157 21 9 21H15C17.8284 21 19.2426 21 20.1213 20.1213C21 19.2426 21 17.8284 21 15V10.8992C21 10.7303 21 10.569 20.9997 10.4147L19.2929 12.1214C18.7303 12.6841 17.9672 13.0001 17.1716 13.0001H6.82843C6.03278 13.0001 5.26972 12.6841 4.70711 12.1214L3.00034 10.4147ZM3.23713 7.82304L6.12132 10.7072C6.30886 10.8948 6.56321 11.0001 6.82843 11.0001H17.1716C17.4368 11.0001 17.6911 10.8948 17.8787 10.7072L20.7629 7.82304C20.6991 7.63989 20.6182 7.47286 20.5155 7.31484C20.031 6.56928 19.1662 6.18496 17.4368 5.41634L17.4368 5.41633L13.6246 3.72199C12.8245 3.36639 12.4244 3.1886 12 3.1886C11.5756 3.1886 11.1755 3.3664 10.3754 3.72199L6.56317 5.41633C4.83375 6.18496 3.96905 6.56928 3.48452 7.31484C3.38183 7.47286 3.30091 7.63989 3.23713 7.82304Z" fill="#222222"/>
</svg>
