<svg width="24" height="24" viewBox="0 0 24 24" fill="none" xmlns="http://www.w3.org/2000/svg">
<path d="M7.23223 3.23223C6.83096 3.63351 6.65836 4.13876 6.57768 4.73883C6.49997 5.31681 6.49999 6.05169 6.5 6.96342L6.5 7V17L6.5 17.0366C6.49999 17.9483 6.49997 18.6832 6.57768 19.2612C6.65836 19.8612 6.83096 20.3665 7.23223 20.7678C7.63351 21.169 8.13876 21.3416 8.73883 21.4223C9.31681 21.5 10.0517 21.5 10.9634 21.5H11H13H13.0366C13.9483 21.5 14.6832 21.5 15.2612 21.4223C15.8612 21.3416 16.3665 21.169 16.7678 20.7678C17.169 20.3665 17.3416 19.8612 17.4223 19.2612C17.5 18.6832 17.5 17.9483 17.5 17.0366V17V7V6.96343C17.5 6.0517 17.5 5.31681 17.4223 4.73883C17.3416 4.13876 17.169 3.63351 16.7678 3.23223C16.3665 2.83096 15.8612 2.65836 15.2612 2.57768C14.6832 2.49997 13.9483 2.49999 13.0366 2.5L13 2.5H11L10.9634 2.5C10.0517 2.49999 9.31681 2.49997 8.73883 2.57768C8.13876 2.65836 7.63351 2.83096 7.23223 3.23223Z" stroke="#222222"/>
<path d="M7 16H17" stroke="#222222"/>
</svg>
