<svg width="24" height="24" viewBox="0 0 24 24" fill="none" xmlns="http://www.w3.org/2000/svg">
<path d="M11.4611 17.0853L11.9563 17.9541L11.4611 17.0853ZM9.7155 18.4863L10.6916 18.2689L9.7155 18.4863ZM11.9404 5.21305L12.504 4.38701L11.9404 5.21305ZM18 12C18 8.68629 15.3137 6 12 6V4C16.4183 4 20 7.58172 20 12H18ZM12 18C15.3137 18 18 15.3137 18 12H20C20 16.4183 16.4183 20 12 20V18ZM11.5145 17.9807C11.6745 17.9935 11.8364 18 12 18V20C11.7832 20 11.5681 19.9913 11.3553 19.9743L11.5145 17.9807ZM10.9659 16.2165C12.7803 15.1824 14 13.2328 14 10.9995H16C16 13.9802 14.3694 16.5788 11.9563 17.9541L10.9659 16.2165ZM14 10.9995C14 8.9392 12.9625 7.12098 11.3768 6.0391L12.504 4.38701C14.6124 5.82557 16 8.25033 16 10.9995H14ZM11.3553 19.9743C10.8456 19.9336 10.3418 19.8963 9.96574 19.8075C9.61825 19.7255 8.91471 19.4907 8.73941 18.7037L10.6916 18.2689C10.6526 18.0937 10.5446 17.9588 10.4407 17.8855C10.3688 17.8349 10.3362 17.84 10.4253 17.861C10.5055 17.88 10.6296 17.8997 10.8226 17.9202C11.0128 17.9405 11.2373 17.9585 11.5145 17.9807L11.3553 19.9743ZM11.9563 17.9541C11.3218 18.3157 10.9313 18.5404 10.6978 18.7137C10.5808 18.8007 10.5782 18.8216 10.6067 18.7803C10.6532 18.7127 10.7477 18.5209 10.6916 18.2689L8.73941 18.7037C8.64314 18.2714 8.78362 17.9012 8.95978 17.6455C9.11779 17.4162 9.32843 17.2395 9.50564 17.1079C9.86069 16.8443 10.3831 16.5487 10.9659 16.2165L11.9563 17.9541ZM12 6C12.4502 6 12.7655 5.67892 12.8566 5.34712C12.9448 5.02566 12.847 4.62098 12.504 4.38701L11.3768 6.0391C10.9398 5.74095 10.8148 5.22975 10.9279 4.8178C11.0438 4.39552 11.436 4 12 4V6Z" fill="#33363F"/>
<path d="M5.4 10.2L5.4 10.2C5.50137 10.5041 5.55206 10.6562 5.60276 10.7225C5.80288 10.9843 6.19712 10.9843 6.39724 10.7225C6.44794 10.6562 6.49863 10.5041 6.6 10.2L6.6 10.2C6.68177 9.95468 6.72266 9.83201 6.77555 9.72099C6.97291 9.30672 7.30672 8.97291 7.72099 8.77555C7.83201 8.72266 7.95468 8.68177 8.2 8.6L8.2 8.6C8.50412 8.49863 8.65618 8.44794 8.7225 8.39724C8.98431 8.19712 8.98431 7.80288 8.7225 7.60276C8.65618 7.55206 8.50412 7.50137 8.2 7.4L8.2 7.4C7.95468 7.31822 7.83201 7.27734 7.72099 7.22445C7.30672 7.02709 6.97291 6.69329 6.77555 6.27901C6.72266 6.16799 6.68177 6.04532 6.6 5.8C6.49863 5.49588 6.44794 5.34382 6.39724 5.2775C6.19712 5.01569 5.80288 5.01569 5.60276 5.2775C5.55206 5.34382 5.50137 5.49588 5.4 5.8C5.31823 6.04532 5.27734 6.16799 5.22445 6.27901C5.02709 6.69329 4.69329 7.02709 4.27901 7.22445C4.16799 7.27734 4.04532 7.31823 3.8 7.4C3.49588 7.50137 3.34382 7.55206 3.2775 7.60276C3.01569 7.80288 3.01569 8.19712 3.2775 8.39724C3.34382 8.44794 3.49588 8.49863 3.8 8.6C4.04532 8.68177 4.16799 8.72266 4.27901 8.77555C4.69329 8.97291 5.02709 9.30672 5.22445 9.72099C5.27734 9.83201 5.31822 9.95468 5.4 10.2Z" stroke="#33363F" stroke-width="2"/>
</svg>
