<svg width="24" height="24" viewBox="0 0 24 24" fill="none" xmlns="http://www.w3.org/2000/svg">
<path fill-rule="evenodd" clip-rule="evenodd" d="M11.9404 5.21305C11.8464 5.14888 11.8861 5 12 5C15.866 5 19 8.13401 19 12C19 15.866 15.866 19 12 19C11.8098 19 11.6213 18.9924 11.4349 18.9775C10.3421 18.8902 9.79575 18.8466 9.7155 18.4863C9.63524 18.1259 10.2439 17.7791 11.4611 17.0853C13.5748 15.8806 15 13.6065 15 10.9995C15 8.59477 13.7875 6.47328 11.9404 5.21305Z" fill="#2A4157" fill-opacity="0.24"/>
<path d="M11.4611 17.0853L11.7582 17.6066L11.4611 17.0853ZM9.7155 18.4863L10.3011 18.3558L9.7155 18.4863ZM11.9404 5.21305L12.2786 4.71743L11.9404 5.21305ZM18.4 12C18.4 8.46538 15.5346 5.6 12 5.6V4.4C16.1974 4.4 19.6 7.80264 19.6 12H18.4ZM12 18.4C15.5346 18.4 18.4 15.5346 18.4 12H19.6C19.6 16.1974 16.1974 19.6 12 19.6V18.4ZM11.4827 18.3794C11.6532 18.393 11.8257 18.4 12 18.4V19.6C11.7938 19.6 11.5894 19.5918 11.3871 19.5756L11.4827 18.3794ZM11.164 16.564C13.0981 15.4617 14.4 13.3822 14.4 10.9995H15.6C15.6 13.8307 14.0516 16.2995 11.7582 17.6066L11.164 16.564ZM14.4 10.9995C14.4 8.80143 13.2925 6.8619 11.6023 5.70868L12.2786 4.71743C14.2824 6.08465 15.6 8.38811 15.6 10.9995H14.4ZM11.3871 19.5756C10.8628 19.5337 10.3966 19.4982 10.0576 19.4182C9.73586 19.3423 9.25107 19.161 9.12985 18.6167L10.3011 18.3558C10.2602 18.1718 10.0887 18.1926 10.3334 18.2503C10.5609 18.304 10.9142 18.334 11.4827 18.3794L11.3871 19.5756ZM11.7582 17.6066C11.1341 17.9623 10.7172 18.2012 10.4594 18.3926C10.3303 18.4884 10.2861 18.5405 10.2773 18.5534C10.2758 18.5555 10.2897 18.5361 10.2996 18.4967C10.3104 18.4534 10.3118 18.4037 10.3011 18.3558L9.12985 18.6167C9.06406 18.3213 9.15754 18.0635 9.28915 17.8725C9.40988 17.6973 9.5789 17.5517 9.74408 17.4291C10.0748 17.1835 10.5709 16.9021 11.164 16.564L11.7582 17.6066ZM12 5.6C12.2473 5.6 12.4212 5.42224 12.4708 5.24126C12.5188 5.06647 12.4655 4.84498 12.2786 4.71743L11.6023 5.70868C11.3213 5.51696 11.2408 5.18893 11.3136 4.92366C11.3881 4.6522 11.6388 4.4 12 4.4V5.6Z" fill="#222222"/>
<path d="M5.4 10.2L5.4 10.2C5.50137 10.5041 5.55206 10.6562 5.60276 10.7225C5.80288 10.9843 6.19712 10.9843 6.39724 10.7225C6.44794 10.6562 6.49863 10.5041 6.6 10.2L6.6 10.2C6.68177 9.95468 6.72266 9.83201 6.77555 9.72099C6.97291 9.30672 7.30672 8.97291 7.72099 8.77555C7.83201 8.72266 7.95468 8.68177 8.2 8.6L8.2 8.6C8.50412 8.49863 8.65618 8.44794 8.7225 8.39724C8.98431 8.19712 8.98431 7.80288 8.7225 7.60276C8.65618 7.55206 8.50412 7.50137 8.2 7.4L8.2 7.4C7.95468 7.31822 7.83201 7.27734 7.72099 7.22445C7.30672 7.02709 6.97291 6.69329 6.77555 6.27901C6.72266 6.16799 6.68177 6.04532 6.6 5.8C6.49863 5.49588 6.44794 5.34382 6.39724 5.2775C6.19712 5.01569 5.80288 5.01569 5.60276 5.2775C5.55206 5.34382 5.50137 5.49588 5.4 5.8C5.31823 6.04532 5.27734 6.16799 5.22445 6.27901C5.02709 6.69329 4.69329 7.02709 4.27901 7.22445C4.16799 7.27734 4.04532 7.31823 3.8 7.4C3.49588 7.50137 3.34382 7.55206 3.2775 7.60276C3.01569 7.80288 3.01569 8.19712 3.2775 8.39724C3.34382 8.44794 3.49588 8.49863 3.8 8.6C4.04532 8.68177 4.16799 8.72266 4.27901 8.77555C4.69329 8.97291 5.02709 9.30672 5.22445 9.72099C5.27734 9.83201 5.31822 9.95468 5.4 10.2Z" fill="#2A4157" fill-opacity="0.24" stroke="#222222" stroke-width="1.2"/>
</svg>
