<svg width="24" height="24" viewBox="0 0 24 24" fill="none" xmlns="http://www.w3.org/2000/svg">
<path fill-rule="evenodd" clip-rule="evenodd" d="M15 4C15.292 4 15.438 4 15.5781 4.04183C16.192 4.22522 16.4775 4.93111 16.1637 5.48976C16.0921 5.61719 15.8744 5.82779 15.4389 6.249C13.935 7.70352 13 9.74257 13 12C13 14.2574 13.935 16.2965 15.4389 17.751C15.8744 18.1722 16.0921 18.3828 16.1637 18.5102C16.4775 19.0689 16.192 19.7748 15.5781 19.9582C15.438 20 15.292 20 15 20C10.5817 20 7 16.4183 7 12C7 7.58172 10.5817 4 15 4Z" fill="#2A4157" fill-opacity="0.24"/>
<path d="M16.1637 18.5102L16.6868 18.2164L16.1637 18.5102ZM15.5781 19.9582L15.4063 19.3833L15.5781 19.9582ZM15.4389 6.249L15.856 6.68028L15.4389 6.249ZM16.1637 5.48976L16.6868 5.78362L16.1637 5.48976ZM15.5781 4.04183L15.4063 4.61673L15.5781 4.04183ZM13.6 12C13.6 9.91178 14.4642 8.02644 15.856 6.68028L15.0217 5.81772C13.4058 7.38061 12.4 9.57336 12.4 12H13.6ZM15.856 17.3197C14.4642 15.9736 13.6 14.0882 13.6 12H12.4C12.4 14.4266 13.4058 16.6194 15.0217 18.1823L15.856 17.3197ZM15 19.4C10.9131 19.4 7.6 16.0869 7.6 12H6.4C6.4 16.7496 10.2504 20.6 15 20.6V19.4ZM7.6 12C7.6 7.91309 10.9131 4.6 15 4.6V3.4C10.2504 3.4 6.4 7.25035 6.4 12H7.6ZM15.0217 18.1823C15.2425 18.3958 15.3977 18.546 15.5075 18.659C15.6296 18.7846 15.6482 18.8177 15.6406 18.8041L16.6868 18.2164C16.6076 18.0754 16.4816 17.9395 16.368 17.8226C16.2422 17.6931 16.0708 17.5274 15.856 17.3197L15.0217 18.1823ZM15 20.6C15.2584 20.6 15.5066 20.6057 15.7498 20.5331L15.4063 19.3833C15.3694 19.3943 15.3256 19.4 15 19.4V20.6ZM15.6406 18.8041C15.7661 19.0275 15.6518 19.3099 15.4063 19.3833L15.7498 20.5331C16.7322 20.2396 17.189 19.1103 16.6868 18.2164L15.6406 18.8041ZM15.856 6.68028C16.0708 6.47258 16.2422 6.3069 16.368 6.17739C16.4816 6.06054 16.6076 5.92461 16.6868 5.78362L15.6406 5.1959C15.6482 5.18234 15.6296 5.21543 15.5075 5.34104C15.3977 5.45399 15.2425 5.60422 15.0217 5.81772L15.856 6.68028ZM15 4.6C15.3256 4.6 15.3694 4.6057 15.4063 4.61673L15.7498 3.46693C15.5066 3.3943 15.2584 3.4 15 3.4V4.6ZM16.6868 5.78362C17.189 4.88968 16.7322 3.76038 15.7498 3.46693L15.4063 4.61673C15.6518 4.69006 15.7661 4.97253 15.6406 5.1959L16.6868 5.78362Z" fill="#222222"/>
</svg>
