<svg width="24" height="24" viewBox="0 0 24 24" fill="none" xmlns="http://www.w3.org/2000/svg">
<path d="M6 13L3 11L12 6L21 11L18 13" stroke="#33363F" stroke-width="2" stroke-linecap="round" stroke-linejoin="round"/>
<path d="M13 14C13 14.5523 13.4477 15 14 15C14.5523 15 15 14.5523 15 14H13ZM13 7V14H15V7H13Z" fill="#33363F"/>
<path d="M6 17L5.61538 17.9231C5.24274 17.7678 5 17.4037 5 17H6ZM6 13H5C5 12.8448 5.03615 12.6916 5.10557 12.5528L6 13ZM18 13L18.8944 12.5528C18.9639 12.6916 19 12.8448 19 13H18ZM18 17H19C19 17.4037 18.7573 17.7678 18.3846 17.9231L18 17ZM12 19.5L12.3846 20.4231C12.1385 20.5256 11.8615 20.5256 11.6154 20.4231L12 19.5ZM5 17V13H7V17H5ZM6 13C5.10557 12.5528 5.10601 12.5519 5.10646 12.551C5.10661 12.5507 5.10707 12.5498 5.10738 12.5492C5.108 12.548 5.10863 12.5467 5.10929 12.5454C5.11061 12.5428 5.112 12.5401 5.11347 12.5373C5.11641 12.5317 5.11966 12.5255 5.12323 12.5189C5.13038 12.5057 5.13883 12.4905 5.14867 12.4737C5.16836 12.4399 5.19362 12.3992 5.22526 12.3526C5.28859 12.2592 5.37718 12.1427 5.49722 12.0118C5.73831 11.7488 6.10068 11.4336 6.62886 11.1318C7.68724 10.527 9.36737 10 12 10V12C9.63263 12 8.31276 12.473 7.62114 12.8682C7.27432 13.0664 7.07419 13.2512 6.97153 13.3632C6.91969 13.4198 6.8911 13.4595 6.88021 13.4756C6.87474 13.4836 6.87363 13.4859 6.87623 13.4814C6.87753 13.4792 6.87975 13.4753 6.88281 13.4696C6.88434 13.4668 6.88608 13.4635 6.88802 13.4598C6.88899 13.4579 6.89001 13.4559 6.89108 13.4539C6.89161 13.4528 6.89216 13.4517 6.89272 13.4506C6.89299 13.4501 6.89342 13.4492 6.89356 13.4489C6.89399 13.4481 6.89443 13.4472 6 13ZM12 10C14.6326 10 16.3128 10.527 17.3711 11.1318C17.8993 11.4336 18.2617 11.7488 18.5028 12.0118C18.6228 12.1427 18.7114 12.2592 18.7747 12.3526C18.8064 12.3992 18.8316 12.4399 18.8513 12.4737C18.8612 12.4905 18.8696 12.5057 18.8768 12.5189C18.8803 12.5255 18.8836 12.5317 18.8865 12.5373C18.888 12.5401 18.8894 12.5428 18.8907 12.5454C18.8914 12.5467 18.892 12.548 18.8926 12.5492C18.8929 12.5498 18.8934 12.5507 18.8935 12.551C18.894 12.5519 18.8944 12.5528 18 13C17.1056 13.4472 17.106 13.4481 17.1064 13.4489C17.1066 13.4492 17.107 13.4501 17.1073 13.4506C17.1078 13.4517 17.1084 13.4528 17.1089 13.4539C17.11 13.4559 17.111 13.4579 17.112 13.4598C17.1139 13.4635 17.1157 13.4668 17.1172 13.4696C17.1203 13.4753 17.1225 13.4792 17.1238 13.4814C17.1264 13.4859 17.1253 13.4836 17.1198 13.4756C17.1089 13.4595 17.0803 13.4198 17.0285 13.3632C16.9258 13.2512 16.7257 13.0664 16.3789 12.8682C15.6872 12.473 14.3674 12 12 12V10ZM19 13V17H17V13H19ZM18.3846 17.9231L12.3846 20.4231L11.6154 18.5769L17.6154 16.0769L18.3846 17.9231ZM11.6154 20.4231L5.61538 17.9231L6.38462 16.0769L12.3846 18.5769L11.6154 20.4231Z" fill="#33363F"/>
</svg>
