<svg width="24" height="24" viewBox="0 0 24 24" fill="none" xmlns="http://www.w3.org/2000/svg">
<path d="M4 10L12 6L20 10L12 14L4 10Z" stroke="#33363F" stroke-width="2" stroke-linecap="round" stroke-linejoin="round"/>
<path d="M20 10V14" stroke="#33363F" stroke-width="2" stroke-linecap="round" stroke-linejoin="round"/>
<path d="M8 12C8 11.4477 7.55228 11 7 11C6.44772 11 6 11.4477 6 12H8ZM7 17H6C6 17.0746 6.00834 17.1489 6.02487 17.2216L7 17ZM17 17L17.9751 17.2216C17.9917 17.1489 18 17.0746 18 17H17ZM18 12C18 11.4477 17.5523 11 17 11C16.4477 11 16 11.4477 16 12H18ZM6 12V17H8V12H6ZM7 17C6.02487 17.2216 6.0251 17.2227 6.02534 17.2237C6.02543 17.2241 6.02567 17.2251 6.02584 17.2258C6.02617 17.2273 6.02651 17.2288 6.02687 17.2303C6.02758 17.2333 6.02834 17.2364 6.02914 17.2397C6.03075 17.2463 6.03255 17.2533 6.03455 17.2609C6.03856 17.2761 6.04339 17.2933 6.04919 17.3125C6.06078 17.3507 6.07623 17.3966 6.09663 17.449C6.13746 17.5538 6.19804 17.6843 6.28685 17.8308C6.46604 18.1265 6.7532 18.4757 7.20409 18.8064C8.10774 19.4691 9.58684 20 12 20V18C9.8677 18 8.84681 17.5309 8.38682 17.1936C8.15589 17.0243 8.04532 16.8735 7.99724 16.7942C7.97242 16.7532 7.96197 16.7275 7.96019 16.7229C7.95928 16.7206 7.96053 16.7235 7.96324 16.7325C7.9646 16.7369 7.96632 16.7429 7.96833 16.7505C7.96934 16.7544 7.97041 16.7586 7.97155 16.7632C7.97212 16.7655 7.9727 16.7679 7.9733 16.7705C7.9736 16.7717 7.9739 16.773 7.97421 16.7743C7.97436 16.775 7.97459 16.776 7.97467 16.7763C7.9749 16.7774 7.97513 16.7784 7 17ZM12 20C14.4132 20 15.8923 19.4691 16.7959 18.8064C17.2468 18.4757 17.534 18.1265 17.7132 17.8308C17.802 17.6843 17.8625 17.5538 17.9034 17.449C17.9238 17.3966 17.9392 17.3507 17.9508 17.3125C17.9566 17.2933 17.9614 17.2761 17.9654 17.2609C17.9675 17.2533 17.9692 17.2463 17.9709 17.2397C17.9717 17.2364 17.9724 17.2333 17.9731 17.2303C17.9735 17.2288 17.9738 17.2273 17.9742 17.2258C17.9743 17.2251 17.9746 17.2241 17.9747 17.2237C17.9749 17.2227 17.9751 17.2216 17 17C16.0249 16.7784 16.0251 16.7774 16.0253 16.7763C16.0254 16.776 16.0256 16.775 16.0258 16.7743C16.0261 16.773 16.0264 16.7717 16.0267 16.7705C16.0273 16.7679 16.0279 16.7655 16.0284 16.7632C16.0296 16.7586 16.0307 16.7544 16.0317 16.7505C16.0337 16.7429 16.0354 16.7369 16.0368 16.7325C16.0395 16.7235 16.0407 16.7206 16.0398 16.7229C16.038 16.7275 16.0276 16.7532 16.0028 16.7942C15.9547 16.8735 15.8441 17.0243 15.6132 17.1936C15.1532 17.5309 14.1323 18 12 18V20ZM18 17V12H16V17H18Z" fill="#33363F"/>
</svg>
