<svg width="24" height="24" viewBox="0 0 24 24" fill="none" xmlns="http://www.w3.org/2000/svg">
<path d="M6.38948 12.7943C6.64587 12.8969 6.93685 12.7722 7.03941 12.5158C7.14197 12.2594 7.01726 11.9684 6.76087 11.8658L6.38948 12.7943ZM17.2391 11.8658C16.9827 11.9684 16.858 12.2594 16.9606 12.5158C17.0631 12.7722 17.3541 12.8969 17.6105 12.7943L17.2391 11.8658ZM21.0483 10.1193L20.8626 10.5836L21.0483 10.1193ZM21.0483 10.8807L20.8626 10.4164L21.0483 10.8807ZM12.7428 6.79711L12.5571 7.26135L12.7428 6.79711ZM11.0715 6.33287L2.76599 9.65509L3.13738 10.5836L11.4429 7.26135L11.0715 6.33287ZM21.234 9.65509L12.9285 6.33287L12.5571 7.26135L20.8626 10.5836L21.234 9.65509ZM2.76599 11.3449L6.38948 12.7943L6.76087 11.8658L3.13738 10.4164L2.76599 11.3449ZM17.6105 12.7943L21.234 11.3449L20.8626 10.4164L17.2391 11.8658L17.6105 12.7943ZM20.8626 10.5836C20.8506 10.5788 20.8332 10.5664 20.8205 10.5466C20.8094 10.5292 20.806 10.5128 20.806 10.5C20.806 10.4872 20.8094 10.4708 20.8205 10.4534C20.8332 10.4336 20.8506 10.4212 20.8626 10.4164L21.234 11.3449C21.9967 11.0398 21.9967 9.96017 21.234 9.65509L20.8626 10.5836ZM2.76599 9.65509C2.00328 9.96017 2.00328 11.0398 2.76599 11.3449L3.13738 10.4164C3.14936 10.4212 3.16679 10.4336 3.17946 10.4534C3.19056 10.4708 3.19396 10.4872 3.19396 10.5C3.19396 10.5128 3.19056 10.5292 3.17946 10.5466C3.16679 10.5664 3.14936 10.5788 3.13738 10.5836L2.76599 9.65509ZM11.4429 7.26135C11.8005 7.1183 12.1995 7.1183 12.5571 7.26135L12.9285 6.33287C12.3324 6.09446 11.6676 6.09446 11.0715 6.33287L11.4429 7.26135Z" fill="#33363F"/>
<path d="M14 13.5C14 13.7761 14.2239 14 14.5 14C14.7761 14 15 13.7761 15 13.5H14ZM14 7.5V13.5H15V7.5H14Z" fill="#33363F"/>
<path d="M6.5 16.5L6.32913 16.9699C6.13153 16.898 6 16.7103 6 16.5H6.5ZM6.5 12.5H6C6 12.4591 6.00501 12.4184 6.01493 12.3787L6.5 12.5ZM17.5 12.5L17.9851 12.3787C17.995 12.4184 18 12.4591 18 12.5H17.5ZM17.5 16.5H18C18 16.7103 17.8685 16.898 17.6709 16.9699L17.5 16.5ZM12 18.5L12.1709 18.9699C12.0605 19.01 11.9395 19.01 11.8291 18.9699L12 18.5ZM6 16.5V12.5H7V16.5H6ZM6.5 12.5C6.01493 12.3787 6.01507 12.3782 6.01521 12.3776C6.01527 12.3774 6.01541 12.3768 6.01552 12.3764C6.01572 12.3756 6.01594 12.3748 6.01616 12.3739C6.01662 12.3721 6.01711 12.3703 6.01765 12.3683C6.01872 12.3643 6.01997 12.3598 6.02141 12.3549C6.0243 12.3449 6.02794 12.3331 6.03249 12.3194C6.04159 12.2921 6.0543 12.2577 6.07168 12.2171C6.10648 12.1359 6.15987 12.0307 6.24022 11.9102C6.40184 11.6677 6.66772 11.3706 7.09765 11.084C7.95588 10.5118 9.43818 10 12 10V11C9.56182 11 8.29412 11.4882 7.65235 11.916C7.33228 12.1294 7.16066 12.3323 7.07228 12.4648C7.02763 12.5318 7.0029 12.5828 6.99082 12.611C6.98477 12.6252 6.98184 12.6337 6.98118 12.6357C6.98084 12.6367 6.98107 12.636 6.98176 12.6337C6.9821 12.6325 6.98256 12.6309 6.98312 12.6288C6.98339 12.6278 6.9837 12.6266 6.98402 12.6254C6.98419 12.6248 6.98436 12.6241 6.98453 12.6234C6.98462 12.6231 6.98475 12.6225 6.9848 12.6224C6.98493 12.6218 6.98507 12.6213 6.5 12.5ZM12 10C14.5618 10 16.0441 10.5118 16.9024 11.084C17.3323 11.3706 17.5982 11.6677 17.7598 11.9102C17.8401 12.0307 17.8935 12.1359 17.9283 12.2171C17.9457 12.2577 17.9584 12.2921 17.9675 12.3194C17.9721 12.3331 17.9757 12.3449 17.9786 12.3549C17.98 12.3598 17.9813 12.3643 17.9824 12.3683C17.9829 12.3703 17.9834 12.3721 17.9838 12.3739C17.9841 12.3748 17.9843 12.3756 17.9845 12.3764C17.9846 12.3768 17.9847 12.3774 17.9848 12.3776C17.9849 12.3782 17.9851 12.3787 17.5 12.5C17.0149 12.6213 17.0151 12.6218 17.0152 12.6224C17.0152 12.6225 17.0154 12.6231 17.0155 12.6234C17.0156 12.6241 17.0158 12.6248 17.016 12.6254C17.0163 12.6266 17.0166 12.6278 17.0169 12.6288C17.0174 12.6309 17.0179 12.6325 17.0182 12.6337C17.0189 12.636 17.0192 12.6367 17.0188 12.6357C17.0182 12.6337 17.0152 12.6252 17.0092 12.611C16.9971 12.5828 16.9724 12.5318 16.9277 12.4648C16.8393 12.3323 16.6677 12.1294 16.3476 11.916C15.7059 11.4882 14.4382 11 12 11V10ZM18 12.5V16.5H17V12.5H18ZM17.6709 16.9699L12.1709 18.9699L11.8291 18.0301L17.3291 16.0301L17.6709 16.9699ZM11.8291 18.9699L6.32913 16.9699L6.67087 16.0301L12.1709 18.0301L11.8291 18.9699Z" fill="#33363F"/>
</svg>
