<svg width="24" height="24" viewBox="0 0 24 24" fill="none" xmlns="http://www.w3.org/2000/svg">
<path d="M20.157 8.87466L20.3601 9.33157L20.157 8.87466ZM20.157 8.12534L20.3601 7.66843L20.157 8.12534ZM11.1877 12.139L10.9847 12.5959L11.1877 12.139ZM3.84299 8.87466L3.63992 9.33157L3.84299 8.87466ZM11.1877 4.86101L10.9847 4.40411L11.1877 4.86101ZM12.8123 4.86101L13.0153 4.40411L12.8123 4.86101ZM10.9847 4.40411L3.63992 7.66843L4.04606 8.58224L11.3908 5.31792L10.9847 4.40411ZM3.63992 9.33157L10.9847 12.5959L11.3908 11.6821L4.04606 8.41776L3.63992 9.33157ZM13.0153 12.5959L20.3601 9.33157L19.9539 8.41776L12.6092 11.6821L13.0153 12.5959ZM20.3601 7.66843L13.0153 4.40411L12.6092 5.31792L19.9539 8.58224L20.3601 7.66843ZM20.3601 9.33157C21.0806 9.01132 21.0806 7.98868 20.3601 7.66843L19.9539 8.58224C19.9419 8.57688 19.9258 8.56442 19.9142 8.54563C19.9039 8.52896 19.9005 8.51296 19.9005 8.5C19.9005 8.48704 19.9039 8.47104 19.9142 8.45437C19.9258 8.43558 19.9419 8.42312 19.9539 8.41776L20.3601 9.33157ZM10.9847 12.5959C11.6311 12.8832 12.3689 12.8832 13.0153 12.5959L12.6092 11.6821C12.2214 11.8545 11.7786 11.8545 11.3908 11.6821L10.9847 12.5959ZM3.63992 7.66843C2.91937 7.98868 2.91937 9.01132 3.63992 9.33157L4.04606 8.41776C4.05812 8.42312 4.07425 8.43558 4.08585 8.45437C4.09614 8.47104 4.09951 8.48704 4.09951 8.5C4.09951 8.51296 4.09614 8.52896 4.08585 8.54563C4.07425 8.56442 4.05812 8.57688 4.04606 8.58224L3.63992 7.66843ZM11.3908 5.31792C11.7786 5.14554 12.2214 5.14554 12.6092 5.31792L13.0153 4.40411C12.3689 4.11681 11.6311 4.11681 10.9847 4.40411L11.3908 5.31792Z" fill="#33363F"/>
<path d="M20.5 8.5V12.5" stroke="#33363F" stroke-linecap="round" stroke-linejoin="round"/>
<path d="M7 10.5C7 10.2239 6.77614 10 6.5 10C6.22386 10 6 10.2239 6 10.5H7ZM6.5 15.5H6C6 15.5409 6.00501 15.5816 6.01493 15.6213L6.5 15.5ZM17.5 15.5L17.9851 15.6213C17.995 15.5816 18 15.5409 18 15.5H17.5ZM18 10.5C18 10.2239 17.7761 10 17.5 10C17.2239 10 17 10.2239 17 10.5H18ZM6 10.5V15.5H7V10.5H6ZM6.5 15.5C6.01493 15.6213 6.01507 15.6218 6.01521 15.6224C6.01527 15.6226 6.01541 15.6232 6.01552 15.6236C6.01572 15.6244 6.01594 15.6252 6.01616 15.6261C6.01662 15.6279 6.01711 15.6297 6.01765 15.6317C6.01872 15.6357 6.01997 15.6402 6.02141 15.6451C6.0243 15.6551 6.02794 15.6669 6.03249 15.6806C6.04159 15.7079 6.0543 15.7423 6.07168 15.7829C6.10648 15.8641 6.15987 15.9693 6.24022 16.0898C6.40184 16.3323 6.66772 16.6294 7.09765 16.916C7.95588 17.4882 9.43818 18 12 18V17C9.56182 17 8.29412 16.5118 7.65235 16.084C7.33228 15.8706 7.16066 15.6677 7.07228 15.5352C7.02763 15.4682 7.0029 15.4172 6.99082 15.389C6.98477 15.3748 6.98184 15.3663 6.98118 15.3643C6.98084 15.3633 6.98107 15.364 6.98176 15.3663C6.9821 15.3675 6.98256 15.3691 6.98312 15.3712C6.98339 15.3722 6.9837 15.3734 6.98402 15.3746C6.98419 15.3752 6.98436 15.3759 6.98453 15.3766C6.98462 15.3769 6.98475 15.3775 6.9848 15.3776C6.98493 15.3782 6.98507 15.3787 6.5 15.5ZM12 18C14.5618 18 16.0441 17.4882 16.9024 16.916C17.3323 16.6294 17.5982 16.3323 17.7598 16.0898C17.8401 15.9693 17.8935 15.8641 17.9283 15.7829C17.9457 15.7423 17.9584 15.7079 17.9675 15.6806C17.9721 15.6669 17.9757 15.6551 17.9786 15.6451C17.98 15.6402 17.9813 15.6357 17.9824 15.6317C17.9829 15.6297 17.9834 15.6279 17.9838 15.6261C17.9841 15.6252 17.9843 15.6244 17.9845 15.6236C17.9846 15.6232 17.9847 15.6226 17.9848 15.6224C17.9849 15.6218 17.9851 15.6213 17.5 15.5C17.0149 15.3787 17.0151 15.3782 17.0152 15.3776C17.0152 15.3775 17.0154 15.3769 17.0155 15.3766C17.0156 15.3759 17.0158 15.3752 17.016 15.3746C17.0163 15.3734 17.0166 15.3722 17.0169 15.3712C17.0174 15.3691 17.0179 15.3675 17.0182 15.3663C17.0189 15.364 17.0192 15.3633 17.0188 15.3643C17.0182 15.3663 17.0152 15.3748 17.0092 15.389C16.9971 15.4172 16.9724 15.4682 16.9277 15.5352C16.8393 15.6677 16.6677 15.8706 16.3476 16.084C15.7059 16.5118 14.4382 17 12 17V18ZM18 15.5V10.5H17V15.5H18Z" fill="#33363F"/>
</svg>
