<svg width="24" height="24" viewBox="0 0 24 24" fill="none" xmlns="http://www.w3.org/2000/svg">
<path d="M12 20L12.7071 20.7071L12 21.4142L11.2929 20.7071L12 20ZM17.7071 15.7071L12.7071 20.7071L11.2929 19.2929L16.2929 14.2929L17.7071 15.7071ZM11.2929 20.7071L6.29289 15.7071L7.70711 14.2929L12.7071 19.2929L11.2929 20.7071Z" fill="#33363F"/>
<path d="M12 4L12.7071 3.29289L12 2.58579L11.2929 3.29289L12 4ZM17.7071 8.29289L12.7071 3.29289L11.2929 4.70711L16.2929 9.70711L17.7071 8.29289ZM11.2929 3.29289L6.29289 8.29289L7.70711 9.70711L12.7071 4.70711L11.2929 3.29289Z" fill="#33363F"/>
</svg>
