<svg width="24" height="24" viewBox="0 0 24 24" fill="none" xmlns="http://www.w3.org/2000/svg">
<path d="M12 20L12.3536 20.3536L12 20.7071L11.6464 20.3536L12 20ZM17.3536 15.3536L12.3536 20.3536L11.6464 19.6464L16.6464 14.6464L17.3536 15.3536ZM11.6464 20.3536L6.64645 15.3536L7.35355 14.6464L12.3536 19.6464L11.6464 20.3536Z" fill="#222222"/>
<path d="M12 4L12.3536 3.64645L12 3.29289L11.6464 3.64645L12 4ZM17.3536 8.64645L12.3536 3.64645L11.6464 4.35355L16.6464 9.35355L17.3536 8.64645ZM11.6464 3.64645L6.64645 8.64645L7.35355 9.35355L12.3536 4.35355L11.6464 3.64645Z" fill="#222222"/>
</svg>
