<svg width="24" height="24" viewBox="0 0 24 24" fill="none" xmlns="http://www.w3.org/2000/svg">
<path fill-rule="evenodd" clip-rule="evenodd" d="M19 15.9505V14H16.2525C16.018 14 15.9008 14 15.802 14.0098C14.854 14.1041 14.1041 14.854 14.0098 15.802C14 15.9008 14 16.018 14 16.2525C14 16.5322 14 16.6721 14.0124 16.7831C14.1332 17.8609 15.0909 18.646 16.1714 18.553C16.2827 18.5435 16.4199 18.516 16.6942 18.4612L16.9903 18.4019C17.3708 18.3258 17.561 18.2878 17.7215 18.2257C18.3765 17.9724 18.8506 17.394 18.9706 16.7021C19 16.5325 19 16.3385 19 15.9505ZM9 17.9505V16H6.25245C6.018 16 5.90078 16 5.80205 16.0098C4.85403 16.1041 4.10411 16.854 4.00982 17.802C4 17.9008 4 18.018 4 18.2525C4 18.5322 4 18.6721 4.01244 18.7831C4.13321 19.8609 5.0909 20.646 6.17139 20.553C6.28267 20.5435 6.41994 20.516 6.69419 20.4612L6.99029 20.4019C7.37076 20.3258 7.56099 20.2878 7.7215 20.2257C8.3765 19.9724 8.85063 19.394 8.9706 18.7021C9 18.5325 9 18.3385 9 17.9505Z" fill="#222222"/>
<path d="M9 16V11M9 16V17.9505M9 16H6.25245M19 14V9M19 14V15.9505M19 14H16.2525M19 9L9 11M19 9V8.87922M9 11V9.27922M9 9.27922C9 7.70946 9 6.92459 9.45332 6.37163C9.90663 5.81867 10.6763 5.66475 12.2155 5.35689M9 9.27922V9.27922C9 7.70946 9 6.92459 9.45332 6.37163C9.45332 6.37163 9.45332 6.37163 9.45332 6.37163C9.90663 5.81867 10.6763 5.66475 12.2155 5.35689V5.35689M9 9.27922V17.9505M12.2155 5.35689L14.2155 4.95689M14.2155 4.95689C16.4291 4.51417 17.536 4.29281 18.268 4.89292C19 5.49304 19 6.62176 19 8.87922M14.2155 4.95689V4.95689C16.4291 4.51417 17.536 4.29281 18.268 4.89292C19 5.49304 19 6.62176 19 8.87922V8.87922M19 15.9505C19 16.3385 19 16.5325 18.9706 16.7021C18.8506 17.394 18.3765 17.9724 17.7215 18.2257C17.561 18.2878 17.3708 18.3258 16.9903 18.4019M19 15.9505V15.9505C19 16.3385 19 16.5325 18.9706 16.702C18.8506 17.394 18.3765 17.9724 17.7215 18.2257C17.561 18.2878 17.3708 18.3258 16.9903 18.4019V18.4019M16.9903 18.4019L16.6942 18.4612M16.6942 18.4612C16.4199 18.516 16.2827 18.5435 16.1714 18.553C15.0909 18.646 14.1332 17.8609 14.0124 16.7831C14 16.6721 14 16.5322 14 16.2525M16.6942 18.4612V18.4612C16.4199 18.516 16.2827 18.5435 16.1714 18.553C15.0909 18.646 14.1332 17.8609 14.0124 16.7831C14 16.6721 14 16.5322 14 16.2525V16.2525M14 16.2525C14 16.018 14 15.9008 14.0098 15.802C14.1041 14.854 14.854 14.1041 15.802 14.0098C15.9008 14 16.018 14 16.2525 14M14 16.2525V16.2525C14 16.018 14 15.9008 14.0098 15.8021C14.1041 14.854 14.854 14.1041 15.8021 14.0098C15.9008 14 16.018 14 16.2525 14V14M9 17.9505C9 18.3385 9 18.5325 8.9706 18.7021C8.85063 19.394 8.3765 19.9724 7.7215 20.2257C7.56099 20.2878 7.37076 20.3258 6.99029 20.4019M9 17.9505V17.9505C9 18.3385 9 18.5325 8.9706 18.7021C8.85063 19.394 8.3765 19.9724 7.7215 20.2257C7.56099 20.2878 7.37075 20.3258 6.99029 20.4019V20.4019M6.99029 20.4019L6.69419 20.4612M6.69419 20.4612C6.41994 20.516 6.28267 20.5435 6.17139 20.553C5.0909 20.646 4.13321 19.8609 4.01244 18.7831C4 18.6721 4 18.5322 4 18.2525M6.69419 20.4612V20.4612C6.41986 20.516 6.28269 20.5435 6.17139 20.553C5.0909 20.646 4.13321 19.8608 4.01244 18.7831C4 18.6721 4 18.5322 4 18.2525V18.2525M4 18.2525C4 18.018 4 17.9008 4.00982 17.802C4.10411 16.854 4.85403 16.1041 5.80205 16.0098C5.90078 16 6.018 16 6.25245 16M4 18.2525V18.2525C4 18.018 4 17.9008 4.00982 17.8021C4.10411 16.854 4.85403 16.1041 5.80205 16.0098C5.90078 16 6.01801 16 6.25245 16V16" stroke="#222222" stroke-width="2"/>
</svg>
