<svg width="24" height="24" viewBox="0 0 24 24" fill="none" xmlns="http://www.w3.org/2000/svg">
<path d="M4.54556 19.4028L11.9547 3.59658C11.9727 3.55821 12.0273 3.55821 12.0453 3.59658L19.4544 19.4028C19.4725 19.4413 19.4373 19.4833 19.3963 19.4723L12.0129 17.5034C12.0044 17.5012 11.9956 17.5012 11.9871 17.5034L4.60371 19.4723C4.56266 19.4833 4.52752 19.4413 4.54556 19.4028Z" stroke="#33363F" stroke-linecap="round"/>
<path d="M11.9752 12.4858L12.2233 12.0517L11.9752 12.4858ZM12.0248 12.4858L11.7767 12.0517L12.0248 12.4858ZM8.25193 10.9341L11.7271 12.9199L12.2233 12.0517L8.74807 10.0659L8.25193 10.9341ZM12.2729 12.9199L15.7481 10.9341L15.2519 10.0659L11.7767 12.0517L12.2729 12.9199ZM11.7271 12.9199C11.8962 13.0166 12.1038 13.0166 12.2729 12.9199L11.7767 12.0517C11.9151 11.9726 12.0849 11.9726 12.2233 12.0517L11.7271 12.9199Z" fill="#33363F"/>
</svg>
