<svg width="24" height="24" viewBox="0 0 24 24" fill="none" xmlns="http://www.w3.org/2000/svg">
<path fill-rule="evenodd" clip-rule="evenodd" d="M7.0508 6H9.00005C10.1046 6 11 6.89543 11 8C11 9.10457 10.1046 10 9.00005 10H7.00005V11H9.00005C10.1046 11 11 11.8954 11 13C11 14.1046 10.1046 15 9.00005 15H7.00005V16H9.00005C10.1046 16 11 16.8954 11 18C11 19.1046 10.1046 20 9.00005 20H7.29248C7.36869 20.1568 7.46475 20.2931 7.58584 20.4142C8.17162 21 9.11443 21 11 21H16C17.8857 21 18.8285 21 19.4143 20.4142C20 19.8284 20 18.8856 20 17V8C20 6.11438 20 5.17157 19.4143 4.58579C18.8285 4 17.8857 4 16 4H11C9.11443 4 8.17162 4 7.58584 4.58579C7.25924 4.91238 7.11474 5.34994 7.0508 6ZM16 11C15.4477 11 15 10.5523 15 10V8C15 7.44772 15.4477 7 16 7C16.5523 7 17 7.44772 17 8V10C17 10.5523 16.5523 11 16 11ZM5 7C4.44772 7 4 7.44772 4 8C4 8.55228 4.44772 9 5 9H9C9.55228 9 10 8.55228 10 8C10 7.44772 9.55228 7 9 7H5ZM5 12C4.44772 12 4 12.4477 4 13C4 13.5523 4.44772 14 5 14H9C9.55228 14 10 13.5523 10 13C10 12.4477 9.55228 12 9 12H5ZM5 17C4.44772 17 4 17.4477 4 18C4 18.5523 4.44772 19 5 19H9C9.55228 19 10 18.5523 10 18C10 17.4477 9.55228 17 9 17H5Z" fill="#222222"/>
</svg>
