<svg width="24" height="24" viewBox="0 0 24 24" fill="none" xmlns="http://www.w3.org/2000/svg">
<path d="M3.5 7.5H7.5" stroke="#222222" stroke-linecap="round"/>
<path d="M3.5 15.5H7.5" stroke="#222222" stroke-linecap="round"/>
<path d="M3.5 11.5H7.5" stroke="#222222" stroke-linecap="round"/>
<path fill-rule="evenodd" clip-rule="evenodd" d="M5.01071 5.6954C5.00666 5.83786 5.00463 5.9091 5.04881 5.95455C5.09299 6 5.1649 6 5.30872 6H7.5C8.32843 6 9 6.67157 9 7.5C9 8.32843 8.32843 9 7.5 9H5.3C5.15858 9 5.08787 9 5.04393 9.04393C5 9.08787 5 9.15858 5 9.3V9.7C5 9.84142 5 9.91213 5.04393 9.95607C5.08787 10 5.15858 10 5.3 10H7.5C8.32843 10 9 10.6716 9 11.5C9 12.3284 8.32843 13 7.5 13H5.3C5.15858 13 5.08787 13 5.04393 13.0439C5 13.0879 5 13.1586 5 13.3V13.7C5 13.8414 5 13.9121 5.04393 13.9561C5.08787 14 5.15858 14 5.3 14H7.5C8.32843 14 9 14.6716 9 15.5C9 16.3284 8.32843 17 7.5 17H5.3C5.15852 17 5.08777 17 5.04383 17.044C4.99989 17.088 4.99996 17.1588 5.0001 17.3005C5.00175 18.9875 5.03198 19.8604 5.58579 20.4142C6.17157 21 7.11438 21 9 21H15C16.8856 21 17.8284 21 18.4142 20.4142C19 19.8284 19 18.8856 19 17V7C19 5.11438 19 4.17157 18.4142 3.58579C17.8284 3 16.8856 3 15 3H9C7.11438 3 6.17157 3 5.58579 3.58579C5.15431 4.01726 5.04065 4.64243 5.01071 5.6954Z" fill="#2A4157" fill-opacity="0.24"/>
<path d="M15.5 10.5V7.5" stroke="#222222" stroke-linecap="round"/>
</svg>
