<svg width="24" height="24" viewBox="0 0 24 24" fill="none" xmlns="http://www.w3.org/2000/svg">
<path fill-rule="evenodd" clip-rule="evenodd" d="M12 21C16.9706 21 21 16.9706 21 12C21 7.02944 16.9706 3 12 3C7.02944 3 3 7.02944 3 12C3 16.9706 7.02944 21 12 21ZM12 5C12.5523 5 13 5.44772 13 6V9C13 9.55228 12.5523 10 12 10C11.4477 10 11 9.55229 11 9V6C11 5.44772 11.4477 5 12 5ZM15.5355 7.05025C15.9261 6.65973 16.5592 6.65973 16.9497 7.05025C17.9287 8.02922 18.5954 9.2765 18.8655 10.6344C19.1356 11.9922 18.997 13.3997 18.4672 14.6788C17.9373 15.9579 17.0401 17.0511 15.889 17.8203C14.7378 18.5895 13.3845 19 12 19C10.6155 19 9.26215 18.5895 8.11101 17.8203C6.95986 17.0511 6.06265 15.9579 5.53284 14.6788C5.00303 13.3997 4.8644 11.9922 5.1345 10.6344C5.4046 9.2765 6.07128 8.02922 7.05025 7.05025C7.44077 6.65973 8.07394 6.65973 8.46446 7.05025C8.85499 7.44078 8.85499 8.07394 8.46446 8.46447C7.7652 9.16373 7.289 10.0546 7.09607 11.0245C6.90314 11.9945 7.00216 12.9998 7.3806 13.9134C7.75904 14.827 8.3999 15.6079 9.22215 16.1573C10.0444 16.7068 11.0111 17 12 17C12.9889 17 13.9556 16.7068 14.7778 16.1573C15.6001 15.6079 16.241 14.827 16.6194 13.9134C16.9978 12.9998 17.0968 11.9945 16.9039 11.0245C16.711 10.0546 16.2348 9.16373 15.5355 8.46447C15.145 8.07394 15.145 7.44078 15.5355 7.05025Z" fill="#222222"/>
</svg>
