<svg width="24" height="24" viewBox="0 0 24 24" fill="none" xmlns="http://www.w3.org/2000/svg">
<path fill-rule="evenodd" clip-rule="evenodd" d="M10.5 6.57575C10.5 6.39592 10.5 6.30601 10.438 6.2611C10.376 6.21618 10.2935 6.24325 10.1285 6.29738C7.73122 7.08369 6 9.33953 6 11.9997C6 15.3134 8.68629 17.9997 12 17.9997C15.3137 17.9997 18 15.3134 18 11.9997C18 9.33953 16.2688 7.08369 13.8715 6.29738C13.7065 6.24325 13.624 6.21618 13.562 6.2611C13.5 6.30601 13.5 6.39592 13.5 6.57575V8.99977C13.5 9.8282 12.8284 10.4998 12 10.4998C11.1716 10.4998 10.5 9.8282 10.5 8.99977V6.57575Z" fill="#2A4157" fill-opacity="0.24"/>
<path d="M12 9L12 4" stroke="#222222" stroke-linecap="round"/>
<path d="M18.0104 5.98959C19.1992 7.17834 20.0087 8.69289 20.3367 10.3417C20.6646 11.9906 20.4963 13.6996 19.853 15.2528C19.2096 16.806 18.1202 18.1335 16.7223 19.0675C15.3245 20.0015 13.6811 20.5 12 20.5C10.3189 20.5 8.67547 20.0015 7.27765 19.0675C5.87984 18.1335 4.79037 16.806 4.14702 15.2528C3.50368 13.6996 3.33535 11.9906 3.66332 10.3417C3.9913 8.69289 4.80085 7.17834 5.98959 5.98959" stroke="#222222" stroke-linecap="round"/>
</svg>
