<svg width="24" height="24" viewBox="0 0 24 24" fill="none" xmlns="http://www.w3.org/2000/svg">
<path d="M3 3V2H2V3H3ZM12.2929 13.7071C12.6834 14.0976 13.3166 14.0976 13.7071 13.7071C14.0976 13.3166 14.0976 12.6834 13.7071 12.2929L12.2929 13.7071ZM4 11V3H2V11H4ZM3 4H11V2H3V4ZM2.29289 3.70711L12.2929 13.7071L13.7071 12.2929L3.70711 2.29289L2.29289 3.70711Z" fill="#33363F"/>
<path d="M4 15V15C4 16.8692 4 17.8038 4.40192 18.5C4.66523 18.9561 5.04394 19.3348 5.5 19.5981C6.19615 20 7.13077 20 9 20H14C16.8284 20 18.2426 20 19.1213 19.1213C20 18.2426 20 16.8284 20 14V9C20 7.13077 20 6.19615 19.5981 5.5C19.3348 5.04394 18.9561 4.66523 18.5 4.40192C17.8038 4 16.8692 4 15 4V4" stroke="#33363F" stroke-width="2" stroke-linecap="round"/>
</svg>
