<svg width="24" height="24" viewBox="0 0 24 24" fill="none" xmlns="http://www.w3.org/2000/svg">
<path d="M15 5.70501L15 9L15 21L12 20L9 21L6 20L3 21L3 6.48612C3 5.09488 3 4.39927 3.33103 3.89795C3.4798 3.67265 3.67264 3.4798 3.89794 3.33103C4.39926 3.00001 5.09488 3.00001 6.48611 3.00001L15.0995 3.00001C15.9684 3.00001 16.3096 4.12695 15.5866 4.60893C15.2201 4.85325 15 5.26456 15 5.70501Z" fill="#2A4157" fill-opacity="0.24"/>
<path d="M18 3.00001V3.00001C19.6569 3.00001 21 4.34315 21 6.00001L21 8.14286C21 8.47698 21 8.64405 20.9234 8.76602C20.8834 8.82962 20.8296 8.8834 20.766 8.92336C20.644 9 20.477 9 20.1429 9L15 9M18 3.00001V3.00001C16.3431 3.00001 15 4.34315 15 6.00001L15 9M18 3.00001L7 3.00001C5.11438 3.00001 4.17157 3.00001 3.58579 3.58579C3 4.17158 3 5.11439 3 7.00001L3 21L6 20L9 21L12 20L15 21L15 9" stroke="#222222" stroke-width="1.2"/>
<path d="M7 7L11 7" stroke="#222222" stroke-width="1.2" stroke-linecap="round"/>
<path d="M8 11H7" stroke="#222222" stroke-width="1.2" stroke-linecap="round"/>
<path d="M7 15L10 15" stroke="#222222" stroke-width="1.2" stroke-linecap="round"/>
</svg>
