<svg width="24" height="24" viewBox="0 0 24 24" fill="none" xmlns="http://www.w3.org/2000/svg">
<path d="M14.5 7.5H16.1C16.9401 7.5 17.3601 7.5 17.681 7.66349C17.9632 7.8073 18.1927 8.03677 18.3365 8.31901C18.5 8.63988 18.5 9.05992 18.5 9.9V17.5C18.5 18.6046 17.6046 19.5 16.5 19.5V19.5C15.3954 19.5 14.5 18.6046 14.5 17.5V7.7C14.5 6.57989 14.5 6.01984 14.282 5.59202C14.0903 5.21569 13.7843 4.90973 13.408 4.71799C12.9802 4.5 12.4201 4.5 11.3 4.5H7.7C6.57989 4.5 6.01984 4.5 5.59202 4.71799C5.21569 4.90973 4.90973 5.21569 4.71799 5.59202C4.5 6.01984 4.5 6.5799 4.5 7.7V16.3C4.5 17.4201 4.5 17.9802 4.71799 18.408C4.90973 18.7843 5.21569 19.0903 5.59202 19.282C6.01984 19.5 6.5799 19.5 7.7 19.5H16.5" stroke="#222222"/>
<path d="M11 6.5H8C7.53406 6.5 7.30109 6.5 7.11732 6.57612C6.87229 6.67761 6.67761 6.87229 6.57612 7.11732C6.5 7.30109 6.5 7.53406 6.5 8C6.5 8.46594 6.5 8.69891 6.57612 8.88268C6.67761 9.12771 6.87229 9.32239 7.11732 9.42388C7.30109 9.5 7.53406 9.5 8 9.5H11C11.4659 9.5 11.6989 9.5 11.8827 9.42388C12.1277 9.32239 12.3224 9.12771 12.4239 8.88268C12.5 8.69891 12.5 8.46594 12.5 8C12.5 7.53406 12.5 7.30109 12.4239 7.11732C12.3224 6.87229 12.1277 6.67761 11.8827 6.57612C11.6989 6.5 11.4659 6.5 11 6.5Z" stroke="#222222"/>
<path d="M6.5 11C6.22386 11 6 11.2239 6 11.5C6 11.7761 6.22386 12 6.5 12V11ZM12.5 12C12.7761 12 13 11.7761 13 11.5C13 11.2239 12.7761 11 12.5 11V12ZM6.5 12H12.5V11H6.5V12Z" fill="#33363F"/>
<path d="M6.5 13C6.22386 13 6 13.2239 6 13.5C6 13.7761 6.22386 14 6.5 14V13ZM12.5 14C12.7761 14 13 13.7761 13 13.5C13 13.2239 12.7761 13 12.5 13V14ZM6.5 14H12.5V13H6.5V14Z" fill="#33363F"/>
<path d="M6.5 15C6.22386 15 6 15.2239 6 15.5C6 15.7761 6.22386 16 6.5 16V15ZM12.5 16C12.7761 16 13 15.7761 13 15.5C13 15.2239 12.7761 15 12.5 15V16ZM6.5 16H12.5V15H6.5V16Z" fill="#33363F"/>
<path d="M6.5 17C6.22386 17 6 17.2239 6 17.5C6 17.7761 6.22386 18 6.5 18V17ZM10.5 18C10.7761 18 11 17.7761 11 17.5C11 17.2239 10.7761 17 10.5 17V18ZM6.5 18H10.5V17H6.5V18Z" fill="#33363F"/>
</svg>
