<svg width="24" height="24" viewBox="0 0 24 24" fill="none" xmlns="http://www.w3.org/2000/svg">
<path d="M15 8.21111L15 9L15 20.0657C15 20.477 15 20.6826 14.868 20.7533C14.7359 20.824 14.5648 20.7099 14.2226 20.4818L12.2773 19.1849C12.1429 19.0953 12.0757 19.0505 12 19.0505C11.9243 19.0505 11.8571 19.0953 11.7226 19.1849L9.27735 20.8151C9.14291 20.9047 9.07569 20.9495 9 20.9495C8.92431 20.9495 8.85709 20.9047 8.72265 20.8151L6.27735 19.1849C6.14291 19.0953 6.07569 19.0505 6 19.0505C5.92431 19.0505 5.85709 19.0953 5.72265 19.1849L3.77735 20.4818C3.43516 20.7099 3.26407 20.824 3.13204 20.7533C3 20.6826 3 20.477 3 20.0657L3 7.00001C3 5.11439 3 4.17158 3.58579 3.58579C4.17157 3.00001 5.11438 3.00001 7 3.00001L18 3.00001L17.6718 3.2188C16.3639 4.09073 15.71 4.5267 15.355 5.18998C15 5.85326 15 6.63921 15 8.21111Z" fill="#2A4157" fill-opacity="0.24"/>
<path d="M15 6C15 4.34315 16.3431 3 18 3C19.6569 3 21 4.34315 21 6V8C21 8.55228 20.5523 9 20 9H15.5C15.2239 9 15 8.77614 15 8.5V6Z" fill="#222222"/>
<path d="M5.5 9.5L12.5 9.5" stroke="#222222" stroke-linecap="round"/>
<path d="M5.5 12.5L9.5 12.5" stroke="#222222" stroke-linecap="round"/>
<path d="M5.5 15.5L11.5 15.5" stroke="#222222" stroke-linecap="round"/>
</svg>
