<svg width="24" height="24" viewBox="0 0 24 24" fill="none" xmlns="http://www.w3.org/2000/svg">
<path d="M5.5 5.5C5.5 4.94772 5.94772 4.5 6.5 4.5H17.5C18.0523 4.5 18.5 4.94772 18.5 5.5V18.5C18.5 19.0523 18.0523 19.5 17.5 19.5H6.5C5.94772 19.5 5.5 19.0523 5.5 18.5V5.5Z" stroke="#222222" stroke-linecap="round" stroke-linejoin="round"/>
<circle cx="12" cy="10" r="3.5" stroke="#222222" stroke-linecap="round" stroke-linejoin="round"/>
<path d="M13.5 10C13.5 11.0438 13.2874 11.964 12.967 12.6048C12.6316 13.2755 12.2609 13.5 12 13.5C11.7391 13.5 11.3684 13.2755 11.033 12.6048C10.7126 11.964 10.5 11.0438 10.5 10C10.5 8.95622 10.7126 8.03598 11.033 7.39518C11.3684 6.72447 11.7391 6.5 12 6.5C12.2609 6.5 12.6316 6.72447 12.967 7.39518C13.2874 8.03598 13.5 8.95622 13.5 10Z" stroke="#222222" stroke-linecap="round" stroke-linejoin="round"/>
<path d="M15.5 10H8.5" stroke="#33363F" stroke-linecap="round" stroke-linejoin="round"/>
<path d="M15.5 15.5H8.5" stroke="#33363F" stroke-linecap="round" stroke-linejoin="round"/>
<path d="M14.5 17.5H9.5" stroke="#33363F" stroke-linecap="round" stroke-linejoin="round"/>
</svg>
