<svg width="24" height="24" viewBox="0 0 24 24" fill="none" xmlns="http://www.w3.org/2000/svg">
<path fill-rule="evenodd" clip-rule="evenodd" d="M6 7C6 5.11438 6 4.17157 6.58579 3.58579C7.17157 3 8.11438 3 10 3H14C15.8856 3 16.8284 3 17.4142 3.58579C18 4.17157 18 5.11438 18 7V17C18 18.8856 18 19.8284 17.4142 20.4142C16.8284 21 15.8856 21 14 21H10C8.11438 21 7.17157 21 6.58579 20.4142C6 19.8284 6 18.8856 6 17V7ZM9.5 5C9.5 4.72386 9.72386 4.5 10 4.5H14C14.2761 4.5 14.5 4.72386 14.5 5C14.5 5.27614 14.2761 5.5 14 5.5H10C9.72386 5.5 9.5 5.27614 9.5 5ZM12 19C12.5523 19 13 18.5523 13 18C13 17.4477 12.5523 17 12 17C11.4477 17 11 17.4477 11 18C11 18.5523 11.4477 19 12 19Z" fill="#33363F"/>
</svg>
