<svg width="24" height="24" viewBox="0 0 24 24" fill="none" xmlns="http://www.w3.org/2000/svg">
<path fill-rule="evenodd" clip-rule="evenodd" d="M12.398 17.804C13.881 17.0348 19 14.0163 19 9C19 5.13401 15.866 2 12 2C8.13401 2 5 5.13401 5 9C5 14.0163 10.119 17.0348 11.602 17.804C11.8548 17.9351 12.1452 17.9351 12.398 17.804ZM12 12C13.6569 12 15 10.6569 15 9C15 7.34315 13.6569 6 12 6C10.3431 6 9 7.34315 9 9C9 10.6569 10.3431 12 12 12Z" fill="#2A4157" fill-opacity="0.24"/>
<path d="M12.398 17.804L12.6743 18.3366V18.3366L12.398 17.804ZM11.602 17.804L11.3257 18.3366L11.3257 18.3366L11.602 17.804ZM18.4 9C18.4 11.2907 17.2328 13.1563 15.829 14.5722C14.4258 15.9876 12.8363 16.9007 12.1218 17.2713L12.6743 18.3366C13.4427 17.938 15.1542 16.9573 16.6812 15.4171C18.2077 13.8774 19.6 11.7256 19.6 9H18.4ZM12 2.6C15.5346 2.6 18.4 5.46538 18.4 9H19.6C19.6 4.80264 16.1974 1.4 12 1.4V2.6ZM5.6 9C5.6 5.46538 8.46538 2.6 12 2.6V1.4C7.80264 1.4 4.4 4.80264 4.4 9H5.6ZM11.8782 17.2713C11.1637 16.9007 9.57422 15.9876 8.17097 14.5722C6.76717 13.1563 5.6 11.2907 5.6 9H4.4C4.4 11.7256 5.79235 13.8774 7.31879 15.4171C8.8458 16.9573 10.5573 17.938 11.3257 18.3366L11.8782 17.2713ZM12.1218 17.2713C12.0421 17.3127 11.9579 17.3127 11.8782 17.2713L11.3257 18.3366C11.7518 18.5576 12.2482 18.5576 12.6743 18.3366L12.1218 17.2713ZM14.4 9C14.4 10.3255 13.3255 11.4 12 11.4V12.6C13.9882 12.6 15.6 10.9882 15.6 9H14.4ZM12 6.6C13.3255 6.6 14.4 7.67452 14.4 9H15.6C15.6 7.01178 13.9882 5.4 12 5.4V6.6ZM9.6 9C9.6 7.67452 10.6745 6.6 12 6.6V5.4C10.0118 5.4 8.4 7.01178 8.4 9H9.6ZM12 11.4C10.6745 11.4 9.6 10.3255 9.6 9H8.4C8.4 10.9882 10.0118 12.6 12 12.6V11.4Z" fill="#222222"/>
<path d="M19.7942 17.5C20.5841 17.9561 21 18.4734 21 19C21 19.5266 20.5841 20.0439 19.7942 20.5C19.0043 20.9561 17.8682 21.3348 16.5 21.5981C15.1318 21.8614 13.5798 22 12 22C10.4202 22 8.86817 21.8614 7.5 21.5981C6.13183 21.3348 4.99569 20.9561 4.20577 20.5C3.41586 20.0439 3 19.5266 3 19C3 18.4734 3.41586 17.9561 4.20577 17.5" stroke="#222222" stroke-width="1.2" stroke-linecap="round"/>
</svg>
