<svg width="24" height="24" viewBox="0 0 24 24" fill="none" xmlns="http://www.w3.org/2000/svg">
<path fill-rule="evenodd" clip-rule="evenodd" d="M8.51663 4.79613C5.84337 6.09112 3.99994 8.83028 3.99994 12C3.99994 12.1969 4.00705 12.3921 4.02104 12.5855L10.1628 10.9398L8.51663 4.79613ZM11.4148 4.02107L13.19 10.6463L13.2017 10.6897C13.2517 10.8754 13.3222 11.1373 13.3531 11.3775C13.3921 11.6802 13.4013 12.159 13.1196 12.6469C12.8379 13.1348 12.4187 13.3662 12.137 13.4838C11.9136 13.5771 11.6515 13.647 11.4656 13.6965L11.4222 13.7081L4.7962 15.4836C6.09124 18.1567 8.83033 20 11.9999 20C16.4182 20 19.9999 16.4183 19.9999 12C19.9999 7.58172 16.4182 4 11.9999 4C11.8031 4 11.608 4.00711 11.4148 4.02107Z" fill="#222222"/>
<path d="M9.92945 4.27259C9.67849 3.33602 9.55302 2.86773 9.12083 2.67286C8.68865 2.47799 8.30723 2.66782 7.54439 3.04748C6.97028 3.33321 6.42361 3.67419 5.91239 4.06647C4.87054 4.8659 3.99636 5.86272 3.33975 7C2.68314 8.13728 2.25696 9.39275 2.08555 10.6947C2.00144 11.3336 1.97948 11.9775 2.01909 12.6176C2.07171 13.4681 2.09803 13.8933 2.48288 14.1701C2.86773 14.447 3.33602 14.3215 4.27259 14.0706L10.0681 12.5176C10.9788 12.2736 11.4342 12.1516 11.6413 11.7929C11.8484 11.4342 11.7264 10.9788 11.4824 10.0681L9.92945 4.27259Z" fill="#222222"/>
</svg>
