<svg width="24" height="24" viewBox="0 0 24 24" fill="none" xmlns="http://www.w3.org/2000/svg">
<path d="M16.5001 12C16.2239 12 16.0001 12.2239 16.0001 12.5C16.0001 12.7761 16.2239 13 16.5001 13V12ZM14.9323 13.0677L15.2859 13.4213L14.9323 13.0677ZM12.1346 13.1345L11.781 13.4881L12.1346 13.1345ZM21.0001 7.5C21.0001 9.98528 18.9853 12 16.5001 12V13C19.5376 13 22.0001 10.5376 22.0001 7.5H21.0001ZM16.5001 3C18.9853 3 21.0001 5.01472 21.0001 7.5H22.0001C22.0001 4.46243 19.5376 2 16.5001 2V3ZM12.0001 7.5C12.0001 5.01472 14.0148 3 16.5001 3V2C13.4625 2 11.0001 4.46243 11.0001 7.5H12.0001ZM11.2191 9.48808L11.2859 9.42128L10.5788 8.71417L10.512 8.78097L11.2191 9.48808ZM12.4881 12.781L11.2191 11.5119L10.512 12.219L11.781 13.4881L12.4881 12.781ZM14.5788 12.7142L14.512 12.781L15.2191 13.4881L15.2859 13.4213L14.5788 12.7142ZM15.2859 13.4213C15.5688 13.1384 16.0041 13 16.5001 13V12C15.8425 12 15.1116 12.1814 14.5788 12.7142L15.2859 13.4213ZM11.781 13.4881C12.7304 14.4375 14.2697 14.4375 15.2191 13.4881L14.512 12.781C13.9531 13.3398 13.047 13.3398 12.4881 12.781L11.781 13.4881ZM10.512 8.78097C9.56258 9.73036 9.56258 11.2696 10.512 12.219L11.2191 11.5119C10.6602 10.9531 10.6602 10.0469 11.2191 9.48808L10.512 8.78097ZM11.0001 7.5C11.0001 7.99595 10.8617 8.43129 10.5788 8.71417L11.2859 9.42128C11.8187 8.8885 12.0001 8.15758 12.0001 7.5H11.0001Z" fill="#33363F"/>
<path d="M10.5 11.5L10.8536 11.1464C10.6583 10.9512 10.3417 10.9512 10.1464 11.1464L10.5 11.5ZM6.5 15.5L6.14645 15.1464C6.11754 15.1754 6.09229 15.2077 6.07125 15.2428L6.5 15.5ZM8.5 17.5L8.75725 17.9287C8.7923 17.9077 8.82465 17.8825 8.85355 17.8536L8.5 17.5ZM12.5 13.5L12.8536 13.8536C13.0488 13.6583 13.0488 13.3417 12.8536 13.1464L12.5 13.5ZM10.1464 11.1464L6.14645 15.1464L6.85355 15.8536L10.8536 11.8536L10.1464 11.1464ZM8.85355 17.8536L12.8536 13.8536L12.1464 13.1464L8.14645 17.1464L8.85355 17.8536ZM12.8536 13.1464L10.8536 11.1464L10.1464 11.8536L12.1464 13.8536L12.8536 13.1464ZM6.07125 15.2428L4.75202 17.4415L5.60951 17.956L6.92875 15.7572L6.07125 15.2428ZM4.89489 18.602L5.39801 19.1051L6.10511 18.398L5.60199 17.8949L4.89489 18.602ZM6.55853 19.248L8.75725 17.9287L8.24275 17.0713L6.04403 18.3905L6.55853 19.248ZM5.39801 19.1051C5.70625 19.4134 6.18473 19.4723 6.55853 19.248L6.04403 18.3905C6.06371 18.3787 6.08889 18.3818 6.10511 18.398L5.39801 19.1051ZM4.75202 17.4415C4.52774 17.8153 4.58664 18.2937 4.89489 18.602L5.60199 17.8949C5.61822 17.9111 5.62132 17.9363 5.60951 17.956L4.75202 17.4415Z" fill="#33363F"/>
<path d="M13.5 7.5C13.5 6.70435 13.8161 5.94129 14.3787 5.37868C14.9413 4.81607 15.7044 4.5 16.5 4.5" stroke="#222222" stroke-linecap="round" stroke-linejoin="round"/>
</svg>
