<svg width="24" height="24" viewBox="0 0 24 24" fill="none" xmlns="http://www.w3.org/2000/svg">
<path fill-rule="evenodd" clip-rule="evenodd" d="M5.81702 16.2453C6.11379 16.6776 6.45649 17.0796 6.84073 17.4438C7.89279 18.441 9.21126 19.1119 10.6366 19.3754C12.062 19.6389 13.5332 19.4837 14.8722 18.9286C16.2113 18.3735 17.3607 17.4423 18.1816 16.2476C19.0025 15.0529 19.4595 13.6459 19.4975 12.1969C19.5355 10.7479 19.1528 9.31888 18.3956 8.08282C17.6385 6.84675 16.5394 5.85658 15.2313 5.23209C14.3961 4.83339 13.4986 4.59466 12.5848 4.52319L12.862 5.55777C13.5308 5.64725 14.1852 5.8408 14.8004 6.13453C15.9341 6.67575 16.8867 7.5339 17.5429 8.60516C18.1991 9.67641 18.5308 10.9149 18.4979 12.1707C18.4649 13.4265 18.0688 14.6459 17.3574 15.6813C16.646 16.7167 15.6498 17.5238 14.4893 18.0049C13.3288 18.486 12.0538 18.6204 10.8184 18.3921C9.5831 18.1637 8.44043 17.5822 7.52865 16.718C7.28283 16.485 7.05664 16.2342 6.85159 15.9681L5.81702 16.2453Z" fill="#222222"/>
<path d="M5.91239 4.06647C6.68924 3.47037 7.54796 2.99272 8.46042 2.64739C8.87978 2.48868 9.08946 2.40932 9.28694 2.51053C9.48442 2.61174 9.54649 2.84338 9.67063 3.30667L11.7412 11.0341C11.8632 11.4894 11.9242 11.7171 11.8206 11.8964C11.7171 12.0758 11.4894 12.1368 11.0341 12.2588L3.30667 14.3294C2.84338 14.4535 2.61174 14.5156 2.42535 14.3952C2.23896 14.2747 2.20284 14.0535 2.13061 13.6109C1.97344 12.6481 1.95774 11.6656 2.08555 10.6947C2.25696 9.39275 2.68314 8.13728 3.33975 7C3.99636 5.86272 4.87054 4.8659 5.91239 4.06647Z" stroke="#222222"/>
</svg>
