<svg width="24" height="24" viewBox="0 0 24 24" fill="none" xmlns="http://www.w3.org/2000/svg">
<path d="M13 4C13 3.44772 12.5523 3 12 3C11.4477 3 11 3.44772 11 4H13ZM11 4V5H13V4H11Z" fill="#33363F"/>
<path d="M13 20C13 20.5523 12.5523 21 12 21C11.4477 21 11 20.5523 11 20H13ZM11 20V15H13V20H11Z" fill="#33363F"/>
<path d="M11 9V11H13V9H11Z" fill="#33363F"/>
<path d="M16 12.6C16 12.0399 16 11.7599 15.891 11.546C15.7951 11.3578 15.6422 11.2049 15.454 11.109C15.2401 11 14.9601 11 14.4 11H6.66274C6.41815 11 6.29586 11 6.18077 11.0276C6.07873 11.0521 5.98119 11.0925 5.89172 11.1474C5.7908 11.2092 5.70432 11.2957 5.53137 11.4686L5.13137 11.8686C4.73535 12.2646 4.53735 12.4627 4.46316 12.691C4.3979 12.8918 4.3979 13.1082 4.46316 13.309C4.53735 13.5373 4.73535 13.7354 5.13137 14.1314L5.53137 14.5314C5.70432 14.7043 5.7908 14.7908 5.89172 14.8526C5.98119 14.9075 6.07873 14.9479 6.18077 14.9724C6.29586 15 6.41815 15 6.66274 15H14.4C14.9601 15 15.2401 15 15.454 14.891C15.6422 14.7951 15.7951 14.6422 15.891 14.454C16 14.2401 16 13.9601 16 13.4V12.6Z" fill="#33363F"/>
<path d="M7 6.6C7 6.03995 7 5.75992 7.10899 5.54601C7.20487 5.35785 7.35785 5.20487 7.54601 5.10899C7.75992 5 8.03995 5 8.6 5H16.3373C16.5818 5 16.7041 5 16.8192 5.02763C16.9213 5.05213 17.0188 5.09253 17.1083 5.14736C17.2092 5.2092 17.2957 5.29568 17.4686 5.46863L17.8686 5.86863C18.2646 6.26465 18.4627 6.46265 18.5368 6.69098C18.6021 6.89183 18.6021 7.10817 18.5368 7.30902C18.4627 7.53735 18.2646 7.73535 17.8686 8.13137L17.4686 8.53137C17.2957 8.70432 17.2092 8.7908 17.1083 8.85264C17.0188 8.90747 16.9213 8.94787 16.8192 8.97237C16.7041 9 16.5818 9 16.3373 9H8.6C8.03995 9 7.75992 9 7.54601 8.89101C7.35785 8.79513 7.20487 8.64215 7.10899 8.45399C7 8.24008 7 7.96005 7 7.4V6.6Z" fill="#33363F"/>
</svg>
