<svg width="24" height="24" viewBox="0 0 24 24" fill="none" xmlns="http://www.w3.org/2000/svg">
<path d="M13 3C13 2.44772 12.5523 2 12 2C11.4477 2 11 2.44772 11 3H13ZM11 5C11 5.55228 11.4477 6 12 6C12.5523 6 13 5.55228 13 5H11ZM11 3V5H13V3H11Z" fill="#33363F"/>
<path d="M13 10.5C13 9.94772 12.5523 9.5 12 9.5C11.4477 9.5 11 9.94772 11 10.5H13ZM11 12.5C11 13.0523 11.4477 13.5 12 13.5C12.5523 13.5 13 13.0523 13 12.5H11ZM11 10.5V12.5H13V10.5H11Z" fill="#33363F"/>
<path d="M13 18C13 17.4477 12.5523 17 12 17C11.4477 17 11 17.4477 11 18H13ZM11 21C11 21.5523 11.4477 22 12 22C12.5523 22 13 21.5523 13 21H11ZM11 18V21H13V18H11Z" fill="#33363F"/>
<path d="M17 14.6C17 14.0399 17 13.7599 16.891 13.546C16.7951 13.3578 16.6422 13.2049 16.454 13.109C16.2401 13 15.9601 13 15.4 13H5.769C5.4866 13 5.3454 13 5.21503 13.0359C5.09954 13.0677 4.99071 13.12 4.89371 13.1903C4.78423 13.2697 4.69602 13.38 4.51961 13.6005L3.79961 14.5005C3.51424 14.8572 3.37155 15.0356 3.31683 15.2334C3.26856 15.4078 3.26856 15.5922 3.31683 15.7666C3.37155 15.9644 3.51424 16.1428 3.79961 16.4995L4.51961 17.3995C4.69602 17.62 4.78423 17.7303 4.89371 17.8097C4.99071 17.88 5.09954 17.9323 5.21503 17.9641C5.3454 18 5.4866 18 5.769 18H15.4C15.9601 18 16.2401 18 16.454 17.891C16.6422 17.7951 16.7951 17.6422 16.891 17.454C17 17.2401 17 16.9601 17 16.4V14.6Z" stroke="#33363F" stroke-width="2"/>
<path d="M7 6.6C7 6.03995 7 5.75992 7.10899 5.54601C7.20487 5.35785 7.35785 5.20487 7.54601 5.10899C7.75992 5 8.03995 5 8.6 5H18.231C18.5134 5 18.6546 5 18.785 5.03591C18.9005 5.06773 19.0093 5.12004 19.1063 5.19035C19.2158 5.26971 19.304 5.37997 19.4804 5.60049L20.2004 6.50049C20.4858 6.85721 20.6285 7.03557 20.6832 7.23337C20.7314 7.40785 20.7314 7.59215 20.6832 7.76663C20.6285 7.96443 20.4858 8.14279 20.2004 8.49951L19.4804 9.39951C19.304 9.62003 19.2158 9.73029 19.1063 9.80965C19.0093 9.87996 18.9005 9.93227 18.785 9.96409C18.6546 10 18.5134 10 18.231 10H8.6C8.03995 10 7.75992 10 7.54601 9.89101C7.35785 9.79513 7.20487 9.64215 7.10899 9.45399C7 9.24008 7 8.96005 7 8.4V6.6Z" stroke="#33363F" stroke-width="2"/>
</svg>
