<svg width="24" height="24" viewBox="0 0 24 24" fill="none" xmlns="http://www.w3.org/2000/svg">
<path d="M12 2.5V4.5" stroke="#2A4157" stroke-opacity="0.24" stroke-linecap="round"/>
<path d="M12 9.5V11.5" stroke="#2A4157" stroke-opacity="0.24" stroke-linecap="round"/>
<path d="M12 16.5V21.5" stroke="#2A4157" stroke-opacity="0.24" stroke-linecap="round"/>
<path d="M6.5 6.1C6.5 5.53995 6.5 5.25992 6.60899 5.04601C6.70487 4.85785 6.85785 4.70487 7.04601 4.60899C7.25992 4.5 7.53995 4.5 8.1 4.5H17.731C18.0134 4.5 18.1546 4.5 18.285 4.53591C18.4005 4.56773 18.5093 4.62004 18.6063 4.69035C18.7158 4.76971 18.804 4.87997 18.9804 5.10049L19.7004 6.00049C19.9858 6.35721 20.1285 6.53557 20.1832 6.73337C20.2314 6.90785 20.2314 7.09215 20.1832 7.26663C20.1285 7.46443 19.9858 7.64279 19.7004 7.99951L18.9804 8.89951C18.804 9.12003 18.7158 9.23029 18.6063 9.30965C18.5093 9.37996 18.4005 9.43227 18.285 9.46409C18.1546 9.5 18.0134 9.5 17.731 9.5H8.1C7.53995 9.5 7.25992 9.5 7.04601 9.39101C6.85785 9.29513 6.70487 9.14215 6.60899 8.95399C6.5 8.74008 6.5 8.46005 6.5 7.9V6.1Z" stroke="#222222"/>
<path d="M17.5 13.1C17.5 12.5399 17.5 12.2599 17.391 12.046C17.2951 11.8578 17.1422 11.7049 16.954 11.609C16.7401 11.5 16.4601 11.5 15.9 11.5H6.269C5.9866 11.5 5.8454 11.5 5.71503 11.5359C5.59954 11.5677 5.49071 11.62 5.39371 11.6903C5.28423 11.7697 5.19602 11.88 5.01961 12.1005L4.29961 13.0005C4.01424 13.3572 3.87155 13.5356 3.81683 13.7334C3.76856 13.9078 3.76856 14.0922 3.81683 14.2666C3.87155 14.4644 4.01424 14.6428 4.29961 14.9995L5.01961 15.8995C5.19602 16.12 5.28423 16.2303 5.39371 16.3097C5.49071 16.38 5.59954 16.4323 5.71503 16.4641C5.8454 16.5 5.9866 16.5 6.269 16.5H15.9C16.4601 16.5 16.7401 16.5 16.954 16.391C17.1422 16.2951 17.2951 16.1422 17.391 15.954C17.5 15.7401 17.5 15.4601 17.5 14.9V13.1Z" stroke="#222222"/>
</svg>
