<svg width="24" height="24" viewBox="0 0 24 24" fill="none" xmlns="http://www.w3.org/2000/svg">
<path d="M18 6H6C4.11438 6 3.17157 6 2.58579 6.58579C2 7.17157 2 8.11438 2 10V13C2 13.4714 2 13.7071 2.14645 13.8536C2.29289 14 2.5286 14 3 14H7.7C7.84142 14 7.91213 14 7.95607 13.9561C8 13.9121 8 13.8414 8 13.7V13.5C8 12.5572 8 12.0858 8.29289 11.7929C8.58579 11.5 9.05719 11.5 10 11.5H14C14.9428 11.5 15.4142 11.5 15.7071 11.7929C16 12.0858 16 12.5572 16 13.5V13.7C16 13.8414 16 13.9121 16.0439 13.9561C16.0879 14 16.1586 14 16.3 14H20C20.9428 14 21.4142 14 21.7071 13.7071C22 13.4142 22 12.9428 22 12V10C22 8.11438 22 7.17157 21.4142 6.58579C20.8284 6 19.8856 6 18 6Z" fill="#222222"/>
<path d="M7 3.73913C7 3.04725 7 2.70131 7.16382 2.45155C7.23899 2.33693 7.33693 2.23899 7.45155 2.16382C7.70131 2 8.04725 2 8.73913 2H15.2609C15.9528 2 16.2987 2 16.5485 2.16382C16.6631 2.23899 16.761 2.33693 16.8362 2.45155C17 2.70131 17 3.04725 17 3.73913C17 3.84291 17 3.8948 16.9754 3.93227C16.9642 3.94946 16.9495 3.96415 16.9323 3.97543C16.8948 4 16.8429 4 16.7391 4H7.26087C7.15709 4 7.1052 4 7.06773 3.97543C7.05054 3.96415 7.03585 3.94946 7.02457 3.93227C7 3.8948 7 3.84291 7 3.73913Z" fill="#222222"/>
<path fill-rule="evenodd" clip-rule="evenodd" d="M5 20.3371V13C5 12.0572 5 11.5858 5.29289 11.2929C5.58579 11 6.05719 11 7 11L17 11H17C17.9428 11 18.4142 11 18.7071 11.2929C19 11.5858 19 12.0572 19 13V20.3371C19 20.6411 19 20.7931 18.9005 20.8682C18.8011 20.9432 18.655 20.9014 18.3627 20.8179L18.3626 20.8179L18.3626 20.8179L15.6374 20.0392C15.5691 20.0197 15.535 20.01 15.5 20.01C15.465 20.01 15.4309 20.0197 15.3626 20.0392L12.1374 20.9608C12.0691 20.9802 12.035 20.99 12 20.99C11.965 20.99 11.9309 20.9802 11.8626 20.9608L8.63736 20.0392C8.56913 20.0197 8.53501 20.01 8.5 20.01C8.46499 20.01 8.43087 20.0197 8.36264 20.0392L5.63736 20.8179L5.63735 20.8179L5.63734 20.8179C5.34505 20.9014 5.1989 20.9432 5.09945 20.8682C5 20.7931 5 20.6411 5 20.3371ZM9 14C9 13.4477 9.44772 13 10 13L13 13C13.5523 13 14 13.4477 14 14C14 14.5523 13.5523 15 13 15L10 15C9.44772 15 9 14.5523 9 14ZM10 16C9.44772 16 9 16.4477 9 17C9 17.5523 9.44772 18 10 18L14.5 18C15.0523 18 15.5 17.5523 15.5 17C15.5 16.4477 15.0523 16 14.5 16L10 16Z" fill="#222222"/>
</svg>
