<svg width="24" height="24" viewBox="0 0 24 24" fill="none" xmlns="http://www.w3.org/2000/svg">
<path d="M11.5 6C11.5 6.27614 11.7239 6.5 12 6.5C12.2761 6.5 12.5 6.27614 12.5 6L11.5 6ZM12.5 3C12.5 2.72386 12.2761 2.5 12 2.5C11.7239 2.5 11.5 2.72386 11.5 3L12.5 3ZM12.5 6L12.5 3L11.5 3L11.5 6L12.5 6Z" fill="#222222"/>
<path d="M11.5 21C11.5 21.2761 11.7239 21.5 12 21.5C12.2761 21.5 12.5 21.2761 12.5 21L11.5 21ZM12.5 19C12.5 18.7239 12.2761 18.5 12 18.5C11.7239 18.5 11.5 18.7239 11.5 19L12.5 19ZM12.5 21L12.5 19L11.5 19L11.5 21L12.5 21Z" fill="#222222"/>
<path d="M19 11.5C18.7239 11.5 18.5 11.7239 18.5 12C18.5 12.2761 18.7239 12.5 19 12.5L19 11.5ZM21 12.5C21.2761 12.5 21.5 12.2761 21.5 12C21.5 11.7239 21.2761 11.5 21 11.5L21 12.5ZM19 12.5L21 12.5L21 11.5L19 11.5L19 12.5Z" fill="#222222"/>
<path d="M3 11.5C2.72386 11.5 2.5 11.7239 2.5 12C2.5 12.2761 2.72386 12.5 3 12.5L3 11.5ZM6 12.5C6.27614 12.5 6.5 12.2761 6.5 12C6.5 11.7239 6.27614 11.5 6 11.5L6 12.5ZM3 12.5L6 12.5L6 11.5L3 11.5L3 12.5Z" fill="#222222"/>
<path d="M17.3033 5.98959C17.108 6.18485 17.108 6.50143 17.3033 6.69669C17.4986 6.89196 17.8152 6.89196 18.0104 6.69669L17.3033 5.98959ZM18.7175 5.98959C18.9128 5.79432 18.9128 5.47774 18.7175 5.28248C18.5223 5.08722 18.2057 5.08722 18.0104 5.28248L18.7175 5.98959ZM18.0104 6.69669L18.7175 5.98959L18.0104 5.28248L17.3033 5.98959L18.0104 6.69669Z" fill="#222222"/>
<path d="M5.28246 18.0103C5.0872 18.2056 5.0872 18.5222 5.28246 18.7174C5.47773 18.9127 5.79431 18.9127 5.98957 18.7174L5.28246 18.0103ZM7.40378 17.3032C7.59905 17.108 7.59905 16.7914 7.40378 16.5961C7.20852 16.4009 6.89194 16.4009 6.69668 16.5961L7.40378 17.3032ZM5.98957 18.7174L7.40378 17.3032L6.69668 16.5961L5.28246 18.0103L5.98957 18.7174Z" fill="#222222"/>
<path d="M17.3033 16.5963C17.1081 16.401 16.7915 16.401 16.5962 16.5963C16.401 16.7915 16.401 17.1081 16.5962 17.3034L17.3033 16.5963ZM18.0104 18.7176C18.2057 18.9129 18.5223 18.9129 18.7175 18.7176C18.9128 18.5223 18.9128 18.2058 18.7175 18.0105L18.0104 18.7176ZM16.5962 17.3034L18.0104 18.7176L18.7175 18.0105L17.3033 16.5963L16.5962 17.3034Z" fill="#222222"/>
<path d="M5.98963 5.28256C5.79437 5.08729 5.47779 5.08729 5.28252 5.28255C5.08726 5.47782 5.08726 5.7944 5.28252 5.98966L5.98963 5.28256ZM7.40384 8.11098C7.59911 8.30624 7.91569 8.30624 8.11095 8.11098C8.30621 7.91572 8.30621 7.59914 8.11095 7.40388L7.40384 8.11098ZM5.28252 5.98966L7.40384 8.11098L8.11095 7.40388L5.98963 5.28256L5.28252 5.98966Z" fill="#222222"/>
</svg>
