<svg width="24" height="24" viewBox="0 0 24 24" fill="none" xmlns="http://www.w3.org/2000/svg">
<path d="M11 6C11 6.55228 11.4477 7 12 7C12.5523 7 13 6.55228 13 6L11 6ZM13 3C13 2.44772 12.5523 2 12 2C11.4477 2 11 2.44772 11 3L13 3ZM13 6L13 3L11 3L11 6L13 6Z" fill="#33363F"/>
<path d="M11 21C11 21.5523 11.4477 22 12 22C12.5523 22 13 21.5523 13 21L11 21ZM13 19C13 18.4477 12.5523 18 12 18C11.4477 18 11 18.4477 11 19L13 19ZM13 21L13 19L11 19L11 21L13 21Z" fill="#33363F"/>
<path d="M19 11C18.4477 11 18 11.4477 18 12C18 12.5523 18.4477 13 19 13L19 11ZM21 13C21.5523 13 22 12.5523 22 12C22 11.4477 21.5523 11 21 11L21 13ZM19 13L21 13L21 11L19 11L19 13Z" fill="#33363F"/>
<path d="M3 11C2.44772 11 2 11.4477 2 12C2 12.5523 2.44772 13 3 13L3 11ZM6 13C6.55228 13 7 12.5523 7 12C7 11.4477 6.55228 11 6 11L6 13ZM3 13L6 13L6 11L3 11L3 13Z" fill="#33363F"/>
<path d="M16.9498 5.63603C16.5592 6.02656 16.5592 6.65972 16.9498 7.05025C17.3403 7.44077 17.9734 7.44077 18.364 7.05025L16.9498 5.63603ZM19.0711 6.34314C19.4616 5.95262 19.4616 5.31945 19.0711 4.92893C18.6805 4.5384 18.0474 4.5384 17.6569 4.92893L19.0711 6.34314ZM18.364 7.05025L19.0711 6.34314L17.6569 4.92893L16.9498 5.63603L18.364 7.05025Z" fill="#33363F"/>
<path d="M4.92891 17.6568C4.53839 18.0473 4.53839 18.6805 4.92891 19.071C5.31943 19.4615 5.9526 19.4615 6.34312 19.071L4.92891 17.6568ZM7.75734 17.6568C8.14786 17.2663 8.14786 16.6331 7.75734 16.2426C7.36681 15.852 6.73365 15.852 6.34312 16.2426L7.75734 17.6568ZM6.34312 19.071L7.75734 17.6568L6.34312 16.2426L4.92891 17.6568L6.34312 19.071Z" fill="#33363F"/>
<path d="M17.6568 16.2427C17.2663 15.8522 16.6332 15.8522 16.2426 16.2427C15.8521 16.6332 15.8521 17.2664 16.2426 17.6569L17.6568 16.2427ZM17.6568 19.0711C18.0474 19.4617 18.6805 19.4617 19.0711 19.0711C19.4616 18.6806 19.4616 18.0475 19.0711 17.6569L17.6568 19.0711ZM16.2426 17.6569L17.6568 19.0711L19.0711 17.6569L17.6568 16.2427L16.2426 17.6569Z" fill="#33363F"/>
<path d="M6.34315 4.929C5.95263 4.53848 5.31947 4.53848 4.92894 4.929C4.53842 5.31953 4.53842 5.95269 4.92894 6.34322L6.34315 4.929ZM7.05026 8.46454C7.44078 8.85506 8.07395 8.85506 8.46447 8.46454C8.855 8.07401 8.855 7.44085 8.46447 7.05032L7.05026 8.46454ZM4.92894 6.34322L7.05026 8.46454L8.46447 7.05032L6.34315 4.929L4.92894 6.34322Z" fill="#33363F"/>
</svg>
