<svg width="24" height="24" viewBox="0 0 24 24" fill="none" xmlns="http://www.w3.org/2000/svg">
<path d="M15 15V14H14V15H15ZM20.2929 21.7071C20.6834 22.0976 21.3166 22.0976 21.7071 21.7071C22.0976 21.3166 22.0976 20.6834 21.7071 20.2929L20.2929 21.7071ZM15 9H14V10H15V9ZM21.7071 3.70711C22.0976 3.31658 22.0976 2.68342 21.7071 2.29289C21.3166 1.90237 20.6834 1.90237 20.2929 2.29289L21.7071 3.70711ZM9 15H10V14H9V15ZM2.29289 20.2929C1.90237 20.6834 1.90237 21.3166 2.29289 21.7071C2.68342 22.0976 3.31658 22.0976 3.70711 21.7071L2.29289 20.2929ZM9 9V10H10V9H9ZM3.70711 2.29289C3.31658 1.90237 2.68342 1.90237 2.29289 2.29289C1.90237 2.68342 1.90237 3.31658 2.29289 3.70711L3.70711 2.29289ZM16 20V15H14V20H16ZM15 16H20V14H15V16ZM14.2929 15.7071L20.2929 21.7071L21.7071 20.2929L15.7071 14.2929L14.2929 15.7071ZM14 4V9H16V4H14ZM15 10H20V8H15V10ZM15.7071 9.70711L21.7071 3.70711L20.2929 2.29289L14.2929 8.29289L15.7071 9.70711ZM10 20V15H8V20H10ZM9 14H4V16H9V14ZM8.29289 14.2929L2.29289 20.2929L3.70711 21.7071L9.70711 15.7071L8.29289 14.2929ZM8 4V9H10V4H8ZM9 8H4V10H9V8ZM9.70711 8.29289L3.70711 2.29289L2.29289 3.70711L8.29289 9.70711L9.70711 8.29289Z" fill="#33363F"/>
</svg>
