<svg width="24" height="24" viewBox="0 0 24 24" fill="none" xmlns="http://www.w3.org/2000/svg">
<path d="M8 4L8.35355 3.64645L8 3.29289L7.64645 3.64645L8 4ZM19.5 9C19.5 8.72386 19.2761 8.5 19 8.5C18.7239 8.5 18.5 8.72386 18.5 9L19.5 9ZM13.3536 8.64645L8.35355 3.64645L7.64645 4.35355L12.6464 9.35355L13.3536 8.64645ZM7.64645 3.64645L2.64645 8.64645L3.35355 9.35355L8.35355 4.35355L7.64645 3.64645ZM7.5 4L7.5 14.5L8.5 14.5L8.5 4L7.5 4ZM19.5 14.5L19.5 9L18.5 9L18.5 14.5L19.5 14.5ZM13.5 20.5C16.8137 20.5 19.5 17.8137 19.5 14.5L18.5 14.5C18.5 17.2614 16.2614 19.5 13.5 19.5L13.5 20.5ZM7.5 14.5C7.5 17.8137 10.1863 20.5 13.5 20.5L13.5 19.5C10.7386 19.5 8.5 17.2614 8.5 14.5L7.5 14.5Z" fill="#222222"/>
</svg>
