<svg width="24" height="24" viewBox="0 0 24 24" fill="none" xmlns="http://www.w3.org/2000/svg">
<path d="M8 4L8.70711 3.29289L8 2.58579L7.29289 3.29289L8 4ZM20 9C20 8.44772 19.5523 8 19 8C18.4477 8 18 8.44772 18 9L20 9ZM13.7071 8.29289L8.70711 3.29289L7.29289 4.70711L12.2929 9.70711L13.7071 8.29289ZM7.29289 3.29289L2.29289 8.29289L3.70711 9.70711L8.70711 4.70711L7.29289 3.29289ZM7 4L7 14.5L9 14.5L9 4L7 4ZM20 14.5L20 9L18 9L18 14.5L20 14.5ZM13.5 21C17.0899 21 20 18.0898 20 14.5L18 14.5C18 16.9853 15.9853 19 13.5 19L13.5 21ZM7 14.5C7 18.0899 9.91015 21 13.5 21L13.5 19C11.0147 19 9 16.9853 9 14.5L7 14.5Z" fill="#33363F"/>
</svg>
