<svg width="24" height="24" viewBox="0 0 24 24" fill="none" xmlns="http://www.w3.org/2000/svg">
<path d="M20 8L20.7071 8.70711L21.4142 8L20.7071 7.29289L20 8ZM15 20C15.5523 20 16 19.5523 16 19C16 18.4477 15.5523 18 15 18L15 20ZM15.7071 13.7071L20.7071 8.70711L19.2929 7.29289L14.2929 12.2929L15.7071 13.7071ZM20.7071 7.29289L15.7071 2.29289L14.2929 3.70711L19.2929 8.70711L20.7071 7.29289ZM20 7L9.5 7L9.5 9L20 9L20 7ZM9.5 20L15 20L15 18L9.5 18L9.5 20ZM3 13.5C3 17.0898 5.91015 20 9.5 20L9.5 18C7.01472 18 5 15.9853 5 13.5L3 13.5ZM9.5 7C5.91015 7 3 9.91015 3 13.5L5 13.5C5 11.0147 7.01472 9 9.5 9L9.5 7Z" fill="#33363F"/>
</svg>
