<svg width="24" height="24" viewBox="0 0 24 24" fill="none" xmlns="http://www.w3.org/2000/svg">
<path d="M16 20L15.6464 20.3536L16 20.7071L16.3536 20.3536L16 20ZM4.5 15C4.5 15.2761 4.72386 15.5 5 15.5C5.27614 15.5 5.5 15.2761 5.5 15L4.5 15ZM10.6464 15.3536L15.6464 20.3536L16.3536 19.6464L11.3536 14.6464L10.6464 15.3536ZM16.3536 20.3536L21.3536 15.3536L20.6464 14.6464L15.6464 19.6464L16.3536 20.3536ZM16.5 20L16.5 9.5L15.5 9.5L15.5 20L16.5 20ZM4.5 9.5L4.5 15L5.5 15L5.5 9.5L4.5 9.5ZM10.5 3.5C7.18629 3.5 4.5 6.18629 4.5 9.5L5.5 9.5C5.5 6.73858 7.73858 4.5 10.5 4.5L10.5 3.5ZM16.5 9.5C16.5 6.18629 13.8137 3.5 10.5 3.5L10.5 4.5C13.2614 4.5 15.5 6.73858 15.5 9.5L16.5 9.5Z" fill="#222222"/>
</svg>
