<svg width="24" height="24" viewBox="0 0 24 24" fill="none" xmlns="http://www.w3.org/2000/svg">
<path d="M20 8L20.3536 8.35355L20.7071 8L20.3536 7.64645L20 8ZM15 19.5C15.2761 19.5 15.5 19.2761 15.5 19C15.5 18.7239 15.2761 18.5 15 18.5L15 19.5ZM15.3536 13.3536L20.3536 8.35355L19.6464 7.64645L14.6464 12.6464L15.3536 13.3536ZM20.3536 7.64645L15.3536 2.64645L14.6464 3.35355L19.6464 8.35355L20.3536 7.64645ZM20 7.5L9.5 7.5L9.5 8.5L20 8.5L20 7.5ZM9.5 19.5L15 19.5L15 18.5L9.5 18.5L9.5 19.5ZM3.5 13.5C3.5 16.8137 6.18629 19.5 9.5 19.5L9.5 18.5C6.73858 18.5 4.5 16.2614 4.5 13.5L3.5 13.5ZM9.5 7.5C6.18629 7.5 3.5 10.1863 3.5 13.5L4.5 13.5C4.5 10.7386 6.73858 8.5 9.5 8.5L9.5 7.5Z" fill="#222222"/>
</svg>
