<svg width="24" height="24" viewBox="0 0 24 24" fill="none" xmlns="http://www.w3.org/2000/svg">
<path d="M18 20L17.6464 20.3536L18 20.7071L18.3536 20.3536L18 20ZM13 4.5C12.7239 4.5 12.5 4.72386 12.5 5C12.5 5.27614 12.7239 5.5 13 5.5L13 4.5ZM13.6464 16.3536L17.6464 20.3536L18.3536 19.6464L14.3536 15.6464L13.6464 16.3536ZM18.3536 20.3536L22.3536 16.3536L21.6464 15.6464L17.6464 19.6464L18.3536 20.3536ZM18.5 20L18.5 9L17.5 9L17.5 20L18.5 20ZM14 4.5L13 4.5L13 5.5L14 5.5L14 4.5ZM18.5 9C18.5 6.51472 16.4853 4.5 14 4.5L14 5.5C15.933 5.5 17.5 7.067 17.5 9L18.5 9Z" fill="#222222"/>
<path d="M6 4L6.35355 3.64645L6 3.29289L5.64645 3.64645L6 4ZM11 19.5C11.2761 19.5 11.5 19.2761 11.5 19C11.5 18.7239 11.2761 18.5 11 18.5L11 19.5ZM10.3536 7.64645L6.35355 3.64645L5.64645 4.35355L9.64645 8.35355L10.3536 7.64645ZM5.64645 3.64645L1.64645 7.64645L2.35355 8.35355L6.35355 4.35355L5.64645 3.64645ZM5.5 4L5.5 15L6.5 15L6.5 4L5.5 4ZM10 19.5L11 19.5L11 18.5L10 18.5L10 19.5ZM5.5 15C5.5 17.4853 7.51472 19.5 10 19.5L10 18.5C8.067 18.5 6.5 16.933 6.5 15L5.5 15Z" fill="#222222"/>
</svg>
