<svg width="24" height="24" viewBox="0 0 24 24" fill="none" xmlns="http://www.w3.org/2000/svg">
<path d="M11 9L11.3904 8.68765L11.6403 9L11.3904 9.31235L11 9ZM7.39043 3.68765L11.3904 8.68765L10.6096 9.31235L6.60957 4.31235L7.39043 3.68765ZM11.3904 9.31235L7.39043 14.3123L6.60957 13.6877L10.6096 8.68765L11.3904 9.31235Z" fill="#222222"/>
<path d="M13 15L12.6096 14.6877L12.3597 15L12.6096 15.3123L13 15ZM16.6096 9.68765L12.6096 14.6877L13.3904 15.3123L17.3904 10.3123L16.6096 9.68765ZM12.6096 15.3123L16.6096 20.3123L17.3904 19.6877L13.3904 14.6877L12.6096 15.3123Z" fill="#222222"/>
</svg>
