<svg width="24" height="24" viewBox="0 0 24 24" fill="none" xmlns="http://www.w3.org/2000/svg">
<path d="M9 5H14M14 5H19M14 5V19M9 19H14M14 19H19" stroke="#222222"/>
<path d="M2 15H1.5V15.5H2V15ZM2 15.5H11V14.5H2V15.5ZM11 8.5H4V9.5H11V8.5ZM1.5 11V15H2.5V11H1.5ZM4 8.5C2.61929 8.5 1.5 9.61929 1.5 11H2.5C2.5 10.1716 3.17157 9.5 4 9.5V8.5Z" fill="#222222"/>
<path d="M22 9H22.5V8.5H22V9ZM22 8.5H17V9.5H22V8.5ZM17 15.5H20V14.5H17V15.5ZM22.5 13V9H21.5V13H22.5ZM20 15.5C21.3807 15.5 22.5 14.3807 22.5 13H21.5C21.5 13.8284 20.8284 14.5 20 14.5V15.5Z" fill="#222222"/>
</svg>
