<svg width="24" height="24" viewBox="0 0 24 24" fill="none" xmlns="http://www.w3.org/2000/svg">
<path d="M9 5H14M14 5H19M14 5V19M9 19H14M14 19H19" stroke="#33363F" stroke-width="2"/>
<path d="M2 15H1V16H2V15ZM2 16H11V14H2V16ZM11 8H4V10H11V8ZM1 11V15H3V11H1ZM4 8C2.34315 8 1 9.34315 1 11H3C3 10.4477 3.44772 10 4 10V8Z" fill="#33363F"/>
<path d="M22 9H23V8H22V9ZM22 8H17V10H22V8ZM17 16H20V14H17V16ZM23 13V9H21V13H23ZM20 16C21.6569 16 23 14.6569 23 13H21C21 13.5523 20.5523 14 20 14V16Z" fill="#33363F"/>
</svg>
