<svg width="24" height="24" viewBox="0 0 24 24" fill="none" xmlns="http://www.w3.org/2000/svg">
<path d="M7.08384 9.89367C7.62063 7.61232 9.65635 6 12 6C14.3437 6 16.3794 7.61232 16.9162 9.89367L17.5601 12.6304C17.8456 13.8438 18.5178 14.9315 19.4755 15.7296C19.9917 16.1598 19.6875 17 19.0155 17H4.98449C4.31249 17 4.00828 16.1598 4.52452 15.7296C5.48215 14.9315 6.15439 13.8438 6.4399 12.6304L7.08384 9.89367Z" fill="#2A4157" fill-opacity="0.24"/>
<path d="M12.5 2C12.5 1.72386 12.2761 1.5 12 1.5C11.7239 1.5 11.5 1.72386 11.5 2H12.5ZM12.5 5V2H11.5V5H12.5Z" fill="#222222"/>
<path d="M14.35 18C14.4328 18 14.5007 18.0673 14.493 18.1498C14.4484 18.6254 14.1923 19.0746 13.7678 19.4142C13.2989 19.7893 12.663 20 12 20C11.337 20 10.7011 19.7893 10.2322 19.4142C9.80772 19.0746 9.55165 18.6254 9.50702 18.1498C9.49928 18.0673 9.56716 18 9.65 18L12 18L14.35 18Z" fill="#222222"/>
</svg>
