<svg width="24" height="24" viewBox="0 0 24 24" fill="none" xmlns="http://www.w3.org/2000/svg">
<path fill-rule="evenodd" clip-rule="evenodd" d="M7.71434 10.0481C7.66342 10.0239 7.60776 10.0081 7.54913 10.0024C7.52918 10.0004 7.50934 9.99959 7.48969 9.99997H5.7H5.67858L5.67853 9.99997C5.13667 9.99997 4.69961 9.99997 4.34569 10.0289C3.98126 10.0587 3.66117 10.1216 3.36502 10.2725C2.89462 10.5121 2.51217 10.8946 2.27248 11.365C2.12159 11.6611 2.05868 11.9812 2.02891 12.3457C1.99999 12.6996 2 13.1367 2 13.6786V13.6786V13.7V17.3V17.3214C2 17.8633 1.99999 18.3003 2.02891 18.6543C2.05868 19.0187 2.12159 19.3388 2.27248 19.635C2.51217 20.1054 2.89462 20.4878 3.36502 20.7275C3.66117 20.8784 3.98126 20.9413 4.34569 20.9711C4.65731 20.9965 5.03338 20.9996 5.4887 20.9999C5.49643 21.0001 5.50414 21.0001 5.51182 20.9999L5.67855 21H5.6786H5.7H18.3H18.3214H18.3215L18.4882 20.9999C18.4959 21.0001 18.5036 21.0001 18.5113 20.9999C18.9666 20.9996 19.3427 20.9965 19.6543 20.9711C20.0187 20.9413 20.3388 20.8784 20.635 20.7275C21.1054 20.4878 21.4878 20.1054 21.7275 19.635C21.8784 19.3388 21.9413 19.0187 21.9711 18.6543C22 18.3003 22 17.8633 22 17.3214V17.3V13.7V13.6786C22 13.1367 22 12.6996 21.9711 12.3457C21.9413 11.9812 21.8784 11.6611 21.7275 11.365C21.4878 10.8946 21.1054 10.5121 20.635 10.2725C20.3388 10.1216 20.0187 10.0587 19.6543 10.0289C19.3004 9.99997 18.8633 9.99997 18.3215 9.99997L18.3214 9.99997H18.3H16.5103C16.4907 9.99959 16.4708 10.0004 16.4509 10.0024C16.3927 10.008 16.3375 10.0237 16.2869 10.0475C16.2186 10.0797 16.1597 10.1264 16.1133 10.183C16.0672 10.2392 16.0331 10.3056 16.0149 10.3784C16.0011 10.4331 15.9965 10.4908 16.0024 10.5493C16.0044 10.5693 16.0075 10.5889 16.0117 10.6081L17.8901 20H6.1099L7.98827 10.6081C7.9925 10.5889 7.99563 10.5693 7.99759 10.5494C8.01123 10.4137 7.96851 10.2829 7.88668 10.183C7.84061 10.1267 7.78214 10.0802 7.71434 10.0481ZM5.7 11H6.8901L5.09046 19.9982C4.8262 19.9956 4.61106 19.9894 4.42712 19.9744C4.12454 19.9497 3.95069 19.9036 3.81901 19.8365C3.53677 19.6927 3.3073 19.4632 3.16349 19.181C3.0964 19.0493 3.05031 18.8754 3.02559 18.5729C3.00039 18.2644 3 17.8683 3 17.3V13.7C3 13.1317 3.00039 12.7355 3.02559 12.4271C3.05031 12.1245 3.0964 11.9507 3.16349 11.819C3.3073 11.5367 3.53677 11.3073 3.81901 11.1635C3.95069 11.0964 4.12454 11.0503 4.42712 11.0256C4.73554 11.0004 5.1317 11 5.7 11ZM19.5729 19.9744C19.3889 19.9894 19.1738 19.9956 18.9095 19.9982L17.1099 11H18.3C18.8683 11 19.2645 11.0004 19.5729 11.0256C19.8755 11.0503 20.0493 11.0964 20.181 11.1635C20.4632 11.3073 20.6927 11.5367 20.8365 11.819C20.9036 11.9507 20.9497 12.1245 20.9744 12.4271C20.9996 12.7355 21 13.1317 21 13.7V17.3C21 17.8683 20.9996 18.2644 20.9744 18.5729C20.9497 18.8754 20.9036 19.0493 20.8365 19.181C20.6927 19.4632 20.4632 19.6927 20.181 19.8365C20.0493 19.9036 19.8755 19.9497 19.5729 19.9744ZM12.5 15.5C12.5 15.2238 12.2761 15 12 15C11.7239 15 11.5 15.2238 11.5 15.5V17.5C11.5 17.7761 11.7239 18 12 18C12.2761 18 12.5 17.7761 12.5 17.5V15.5Z" fill="#2A4157" fill-opacity="0.24"/>
<path d="M12 7.5V4C12 3.7643 12 3.64645 12.0732 3.57322C12.1464 3.5 12.2643 3.5 12.5 3.5H18.5L16.5 5.5L18.5 7.5H12ZM12 7.5V12" stroke="#222222" stroke-linecap="round" stroke-linejoin="round"/>
</svg>
