<svg width="24" height="24" viewBox="0 0 24 24" fill="none" xmlns="http://www.w3.org/2000/svg">
<path d="M9.09557 20.7929L11.9274 14.6574C11.9505 14.6073 11.962 14.5822 11.978 14.5744C11.9919 14.5676 12.0081 14.5676 12.022 14.5744C12.038 14.5822 12.0495 14.6073 12.0726 14.6574L14.9044 20.7929C14.9337 20.8564 14.9484 20.8882 14.9425 20.9067C14.9374 20.9227 14.9247 20.9351 14.9085 20.9396C14.8899 20.9449 14.8586 20.9293 14.796 20.898L12.0358 19.5179L12.0358 19.5179C12.0227 19.5113 12.0161 19.508 12.0092 19.5068C12.0031 19.5056 11.9969 19.5056 11.9908 19.5068C11.9839 19.508 11.9773 19.5113 11.9642 19.5179L11.9642 19.5179L9.20399 20.898C9.14142 20.9293 9.11014 20.9449 9.09149 20.9396C9.07533 20.9351 9.06256 20.9227 9.05748 20.9067C9.0516 20.8882 9.06626 20.8564 9.09557 20.7929Z" stroke="#33363F" stroke-width="2" stroke-linecap="round"/>
<path d="M5 17L8 3" stroke="#33363F" stroke-width="2" stroke-linecap="round"/>
<path d="M19 17L16 3" stroke="#33363F" stroke-width="2" stroke-linecap="round"/>
<path d="M12 10L12 8" stroke="#33363F" stroke-width="2" stroke-linecap="round"/>
<path d="M17 17H17.8C18.9201 17 19.4802 17 19.908 16.782C20.2843 16.5903 20.5903 16.2843 20.782 15.908C21 15.4802 21 14.9201 21 13.8V6.2C21 5.07989 21 4.51984 20.782 4.09202C20.5903 3.71569 20.2843 3.40973 19.908 3.21799C19.4802 3 18.9201 3 17.8 3H6.2C5.0799 3 4.51984 3 4.09202 3.21799C3.71569 3.40973 3.40973 3.71569 3.21799 4.09202C3 4.51984 3 5.07989 3 6.2V13.8C3 14.9201 3 15.4802 3.21799 15.908C3.40973 16.2843 3.71569 16.5903 4.09202 16.782C4.51984 17 5.07989 17 6.2 17H7" stroke="#33363F" stroke-width="2" stroke-linecap="round"/>
</svg>
