<svg width="24" height="24" viewBox="0 0 24 24" fill="none" xmlns="http://www.w3.org/2000/svg">
<path d="M17 11H17.8C18.9201 11 19.4802 11 19.908 11.218C20.2843 11.4097 20.5903 11.7157 20.782 12.092C21 12.5198 21 13.0799 21 14.2V17.8C21 18.9201 21 19.4802 20.782 19.908C20.5903 20.2843 20.2843 20.5903 19.908 20.782C19.4802 21 18.9201 21 17.8 21H6.2C5.0799 21 4.51984 21 4.09202 20.782C3.71569 20.5903 3.40973 20.2843 3.21799 19.908C3 19.4802 3 18.9201 3 17.8V14.2C3 13.0799 3 12.5198 3.21799 12.092C3.40973 11.7157 3.71569 11.4097 4.09202 11.218C4.51984 11 5.07989 11 6.2 11H7" stroke="#33363F" stroke-width="2" stroke-linecap="round"/>
<path d="M4.51106 20.8517C4.42914 21.3978 4.80549 21.907 5.35166 21.9889C5.89783 22.0709 6.40701 21.6945 6.48894 21.1483L4.51106 20.8517ZM7.98894 11.1483C8.07086 10.6022 7.69451 10.093 7.14834 10.0111C6.60217 9.92914 6.09299 10.3055 6.01106 10.8517L7.98894 11.1483ZM17.5111 21.1483C17.593 21.6945 18.1022 22.0709 18.6483 21.9889C19.1945 21.907 19.5709 21.3978 19.4889 20.8517L17.5111 21.1483ZM17.9889 10.8517C17.907 10.3055 17.3978 9.92914 16.8517 10.0111C16.3055 10.093 15.9291 10.6022 16.0111 11.1483L17.9889 10.8517ZM6.48894 21.1483L7.98894 11.1483L6.01106 10.8517L4.51106 20.8517L6.48894 21.1483ZM19.4889 20.8517L17.9889 10.8517L16.0111 11.1483L17.5111 21.1483L19.4889 20.8517Z" fill="#33363F"/>
<path d="M12 17L12 14" stroke="#33363F" stroke-width="2" stroke-linecap="round"/>
<path d="M12 7V3.5C12 3.2643 12 3.14645 12.0732 3.07322C12.1464 3 12.2643 3 12.5 3H17L15.5 5L17 7H12ZM12 7V10" stroke="#33363F" stroke-width="2" stroke-linecap="round" stroke-linejoin="round"/>
</svg>
