<svg width="24" height="24" viewBox="0 0 24 24" fill="none" xmlns="http://www.w3.org/2000/svg">
<path d="M8.57385 19.3523L11.9553 12.5894C11.9737 12.5526 12.0263 12.5526 12.0447 12.5894L15.4261 19.3523C15.4483 19.3965 15.3996 19.4426 15.3566 19.4181L12.0248 17.5142C12.0094 17.5054 11.9906 17.5054 11.9752 17.5142L8.64338 19.4181C8.60043 19.4426 8.55173 19.3965 8.57385 19.3523Z" stroke="#33363F" stroke-linecap="round"/>
<path fill-rule="evenodd" clip-rule="evenodd" d="M7.50822 4.00002H16.4918C16.4977 3.99991 16.5036 3.99991 16.5094 4.00002H18.3L18.3214 4.00002C18.8633 4.00001 19.3004 4.00001 19.6543 4.02893C20.0187 4.0587 20.3388 4.12161 20.635 4.2725C21.1054 4.51218 21.4878 4.89464 21.7275 5.36504C21.8784 5.66119 21.9413 5.98128 21.9711 6.34571C22 6.69964 22 7.13671 22 7.6786V7.70002V13.3V13.3214C22 13.8633 22 14.3004 21.9711 14.6543C21.9413 15.0188 21.8784 15.3388 21.7275 15.635C21.4878 16.1054 21.1054 16.4879 20.635 16.7275C20.3388 16.8784 20.0187 16.9413 19.6543 16.9711C19.3425 16.9966 18.9662 16.9996 18.5106 17C18.5033 17.0001 18.4961 17.0001 18.4889 17L18.3215 17H18.3214H18.3H16C15.7239 17 15.5 16.7762 15.5 16.5C15.5 16.2239 15.7239 16 16 16H17.9098L16.0764 5.00002H7.92356L6.09023 16H8C8.27614 16 8.5 16.2239 8.5 16.5C8.5 16.7762 8.27614 17 8 17H5.7H5.67858H5.67853L5.51106 17C5.50388 17.0001 5.49668 17.0001 5.48945 17C5.0338 16.9996 4.65748 16.9966 4.34569 16.9711C3.98126 16.9413 3.66117 16.8784 3.36502 16.7275C2.89462 16.4879 2.51217 16.1054 2.27248 15.635C2.12159 15.3388 2.05868 15.0188 2.02891 14.6543C1.99999 14.3004 2 13.8633 2 13.3214V13.3V7.70002V7.67861V7.67861C2 7.13672 1.99999 6.69964 2.02891 6.3457C2.05868 5.98128 2.12159 5.66119 2.27248 5.36504C2.51217 4.89464 2.89462 4.51218 3.36502 4.2725C3.66117 4.12161 3.98126 4.0587 4.34569 4.02893C4.69963 4.00001 5.1367 4.00001 5.6786 4.00002L5.7 4.00002H7.49058C7.49644 3.99991 7.50232 3.99991 7.50822 4.00002ZM18.9232 15.9981L17.0902 5.00002H18.3C18.8683 5.00002 19.2645 5.00041 19.5729 5.0256C19.8755 5.05033 20.0493 5.09641 20.181 5.16351C20.4632 5.30732 20.6927 5.53679 20.8365 5.81903C20.9036 5.95071 20.9497 6.12455 20.9744 6.42714C20.9996 6.73556 21 7.13171 21 7.70002V13.3C21 13.8683 20.9996 14.2645 20.9744 14.5729C20.9497 14.8755 20.9036 15.0493 20.8365 15.181C20.6927 15.4632 20.4632 15.6927 20.181 15.8365C20.0493 15.9036 19.8755 15.9497 19.5729 15.9744C19.3921 15.9892 19.1812 15.9954 18.9232 15.9981ZM5.07676 15.9981L6.90977 5.00002H5.7C5.1317 5.00002 4.73554 5.00041 4.42712 5.0256C4.12454 5.05033 3.95069 5.09641 3.81901 5.16351C3.53677 5.30732 3.3073 5.53679 3.16349 5.81903C3.0964 5.95071 3.05031 6.12455 3.02559 6.42714C3.00039 6.73556 3 7.13171 3 7.70002V13.3C3 13.8683 3.00039 14.2645 3.02559 14.5729C3.05031 14.8755 3.0964 15.0493 3.16349 15.181C3.3073 15.4632 3.53677 15.6927 3.81901 15.8365C3.95069 15.9036 4.12454 15.9497 4.42712 15.9744C4.60787 15.9892 4.81875 15.9954 5.07676 15.9981ZM12.5 6.50002C12.5 6.22387 12.2761 6.00002 12 6.00002C11.7239 6.00002 11.5 6.22387 11.5 6.50002V9.50002C11.5 9.77616 11.7239 10 12 10C12.2761 10 12.5 9.77616 12.5 9.50002V6.50002Z" fill="#2A4157" fill-opacity="0.24"/>
</svg>
