<svg width="24" height="24" viewBox="0 0 24 24" fill="none" xmlns="http://www.w3.org/2000/svg">
<path d="M5 16C5.7099 16 6.09987 15.4487 6.25011 15.1945C6.43992 14.8734 6.57618 14.4753 6.67725 14.071C6.88324 13.247 7 12.1617 7 11C7 9.8383 6.88324 8.753 6.67725 7.92904C6.57618 7.52475 6.43992 7.12664 6.25011 6.80551C6.09987 6.55133 5.7099 6 5 6C4.2901 6 3.90013 6.55133 3.74989 6.80551C3.56008 7.12664 3.42382 7.52475 3.32275 7.92904C3.11676 8.753 3 9.8383 3 11C3 12.1617 3.11676 13.247 3.32275 14.071C3.42382 14.4753 3.56008 14.8734 3.74989 15.1945C3.90013 15.4487 4.2901 16 5 16Z" stroke="#33363F" stroke-width="2"/>
<path d="M19 16C19.6929 16 20.0822 15.4718 20.2388 15.2122C20.4321 14.892 20.5722 14.491 20.6772 14.071C20.8904 13.2183 21 12.1147 21 11C21 9.88534 20.8904 8.78169 20.6772 7.92904C20.5722 7.509 20.4321 7.10805 20.2388 6.78775C20.0822 6.52818 19.6929 6 19 6" stroke="#33363F" stroke-width="2" stroke-linecap="round"/>
<path d="M19 6C19 6 15.9375 7 12 7C8.0625 7 5 6 5 6" stroke="#33363F" stroke-width="2" stroke-linecap="round"/>
<path d="M5 16C5 16 6.44135 15.2356 9.5 15M19 16C19 16 17.5587 15.2356 14.5 15" stroke="#33363F" stroke-width="2" stroke-linecap="round"/>
<path d="M10 8V10M14 8V10" stroke="#33363F" stroke-width="2" stroke-linecap="round"/>
<circle cx="12" cy="13" r="3" stroke="#33363F" stroke-width="2"/>
<path d="M9.5 15L6 18L8 18.5L9.5 20L12 16L14.5 20L16 18.5L18 18L14.5 15" stroke="#33363F" stroke-width="2" stroke-linecap="round" stroke-linejoin="round"/>
</svg>
