<svg width="24" height="24" viewBox="0 0 24 24" fill="none" xmlns="http://www.w3.org/2000/svg">
<path d="M5 15.5C10.5 15.5 10.5 9 5 8.5" stroke="#222222" stroke-linecap="round"/>
<path d="M17 15.5C22.5 15.5 22.5 9 17 8.5" stroke="#222222" stroke-linecap="round"/>
<path d="M11 15.5C16.5 15.5 16.5 9 11 8.5" stroke="#222222" stroke-linecap="round"/>
<path d="M17 15.5H4.5" stroke="#222222" stroke-linecap="round"/>
<path d="M17 8.5H5" stroke="#222222" stroke-linecap="round"/>
<path d="M4.5 15.5C4.12671 15.5 3.76086 15.3955 3.44386 15.1984C3.12686 15.0013 2.87136 14.7194 2.70625 14.3846C2.54115 14.0498 2.47304 13.6755 2.50963 13.304C2.54622 12.9325 2.68605 12.5786 2.91329 12.2825C3.14054 11.9863 3.44613 11.7597 3.7955 11.6282C4.14487 11.4967 4.52406 11.4656 4.89018 11.5384C5.2563 11.6113 5.59473 11.7851 5.86718 12.0403C6.13964 12.2955 6.33524 12.6218 6.43185 12.9824" stroke="#222222" stroke-linecap="round"/>
</svg>
