<svg width="24" height="24" viewBox="0 0 24 24" fill="none" xmlns="http://www.w3.org/2000/svg">
<path d="M5 16C10.3333 16 10.3333 8.57143 5 8" stroke="#33363F" stroke-width="2" stroke-linecap="round"/>
<path d="M17 16C22.3333 16 22.3333 8.57143 17 8" stroke="#33363F" stroke-width="2" stroke-linecap="round"/>
<path d="M11 16C16.3333 16 16.3333 8.57143 11 8" stroke="#33363F" stroke-width="2" stroke-linecap="round"/>
<path d="M17.5 16H5" stroke="#33363F" stroke-width="2" stroke-linecap="round"/>
<path d="M17 8H5" stroke="#33363F" stroke-width="2" stroke-linecap="round"/>
<path d="M5 16C4.71531 16 4.4339 15.9392 4.17459 15.8217C3.91527 15.7042 3.68403 15.5327 3.49632 15.3187C3.30861 15.1047 3.16876 14.853 3.08612 14.5806C3.00348 14.3081 2.97995 14.0212 3.01711 13.7389C3.05427 13.4567 3.15126 13.1856 3.3016 12.9439C3.45193 12.7021 3.65215 12.4952 3.88886 12.3371C4.12557 12.1789 4.39332 12.0731 4.67421 12.0267C4.9551 11.9803 5.24265 11.9945 5.51764 12.0681" stroke="#33363F" stroke-width="2" stroke-linecap="round"/>
</svg>
