<svg width="24" height="24" viewBox="0 0 24 24" fill="none" xmlns="http://www.w3.org/2000/svg">
<path d="M4 15.5C4.42399 15.5 4.68474 15.1684 4.81968 14.9401C4.9744 14.6783 5.0964 14.3328 5.19218 13.9497C5.38566 13.1758 5.5 12.1331 5.5 11C5.5 9.86686 5.38566 8.82421 5.19218 8.05031C5.0964 7.6672 4.9744 7.32169 4.81968 7.05992C4.68474 6.83163 4.42399 6.5 4 6.5C3.57601 6.5 3.31526 6.83163 3.18032 7.05992C3.0256 7.32169 2.9036 7.6672 2.80782 8.05031C2.61434 8.82421 2.5 9.86686 2.5 11C2.5 12.1331 2.61434 13.1758 2.80782 13.9497C2.9036 14.3328 3.0256 14.6783 3.18032 14.9401C3.31526 15.1684 3.57601 15.5 4 15.5Z" stroke="#222222"/>
<path d="M20 15.5C20.4127 15.5 20.6723 15.1832 20.8108 14.9539C20.9675 14.6942 21.0928 14.3472 21.1922 13.9497C21.3925 13.1483 21.5 12.0878 21.5 11C21.5 9.91223 21.3925 8.8517 21.1922 8.0503C21.0928 7.65275 20.9675 7.30583 20.8108 7.04612C20.6723 6.81677 20.4127 6.5 20 6.5" stroke="#222222" stroke-linecap="round"/>
<path d="M20.1374 6.98076C20.4029 6.9049 20.5566 6.62816 20.4808 6.36264C20.4049 6.09712 20.1282 5.94338 19.8626 6.01924L20.1374 6.98076ZM4.13736 6.01924C3.87184 5.94338 3.5951 6.09712 3.51924 6.36264C3.44338 6.62816 3.59712 6.9049 3.86264 6.98076L4.13736 6.01924ZM20 6.5C19.8626 6.01924 19.8627 6.01922 19.8628 6.0192L19.8628 6.01919C19.8628 6.01919 19.8627 6.01921 19.8626 6.01924C19.8624 6.0193 19.862 6.01942 19.8614 6.0196C19.8601 6.01996 19.858 6.02055 19.855 6.02138C19.8492 6.02302 19.8399 6.02559 19.8275 6.029C19.8025 6.03583 19.7646 6.04608 19.7142 6.05926C19.6135 6.08561 19.4633 6.12367 19.2683 6.16954C18.8783 6.26131 18.3098 6.38426 17.6018 6.50739C16.1848 6.75384 14.2143 7 12 7V8C14.2857 8 16.3152 7.74616 17.7732 7.49261C18.5027 7.36574 19.0905 7.23869 19.4973 7.14296C19.7008 7.09508 19.8591 7.05502 19.9674 7.02668C20.0215 7.01251 20.0632 7.00128 20.0917 6.99346C20.106 6.98955 20.117 6.9865 20.1246 6.98436C20.1284 6.98329 20.1314 6.98245 20.1335 6.98185C20.1346 6.98155 20.1354 6.98131 20.1361 6.98113C20.1364 6.98104 20.1367 6.98096 20.1369 6.9809C20.137 6.98087 20.1371 6.98083 20.1372 6.98082C20.1373 6.98079 20.1374 6.98076 20 6.5ZM12 7C9.7857 7 7.81521 6.75384 6.39817 6.50739C5.69017 6.38426 5.12172 6.26131 4.73171 6.16954C4.53674 6.12367 4.38646 6.08561 4.28576 6.05926C4.23541 6.04608 4.19746 6.03583 4.17252 6.029C4.16005 6.02559 4.15084 6.02302 4.14495 6.02138C4.14201 6.02055 4.1399 6.01996 4.13863 6.0196C4.138 6.01942 4.13757 6.0193 4.13736 6.01924C4.13725 6.01921 4.1372 6.01919 4.1372 6.01919C4.1372 6.01919 4.13724 6.0192 4.13724 6.0192C4.13729 6.01922 4.13736 6.01924 4 6.5C3.86264 6.98076 3.86273 6.98079 3.86284 6.98082C3.86289 6.98083 3.86301 6.98087 3.86312 6.9809C3.86333 6.98096 3.8636 6.98104 3.86392 6.98113C3.86456 6.98131 3.86541 6.98155 3.86648 6.98185C3.86861 6.98245 3.87159 6.98329 3.8754 6.98436C3.88304 6.9865 3.89402 6.98955 3.90829 6.99346C3.93682 7.00128 3.97846 7.01251 4.0326 7.02668C4.14088 7.05502 4.2992 7.09508 4.50267 7.14296C4.90953 7.23869 5.49733 7.36574 6.22683 7.49261C7.68479 7.74616 9.7143 8 12 8V7Z" fill="#33363F"/>
<path d="M3.86264 15.0192C3.59712 15.0951 3.44338 15.3718 3.51924 15.6374C3.5951 15.9029 3.87184 16.0566 4.13736 15.9808L3.86264 15.0192ZM19.8626 15.9808C20.1282 16.0566 20.4049 15.9029 20.4808 15.6374C20.5566 15.3718 20.4029 15.0951 20.1374 15.0192L19.8626 15.9808ZM14.0315 14.0649C13.7559 14.0475 13.5184 14.2568 13.501 14.5324C13.4836 14.808 13.6929 15.0455 13.9685 15.0629L14.0315 14.0649ZM10.0315 15.0629C10.3071 15.0455 10.5164 14.808 10.499 14.5324C10.4816 14.2568 10.2441 14.0475 9.96852 14.0649L10.0315 15.0629ZM13.9685 15.0629C15.6906 15.1716 17.1688 15.4022 18.2155 15.6055C18.7386 15.7071 19.1532 15.8017 19.4357 15.8705C19.5769 15.905 19.6851 15.9329 19.7572 15.9521C19.7933 15.9617 19.8204 15.969 19.8381 15.9739C19.8469 15.9764 19.8534 15.9782 19.8575 15.9793C19.8596 15.9799 19.861 15.9803 19.8619 15.9806C19.8623 15.9807 19.8626 15.9808 19.8627 15.9808C19.8628 15.9808 19.8628 15.9808 19.8628 15.9808C19.8628 15.9808 19.8627 15.9808 19.8627 15.9808C19.8627 15.9808 19.8626 15.9808 20 15.5C20.1374 15.0192 20.1373 15.0192 20.1372 15.0192C20.1372 15.0192 20.1371 15.0192 20.137 15.0191C20.1368 15.0191 20.1366 15.019 20.1364 15.019C20.1359 15.0188 20.1352 15.0186 20.1344 15.0184C20.1329 15.018 20.1307 15.0173 20.1279 15.0166C20.1223 15.015 20.1143 15.0128 20.104 15.0099C20.0833 15.0042 20.0531 14.996 20.0139 14.9856C19.9354 14.9647 19.8206 14.9351 19.6725 14.899C19.3761 14.8268 18.9461 14.7287 18.4062 14.6238C17.3268 14.4142 15.805 14.1768 14.0315 14.0649L13.9685 15.0629ZM4 15.5C4.13736 15.9808 4.1373 15.9808 4.13725 15.9808C4.13725 15.9808 4.13721 15.9808 4.13721 15.9808C4.13719 15.9808 4.13722 15.9808 4.13728 15.9808C4.1374 15.9808 4.13768 15.9807 4.1381 15.9806C4.13896 15.9803 4.14041 15.9799 4.14247 15.9793C4.14658 15.9782 4.15308 15.9764 4.16192 15.9739C4.17961 15.969 4.20668 15.9617 4.24276 15.9521C4.31491 15.9329 4.42308 15.905 4.56432 15.8705C4.84682 15.8017 5.26139 15.7071 5.78447 15.6055C6.83115 15.4022 8.30942 15.1716 10.0315 15.0629L9.96852 14.0649C8.19497 14.1768 6.67324 14.4142 5.59383 14.6238C5.05385 14.7287 4.62385 14.8268 4.32755 14.899C4.17937 14.9351 4.06458 14.9647 3.98612 14.9856C3.94689 14.996 3.91674 15.0042 3.89603 15.0099C3.88568 15.0128 3.8777 15.015 3.87211 15.0166C3.86932 15.0173 3.86713 15.018 3.86555 15.0184C3.86476 15.0186 3.86412 15.0188 3.86364 15.019C3.8634 15.019 3.86319 15.0191 3.86302 15.0191C3.86294 15.0192 3.86284 15.0192 3.8628 15.0192C3.86272 15.0192 3.86264 15.0192 4 15.5Z" fill="#33363F"/>
<path d="M11 7.5C11 7.22386 10.7761 7 10.5 7C10.2239 7 10 7.22386 10 7.5H11ZM10 11C10 11.2761 10.2239 11.5 10.5 11.5C10.7761 11.5 11 11.2761 11 11H10ZM14 7.5C14 7.22386 13.7761 7 13.5 7C13.2239 7 13 7.22386 13 7.5H14ZM13 11C13 11.2761 13.2239 11.5 13.5 11.5C13.7761 11.5 14 11.2761 14 11H13ZM10 7.5V11H11V7.5H10ZM13 7.5V11H14V7.5H13Z" fill="#33363F"/>
<circle cx="12" cy="13" r="2.5" stroke="#222222"/>
<path d="M10 14.5L7.5 16.5L9 17L10 18.5L12 15.5L14 18.5L15 17L16.5 16.5L14 14.5" stroke="#33363F" stroke-linecap="round" stroke-linejoin="round"/>
</svg>
