<svg width="24" height="24" viewBox="0 0 24 24" fill="none" xmlns="http://www.w3.org/2000/svg">
<circle cx="12" cy="12" r="10" stroke="#33363F" stroke-width="2" stroke-linecap="round"/>
<path d="M7.88124 16.2441C8.37391 15.8174 9.02309 15.5091 9.72265 15.3072C10.4301 15.103 11.2142 15 12 15C12.7858 15 13.5699 15.103 14.2774 15.3072C14.9769 15.5091 15.6261 15.8174 16.1188 16.2441" stroke="#33363F" stroke-width="2" stroke-linecap="round"/>
<mask id="path-3-outside-1_1358_5284" maskUnits="userSpaceOnUse" x="7" y="8" width="4" height="3" fill="black">
<rect fill="white" x="7" y="8" width="4" height="3"/>
<path d="M9.5 9C9.74028 9 9.86042 9 9.93306 9.12245C10.0057 9.2449 9.96299 9.32308 9.87758 9.47943C9.8323 9.56233 9.7751 9.63911 9.70711 9.70711C9.51957 9.89464 9.26522 10 9 10C8.73478 10 8.48043 9.89464 8.29289 9.70711C8.2249 9.63911 8.16771 9.56233 8.12242 9.47944C8.03701 9.32308 7.9943 9.2449 8.06694 9.12245C8.13958 9 8.25972 9 8.5 9L9 9H9.5Z"/>
</mask>
<path d="M9.5 9C9.74028 9 9.86042 9 9.93306 9.12245C10.0057 9.2449 9.96299 9.32308 9.87758 9.47943C9.8323 9.56233 9.7751 9.63911 9.70711 9.70711C9.51957 9.89464 9.26522 10 9 10C8.73478 10 8.48043 9.89464 8.29289 9.70711C8.2249 9.63911 8.16771 9.56233 8.12242 9.47944C8.03701 9.32308 7.9943 9.2449 8.06694 9.12245C8.13958 9 8.25972 9 8.5 9L9 9H9.5Z" fill="#33363F"/>
<path d="M9.5 9C9.74028 9 9.86042 9 9.93306 9.12245C10.0057 9.2449 9.96299 9.32308 9.87758 9.47943C9.8323 9.56233 9.7751 9.63911 9.70711 9.70711C9.51957 9.89464 9.26522 10 9 10C8.73478 10 8.48043 9.89464 8.29289 9.70711C8.2249 9.63911 8.16771 9.56233 8.12242 9.47944C8.03701 9.32308 7.9943 9.2449 8.06694 9.12245C8.13958 9 8.25972 9 8.5 9L9 9H9.5Z" stroke="#33363F" stroke-linecap="round" mask="url(#path-3-outside-1_1358_5284)"/>
<mask id="path-4-outside-2_1358_5284" maskUnits="userSpaceOnUse" x="13" y="8" width="4" height="3" fill="black">
<rect fill="white" x="13" y="8" width="4" height="3"/>
<path d="M15.5 9C15.7403 9 15.8604 9 15.9331 9.12245C16.0057 9.2449 15.963 9.32308 15.8776 9.47943C15.8323 9.56233 15.7751 9.63911 15.7071 9.70711C15.5196 9.89464 15.2652 10 15 10C14.7348 10 14.4804 9.89464 14.2929 9.70711C14.2249 9.63911 14.1677 9.56233 14.1224 9.47944C14.037 9.32308 13.9943 9.2449 14.0669 9.12245C14.1396 9 14.2597 9 14.5 9L15 9H15.5Z"/>
</mask>
<path d="M15.5 9C15.7403 9 15.8604 9 15.9331 9.12245C16.0057 9.2449 15.963 9.32308 15.8776 9.47943C15.8323 9.56233 15.7751 9.63911 15.7071 9.70711C15.5196 9.89464 15.2652 10 15 10C14.7348 10 14.4804 9.89464 14.2929 9.70711C14.2249 9.63911 14.1677 9.56233 14.1224 9.47944C14.037 9.32308 13.9943 9.2449 14.0669 9.12245C14.1396 9 14.2597 9 14.5 9L15 9H15.5Z" fill="#33363F"/>
<path d="M15.5 9C15.7403 9 15.8604 9 15.9331 9.12245C16.0057 9.2449 15.963 9.32308 15.8776 9.47943C15.8323 9.56233 15.7751 9.63911 15.7071 9.70711C15.5196 9.89464 15.2652 10 15 10C14.7348 10 14.4804 9.89464 14.2929 9.70711C14.2249 9.63911 14.1677 9.56233 14.1224 9.47944C14.037 9.32308 13.9943 9.2449 14.0669 9.12245C14.1396 9 14.2597 9 14.5 9L15 9H15.5Z" stroke="#33363F" stroke-linecap="round" mask="url(#path-4-outside-2_1358_5284)"/>
</svg>
