<svg width="24" height="24" viewBox="0 0 24 24" fill="none" xmlns="http://www.w3.org/2000/svg">
<circle cx="12" cy="12" r="9.5" stroke="#222222" stroke-linecap="round"/>
<path d="M8.20857 16.622C8.63044 16.2567 9.20751 15.9763 9.86133 15.7876C10.5191 15.5977 11.256 15.5 12 15.5C12.744 15.5 13.4809 15.5977 14.1387 15.7876C14.7925 15.9763 15.3696 16.2567 15.7914 16.622" stroke="#222222" stroke-linecap="round"/>
<path d="M9.5 9C9.74028 9 9.86042 9 9.93306 9.12245C10.0057 9.2449 9.96299 9.32308 9.87758 9.47943C9.8323 9.56233 9.7751 9.63911 9.70711 9.70711C9.51957 9.89464 9.26522 10 9 10C8.73478 10 8.48043 9.89464 8.29289 9.70711C8.2249 9.63911 8.16771 9.56233 8.12242 9.47944C8.03701 9.32308 7.9943 9.2449 8.06694 9.12245C8.13958 9 8.25972 9 8.5 9L9 9H9.5Z" fill="#222222" stroke="#222222" stroke-linecap="round"/>
<path d="M15.5 9C15.7403 9 15.8604 9 15.9331 9.12245C16.0057 9.2449 15.963 9.32308 15.8776 9.47943C15.8323 9.56233 15.7751 9.63911 15.7071 9.70711C15.5196 9.89464 15.2652 10 15 10C14.7348 10 14.4804 9.89464 14.2929 9.70711C14.2249 9.63911 14.1677 9.56233 14.1224 9.47944C14.037 9.32308 13.9943 9.2449 14.0669 9.12245C14.1396 9 14.2597 9 14.5 9L15 9H15.5Z" fill="#222222" stroke="#222222" stroke-linecap="round"/>
</svg>
