<svg width="24" height="24" viewBox="0 0 24 24" fill="none" xmlns="http://www.w3.org/2000/svg">
<circle cx="12" cy="12" r="9.5" stroke="#222222" stroke-linecap="round"/>
<path d="M8.4301 16.7613C8.81457 16.6781 9.34621 16.6129 9.96401 16.5683C10.5857 16.5234 11.2876 16.5 12 16.5C12.7124 16.5 13.4143 16.5234 14.036 16.5683C14.6538 16.6129 15.1854 16.6781 15.5699 16.7613" stroke="#222222" stroke-linecap="round"/>
<path d="M9.5 10C9.74028 10 9.86042 10 9.93306 10.1225C10.0057 10.2449 9.96299 10.3231 9.87758 10.4794C9.8323 10.5623 9.7751 10.6391 9.70711 10.7071C9.51957 10.8946 9.26522 11 9 11C8.73478 11 8.48043 10.8946 8.29289 10.7071C8.2249 10.6391 8.16771 10.5623 8.12242 10.4794C8.03701 10.3231 7.9943 10.2449 8.06694 10.1225C8.13958 10 8.25972 10 8.5 10L9 10H9.5Z" fill="#222222" stroke="#222222" stroke-linecap="round"/>
<path d="M15.5 10C15.7403 10 15.8604 10 15.9331 10.1225C16.0057 10.2449 15.963 10.3231 15.8776 10.4794C15.8323 10.5623 15.7751 10.6391 15.7071 10.7071C15.5196 10.8946 15.2652 11 15 11C14.7348 11 14.4804 10.8946 14.2929 10.7071C14.2249 10.6391 14.1677 10.5623 14.1224 10.4794C14.037 10.3231 13.9943 10.2449 14.0669 10.1225C14.1396 10 14.2597 10 14.5 10L15 10H15.5Z" fill="#222222" stroke="#222222" stroke-linecap="round"/>
</svg>
