<svg width="24" height="24" viewBox="0 0 24 24" fill="none" xmlns="http://www.w3.org/2000/svg">
<path fill-rule="evenodd" clip-rule="evenodd" d="M3 9C3 6.17157 3 4.75736 3.87868 3.87868C4.75736 3 6.17157 3 9 3H15.3431C16.1606 3 16.5694 3 16.9369 3.15224C17.3045 3.30448 17.5935 3.59351 18.1716 4.17157L19.8284 5.82843C20.4065 6.40649 20.6955 6.69552 20.8478 7.06306C21 7.4306 21 7.83935 21 8.65685V15C21 17.8284 21 19.2426 20.1213 20.1213C19.48 20.7626 18.5534 20.9359 17 20.9827V18L17 17.9384C17.0001 17.2843 17.0001 16.6965 16.9362 16.2208C16.8663 15.7015 16.7042 15.1687 16.2678 14.7322C15.8313 14.2958 15.2985 14.1337 14.7792 14.0638C14.3034 13.9999 13.7157 13.9999 13.0616 14L13 14H10L9.93839 14C9.28427 13.9999 8.69655 13.9999 8.22084 14.0638C7.70149 14.1337 7.16867 14.2958 6.73223 14.7322C6.29579 15.1687 6.13366 15.7015 6.06383 16.2208C5.99988 16.6965 5.99993 17.2843 6 17.9384L6 18V20.9239C5.02491 20.828 4.36857 20.6112 3.87868 20.1213C3 19.2426 3 17.8284 3 15V9ZM15 18V21H9C8.64496 21 8.31221 21 8 20.9983V18C8 17.2646 8.00212 16.8137 8.046 16.4873C8.08457 16.2005 8.13942 16.1526 8.14592 16.1469L8.14645 16.1464L8.14692 16.1459C8.1526 16.1394 8.20049 16.0846 8.48734 16.046C8.81369 16.0021 9.26462 16 10 16H13C13.7354 16 14.1863 16.0021 14.5127 16.046C14.7995 16.0846 14.8474 16.1394 14.8531 16.1459L14.8536 16.1464L14.8541 16.1469C14.8606 16.1526 14.9154 16.2005 14.954 16.4873C14.9979 16.8137 15 17.2646 15 18ZM7 7C6.44772 7 6 7.44772 6 8C6 8.55228 6.44772 9 7 9H12C12.5523 9 13 8.55228 13 8C13 7.44772 12.5523 7 12 7H7Z" fill="#222222"/>
</svg>
