<svg width="24" height="24" viewBox="0 0 24 24" fill="none" xmlns="http://www.w3.org/2000/svg">
<path fill-rule="evenodd" clip-rule="evenodd" d="M18.2102 5.19087C17.7865 5.26625 17.2074 5.45789 16.3634 5.73923L9.8724 7.90289C9.05034 8.17692 8.45218 8.37646 8.01771 8.54598C7.56626 8.72212 7.36818 8.8387 7.28522 8.91842C6.671 9.50865 6.671 10.4913 7.28522 11.0815C7.36818 11.1613 7.56626 11.2778 8.01771 11.454C8.45218 11.6235 9.05034 11.823 9.8724 12.0971C9.88546 12.1014 9.89835 12.1057 9.91107 12.11C10.203 12.2072 10.4046 12.2743 10.5876 12.3711C11.0314 12.6058 11.3942 12.9686 11.6288 13.4124C11.7256 13.5954 11.7928 13.7969 11.89 14.0889C11.8943 14.1016 11.8986 14.1145 11.9029 14.1276C12.1769 14.9496 12.3765 15.5478 12.546 15.9823C12.7221 16.4337 12.8387 16.6318 12.9184 16.7148C13.5087 17.329 14.4913 17.329 15.0816 16.7148C15.1613 16.6318 15.2779 16.4337 15.454 15.9823C15.6235 15.5478 15.8231 14.9496 16.0971 14.1276L18.2607 7.6366C18.5421 6.79257 18.7337 6.21349 18.8091 5.78975C18.8851 5.36239 18.8101 5.2653 18.7724 5.22757C18.7347 5.18983 18.6376 5.11485 18.2102 5.19087ZM18.0351 4.20633C18.5449 4.11564 19.0802 4.12118 19.4795 4.52046C19.8788 4.91974 19.8843 5.45511 19.7937 5.96489C19.7039 6.46966 19.4875 7.11879 19.2231 7.91194L19.2094 7.95283L17.0458 14.4438L17.0408 14.4586C16.7728 15.2629 16.5654 15.885 16.3856 16.3458C16.2113 16.7924 16.0355 17.1653 15.8026 17.4076C14.8189 18.4314 13.1811 18.4314 12.1974 17.4076C11.9645 17.1653 11.7886 16.7924 11.6144 16.3457C11.4346 15.885 11.2273 15.2629 10.9592 14.4587L10.9542 14.4438C10.8392 14.0987 10.7982 13.9807 10.7448 13.8799C10.604 13.6136 10.3864 13.3959 10.1201 13.2551C10.0192 13.2018 9.90132 13.1608 9.55617 13.0458L9.54128 13.0408C8.73709 12.7727 8.11498 12.5654 7.65423 12.3856C7.20762 12.2113 6.83468 12.0355 6.59233 11.8026C5.56863 10.8189 5.56863 9.1811 6.59233 8.19737C6.83468 7.96448 7.20762 7.78863 7.65423 7.61438C8.11499 7.4346 8.73712 7.22723 9.54133 6.95916L9.55617 6.95421L16.0472 4.79055L16.088 4.77693C16.8812 4.51252 17.5303 4.29612 18.0351 4.20633Z" fill="#222222"/>
</svg>
