<svg width="24" height="24" viewBox="0 0 24 24" fill="none" xmlns="http://www.w3.org/2000/svg">
<path d="M16.0655 10.1841L12.1768 8.38929C10.0221 7.39479 8.94469 6.89755 8.45127 7.40663C7.95785 7.9157 8.48935 8.9787 9.55234 11.1047C9.77209 11.5442 9.88197 11.7639 9.88197 12C9.88197 12.2361 9.77209 12.4558 9.55234 12.8953C8.48935 15.0213 7.95785 16.0843 8.45127 16.5934C8.94469 17.1025 10.0221 16.6052 12.1768 15.6107L16.0655 13.8159C17.7643 13.0319 18.6137 12.6398 18.6137 12C18.6137 11.3602 17.7643 10.9681 16.0655 10.1841Z" fill="#2A4157" fill-opacity="0.24"/>
<path d="M8.89459 11.6838L8.17359 9.52078C8.06547 9.19642 7.79914 8.94978 7.46744 8.86686L5.68744 8.42186C5.02437 8.25609 4.47221 8.94442 4.77787 9.55575L5.8882 11.7764C5.95858 11.9172 5.95858 12.0828 5.8882 12.2236L4.77787 14.4443C4.47221 15.0556 5.02437 15.7439 5.68744 15.5781L7.46744 15.1331C7.79914 15.0502 8.06547 14.8036 8.17359 14.4792L8.89459 12.3162C8.96301 12.111 8.96301 11.889 8.89459 11.6838Z" fill="#222222"/>
</svg>
