<svg width="24" height="24" viewBox="0 0 24 24" fill="none" xmlns="http://www.w3.org/2000/svg">
<path fill-rule="evenodd" clip-rule="evenodd" d="M16.975 8.50083C17.0026 8.7756 17.2239 9 17.5 9C19.433 9 21 10.567 21 12.5C21 14.433 19.433 16 17.5 16C17.0341 16 16.8011 16 16.6173 15.9239C16.3723 15.8224 16.1776 15.6277 16.0761 15.3827C16 15.1989 16 14.9659 16 14.5V13.0556C16 11.951 15.1046 11.0556 14 11.0556H10C8.89543 11.0556 8 11.951 8 13.0556V14.5C8 14.9659 8 15.1989 7.92388 15.3827C7.82239 15.6277 7.62771 15.8224 7.38268 15.9239C7.19891 16 6.96594 16 6.5 16C4.567 16 3 14.433 3 12.5C3 10.567 4.567 9 6.5 9C6.77614 9 6.99741 8.7756 7.02498 8.50083C7.04098 8.34137 7.06467 8.18242 7.09607 8.02455C7.2457 7.27235 7.56635 6.56465 8.03323 5.95619C8.50012 5.34774 9.10071 4.85484 9.78856 4.51564C10.4764 4.17643 11.2331 4 12 4C12.7669 4 13.5236 4.17643 14.2114 4.51564C14.8993 4.85484 15.4999 5.34774 15.9668 5.95619C16.4336 6.56465 16.7543 7.27235 16.9039 8.02455C16.9353 8.18242 16.959 8.34137 16.975 8.50083Z" fill="#2A4157" fill-opacity="0.24"/>
<path d="M7.09607 8.02455L7.68454 8.1416L7.68455 8.1416L7.09607 8.02455ZM9.78856 4.51564L10.0539 5.05376V5.05376L9.78856 4.51564ZM14.2114 4.51564L13.9461 5.05376V5.05376L14.2114 4.51564ZM15.9668 5.95619L15.4908 6.32145V6.32145L15.9668 5.95619ZM16.9039 8.02455L17.4924 7.90749V7.90749L16.9039 8.02455ZM7.02498 8.50083L6.42798 8.44093L7.02498 8.50083ZM7.92388 15.3827L8.47821 15.6123L7.92388 15.3827ZM7.38268 15.9239L7.61229 16.4782L7.38268 15.9239ZM16.6173 15.9239L16.8469 15.3696L16.6173 15.9239ZM16.0761 15.3827L16.6304 15.1531L16.0761 15.3827ZM16.975 8.50083L17.572 8.44093L16.975 8.50083ZM17.5 9.6C19.1016 9.6 20.4 10.8984 20.4 12.5H21.6C21.6 10.2356 19.7644 8.4 17.5 8.4V9.6ZM20.4 12.5C20.4 14.1016 19.1016 15.4 17.5 15.4V16.6C19.7644 16.6 21.6 14.7644 21.6 12.5H20.4ZM16.6 14.5V13.0556H15.4V14.5H16.6ZM16.6 13.0556C16.6 11.6196 15.4359 10.4556 14 10.4556V11.6556C14.7732 11.6556 15.4 12.2824 15.4 13.0556H16.6ZM14 10.4556H10V11.6556H14V10.4556ZM10 10.4556C8.56406 10.4556 7.4 11.6196 7.4 13.0556H8.6C8.6 12.2824 9.2268 11.6556 10 11.6556V10.4556ZM7.4 13.0556V14.5H8.6V13.0556H7.4ZM6.5 15.4C4.89837 15.4 3.6 14.1016 3.6 12.5H2.4C2.4 14.7644 4.23563 16.6 6.5 16.6V15.4ZM3.6 12.5C3.6 10.8984 4.89837 9.6 6.5 9.6V8.4C4.23563 8.4 2.4 10.2356 2.4 12.5H3.6ZM6.5076 7.90749C6.47243 8.08431 6.4459 8.26233 6.42798 8.44093L7.62198 8.56073C7.63606 8.42041 7.65691 8.28053 7.68454 8.1416L6.5076 7.90749ZM7.55722 5.59094C7.03431 6.2724 6.67518 7.06503 6.5076 7.90749L7.68455 8.1416C7.81621 7.47967 8.09839 6.85689 8.50925 6.32145L7.55722 5.59094ZM9.52318 3.97751C8.7528 4.35743 8.08013 4.90947 7.55722 5.59094L8.50925 6.32145C8.9201 5.78601 9.44863 5.35226 10.0539 5.05376L9.52318 3.97751ZM12 3.4C11.141 3.4 10.2936 3.5976 9.52318 3.97751L10.0539 5.05376C10.6592 4.75526 11.3251 4.6 12 4.6V3.4ZM14.4768 3.97751C13.7064 3.5976 12.859 3.4 12 3.4V4.6C12.6749 4.6 13.3408 4.75526 13.9461 5.05376L14.4768 3.97751ZM16.4428 5.59094C15.9199 4.90947 15.2472 4.35743 14.4768 3.97751L13.9461 5.05376C14.5514 5.35226 15.0799 5.78601 15.4908 6.32145L16.4428 5.59094ZM17.4924 7.90749C17.3248 7.06503 16.9657 6.2724 16.4428 5.59094L15.4908 6.32145C15.9016 6.85689 16.1838 7.47967 16.3155 8.1416L17.4924 7.90749ZM17.572 8.44093C17.5541 8.26233 17.5276 8.08431 17.4924 7.90749L16.3155 8.1416C16.3431 8.28053 16.3639 8.42041 16.378 8.56073L17.572 8.44093ZM6.5 9.6C7.1209 9.6 7.56744 9.10432 7.62198 8.56073L6.42798 8.44093C6.42842 8.43651 6.43029 8.4302 6.43804 8.42269C6.44245 8.41841 6.44996 8.41267 6.46131 8.40788C6.47319 8.40286 6.48678 8.4 6.5 8.4V9.6ZM7.4 14.5C7.4 14.7412 7.39967 14.892 7.39188 15.0063C7.38445 15.1152 7.37228 15.1465 7.36955 15.1531L8.47821 15.6123C8.5516 15.4351 8.57749 15.258 8.58909 15.088C8.60033 14.9234 8.6 14.7248 8.6 14.5H7.4ZM6.5 16.6C6.72476 16.6 6.92338 16.6003 7.088 16.5891C7.258 16.5775 7.43511 16.5516 7.61229 16.4782L7.15307 15.3696C7.14648 15.3723 7.11522 15.3844 7.00631 15.3919C6.89202 15.3997 6.74118 15.4 6.5 15.4V16.6ZM7.36955 15.1531C7.32895 15.2511 7.25108 15.329 7.15307 15.3696L7.61229 16.4782C8.00434 16.3158 8.31582 16.0043 8.47821 15.6123L7.36955 15.1531ZM17.5 15.4C17.2588 15.4 17.108 15.3997 16.9937 15.3919C16.8848 15.3844 16.8535 15.3723 16.8469 15.3696L16.3877 16.4782C16.5649 16.5516 16.742 16.5775 16.912 16.5891C17.0766 16.6003 17.2752 16.6 17.5 16.6V15.4ZM15.4 14.5C15.4 14.7248 15.3997 14.9234 15.4109 15.088C15.4225 15.258 15.4484 15.4351 15.5218 15.6123L16.6304 15.1531C16.6277 15.1465 16.6156 15.1152 16.6081 15.0063C16.6003 14.892 16.6 14.7412 16.6 14.5H15.4ZM16.8469 15.3696C16.7489 15.329 16.671 15.2511 16.6304 15.1531L15.5218 15.6123C15.6842 16.0043 15.9957 16.3158 16.3877 16.4782L16.8469 15.3696ZM17.5 8.4C17.5132 8.4 17.5268 8.40286 17.5387 8.40788C17.55 8.41267 17.5575 8.41841 17.562 8.42269C17.5697 8.4302 17.5716 8.43651 17.572 8.44093L16.378 8.56073C16.4326 9.10432 16.8791 9.6 17.5 9.6V8.4Z" fill="#222222"/>
<rect x="8" y="11" width="8" height="10" rx="2" stroke="#222222" stroke-width="1.2"/>
<path d="M11.5 16H12.5" stroke="#222222" stroke-width="1.2" stroke-linecap="round"/>
</svg>
