<svg width="24" height="24" viewBox="0 0 24 24" fill="none" xmlns="http://www.w3.org/2000/svg">
<path d="M17.9792 7.50058C17.999 7.73832 18.009 7.85719 18.0704 7.92116C18.1318 7.98513 18.2542 8.00036 18.499 8.03082C20.4726 8.27643 22 9.95985 22 12C22 14.2091 20.2091 16 18 16H17.5C17.2643 16 17.1464 16 17.0732 15.9268C17 15.8536 17 15.7357 17 15.5V14C17 12.1144 17 11.1716 16.4142 10.5858C15.8284 10 14.8856 10 13 10H11C9.11438 10 8.17157 10 7.58579 10.5858C7 11.1716 7 12.1144 7 14V15.5C7 15.7357 7 15.8536 6.92678 15.9268C6.85355 16 6.7357 16 6.5 16H6C3.79086 16 2 14.2091 2 12C2 9.95985 3.52736 8.27643 5.50099 8.03082C5.74578 8.00036 5.86817 7.98513 5.9296 7.92116C5.99103 7.85719 6.00096 7.73832 6.02082 7.50058C6.03959 7.27582 6.07107 7.05175 6.11529 6.82946C6.29484 5.92682 6.67962 5.07758 7.23988 4.34743C7.80014 3.61729 8.52085 3.02581 9.34627 2.61876C10.1717 2.21171 11.0797 2 12 2C12.9203 2 13.8283 2.21171 14.6537 2.61876C15.4791 3.02581 16.1999 3.61729 16.7601 4.34743C17.3204 5.07757 17.7052 5.92682 17.8847 6.82946C17.9289 7.05175 17.9604 7.27582 17.9792 7.50058Z" fill="#222222"/>
<path fill-rule="evenodd" clip-rule="evenodd" d="M8.58579 11.5858C8 12.1716 8 13.1144 8 15V17C8 18.8856 8 19.8284 8.58579 20.4142C9.17157 21 10.1144 21 12 21C13.8856 21 14.8284 21 15.4142 20.4142C16 19.8284 16 18.8856 16 17V15C16 13.1144 16 12.1716 15.4142 11.5858C14.8284 11 13.8856 11 12 11C10.1144 11 9.17157 11 8.58579 11.5858ZM11.5 15C10.9477 15 10.5 15.4477 10.5 16C10.5 16.5523 10.9477 17 11.5 17H12.5C13.0523 17 13.5 16.5523 13.5 16C13.5 15.4477 13.0523 15 12.5 15H11.5Z" fill="#222222"/>
</svg>
