<svg width="24" height="24" viewBox="0 0 24 24" fill="none" xmlns="http://www.w3.org/2000/svg">
<path d="M7.09607 8.02455L8.07686 8.21964V8.21964L7.09607 8.02455ZM9.78856 4.51564L10.2308 5.41251L10.2308 5.41251L9.78856 4.51564ZM14.2114 4.51564L13.7692 5.41251L13.7692 5.41251L14.2114 4.51564ZM15.9668 5.95619L15.1734 6.56495L15.1734 6.56495L15.9668 5.95619ZM16.9039 8.02455L17.8847 7.82946V7.82946L16.9039 8.02455ZM7.02498 8.50083L6.02997 8.401L7.02498 8.50083ZM7.92388 15.3827L8.84776 15.7654L7.92388 15.3827ZM7.38268 15.9239L7.76537 16.8478L7.38268 15.9239ZM16.6173 15.9239L17 15L16.6173 15.9239ZM16.0761 15.3827L17 15L16.0761 15.3827ZM16.975 8.50083L17.97 8.401L16.975 8.50083ZM17.5 10C18.8807 10 20 11.1193 20 12.5H22C22 10.0147 19.9853 8 17.5 8V10ZM20 12.5C20 13.8807 18.8807 15 17.5 15V17C19.9853 17 22 14.9853 22 12.5H20ZM17 14.5V12.0556H15V14.5H17ZM17 12.0556C17 10.951 16.1046 10.0556 15 10.0556V12.0556V12.0556H17ZM15 10.0556H9V12.0556H15V10.0556ZM9 10.0556C7.89543 10.0556 7 10.951 7 12.0556H9V10.0556ZM7 12.0556V14.5H9V12.0556H7ZM6.5 15C5.11929 15 4 13.8807 4 12.5H2C2 14.9853 4.01472 17 6.5 17V15ZM4 12.5C4 11.1193 5.11929 10 6.5 10V8C4.01472 8 2 10.0147 2 12.5H4ZM6.11529 7.82946C6.07761 8.0189 6.04917 8.20964 6.02997 8.401L8.01998 8.60067C8.03278 8.4731 8.05174 8.34594 8.07686 8.21964L6.11529 7.82946ZM7.23988 5.34743C6.67962 6.07757 6.29483 6.92682 6.11529 7.82946L8.07686 8.21964C8.19656 7.61788 8.45308 7.05172 8.82659 6.56495L7.23988 5.34743ZM9.34627 3.61876C8.52085 4.02581 7.80014 4.61729 7.23988 5.34743L8.82659 6.56495C9.20009 6.07819 9.68057 5.68388 10.2308 5.41251L9.34627 3.61876ZM12 3C11.0797 3 10.1717 3.21171 9.34627 3.61876L10.2308 5.41251C10.7811 5.14114 11.3864 5 12 5V3ZM14.6537 3.61876C13.8283 3.21171 12.9203 3 12 3V5C12.6136 5 13.2189 5.14114 13.7692 5.41251L14.6537 3.61876ZM16.7601 5.34743C16.1999 4.61729 15.4791 4.02581 14.6537 3.61876L13.7692 5.41251C14.3194 5.68388 14.7999 6.07819 15.1734 6.56495L16.7601 5.34743ZM17.8847 7.82946C17.7052 6.92682 17.3204 6.07757 16.7601 5.34743L15.1734 6.56495C15.5469 7.05172 15.8034 7.61788 15.9231 8.21964L17.8847 7.82946ZM17.97 8.401C17.9508 8.20964 17.9224 8.0189 17.8847 7.82946L15.9231 8.21964C15.9483 8.34594 15.9672 8.4731 15.98 8.60067L17.97 8.401ZM6.5 10C7.35073 10 7.94746 9.32346 8.01998 8.60067L6.02997 8.401C6.04736 8.22773 6.20155 8 6.5 8V10ZM7 14.5C7 14.7467 6.99946 14.8816 6.9928 14.9791C6.98676 15.0676 6.97918 15.0503 7 15L8.84776 15.7654C8.9447 15.5313 8.97518 15.3056 8.98817 15.1152C9.00054 14.9338 9 14.7193 9 14.5H7ZM6.5 17C6.71929 17 6.93384 17.0005 7.11523 16.9882C7.3056 16.9752 7.53132 16.9447 7.76537 16.8478L7 15C7.05027 14.9792 7.06763 14.9868 6.97908 14.9928C6.88156 14.9995 6.74665 15 6.5 15V17ZM7 15L7.76537 16.8478C8.25542 16.6448 8.64477 16.2554 8.84776 15.7654L7 15ZM17.5 15C17.2533 15 17.1184 14.9995 17.0209 14.9928C16.9324 14.9868 16.9497 14.9792 17 15L16.2346 16.8478C16.4687 16.9447 16.6944 16.9752 16.8848 16.9882C17.0662 17.0005 17.2807 17 17.5 17V15ZM15 14.5C15 14.7193 14.9995 14.9338 15.0118 15.1152C15.0248 15.3056 15.0553 15.5313 15.1522 15.7654L17 15C17.0208 15.0503 17.0132 15.0676 17.0072 14.9791C17.0005 14.8816 17 14.7467 17 14.5H15ZM17 15L15.1522 15.7654C15.3552 16.2554 15.7446 16.6448 16.2346 16.8478L17 15ZM17.5 8C17.7984 8 17.9526 8.22773 17.97 8.401L15.98 8.60067C16.0525 9.32346 16.6493 10 17.5 10V8Z" fill="#33363F"/>
<rect x="8" y="11" width="8" height="10" rx="2" stroke="#33363F" stroke-width="2"/>
<path d="M11.5 16H12.5" stroke="#33363F" stroke-width="2" stroke-linecap="round"/>
</svg>
