<svg width="24" height="24" viewBox="0 0 24 24" fill="none" xmlns="http://www.w3.org/2000/svg">
<path fill-rule="evenodd" clip-rule="evenodd" d="M2.28857 12C2.28857 12.5188 2.55293 12.9941 3.08164 13.9445L4.43089 16.37L5.85681 18.7512C6.41556 19.6843 6.69493 20.1509 7.14426 20.4103C7.59359 20.6697 8.13733 20.6784 9.22479 20.6957L12 20.74L14.7751 20.6957C15.8626 20.6784 16.4063 20.6697 16.8556 20.4103C17.305 20.1509 17.5843 19.6843 18.1431 18.7512L19.569 16.37L20.9183 13.9445L20.9183 13.9445C21.447 12.9941 21.7113 12.5188 21.7113 12C21.7113 11.4812 21.447 11.0059 20.9183 10.0555L20.9183 10.0555L19.569 7.62999L18.1431 5.24876C17.5843 4.31566 17.305 3.84911 16.8556 3.58969C16.4063 3.33027 15.8626 3.3216 14.7751 3.30425L14.7751 3.30425L12 3.25999L9.22479 3.30425L9.22476 3.30425C8.13732 3.3216 7.59359 3.33027 7.14426 3.58969C6.69493 3.84911 6.41556 4.31566 5.85681 5.24876L4.43089 7.62999L3.08164 10.0555C2.55293 11.0059 2.28857 11.4812 2.28857 12ZM12 15C13.6568 15 15 13.6568 15 12C15 10.3431 13.6568 8.99999 12 8.99999C10.3431 8.99999 8.99995 10.3431 8.99995 12C8.99995 13.6568 10.3431 15 12 15Z" fill="#2A4157" fill-opacity="0.24"/>
<path d="M3.08168 13.9445C2.55298 12.9941 2.28862 12.5188 2.28862 12C2.28862 11.4812 2.55298 11.0059 3.08169 10.0555L4.43094 7.63L5.85685 5.24876C6.4156 4.31567 6.69498 3.84912 7.14431 3.5897C7.59364 3.33028 8.13737 3.3216 9.22483 3.30426L12 3.26L14.7752 3.30426C15.8626 3.3216 16.4064 3.33028 16.8557 3.5897C17.305 3.84912 17.5844 4.31567 18.1431 5.24876L19.5691 7.63L20.9183 10.0555C21.447 11.0059 21.7114 11.4812 21.7114 12C21.7114 12.5188 21.447 12.9941 20.9183 13.9445L19.5691 16.37L18.1431 18.7512C17.5844 19.6843 17.305 20.1509 16.8557 20.4103C16.4064 20.6697 15.8626 20.6784 14.7752 20.6957L12 20.74L9.22483 20.6957C8.13737 20.6784 7.59364 20.6697 7.14431 20.4103C6.69498 20.1509 6.4156 19.6843 5.85685 18.7512L4.43094 16.37L3.08168 13.9445Z" stroke="#33363F" stroke-width="1.2"/>
<circle cx="12" cy="12" r="3" stroke="#33363F" stroke-width="1.2"/>
</svg>
