<svg width="24" height="24" viewBox="0 0 24 24" fill="none" xmlns="http://www.w3.org/2000/svg">
<path d="M5.5 10V17.5C5.5 18.4428 5.5 18.9142 5.79289 19.2071C6.08579 19.5 6.55719 19.5 7.5 19.5H16.5C17.4428 19.5 17.9142 19.5 18.2071 19.2071C18.5 18.9142 18.5 18.4428 18.5 17.5V10" stroke="#2A4157" stroke-opacity="0.24"/>
<path d="M14.5 19V15C14.5 13.8954 13.6046 13 12.5 13H11.5C10.3954 13 9.5 13.8954 9.5 15V19" stroke="#222222" stroke-linejoin="round"/>
<path d="M4.461 5.92432C4.96491 4.74853 5.21687 4.16064 5.71781 3.83032C6.21875 3.5 6.85836 3.5 8.13758 3.5H15.8624C17.1416 3.5 17.7812 3.5 18.2822 3.83032C18.7831 4.16064 19.0351 4.74853 19.539 5.92432L20.2744 7.64037C20.5664 8.32165 20.7124 8.66229 20.7239 8.93748C20.7508 9.5827 20.3617 10.1727 19.7581 10.4021C19.5006 10.5 19.13 10.5 18.3888 10.5V10.5C18.1586 10.5 18.0435 10.5 17.9396 10.4776C17.6994 10.426 17.4867 10.2877 17.3419 10.0892C17.2793 10.0033 17.2325 9.89814 17.139 9.68779L16.3114 7.82561C16.0164 7.16195 15.8689 6.83012 15.783 6.85845C15.6971 6.88678 15.7758 7.24126 15.9334 7.95023L15.9949 8.22713C16.2105 9.19722 16.3183 9.68227 16.1019 10.0292C16.06 10.0963 16.0104 10.1581 15.9541 10.2135C15.6623 10.5 15.1654 10.5 14.1717 10.5V10.5C13.4354 10.5 13.0673 10.5 12.8031 10.306C12.7511 10.2678 12.703 10.2247 12.6594 10.1773C12.4374 9.93621 12.3967 9.57032 12.3154 8.83854L12.1988 7.78899C12.1259 7.13336 12.0895 6.80554 12 6.80554C11.9105 6.80554 11.8741 7.13336 11.8012 7.78899L11.6846 8.83854C11.6033 9.57032 11.5626 9.93621 11.3406 10.1773C11.297 10.2247 11.2489 10.2678 11.1969 10.306C10.9327 10.5 10.5646 10.5 9.82832 10.5V10.5C8.83456 10.5 8.33768 10.5 8.04592 10.2135C7.98956 10.1581 7.93995 10.0963 7.89814 10.0292C7.68172 9.68227 7.78951 9.19722 8.00508 8.22713L8.06662 7.95023C8.22416 7.24126 8.30294 6.88678 8.217 6.85845C8.13106 6.83012 7.98358 7.16195 7.68862 7.82561L6.86098 9.68779C6.76749 9.89814 6.72075 10.0033 6.65809 10.0892C6.51334 10.2877 6.30059 10.426 6.06043 10.4776C5.95647 10.5 5.84137 10.5 5.61119 10.5V10.5C4.86998 10.5 4.49937 10.5 4.24191 10.4021C3.63826 10.1727 3.2492 9.5827 3.27611 8.93748C3.28759 8.66229 3.43358 8.32165 3.72556 7.64037L4.461 5.92432Z" stroke="#222222"/>
</svg>
