<svg width="24" height="24" viewBox="0 0 24 24" fill="none" xmlns="http://www.w3.org/2000/svg">
<path fill-rule="evenodd" clip-rule="evenodd" d="M5.05847 12C5.02618 12 5 12.0262 5 12.0585V19C5 19.9428 5 20.4142 5.29289 20.7071C5.58579 21 6.05719 21 7 21H17C17.9428 21 18.4142 21 18.7071 20.7071C19 20.4142 19 19.9428 19 19V12.0585C19 12.0262 18.9738 12 18.9415 12H17.693L17.664 12C17.5229 12.0001 17.3461 12.0002 17.1891 11.9827C16.9962 11.9612 16.7417 11.9059 16.4921 11.7329C16.4303 11.6901 16.3475 11.6892 16.2846 11.7305C16.0516 11.884 15.807 11.9428 15.6188 11.9692C15.3968 12.0003 15.1352 12.0002 14.9104 12L14.8672 12H13.3828L13.3471 12C13.1695 12.0001 12.9537 12.0003 12.7658 11.9764C12.3376 11.9218 12.1236 11.8945 12.1207 11.8942C11.6786 11.8404 12.3214 11.8404 11.8793 11.8942C11.8764 11.8945 11.6624 11.9218 11.2342 11.9764C11.0463 12.0003 10.8305 12.0001 10.6529 12L10.6172 12H9.13278L9.08955 12C8.86475 12.0002 8.6032 12.0003 8.38121 11.9692C8.19302 11.9428 7.94837 11.884 7.71535 11.7305C7.65252 11.6892 7.56972 11.6901 7.50789 11.7329C7.25826 11.9059 7.00385 11.9612 6.81094 11.9827C6.65394 12.0002 6.47706 12.0001 6.33605 12L6.307 12H5.05847ZM5.93366 11C5.43742 11 4.9946 10.5553 5.22166 10.1141C5.44333 9.68335 5.8539 9.39009 6.67505 8.80356L9.67505 6.6607C10.7977 5.85878 11.3591 5.45782 12 5.45782C12.6409 5.45782 13.2023 5.85878 14.325 6.6607L17.325 8.80356C18.1461 9.39009 18.5567 9.68335 18.7783 10.1141C19.0054 10.5553 18.5626 11 18.0663 11H17.693C17.3578 11 17.1902 11 17.0617 10.911C16.9954 10.8651 16.9477 10.8011 16.9009 10.7068C16.8569 10.6183 16.8137 10.5032 16.7567 10.3512L16.7567 10.3511L16.5463 9.79013L16.1132 8.63514L16.1129 8.63441L16.0964 8.59042L16.0964 8.5904C15.8768 8.00478 15.767 7.71196 15.6806 7.73323C15.5943 7.7545 15.6331 8.06481 15.7107 8.68543V8.68544L15.7165 8.73207L15.7166 8.73284L15.8595 9.87598V9.87599C15.9078 10.2626 15.9383 10.5065 15.891 10.6758C15.8807 10.7127 15.8666 10.7461 15.8482 10.7767C15.8367 10.7958 15.8235 10.8139 15.8084 10.8309C15.6592 11 15.3952 11 14.8672 11H13.3828C12.9624 11 12.7523 11 12.6105 10.8749C12.5751 10.8436 12.5468 10.8071 12.5237 10.7634C12.4617 10.6469 12.4355 10.4792 12.403 10.2232L12.3905 10.1241L12.2104 8.68318L12.2048 8.63806L12.1985 8.58766C12.125 8.00005 12.0883 7.70624 12 7.70624C11.9117 7.70624 11.875 8.00005 11.8015 8.58766L11.7952 8.63806L11.7896 8.68318L11.6095 10.1241L11.597 10.2232C11.5645 10.4792 11.5383 10.6469 11.4763 10.7634C11.4532 10.8071 11.4249 10.8436 11.3895 10.8749C11.2477 11 11.0376 11 10.6172 11H9.13278C8.60481 11 8.34083 11 8.19155 10.8309C8.17649 10.8139 8.16327 10.7958 8.15176 10.7767C8.13338 10.7461 8.11933 10.7127 8.109 10.6758C8.06169 10.5065 8.09218 10.2626 8.1405 9.876L8.1405 9.87598L8.2834 8.73284L8.28349 8.73207L8.28932 8.68545L8.28932 8.68544L8.28932 8.68543C8.3669 8.06481 8.40569 7.7545 8.31935 7.73323C8.23302 7.71196 8.12321 8.00478 7.9036 8.59042L7.8871 8.63441L7.88683 8.63514L7.45371 9.79013L7.24333 10.3511C7.18633 10.5031 7.14313 10.6183 7.09914 10.7068C7.05229 10.8011 7.00456 10.8651 6.9383 10.911C6.80982 11 6.64221 11 6.307 11H5.93366Z" fill="#2A4157" fill-opacity="0.24"/>
<path d="M4.62127 4.51493C4.80316 3.78737 4.8941 3.42359 5.16536 3.21179C5.43663 3 5.8116 3 6.56155 3H17.4384C18.1884 3 18.5634 3 18.8346 3.21179C19.1059 3.42359 19.1968 3.78737 19.3787 4.51493L20.8447 10.3787C20.9162 10.6647 20.9519 10.8077 20.8769 10.9039C20.8018 11 20.6544 11 20.3596 11H17.744C17.3856 11 17.2064 11 17.0736 10.9011C16.9407 10.8023 16.8892 10.6306 16.7862 10.2873L16.0975 7.99155C15.8809 7.26969 15.7726 6.90876 15.6835 6.92642C15.5944 6.94407 15.6319 7.31902 15.7069 8.06892L15.89 9.9005C15.9414 10.4142 15.9671 10.671 15.8182 10.8355C15.6694 11 15.4112 11 14.895 11H13.405C12.9749 11 12.7598 11 12.617 10.8707C12.4741 10.7415 12.4527 10.5275 12.41 10.0995L12.199 7.99008C12.1267 7.26668 12.0905 6.90499 12 6.90499C11.9095 6.90499 11.8733 7.26668 11.801 7.99007L11.59 10.0995C11.5473 10.5275 11.5259 10.7415 11.383 10.8707C11.2402 11 11.0251 11 10.595 11H9.10499C8.58875 11 8.33064 11 8.18177 10.8355C8.0329 10.671 8.05858 10.4142 8.10995 9.9005L8.29311 8.06892C8.3681 7.31902 8.40559 6.94407 8.31648 6.92642C8.22737 6.90876 8.11909 7.26969 7.90254 7.99155L7.2138 10.2873C7.11081 10.6306 7.05931 10.8023 6.92645 10.9011C6.79359 11 6.61438 11 6.25597 11H3.64039C3.3456 11 3.19821 11 3.12314 10.9039C3.04807 10.8077 3.08382 10.6647 3.15532 10.3787L4.62127 4.51493Z" fill="#222222"/>
<path d="M12.5 15H11.5C10.3954 15 9.5 15.8954 9.5 17V20.85C9.5 20.9328 9.56716 21 9.65 21H14.35C14.4328 21 14.5 20.9328 14.5 20.85V17C14.5 15.8954 13.6046 15 12.5 15Z" fill="#222222"/>
</svg>
