<svg width="24" height="24" viewBox="0 0 24 24" fill="none" xmlns="http://www.w3.org/2000/svg">
<path d="M10.3675 6.54415L16.6838 4.43874C17.3313 4.2229 18 4.70487 18 5.38743V18.6126C18 19.2951 17.3313 19.7771 16.6838 19.5613L10.3675 17.4558C9.55086 17.1836 9 16.4193 9 15.5585V8.44152C9 7.58066 9.55086 6.81638 10.3675 6.54415Z" fill="#2A4157" fill-opacity="0.24"/>
<path d="M6.85355 9.85355C7.04882 9.65829 7.04882 9.34171 6.85355 9.14645C6.65829 8.95118 6.34171 8.95118 6.14645 9.14645L6.85355 9.85355ZM4 12L3.64645 11.6464L3.29289 12L3.64645 12.3536L4 12ZM6.14645 14.8536C6.34171 15.0488 6.65829 15.0488 6.85355 14.8536C7.04882 14.6583 7.04882 14.3417 6.85355 14.1464L6.14645 14.8536ZM14 12.5C14.2761 12.5 14.5 12.2761 14.5 12C14.5 11.7239 14.2761 11.5 14 11.5V12.5ZM6.14645 9.14645L3.64645 11.6464L4.35355 12.3536L6.85355 9.85355L6.14645 9.14645ZM3.64645 12.3536L6.14645 14.8536L6.85355 14.1464L4.35355 11.6464L3.64645 12.3536ZM4 12.5H14V11.5H4V12.5Z" fill="#222222"/>
</svg>
