<svg width="24" height="24" viewBox="0 0 24 24" fill="none" xmlns="http://www.w3.org/2000/svg">
<path d="M8 18.9282C9.21615 19.6303 10.5957 20 12 20C13.4043 20 14.7838 19.6303 16 18.9282C17.2162 18.2261 18.2261 17.2162 18.9282 16C19.6303 14.7838 20 13.4043 20 12C20 10.5957 19.6303 9.21615 18.9282 8C18.2261 6.78385 17.2162 5.77394 16 5.0718C14.7838 4.36965 13.4043 4 12 4C10.5957 4 9.21615 4.36965 8 5.0718" stroke="#33363F" stroke-width="2"/>
<path d="M2 12L1.21913 11.3753L0.719375 12L1.21913 12.6247L2 12ZM11 13C11.5523 13 12 12.5523 12 12C12 11.4477 11.5523 11 11 11V13ZM5.21913 6.3753L1.21913 11.3753L2.78087 12.6247L6.78087 7.6247L5.21913 6.3753ZM1.21913 12.6247L5.21913 17.6247L6.78087 16.3753L2.78087 11.3753L1.21913 12.6247ZM2 13H11V11H2V13Z" fill="#33363F"/>
</svg>
