<svg width="24" height="24" viewBox="0 0 24 24" fill="none" xmlns="http://www.w3.org/2000/svg">
<path d="M11.1464 9.85355C10.9512 9.65829 10.9512 9.34171 11.1464 9.14645C11.3417 8.95118 11.6583 8.95118 11.8536 9.14645L11.1464 9.85355ZM14 12L14.3536 11.6464L14.7071 12L14.3536 12.3536L14 12ZM11.8536 14.8536C11.6583 15.0488 11.3417 15.0488 11.1464 14.8536C10.9512 14.6583 10.9512 14.3417 11.1464 14.1464L11.8536 14.8536ZM4 12.5C3.72386 12.5 3.5 12.2761 3.5 12C3.5 11.7239 3.72386 11.5 4 11.5V12.5ZM11.8536 9.14645L14.3536 11.6464L13.6464 12.3536L11.1464 9.85355L11.8536 9.14645ZM14.3536 12.3536L11.8536 14.8536L11.1464 14.1464L13.6464 11.6464L14.3536 12.3536ZM14 12.5H4V11.5H14V12.5Z" fill="#222222"/>
<path d="M8.5 9V4.7198C8.5 4.08876 9.07732 3.61546 9.69612 3.73922L17.6961 5.33922C18.1635 5.43271 18.5 5.84312 18.5 6.3198V17.6802C18.5 18.1569 18.1635 18.5673 17.6961 18.6608L9.69612 20.2608C9.07733 20.3845 8.5 19.9112 8.5 19.2802V15" stroke="#2A4157" stroke-opacity="0.24" stroke-linejoin="round"/>
</svg>
