<svg width="24" height="24" viewBox="0 0 24 24" fill="none" xmlns="http://www.w3.org/2000/svg">
<path d="M4.92893 19.0711C6.32746 20.4696 8.10929 21.422 10.0491 21.8079C11.9889 22.1937 13.9996 21.9957 15.8268 21.2388C17.6541 20.4819 19.2159 19.2002 20.3147 17.5557C21.4135 15.9112 22 13.9778 22 12C22 10.0222 21.4135 8.08879 20.3147 6.4443C19.2159 4.79981 17.6541 3.51808 15.8268 2.76121C13.9996 2.00433 11.9889 1.8063 10.0491 2.19215C8.10929 2.578 6.32746 3.53041 4.92893 4.92893" stroke="#222222"/>
<path d="M15 12L15.3904 11.6877L15.6403 12L15.3904 12.3123L15 12ZM3 12.5C2.72386 12.5 2.5 12.2761 2.5 12C2.5 11.7239 2.72386 11.5 3 11.5V12.5ZM11.3904 6.68765L15.3904 11.6877L14.6096 12.3123L10.6096 7.31235L11.3904 6.68765ZM15.3904 12.3123L11.3904 17.3123L10.6096 16.6877L14.6096 11.6877L15.3904 12.3123ZM15 12.5H3V11.5H15V12.5Z" fill="#222222"/>
</svg>
