<svg width="24" height="24" viewBox="0 0 24 24" fill="none" xmlns="http://www.w3.org/2000/svg">
<path d="M16.6325 6.54415L10.3162 4.43874C9.6687 4.2229 9 4.70487 9 5.38743V18.6126C9 19.2951 9.66869 19.7771 10.3162 19.5613L16.6325 17.4558C17.4491 17.1836 18 16.4193 18 15.5585V8.44152C18 7.58066 17.4491 6.81638 16.6325 6.54415Z" fill="#2A4157" fill-opacity="0.24"/>
<path d="M11.1464 9.85355C10.9512 9.65829 10.9512 9.34171 11.1464 9.14645C11.3417 8.95118 11.6583 8.95118 11.8536 9.14645L11.1464 9.85355ZM14 12L14.3536 11.6464L14.7071 12L14.3536 12.3536L14 12ZM11.8536 14.8536C11.6583 15.0488 11.3417 15.0488 11.1464 14.8536C10.9512 14.6583 10.9512 14.3417 11.1464 14.1464L11.8536 14.8536ZM4 12.5C3.72386 12.5 3.5 12.2761 3.5 12C3.5 11.7239 3.72386 11.5 4 11.5V12.5ZM11.8536 9.14645L14.3536 11.6464L13.6464 12.3536L11.1464 9.85355L11.8536 9.14645ZM14.3536 12.3536L11.8536 14.8536L11.1464 14.1464L13.6464 11.6464L14.3536 12.3536ZM14 12.5H4V11.5H14V12.5Z" fill="#222222"/>
</svg>
