<svg width="24" height="24" viewBox="0 0 24 24" fill="none" xmlns="http://www.w3.org/2000/svg">
<ellipse rx="8" ry="8" transform="matrix(4.37114e-08 -1 -1 -4.37114e-08 14 12)" fill="#2A4157" fill-opacity="0.24"/>
<path d="M5.7 12C5.7 7.41604 9.41604 3.7 14 3.7C18.584 3.7 22.3 7.41604 22.3 12C22.3 16.584 18.584 20.3 14 20.3C9.41604 20.3 5.7 16.584 5.7 12Z" stroke="#2A4157" stroke-opacity="0.24" stroke-width="0.6"/>
<path d="M4.92893 19.0711C6.32746 20.4696 8.10929 21.422 10.0491 21.8079C11.9889 22.1937 13.9996 21.9957 15.8268 21.2388C17.6541 20.4819 19.2159 19.2002 20.3147 17.5557C21.4135 15.9112 22 13.9778 22 12C22 10.0222 21.4135 8.08879 20.3147 6.4443C19.2159 4.79981 17.6541 3.51808 15.8268 2.76121C13.9996 2.00433 11.9889 1.8063 10.0491 2.19215C8.10929 2.578 6.32746 3.53041 4.92893 4.92893" stroke="#222222" stroke-width="1.2"/>
<path d="M15 12L15.4685 11.6252L15.7684 12L15.4685 12.3748L15 12ZM3 12.6C2.66863 12.6 2.4 12.3314 2.4 12C2.4 11.6686 2.66863 11.4 3 11.4V12.6ZM11.4685 6.62518L15.4685 11.6252L14.5315 12.3748L10.5315 7.37482L11.4685 6.62518ZM15.4685 12.3748L11.4685 17.3748L10.5315 16.6252L14.5315 11.6252L15.4685 12.3748ZM15 12.6H3V11.4H15V12.6Z" fill="#222222"/>
</svg>
