<svg width="24" height="24" viewBox="0 0 24 24" fill="none" xmlns="http://www.w3.org/2000/svg">
<path d="M3 7H4.77985C6.93172 7 8.00766 7 8.87921 7.45631C9.25172 7.65134 9.59114 7.90388 9.88499 8.20464C10.5725 8.90832 10.8817 9.93888 11.5 12V12C12.1183 14.0611 12.4275 15.0917 13.115 15.7954C13.4089 16.0961 13.7483 16.3487 14.1208 16.5437C14.9923 17 16.0683 17 18.2202 17H21M21 17L18 14M21 17L18 20" stroke="#33363F" stroke-width="2"/>
<path fill-rule="evenodd" clip-rule="evenodd" d="M21.7071 6.29297L18.7071 3.29297L17.2929 4.70718L18.5858 6.00008H18.2202L18.1753 6.00008H18.1753C17.1374 6.00006 16.2935 6.00005 15.6025 6.06098C14.8846 6.12428 14.2534 6.25819 13.657 6.57047C13.2113 6.80377 12.8036 7.10292 12.4474 7.45771C12.6883 7.85138 12.8778 8.25889 13.0406 8.66744C13.1539 8.95149 13.2635 9.26091 13.3726 9.59127C13.5242 9.27607 13.6695 9.06816 13.8303 8.90355C14.0507 8.67799 14.3052 8.48858 14.5846 8.34231C14.8597 8.19827 15.2022 8.10403 15.7782 8.05325C16.3711 8.00097 17.1267 8.00008 18.2202 8.00008H18.5858L17.2929 9.29297L18.7071 10.7072L21.7071 7.70718L22.4142 7.00008L21.7071 6.29297ZM10.5526 16.5424C10.3117 16.1488 10.1222 15.7413 9.95935 15.3327C9.8461 15.0487 9.73651 14.7392 9.62739 14.4089C9.4758 14.7241 9.33053 14.932 9.16971 15.0966C8.94933 15.3222 8.69476 15.5116 8.41538 15.6578C8.14027 15.8019 7.79776 15.8961 7.22182 15.9469C6.62893 15.9992 5.87329 16.0001 4.77985 16.0001H3V18.0001H4.77985H4.8247H4.82472C5.86257 18.0001 6.70648 18.0001 7.39748 17.9392C8.11537 17.8759 8.7466 17.742 9.34305 17.4297C9.78866 17.1964 10.1964 16.8972 10.5526 16.5424Z" fill="#33363F"/>
</svg>
