<svg width="24" height="24" viewBox="0 0 24 24" fill="none" xmlns="http://www.w3.org/2000/svg">
<path d="M4.15838 13.9306C3.44537 12.7423 3.44537 11.2577 4.15838 10.0694C4.37596 9.70674 4.73641 9.45272 5.1511 9.36978L6.84413 9.03117C6.94499 9.011 7.03591 8.95691 7.10176 8.87788L9.17085 6.39498C10.3534 4.97592 10.9447 4.26638 11.4723 4.45742C12 4.64846 12 5.57207 12 7.41928L12 16.5807C12 18.4279 12 19.3515 11.4723 19.5426C10.9447 19.7336 10.3534 19.0241 9.17085 17.605L7.10176 15.1221C7.03591 15.0431 6.94499 14.989 6.84413 14.9688L5.1511 14.6302C4.73641 14.5473 4.37596 14.2933 4.15838 13.9306Z" fill="#222222"/>
<path d="M14.5355 8.46447C15.4684 9.39732 15.9948 10.6611 16 11.9803C16.0052 13.2996 15.4888 14.5674 14.5633 15.5076" stroke="#222222" stroke-width="2" stroke-linecap="round"/>
<path d="M18.6569 6.34314C20.1494 7.83572 20.9916 9.85769 20.9999 11.9685C21.0083 14.0793 20.182 16.1078 18.7012 17.6121" stroke="#222222" stroke-width="2" stroke-linecap="round"/>
</svg>
