<svg width="24" height="24" viewBox="0 0 24 24" fill="none" xmlns="http://www.w3.org/2000/svg">
<path fill-rule="evenodd" clip-rule="evenodd" d="M13 16.7531V14H8.81758C7.20084 14 5.83012 15.1888 5.60148 16.7893C5.29853 18.9099 7.09494 20.7381 9.22054 20.4724L9.77817 20.4027C11.6187 20.1727 13 18.608 13 16.7531Z" fill="#222222"/>
<path d="M13 8V7.38851C13 5.77017 13 4.961 13.4739 4.40151C13.9479 3.84202 14.746 3.70899 16.3424 3.44294L18.6991 3.05015C18.8349 3.02752 18.9028 3.0162 18.9394 3.05589C18.9761 3.09557 18.9594 3.16237 18.926 3.29594L18.0306 6.87722C18.0157 6.93689 18.0083 6.96673 17.9873 6.98673C17.9663 7.00673 17.9362 7.01276 17.8758 7.02483L13 8ZM13 8V14M13 14V16.7531C13 18.608 11.6187 20.1727 9.77817 20.4027L9.22054 20.4724C7.09494 20.7381 5.29853 18.9099 5.60148 16.7893C5.83012 15.1888 7.20084 14 8.81758 14H13Z" stroke="#222222" stroke-width="2"/>
</svg>
