<svg width="24" height="24" viewBox="0 0 24 24" fill="none" xmlns="http://www.w3.org/2000/svg">
<path d="M5 10C5 8.11438 5 7.17157 5.58579 6.58579C6.17157 6 7.11438 6 9 6H12.1265C13.0478 6 13.5084 6 13.9116 6.18882C14.3147 6.37764 14.6096 6.73152 15.1994 7.43926L16.8661 9.43927C17.8864 10.6637 18.3966 11.2759 18.3966 12C18.3966 12.7241 17.8864 13.3363 16.8661 14.5607L15.1994 16.5607C14.6096 17.2685 14.3147 17.6224 13.9116 17.8112C13.5084 18 13.0478 18 12.1265 18H9C7.11438 18 6.17157 18 5.58579 17.4142C5 16.8284 5 15.8856 5 14V10Z" fill="#222222"/>
</svg>
