<svg width="24" height="24" viewBox="0 0 24 24" fill="none" xmlns="http://www.w3.org/2000/svg">
<circle cx="17" cy="8" r="4" fill="#33363F"/>
<path fill-rule="evenodd" clip-rule="evenodd" d="M15 8C15 6.89543 15.8954 6 17 6C18.1046 6 19 6.89543 19 8H15ZM11 8C11 7.29873 11.1203 6.62556 11.3414 6H5C4.44772 6 4 6.44772 4 7C4 7.55228 4.44772 8 5 8H11ZM11.8027 11C12.2671 11.8028 12.9121 12.488 13.6822 13H5C4.44772 13 4 12.5523 4 12C4 11.4477 4.44772 11 5 11H11.8027ZM5 16C4.44772 16 4 16.4477 4 17C4 17.5523 4.44772 18 5 18H19C19.5523 18 20 17.5523 20 17C20 16.4477 19.5523 16 19 16H5Z" fill="#33363F"/>
</svg>
