<svg width="24" height="24" viewBox="0 0 24 24" fill="none" xmlns="http://www.w3.org/2000/svg">
<path d="M11.5 17.3V19.1638L11.5 19.197C11.5 19.5382 11.4999 19.8404 11.5266 20.0618C11.5403 20.1753 11.5656 20.3151 11.6282 20.4436C11.6982 20.5876 11.8308 20.7451 12.0529 20.8056C12.2751 20.8661 12.4692 20.7975 12.6026 20.7089C12.7217 20.6299 12.8143 20.5223 12.8837 20.4313C13.019 20.254 13.1721 19.9936 13.3451 19.6994L13.3619 19.6709L14.658 17.4675L14.6793 17.4314C15.0547 16.7932 15.3653 16.2653 15.54 15.8333C15.7195 15.3895 15.8134 14.9094 15.5537 14.4553C15.2938 14.001 14.832 13.8386 14.3582 13.7683C13.8969 13.7 13.2837 13.7 12.5424 13.7L12.5004 13.7C12.5003 13.7 12.5001 13.7 12.5 13.7V11.8362C12.5 11.8251 12.5 11.814 12.5 11.803C12.5 11.4618 12.5001 11.1596 12.4734 10.9382C12.4597 10.8247 12.4344 10.6849 12.3718 10.5564C12.3018 10.4124 12.1692 10.2549 11.9471 10.1944C11.7249 10.1339 11.5308 10.2025 11.3974 10.2911C11.2783 10.3701 11.1857 10.4777 11.1163 10.5687C10.981 10.746 10.8279 11.0064 10.6549 11.3006C10.6493 11.3101 10.6437 11.3196 10.6381 11.3291L9.342 13.5324L9.32071 13.5686C8.94529 14.2068 8.63473 14.7347 8.46001 15.1667C8.28047 15.6105 8.18662 16.0906 8.44634 16.5447C8.70615 16.999 9.16799 17.1614 9.64184 17.2317C10.1031 17.3 10.7163 17.3 11.4576 17.3L11.4996 17.3C11.4997 17.3 11.4999 17.3 11.5 17.3Z" stroke="#222222"/>
<path fill-rule="evenodd" clip-rule="evenodd" d="M12 2.5C9.76317 2.5 7.83928 3.83526 6.97989 5.75007C6.77146 6.21449 6.38469 6.5 6 6.5C4.067 6.5 2.5 8.067 2.5 10C2.5 11.6095 3.58644 12.9653 5.06597 13.374C5.13772 13.0369 5.2655 12.7212 5.4392 12.4369C4.32851 12.1823 3.5 11.1879 3.5 10C3.5 8.61929 4.61929 7.5 6 7.5C6.89538 7.5 7.57652 6.86297 7.89222 6.15954C8.59624 4.59089 10.1713 3.5 12 3.5C13.8287 3.5 15.4038 4.59089 16.1078 6.15954C16.4235 6.86297 17.1046 7.5 18 7.5C19.3807 7.5 20.5 8.61929 20.5 10C20.5 11.1879 19.6715 12.1823 18.5608 12.4369C18.7345 12.7212 18.8623 13.0369 18.934 13.374C20.4136 12.9653 21.5 11.6095 21.5 10C21.5 8.067 19.933 6.5 18 6.5C17.6153 6.5 17.2285 6.21449 17.0201 5.75007C16.1607 3.83526 14.2368 2.5 12 2.5Z" fill="#222222"/>
</svg>
