<svg width="24" height="24" viewBox="0 0 24 24" fill="none" xmlns="http://www.w3.org/2000/svg">
<path d="M12.3244 11.4595C12.3244 11.4596 12.3227 11.4615 12.3195 11.465C12.3228 11.4611 12.3244 11.4593 12.3244 11.4595ZM10.9804 11.0935C10.9805 11.0934 10.981 11.0957 10.9818 11.1007C10.9808 11.0961 10.9804 11.0936 10.9804 11.0935ZM11.6756 19.5405C11.6757 19.5404 11.6773 19.5385 11.6805 19.535C11.6772 19.5389 11.6756 19.5407 11.6756 19.5405ZM13.0196 19.9065C13.0195 19.9066 13.019 19.9043 13.0182 19.8993C13.0192 19.9039 13.0196 19.9064 13.0196 19.9065ZM9.56852 17.7262C9.96563 17.7851 10.4559 17.7971 11 17.7994V19.1638C11 19.1812 11 19.1986 11 19.2161C10.9999 19.5396 10.9998 19.8693 11.0302 20.1216C11.0461 20.2532 11.0794 20.4586 11.1785 20.6623C11.2927 20.897 11.5233 21.1796 11.9216 21.288C12.3198 21.3965 12.6618 21.2698 12.8792 21.1254C13.0679 21.0001 13.2009 20.8399 13.2812 20.7346C13.4354 20.5325 13.6025 20.2483 13.7664 19.9694C13.7753 19.9544 13.7841 19.9394 13.7929 19.9244L15.089 17.7211C15.1013 17.7001 15.1136 17.6792 15.1258 17.6584C15.4876 17.0435 15.8146 16.4877 16.0035 16.0208C16.2018 15.5306 16.3631 14.8635 15.9877 14.207C15.6121 13.5503 14.9547 13.3513 14.4315 13.2738C14.0344 13.2149 13.5441 13.2029 13 13.2006V11.8362C13 11.8188 13 11.8014 13 11.7839C13.0001 11.4604 13.0002 11.1307 12.9698 10.8784C12.9539 10.7468 12.9206 10.5414 12.8215 10.3377C12.7073 10.103 12.4767 9.82044 12.0784 9.71199C11.6802 9.60354 11.3382 9.73016 11.1208 9.87456C10.9321 9.99988 10.7991 10.1601 10.7188 10.2654C10.5646 10.4675 10.3975 10.7517 10.2336 11.0306C10.2247 11.0456 10.2159 11.0606 10.2071 11.0756L8.91103 13.2789C8.89871 13.2999 8.88643 13.3208 8.87419 13.3416C8.51236 13.9565 8.18536 14.5123 7.99649 14.9792C7.79818 15.4694 7.63686 16.1365 8.01232 16.793C8.38795 17.4497 9.04534 17.6487 9.56852 17.7262ZM12.5 13.7L12.5004 13.6996L12.5 13.7Z" stroke="#33363F" stroke-width="2"/>
<path fill-rule="evenodd" clip-rule="evenodd" d="M12 2C9.55912 2 7.4608 3.45744 6.52373 5.54534C6.36893 5.89026 6.12934 6 6 6C3.79086 6 2 7.79086 2 10C2 11.8658 3.27746 13.4332 5.00545 13.8754C5.00914 13.7718 5.01531 13.6871 5.02567 13.6084C5.10739 12.9877 5.37667 12.4279 5.77516 11.9875C4.77643 11.8758 4 11.0286 4 10C4 8.89543 4.89543 8 6 8C7.15073 8 7.97904 7.1872 8.34839 6.36427C8.97472 4.96871 10.3753 4 12 4C13.6247 4 15.0253 4.96871 15.6516 6.36427C16.021 7.1872 16.8493 8 18 8C19.1046 8 20 8.89543 20 10C20 11.0286 19.2236 11.8758 18.2248 11.9875C18.6233 12.4279 18.8926 12.9877 18.9743 13.6084C18.9847 13.6871 18.9909 13.7718 18.9945 13.8754C20.7225 13.4332 22 11.8658 22 10C22 7.79086 20.2091 6 18 6C17.8707 6 17.6311 5.89026 17.4763 5.54534C16.5392 3.45744 14.4409 2 12 2Z" fill="#33363F"/>
</svg>
