<svg width="24" height="24" viewBox="0 0 24 24" fill="none" xmlns="http://www.w3.org/2000/svg">
<path d="M9.62718 17.3306C10.0851 17.3985 10.6868 17.4 11.4 17.4V19.1638L11.4 19.2016C11.4 19.5387 11.3999 19.8462 11.4274 20.0738C11.4415 20.1909 11.4684 20.3438 11.5382 20.4873C11.6171 20.6495 11.7693 20.832 12.0267 20.9021C12.2841 20.9721 12.5078 20.892 12.658 20.7922C12.7909 20.7039 12.8916 20.5858 12.9632 20.492C13.1022 20.3098 13.2581 20.0447 13.429 19.7541L13.4481 19.7216L14.7442 17.5183L14.769 17.4761C15.1414 16.8431 15.4552 16.3097 15.6327 15.8708C15.816 15.4177 15.9233 14.9002 15.6405 14.4056C15.3575 13.9109 14.8565 13.7411 14.3728 13.6694C13.9149 13.6015 13.3132 13.6 12.6 13.6V11.8362C12.6 11.8235 12.6 11.8109 12.6 11.7984C12.6 11.4613 12.6001 11.1538 12.5726 10.9262C12.5585 10.8091 12.5316 10.6562 12.4618 10.5127C12.3829 10.3505 12.2307 10.168 11.9733 10.0979C11.7159 10.0279 11.4922 10.108 11.342 10.2078C11.2091 10.2961 11.1084 10.4142 11.0368 10.508C10.8978 10.6902 10.7419 10.9553 10.571 11.2459C10.5647 11.2567 10.5583 11.2675 10.5519 11.2784L9.2558 13.4817C9.24751 13.4958 9.23925 13.5099 9.23102 13.5239C8.85862 14.1569 8.54484 14.6903 8.36731 15.1292C8.18401 15.5823 8.07667 16.0998 8.35954 16.5944C8.64251 17.0891 9.14346 17.2589 9.62718 17.3306ZM12.6038 13.8941C12.6038 13.8944 12.6038 13.8945 12.6038 13.8945C12.6038 13.8945 12.6038 13.8945 12.6038 13.8944C12.6038 13.8943 12.6038 13.8942 12.6038 13.8941Z" fill="#2A4157" fill-opacity="0.24" stroke="#222222" stroke-width="1.2"/>
<path fill-rule="evenodd" clip-rule="evenodd" d="M11.9999 2.40002C9.72226 2.40002 7.76349 3.75972 6.88856 5.70915C6.69086 6.14967 6.33352 6.40002 5.9999 6.40002C4.01168 6.40002 2.3999 8.0118 2.3999 10C2.3999 11.6582 3.52103 13.0546 5.04663 13.4725C5.11979 13.062 5.27553 12.681 5.49618 12.3471C4.41254 12.1156 3.5999 11.1527 3.5999 10C3.5999 8.67454 4.67442 7.60002 5.9999 7.60002C6.94636 7.60002 7.65692 6.92784 7.98336 6.20051C8.67184 4.66648 10.212 3.60002 11.9999 3.60002C13.7878 3.60002 15.328 4.66648 16.0164 6.20051C16.3429 6.92784 17.0534 7.60002 17.9999 7.60002C19.3254 7.60002 20.3999 8.67454 20.3999 10C20.3999 11.1527 19.5873 12.1156 18.5036 12.3471C18.7243 12.681 18.88 13.062 18.9532 13.4725C20.4788 13.0546 21.5999 11.6582 21.5999 10C21.5999 8.0118 19.9881 6.40002 17.9999 6.40002C17.6663 6.40002 17.3089 6.14967 17.1112 5.70915C16.2363 3.75972 14.2775 2.40002 11.9999 2.40002Z" fill="#222222"/>
</svg>
