<svg width="24" height="24" viewBox="0 0 24 24" fill="none" xmlns="http://www.w3.org/2000/svg">
<path d="M6 12H18C19.6569 12 21 10.6569 21 9C21 7.34315 19.6569 6 18 6C17.36 6 16.826 5.53873 16.5639 4.95481C15.7822 3.21307 14.0328 2 12 2C9.96722 2 8.21776 3.21307 7.43606 4.95481C7.17399 5.53873 6.64004 6 6 6C4.34315 6 3 7.34315 3 9C3 10.6569 4.34315 12 6 12Z" fill="#222222"/>
<path fill-rule="evenodd" clip-rule="evenodd" d="M10.2352 14L9.77292 14.786C8.98586 16.124 8.59233 16.793 8.88032 17.2965C9.16831 17.8 9.94539 17.8 11.4996 17.8C11.7355 17.8 11.8535 17.8 11.9267 17.8732C12 17.9464 12 18.0643 12 18.3V20.1638C12 20.9032 12 21.2729 12.1843 21.3231C12.3686 21.3733 12.556 21.0547 12.9309 20.4174L14.227 18.214C15.014 16.876 15.4076 16.207 15.1196 15.7035C14.8316 15.2 14.0545 15.2 12.5003 15.2C12.2644 15.2 12.1464 15.2 12.0732 15.1268C12 15.0536 12 14.9357 12 14.7V14H10.2352Z" fill="#222222"/>
</svg>
