<svg width="24" height="24" viewBox="0 0 24 24" fill="none" xmlns="http://www.w3.org/2000/svg">
<path d="M6.5 8.5C6.5 7.94772 6.94772 7.5 7.5 7.5H16.5C17.0523 7.5 17.5 7.94772 17.5 8.5V18.5C17.5 19.0523 17.0523 19.5 16.5 19.5H7.5C6.94771 19.5 6.5 19.0523 6.5 18.5V8.5Z" stroke="#222222" stroke-linecap="round" stroke-linejoin="round"/>
<path d="M8.5 19.5V20.5C8.5 21.0523 8.94772 21.5 9.5 21.5V21.5C10.0523 21.5 10.5 21.0523 10.5 20.5V19.5" stroke="#222222" stroke-linecap="round" stroke-linejoin="round"/>
<path d="M13.5 19.5V20.5C13.5 21.0523 13.9477 21.5 14.5 21.5V21.5C15.0523 21.5 15.5 21.0523 15.5 20.5V19.5" stroke="#222222" stroke-linecap="round" stroke-linejoin="round"/>
<path d="M9.5 7.5V4.5C9.5 3.94772 9.94772 3.5 10.5 3.5H13.5C14.0523 3.5 14.5 3.94772 14.5 4.5V7.5" stroke="#222222" stroke-linecap="round" stroke-linejoin="round"/>
</svg>
