<svg width="24" height="24" viewBox="0 0 24 24" fill="none" xmlns="http://www.w3.org/2000/svg">
<path d="M17 18C17 16.6739 16.4732 15.4021 15.5355 14.4645C14.5979 13.5268 13.3261 13 12 13C10.6739 13 9.40215 13.5268 8.46447 14.4645C7.52678 15.4021 7 16.6739 7 18L12 18H17Z" fill="#222222"/>
<path d="M17.5 12.5L19.5 10.5" stroke="#222222" stroke-width="2" stroke-linecap="round"/>
<path d="M5 18H19" stroke="#222222" stroke-width="2" stroke-linecap="square"/>
<path d="M4.5 10.5L6.5 12.5" stroke="#222222" stroke-width="2" stroke-linecap="round"/>
<path d="M12 2L12.7071 1.29289L12 0.585786L11.2929 1.29289L12 2ZM11 10.5C11 11.0523 11.4477 11.5 12 11.5C12.5523 11.5 13 11.0523 13 10.5L11 10.5ZM15.7071 4.29289L12.7071 1.29289L11.2929 2.70711L14.2929 5.70711L15.7071 4.29289ZM11.2929 1.29289L8.29289 4.29289L9.70711 5.70711L12.7071 2.70711L11.2929 1.29289ZM11 2L11 10.5L13 10.5L13 2L11 2Z" fill="#222222"/>
</svg>
