<svg width="24" height="24" viewBox="0 0 24 24" fill="none" xmlns="http://www.w3.org/2000/svg">
<path d="M9 18H5C3.89543 18 3 17.1046 3 16V6C3 4.89543 3.89543 4 5 4H17C18.1046 4 19 4.89543 19 6V8" stroke="#33363F" stroke-width="2"/>
<path d="M4 8H20" stroke="#33363F" stroke-width="2"/>
<path d="M4 13H9" stroke="#33363F" stroke-width="2"/>
<path d="M11.5408 16.9723C11.2045 16.3677 11.2045 15.6323 11.5408 15.0277L12.2155 13.815L12.9284 12.6244C13.2838 12.0309 13.9207 11.6632 14.6124 11.6521L16 11.63L17.3876 11.6521C18.0793 11.6632 18.7162 12.0309 19.0716 12.6244L19.7845 13.815L20.4592 15.0277C20.7955 15.6323 20.7955 16.3677 20.4592 16.9723L19.7845 18.185L19.0716 19.3756C18.7162 19.9691 18.0793 20.3368 17.3876 20.3479L16 20.37L14.6124 20.3479C13.9207 20.3368 13.2838 19.9691 12.9284 19.3756L12.2155 18.185L11.5408 16.9723Z" stroke="#33363F" stroke-width="2"/>
<circle cx="16" cy="16" r="1" fill="#33363F"/>
</svg>
