<svg width="24" height="24" viewBox="0 0 24 24" fill="none" xmlns="http://www.w3.org/2000/svg">
<circle cx="12" cy="12" r="3" fill="#33363F"/>
<path fill-rule="evenodd" clip-rule="evenodd" d="M12 18.0004C15.3137 18.0004 18 15.3141 18 12.0004C18 8.68666 15.3137 6.00037 12 6.00037C8.68632 6.00037 6.00003 8.68666 6.00003 12.0004C6.00003 15.3141 8.68632 18.0004 12 18.0004ZM12 19.0004C13.7174 19.0004 15.2903 18.3819 16.5082 17.3556C16.5138 17.3617 16.5196 17.3677 16.5255 17.3737L17.9398 18.7879C18.1741 19.0222 18.554 19.0222 18.7883 18.7879C19.0226 18.5536 19.0226 18.1737 18.7883 17.9394L17.3741 16.5251C17.3681 16.5192 17.3621 16.5134 17.3559 16.5077C18.3819 15.2899 19 13.7173 19 12.0004C19 10.283 18.3816 8.7101 17.3553 7.4922C17.3616 7.48635 17.3679 7.48035 17.3741 7.47418L18.7883 6.05997C19.0226 5.82565 19.0226 5.44575 18.7883 5.21144C18.554 4.97713 18.1741 4.97713 17.9398 5.21144L16.5255 6.62565C16.5194 6.63184 16.5133 6.63813 16.5075 6.64452C15.2897 5.61856 13.717 5.00037 12 5.00037C10.283 5.00037 8.71042 5.61855 7.49262 6.64448C7.48677 6.63811 7.48076 6.63183 7.47458 6.62565L6.06037 5.21144C5.82605 4.97713 5.44615 4.97713 5.21184 5.21144C4.97752 5.44576 4.97752 5.82565 5.21184 6.05997L6.62605 7.47418C6.63221 7.48034 6.63846 7.48633 6.64482 7.49217C5.61848 8.71008 5.00003 10.283 5.00003 12.0004C5.00003 13.7174 5.61821 15.29 6.64415 16.5078C6.63803 16.5134 6.63199 16.5192 6.62605 16.5251L5.21184 17.9394C4.97752 18.1737 4.97752 18.5536 5.21184 18.7879C5.44615 19.0222 5.82605 19.0222 6.06037 18.7879L7.47458 17.3737C7.4805 17.3678 7.48627 17.3617 7.49189 17.3556C8.7098 18.3819 10.2827 19.0004 12 19.0004Z" fill="#2A4157" fill-opacity="0.24"/>
</svg>
