<svg width="24" height="24" viewBox="0 0 24 24" fill="none" xmlns="http://www.w3.org/2000/svg">
<path fill-rule="evenodd" clip-rule="evenodd" d="M12 19C15.866 19 19 15.866 19 12C19 8.13401 15.866 5 12 5C8.13401 5 5 8.13401 5 12C5 15.866 8.13401 19 12 19ZM12 15C13.6569 15 15 13.6569 15 12C15 10.3431 13.6569 9 12 9C10.3431 9 9 10.3431 9 12C9 13.6569 10.3431 15 12 15Z" fill="#222222"/>
<path d="M7.0502 7.04996L5 5" stroke="#222222" stroke-width="2" stroke-linecap="round"/>
<path d="M16.9498 7.04996L19 5" stroke="#222222" stroke-width="2" stroke-linecap="round"/>
<path d="M18.9998 18.9998L16.9498 16.9498" stroke="#222222" stroke-width="2" stroke-linecap="round"/>
<path d="M5 19L7.05029 16.9502" stroke="#222222" stroke-width="2" stroke-linecap="round"/>
</svg>
