<svg width="24" height="24" viewBox="0 0 24 24" fill="none" xmlns="http://www.w3.org/2000/svg">
<path d="M15.3839 12.319L14.7069 13.055L15.3839 12.319ZM10 6C10 4.89543 10.8954 4 12 4V2C9.79086 2 8 3.79086 8 6H10ZM10 11.5001V6H8V11.5001H10ZM8 16C8 14.835 8.49678 13.7874 9.29309 13.055L7.93916 11.583C6.7484 12.6782 6 14.2524 6 16H8ZM12 20C9.79086 20 8 18.2091 8 16H6C6 19.3137 8.68629 22 12 22V20ZM16 16C16 18.2091 14.2091 20 12 20V22C15.3137 22 18 19.3137 18 16H16ZM14.7069 13.055C15.5032 13.7874 16 14.835 16 16H18C18 14.2524 17.2516 12.6782 16.0608 11.583L14.7069 13.055ZM14 6V11.5001H16V6H14ZM12 4C13.1046 4 14 4.89543 14 6H16C16 3.79086 14.2091 2 12 2V4ZM16.0608 11.583C16.0308 11.5553 16.0137 11.5296 16.0056 11.5128C15.9982 11.4973 16 11.4937 16 11.5001H14C14 12.145 14.3101 12.69 14.7069 13.055L16.0608 11.583ZM8 11.5001C8 11.4937 8.00183 11.4973 7.99438 11.5128C7.98627 11.5296 7.96922 11.5553 7.93916 11.583L9.29309 13.055C9.68992 12.69 10 12.145 10 11.5001H8Z" fill="#33363F"/>
<circle cx="12" cy="16" r="2" fill="#33363F"/>
</svg>
