<svg width="24" height="24" viewBox="0 0 24 24" fill="none" xmlns="http://www.w3.org/2000/svg">
<path fill-rule="evenodd" clip-rule="evenodd" d="M9 6C9 4.34315 10.3431 3 12 3C13.6569 3 15 4.34315 15 6V11.5001C15 11.8146 15.1524 12.1061 15.3839 12.319C16.3774 13.2328 17 14.5437 17 16C17 18.7614 14.7614 21 12 21C9.23858 21 7 18.7614 7 16C7 14.5437 7.62259 13.2328 8.61612 12.319C8.8476 12.1061 9 11.8146 9 11.5001V6ZM12 18C13.1046 18 14 17.1046 14 16C14 14.8954 13.1046 14 12 14C10.8954 14 10 14.8954 10 16C10 17.1046 10.8954 18 12 18Z" fill="#2A4157" fill-opacity="0.24"/>
<path d="M15.3839 12.319L15.7901 11.8774L15.7901 11.8774L15.3839 12.319ZM8.61612 12.319L9.0223 12.7606L8.61612 12.319ZM12 2.4C10.0118 2.4 8.4 4.01177 8.4 6H9.6C9.6 4.67452 10.6745 3.6 12 3.6V2.4ZM15.6 6C15.6 4.01178 13.9882 2.4 12 2.4V3.6C13.3255 3.6 14.4 4.67452 14.4 6H15.6ZM15.6 11.5001V6H14.4V11.5001H15.6ZM15.7901 11.8774C15.6578 11.7557 15.6 11.6163 15.6 11.5001H14.4C14.4 12.0128 14.647 12.4565 14.9777 12.7606L15.7901 11.8774ZM17.6 16C17.6 14.369 16.9019 12.9001 15.7901 11.8774L14.9777 12.7606C15.8529 13.5656 16.4 14.7185 16.4 16H17.6ZM12 21.6C15.0928 21.6 17.6 19.0928 17.6 16H16.4C16.4 18.4301 14.4301 20.4 12 20.4V21.6ZM6.4 16C6.4 19.0928 8.90721 21.6 12 21.6V20.4C9.56995 20.4 7.6 18.4301 7.6 16H6.4ZM8.20995 11.8774C7.09808 12.9001 6.4 14.3689 6.4 16H7.6C7.6 14.7185 8.14711 13.5656 9.0223 12.7606L8.20995 11.8774ZM8.4 11.5001C8.4 11.6163 8.34221 11.7557 8.20995 11.8774L9.0223 12.7606C9.353 12.4565 9.6 12.0128 9.6 11.5001H8.4ZM8.4 6V11.5001H9.6V6H8.4ZM13.4 16C13.4 16.7732 12.7732 17.4 12 17.4V18.6C13.4359 18.6 14.6 17.4359 14.6 16H13.4ZM12 14.6C12.7732 14.6 13.4 15.2268 13.4 16H14.6C14.6 14.5641 13.4359 13.4 12 13.4V14.6ZM10.6 16C10.6 15.2268 11.2268 14.6 12 14.6V13.4C10.5641 13.4 9.4 14.5641 9.4 16H10.6ZM12 17.4C11.2268 17.4 10.6 16.7732 10.6 16H9.4C9.4 17.4359 10.5641 18.6 12 18.6V17.4Z" fill="#222222"/>
</svg>
