<svg width="24" height="24" viewBox="0 0 24 24" fill="none" xmlns="http://www.w3.org/2000/svg">
<rect x="3" y="5" width="17" height="14" rx="2" stroke="#33363F" stroke-width="2"/>
<path d="M7.70711 9.29289C7.31658 8.90237 6.68342 8.90237 6.29289 9.29289C5.90237 9.68342 5.90237 10.3166 6.29289 10.7071L7.70711 9.29289ZM6.29289 13.2929C5.90237 13.6834 5.90237 14.3166 6.29289 14.7071C6.68342 15.0976 7.31658 15.0976 7.70711 14.7071L6.29289 13.2929ZM9 12L9.70711 12.7071C10.0976 12.3166 10.0976 11.6834 9.70711 11.2929L9 12ZM6.29289 10.7071L8.29289 12.7071L9.70711 11.2929L7.70711 9.29289L6.29289 10.7071ZM8.29289 11.2929L6.29289 13.2929L7.70711 14.7071L9.70711 12.7071L8.29289 11.2929Z" fill="#33363F"/>
<path d="M12 14H16" stroke="#33363F" stroke-width="2" stroke-linecap="round"/>
</svg>
