<svg width="24" height="24" viewBox="0 0 24 24" fill="none" xmlns="http://www.w3.org/2000/svg">
<path d="M4.5 10.7C4.5 9.57989 4.5 9.01984 4.71799 8.59202C4.90973 8.21569 5.21569 7.90973 5.59202 7.71799C6.01984 7.5 6.5799 7.5 7.7 7.5H16.3C17.4201 7.5 17.9802 7.5 18.408 7.71799C18.7843 7.90973 19.0903 8.21569 19.282 8.59202C19.5 9.01984 19.5 9.57989 19.5 10.7V14.3C19.5 15.4201 19.5 15.9802 19.282 16.408C19.0903 16.7843 18.7843 17.0903 18.408 17.282C17.9802 17.5 17.4201 17.5 16.3 17.5H7.7C6.57989 17.5 6.01984 17.5 5.59202 17.282C5.21569 17.0903 4.90973 16.7843 4.71799 16.408C4.5 15.9802 4.5 15.4201 4.5 14.3V10.7Z" stroke="#222222"/>
<path d="M7.85355 10.1464C7.65829 9.95118 7.34171 9.95118 7.14645 10.1464C6.95118 10.3417 6.95118 10.6583 7.14645 10.8536L7.85355 10.1464ZM7.14645 14.1464C6.95118 14.3417 6.95118 14.6583 7.14645 14.8536C7.34171 15.0488 7.65829 15.0488 7.85355 14.8536L7.14645 14.1464ZM9.5 12.5L9.85355 12.8536C10.0488 12.6583 10.0488 12.3417 9.85355 12.1464L9.5 12.5ZM7.14645 10.8536L9.14645 12.8536L9.85355 12.1464L7.85355 10.1464L7.14645 10.8536ZM9.14645 12.1464L7.14645 14.1464L7.85355 14.8536L9.85355 12.8536L9.14645 12.1464Z" fill="#33363F"/>
<path d="M11.5 14.5H16.5" stroke="#33363F" stroke-linecap="round"/>
</svg>
