<svg width="24" height="24" viewBox="0 0 24 24" fill="none" xmlns="http://www.w3.org/2000/svg">
<path d="M6 4H8.85V6H6V4ZM10 5.15V12.85H8V5.15H10ZM8.85 14H6V12H8.85V14ZM4 12V6H6V12H4ZM6 14C4.89543 14 4 13.1046 4 12H6V14ZM10 12.85C10 13.4851 9.48513 14 8.85 14V12C8.38056 12 8 12.3806 8 12.85H10ZM8.85 4C9.48513 4 10 4.51487 10 5.15H8C8 5.61944 8.38056 6 8.85 6V4ZM6 6H4C4 4.89543 4.89543 4 6 4V6Z" fill="#33363F"/>
<path d="M8.16795 13.5547C7.8616 13.0952 7.98577 12.4743 8.4453 12.1679C8.90483 11.8616 9.5257 11.9858 9.83205 12.4453L8.16795 13.5547ZM14 13C14 12.4477 14.4477 12 15 12C15.5523 12 16 12.4477 16 13H14ZM9.83205 12.4453L11.6641 15.1934L10 16.3028L8.16795 13.5547L9.83205 12.4453ZM12 16.3028V19H10V16.3028H12ZM12 19H13V21H12V19ZM14 18V13H16V18H14ZM13 19C13.5523 19 14 18.5523 14 18H16C16 19.6569 14.6569 21 13 21V19ZM12 19V21C10.8954 21 10 20.1046 10 19H12ZM11.6641 15.1934C11.8831 15.5219 12 15.9079 12 16.3028H10L11.6641 15.1934Z" fill="#33363F"/>
<path d="M13 13H17.7655C18.9575 13 19.8849 11.9639 19.7532 10.7791L19.1977 5.77914C19.0851 4.76627 18.229 4 17.2099 4H13.4142C13.149 4 12.8946 4.10536 12.7071 4.29289L12.2929 4.70711C12.1054 4.89464 11.851 5 11.5858 5H9" stroke="#33363F" stroke-width="2" stroke-linecap="round"/>
</svg>
