<svg width="24" height="24" viewBox="0 0 24 24" fill="none" xmlns="http://www.w3.org/2000/svg">
<path d="M6 20H8.85V18H6V20ZM10 18.85V11.15H8V18.85H10ZM8.85 10H6V12H8.85V10ZM4 12V18H6V12H4ZM6 10C4.89543 10 4 10.8954 4 12H6V10ZM10 11.15C10 10.5149 9.48513 10 8.85 10V12C8.38056 12 8 11.6194 8 11.15H10ZM8.85 20C9.48513 20 10 19.4851 10 18.85H8C8 18.3806 8.38056 18 8.85 18V20ZM6 18H4C4 19.1046 4.89543 20 6 20V18Z" fill="#33363F"/>
<path d="M8.16795 10.4453C7.8616 10.9048 7.98577 11.5257 8.4453 11.8321C8.90483 12.1384 9.5257 12.0142 9.83205 11.5547L8.16795 10.4453ZM14 11C14 11.5523 14.4477 12 15 12C15.5523 12 16 11.5523 16 11H14ZM9.83205 11.5547L11.6641 8.80662L10 7.69722L8.16795 10.4453L9.83205 11.5547ZM12 7.69722V5H10V7.69722H12ZM12 5H13V3H12V5ZM14 6V11H16V6H14ZM13 5C13.5523 5 14 5.44772 14 6H16C16 4.34315 14.6569 3 13 3V5ZM12 5V3C10.8954 3 10 3.89543 10 5H12ZM11.6641 8.80662C11.8831 8.47809 12 8.09207 12 7.69722H10L11.6641 8.80662Z" fill="#33363F"/>
<path d="M13 11H17.7655C18.9575 11 19.8849 12.0361 19.7532 13.2209L19.1977 18.2209C19.0851 19.2337 18.229 20 17.2099 20H13.4142C13.149 20 12.8946 19.8946 12.7071 19.7071L12.2929 19.2929C12.1054 19.1054 11.851 19 11.5858 19H9" stroke="#33363F" stroke-width="2" stroke-linecap="round"/>
</svg>
