<svg width="24" height="24" viewBox="0 0 24 24" fill="none" xmlns="http://www.w3.org/2000/svg">
<path d="M3.21799 5.09202L2.32698 4.63803L2.32698 4.63803L3.21799 5.09202ZM4.09202 4.21799L3.63803 3.32698L3.63803 3.32698L4.09202 4.21799ZM19.908 4.21799L20.362 3.32698V3.32698L19.908 4.21799ZM20.782 5.09202L19.891 5.54601L19.891 5.54601L20.782 5.09202ZM20.782 18.908L19.891 18.454L19.891 18.454L20.782 18.908ZM19.908 19.782L20.362 20.673L19.908 19.782ZM4.09202 19.782L4.54601 18.891H4.54601L4.09202 19.782ZM3.21799 18.908L4.10899 18.454L4.10899 18.454L3.21799 18.908ZM4 7.2C4 6.62345 4.00078 6.25117 4.02393 5.96784C4.04612 5.69617 4.0838 5.59545 4.10899 5.54601L2.32698 4.63803C2.13419 5.01641 2.06287 5.40963 2.03057 5.80497C1.99922 6.18864 2 6.65645 2 7.2H4ZM4.10899 5.54601C4.20487 5.35785 4.35785 5.20487 4.54601 5.10899L3.63803 3.32698C3.07354 3.6146 2.6146 4.07354 2.32698 4.63803L4.10899 5.54601ZM4.54601 5.10899C4.59545 5.0838 4.69617 5.04612 4.96784 5.02393C5.25117 5.00078 5.62345 5 6.2 5V3C5.65645 3 5.18864 2.99922 4.80497 3.03057C4.40963 3.06287 4.01641 3.13419 3.63803 3.32698L4.54601 5.10899ZM6.2 5H17.8V3H6.2V5ZM17.8 5C18.3766 5 18.7488 5.00078 19.0322 5.02393C19.3038 5.04612 19.4045 5.0838 19.454 5.10899L20.362 3.32698C19.9836 3.13419 19.5904 3.06287 19.195 3.03057C18.8114 2.99922 18.3436 3 17.8 3V5ZM19.454 5.10899C19.6422 5.20487 19.7951 5.35785 19.891 5.54601L21.673 4.63803C21.3854 4.07354 20.9265 3.6146 20.362 3.32698L19.454 5.10899ZM19.891 5.54601C19.9162 5.59545 19.9539 5.69617 19.9761 5.96784C19.9992 6.25117 20 6.62345 20 7.2H22C22 6.65645 22.0008 6.18864 21.9694 5.80497C21.9371 5.40963 21.8658 5.01641 21.673 4.63803L19.891 5.54601ZM20 7.2V9.76923H22V7.2H20ZM20 9.76923C20 9.34439 20.3444 9 20.7692 9V11C21.449 11 22 10.449 22 9.76923H20ZM20.7692 9H20V11H20.7692V9ZM20 9C18.3431 9 17 10.3431 17 12H19C19 11.4477 19.4477 11 20 11V9ZM17 12C17 13.6569 18.3431 15 20 15V13C19.4477 13 19 12.5523 19 12H17ZM20 15H20.7692V13H20V15ZM20.7692 15C20.3444 15 20 14.6556 20 14.2308H22C22 13.551 21.449 13 20.7692 13V15ZM20 14.2308V16.8H22V14.2308H20ZM20 16.8C20 17.3766 19.9992 17.7488 19.9761 18.0322C19.9539 18.3038 19.9162 18.4045 19.891 18.454L21.673 19.362C21.8658 18.9836 21.9371 18.5904 21.9694 18.195C22.0008 17.8114 22 17.3436 22 16.8H20ZM19.891 18.454C19.7951 18.6422 19.6422 18.7951 19.454 18.891L20.362 20.673C20.9265 20.3854 21.3854 19.9265 21.673 19.362L19.891 18.454ZM19.454 18.891C19.4045 18.9162 19.3038 18.9539 19.0322 18.9761C18.7488 18.9992 18.3766 19 17.8 19V21C18.3436 21 18.8114 21.0008 19.195 20.9694C19.5904 20.9371 19.9836 20.8658 20.362 20.673L19.454 18.891ZM17.8 19H6.2V21H17.8V19ZM6.2 19C5.62345 19 5.25117 18.9992 4.96784 18.9761C4.69617 18.9539 4.59545 18.9162 4.54601 18.891L3.63803 20.673C4.01641 20.8658 4.40963 20.9371 4.80497 20.9694C5.18864 21.0008 5.65645 21 6.2 21V19ZM4.54601 18.891C4.35785 18.7951 4.20487 18.6422 4.10899 18.454L2.32698 19.362C2.6146 19.9265 3.07354 20.3854 3.63803 20.673L4.54601 18.891ZM4.10899 18.454C4.0838 18.4045 4.04612 18.3038 4.02393 18.0322C4.00078 17.7488 4 17.3766 4 16.8H2C2 17.3436 1.99922 17.8114 2.03057 18.195C2.06287 18.5904 2.13419 18.9836 2.32698 19.362L4.10899 18.454ZM4 16.8V14.2308H2V16.8H4ZM4 14.2308C4 14.6556 3.6556 15 3.23077 15V13C2.55103 13 2 13.551 2 14.2308H4ZM3.23077 15H4V13H3.23077V15ZM4 15C5.65685 15 7 13.6569 7 12H5C5 12.5523 4.55228 13 4 13V15ZM7 12C7 10.3431 5.65685 9 4 9V11C4.55228 11 5 11.4477 5 12H7ZM4 9H3.23077V11H4V9ZM3.23077 9C3.6556 9 4 9.3444 4 9.76923H2C2 10.449 2.55103 11 3.23077 11V9ZM4 9.76923V7.2H2V9.76923H4Z" fill="#33363F"/>
<path d="M14 9C14 8.44772 13.5523 8 13 8C12.4477 8 12 8.44772 12 9H14ZM12 10C12 10.5523 12.4477 11 13 11C13.5523 11 14 10.5523 14 10H12ZM12 9V10H14V9H12Z" fill="#33363F"/>
<path d="M14 4C14 3.44772 13.5523 3 13 3C12.4477 3 12 3.44772 12 4H14ZM12 5C12 5.55228 12.4477 6 13 6C13.5523 6 14 5.55228 14 5H12ZM12 4V5H14V4H12Z" fill="#33363F"/>
<path d="M14 14C14 13.4477 13.5523 13 13 13C12.4477 13 12 13.4477 12 14H14ZM12 15C12 15.5523 12.4477 16 13 16C13.5523 16 14 15.5523 14 15H12ZM12 14V15H14V14H12Z" fill="#33363F"/>
<path d="M14 19C14 18.4477 13.5523 18 13 18C12.4477 18 12 18.4477 12 19H14ZM12 20C12 20.5523 12.4477 21 13 21C13.5523 21 14 20.5523 14 20H12ZM12 19V20H14V19H12Z" fill="#33363F"/>
</svg>
