<svg width="24" height="24" viewBox="0 0 24 24" fill="none" xmlns="http://www.w3.org/2000/svg">
<path fill-rule="evenodd" clip-rule="evenodd" d="M18.2519 3.42746C18.5853 3.23699 19 3.47767 19 3.86159V20.1384C19 20.5223 18.5853 20.763 18.2519 20.5725L15.9961 19.2835C15.6887 19.1078 15.3113 19.1078 15.0039 19.2835L12.7938 20.5464C12.3019 20.8275 11.6981 20.8275 11.2062 20.5464L8.99614 19.2835C8.68871 19.1078 8.31129 19.1078 8.00386 19.2835L5.74807 20.5725C5.41474 20.763 5 20.5223 5 20.1384V3.86159C5 3.47767 5.41474 3.23699 5.74807 3.42746L8.00386 4.71649C8.31129 4.89216 8.68871 4.89216 8.99614 4.71649L11.2062 3.45361C11.6981 3.17253 12.3019 3.17253 12.7938 3.45361L15.0039 4.71649C15.3113 4.89216 15.6887 4.89216 15.9961 4.71649L18.2519 3.42746ZM9.5 9C9.22386 9 9 9.22385 9 9.5C9 9.77614 9.22386 10 9.5 10H14.5C14.7761 10 15 9.77614 15 9.5C15 9.22385 14.7761 9 14.5 9H9.5ZM9.5 11.5C9.22386 11.5 9 11.7239 9 12C9 12.2761 9.22386 12.5 9.5 12.5H14.5C14.7761 12.5 15 12.2761 15 12C15 11.7239 14.7761 11.5 14.5 11.5H9.5ZM9.5 14C9.22386 14 9 14.2239 9 14.5C9 14.7761 9.22386 15 9.5 15H14.5C14.7761 15 15 14.7761 15 14.5C15 14.2239 14.7761 14 14.5 14H9.5Z" fill="#222222"/>
</svg>
