<svg width="24" height="24" viewBox="0 0 24 24" fill="none" xmlns="http://www.w3.org/2000/svg">
<path d="M5.91473 4.55764L6.01227 5.04804L5.91473 4.55764ZM3.55764 6.91473L4.04804 7.01227L3.55764 6.91473ZM3.55764 17.0853L3.06725 17.1828L3.55764 17.0853ZM5.91473 19.4424L5.81718 19.9327H5.81718L5.91473 19.4424ZM12.8505 8.0111L12.7764 7.51662L12.8505 8.0111ZM12.8505 13.0111L12.7764 12.5166L12.8505 13.0111ZM12.8505 18.0111L12.7764 17.5166L12.8505 18.0111ZM12.8505 10.9889L12.9246 10.4944L12.8505 10.9889ZM12.8505 15.9889L12.7764 16.4834L12.8505 15.9889ZM12.9246 5.49443C12.6844 5.45842 12.5 5.25029 12.5 5H11.5C11.5 5.75268 12.0539 6.37509 12.7764 6.48338L12.9246 5.49443ZM12.5 5V4.65H11.5V5H12.5ZM11.85 4H7.25V5H11.85V4ZM7.25 4C6.57698 4 6.16745 3.99758 5.81718 4.06725L6.01227 5.04804C6.2416 5.00242 6.52905 5 7.25 5V4ZM5.81718 4.06725C4.42877 4.34342 3.34342 5.42877 3.06725 6.81718L4.04804 7.01227C4.2453 6.02055 5.02055 5.2453 6.01227 5.04804L5.81718 4.06725ZM3.06725 6.81718C2.99758 7.16745 3 7.57698 3 8.25H4C4 7.52905 4.00242 7.2416 4.04804 7.01227L3.06725 6.81718ZM3 8.25V8.75H4V8.25H3ZM3 8.75C3 9.44036 3.55964 10 4.25 10V9C4.11193 9 4 8.88807 4 8.75H3ZM4.25 10C5.2165 10 6 10.7835 6 11.75H7C7 10.2312 5.76878 9 4.25 9V10ZM6 11.75V12.25H7V11.75H6ZM6 12.25C6 13.2165 5.2165 14 4.25 14V15C5.76878 15 7 13.7688 7 12.25H6ZM4.25 14C3.55964 14 3 14.5596 3 15.25H4C4 15.1119 4.11193 15 4.25 15V14ZM3 15.25V15.75H4V15.25H3ZM3 15.75C3 16.423 2.99758 16.8325 3.06725 17.1828L4.04804 16.9877C4.00242 16.7584 4 16.4709 4 15.75H3ZM3.06725 17.1828C3.34342 18.5712 4.42877 19.6566 5.81718 19.9327L6.01227 18.952C5.02055 18.7547 4.2453 17.9795 4.04804 16.9877L3.06725 17.1828ZM5.81718 19.9327C6.16746 20.0024 6.57698 20 7.25 20V19C6.52905 19 6.2416 18.9976 6.01227 18.952L5.81718 19.9327ZM7.25 20H11.85V19H7.25V20ZM12.5 19.35V19H11.5V19.35H12.5ZM12.5 19C12.5 18.7497 12.6844 18.5416 12.9246 18.5056L12.7764 17.5166C12.0539 17.6249 11.5 18.2473 11.5 19H12.5ZM12.5 16.15V17.85H13.5V16.15H12.5ZM11.5 15C11.5 15.7527 12.0539 16.3751 12.7764 16.4834L12.9246 15.4944C12.6844 15.4584 12.5 15.2503 12.5 15H11.5ZM11.5 14V15H12.5V14H11.5ZM12.7764 12.5166C12.0539 12.6249 11.5 13.2473 11.5 14H12.5C12.5 13.7497 12.6844 13.5416 12.9246 13.5056L12.7764 12.5166ZM12.5 11.15V12.85H13.5V11.15H12.5ZM11.5 10C11.5 10.7527 12.0539 11.3751 12.7764 11.4834L12.9246 10.4944C12.6844 10.4584 12.5 10.2503 12.5 10H11.5ZM11.5 9V10H12.5V9H11.5ZM12.7764 7.51662C12.0539 7.62491 11.5 8.24732 11.5 9H12.5C12.5 8.74971 12.6844 8.54158 12.9246 8.50557L12.7764 7.51662ZM12.5 6.15V7.85H13.5V6.15H12.5ZM12.9246 8.50557C13.205 8.46356 13.5 8.22453 13.5 7.85H12.5C12.5 7.64115 12.6599 7.53408 12.7764 7.51662L12.9246 8.50557ZM12.9246 13.5056C13.205 13.4636 13.5 13.2245 13.5 12.85H12.5C12.5 12.6412 12.6599 12.5341 12.7764 12.5166L12.9246 13.5056ZM12.9246 18.5056C13.205 18.4636 13.5 18.2245 13.5 17.85H12.5C12.5 17.6412 12.6599 17.5341 12.7764 17.5166L12.9246 18.5056ZM11.85 20C12.209 20 12.5 19.709 12.5 19.35H11.5C11.5 19.1567 11.6567 19 11.85 19V20ZM13.5 11.15C13.5 10.7755 13.205 10.5364 12.9246 10.4944L12.7764 11.4834C12.6599 11.4659 12.5 11.3588 12.5 11.15H13.5ZM12.5 4.65C12.5 4.29101 12.209 4 11.85 4V5C11.6567 5 11.5 4.8433 11.5 4.65H12.5ZM13.5 16.15C13.5 15.7755 13.205 15.5364 12.9246 15.4944L12.7764 16.4834C12.6599 16.4659 12.5 16.3588 12.5 16.15H13.5ZM12.7764 6.48338C12.6599 6.46592 12.5 6.35885 12.5 6.15H13.5C13.5 5.77547 13.205 5.53644 12.9246 5.49443L12.7764 6.48338Z" fill="#222222"/>
<path d="M18.0853 19.4424L18.1828 19.9327H18.1828L18.0853 19.4424ZM20.4424 17.0853L20.9327 17.1828V17.1828L20.4424 17.0853ZM20.4424 6.91473L20.9327 6.81718V6.81718L20.4424 6.91473ZM18.0853 4.55764L18.1828 4.06725L18.0853 4.55764ZM15 18.5C15.2762 18.5 15.5 18.7239 15.5 19H16.5C16.5 18.1716 15.8284 17.5 15 17.5V18.5ZM15.5 19V19.35H16.5V19H15.5ZM16.15 20H16.75V19H16.15V20ZM16.75 20C17.423 20 17.8325 20.0024 18.1828 19.9327L17.9877 18.952C17.7584 18.9976 17.4709 19 16.75 19V20ZM18.1828 19.9327C19.5712 19.6566 20.6566 18.5712 20.9327 17.1828L19.952 16.9877C19.7547 17.9795 18.9795 18.7547 17.9877 18.952L18.1828 19.9327ZM20.9327 17.1828C21.0024 16.8325 21 16.423 21 15.75H20C20 16.4709 19.9976 16.7584 19.952 16.9877L20.9327 17.1828ZM21 15.75V15.25H20V15.75H21ZM21 15.25C21 14.5596 20.4404 14 19.75 14V15C19.8881 15 20 15.1119 20 15.25H21ZM19.75 14C18.7835 14 18 13.2165 18 12.25H17C17 13.7688 18.2312 15 19.75 15V14ZM18 12.25V11.75H17V12.25H18ZM18 11.75C18 10.7835 18.7835 10 19.75 10V9C18.2312 9 17 10.2312 17 11.75H18ZM19.75 10C20.4404 10 21 9.44036 21 8.75H20C20 8.88807 19.8881 9 19.75 9V10ZM21 8.75V8.25H20V8.75H21ZM21 8.25C21 7.57698 21.0024 7.16746 20.9327 6.81718L19.952 7.01227C19.9976 7.2416 20 7.52905 20 8.25H21ZM20.9327 6.81718C20.6566 5.42877 19.5712 4.34342 18.1828 4.06725L17.9877 5.04804C18.9795 5.2453 19.7547 6.02055 19.952 7.01227L20.9327 6.81718ZM18.1828 4.06725C17.8325 3.99758 17.423 4 16.75 4V5C17.4709 5 17.7584 5.00242 17.9877 5.04804L18.1828 4.06725ZM16.75 4H16.15V5H16.75V4ZM15.5 4.65V5H16.5V4.65H15.5ZM15.5 5C15.5 5.27614 15.2762 5.5 15 5.5V6.5C15.8284 6.5 16.5 5.82843 16.5 5H15.5ZM15.5 7.99999V6.00001H14.5V7.99999H15.5ZM16.5 9C16.5 8.17157 15.8284 7.5 15 7.5V8.5C15.2762 8.5 15.5 8.72386 15.5 9H16.5ZM16.5 10V9H15.5V10H16.5ZM15 11.5C15.8284 11.5 16.5 10.8284 16.5 10H15.5C15.5 10.2761 15.2762 10.5 15 10.5V11.5ZM15.5 13V11H14.5V13H15.5ZM16.5 14C16.5 13.1716 15.8284 12.5 15 12.5V13.5C15.2762 13.5 15.5 13.7239 15.5 14H16.5ZM16.5 15V14H15.5V15H16.5ZM15 16.5C15.8284 16.5 16.5 15.8284 16.5 15H15.5C15.5 15.2761 15.2762 15.5 15 15.5V16.5ZM15.5 18V16H14.5V18H15.5ZM14.5 13C14.5 13.2761 14.7239 13.5 15 13.5V12.5C15.2761 12.5 15.5 12.7239 15.5 13H14.5ZM15 10.5C14.7239 10.5 14.5 10.7239 14.5 11H15.5C15.5 11.2761 15.2761 11.5 15 11.5V10.5ZM15 15.5C14.7239 15.5 14.5 15.7239 14.5 16H15.5C15.5 16.2761 15.2761 16.5 15 16.5V15.5ZM15 17.5C15.2761 17.5 15.5 17.7239 15.5 18H14.5C14.5 18.2761 14.7239 18.5 15 18.5V17.5ZM14.5 7.99999C14.5 8.27614 14.7239 8.5 15 8.5V7.5C15.2761 7.5 15.5 7.72385 15.5 7.99999H14.5ZM15 5.5C14.7239 5.5 14.5 5.72386 14.5 6.00001H15.5C15.5 6.27615 15.2761 6.5 15 6.5V5.5ZM16.15 4C15.791 4 15.5 4.29101 15.5 4.65H16.5C16.5 4.8433 16.3433 5 16.15 5V4ZM15.5 19.35C15.5 19.709 15.791 20 16.15 20V19C16.3433 19 16.5 19.1567 16.5 19.35H15.5Z" fill="#2A4157" fill-opacity="0.24"/>
</svg>
