<svg width="24" height="24" viewBox="0 0 24 24" fill="none" xmlns="http://www.w3.org/2000/svg">
<path d="M3 8.5C3 7.10218 3 6.40326 3.22836 5.85195C3.53284 5.11687 4.11687 4.53284 4.85195 4.22836C5.40326 4 6.10218 4 7.5 4H16.5C17.8978 4 18.5967 4 19.1481 4.22836C19.8831 4.53284 20.4672 5.11687 20.7716 5.85195C21 6.40326 21 7.10218 21 8.5V9.25C21 9.66421 20.6642 10 20.25 10H20C18.8954 10 18 10.8954 18 12C18 13.1046 18.8954 14 20 14H20.25C20.6642 14 21 14.3358 21 14.75V15.5C21 16.8978 21 17.5967 20.7716 18.1481C20.4672 18.8831 19.8831 19.4672 19.1481 19.7716C18.5967 20 17.8978 20 16.5 20H7.5C6.10218 20 5.40326 20 4.85195 19.7716C4.11687 19.4672 3.53284 18.8831 3.22836 18.1481C3 17.5967 3 16.8978 3 15.5V14.75C3 14.3358 3.33579 14 3.75 14H4C5.10457 14 6 13.1046 6 12C6 10.8954 5.10457 10 4 10H3.75C3.33579 10 3 9.66421 3 9.25V8.5Z" fill="#2A4157" fill-opacity="0.24"/>
<path d="M11.5964 8.55201C11.7961 8.27883 12.2039 8.27883 12.4036 8.55201L13.3628 9.86385C13.4245 9.94825 13.5111 10.0112 13.6105 10.0438L15.1545 10.5506C15.476 10.6562 15.602 11.044 15.404 11.3184L14.4527 12.636C14.3915 12.7208 14.3584 12.8226 14.3581 12.9271L14.3532 14.5522C14.3522 14.8907 14.0223 15.1303 13.7001 15.0267L12.1531 14.5292C12.0535 14.4972 11.9465 14.4972 11.8469 14.5292L10.2999 15.0267C9.97769 15.1303 9.64781 14.8907 9.64679 14.5522L9.64187 12.9271C9.64155 12.8226 9.60847 12.7208 9.54727 12.636L8.59604 11.3184C8.39796 11.044 8.52396 10.6562 8.84549 10.5506L10.3895 10.0438C10.4889 10.0112 10.5755 9.94825 10.6372 9.86384L11.5964 8.55201Z" fill="#222222"/>
</svg>
