<svg width="24" height="24" viewBox="0 0 24 24" fill="none" xmlns="http://www.w3.org/2000/svg">
<path d="M3.5 8.5C3.5 6.84315 4.84315 5.5 6.5 5.5H17.5C19.1569 5.5 20.5 6.84315 20.5 8.5V8.75C20.5 9.16421 20.1642 9.5 19.75 9.5V9.5C18.5074 9.5 17.5 10.5074 17.5 11.75V12.25C17.5 13.4926 18.5074 14.5 19.75 14.5V14.5C20.1642 14.5 20.5 14.8358 20.5 15.25V15.5C20.5 17.1569 19.1569 18.5 17.5 18.5H6.5C4.84315 18.5 3.5 17.1569 3.5 15.5V15.25C3.5 14.8358 3.83579 14.5 4.25 14.5V14.5C5.49264 14.5 6.5 13.4926 6.5 12.25V11.75C6.5 10.5074 5.49264 9.5 4.25 9.5V9.5C3.83579 9.5 3.5 9.16421 3.5 8.75V8.5Z" stroke="#2A4157" stroke-opacity="0.24"/>
<path d="M12.9592 10.159L13.3628 9.86385L12.9592 10.159C13.0826 10.3278 13.2558 10.4536 13.4545 10.5188L14.9986 11.0257L14.0473 12.3433L14.4527 12.636L14.0473 12.3433C13.9249 12.5129 13.8588 12.7165 13.8581 12.9256L13.8532 14.5507L12.3061 14.0532L12.1531 14.5292L12.3061 14.0532C12.1071 13.9892 11.8929 13.9892 11.6939 14.0532L10.1468 14.5507L10.1419 12.9256C10.1412 12.7165 10.0751 12.5129 9.95266 12.3433L9.00144 11.0257L10.5455 10.5188C10.7442 10.4536 10.9174 10.3278 11.0408 10.159L12 8.84712L12.9592 10.159Z" stroke="#222222"/>
</svg>
