<svg width="24" height="24" viewBox="0 0 24 24" fill="none" xmlns="http://www.w3.org/2000/svg">
<path d="M17.5 19.0052V4.99481C17.5 4.35586 16.7879 3.97474 16.2562 4.32917L14.9867 5.17551C14.6969 5.36876 14.3153 5.3522 14.0432 5.13457L12.4998 3.8998C12.2076 3.66606 11.7924 3.66607 11.5002 3.89981L9.95679 5.13457C9.68475 5.3522 9.30314 5.36876 9.01327 5.17551L7.74376 4.32917C7.21212 3.97474 6.5 4.35586 6.5 4.99481V19.0052C6.5 19.6441 7.21212 20.0253 7.74376 19.6708L9.01327 18.8245C9.30314 18.6312 9.68475 18.6478 9.95679 18.8654L11.5002 20.1002C11.7924 20.3339 12.2076 20.3339 12.4998 20.1002L14.0432 18.8654C14.3153 18.6478 14.6969 18.6312 14.9867 18.8245L16.2562 19.6708C16.7879 20.0253 17.5 19.6441 17.5 19.0052Z" stroke="#2A4157" stroke-opacity="0.24"/>
<path d="M9.5 9.5H14.5" stroke="#222222" stroke-linecap="round"/>
<path d="M9.5 12H14.5" stroke="#222222" stroke-linecap="round"/>
<path d="M9.5 14.5H14.5" stroke="#222222" stroke-linecap="round"/>
</svg>
