<svg width="24" height="24" viewBox="0 0 24 24" fill="none" xmlns="http://www.w3.org/2000/svg">
<path fill-rule="evenodd" clip-rule="evenodd" d="M2.22836 5.85195C2 6.40326 2 7.10218 2 8.5V9.25C2 9.66421 2.33579 10 2.75 10H3C4.10457 10 5 10.8954 5 12C5 13.1046 4.10457 14 3 14H2.75C2.33579 14 2 14.3358 2 14.75V15.5C2 16.8978 2 17.5967 2.22836 18.1481C2.53284 18.8831 3.11687 19.4672 3.85195 19.7716C4.40326 20 5.10218 20 6.5 20H17.5C18.8978 20 19.5967 20 20.1481 19.7716C20.8831 19.4672 21.4672 18.8831 21.7716 18.1481C22 17.5967 22 16.8978 22 15.5V14.75C22 14.3358 21.6642 14 21.25 14H21C19.8954 14 19 13.1046 19 12C19 10.8954 19.8954 10 21 10H21.25C21.6642 10 22 9.66421 22 9.25V8.5C22 7.10218 22 6.40326 21.7716 5.85195C21.4672 5.11687 20.8831 4.53284 20.1481 4.22836C19.5967 4 18.8978 4 17.5 4H6.5C5.10218 4 4.40326 4 3.85195 4.22836C3.11687 4.53284 2.53284 5.11687 2.22836 5.85195ZM11.5568 10.6885L11.5568 10.6885C11.4611 10.9359 11.4133 11.0596 11.3239 11.1437C11.2988 11.1673 11.2716 11.1883 11.2426 11.2065C11.1392 11.2711 11.0101 11.2831 10.752 11.3071C10.315 11.3477 10.0965 11.368 10.0298 11.4973C10.016 11.5241 10.0066 11.5531 10.002 11.5831C9.97989 11.7279 10.1405 11.8796 10.4618 12.1829L10.551 12.2671L10.551 12.2671C10.7011 12.4089 10.7762 12.4798 10.8197 12.5683C10.8457 12.6213 10.8632 12.6785 10.8714 12.7375C10.885 12.8357 10.863 12.9386 10.8191 13.1443L10.8191 13.1443L10.8033 13.2178C10.7245 13.5867 10.685 13.7712 10.7343 13.8618C10.7785 13.9433 10.8599 13.9954 10.9499 13.9999C11.0501 14.0048 11.1912 13.8855 11.4735 13.6468C11.6594 13.4895 11.7524 13.4109 11.8557 13.3802C11.95 13.3521 12.05 13.3521 12.1443 13.3802C12.2476 13.4109 12.3406 13.4895 12.5265 13.6468C12.8088 13.8855 12.9499 14.0048 13.0501 13.9999C13.1401 13.9954 13.2215 13.9433 13.2657 13.8618C13.315 13.7712 13.2755 13.5867 13.1967 13.2178L13.1809 13.1443C13.137 12.9386 13.115 12.8358 13.1286 12.7375C13.1368 12.6785 13.1543 12.6213 13.1803 12.5683C13.2238 12.4798 13.2989 12.4089 13.449 12.2671L13.5383 12.1829C13.8595 11.8796 14.0201 11.7279 13.998 11.5831C13.9934 11.5531 13.984 11.5241 13.9702 11.4973C13.9035 11.368 13.685 11.3477 13.248 11.3071C12.9899 11.2831 12.8608 11.2711 12.7574 11.2065C12.7284 11.1883 12.7012 11.1673 12.6761 11.1437C12.5867 11.0596 12.5389 10.9359 12.4432 10.6885C12.2751 10.2536 12.191 10.0361 12.0545 10.0059C12.0186 9.99802 11.9814 9.99802 11.9455 10.0059C11.809 10.0361 11.7249 10.2536 11.5568 10.6885Z" fill="#222222"/>
</svg>
