<svg width="24" height="24" viewBox="0 0 24 24" fill="none" xmlns="http://www.w3.org/2000/svg">
<circle cx="12" cy="12" r="9" fill="#2A4157" fill-opacity="0.24"/>
<path d="M12 5.3C12 5.15741 12 5.08611 12.0462 5.04182C12.0925 4.99753 12.1616 5.0005 12.2999 5.00643C13.4246 5.05465 14.5226 5.37351 15.5 5.93782C16.5641 6.5522 17.4478 7.43587 18.0622 8.5C18.6766 9.56413 19 10.7712 19 12C19 13.2288 18.6766 14.4359 18.0622 15.5C17.4478 16.5641 16.5641 17.4478 15.5 18.0622C14.4359 18.6766 13.2288 19 12 19C10.7712 19 9.56413 18.6766 8.5 18.0622C7.52259 17.4979 6.69743 16.7064 6.09335 15.7565C6.01906 15.6397 5.98191 15.5813 5.99716 15.5191C6.0124 15.4569 6.07414 15.4213 6.19763 15.35L11.85 12.0866C11.9232 12.0443 11.9598 12.0232 11.9799 11.9884C12 11.9536 12 11.9113 12 11.8268V5.3Z" fill="#222222"/>
</svg>
