<svg width="24" height="24" viewBox="0 0 24 24" fill="none" xmlns="http://www.w3.org/2000/svg">
<path d="M12 4V6" stroke="#2A4157" stroke-opacity="0.24" stroke-width="1.2" stroke-linecap="round"/>
<path d="M12 11.9996L6.05859 6.06641" stroke="#222222" stroke-width="1.2" stroke-linecap="round"/>
<path d="M20 12L18 12" stroke="#2A4157" stroke-opacity="0.24" stroke-width="1.2" stroke-linecap="round"/>
<path d="M12 18V20" stroke="#2A4157" stroke-opacity="0.24" stroke-width="1.2" stroke-linecap="round"/>
<path d="M6 12L4 12" stroke="#2A4157" stroke-opacity="0.24" stroke-width="1.2" stroke-linecap="round"/>
<path d="M12 3.6C13.9434 3.6 15.8266 4.27384 17.3289 5.50671C18.8312 6.73958 19.8595 8.4552 20.2386 10.3612C20.6177 12.2673 20.3242 14.2458 19.4081 15.9597C18.492 17.6736 17.01 19.0169 15.2145 19.7606C13.4191 20.5043 11.4213 20.6024 9.56161 20.0383C7.7019 19.4742 6.09534 18.2827 5.01565 16.6668C3.93597 15.0509 3.44996 13.1107 3.64045 11.1767C3.83093 9.24263 4.68612 7.43448 6.06031 6.0603" stroke="#222222" stroke-width="1.2" stroke-linecap="round"/>
</svg>
