<svg width="24" height="24" viewBox="0 0 24 24" fill="none" xmlns="http://www.w3.org/2000/svg">
<path fill-rule="evenodd" clip-rule="evenodd" d="M12 21C16.9706 21 21 16.9706 21 12C21 7.02944 16.9706 3 12 3C7.02944 3 3 7.02944 3 12C3 16.9706 7.02944 21 12 21ZM12.0796 5.06765C12 5.14181 12 5.2612 12 5.5V11.7113C12 11.8522 12 11.9226 11.9665 11.9807C11.933 12.0387 11.872 12.0739 11.75 12.1443L6.37083 15.25C6.16403 15.3694 6.06063 15.4291 6.03624 15.5351C6.01184 15.6412 6.07559 15.7354 6.20307 15.9237C6.79578 16.7994 7.58052 17.5313 8.5 18.0622C9.56413 18.6766 10.7712 19 12 19C13.2288 19 14.4359 18.6766 15.5 18.0622C16.5641 17.4478 17.4478 16.5641 18.0622 15.5C18.6766 14.4359 19 13.2288 19 12C19 10.7712 18.6766 9.56413 18.0622 8.5C17.4478 7.43587 16.5641 6.5522 15.5 5.93782C14.5805 5.40696 13.5543 5.09331 12.4996 5.01785C12.2727 5.00162 12.1593 4.9935 12.0796 5.06765Z" fill="#222222"/>
</svg>
