<svg width="24" height="24" viewBox="0 0 24 24" fill="none" xmlns="http://www.w3.org/2000/svg">
<mask id="path-1-outside-1_1358_3794" maskUnits="userSpaceOnUse" x="1" y="1" width="22" height="22" fill="black">
<rect fill="white" x="1" y="1" width="22" height="22"/>
<path d="M12 2C14.3136 2 16.5555 2.80219 18.3439 4.2699C20.1323 5.7376 21.3565 7.78 21.8079 10.0491C22.2592 12.3182 21.9098 14.6736 20.8192 16.714C19.7286 18.7543 17.9643 20.3534 15.8268 21.2388C13.6894 22.1242 11.3111 22.241 9.09717 21.5694C6.88323 20.8978 4.97066 19.4793 3.68532 17.5557C2.39998 15.6321 1.8214 13.3222 2.04817 11.0198C2.27494 8.71741 3.29302 6.56486 4.92895 4.92893L7.75738 7.75736C6.77582 8.73891 6.16497 10.0304 6.02891 11.4119C5.89285 12.7933 6.23999 14.1792 7.0112 15.3334C7.7824 16.4876 8.92995 17.3387 10.2583 17.7416C11.5867 18.1446 13.0136 18.0745 14.2961 17.5433C15.5786 17.0121 16.6372 16.0526 17.2915 14.8284C17.9459 13.6042 18.1555 12.1909 17.8847 10.8295C17.6139 9.468 16.8794 8.24256 15.8064 7.36194C14.7333 6.48132 13.3881 6 12 6L12 2Z"/>
</mask>
<path d="M12 2C14.3136 2 16.5555 2.80219 18.3439 4.2699C20.1323 5.7376 21.3565 7.78 21.8079 10.0491C22.2592 12.3182 21.9098 14.6736 20.8192 16.714C19.7286 18.7543 17.9643 20.3534 15.8268 21.2388C13.6894 22.1242 11.3111 22.241 9.09717 21.5694C6.88323 20.8978 4.97066 19.4793 3.68532 17.5557C2.39998 15.6321 1.8214 13.3222 2.04817 11.0198C2.27494 8.71741 3.29302 6.56486 4.92895 4.92893L7.75738 7.75736C6.77582 8.73891 6.16497 10.0304 6.02891 11.4119C5.89285 12.7933 6.23999 14.1792 7.0112 15.3334C7.7824 16.4876 8.92995 17.3387 10.2583 17.7416C11.5867 18.1446 13.0136 18.0745 14.2961 17.5433C15.5786 17.0121 16.6372 16.0526 17.2915 14.8284C17.9459 13.6042 18.1555 12.1909 17.8847 10.8295C17.6139 9.468 16.8794 8.24256 15.8064 7.36194C14.7333 6.48132 13.3881 6 12 6L12 2Z" fill="#222222"/>
<path d="M12 2V1H11V2L12 2ZM18.3439 4.2699L18.9783 3.49689L18.3439 4.2699ZM20.8192 16.714L21.7011 17.1854L20.8192 16.714ZM15.8268 21.2388L16.2095 22.1627L15.8268 21.2388ZM9.09717 21.5694L8.80688 22.5263L9.09717 21.5694ZM3.68532 17.5557L2.85385 18.1113L3.68532 17.5557ZM2.04817 11.0198L1.05298 10.9218L2.04817 11.0198ZM4.92895 4.92893L5.63606 4.22182L4.92895 3.51472L4.22184 4.22182L4.92895 4.92893ZM7.75738 7.75736L8.46448 8.46446L9.17159 7.75736L8.46448 7.05025L7.75738 7.75736ZM6.02891 11.4119L5.03372 11.3139L6.02891 11.4119ZM7.0112 15.3334L6.17973 15.889L7.0112 15.3334ZM10.2583 17.7416L9.96802 18.6986L10.2583 17.7416ZM14.2961 17.5433L13.9134 16.6194L14.2961 17.5433ZM17.2915 14.8284L16.4096 14.357L17.2915 14.8284ZM17.8847 10.8295L16.9039 11.0245L17.8847 10.8295ZM15.8064 7.36194L16.4408 6.58893L15.8064 7.36194ZM12 6H11V7H12V6ZM12 3C14.0822 3 16.1 3.72197 17.7096 5.04291L18.9783 3.49689C17.0111 1.88241 14.5449 1 12 1V3ZM17.7096 5.04291C19.3191 6.36384 20.4209 8.202 20.8271 10.2442L22.7887 9.85401C22.2922 7.358 20.9456 5.11136 18.9783 3.49689L17.7096 5.04291ZM20.8271 10.2442C21.2333 12.2864 20.9188 14.4062 19.9373 16.2426L21.7011 17.1854C22.9008 14.941 23.2851 12.35 22.7887 9.85401L20.8271 10.2442ZM19.9373 16.2426C18.9558 18.0789 17.3679 19.5181 15.4442 20.3149L16.2095 22.1627C18.5607 21.1888 20.5015 19.4298 21.7011 17.1854L19.9373 16.2426ZM15.4442 20.3149C13.5205 21.1117 11.38 21.2169 9.38745 20.6125L8.80688 22.5263C11.2422 23.2651 13.8583 23.1366 16.2095 22.1627L15.4442 20.3149ZM9.38745 20.6125C7.39491 20.008 5.67359 18.7314 4.51679 17.0001L2.85385 18.1113C4.26772 20.2273 6.37156 21.7876 8.80688 22.5263L9.38745 20.6125ZM4.51679 17.0001C3.35998 15.2688 2.83926 13.19 3.04335 11.1178L1.05298 10.9218C0.803539 13.4545 1.43997 15.9953 2.85385 18.1113L4.51679 17.0001ZM3.04335 11.1178C3.24745 9.04567 4.16372 7.10837 5.63606 5.63604L4.22184 4.22182C2.42232 6.02134 1.30243 8.38915 1.05298 10.9218L3.04335 11.1178ZM4.22184 5.63604L7.05027 8.46446L8.46448 7.05025L5.63606 4.22182L4.22184 5.63604ZM7.05027 7.05025C5.90512 8.1954 5.19246 9.70219 5.03372 11.3139L7.02409 11.5099C7.13748 10.3587 7.64652 9.28243 8.46448 8.46446L7.05027 7.05025ZM5.03372 11.3139C4.87498 12.9256 5.27999 14.5424 6.17973 15.889L7.84267 14.7779C7.2 13.816 6.91071 12.6611 7.02409 11.5099L5.03372 11.3139ZM6.17973 15.889C7.07947 17.2355 8.41827 18.2285 9.96802 18.6986L10.5486 16.7847C9.44163 16.4489 8.48534 15.7397 7.84267 14.7779L6.17973 15.889ZM9.96802 18.6986C11.5178 19.1687 13.1826 19.0869 14.6788 18.4672L13.9134 16.6194C12.8447 17.0621 11.6556 17.1205 10.5486 16.7847L9.96802 18.6986ZM14.6788 18.4672C16.175 17.8474 17.41 16.728 18.1735 15.2998L16.4096 14.357C15.8643 15.3772 14.9822 16.1767 13.9134 16.6194L14.6788 18.4672ZM18.1735 15.2998C18.9369 13.8715 19.1815 12.2227 18.8655 10.6344L16.9039 11.0245C17.1296 12.1591 16.9549 13.3368 16.4096 14.357L18.1735 15.2998ZM18.8655 10.6344C18.5496 9.046 17.6926 7.61632 16.4408 6.58893L15.172 8.13495C16.0662 8.8688 16.6783 9.89 16.9039 11.0245L18.8655 10.6344ZM16.4408 6.58893C15.1889 5.56154 13.6195 5 12 5L12 7C13.1568 7 14.2778 7.4011 15.172 8.13495L16.4408 6.58893ZM13 6L13 2L11 2L11 6H13Z" fill="#222222" mask="url(#path-1-outside-1_1358_3794)"/>
<path d="M12 12L5 5" stroke="#222222" stroke-width="2" stroke-linecap="round"/>
</svg>
