<svg width="24" height="24" viewBox="0 0 24 24" fill="none" xmlns="http://www.w3.org/2000/svg">
<path d="M12 3.3C12 3.15765 12 3.08648 12.0457 3.04226C12.0914 2.99805 12.1609 3.00036 12.3 3.005C14.174 3.06747 15.9846 3.71402 17.4765 4.85803C19.0479 6.06299 20.178 7.75256 20.6918 9.66496C21.2056 11.5773 21.0743 13.6058 20.3183 15.436C19.5623 17.2662 18.2238 18.796 16.5102 19.7883C14.7966 20.7807 12.8035 21.1802 10.8398 20.9249C8.87614 20.6696 7.05146 19.7739 5.64851 18.3764C4.24556 16.9789 3.34265 15.1578 3.0797 13.1951C2.83005 11.3317 3.17049 9.43952 4.04907 7.78303C4.11426 7.66014 4.14685 7.59869 4.20795 7.58105C4.26906 7.56341 4.33079 7.59883 4.45425 7.66968L10.0014 10.853C10.1193 10.9207 10.1782 10.9545 10.1967 11.007C10.2153 11.0595 10.1876 11.1306 10.1322 11.2727C10.0099 11.587 9.96817 11.9287 10.0134 12.2662C10.0719 12.7033 10.273 13.1088 10.5855 13.4201C10.8979 13.7313 11.3043 13.9308 11.7416 13.9876C12.1789 14.0445 12.6228 13.9555 13.0044 13.7345C13.3861 13.5135 13.6842 13.1728 13.8525 12.7652C14.0209 12.3576 14.0501 11.9059 13.9357 11.48C13.8213 11.0541 13.5696 10.6778 13.2197 10.4094C12.9495 10.2023 12.6324 10.0683 12.2989 10.018C12.148 9.99529 12.0726 9.98392 12.0363 9.94173C12 9.89955 12 9.83158 12 9.69564V3.3Z" fill="#2A4157" fill-opacity="0.24"/>
<path d="M8.65 17.8024C8.5787 17.9259 8.54306 17.9876 8.56095 18.0491C8.57884 18.1105 8.64021 18.1426 8.76294 18.2066C9.62424 18.6558 10.5707 18.9213 11.5422 18.985C12.6136 19.0552 13.6868 18.878 14.6788 18.4672C15.6708 18.0563 16.5549 17.4227 17.2629 16.6154C17.9708 15.8082 18.4836 14.8489 18.7615 13.8117C19.0394 12.7746 19.075 11.6874 18.8655 10.6344C18.656 9.58128 18.2071 8.5905 17.5535 7.73867C16.8998 6.88684 16.059 6.19678 15.096 5.72189C14.2228 5.29128 13.2704 5.04804 12.2999 5.00643C12.1616 5.0005 12.0925 4.99753 12.0462 5.04182C12 5.08611 12 5.15741 12 5.3V9.70234C12 9.83826 12 9.90622 12.0363 9.9484C12.0726 9.99057 12.148 10.002 12.2989 10.0248C12.5015 10.0555 12.6987 10.1172 12.8835 10.2083C13.1584 10.3439 13.3983 10.5408 13.5849 10.7839C13.7714 11.027 13.8995 11.3097 13.9593 11.6103C14.0191 11.9108 14.0089 12.2211 13.9296 12.517C13.8503 12.813 13.704 13.0868 13.5019 13.3172C13.2999 13.5475 13.0476 13.7283 12.7645 13.8456C12.4814 13.9629 12.1751 14.0134 11.8693 13.9934C11.6637 13.9799 11.462 13.9347 11.2712 13.86C11.1292 13.8043 11.0581 13.7765 11.0056 13.7949C10.9531 13.8133 10.9191 13.8721 10.8512 13.9898L8.65 17.8024Z" fill="#222222"/>
</svg>
