<svg width="24" height="24" viewBox="0 0 24 24" fill="none" xmlns="http://www.w3.org/2000/svg">
<path d="M5.28249 5.28248C3.72835 6.83662 2.76118 8.88154 2.54575 11.0688C2.33032 13.2561 2.87996 15.4504 4.10104 17.2779C5.32211 19.1054 7.13906 20.4529 9.24229 21.0909C11.3455 21.7289 13.6049 21.6179 15.6355 20.7769C17.6661 19.9358 19.3422 18.4166 20.3783 16.4783C21.4143 14.5399 21.7462 12.3023 21.3175 10.1466C20.8887 7.991 19.7257 6.05072 18.0267 4.6564C16.3278 3.26208 14.1979 2.5 12 2.5" stroke="#222222" stroke-linecap="round"/>
<path d="M12 12L7 7" stroke="#222222" stroke-linecap="round"/>
<path d="M12 2.5V5" stroke="#222222" stroke-linecap="round"/>
<path d="M21 12L19 12" stroke="#222222" stroke-linecap="round"/>
<path d="M12 19V21" stroke="#222222" stroke-linecap="round"/>
<path d="M5 12L3 12" stroke="#222222" stroke-linecap="round"/>
</svg>
