<svg width="24" height="24" viewBox="0 0 24 24" fill="none" xmlns="http://www.w3.org/2000/svg">
<path d="M10.1883 5.23852C11.3752 4.92049 12.6248 4.92049 13.8117 5.23852C14.9986 5.55654 16.0809 6.18139 16.9497 7.05025C17.8186 7.91911 18.4435 9.00138 18.7615 10.1883C19.0795 11.3752 19.0795 12.6248 18.7615 13.8117" stroke="#33363F" stroke-width="2" stroke-linecap="round" stroke-linejoin="round"/>
<path d="M16.9497 16.9497C15.637 18.2625 13.8565 19 12 19C10.1435 19 8.36301 18.2625 7.05025 16.9497C5.7375 15.637 5 13.8565 5 12C5 10.1435 5.7375 8.36301 7.05025 7.05025" stroke="#33363F" stroke-width="2"/>
<path d="M19 19L5 5" stroke="#33363F" stroke-width="2" stroke-linecap="round" stroke-linejoin="round"/>
<path d="M18.0353 3.1363C18.7135 3.31803 19.3319 3.67508 19.8284 4.17157C20.3249 4.66807 20.682 5.2865 20.8637 5.96472" stroke="#33363F" stroke-width="2" stroke-linecap="round"/>
</svg>
