<svg width="152" height="24" viewBox="0 0 152 24" fill="none" xmlns="http://www.w3.org/2000/svg">
<path d="M0.632812 18V17.0156L1.90625 16.7969V7.83594L0.632812 7.61719V6.625H9.1875V9.35938H7.95312L7.78125 7.82031H3.44531V11.7578H7.60938V12.9688H3.44531V16.7969L4.71875 17.0156V18H0.632812ZM10.3359 18V17.0156L11.6094 16.7969V10.7578L10.3359 10.5391V9.54688H13.1484V16.7969L14.4219 17.0156V18H10.3359ZM11.5312 7.46094V5.8125H13.1484V7.46094H11.5312ZM15.4062 18V17.0156L16.6797 16.7969V7.02344L15.4062 6.80469V5.8125H18.2188V16.7969L19.4922 17.0156V18H15.4062ZM24.2891 18.1641C23.5078 18.1641 22.8281 17.987 22.25 17.6328C21.6719 17.2734 21.224 16.776 20.9062 16.1406C20.5938 15.5052 20.4375 14.7708 20.4375 13.9375V13.5938C20.4375 12.7917 20.6016 12.0755 20.9297 11.4453C21.263 10.8099 21.7031 10.3099 22.25 9.94531C22.8021 9.57552 23.4036 9.39062 24.0547 9.39062C24.8151 9.39062 25.4505 9.54688 25.9609 9.85938C26.4766 10.1719 26.8646 10.612 27.125 11.1797C27.3854 11.7422 27.5156 12.4062 27.5156 13.1719V14.1328H22.0312L22.0078 14.1719C22.0182 14.7135 22.112 15.1953 22.2891 15.6172C22.4714 16.0339 22.7318 16.362 23.0703 16.6016C23.4089 16.8411 23.8151 16.9609 24.2891 16.9609C24.8099 16.9609 25.2656 16.888 25.6562 16.7422C26.0521 16.5911 26.3932 16.3854 26.6797 16.125L27.2812 17.125C26.9792 17.4167 26.5781 17.6641 26.0781 17.8672C25.5833 18.0651 24.987 18.1641 24.2891 18.1641ZM22.0781 12.9297H25.9766V12.7266C25.9766 12.3203 25.9036 11.9583 25.7578 11.6406C25.6172 11.3177 25.4036 11.0651 25.1172 10.8828C24.8359 10.6953 24.4818 10.6016 24.0547 10.6016C23.7109 10.6016 23.3984 10.7031 23.1172 10.9062C22.8359 11.1042 22.6042 11.375 22.4219 11.7188C22.2396 12.0625 22.1198 12.4531 22.0625 12.8906L22.0781 12.9297ZM35.5625 18V17.0156L36.8359 16.7969V7.78906H34.2578L34.0312 9.36719H32.875V6.625H42.3281V9.36719H41.1875L40.9531 7.78906H38.375V16.7969L39.6484 17.0156V18H35.5625ZM44.9609 21.4141C44.8411 21.4141 44.6849 21.3984 44.4922 21.3672C44.2995 21.3411 44.151 21.3151 44.0469 21.2891L44.2031 20.0781C44.2917 20.0885 44.4141 20.0964 44.5703 20.1016C44.7266 20.112 44.8333 20.1172 44.8906 20.1172C45.2188 20.1172 45.4844 19.9922 45.6875 19.7422C45.8958 19.4922 46.0885 19.151 46.2656 18.7188L46.6328 17.8281L43.6406 10.6641L42.7344 10.5391V9.54688H46.2812V10.5391L45.2578 10.6953L46.9062 14.9219L47.3047 16.0234H47.3516L49.3047 10.6953L48.2266 10.5391V9.54688H51.7031V10.5391L50.8281 10.6641L47.5 19.2969C47.3438 19.7031 47.1536 20.0651 46.9297 20.3828C46.7109 20.7057 46.4401 20.9583 46.1172 21.1406C45.7995 21.3229 45.4141 21.4141 44.9609 21.4141ZM52.2031 21.25V20.2578L53.3984 20.0391V10.7578L52.125 10.5391V9.54688H54.7188L54.8594 10.5781C55.1406 10.1927 55.4818 9.89844 55.8828 9.69531C56.2891 9.49219 56.7578 9.39062 57.2891 9.39062C57.987 9.39062 58.5833 9.58073 59.0781 9.96094C59.5729 10.3359 59.9505 10.8646 60.2109 11.5469C60.4714 12.224 60.6016 13.0182 60.6016 13.9297V14.0938C60.6016 14.9062 60.4688 15.6172 60.2031 16.2266C59.9427 16.8359 59.5677 17.3125 59.0781 17.6562C58.5885 17.9948 58 18.1641 57.3125 18.1641C56.7917 18.1641 56.3333 18.0781 55.9375 17.9062C55.5469 17.7292 55.2135 17.4688 54.9375 17.125V20.0391L56.2812 20.2578V21.25H52.2031ZM56.8359 16.9609C57.5651 16.9609 58.1172 16.6953 58.4922 16.1641C58.8672 15.6328 59.0547 14.9427 59.0547 14.0938V13.9297C59.0547 13.2839 58.9714 12.7161 58.8047 12.2266C58.638 11.7318 58.388 11.3438 58.0547 11.0625C57.7266 10.7812 57.3151 10.6406 56.8203 10.6406C56.3828 10.6406 56.0078 10.7396 55.6953 10.9375C55.3828 11.1354 55.1302 11.4062 54.9375 11.75V15.8672C55.1302 16.2161 55.3802 16.487 55.6875 16.6797C56 16.8672 56.3828 16.9609 56.8359 16.9609ZM65.9609 18.1641C65.1797 18.1641 64.5 17.987 63.9219 17.6328C63.3438 17.2734 62.8958 16.776 62.5781 16.1406C62.2656 15.5052 62.1094 14.7708 62.1094 13.9375V13.5938C62.1094 12.7917 62.2734 12.0755 62.6016 11.4453C62.9349 10.8099 63.375 10.3099 63.9219 9.94531C64.474 9.57552 65.0755 9.39062 65.7266 9.39062C66.487 9.39062 67.1224 9.54688 67.6328 9.85938C68.1484 10.1719 68.5365 10.612 68.7969 11.1797C69.0573 11.7422 69.1875 12.4062 69.1875 13.1719V14.1328H63.7031L63.6797 14.1719C63.6901 14.7135 63.7839 15.1953 63.9609 15.6172C64.1432 16.0339 64.4036 16.362 64.7422 16.6016C65.0807 16.8411 65.487 16.9609 65.9609 16.9609C66.4818 16.9609 66.9375 16.888 67.3281 16.7422C67.724 16.5911 68.0651 16.3854 68.3516 16.125L68.9531 17.125C68.651 17.4167 68.25 17.6641 67.75 17.8672C67.2552 18.0651 66.6589 18.1641 65.9609 18.1641ZM63.75 12.9297H67.6484V12.7266C67.6484 12.3203 67.5755 11.9583 67.4297 11.6406C67.2891 11.3177 67.0755 11.0651 66.7891 10.8828C66.5078 10.6953 66.1536 10.6016 65.7266 10.6016C65.3828 10.6016 65.0703 10.7031 64.7891 10.9062C64.5078 11.1042 64.276 11.375 64.0938 11.7188C63.9115 12.0625 63.7917 12.4531 63.7344 12.8906L63.75 12.9297ZM73.8594 18.1641C73.2917 18.1641 72.7604 18.1068 72.2656 17.9922C71.7708 17.8776 71.2448 17.7005 70.6875 17.4609L70.6719 15.4531H71.8359L72.125 16.6641C72.4167 16.7839 72.6979 16.8724 72.9688 16.9297C73.2448 16.9818 73.5417 17.0078 73.8594 17.0078C74.4844 17.0078 74.9323 16.888 75.2031 16.6484C75.474 16.4089 75.6094 16.112 75.6094 15.7578C75.6094 15.4245 75.4714 15.1432 75.1953 14.9141C74.9245 14.6797 74.4297 14.4818 73.7109 14.3203C72.6901 14.0859 71.9375 13.7734 71.4531 13.3828C70.974 12.987 70.7344 12.4609 70.7344 11.8047C70.7344 11.3464 70.8672 10.9375 71.1328 10.5781C71.3984 10.2135 71.7682 9.92448 72.2422 9.71094C72.7161 9.4974 73.2682 9.39062 73.8984 9.39062C74.5391 9.39062 75.0859 9.46354 75.5391 9.60938C75.9974 9.75521 76.3958 9.95052 76.7344 10.1953L76.8125 12.125H75.6562L75.4062 11C75.224 10.8646 75.0078 10.7604 74.7578 10.6875C74.5078 10.6146 74.2214 10.5781 73.8984 10.5781C73.4193 10.5781 73.0286 10.6901 72.7266 10.9141C72.4297 11.138 72.2812 11.4193 72.2812 11.7578C72.2812 11.9557 72.3229 12.1276 72.4062 12.2734C72.4948 12.4193 72.6615 12.5521 72.9062 12.6719C73.151 12.7865 73.5104 12.901 73.9844 13.0156C75.1615 13.2917 75.9818 13.6432 76.4453 14.0703C76.9141 14.4974 77.1484 15.0234 77.1484 15.6484C77.1484 16.362 76.8828 16.9609 76.3516 17.4453C75.8255 17.9245 74.9948 18.1641 73.8594 18.1641Z" fill="#33363F"/>
</svg>
