<svg width="24" height="24" viewBox="0 0 24 24" fill="none" xmlns="http://www.w3.org/2000/svg">
<path d="M4 7.5C4 7.2643 4 7.14645 4.07322 7.07322C4.14645 7 4.2643 7 4.5 7H19.5C19.7357 7 19.8536 7 19.9268 7.07322C20 7.14645 20 7.2643 20 7.5V7.75155C20 7.84249 20 7.88797 19.986 7.92806C19.974 7.96233 19.9547 7.99358 19.9294 8.01963C19.8998 8.0501 19.8591 8.07044 19.7778 8.11111C19.127 8.43649 18.8017 8.59917 18.565 8.84298C18.3626 9.0514 18.2082 9.30138 18.1122 9.57554C18 9.89627 18 10.2601 18 10.9876V16C18 17.8856 18 18.8284 17.4142 19.4142C16.8284 20 15.8856 20 14 20H10C8.11438 20 7.17157 20 6.58579 19.4142C6 18.8284 6 17.8856 6 16V10.9876C6 10.2601 6 9.89627 5.88778 9.57554C5.79185 9.30138 5.63735 9.0514 5.43503 8.84298C5.19835 8.59917 4.87297 8.43649 4.22222 8.11111C4.14088 8.07044 4.10021 8.0501 4.07062 8.01963C4.04533 7.99358 4.02602 7.96233 4.01403 7.92806C4 7.88797 4 7.84249 4 7.75155V7.5Z" fill="#2A4157" fill-opacity="0.24"/>
<path d="M10.0681 4.37059C10.1821 4.26427 10.4332 4.17033 10.7825 4.10332C11.1318 4.03632 11.5597 4 12 4C12.4403 4 12.8682 4.03632 13.2175 4.10332C13.5668 4.17033 13.8179 4.26427 13.9319 4.37059" stroke="#222222" stroke-linecap="round"/>
<rect x="14" y="11" width="1" height="6" rx="0.5" fill="#222222"/>
<rect x="9" y="11" width="1" height="6" rx="0.5" fill="#222222"/>
</svg>
