<svg width="24" height="24" viewBox="0 0 24 24" fill="none" xmlns="http://www.w3.org/2000/svg">
<path d="M12 17V20" stroke="#33363F" stroke-width="2" stroke-linecap="round" stroke-linejoin="round"/>
<path d="M6.25528 15.3861L7.04464 16L7.04464 16L6.25528 15.3861ZM10.4444 10V9C10.1359 9 9.84455 9.14247 9.65509 9.38606L10.4444 10ZM17.7447 15.3861L16.9554 16L16.9554 16L17.7447 15.3861ZM13.5556 10L14.3449 9.38606C14.1554 9.14247 13.8641 9 13.5556 9V10ZM7.04464 16L11.2338 10.6139L9.65509 9.38606L5.46593 14.7721L7.04464 16ZM7.04464 16L7.04464 16L5.46593 14.7721C4.44415 16.0858 5.38034 18 7.04464 18V16ZM16.9554 16H7.04464V18H16.9554V16ZM16.9554 16L16.9554 16V18C18.6197 18 19.5558 16.0858 18.5341 14.7721L16.9554 16ZM12.7662 10.6139L16.9554 16L18.5341 14.7721L14.3449 9.38606L12.7662 10.6139ZM13.5556 9H10.4444V11H13.5556V9Z" fill="#33363F"/>
<path d="M12 4L12.7071 3.29289C12.3166 2.90237 11.6834 2.90237 11.2929 3.29289L12 4ZM11.2929 3.29289L7 7.58579L8.41421 9L12.7071 4.70711L11.2929 3.29289ZM8.41421 11H15.5858V9H8.41421V11ZM17 7.58579L12.7071 3.29289L11.2929 4.70711L15.5858 9L17 7.58579ZM15.5858 11C17.3676 11 18.2599 8.84572 17 7.58579L15.5858 9V11ZM7 7.58579C5.74007 8.84571 6.6324 11 8.41421 11V9L8.41421 9L7 7.58579Z" fill="#33363F"/>
</svg>
