<svg width="24" height="24" viewBox="0 0 24 24" fill="none" xmlns="http://www.w3.org/2000/svg">
<circle cx="12" cy="13" r="8" fill="#2A4157" fill-opacity="0.24"/>
<path d="M12 13L12 8" stroke="#222222" stroke-width="1.2" stroke-linecap="round"/>
<path d="M20.3536 5.35355C20.5488 5.15829 20.5488 4.84171 20.3536 4.64645C20.1583 4.45118 19.8417 4.45118 19.6465 4.64645L20.3536 5.35355ZM18.8536 6.85355L20.3536 5.35355L19.6465 4.64645L18.1464 6.14645L18.8536 6.85355Z" fill="#222222"/>
<path d="M10.0681 3.37059C10.1821 3.26427 10.4332 3.17033 10.7825 3.10332C11.1318 3.03632 11.5597 3 12 3C12.4403 3 12.8682 3.03632 13.2175 3.10332C13.5668 3.17033 13.8179 3.26427 13.9319 3.37059" stroke="#222222" stroke-width="1.2" stroke-linecap="round"/>
</svg>
