<svg width="24" height="24" viewBox="0 0 24 24" fill="none" xmlns="http://www.w3.org/2000/svg">
<path d="M13.7007 11.0181L18.2393 8.39775C18.6198 8.17808 19.1063 8.30844 19.326 8.68892L19.4227 8.85641C20.0482 9.93988 20.0715 11.2692 19.4842 12.3739C18.7688 13.7197 17.1343 14.283 15.7416 13.6637L13.7944 12.7979C13.0476 12.4658 12.9929 11.4268 13.7007 11.0181Z" stroke="#33363F" stroke-width="2"/>
<path fill-rule="evenodd" clip-rule="evenodd" d="M17.5622 16.3658L13.2008 13.8477L13.4245 15.967C13.5294 16.9606 14.3849 17.7038 15.3834 17.6689C16.2855 17.6373 17.1079 17.1451 17.5622 16.3658ZM18.7394 14.736C19.5981 15.2319 19.8924 16.33 19.3966 17.1887L19.2999 17.3562C18.5019 18.7383 17.0483 19.6118 15.4534 19.6677C13.4054 19.7394 11.6508 18.2149 11.4356 16.177L11.2118 14.0577C11.0402 12.4322 12.7852 11.2984 14.2008 12.1157L18.7394 14.736Z" fill="#33363F"/>
<path fill-rule="evenodd" clip-rule="evenodd" d="M11 19V13.9638L9.27652 15.2172C8.4685 15.8049 8.25259 16.9173 8.78211 17.7646C9.26049 18.53 10.0979 18.9962 11 19ZM13 19.2045C13 20.1961 12.1961 21 11.2045 21H11.0111C9.41523 21 7.93193 20.1779 7.08612 18.8246C6.00002 17.0868 6.44288 14.805 8.10018 13.5997L9.82366 12.3463C11.1456 11.3849 13 12.3292 13 13.9638V19.2045Z" fill="#33363F"/>
<path fill-rule="evenodd" clip-rule="evenodd" d="M5.43782 14.6339L9.7993 12.1158L7.85205 11.2499C6.93913 10.844 5.86773 11.2133 5.39876 12.0955C4.97509 12.8924 4.99008 13.8508 5.43782 14.6339ZM6.26069 16.4682C5.40192 16.964 4.30381 16.6698 3.808 15.811L3.7113 15.6435C2.91337 14.2615 2.88369 12.5658 3.63277 11.1567C4.59466 9.34723 6.79218 8.58986 8.66465 9.42246L10.6119 10.2883C12.1055 10.9524 12.2149 13.0306 10.7993 13.8479L6.26069 16.4682Z" fill="#33363F"/>
<path fill-rule="evenodd" clip-rule="evenodd" d="M6.43758 7.63393L10.7991 10.152L10.5753 8.03273C10.4704 7.03915 9.61489 6.29592 8.6164 6.33088C7.71436 6.36246 6.8919 6.85462 6.43758 7.63393ZM5.26045 9.26371C4.40168 8.7679 4.10744 7.66979 4.60325 6.81102L4.69995 6.64353C5.49789 5.26147 6.95152 4.38795 8.54641 4.3321C10.5944 4.26039 12.3491 5.78481 12.5642 7.82273L12.788 9.94202C12.9596 11.5676 11.2146 12.7014 9.79906 11.8841L5.26045 9.26371Z" fill="#33363F"/>
<path d="M12 10.0362V4.79549C12 4.35616 12.3562 4 12.7955 4H12.9889C14.24 4 15.4028 4.6445 16.0659 5.70541C16.8737 6.99791 16.5443 8.69505 15.3117 9.59153L13.5882 10.845C12.9272 11.3257 12 10.8535 12 10.0362Z" stroke="#33363F" stroke-width="2"/>
</svg>
