<svg width="24" height="24" viewBox="0 0 24 24" fill="none" xmlns="http://www.w3.org/2000/svg">
<path d="M13.7007 11.0181L18.2393 8.39775C18.6198 8.17808 19.1063 8.30844 19.326 8.68892L19.4227 8.85641C20.0482 9.93988 20.0715 11.2692 19.4842 12.3739C18.7688 13.7197 17.1343 14.283 15.7416 13.6637L13.7944 12.7979C13.0476 12.4658 12.9929 11.4268 13.7007 11.0181Z" stroke="#222222"/>
<path d="M12 13.9638V19.2045C12 19.6438 11.6438 20 11.2045 20H11.0111C9.76002 20 8.59719 19.3555 7.93412 18.2946C7.12631 17.0021 7.45569 15.305 8.68835 14.4085L10.4118 13.155C11.0728 12.6743 12 13.1465 12 13.9638Z" stroke="#222222"/>
<path d="M13.7008 12.9819L18.2394 15.6023C18.6198 15.8219 18.7502 16.3084 18.5305 16.6889L18.4338 16.8564C17.8083 17.9399 16.6687 18.6247 15.4184 18.6685C13.8952 18.7218 12.5901 17.588 12.4301 16.0722L12.2063 13.9529C12.1205 13.1401 12.993 12.5732 13.7008 12.9819Z" stroke="#222222"/>
<path d="M10.2993 12.9819L5.7607 15.6023C5.38022 15.8219 4.8937 15.6916 4.67403 15.3111L4.57733 15.1436C3.95179 14.0601 3.92852 12.7308 4.51577 11.6261C5.2312 10.2803 6.86566 9.71699 8.25835 10.3363L10.2056 11.2021C10.9524 11.5342 11.0071 12.5732 10.2993 12.9819Z" stroke="#222222"/>
<path d="M10.2991 11.0181L5.76045 8.39775C5.37997 8.17808 5.24961 7.69156 5.46928 7.31108L5.56598 7.14359C6.19152 6.06012 7.33109 5.37533 8.58141 5.33155C10.1046 5.27821 11.4097 6.41204 11.5698 7.92779L11.7935 10.0471C11.8794 10.8599 11.0069 11.4268 10.2991 11.0181Z" stroke="#222222"/>
<path d="M12 10.0362V4.79549C12 4.35616 12.3562 4 12.7955 4H12.9889C14.24 4 15.4028 4.6445 16.0659 5.70541C16.8737 6.99791 16.5443 8.69505 15.3117 9.59153L13.5882 10.845C12.9272 11.3257 12 10.8535 12 10.0362Z" stroke="#222222"/>
</svg>
