<svg width="24" height="24" viewBox="0 0 24 24" fill="none" xmlns="http://www.w3.org/2000/svg">
<path fill-rule="evenodd" clip-rule="evenodd" d="M3.87868 7.87868C3 8.75736 3 10.1716 3 13V14C3 17.7712 3 19.6569 4.17157 20.8284C5.34315 22 7.22876 22 11 22H13C16.7712 22 18.6569 22 19.8284 20.8284C21 19.6569 21 17.7712 21 14V13C21 10.1716 21 8.75736 20.1213 7.87868C19.2426 7 17.8284 7 15 7H9C6.17157 7 4.75736 7 3.87868 7.87868ZM12 15C12.5523 15 13 14.5523 13 14C13 13.4477 12.5523 13 12 13C11.4477 13 11 13.4477 11 14C11 14.5523 11.4477 15 12 15ZM15 14C15 15.3062 14.1652 16.4175 13 16.8293V19H11V16.8293C9.83481 16.4175 9 15.3062 9 14C9 12.3431 10.3431 11 12 11C13.6569 11 15 12.3431 15 14Z" fill="#222222"/>
<path d="M16.5 7.99981V7.99981C16.8043 6.17359 16.0108 4.33842 14.4717 3.30935L14.0979 3.05946C12.0734 1.70579 9.3937 1.87263 7.55269 3.46699L6.66992 4.23149" stroke="#222222" stroke-width="2" stroke-linecap="round"/>
</svg>
