<svg width="24" height="24" viewBox="0 0 24 24" fill="none" xmlns="http://www.w3.org/2000/svg">
<path d="M10 4L10.7071 3.29289L10 2.58579L9.29289 3.29289L10 4ZM18 21C18.5523 21 19 20.5523 19 20C19 19.4477 18.5523 19 18 19L18 21ZM15.7071 8.29289L10.7071 3.29289L9.29289 4.70711L14.2929 9.70711L15.7071 8.29289ZM9.29289 3.29289L4.29289 8.29289L5.70711 9.70711L10.7071 4.70711L9.29289 3.29289ZM9 4L9 14L11 14L11 4L9 4ZM16 21L18 21L18 19L16 19L16 21ZM9 14C9 17.866 12.134 21 16 21L16 19C13.2386 19 11 16.7614 11 14L9 14Z" fill="#33363F"/>
</svg>
