<svg width="24" height="24" viewBox="0 0 24 24" fill="none" xmlns="http://www.w3.org/2000/svg">
<path d="M10 4L10.3536 3.64645L10 3.29289L9.64645 3.64645L10 4ZM18 20.5C18.2761 20.5 18.5 20.2761 18.5 20C18.5 19.7239 18.2761 19.5 18 19.5L18 20.5ZM15.3536 8.64645L10.3536 3.64645L9.64645 4.35355L14.6464 9.35355L15.3536 8.64645ZM9.64645 3.64645L4.64645 8.64645L5.35355 9.35355L10.3536 4.35355L9.64645 3.64645ZM9.5 4L9.5 14L10.5 14L10.5 4L9.5 4ZM16 20.5L18 20.5L18 19.5L16 19.5L16 20.5ZM9.5 14C9.5 17.5899 12.4101 20.5 16 20.5L16 19.5C12.9624 19.5 10.5 17.0376 10.5 14L9.5 14Z" fill="#222222"/>
</svg>
