<svg width="24" height="24" viewBox="0 0 24 24" fill="none" xmlns="http://www.w3.org/2000/svg">
<path fill-rule="evenodd" clip-rule="evenodd" d="M6 13H12H18C19.6569 13 21 11.6569 21 10C21 8.34315 19.6569 7 18 7C17.7205 7 17.5807 7 17.483 6.98034C17.185 6.92036 17.0435 6.82876 16.8667 6.58143C16.8088 6.50036 16.7272 6.31851 16.5639 5.95481C15.7822 4.21307 14.0328 3 12 3C9.96722 3 8.21776 4.21308 7.43606 5.95481C7.27282 6.31851 7.19121 6.50036 7.13328 6.58143C6.95652 6.82876 6.81502 6.92036 6.51699 6.98034C6.41931 7 6.27954 7 6 7C4.34315 7 3 8.34315 3 10C3 11.6569 4.34315 13 6 13Z" fill="#2A4157" fill-opacity="0.24"/>
<path d="M9.85355 11.8536C9.65829 12.0488 9.34171 12.0488 9.14645 11.8536C8.95118 11.6583 8.95118 11.3417 9.14645 11.1464L9.85355 11.8536ZM12 9L11.6464 8.64645L12 8.29289L12.3536 8.64645L12 9ZM14.8536 11.1464C15.0488 11.3417 15.0488 11.6583 14.8536 11.8536C14.6583 12.0488 14.3417 12.0488 14.1464 11.8536L14.8536 11.1464ZM12.5 19C12.5 19.2761 12.2761 19.5 12 19.5C11.7239 19.5 11.5 19.2761 11.5 19L12.5 19ZM9.14645 11.1464L11.6464 8.64645L12.3536 9.35355L9.85355 11.8536L9.14645 11.1464ZM12.3536 8.64645L14.8536 11.1464L14.1464 11.8536L11.6464 9.35355L12.3536 8.64645ZM12.5 9L12.5 19L11.5 19L11.5 9L12.5 9Z" fill="#222222"/>
</svg>
