<svg width="24" height="24" viewBox="0 0 24 24" fill="none" xmlns="http://www.w3.org/2000/svg">
<path fill-rule="evenodd" clip-rule="evenodd" d="M12 2C9.55912 2 7.4608 3.45744 6.52373 5.54534C6.44011 5.73166 6.38425 5.85598 6.34206 5.94471C6.33167 5.96657 6.32326 5.98381 6.31654 5.99729L6.29677 5.99799C6.23318 5.99989 6.14598 6 6 6C3.79086 6 2 7.79086 2 10C2 12.2091 3.79086 14 6 14H6.17157L8.17157 12H6C4.89543 12 4 11.1046 4 10C4 8.89543 4.89543 8 6 8L6.06419 8.0001H6.0642C6.27177 8.00057 6.51342 8.00111 6.71431 7.96068C6.92683 7.91791 7.17254 7.84692 7.414 7.69062C7.65546 7.53433 7.82083 7.33923 7.94687 7.16285C8.03371 7.04134 8.10219 6.90047 8.14829 6.8035C8.20111 6.69243 8.26605 6.54772 8.34352 6.37511L8.34839 6.36427C8.97472 4.96871 10.3753 4 12 4C13.6247 4 15.0253 4.96871 15.6516 6.36427L15.6565 6.37511C15.7339 6.54772 15.7989 6.69243 15.8517 6.8035C15.8978 6.90047 15.9663 7.04134 16.0531 7.16285C16.1792 7.33923 16.3445 7.53433 16.586 7.69062C16.8275 7.84692 17.0732 7.91791 17.2857 7.96068C17.4866 8.00111 17.7282 8.00057 17.9358 8.0001H17.9358L18 8C19.1046 8 20 8.89543 20 10C20 11.1046 19.1046 12 18 12H15.8284L17.8284 14H18C20.2091 14 22 12.2091 22 10C22 7.79086 20.2091 6 18 6C17.854 6 17.7668 5.99989 17.7032 5.99799L17.6835 5.99729C17.6767 5.98381 17.6683 5.96657 17.6579 5.94471C17.6158 5.85598 17.5599 5.73166 17.4763 5.54534C16.5392 3.45744 14.4409 2 12 2ZM6.29756 6.03369C6.29755 6.03369 6.29761 6.03357 6.29774 6.03336L6.29777 6.03333L6.29756 6.03369ZM17.7024 6.03369C17.7024 6.03369 17.7024 6.03358 17.7022 6.03333L17.7023 6.03336L17.7024 6.03369Z" fill="#33363F"/>
<path d="M12 12L11.2929 11.2929L12 10.5858L12.7071 11.2929L12 12ZM13 21C13 21.5523 12.5523 22 12 22C11.4477 22 11 21.5523 11 21L13 21ZM7.29289 15.2929L11.2929 11.2929L12.7071 12.7071L8.70711 16.7071L7.29289 15.2929ZM12.7071 11.2929L16.7071 15.2929L15.2929 16.7071L11.2929 12.7071L12.7071 11.2929ZM13 12L13 21L11 21L11 12L13 12Z" fill="#33363F"/>
</svg>
