<svg width="24" height="24" viewBox="0 0 24 24" fill="none" xmlns="http://www.w3.org/2000/svg">
<circle cx="12" cy="8" r="4" fill="#2A4157" fill-opacity="0.24" stroke="#222222" stroke-width="1.2" stroke-linecap="round"/>
<path fill-rule="evenodd" clip-rule="evenodd" d="M15.591 16C15.1397 15.8416 14.6706 15.7131 14.1888 15.6162C12.7543 15.328 11.2457 15.328 9.81123 15.6162C8.37727 15.9044 7.05548 16.4731 5.98314 17.2774C4.91043 18.0819 4.11626 19.1013 3.70756 20.2452C3.59608 20.5573 3.75867 20.9006 4.07072 21.0121C4.38278 21.1236 4.72613 20.961 4.83761 20.649C5.15583 19.7583 5.78988 18.9223 6.70314 18.2374C7.61677 17.5522 8.76873 17.0497 10.0477 16.7927C10.8677 16.6279 11.7163 16.5688 12.5568 16.6154C12.9207 16.2361 13.4328 16 14 16L15.591 16Z" fill="#222222"/>
<path d="M18 14L18 22" stroke="#222222" stroke-width="1.2" stroke-linecap="round"/>
<path d="M22 18L14 18" stroke="#222222" stroke-width="1.2" stroke-linecap="round"/>
</svg>
