<svg width="24" height="24" viewBox="0 0 24 24" fill="none" xmlns="http://www.w3.org/2000/svg">
<path fill-rule="evenodd" clip-rule="evenodd" d="M2 12C2 6.47715 6.47715 2 12 2C17.5228 2 22 6.47715 22 12C22 15.0141 20.6665 17.7167 18.5573 19.5501C18.0996 18.3251 17.306 17.2481 16.2613 16.4465C15.0388 15.5085 13.5409 15 12 15C10.4591 15 8.96118 15.5085 7.73867 16.4465C6.69405 17.2481 5.90038 18.3251 5.44269 19.5501C3.33349 17.7167 2 15.0141 2 12ZM16.8296 20.7059C16.8337 20.7212 16.8381 20.7363 16.8429 20.7512C15.4081 21.5469 13.757 22 12 22C10.243 22 8.59193 21.5469 7.15711 20.7512C7.16185 20.7363 7.16628 20.7212 7.17037 20.7059C7.45525 19.6427 8.08297 18.7033 8.95619 18.0332C9.82942 17.3632 10.8993 17 12 17C13.1007 17 14.1706 17.3632 15.0438 18.0332C15.917 18.7033 16.5448 19.6427 16.8296 20.7059ZM10 9C10 7.89543 10.8954 7 12 7C13.1046 7 14 7.89543 14 9C14 10.1046 13.1046 11 12 11C10.8954 11 10 10.1046 10 9ZM12 5C9.79086 5 8 6.79086 8 9C8 11.2091 9.79086 13 12 13C14.2091 13 16 11.2091 16 9C16 6.79086 14.2091 5 12 5Z" fill="#222222"/>
<rect x="2.5" y="2.5" width="19" height="19" rx="9.5" stroke="#222222"/>
</svg>
