<svg width="24" height="24" viewBox="0 0 24 24" fill="none" xmlns="http://www.w3.org/2000/svg">
<circle cx="12" cy="9" r="3" fill="#222222"/>
<path fill-rule="evenodd" clip-rule="evenodd" d="M17.4514 15.9084C17.5088 16.0121 17.4793 16.1415 17.3843 16.2125C15.8828 17.3352 14.0191 18 12.0001 18C9.98102 18 8.11725 17.3351 6.61576 16.2124C6.52078 16.1414 6.49125 16.0121 6.54868 15.9083C7.49884 14.1915 9.58245 13 12 13C14.4176 13 16.5012 14.1915 17.4514 15.9084Z" fill="#2A4157" fill-opacity="0.24"/>
<path d="M17.5 3.5H17.7C19.4913 3.5 20.387 3.5 20.9435 4.0565C21.5 4.61299 21.5 5.50866 21.5 7.3V7.5" stroke="#222222" stroke-linecap="round"/>
<path d="M17.5 20.5H17.7C19.4913 20.5 20.387 20.5 20.9435 19.9435C21.5 19.387 21.5 18.4913 21.5 16.7V16.5" stroke="#222222" stroke-linecap="round"/>
<path d="M6.5 3.5H6.3C4.50866 3.5 3.61299 3.5 3.0565 4.0565C2.5 4.61299 2.5 5.50866 2.5 7.3V7.5" stroke="#222222" stroke-linecap="round"/>
<path d="M6.5 20.5H6.3C4.50866 20.5 3.61299 20.5 3.0565 19.9435C2.5 19.387 2.5 18.4913 2.5 16.7V16.5" stroke="#222222" stroke-linecap="round"/>
</svg>
