<svg width="24" height="24" viewBox="0 0 24 24" fill="none" xmlns="http://www.w3.org/2000/svg">
<path d="M8 20L7.64645 20.3536L8 20.7071L8.35355 20.3536L8 20ZM10 6.5C10.2761 6.5 10.5 6.27614 10.5 6C10.5 5.72386 10.2761 5.5 10 5.5L10 6.5ZM4.64645 17.3536L7.64645 20.3536L8.35355 19.6464L5.35355 16.6464L4.64645 17.3536ZM8.35355 20.3536L11.3536 17.3536L10.6464 16.6464L7.64645 19.6464L8.35355 20.3536ZM8.5 20L8.5 8L7.5 8L7.5 20L8.5 20ZM8.5 8C8.5 7.17157 9.17157 6.5 10 6.5L10 5.5C8.61929 5.5 7.5 6.61929 7.5 8L8.5 8Z" fill="#222222"/>
<path d="M16 4L15.6464 3.64645L16 3.29289L16.3536 3.64645L16 4ZM16 17L16.5 17L16 17ZM14 19.5C13.7239 19.5 13.5 19.2761 13.5 19C13.5 18.7239 13.7239 18.5 14 18.5L14 19.5ZM12.6464 6.64645L15.6464 3.64645L16.3536 4.35355L13.3536 7.35355L12.6464 6.64645ZM16.3536 3.64645L19.3536 6.64645L18.6464 7.35355L15.6464 4.35355L16.3536 3.64645ZM16.5 4L16.5 17L15.5 17L15.5 4L16.5 4ZM16.5 17C16.5 18.3807 15.3807 19.5 14 19.5L14 18.5C14.8284 18.5 15.5 17.8284 15.5 17L16.5 17Z" fill="#222222"/>
</svg>
