<svg width="24" height="24" viewBox="0 0 24 24" fill="none" xmlns="http://www.w3.org/2000/svg">
<path d="M8 20L7.29289 20.7071L8 21.4142L8.70711 20.7071L8 20ZM8 12L7 12L8 12ZM10 11C10.5523 11 11 10.5523 11 10C11 9.44771 10.5523 9 10 9L10 11ZM3.29289 16.7071L7.29289 20.7071L8.70711 19.2929L4.70711 15.2929L3.29289 16.7071ZM8.70711 20.7071L12.7071 16.7071L11.2929 15.2929L7.29289 19.2929L8.70711 20.7071ZM9 20L9 12L7 12L7 20L9 20ZM9 12C9 11.4477 9.44771 11 10 11L10 9C8.34315 9 7 10.3431 7 12L9 12Z" fill="#33363F"/>
<path d="M16 4L15.2929 3.29289L16 2.58579L16.7071 3.29289L16 4ZM16 12L17 12L16 12ZM14 15C13.4477 15 13 14.5523 13 14C13 13.4477 13.4477 13 14 13L14 15ZM11.2929 7.29289L15.2929 3.29289L16.7071 4.70711L12.7071 8.70711L11.2929 7.29289ZM16.7071 3.29289L20.7071 7.29289L19.2929 8.70711L15.2929 4.70711L16.7071 3.29289ZM17 4L17 12L15 12L15 4L17 4ZM17 12C17 13.6569 15.6569 15 14 15L14 13C14.5523 13 15 12.5523 15 12L17 12Z" fill="#33363F"/>
</svg>
