<svg width="24" height="24" viewBox="0 0 24 24" fill="none" xmlns="http://www.w3.org/2000/svg">
<path d="M8 20L7.64645 20.3536L8 20.7071L8.35355 20.3536L8 20ZM14 4.5C14.2761 4.5 14.5 4.27614 14.5 4C14.5 3.72386 14.2761 3.5 14 3.5L14 4.5ZM3.64645 16.3536L7.64645 20.3536L8.35355 19.6464L4.35355 15.6464L3.64645 16.3536ZM8.35355 20.3536L12.3536 16.3536L11.6464 15.6464L7.64645 19.6464L8.35355 20.3536ZM8.5 20L8.5 8L7.5 8L7.5 20L8.5 20ZM12 4.5L14 4.5L14 3.5L12 3.5L12 4.5ZM8.5 8C8.5 6.067 10.067 4.5 12 4.5L12 3.5C9.51472 3.5 7.5 5.51472 7.5 8L8.5 8Z" fill="#222222"/>
<path d="M16 8L15.6464 7.64645L16 7.29289L16.3536 7.64645L16 8ZM16 16L16.5 16L16 16ZM13 19.5C12.7239 19.5 12.5 19.2761 12.5 19C12.5 18.7239 12.7239 18.5 13 18.5L13 19.5ZM11.6464 11.6464L15.6464 7.64645L16.3536 8.35355L12.3536 12.3536L11.6464 11.6464ZM16.3536 7.64645L20.3536 11.6464L19.6464 12.3536L15.6464 8.35355L16.3536 7.64645ZM16.5 8L16.5 16L15.5 16L15.5 8L16.5 8ZM16.5 16C16.5 17.933 14.933 19.5 13 19.5L13 18.5C14.3807 18.5 15.5 17.3807 15.5 16L16.5 16Z" fill="#222222"/>
</svg>
