<svg width="24" height="24" viewBox="0 0 24 24" fill="none" xmlns="http://www.w3.org/2000/svg">
<path d="M8 20L7.29289 20.7071L8 21.4142L8.70711 20.7071L8 20ZM14 5C14.5523 5 15 4.55228 15 4C15 3.44772 14.5523 3 14 3L14 5ZM3.29289 16.7071L7.29289 20.7071L8.70711 19.2929L4.70711 15.2929L3.29289 16.7071ZM8.70711 20.7071L12.7071 16.7071L11.2929 15.2929L7.29289 19.2929L8.70711 20.7071ZM9 20L9 8L7 8L7 20L9 20ZM12 5L14 5L14 3L12 3L12 5ZM9 8C9 6.34315 10.3431 5 12 5L12 3C9.23858 3 7 5.23858 7 8L9 8Z" fill="#33363F"/>
<path d="M16 10L15.2929 9.29289L16 8.58579L16.7071 9.29289L16 10ZM16 18L17 18L16 18ZM14 21C13.4477 21 13 20.5523 13 20C13 19.4477 13.4477 19 14 19L14 21ZM11.2929 13.2929L15.2929 9.29289L16.7071 10.7071L12.7071 14.7071L11.2929 13.2929ZM16.7071 9.29289L20.7071 13.2929L19.2929 14.7071L15.2929 10.7071L16.7071 9.29289ZM17 10L17 18L15 18L15 10L17 10ZM17 18C17 19.6569 15.6569 21 14 21L14 19C14.5523 19 15 18.5523 15 18L17 18Z" fill="#33363F"/>
</svg>
