<svg width="24" height="24" viewBox="0 0 24 24" fill="none" xmlns="http://www.w3.org/2000/svg">
<path d="M8 20L7.64645 20.3536L8 20.7071L8.35355 20.3536L8 20ZM8 12L7.5 12L8 12ZM10 10.5C10.2761 10.5 10.5 10.2761 10.5 10C10.5 9.72386 10.2761 9.5 10 9.5L10 10.5ZM3.64645 16.3536L7.64645 20.3536L8.35355 19.6464L4.35355 15.6464L3.64645 16.3536ZM8.35355 20.3536L12.3536 16.3536L11.6464 15.6464L7.64645 19.6464L8.35355 20.3536ZM8.5 20L8.5 12L7.5 12L7.5 20L8.5 20ZM8.5 12C8.5 11.1716 9.17157 10.5 10 10.5L10 9.5C8.61929 9.5 7.5 10.6193 7.5 12L8.5 12Z" fill="#222222"/>
<path d="M16 4L15.6464 3.64645L16 3.29289L16.3536 3.64645L16 4ZM16 12L16.5 12L16 12ZM14 14.5C13.7239 14.5 13.5 14.2761 13.5 14C13.5 13.7239 13.7239 13.5 14 13.5L14 14.5ZM11.6464 7.64645L15.6464 3.64645L16.3536 4.35355L12.3536 8.35355L11.6464 7.64645ZM16.3536 3.64645L20.3536 7.64645L19.6464 8.35355L15.6464 4.35355L16.3536 3.64645ZM16.5 4L16.5 12L15.5 12L15.5 4L16.5 4ZM16.5 12C16.5 13.3807 15.3807 14.5 14 14.5L14 13.5C14.8284 13.5 15.5 12.8284 15.5 12L16.5 12Z" fill="#222222"/>
</svg>
