<svg width="24" height="24" viewBox="0 0 24 24" fill="none" xmlns="http://www.w3.org/2000/svg">
<path fill-rule="evenodd" clip-rule="evenodd" d="M13 3H7C5.89543 3 5 3.89543 5 5V19C5 20.1046 5.89543 21 7 21H17C18.1046 21 19 20.1046 19 19V9H15.5C14.1193 9 13 7.88071 13 6.5V3ZM18.8178 8C18.7184 7.78333 18.5801 7.5841 18.4074 7.41308L14.5366 3.57905C14.3784 3.42235 14.1968 3.2947 14 3.19953V6.5C14 7.32843 14.6716 8 15.5 8H18.8178Z" fill="#2A4157" fill-opacity="0.24"/>
<path d="M10 16.1169V11.8831C10 11.4944 10.424 11.2544 10.7572 11.4543L14.2854 13.5713C14.6091 13.7655 14.6091 14.2345 14.2854 14.4287L10.7572 16.5457C10.424 16.7456 10 16.5056 10 16.1169Z" fill="#222222"/>
</svg>
