<svg width="24" height="24" viewBox="0 0 24 24" fill="none" xmlns="http://www.w3.org/2000/svg">
<path fill-rule="evenodd" clip-rule="evenodd" d="M12.7534 3.26628C13.041 3.53256 13.0747 3.97057 13.142 4.84661L13.358 7.65339C13.4253 8.52943 13.459 8.96744 13.7466 9.23372C14.0341 9.5 14.4734 9.5 15.3521 9.5H17.3622C18.364 9.5 18.865 9.5 19.1614 9.81682C19.4578 10.1336 19.4244 10.6334 19.3578 11.633L19 17C19 18.8856 19 19.8284 18.4142 20.4142C17.8284 21 16.8856 21 15 21H9C7.11438 21 6.17157 21 5.58579 20.4142C5 19.8284 5 18.8856 5 17V7C5 5.11438 5 4.17157 5.58579 3.58579C6.17157 3 7.11438 3 9 3H11.1479C12.0266 3 12.4659 3 12.7534 3.26628ZM10.6727 12.7165L13.8553 14.0805C14.6634 14.4268 14.6634 15.5724 13.8553 15.9188L10.6727 17.2827C9.88086 17.6221 9 17.0413 9 16.1798V13.8195C9 12.958 9.88086 12.3771 10.6727 12.7165Z" fill="#2A4157" fill-opacity="0.24"/>
<path d="M13.1716 3H9C7.11438 3 6.17157 3 5.58579 3.58579C5 4.17157 5 5.11438 5 7V17C5 18.8856 5 19.8284 5.58579 20.4142C6.17157 21 7.11438 21 9 21H15C16.8856 21 17.8284 21 18.4142 20.4142C19 19.8284 19 18.8856 19 17V8.82843C19 8.41968 19 8.2153 18.9239 8.03153C18.8478 7.84776 18.7032 7.70324 18.4142 7.41421L14.5858 3.58579C14.2968 3.29676 14.1522 3.15224 13.9685 3.07612C13.7847 3 13.5803 3 13.1716 3Z" stroke="#222222" stroke-width="1.2"/>
<path d="M13.8553 14.0805L10.6727 12.7165C9.88086 12.3771 9 12.958 9 13.8195V16.1798C9 17.0413 9.88086 17.6221 10.6727 17.2827L13.8553 15.9188C14.6634 15.5724 14.6634 14.4268 13.8553 14.0805Z" stroke="#222222" stroke-width="1.2" stroke-linecap="round" stroke-linejoin="round"/>
<path d="M13 3V7C13 7.94281 13 8.41421 13.2929 8.70711C13.5858 9 14.0572 9 15 9H19" stroke="#222222" stroke-width="1.2"/>
</svg>
