<svg width="24" height="24" viewBox="0 0 24 24" fill="none" xmlns="http://www.w3.org/2000/svg">
<path d="M12.4208 7.60217C13.1521 9.00246 13.5226 10.563 13.4989 12.1426C13.4752 13.7222 13.058 15.2709 12.285 16.6486" stroke="#222222"/>
<path d="M14.5 5.5C11.7189 9.20812 4.64088 11.6272 3.62274 11.9605C3.57878 11.9748 3.57584 12.0335 3.61809 12.0523C4.61914 12.4983 11.7146 15.7146 14.5 18.5" stroke="#222222" stroke-linecap="round"/>
<path d="M13.233 14.4891C12.8905 14.5212 12.545 14.4822 12.2182 14.3746C11.8915 14.267 11.5904 14.0932 11.3339 13.8639C11.0774 13.6346 10.871 13.3549 10.7276 13.0422C10.5842 12.7295 10.5068 12.3905 10.5004 12.0466C10.494 11.7026 10.5587 11.361 10.6903 11.0432C10.822 10.7254 11.0179 10.4381 11.2656 10.1995C11.5134 9.96079 11.8078 9.77583 12.1303 9.65615C12.4528 9.53647 12.7966 9.48465 13.1401 9.50393" stroke="#222222"/>
<path d="M16.5 12H20.5" stroke="#2A4157" stroke-opacity="0.24" stroke-linecap="round"/>
<path d="M16.5 9.5L20.5 8" stroke="#2A4157" stroke-opacity="0.24" stroke-linecap="round"/>
<path d="M16.5 14.5L20.5 16" stroke="#2A4157" stroke-opacity="0.24" stroke-linecap="round"/>
</svg>
