<svg width="24" height="24" viewBox="0 0 24 24" fill="none" xmlns="http://www.w3.org/2000/svg">
<path fill-rule="evenodd" clip-rule="evenodd" d="M15.9202 12.7988C15.9725 12.5407 16 12.2736 16 12C16 9.79086 14.2091 8 12 8C11.7264 8 11.4593 8.02746 11.2012 8.07977L15.9202 12.7988ZM8.66676 9.78799C8.24547 10.4216 8 11.1821 8 12C8 14.2091 9.79086 16 12 16C12.8179 16 13.5784 15.7545 14.212 15.3332L8.66676 9.78799Z" fill="#222222"/>
<path fill-rule="evenodd" clip-rule="evenodd" d="M15.7872 16.9085L6.85842 7.97974C5.54385 8.96489 4.48541 10.1167 3.81198 10.9343C3.42382 11.4056 3.22974 11.6412 3.22974 12C3.22974 12.3588 3.42382 12.5944 3.81198 13.0657C5.23207 14.7899 8.36428 18 12 18C13.3529 18 14.636 17.5555 15.7872 16.9085ZM9.57695 6.45563C10.3479 6.17115 11.1605 6 12 6C15.6357 6 18.768 9.21014 20.188 10.9343C20.5762 11.4056 20.7703 11.6412 20.7703 12C20.7703 12.3588 20.5762 12.5944 20.188 13.0657C19.7137 13.6416 19.0484 14.3833 18.2371 15.1157L9.57695 6.45563Z" fill="#2A4157" fill-opacity="0.24"/>
<path fill-rule="evenodd" clip-rule="evenodd" d="M15.9202 12.7988C15.9725 12.5407 16 12.2736 16 12C16 9.79086 14.2091 8 12 8C11.7264 8 11.4593 8.02746 11.2012 8.07977L15.9202 12.7988ZM8.66676 9.78799C8.24547 10.4216 8 11.1821 8 12C8 14.2091 9.79086 16 12 16C12.8179 16 13.5784 15.7545 14.212 15.3332L8.66676 9.78799Z" fill="#222222"/>
<path d="M8 5L20 17" stroke="#222222" stroke-width="1.2"/>
</svg>
