<svg width="24" height="24" viewBox="0 0 24 24" fill="none" xmlns="http://www.w3.org/2000/svg">
<path d="M17 4H17.2C18.9913 4 19.887 4 20.4435 4.5565C21 5.11299 21 6.00866 21 7.8V8M17 20H17.2C18.9913 20 19.887 20 20.4435 19.4435C21 18.887 21 17.9913 21 16.2V16M7 4H6.8C5.00866 4 4.11299 4 3.5565 4.5565C3 5.11299 3 6.00866 3 7.8V8M7 20H6.8C5.00866 20 4.11299 20 3.5565 19.4435C3 18.887 3 17.9913 3 16.2V16" stroke="#33363F" stroke-width="2" stroke-linecap="round"/>
<path fill-rule="evenodd" clip-rule="evenodd" d="M18.8149 12C18.8149 11.4637 18.6892 11.2462 18.4379 10.8112C17.5834 9.33247 15.6561 7 12 7C8.34395 7 6.41664 9.33247 5.56212 10.8112C5.31077 11.2462 5.18509 11.4637 5.18509 12C5.18509 12.5363 5.31077 12.7538 5.56212 13.1888C6.41664 14.6675 8.34395 17 12 17C15.6561 17 17.5834 14.6675 18.4379 13.1888C18.6892 12.7538 18.8149 12.5363 18.8149 12ZM12 15C13.6569 15 15 13.6569 15 12C15 10.3431 13.6569 9 12 9C10.3432 9 9.00001 10.3431 9.00001 12C9.00001 13.6569 10.3432 15 12 15Z" fill="#33363F"/>
</svg>
