<svg width="24" height="24" viewBox="0 0 24 24" fill="none" xmlns="http://www.w3.org/2000/svg">
<path d="M12.864 7.37071C13.6338 8.8447 14.0238 10.4874 13.9989 12.1501C13.9739 13.8128 13.5347 15.4431 12.721 16.8933L4 12L12.864 7.37071Z" fill="#2A4157" fill-opacity="0.24"/>
<path d="M14.5 5.5C11.7189 9.20812 4.64088 11.6272 3.62274 11.9605C3.57878 11.9748 3.57584 12.0335 3.61809 12.0523C4.61914 12.4983 11.7146 15.7146 14.5 18.5" stroke="#222222" stroke-linecap="round"/>
<path fill-rule="evenodd" clip-rule="evenodd" d="M13.5498 9.03334C13.862 10.0385 14.0148 11.0902 13.9989 12.1501C13.9845 13.1091 13.8323 14.0572 13.5499 14.9663C12.1066 14.7491 11 13.5037 11 11.9998C11 10.4959 12.1065 9.25054 13.5498 9.03334Z" fill="#222222"/>
<path d="M16.5 12H20.5" stroke="#2A4157" stroke-opacity="0.24" stroke-linecap="round"/>
<path d="M16.5 9.5L20.5 8" stroke="#2A4157" stroke-opacity="0.24" stroke-linecap="round"/>
<path d="M16.5 14.5L20.5 16" stroke="#2A4157" stroke-opacity="0.24" stroke-linecap="round"/>
</svg>
