<svg width="24" height="24" viewBox="0 0 24 24" fill="none" xmlns="http://www.w3.org/2000/svg">
<path d="M11.7248 7.3818C12.4927 8.66636 12.9282 10.1221 12.9919 11.6174C13.0555 13.1127 12.7452 14.6002 12.0892 15.9453" stroke="#33363F" stroke-width="2"/>
<path d="M14 5C11.1857 7.81427 3.97138 11.5086 3.0889 11.9552C3.05214 11.9738 3.05214 12.0262 3.0889 12.0448C3.97137 12.4914 11.1857 16.1857 14 19" stroke="#33363F" stroke-width="2" stroke-linecap="round"/>
<path d="M16 12H21" stroke="#33363F" stroke-width="2" stroke-linecap="round"/>
<path d="M16 9L21 7" stroke="#33363F" stroke-width="2" stroke-linecap="round"/>
<path d="M16 15L21 17" stroke="#33363F" stroke-width="2" stroke-linecap="round"/>
<path fill-rule="evenodd" clip-rule="evenodd" d="M13.6873 9.51872C13.4971 8.77626 13.2215 8.05529 12.864 7.37071L4 12L12.721 16.8933C13.1484 16.1315 13.4725 15.3201 13.6875 14.4804C13.2067 14.808 12.6257 14.9996 12 14.9996C10.3431 14.9996 9 13.6565 9 11.9996C9 10.3428 10.3431 8.99962 12 8.99962C12.6256 8.99962 13.2065 9.19113 13.6873 9.51872Z" fill="#33363F"/>
</svg>
