<svg width="24" height="24" viewBox="0 0 24 24" fill="none" xmlns="http://www.w3.org/2000/svg">
<path d="M11.9776 7.83364C12.6704 9.16023 13.0214 10.6386 12.999 12.1351C12.9765 13.6315 12.5812 15.0987 11.8489 16.4039" stroke="#33363F" stroke-width="2"/>
<path d="M14 5C11.1857 7.81427 3.97138 11.5086 3.0889 11.9552C3.05214 11.9738 3.05214 12.0262 3.0889 12.0448C3.97137 12.4914 11.1857 16.1857 14 19" stroke="#33363F" stroke-width="2" stroke-linecap="round"/>
<path d="M16 12H21" stroke="#33363F" stroke-width="2" stroke-linecap="round"/>
<path d="M16 9L21 7" stroke="#33363F" stroke-width="2" stroke-linecap="round"/>
<path d="M16 15L21 17" stroke="#33363F" stroke-width="2" stroke-linecap="round"/>
<path d="M11.794 7.4996C12.5424 8.79567 12.9557 10.2579 12.9966 11.7539C13.0376 13.25 12.7047 14.7326 12.0283 16.0677" stroke="#33363F" stroke-width="2"/>
<path d="M12.5176 13.9315C12.2213 14.0109 11.9107 14.021 11.6098 13.9612C11.3089 13.9013 11.0259 13.7731 10.7825 13.5863C10.5391 13.3996 10.3419 13.1593 10.2063 12.8842C10.0706 12.6091 10 12.3064 10 11.9996C10 11.6928 10.0706 11.3902 10.2063 11.115C10.3419 10.8399 10.5391 10.5997 10.7825 10.4129C11.0259 10.2262 11.3089 10.0979 11.6098 10.038C11.9107 9.9782 12.2213 9.98837 12.5176 10.0678" stroke="#33363F" stroke-width="2"/>
</svg>
