<svg width="24" height="24" viewBox="0 0 24 24" fill="none" xmlns="http://www.w3.org/2000/svg">
<path d="M3 10C3 7.17157 3 5.75736 3.87868 4.87868C4.75736 4 6.17157 4 9 4H15C17.8284 4 19.2426 4 20.1213 4.87868C21 5.75736 21 7.17157 21 10V11.7C21 11.8414 21 11.9121 20.9561 11.9561C20.9121 12 20.8414 12 20.7 12H16.5C16.0353 12 15.803 12 15.6098 12.0384C14.8164 12.1962 14.1962 12.8164 14.0384 13.6098C14 13.803 14 14.0353 14 14.5C14 14.9647 14 15.197 14.0384 15.3902C14.1962 16.1836 14.8164 16.8038 15.6098 16.9616C15.803 17 16.0353 17 16.5 17H20.8571C20.936 17 21 17.064 21 17.1429C21 18.7208 19.7208 20 18.1429 20H9C6.17157 20 4.75736 20 3.87868 19.1213C3 18.2426 3 16.8284 3 14V10Z" fill="#2A4157" fill-opacity="0.24"/>
<path d="M14 14C14 12.8954 14.8954 12 16 12H20.85C20.9328 12 21 12.0672 21 12.15V16.85C21 16.9328 20.9328 17 20.85 17H16C14.8954 17 14 16.1046 14 15V14Z" fill="#222222"/>
<rect x="6" y="7" width="6" height="1" rx="0.5" fill="#222222"/>
</svg>
