<svg width="24" height="24" viewBox="0 0 24 24" fill="none" xmlns="http://www.w3.org/2000/svg">
<rect x="6.5" y="6.5" width="11" height="11" rx="2.5" stroke="#33363F"/>
<path d="M15 6.5H15.5V6V5L15.5 4.96708C15.5 4.52384 15.5 4.14193 15.4589 3.8361C15.4149 3.50835 15.3155 3.19417 15.0607 2.93934C14.8058 2.68451 14.4917 2.58514 14.1639 2.54107C13.8581 2.49995 13.4762 2.49997 13.0329 2.5L13 2.5H11C10.989 2.5 10.978 2.5 10.9671 2.5C10.5238 2.49997 10.1419 2.49995 9.8361 2.54107C9.50835 2.58514 9.19417 2.68451 8.93934 2.93934C8.68451 3.19417 8.58514 3.50835 8.54107 3.8361C8.49995 4.14193 8.49997 4.52384 8.5 4.96708C8.5 4.97802 8.5 4.98899 8.5 5V6V6.5H9H15Z" stroke="#33363F"/>
<path d="M15 17.5H15.5V18V19L15.5 19.0329C15.5 19.4762 15.5 19.8581 15.4589 20.1639C15.4149 20.4917 15.3155 20.8058 15.0607 21.0607C14.8058 21.3155 14.4917 21.4149 14.1639 21.4589C13.8581 21.5 13.4762 21.5 13.0329 21.5L13 21.5H11C10.989 21.5 10.978 21.5 10.9671 21.5C10.5238 21.5 10.1419 21.5 9.8361 21.4589C9.50835 21.4149 9.19417 21.3155 8.93934 21.0607C8.68451 20.8058 8.58514 20.4917 8.54107 20.1639C8.49995 19.8581 8.49997 19.4762 8.5 19.0329C8.5 19.022 8.5 19.011 8.5 19V18V17.5H9H15Z" stroke="#33363F"/>
</svg>
