<svg width="24" height="24" viewBox="0 0 24 24" fill="none" xmlns="http://www.w3.org/2000/svg">
<circle cx="12" cy="12" r="8" fill="#2A4157" fill-opacity="0.24" stroke="#222222" stroke-width="1.2"/>
<path d="M18.572 6.42127C17.8483 7.20326 16.8869 7.84488 15.7672 8.29313C14.6475 8.74138 13.4017 8.98339 12.1326 8.99918C10.8636 9.01496 9.60778 8.80406 8.4689 8.3839C7.33002 7.96374 6.34077 7.34638 5.58288 6.58282" stroke="#222222" stroke-width="1.2"/>
<path d="M18.572 17.5787C17.8483 16.7967 16.8869 16.1551 15.7672 15.7069C14.6475 15.2586 13.4017 15.0166 12.1326 15.0008C10.8636 14.985 9.60778 15.1959 8.4689 15.6161C7.33002 16.0363 6.34077 16.6536 5.58288 17.4172" stroke="#222222" stroke-width="1.2"/>
<path d="M12 4V20" stroke="#222222" stroke-width="1.2"/>
<path d="M20 12H4" stroke="#222222" stroke-width="1.2"/>
</svg>
