<svg width="24" height="24" viewBox="0 0 24 24" fill="none" xmlns="http://www.w3.org/2000/svg">
<path fill-rule="evenodd" clip-rule="evenodd" d="M11 3.05505V8.94321C9.46342 8.76785 8.04833 8.19313 6.97374 7.32002C6.37674 6.83496 5.91152 6.281 5.58308 5.68956C6.99611 4.25287 8.88792 3.28853 11 3.05505ZM13 3.05505V8.94321C14.5366 8.76785 15.9517 8.19313 17.0263 7.32002C17.6233 6.83496 18.0885 6.281 18.4169 5.68957C17.0039 4.25288 15.1121 3.28853 13 3.05505ZM19.7168 7.36596C19.3207 7.91612 18.8406 8.42284 18.2874 8.87225C16.8355 10.052 14.9677 10.7711 13 10.9537L13 13.0462C13.8146 13.1218 14.6157 13.2896 15.3804 13.547C16.4564 13.9091 17.4455 14.4435 18.2874 15.1276C18.837 15.5741 19.3182 16.0799 19.717 16.6339C20.5315 15.2803 21 13.6949 21 12.0001C21 10.3051 20.5314 8.7196 19.7168 7.36596ZM18.417 18.3106C18.0861 17.7153 17.6183 17.1609 17.0263 16.6799C16.3825 16.1568 15.6078 15.7337 14.7425 15.4425C14.1847 15.2548 13.599 15.1252 13 15.0568V20.9452C15.1121 20.7117 17.004 19.7473 18.417 18.3106ZM11 20.9452L11 15.0568C10.401 15.1252 9.81528 15.2548 9.2575 15.4425C8.39222 15.7337 7.61751 16.1568 6.97374 16.6799C6.38168 17.1609 5.91388 17.7153 5.58301 18.3106C6.99604 19.7473 8.88788 20.7117 11 20.9452ZM4.28297 16.6339C4.68176 16.0799 5.16302 15.5741 5.71255 15.1276C6.55451 14.4435 7.54363 13.9091 8.61956 13.547C9.38428 13.2896 10.1854 13.1218 11 13.0462V10.9537C9.03233 10.7711 7.16455 10.052 5.71255 8.87225C5.15944 8.42284 4.67933 7.91612 4.28321 7.36596C3.46856 8.7196 3 10.3051 3 12.0001C3 13.6949 3.46846 15.2803 4.28297 16.6339Z" fill="#33363F"/>
</svg>
