<svg width="24" height="24" viewBox="0 0 24 24" fill="none" xmlns="http://www.w3.org/2000/svg">
<circle cx="12" cy="12" r="8" stroke="#222222"/>
<path d="M18.572 7.20637C17.8483 8.05353 16.8869 8.74862 15.7672 9.23422C14.6475 9.71983 13.4017 9.98201 12.1326 9.99911C10.8636 10.0162 9.60778 9.78773 8.4689 9.33256C7.33002 8.87739 6.34077 8.20858 5.58288 7.38139" stroke="#222222"/>
<path d="M18.572 16.7936C17.8483 15.9465 16.8869 15.2514 15.7672 14.7658C14.6475 14.2802 13.4017 14.018 12.1326 14.0009C10.8636 13.9838 9.60778 14.2123 8.4689 14.6674C7.33002 15.1226 6.34077 15.7914 5.58288 16.6186" stroke="#222222"/>
<path d="M12 4V20" stroke="#222222"/>
</svg>
